<?xml version="1.0" encoding="UTF-8" standalone="no"?>
<!DOCTYPE svg PUBLIC "-//W3C//DTD SVG 1.1//EN" "http://www.w3.org/Graphics/SVG/1.1/DTD/svg11.dtd">
<svg width="100%" height="100%" viewBox="0 0 62 62" version="1.1" xmlns="http://www.w3.org/2000/svg" xmlns:xlink="http://www.w3.org/1999/xlink" xml:space="preserve" xmlns:serif="http://www.serif.com/" style="fill-rule:evenodd;clip-rule:evenodd;stroke-linejoin:round;stroke-miterlimit:2;">
    <g transform="matrix(1,0,0,1,-7370,-4811.63)">
        <g transform="matrix(1,0,0,1,6480,4773.38)">
            <path d="M921,59.571C922.372,59.571 923.503,59.087 924.391,58.118C925.359,57.23 925.844,56.1 925.844,54.728C925.844,53.355 925.359,52.225 924.391,51.337C923.503,50.368 922.372,49.884 921,49.884C919.628,49.884 918.497,50.368 917.609,51.337C916.641,52.225 916.156,53.355 916.156,54.728C916.156,56.1 916.641,57.23 917.609,58.118C918.497,59.087 919.628,59.571 921,59.571ZM933.715,59.692L926.57,61.751C922.857,62.8 919.143,62.8 915.43,61.751L908.285,59.692C906.509,59.369 905.298,60.015 904.652,61.63C904.329,63.406 904.975,64.617 906.59,65.263L913.855,67.321C914.098,67.402 914.38,67.483 914.703,67.563L915.188,67.563L915.188,73.255L911.434,83.79C911.03,85.485 911.635,86.737 913.25,87.544C913.573,87.625 913.896,87.665 914.219,87.665C915.51,87.584 916.439,86.938 917.004,85.728L920.031,77.13C920.273,76.726 920.596,76.524 921,76.524C921.404,76.524 921.727,76.726 921.969,77.13L924.996,85.728C925.561,86.938 926.49,87.584 927.781,87.665C928.104,87.665 928.427,87.625 928.75,87.544C930.365,86.737 930.97,85.485 930.566,83.79L926.813,73.255L926.813,67.563L927.297,67.563C927.62,67.483 927.902,67.402 928.145,67.321L935.41,65.263C937.025,64.617 937.671,63.406 937.348,61.63C936.702,60.015 935.491,59.369 933.715,59.692ZM921,38.259C915.188,38.34 909.98,39.752 905.379,42.497C900.697,45.242 896.983,48.955 894.238,53.638C891.493,58.239 890.081,63.446 890,69.259C890.081,75.071 891.493,80.278 894.238,84.88C896.983,89.562 900.697,93.276 905.379,96.021C909.98,98.765 915.188,100.178 921,100.259C926.813,100.178 932.02,98.765 936.621,96.021C941.303,93.276 945.017,89.562 947.762,84.88C950.507,80.278 951.919,75.071 952,69.259C951.919,63.446 950.507,58.239 947.762,53.638C945.017,48.955 941.303,45.242 936.621,42.497C932.02,39.752 926.813,38.34 921,38.259ZM921,94.446C913.896,94.285 907.962,91.823 903.199,87.06C898.436,82.297 895.974,76.363 895.813,69.259C895.974,62.155 898.436,56.221 903.199,51.458C907.962,46.695 913.896,44.233 921,44.071C928.104,44.233 934.038,46.695 938.801,51.458C943.564,56.221 946.026,62.155 946.188,69.259C946.026,76.363 943.564,82.297 938.801,87.06C934.038,91.823 928.104,94.285 921,94.446Z" style="fill:rgb(0,79,129);fill-rule:nonzero;"/>
        </g>
    </g>
</svg>
