<?xml version="1.0" encoding="UTF-8" standalone="no"?>
<!DOCTYPE svg PUBLIC "-//W3C//DTD SVG 1.1//EN" "http://www.w3.org/Graphics/SVG/1.1/DTD/svg11.dtd">
<svg width="100%" height="100%" viewBox="0 0 62 62" version="1.1" xmlns="http://www.w3.org/2000/svg" xmlns:xlink="http://www.w3.org/1999/xlink" xml:space="preserve" xmlns:serif="http://www.serif.com/" style="fill-rule:evenodd;clip-rule:evenodd;stroke-linejoin:round;stroke-miterlimit:2;">
    <g transform="matrix(1,0,0,1,-2732.93,300.963)">
        <g transform="matrix(1,0,0,1,1803.93,-353.661)">
            <path d="M991,83.698C990.919,89.511 989.507,94.718 986.762,99.319C984.017,104.002 980.303,107.715 975.621,110.46C971.02,113.205 965.813,114.618 960,114.698C954.188,114.618 948.98,113.205 944.379,110.46C939.697,107.715 935.983,104.002 933.238,99.319C930.493,94.718 929.081,89.511 929,83.698C929.081,77.886 930.493,72.679 933.238,68.077C935.983,63.395 939.697,59.681 944.379,56.937C948.98,54.192 954.188,52.779 960,52.698C965.813,52.779 971.02,54.192 975.621,56.937C980.303,59.681 984.017,63.395 986.762,68.077C989.507,72.679 990.919,77.886 991,83.698ZM948.375,73.284L945.711,72.194L943.652,77.644L946.438,78.612L954.188,81.519L954.188,88.058L950.434,99.198L949.586,101.983L955.035,103.8L956.004,101.136L959.152,91.448L960.848,91.448L963.996,101.136L964.965,103.8L970.414,101.983L969.566,99.198L965.813,88.058L965.813,81.519L973.563,78.612L976.348,77.644L974.289,72.194L971.625,73.284L964.359,75.948L955.641,75.948L948.496,73.284L948.375,73.284ZM960,72.073C961.372,72.073 962.503,71.589 963.391,70.62C964.359,69.732 964.844,68.602 964.844,67.229C964.844,65.857 964.359,64.727 963.391,63.839C962.503,62.87 961.372,62.386 960,62.386C958.628,62.386 957.497,62.87 956.609,63.839C955.641,64.727 955.156,65.857 955.156,67.229C955.156,68.602 955.641,69.732 956.609,70.62C957.497,71.589 958.628,72.073 960,72.073Z" style="fill:rgb(27,31,69);fill-rule:nonzero;"/>
        </g>
    </g>
</svg>
