<?xml version="1.0" encoding="UTF-8" standalone="no"?>
<!DOCTYPE svg PUBLIC "-//W3C//DTD SVG 1.1//EN" "http://www.w3.org/Graphics/SVG/1.1/DTD/svg11.dtd">
<svg width="100%" height="100%" viewBox="0 0 62 55" version="1.1" xmlns="http://www.w3.org/2000/svg" xmlns:xlink="http://www.w3.org/1999/xlink" xml:space="preserve" xmlns:serif="http://www.serif.com/" style="fill-rule:evenodd;clip-rule:evenodd;stroke-linejoin:round;stroke-miterlimit:2;">
    <g transform="matrix(1,0,0,1,-3857.33,107.882)">
        <g transform="matrix(1,0,0,1,2025.33,-150.016)">
            <path d="M1832,49.884C1832.08,47.704 1832.85,45.888 1834.3,44.435C1835.75,42.981 1837.57,42.215 1839.75,42.134L1886.25,42.134C1888.43,42.215 1890.25,42.981 1891.7,44.435C1893.15,45.888 1893.92,47.704 1894,49.884L1894,88.634C1893.92,90.813 1893.15,92.63 1891.7,94.083C1890.25,95.536 1888.43,96.303 1886.25,96.384L1839.75,96.384C1837.57,96.303 1835.75,95.536 1834.3,94.083C1832.85,92.63 1832.08,90.813 1832,88.634L1832,49.884ZM1865.91,66.353L1888.19,66.353L1888.19,49.884C1888.11,48.673 1887.46,48.027 1886.25,47.946L1865.91,47.946L1865.91,66.353ZM1860.09,47.946L1839.75,47.946C1838.54,48.027 1837.89,48.673 1837.81,49.884L1837.81,66.353L1860.09,66.353L1860.09,47.946ZM1837.81,72.165L1837.81,88.634C1837.89,89.845 1838.54,90.491 1839.75,90.571L1860.09,90.571L1860.09,72.165L1837.81,72.165ZM1865.91,90.571L1886.25,90.571C1887.46,90.491 1888.11,89.845 1888.19,88.634L1888.19,72.165L1865.91,72.165L1865.91,90.571Z" 
            style="fill:rgb(0,0,0);fill-rule:nonzero;"/>
        </g>
    </g>
</svg>
