<?xml version="1.0" encoding="UTF-8" standalone="no"?>
<!DOCTYPE svg PUBLIC "-//W3C//DTD SVG 1.1//EN" "http://www.w3.org/Graphics/SVG/1.1/DTD/svg11.dtd">
<svg width="100%" height="100%" viewBox="0 0 62 55" version="1.1" xmlns="http://www.w3.org/2000/svg" xmlns:xlink="http://www.w3.org/1999/xlink" xml:space="preserve" xmlns:serif="http://www.serif.com/" style="fill-rule:evenodd;clip-rule:evenodd;stroke-linejoin:round;stroke-miterlimit:2;">
    <g transform="matrix(1,0,0,1,-12447.8,-4804.9)">
        <g transform="matrix(1,0,0,1,10618.8,4762.77)">
            <path d="M1829,49.884C1829.08,47.704 1829.85,45.888 1831.3,44.435C1832.75,42.981 1834.57,42.215 1836.75,42.134L1883.25,42.134C1885.43,42.215 1887.25,42.981 1888.7,44.435C1890.15,45.888 1890.92,47.704 1891,49.884L1891,88.634C1890.92,90.813 1890.15,92.63 1888.7,94.083C1887.25,95.536 1885.43,96.303 1883.25,96.384L1836.75,96.384C1834.57,96.303 1832.75,95.536 1831.3,94.083C1829.85,92.63 1829.08,90.813 1829,88.634L1829,49.884ZM1862.91,66.353L1885.19,66.353L1885.19,49.884C1885.11,48.673 1884.46,48.027 1883.25,47.946L1862.91,47.946L1862.91,66.353ZM1857.09,47.946L1836.75,47.946C1835.54,48.027 1834.89,48.673 1834.81,49.884L1834.81,66.353L1857.09,66.353L1857.09,47.946ZM1834.81,72.165L1834.81,88.634C1834.89,89.845 1835.54,90.491 1836.75,90.571L1857.09,90.571L1857.09,72.165L1834.81,72.165ZM1862.91,90.571L1883.25,90.571C1884.46,90.491 1885.11,89.845 1885.19,88.634L1885.19,72.165L1862.91,72.165L1862.91,90.571Z" style="fill:rgb(0,79,129);fill-rule:nonzero;"/>
        </g>
    </g>
</svg>
