<?xml version="1.0" encoding="UTF-8" standalone="no"?>
<!DOCTYPE svg PUBLIC "-//W3C//DTD SVG 1.1//EN" "http://www.w3.org/Graphics/SVG/1.1/DTD/svg11.dtd">
<svg width="100%" height="100%" viewBox="0 0 40 40" version="1.1" xmlns="http://www.w3.org/2000/svg" xmlns:xlink="http://www.w3.org/1999/xlink" xml:space="preserve" xmlns:serif="http://www.serif.com/" style="fill-rule:evenodd;clip-rule:evenodd;stroke-linejoin:round;stroke-miterlimit:2;">
    <g transform="matrix(1,0,0,1,-2993.25,-19473.7)">
        <g transform="matrix(1,0,0,1,2160,19093.5)">
            <path d="M845.75,400.121C845.75,400.85 845.516,401.449 845.047,401.918C844.578,402.387 843.979,402.621 843.25,402.621C842.521,402.621 841.922,402.387 841.453,401.918C840.984,401.449 840.75,400.85 840.75,400.121C840.75,399.444 840.984,398.871 841.453,398.402C841.922,397.934 842.521,397.673 843.25,397.621C843.979,397.673 844.578,397.934 845.047,398.402C845.516,398.871 845.75,399.444 845.75,400.121ZM843.25,392.621C843.25,391.944 843.484,391.371 843.953,390.902C844.422,390.434 845.021,390.173 845.75,390.121C846.479,390.173 847.078,390.434 847.547,390.902C848.016,391.371 848.25,391.944 848.25,392.621C848.25,393.35 848.016,393.949 847.547,394.418C847.078,394.887 846.479,395.121 845.75,395.121C845.021,395.121 844.422,394.887 843.953,394.418C843.484,393.949 843.25,393.35 843.25,392.621ZM855.75,390.121C855.75,390.85 855.516,391.449 855.047,391.918C854.578,392.387 853.979,392.621 853.25,392.621C852.521,392.621 851.922,392.387 851.453,391.918C850.984,391.449 850.75,390.85 850.75,390.121C850.75,389.444 850.984,388.871 851.453,388.402C851.922,387.934 852.521,387.673 853.25,387.621C853.979,387.673 854.578,387.934 855.047,388.402C855.516,388.871 855.75,389.444 855.75,390.121ZM858.25,392.621C858.25,391.944 858.484,391.371 858.953,390.902C859.422,390.434 860.021,390.173 860.75,390.121C861.479,390.173 862.078,390.434 862.547,390.902C863.016,391.371 863.25,391.944 863.25,392.621C863.25,393.35 863.016,393.949 862.547,394.418C862.078,394.887 861.479,395.121 860.75,395.121C860.021,395.121 859.422,394.887 858.953,394.418C858.484,393.949 858.25,393.35 858.25,392.621ZM867.781,405.121L860.125,405.121C859.083,405.173 858.198,405.564 857.469,406.293C856.792,407.022 856.427,407.908 856.375,408.949C856.375,409.21 856.401,409.47 856.453,409.73C856.609,410.355 856.818,410.98 857.078,411.605C857.182,411.762 857.26,411.918 857.313,412.074L857.313,412.152C857.885,413.194 858.198,414.262 858.25,415.355C858.25,416.605 857.859,417.699 857.078,418.637C856.349,419.574 855.359,420.095 854.109,420.199L853.25,420.199C849.5,420.147 846.141,419.236 843.172,417.465C840.151,415.694 837.755,413.298 835.984,410.277C834.214,407.309 833.302,403.949 833.25,400.199C833.302,396.449 834.214,393.09 835.984,390.121C837.755,387.1 840.151,384.704 843.172,382.934C846.141,381.163 849.5,380.251 853.25,380.199C857,380.251 860.359,381.163 863.328,382.934C866.349,384.704 868.745,387.1 870.516,390.121C872.286,393.09 873.198,396.449 873.25,400.199L873.25,400.277C873.198,400.329 873.172,400.382 873.172,400.434C873.172,401.84 872.625,402.986 871.531,403.871C870.49,404.757 869.24,405.199 867.781,405.199L867.781,405.121ZM869.422,400.355L869.422,400.277C869.474,400.225 869.5,400.173 869.5,400.121C869.396,395.538 867.807,391.71 864.734,388.637C861.661,385.564 857.833,383.975 853.25,383.871C848.667,383.975 844.839,385.564 841.766,388.637C838.693,391.71 837.104,395.538 837,400.121C837.104,404.757 838.693,408.611 841.766,411.684C844.839,414.757 848.667,416.345 853.25,416.449L854.031,416.449L854.031,416.371C854.083,416.371 854.135,416.345 854.188,416.293C854.396,416.085 854.5,415.772 854.5,415.355C854.552,415.303 854.396,414.861 854.031,414.027C854.031,413.923 854.005,413.819 853.953,413.715C853.536,412.882 853.146,411.814 852.781,410.512C852.677,409.991 852.625,409.47 852.625,408.949C852.677,406.814 853.406,405.017 854.813,403.559C856.219,402.152 857.99,401.423 860.125,401.371L867.781,401.371C868.354,401.371 868.823,401.241 869.188,400.98C869.396,400.772 869.474,400.564 869.422,400.355Z" style="fill:rgb(65,69,72);fill-rule:nonzero;"/>
        </g>
    </g>
</svg>
