<?xml version="1.0" encoding="UTF-8" standalone="no"?>
<!DOCTYPE svg PUBLIC "-//W3C//DTD SVG 1.1//EN" "http://www.w3.org/Graphics/SVG/1.1/DTD/svg11.dtd">
<svg width="100%" height="100%" viewBox="0 0 123 123" version="1.1" xmlns="http://www.w3.org/2000/svg" xmlns:xlink="http://www.w3.org/1999/xlink" xml:space="preserve" xmlns:serif="http://www.serif.com/" style="fill-rule:evenodd;clip-rule:evenodd;stroke-linejoin:round;stroke-miterlimit:2;">
    <g transform="matrix(1,0,0,1,-8818.53,-17040.9)">
        <g transform="matrix(1,0,0,1,8640,15606)">
            <g transform="matrix(1,0,0,-1,223.878,1568.88)">
                <path d="M44.295,11C25.936,11 11,25.936 11,44.295C11,62.653 25.936,77.589 44.295,77.589C62.653,77.589 77.589,62.653 77.589,44.295C77.589,25.936 62.653,11 44.295,11ZM44.295,69.906C30.173,69.906 18.683,58.417 18.683,44.295C18.683,30.173 30.173,18.683 44.295,18.683C58.417,18.683 69.906,30.173 69.906,44.295C69.906,58.417 58.417,69.906 44.295,69.906Z" style="fill:white;"/>
            </g>
            <g transform="matrix(1,0,0,-1,247.581,1553.95)">
                <path d="M29.556,14C28.572,14 27.589,14.374 26.841,15.127L17.877,24.091C17.155,24.813 16.75,25.791 16.75,26.806L16.75,43.453C16.75,45.573 18.471,47.295 20.592,47.295C22.712,47.295 24.433,45.573 24.433,43.453L24.433,28.399L32.27,20.562C33.771,19.061 33.771,16.628 32.27,15.127C31.523,14.374 30.539,14 29.556,14Z" style="fill:white;"/>
            </g>
            <g transform="matrix(1,0,0,-1,178.533,1557.88)">
                <path d="M33.909,0C15.213,0 0,15.213 0,33.909C0,42.96 3.524,51.473 9.932,57.881L65.052,112.996C71.455,119.404 79.968,122.934 89.024,122.934C107.721,122.934 122.934,107.721 122.934,89.024C122.934,82.412 120.992,75.978 117.32,70.4C116.649,69.273 115.419,68.51 114.016,68.51C111.895,68.51 110.174,70.205 110.174,72.326L110.174,73.54L110.82,74.508C113.719,78.852 115.25,83.871 115.25,89.024C115.25,103.484 103.484,115.25 89.024,115.25C82.027,115.25 75.445,112.52 70.487,107.567L15.367,52.452C10.413,47.493 7.683,40.911 7.683,33.909C7.683,19.449 19.449,7.683 33.909,7.683C39.062,7.683 44.082,9.215 48.426,12.109L49.389,12.754L50.556,12.754C52.677,12.754 54.424,11.033 54.424,8.913C54.424,7.412 53.579,6.116 52.334,5.481C46.807,1.895 40.445,0 33.909,0Z" style="fill:white;"/>
            </g>
            <g transform="matrix(1,0,0,-1,208.461,1502.72)">
                <path d="M27.134,6.87C26.15,6.87 25.162,7.249 24.414,8.002L8.381,24.086C6.886,25.587 6.886,28.02 8.386,29.515C9.887,31.016 12.32,31.006 13.821,29.505L29.854,13.421C31.349,11.92 31.349,9.487 29.843,7.987C29.09,7.244 28.112,6.87 27.134,6.87Z" style="fill:white;"/>
            </g>
        </g>
    </g>
</svg>
