<?xml version="1.0" encoding="UTF-8" standalone="no"?>
<!DOCTYPE svg PUBLIC "-//W3C//DTD SVG 1.1//EN" "http://www.w3.org/Graphics/SVG/1.1/DTD/svg11.dtd">
<svg width="100%" height="100%" viewBox="0 0 40 40" version="1.1" xmlns="http://www.w3.org/2000/svg" xmlns:xlink="http://www.w3.org/1999/xlink" xml:space="preserve" xmlns:serif="http://www.serif.com/" style="fill-rule:evenodd;clip-rule:evenodd;stroke-linejoin:round;stroke-miterlimit:2;">
    <g transform="matrix(1,0,0,1,-3502.54,-19928.2)">
        <g transform="matrix(1,0,0,1,2160,19093.5)">
            <g transform="matrix(1,0,0,1,-2160,-19093.5)">
                <path d="M3515.03,19948.2C3515.03,19948.9 3514.8,19949.5 3514.33,19950C3513.86,19950.4 3513.26,19950.7 3512.53,19950.7C3511.81,19950.7 3511.21,19950.4 3510.74,19950C3510.27,19949.5 3510.03,19948.9 3510.03,19948.2C3510.03,19947.5 3510.27,19946.9 3510.74,19946.4C3511.21,19946 3511.81,19945.7 3512.53,19945.7C3513.26,19945.7 3513.86,19946 3514.33,19946.4C3514.8,19946.9 3515.03,19947.5 3515.03,19948.2ZM3512.53,19940.7C3512.53,19940 3512.77,19939.4 3513.24,19938.9C3513.71,19938.5 3514.31,19938.2 3515.03,19938.2C3515.76,19938.2 3516.36,19938.5 3516.83,19938.9C3517.3,19939.4 3517.53,19940 3517.53,19940.7C3517.53,19941.4 3517.3,19942 3516.83,19942.5C3516.36,19942.9 3515.76,19943.2 3515.03,19943.2C3514.31,19943.2 3513.71,19942.9 3513.24,19942.5C3512.77,19942 3512.53,19941.4 3512.53,19940.7ZM3525.03,19938.2C3525.03,19938.9 3524.8,19939.5 3524.33,19940C3523.86,19940.4 3523.26,19940.7 3522.53,19940.7C3521.81,19940.7 3521.21,19940.4 3520.74,19940C3520.27,19939.5 3520.03,19938.9 3520.03,19938.2C3520.03,19937.5 3520.27,19936.9 3520.74,19936.4C3521.21,19936 3521.81,19935.7 3522.53,19935.7C3523.26,19935.7 3523.86,19936 3524.33,19936.4C3524.8,19936.9 3525.03,19937.5 3525.03,19938.2ZM3527.53,19940.7C3527.53,19940 3527.77,19939.4 3528.24,19938.9C3528.71,19938.5 3529.31,19938.2 3530.03,19938.2C3530.76,19938.2 3531.36,19938.5 3531.83,19938.9C3532.3,19939.4 3532.53,19940 3532.53,19940.7C3532.53,19941.4 3532.3,19942 3531.83,19942.5C3531.36,19942.9 3530.76,19943.2 3530.03,19943.2C3529.31,19943.2 3528.71,19942.9 3528.24,19942.5C3527.77,19942 3527.53,19941.4 3527.53,19940.7ZM3537.07,19953.2L3529.41,19953.2C3528.37,19953.2 3527.48,19953.6 3526.75,19954.3C3526.08,19955.1 3525.71,19955.9 3525.66,19957C3525.66,19957.2 3525.69,19957.5 3525.74,19957.8C3525.89,19958.4 3526.1,19959 3526.36,19959.6C3526.47,19959.8 3526.55,19960 3526.6,19960.1L3526.6,19960.2C3527.17,19961.2 3527.48,19962.3 3527.53,19963.4C3527.53,19964.6 3527.14,19965.7 3526.36,19966.7C3525.63,19967.6 3524.64,19968.1 3523.39,19968.2L3522.53,19968.2C3518.78,19968.2 3515.43,19967.3 3512.46,19965.5C3509.44,19963.7 3507.04,19961.3 3505.27,19958.3C3503.5,19955.3 3502.59,19952 3502.53,19948.2C3502.59,19944.5 3503.5,19941.1 3505.27,19938.2C3507.04,19935.1 3509.44,19932.7 3512.46,19931C3515.43,19929.2 3518.78,19928.3 3522.53,19928.2C3526.28,19928.3 3529.64,19929.2 3532.61,19931C3535.63,19932.7 3538.03,19935.1 3539.8,19938.2C3541.57,19941.1 3542.48,19944.5 3542.53,19948.2L3542.53,19948.3C3542.48,19948.4 3542.46,19948.4 3542.46,19948.5C3542.46,19949.9 3541.91,19951 3540.82,19951.9C3539.78,19952.8 3538.53,19953.2 3537.07,19953.2L3537.07,19953.2ZM3538.71,19948.4L3538.71,19948.3C3538.76,19948.3 3538.78,19948.2 3538.78,19948.2C3538.68,19943.6 3537.09,19939.7 3534.02,19936.7C3530.95,19933.6 3527.12,19932 3522.53,19931.9C3517.95,19932 3514.12,19933.6 3511.05,19936.7C3507.98,19939.7 3506.39,19943.6 3506.28,19948.2C3506.39,19952.8 3507.98,19956.6 3511.05,19959.7C3514.12,19962.8 3517.95,19964.4 3522.53,19964.5L3523.32,19964.5L3523.32,19964.4C3523.37,19964.4 3523.42,19964.4 3523.47,19964.3C3523.68,19964.1 3523.78,19963.8 3523.78,19963.4C3523.84,19963.3 3523.68,19962.9 3523.32,19962.1C3523.32,19962 3523.29,19961.9 3523.24,19961.7C3522.82,19960.9 3522.43,19959.8 3522.07,19958.5C3521.96,19958 3521.91,19957.5 3521.91,19957C3521.96,19954.8 3522.69,19953.1 3524.1,19951.6C3525.5,19950.2 3527.28,19949.5 3529.41,19949.4L3537.07,19949.4C3537.64,19949.4 3538.11,19949.3 3538.47,19949C3538.68,19948.8 3538.76,19948.6 3538.71,19948.4Z" style="fill:rgb(65,69,72);fill-rule:nonzero;"/>
            </g>
        </g>
    </g>
</svg>
