<?xml version="1.0" encoding="UTF-8" standalone="no"?>
<!DOCTYPE svg PUBLIC "-//W3C//DTD SVG 1.1//EN" "http://www.w3.org/Graphics/SVG/1.1/DTD/svg11.dtd">
<svg width="100%" height="100%" viewBox="0 0 35 34" version="1.1" xmlns="http://www.w3.org/2000/svg" xmlns:xlink="http://www.w3.org/1999/xlink" xml:space="preserve" xmlns:serif="http://www.serif.com/" style="fill-rule:evenodd;clip-rule:evenodd;stroke-linejoin:round;stroke-miterlimit:2;">
    <g transform="matrix(1,0,0,1,-7822.71,-19482.2)">
        <g transform="matrix(1,0,0,1,6480,19093.5)">
            <g transform="matrix(1,0,0,1,-6520,-19133.5)">
                <path d="M7876.46,19537.8C7875.63,19538.6 7874.77,19538.6 7873.88,19537.8L7867.63,19531.6C7866.9,19530.7 7866.9,19529.9 7867.63,19529C7868.52,19528.2 7869.4,19528.2 7870.29,19529L7875.21,19533.9L7886.38,19522.7C7887.27,19522 7888.13,19522 7888.96,19522.7C7889.74,19523.6 7889.74,19524.5 7888.96,19525.4L7876.46,19537.8ZM7876.46,19555.3C7875.63,19556.1 7874.77,19556.1 7873.88,19555.3L7863.26,19544.7C7862.53,19543.8 7862.53,19543 7863.26,19542.1C7864.14,19541.4 7865.03,19541.4 7865.91,19542.1L7875.21,19551.4L7894.51,19532.1C7895.39,19531.4 7896.25,19531.4 7897.09,19532.1C7897.87,19533 7897.87,19533.8 7897.09,19534.7L7876.46,19555.3Z" style="fill:rgb(65,69,72);fill-rule:nonzero;"/>
            </g>
        </g>
    </g>
</svg>
