<?xml version="1.0" encoding="UTF-8" standalone="no"?>
<!DOCTYPE svg PUBLIC "-//W3C//DTD SVG 1.1//EN" "http://www.w3.org/Graphics/SVG/1.1/DTD/svg11.dtd">
<svg width="100%" height="100%" viewBox="0 0 246 194" version="1.1" xmlns="http://www.w3.org/2000/svg" xmlns:xlink="http://www.w3.org/1999/xlink" xml:space="preserve" xmlns:serif="http://www.serif.com/" style="fill-rule:evenodd;clip-rule:evenodd;stroke-linejoin:round;stroke-miterlimit:2;">
    <g transform="matrix(1,0,0,1,-8805.5,-17368.7)">
        <g transform="matrix(1,0,0,1,8640,15606)">
            <g transform="matrix(1.02831,1.02831,1.02831,-1.02831,197.767,1908.21)">
                <path d="M44.295,11C25.936,11 11,25.936 11,44.295C11,62.653 25.936,77.589 44.295,77.589C62.653,77.589 77.589,62.653 77.589,44.295C77.589,25.936 62.653,11 44.295,11ZM44.295,69.906C30.173,69.906 18.683,58.417 18.683,44.295C18.683,30.173 30.173,18.683 44.295,18.683C58.417,18.683 69.906,30.173 69.906,44.295C69.906,58.417 58.417,69.906 44.295,69.906Z" style="fill:white;"/>
            </g>
        </g>
        <g transform="matrix(1,0,0,1,8640,15606)">
            <g transform="matrix(1.02831,1.02831,1.02831,-1.02831,237.491,1917.23)">
                <path d="M29.556,14C28.572,14 27.589,14.374 26.841,15.127L17.877,24.091C17.155,24.813 16.75,25.791 16.75,26.806L16.75,43.453C16.75,45.573 18.471,47.295 20.592,47.295C22.712,47.295 24.433,45.573 24.433,43.453L24.433,28.399L32.27,20.562C33.771,19.061 33.771,16.628 32.27,15.127C31.523,14.374 30.539,14 29.556,14Z" style="fill:white;"/>
            </g>
        </g>
        <g transform="matrix(1,0,0,1,8640,15606)">
            <g transform="matrix(1.02831,1.02831,1.02831,-1.02831,152.646,1813.57)">
                <path d="M-4,31C-4,32.146 -3.944,33.29 -3.831,34.431C-3.719,35.571 -3.551,36.704 -3.327,37.828C-3.104,38.952 -2.826,40.063 -2.493,41.16C-2.16,42.257 -1.774,43.335 -1.336,44.394C-0.897,45.453 -0.408,46.488 0.133,47.499C0.673,48.51 1.262,49.492 1.899,50.445C2.535,51.398 3.217,52.318 3.945,53.204C4.672,54.09 5.441,54.938 6.251,55.749C7.062,56.559 7.91,57.328 8.796,58.055C9.682,58.783 10.602,59.465 11.555,60.101C12.508,60.738 13.49,61.327 14.501,61.867C15.512,62.408 16.547,62.897 17.606,63.336C18.665,63.774 19.743,64.16 20.84,64.493C21.937,64.826 23.048,65.104 24.172,65.327C25.296,65.551 26.429,65.719 27.569,65.831C28.71,65.944 29.854,66 31,66L74,66L74,-4L31,-4C29.854,-4 28.71,-3.944 27.569,-3.831C26.429,-3.719 25.296,-3.551 24.172,-3.327C23.048,-3.104 21.937,-2.826 20.84,-2.493C19.743,-2.16 18.665,-1.774 17.606,-1.336C16.547,-0.897 15.512,-0.408 14.501,0.133C13.49,0.673 12.508,1.262 11.555,1.899C10.602,2.535 9.682,3.217 8.796,3.945C7.91,4.672 7.062,5.441 6.251,6.251C5.441,7.062 4.672,7.91 3.945,8.796C3.217,9.682 2.535,10.602 1.899,11.555C1.262,12.508 0.673,13.49 0.133,14.501C-0.408,15.512 -0.897,16.547 -1.336,17.606C-1.774,18.665 -2.16,19.743 -2.493,20.84C-2.826,21.937 -3.104,23.048 -3.327,24.172C-3.551,25.296 -3.719,26.429 -3.831,27.569C-3.944,28.71 -4,29.854 -4,31ZM4,31C4,30.116 4.043,29.234 4.13,28.353C4.217,27.473 4.346,26.6 4.519,25.733C4.691,24.865 4.906,24.009 5.163,23.162C5.419,22.316 5.717,21.485 6.055,20.668C6.394,19.851 6.771,19.052 7.188,18.272C7.605,17.492 8.059,16.735 8.55,16C9.042,15.264 9.568,14.555 10.129,13.871C10.69,13.188 11.283,12.533 11.908,11.908C12.533,11.283 13.188,10.69 13.871,10.129C14.555,9.568 15.264,9.042 16,8.55C16.735,8.059 17.492,7.605 18.272,7.188C19.052,6.771 19.851,6.394 20.668,6.055C21.485,5.717 22.316,5.419 23.162,5.163C24.009,4.906 24.865,4.691 25.733,4.519C26.6,4.346 27.474,4.217 28.354,4.13C29.234,4.043 30.116,4 31,4L66,4L66,58L31,58C30.116,58 29.234,57.957 28.354,57.87C27.474,57.783 26.6,57.654 25.733,57.481C24.865,57.309 24.009,57.094 23.162,56.837C22.316,56.581 21.485,56.283 20.668,55.945C19.851,55.606 19.052,55.229 18.272,54.812C17.492,54.395 16.735,53.941 16,53.45C15.264,52.958 14.555,52.432 13.871,51.871C13.188,51.31 12.533,50.717 11.908,50.092C11.283,49.467 10.69,48.812 10.129,48.129C9.568,47.445 9.042,46.736 8.55,46C8.059,45.265 7.605,44.508 7.188,43.728C6.771,42.948 6.394,42.149 6.055,41.332C5.717,40.515 5.419,39.684 5.163,38.838C4.906,37.991 4.691,37.135 4.519,36.267C4.346,35.4 4.217,34.526 4.13,33.646C4.043,32.766 4,31.884 4,31Z" style="fill:white;"/>
            </g>
        </g>
        <g transform="matrix(1,0,0,1,8640,15606)">
            <g transform="matrix(-1.02831,1.02831,1.02831,1.02831,360.363,1749.82)">
                <path d="M-4,31C-4,32.146 -3.944,33.29 -3.831,34.431C-3.719,35.571 -3.551,36.704 -3.327,37.828C-3.104,38.952 -2.826,40.063 -2.493,41.16C-2.16,42.257 -1.774,43.335 -1.336,44.394C-0.897,45.453 -0.408,46.488 0.133,47.499C0.673,48.51 1.262,49.492 1.899,50.445C2.535,51.398 3.217,52.318 3.945,53.204C4.672,54.09 5.441,54.938 6.251,55.749C7.062,56.559 7.91,57.328 8.796,58.055C9.682,58.783 10.602,59.465 11.555,60.101C12.508,60.738 13.49,61.327 14.501,61.867C15.512,62.408 16.547,62.897 17.606,63.336C18.665,63.774 19.743,64.16 20.84,64.493C21.937,64.826 23.048,65.104 24.172,65.327C25.296,65.551 26.429,65.719 27.569,65.831C28.71,65.944 29.854,66 31,66L74,66L74,-4L31,-4C29.854,-4 28.71,-3.944 27.569,-3.831C26.429,-3.719 25.296,-3.551 24.172,-3.327C23.048,-3.104 21.937,-2.826 20.84,-2.493C19.743,-2.16 18.665,-1.774 17.606,-1.336C16.547,-0.897 15.512,-0.408 14.501,0.133C13.49,0.673 12.508,1.262 11.555,1.899C10.602,2.535 9.682,3.217 8.796,3.945C7.91,4.672 7.062,5.441 6.251,6.251C5.441,7.062 4.672,7.91 3.945,8.796C3.217,9.682 2.535,10.602 1.899,11.555C1.262,12.508 0.673,13.49 0.133,14.501C-0.408,15.512 -0.897,16.547 -1.336,17.606C-1.774,18.665 -2.16,19.743 -2.493,20.84C-2.826,21.937 -3.104,23.048 -3.327,24.172C-3.551,25.296 -3.719,26.429 -3.831,27.569C-3.944,28.71 -4,29.854 -4,31ZM4,31C4,30.116 4.043,29.234 4.13,28.353C4.217,27.473 4.346,26.6 4.519,25.733C4.691,24.865 4.906,24.009 5.163,23.162C5.419,22.316 5.717,21.485 6.055,20.668C6.394,19.851 6.771,19.052 7.188,18.272C7.605,17.492 8.059,16.735 8.55,16C9.042,15.264 9.568,14.555 10.129,13.871C10.69,13.188 11.283,12.533 11.908,11.908C12.533,11.283 13.188,10.69 13.871,10.129C14.555,9.568 15.264,9.042 16,8.55C16.735,8.059 17.492,7.605 18.272,7.188C19.052,6.771 19.851,6.394 20.668,6.055C21.485,5.717 22.316,5.419 23.162,5.163C24.009,4.906 24.865,4.691 25.733,4.519C26.6,4.346 27.474,4.217 28.354,4.13C29.234,4.043 30.116,4 31,4L66,4L66,58L31,58C30.116,58 29.234,57.957 28.354,57.87C27.474,57.783 26.6,57.654 25.733,57.481C24.865,57.309 24.009,57.094 23.162,56.837C22.316,56.581 21.485,56.283 20.668,55.945C19.851,55.606 19.052,55.229 18.272,54.812C17.492,54.395 16.735,53.941 16,53.45C15.264,52.958 14.555,52.432 13.871,51.871C13.188,51.31 12.533,50.717 11.908,50.092C11.283,49.467 10.69,48.812 10.129,48.129C9.568,47.445 9.042,46.736 8.55,46C8.059,45.265 7.605,44.508 7.188,43.728C6.771,42.948 6.394,42.149 6.055,41.332C5.717,40.515 5.419,39.684 5.163,38.838C4.906,37.991 4.691,37.135 4.519,36.267C4.346,35.4 4.217,34.526 4.13,33.646C4.043,32.766 4,31.884 4,31Z" style="fill:white;"/>
            </g>
        </g>
    </g>
</svg>
