<?xml version="1.0" encoding="UTF-8" standalone="no"?>
<!DOCTYPE svg PUBLIC "-//W3C//DTD SVG 1.1//EN" "http://www.w3.org/Graphics/SVG/1.1/DTD/svg11.dtd">
<svg width="100%" height="100%" viewBox="0 0 40 40" version="1.1" xmlns="http://www.w3.org/2000/svg" xmlns:xlink="http://www.w3.org/1999/xlink" xml:space="preserve" xmlns:serif="http://www.serif.com/" style="fill-rule:evenodd;clip-rule:evenodd;stroke-linejoin:round;stroke-miterlimit:2;">
    <g transform="matrix(1,0,0,1,-2343.03,-19091.4)">
        <g transform="matrix(1,0,0,1,2160,19093.5)">
            <g transform="matrix(1.01836,0,0,1,-3.35933,-382.309)">
                <path d="M222.279,386.84C222.228,388.715 221.537,390.355 220.208,391.762L204.251,406.84L202.486,412.621C201.872,414.444 200.67,415.668 198.88,416.293L186.989,420.043C185.762,420.355 184.739,420.095 183.921,419.262C183.102,418.428 182.847,417.387 183.153,416.137L186.836,404.027C187.45,402.204 188.651,400.98 190.442,400.355L196.119,398.559L210.925,382.309C212.255,380.954 213.866,380.251 215.758,380.199C217.599,380.251 219.134,380.902 220.361,382.152C221.589,383.402 222.228,384.965 222.279,386.84ZM199.648,400.121L202.716,403.246L217.676,389.027C218.29,388.402 218.597,387.673 218.597,386.84C218.597,386.007 218.315,385.303 217.753,384.73C217.241,384.21 216.576,383.923 215.758,383.871C214.889,383.923 214.173,384.262 213.61,384.887L199.648,400.121ZM200.568,406.371L196.579,402.309L191.516,403.949C190.902,404.105 190.493,404.496 190.288,405.121L187.756,413.559L191.592,409.652C191.541,409.6 191.516,409.574 191.516,409.574C191.516,409.053 191.695,408.611 192.053,408.246C192.411,407.882 192.845,407.699 193.357,407.699C194.533,407.803 195.147,408.428 195.198,409.574C195.147,410.72 194.533,411.345 193.357,411.449C193.408,411.449 193.408,411.423 193.357,411.371L189.521,415.355L197.806,412.777C198.42,412.569 198.829,412.152 199.034,411.527L200.568,406.371Z" style="fill:rgb(65,69,72);fill-rule:nonzero;"/>
            </g>
        </g>
    </g>
</svg>
