<?xml version="1.0" encoding="UTF-8" standalone="no"?>
<!DOCTYPE svg PUBLIC "-//W3C//DTD SVG 1.1//EN" "http://www.w3.org/Graphics/SVG/1.1/DTD/svg11.dtd">
<svg width="100%" height="100%" viewBox="0 0 23 18" version="1.1" xmlns="http://www.w3.org/2000/svg" xmlns:xlink="http://www.w3.org/1999/xlink" xml:space="preserve" xmlns:serif="http://www.serif.com/" style="fill-rule:evenodd;clip-rule:evenodd;stroke-linejoin:round;stroke-miterlimit:2;">
    <g transform="matrix(1,0,0,1,-11391.4,-10361.6)">
        <g transform="matrix(1,0,0,1,10800,9546.75)">
            <path d="M603.608,822.975L595.483,822.975C594.911,823.027 594.598,823.339 594.546,823.912C594.598,824.485 594.911,824.798 595.483,824.85L603.608,824.85C604.181,824.798 604.494,824.485 604.546,823.912C604.494,823.339 604.181,823.027 603.608,822.975ZM613.218,820.709C612.723,820.423 612.215,820.396 611.694,820.631L607.671,822.467L607.671,822.35C607.645,821.646 607.398,821.061 606.929,820.592C606.46,820.123 605.874,819.876 605.171,819.85L595.171,819.811L595.171,818.287C595.171,817.844 595.327,817.48 595.64,817.193C595.926,816.881 596.291,816.725 596.733,816.725L602.983,816.725C603.556,816.673 603.869,816.36 603.921,815.787C603.869,815.214 603.556,814.902 602.983,814.85L596.733,814.85C595.77,814.876 594.963,815.214 594.312,815.865C593.661,816.516 593.322,817.324 593.296,818.287L593.296,819.928C592.749,820.084 592.306,820.383 591.968,820.826C591.603,821.243 591.421,821.738 591.421,822.311L591.421,829.771C591.447,830.475 591.694,831.061 592.163,831.529C592.632,831.998 593.218,832.232 593.921,832.232L605.171,832.35C605.874,832.324 606.46,832.076 606.929,831.607C607.398,831.139 607.645,830.553 607.671,829.85L607.671,829.732L611.694,831.568C611.903,831.673 612.124,831.725 612.358,831.725C612.671,831.725 612.957,831.646 613.218,831.49C613.661,831.178 613.895,830.722 613.921,830.123L613.921,822.037C613.895,821.49 613.661,821.048 613.218,820.709ZM605.796,829.85C605.77,830.24 605.562,830.449 605.171,830.475L593.921,830.475C593.53,830.449 593.322,830.24 593.296,829.85L593.296,822.35C593.322,821.959 593.53,821.751 593.921,821.725L605.171,821.725C605.562,821.751 605.77,821.959 605.796,822.35L605.796,829.85ZM612.046,829.693L607.671,827.662L607.671,824.537L612.046,822.506L612.046,829.693Z" style="fill:white;fill-rule:nonzero;"/>
        </g>
    </g>
</svg>
