<?xml version="1.0" encoding="UTF-8" standalone="no"?>
<!DOCTYPE svg PUBLIC "-//W3C//DTD SVG 1.1//EN" "http://www.w3.org/Graphics/SVG/1.1/DTD/svg11.dtd">
<svg width="100%" height="100%" viewBox="0 0 70 62" version="1.1" xmlns="http://www.w3.org/2000/svg" xmlns:xlink="http://www.w3.org/1999/xlink" xml:space="preserve" xmlns:serif="http://www.serif.com/" style="fill-rule:evenodd;clip-rule:evenodd;stroke-linejoin:round;stroke-miterlimit:2;">
    <g transform="matrix(1,0,0,1,-6772.5,-19159)">
        <g transform="matrix(1,0,0,1,6480,19093.5)">
            <g transform="matrix(1,0,0,1,-249.5,-479.944)">
                <path d="M542,597.974L542,558.599C542.091,556.138 542.957,554.087 544.598,552.446C546.238,550.806 548.289,549.94 550.75,549.849L550.75,547.661C550.841,546.294 551.57,545.565 552.938,545.474L561.688,545.474C563.055,545.565 563.784,546.294 563.875,547.661L563.875,549.849L568.25,549.849L575.223,546.431C576.408,545.793 577.684,545.474 579.051,545.474L603.25,545.474C605.711,545.565 607.762,546.431 609.402,548.071C611.043,549.712 611.909,551.763 612,554.224L612,597.974C611.909,600.435 611.043,602.485 609.402,604.126C607.762,605.767 605.711,606.632 603.25,606.724L550.75,606.724C548.289,606.632 546.238,605.767 544.598,604.126C542.957,602.485 542.091,600.435 542,597.974ZM550.75,556.411C549.383,556.502 548.654,557.231 548.563,558.599L548.563,567.349L563.328,567.349C566.701,563.156 571.258,560.968 577,560.786C582.742,560.968 587.299,563.156 590.672,567.349L605.438,567.349L605.438,554.224C605.346,552.856 604.617,552.127 603.25,552.036L579.051,552.036C578.777,552.036 578.413,552.127 577.957,552.31L571.258,555.728C570.255,556.183 569.253,556.411 568.25,556.411L550.75,556.411ZM548.563,573.911L548.563,597.974C548.654,599.341 549.383,600.07 550.75,600.161L603.25,600.161C604.617,600.07 605.346,599.341 605.438,597.974L605.438,573.911L593.816,573.911C594.272,575.278 594.5,576.737 594.5,578.286C594.409,583.208 592.723,587.355 589.441,590.728C586.069,594.009 581.922,595.695 577,595.786C572.078,595.695 567.931,594.009 564.559,590.728C561.277,587.355 559.591,583.208 559.5,578.286C559.5,576.737 559.682,575.278 560.047,573.911L548.563,573.911ZM577,567.349C573.901,567.44 571.303,568.488 569.207,570.493C567.202,572.59 566.154,575.187 566.063,578.286C566.154,581.385 567.202,583.983 569.207,586.079C571.303,588.084 573.901,589.132 577,589.224C580.099,589.132 582.697,588.084 584.793,586.079C586.798,583.983 587.846,581.385 587.938,578.286C587.846,575.187 586.798,572.59 584.793,570.493C582.697,568.488 580.099,567.44 577,567.349Z" style="fill:rgb(65,69,72);fill-rule:nonzero;"/>
            </g>
        </g>
    </g>
</svg>
