<?xml version="1.0" encoding="UTF-8"?>
<svg id="Layer_1" data-name="Layer 1" xmlns="http://www.w3.org/2000/svg" xmlns:xlink="http://www.w3.org/1999/xlink" viewBox="0 0 300 300">
  <defs>
    <style>
      .cls-1 {
        fill: #00e5ca;
      }

      .cls-1, .cls-2, .cls-3, .cls-4, .cls-5, .cls-6, .cls-7 {
        stroke-width: 0px;
      }

      .cls-2 {
        fill: #00a4e1;
      }

      .cls-3 {
        fill: none;
      }

      .cls-4 {
        fill: #fff;
      }

      .cls-5 {
        fill: url(#radial-gradient-2);
      }

      .cls-8 {
        clip-path: url(#clippath);
      }

      .cls-6 {
        fill: url(#radial-gradient);
      }

      .cls-7 {
        fill: #1b1f45;
      }

      .cls-9 {
        mask: url(#mask);
      }
    </style>
    <radialGradient id="radial-gradient" cx="150" cy="150" fx="150" fy="150" r="150" gradientUnits="userSpaceOnUse">
      <stop offset=".69" stop-color="#000"/>
      <stop offset="1" stop-color="#fff"/>
    </radialGradient>
    <mask id="mask" x="-58.06" y="0" width="416.12" height="300" maskUnits="userSpaceOnUse">
      <rect class="cls-6" x="0" width="300" height="300"/>
    </mask>
    <clipPath id="clippath">
      <rect class="cls-3" y="401.96" width="300" height="300"/>
    </clipPath>
    <radialGradient id="radial-gradient-2" cx="242.32" cy="428.06" fx="242.32" fy="428.06" r="261.27" gradientUnits="userSpaceOnUse">
      <stop offset=".81" stop-color="#00a4e1"/>
      <stop offset="1" stop-color="#00425b"/>
    </radialGradient>
  </defs>
  <g class="cls-9">
    <g>
      <path class="cls-4" d="m32.53,2c10.38,0,21.35,1.36,32.6,4.03,27.47,6.53,55.65,20.6,81.64,40.75-7.6,6.12-15.02,12.78-22.09,19.85-.63.63-1.3,1.31-2.01,2.04-21-15.5-43.42-26.38-64.94-31.49-8.89-2.12-17.42-3.19-25.37-3.19-17.32,0-31.66,5.18-41.47,14.97-14.41,14.42-18.6,38.16-11.79,66.84,7.47,31.46,26.98,64.17,54.92,92.11,7.67,7.67,15.82,14.81,24.24,21.24,21.87,16.68,45.34,28.33,67.89,33.69.79.18,1.56.35,2.36.54,7.44,1.62,14.63,2.5,21.42,2.63h.07c.5,0,1,.01,1.5.01,7.25,0,14.01-.9,20.11-2.68,8.49-2.47,15.68-6.61,21.37-12.3,14.41-14.41,18.6-38.15,11.78-66.84-7.18-30.27-25.6-61.84-51.95-89.09.06-.06.12-.12.18-.18,7.59-7.59,15.62-14.62,23.91-20.94,29.69,31.06,50.62,67.52,59.01,102.82,4.27,17.98,5.15,34.95,2.62,50.46-.1.68-.22,1.35-.35,2.05l-.03.19c-3.28,17.64-10.86,32.49-22.53,44.16-9.9,9.91-22.14,16.9-36.39,20.77-.06.01-.13.03-.19.05-9.99,2.22-19.76,3.41-28.99,3.52-9.32-.11-19.14-1.31-29.17-3.54l-.12-.03-.83-.19-1.15-.27c-37.14-8.82-75.26-31.34-107.34-63.43s-54.61-70.21-63.43-107.34c-4.48-18.84-5.23-36.57-2.23-52.7,3.28-17.65,10.86-32.5,22.53-44.17C-20.05,14.65-5.2,7.07,12.42,3.8c6.43-1.19,13.19-1.8,20.11-1.8M32.53,0C25.47,0,18.64.61,12.06,1.83-5.97,5.18-21.18,12.95-33.14,24.92c-11.98,11.96-19.74,27.18-23.09,45.22-3.04,16.38-2.29,34.4,2.26,53.52,8.91,37.51,31.62,75.96,63.96,108.29s70.79,55.05,108.3,63.96c.71.17,1.41.33,2.13.5h.01c10.22,2.28,20.1,3.48,29.58,3.59,9.47-.11,19.35-1.31,29.57-3.59.01-.01.04-.01.05-.01,14.65-3.96,27.2-11.11,37.39-21.31,11.96-11.95,19.74-27.18,23.09-45.2.14-.78.28-1.54.39-2.32,2.57-15.76,1.68-32.97-2.65-51.22-8.61-36.25-30.12-73.39-60.75-105.02-8.82,6.61-17.38,14.04-25.53,22.19-.54.52-1.04,1.06-1.57,1.58,26.84,27.33,45.57,59.07,52.81,89.57,6.65,27.99,2.65,51.06-11.25,64.96-5.5,5.5-12.42,9.44-20.51,11.8-5.93,1.73-12.47,2.6-19.55,2.6-.49,0-.97,0-1.46-.01h-.1c-6.59-.13-13.61-.98-21-2.59-.78-.18-1.55-.36-2.34-.54-22.46-5.34-45.57-16.89-67.12-33.33-8.28-6.32-16.35-13.36-24.04-21.06-27.69-27.69-47-60.06-54.39-91.16-6.64-27.98-2.64-51.05,11.26-64.96,9.52-9.5,23.32-14.38,40.06-14.38,7.73,0,16.08,1.03,24.91,3.13,21.93,5.21,44.5,16.36,65.61,32.2,1.06-1.1,2.13-2.19,3.21-3.27,7.66-7.66,15.65-14.77,23.9-21.28C123.41,25.75,94.22,10.89,65.6,4.09,54.13,1.36,43.08,0,32.53,0h0Z"/>
      <path class="cls-4" d="m267.46,2c6.92,0,13.68.6,20.09,1.8,17.62,3.27,32.49,10.85,44.18,22.53,11.66,11.66,19.24,26.52,22.53,44.17,2.99,16.11,2.24,33.84-2.25,52.7-8.82,37.14-31.34,75.26-63.43,107.34-32.08,32.08-70.2,54.6-107.35,63.43-.65.15-1.3.31-1.96.46-.09.01-.18.03-.27.06-9.99,2.22-19.76,3.41-29.02,3.52h-1.38c-6.88,0-13.64-.6-20.07-1.79-2.62-.49-5.18-1.08-7.62-1.73l-.26-.07c-14.21-3.88-26.42-10.86-36.29-20.74-11.67-11.66-19.26-26.52-22.53-44.14l-.05-.3c-.12-.66-.24-1.32-.35-1.99-2.51-15.47-1.63-32.43,2.63-50.43,8.39-35.3,29.32-71.75,59.01-102.82,8.27,6.3,16.31,13.33,23.92,20.94.06.06.12.12.18.18-26.34,27.25-44.77,58.82-51.96,89.09-6.82,28.69-2.63,52.43,11.78,66.84,5.67,5.69,12.86,9.83,21.37,12.31,6.09,1.78,12.85,2.68,20.1,2.68.5,0,.99,0,1.46-.01h.14c6.76-.13,13.96-1.02,21.42-2.64.77-.18,1.55-.36,2.36-.54,22.54-5.36,46-17,67.85-33.68,8.41-6.41,16.58-13.56,24.26-21.24,27.95-27.95,47.45-60.66,54.91-92.11,6.82-28.69,2.64-52.42-11.78-66.84-9.81-9.79-24.15-14.97-41.47-14.97-7.94,0-16.47,1.07-25.37,3.19-21.51,5.11-43.93,15.98-64.94,31.49-.71-.73-1.37-1.4-2.01-2.04-7-7-14.42-13.67-22.08-19.85,25.97-20.15,54.15-34.22,81.63-40.75,11.26-2.68,22.23-4.03,32.61-4.03M267.46,0C256.92,0,245.86,1.36,234.4,4.09c-28.63,6.8-57.8,21.65-84.39,42.68,8.24,6.52,16.23,13.62,23.89,21.28,1.08,1.08,2.15,2.18,3.21,3.27,21.11-15.84,43.67-26.98,65.61-32.2,8.84-2.1,17.19-3.13,24.91-3.13,16.73,0,30.54,4.88,40.06,14.38,13.91,13.91,17.9,36.99,11.25,64.96-7.38,31.1-26.69,63.47-54.38,91.16-7.7,7.7-15.76,14.74-24.05,21.06-21.53,16.44-44.64,27.99-67.1,33.33-.79.18-1.57.36-2.34.54-7.39,1.61-14.42,2.46-21.01,2.59h-.1c-.49,0-.98.01-1.46.01-7.07,0-13.61-.87-19.54-2.6-8.09-2.36-15.02-6.29-20.51-11.8-13.9-13.9-17.9-36.97-11.25-64.96,7.25-30.5,25.98-62.24,52.82-89.57-.52-.52-1.04-1.06-1.57-1.58-8.15-8.15-16.73-15.59-25.54-22.19-30.63,31.63-52.13,68.77-60.75,105.02-4.32,18.24-5.22,35.46-2.66,51.22.13.78.27,1.54.41,2.32,3.35,18.03,11.12,33.25,23.09,45.2,10.21,10.22,22.77,17.37,37.43,21.33h.01c2.54.69,5.12,1.27,7.77,1.77,6.56,1.21,13.39,1.82,20.44,1.82h1.38c9.47-.11,19.35-1.31,29.57-3.59.01-.01.04-.01.05-.01.7-.15,1.4-.32,2.09-.48,37.5-8.91,75.96-31.62,108.3-63.96,32.34-32.34,55.05-70.79,63.96-108.29,4.55-19.12,5.31-37.14,2.27-53.52-3.36-18.04-11.12-33.25-23.09-45.22-11.98-11.96-27.18-19.74-45.23-23.09C281.35.61,274.52,0,267.46,0h0Z"/>
      <path class="cls-4" d="m150,49.32c7.79,6.24,15.34,13.01,22.48,20.14.52.52,1.06,1.06,1.61,1.63-8.29,6.35-16.34,13.41-23.94,21.01-.05.05-.1.1-.15.15-.05-.05-.1-.1-.15-.15-7.61-7.61-15.66-14.67-23.94-21.01.55-.56,1.09-1.1,1.61-1.63,7.17-7.17,14.73-13.94,22.48-20.14m0-2.56c-8.25,6.51-16.24,13.63-23.9,21.28-1.08,1.08-2.15,2.17-3.21,3.27,8.82,6.61,17.39,14.04,25.54,22.2.53.53,1.05,1.05,1.57,1.58.52-.53,1.04-1.05,1.57-1.58,8.15-8.15,16.72-15.58,25.54-22.2-1.06-1.09-2.13-2.19-3.21-3.27-7.65-7.65-15.65-14.76-23.89-21.28h0Z"/>
    </g>
  </g>
  <path class="cls-4" d="m0,217.49h54.19c26.28,0,47.62,21.34,47.62,47.62v34.89H0v-82.51h0Z"/>
  <g id="VERTICAL_2" data-name="VERTICAL 2">
    <g>
      <path class="cls-7" d="m59.06,248.02c-.8-3.36-2.79-6.81-5.64-9.74-.82.61-1.61,1.3-2.37,2.06-.05.05-.1.1-.15.15,2.49,2.54,4.23,5.48,4.9,8.31.62,2.6.25,4.74-1.04,6.03-.51.51-1.15.88-1.9,1.09-.59.17-1.24.25-1.95.24h0c-.61-.01-1.26-.09-1.95-.24-.07-.02-.14-.03-.22-.05-2.08-.5-4.23-1.57-6.23-3.09-.77-.59-1.52-1.24-2.23-1.95-2.57-2.57-4.36-5.57-5.05-8.46-.62-2.6-.24-4.74,1.05-6.03.88-.88,2.16-1.33,3.72-1.33.72,0,1.49.1,2.31.29,2.03.48,4.13,1.52,6.09,2.99.1-.1.2-.2.3-.3.71-.71,1.45-1.37,2.22-1.97-2.47-1.95-5.18-3.33-7.83-3.96-1.78-.42-3.45-.49-4.97-.21-1.67.31-3.08,1.03-4.19,2.14-1.11,1.11-1.83,2.52-2.14,4.2-.28,1.52-.21,3.19.21,4.97.83,3.48,2.93,7.05,5.93,10.05,3,3,6.57,5.11,10.05,5.93.07.02.13.03.2.05h0c.95.21,1.87.32,2.74.33.88-.01,1.8-.12,2.74-.33,0,0,0,0,0,0,1.36-.37,2.52-1.03,3.47-1.98,1.11-1.11,1.83-2.52,2.14-4.19.01-.07.03-.14.04-.22.24-1.46.16-3.06-.25-4.75Z"/>
      <path class="cls-7" d="m70.04,238.16c-.31-1.67-1.03-3.09-2.14-4.2-1.11-1.11-2.52-1.83-4.2-2.14-1.52-.28-3.19-.21-4.97.21-2.66.63-5.36,2.01-7.83,3.96.76.61,1.51,1.26,2.22,1.97.1.1.2.2.3.3,1.96-1.47,4.05-2.5,6.09-2.99.82-.2,1.59-.29,2.31-.29,1.55,0,2.83.45,3.72,1.33,1.29,1.29,1.66,3.43,1.04,6.03-.68,2.89-2.48,5.89-5.05,8.46-.71.71-1.46,1.37-2.23,1.95-2,1.52-4.14,2.6-6.23,3.09-.07.02-.15.03-.22.05-.69.15-1.34.23-1.95.24h0c-.71.01-1.36-.07-1.95-.24-.75-.22-1.39-.58-1.9-1.09-1.29-1.29-1.66-3.43-1.04-6.03.67-2.83,2.41-5.77,4.9-8.31-.05-.05-.1-.1-.15-.15-.76-.76-1.55-1.45-2.37-2.06-2.84,2.94-4.84,6.38-5.64,9.74-.4,1.69-.48,3.29-.25,4.75.01.07.02.14.04.22.31,1.67,1.03,3.09,2.14,4.19.95.95,2.11,1.61,3.47,1.98h0c.24.06.48.12.72.16.61.11,1.24.17,1.9.17h.13c.88-.01,1.8-.12,2.74-.33,0,0,0,0,0,0,.07-.01.13-.03.19-.04,3.48-.83,7.05-2.93,10.05-5.93,3-3,5.11-6.57,5.93-10.05.42-1.77.49-3.45.21-4.97Z"/>
      <path class="cls-7" d="m53.42,238.27c-.82.61-1.61,1.3-2.37,2.06-.05.05-.1.1-.15.15-.05-.05-.1-.1-.15-.15-.76-.76-1.55-1.45-2.37-2.06.1-.1.2-.2.3-.3.71-.71,1.45-1.37,2.22-1.97.76.61,1.51,1.26,2.22,1.97.1.1.2.2.3.3Z"/>
    </g>
    <g>
      <g>
        <path class="cls-7" d="m30,273.19v.76h-5.87v-8.29h5.69v.76h-4.81v2.95h4.29v.75h-4.29v3.08h4.99Z"/>
        <path class="cls-7" d="m32.06,265.66h.88v8.29h-.88v-8.29Z"/>
        <path class="cls-7" d="m42.57,265.66v8.29h-.72l-5.33-6.73v6.73h-.88v-8.29h.72l5.34,6.73v-6.73h.86Z"/>
        <path class="cls-7" d="m44.48,272.94l.34-.68c.59.58,1.65,1.01,2.74,1.01,1.55,0,2.23-.65,2.23-1.47,0-2.28-5.11-.88-5.11-3.95,0-1.22.95-2.28,3.06-2.28.94,0,1.91.27,2.57.73l-.3.7c-.71-.46-1.54-.69-2.28-.69-1.52,0-2.19.68-2.19,1.5,0,2.28,5.11.9,5.11,3.92,0,1.22-.97,2.26-3.09,2.26-1.24,0-2.46-.44-3.08-1.08Z"/>
        <path class="cls-7" d="m54.05,266.41h-2.92v-.76h6.71v.76h-2.92v7.54h-.88v-7.54Z"/>
        <path class="cls-7" d="m65.11,273.19v.76h-5.87v-8.29h5.69v.76h-4.81v2.95h4.29v.75h-4.29v3.08h4.99Z"/>
        <path class="cls-7" d="m67.17,265.66h.88v8.29h-.88v-8.29Z"/>
        <path class="cls-7" d="m77.68,265.66v8.29h-.72l-5.33-6.73v6.73h-.88v-8.29h.72l5.34,6.73v-6.73h.86Z"/>
      </g>
      <g>
        <path class="cls-7" d="m21.08,280.45c0,1.88-1.42,3.06-3.69,3.06h-1.45v2.17h-2.35v-8.29h3.79c2.26,0,3.69,1.17,3.69,3.07Zm-2.37,0c0-.77-.49-1.22-1.46-1.22h-1.3v2.43h1.3c.97,0,1.46-.45,1.46-1.21Z"/>
        <path class="cls-7" d="m28.87,283.86v1.81h-6.66v-8.29h6.51v1.81h-4.18v1.4h3.69v1.75h-3.69v1.52h4.34Z"/>
        <path class="cls-7" d="m33.8,283.47h-1.28v2.2h-2.35v-8.29h3.79c2.26,0,3.69,1.17,3.69,3.07,0,1.22-.59,2.12-1.62,2.62l1.79,2.61h-2.51l-1.5-2.2Zm.02-4.24h-1.3v2.43h1.3c.97,0,1.46-.45,1.46-1.21s-.49-1.22-1.46-1.22Z"/>
        <path class="cls-7" d="m40.59,279.24h-2.55v-1.86h7.43v1.86h-2.54v6.43h-2.35v-6.43Z"/>
        <path class="cls-7" d="m53.01,283.86v1.81h-6.66v-8.29h6.51v1.81h-4.18v1.4h3.69v1.75h-3.69v1.52h4.34Z"/>
        <path class="cls-7" d="m62.21,277.38v8.29h-1.93l-3.66-4.42v4.42h-2.3v-8.29h1.93l3.66,4.42v-4.42h2.3Z"/>
        <path class="cls-7" d="m63.44,281.52c0-2.52,1.93-4.31,4.56-4.31,1.53,0,2.76.56,3.57,1.56l-1.49,1.35c-.52-.63-1.16-.97-1.96-.97-1.36,0-2.31.95-2.31,2.37s.95,2.37,2.31,2.37c.79,0,1.43-.34,1.96-.97l1.49,1.35c-.81,1.01-2.04,1.56-3.57,1.56-2.63,0-4.56-1.79-4.56-4.31Z"/>
        <path class="cls-7" d="m79.27,283.86v1.81h-6.66v-8.29h6.51v1.81h-4.18v1.4h3.69v1.75h-3.69v1.52h4.34Z"/>
        <path class="cls-7" d="m84.2,283.47h-1.28v2.2h-2.35v-8.29h3.79c2.26,0,3.69,1.17,3.69,3.07,0,1.22-.59,2.12-1.62,2.62l1.79,2.61h-2.51l-1.5-2.2Zm.02-4.24h-1.3v2.43h1.3c.97,0,1.46-.45,1.46-1.21s-.49-1.22-1.46-1.22Z"/>
      </g>
    </g>
  </g>
  <g class="cls-8">
    <g id="HORIZONTAL_2" data-name="HORIZONTAL 2">
      <g>
        <path class="cls-5" d="m326.74,526.03c-17.33-72.92-60.6-147.64-122.22-211.29-17.74,13.3-34.96,28.25-51.37,44.65-1.08,1.05-2.1,2.13-3.15,3.18,54.01,54.98,91.69,118.83,106.25,180.2,13.38,56.31,5.33,102.73-22.63,130.7-11.07,11.07-24.99,18.99-41.27,23.74-12.74,3.72-26.89,5.46-42.27,5.2h-.2c-13.25-.26-27.38-1.97-42.24-5.2-1.56-.36-3.13-.72-4.72-1.08-45.19-10.74-91.69-33.99-135.03-67.05-16.66-12.71-32.89-26.89-48.37-42.37-55.7-55.7-94.56-120.83-109.42-183.4-13.35-56.29-5.31-102.71,22.66-130.7,19.15-19.12,46.91-28.94,80.59-28.94,15.56,0,32.35,2.08,50.11,6.31,44.11,10.48,89.53,32.91,132.01,64.77,2.13-2.2,4.28-4.41,6.46-6.59,15.41-15.41,31.48-29.71,48.09-42.81-53.5-42.29-112.22-72.18-169.81-85.87-38.5-9.15-74.72-10.66-107.71-4.54-36.27,6.74-66.88,22.38-90.94,46.45-24.09,24.07-39.7,54.67-46.45,90.97-6.13,32.96-4.61,69.21,4.54,107.68,17.92,75.46,63.62,152.82,128.67,217.88,65.06,65.06,142.41,110.76,217.88,128.67,1.44.33,2.85.67,4.28,1h.03c20.56,4.59,40.45,7,59.52,7.23,19.04-.23,38.94-2.64,59.49-7.23.03-.03.08-.03.1-.03,29.48-7.97,54.72-22.35,75.23-42.88,24.07-24.04,39.7-54.67,46.45-90.94.28-1.56.56-3.1.79-4.66,5.18-31.71,3.38-66.34-5.33-103.04Z"/>
        <path class="cls-1" d="m564.92,312.36c-6.77-36.3-22.38-66.9-46.45-90.97-24.09-24.07-54.67-39.7-90.99-46.45-32.94-6.13-69.18-4.61-107.68,4.54-57.6,13.69-116.29,43.55-169.79,85.87,16.58,13.12,32.66,27.4,48.06,42.81,2.18,2.18,4.33,4.38,6.46,6.59,42.47-31.86,87.87-54.29,132.01-64.77,17.79-4.23,34.58-6.31,50.11-6.31,33.66,0,61.44,9.82,80.59,28.94,27.99,27.99,36.01,74.41,22.63,130.7-14.84,62.57-53.7,127.7-109.4,183.4-15.48,15.48-31.71,29.66-48.39,42.37-43.32,33.07-89.82,56.31-135.01,67.05-1.59.36-3.15.72-4.72,1.08-14.87,3.23-29.02,4.95-42.27,5.2h-.2c-15.35.26-29.5-1.49-42.24-5.2-16.28-4.74-30.22-12.66-41.27-23.74-27.96-27.97-36.01-74.38-22.63-130.7,14.58-61.36,52.26-125.21,106.27-180.2-1.05-1.05-2.1-2.13-3.15-3.18-16.4-16.41-33.66-31.37-51.39-44.65-61.62,63.65-104.89,138.36-122.22,211.29-8.69,36.71-10.51,71.33-5.36,103.04.26,1.56.54,3.1.82,4.66,6.74,36.27,22.38,66.9,46.45,90.94,20.53,20.56,45.81,34.94,75.31,42.91h.03c5.1,1.38,10.3,2.56,15.64,3.56,13.2,2.43,26.94,3.67,41.11,3.67h2.77c19.04-.23,38.94-2.64,59.49-7.23.03-.03.08-.03.1-.03,1.41-.31,2.82-.64,4.2-.97,75.44-17.92,152.82-63.62,217.88-128.67,65.06-65.06,110.76-142.41,128.67-217.88,9.15-38.47,10.69-74.72,4.56-107.68Z"/>
        <path class="cls-2" d="m204.53,314.74c-17.75,13.31-34.97,28.25-51.38,44.66-1.06,1.06-2.11,2.12-3.15,3.18-1.05-1.06-2.09-2.12-3.15-3.18-16.41-16.41-33.64-31.36-51.39-44.66,2.13-2.2,4.29-4.4,6.47-6.57,15.4-15.4,31.48-29.71,48.08-42.82,16.58,13.12,32.66,27.42,48.06,42.82,2.17,2.17,4.33,4.37,6.47,6.57Z"/>
      </g>
    </g>
  </g>
</svg>