<?xml version="1.0" encoding="UTF-8"?>
<svg id="Layer_1" data-name="Layer 1" xmlns="http://www.w3.org/2000/svg" xmlns:xlink="http://www.w3.org/1999/xlink" viewBox="0 0 300 300">
  <defs>
    <style>
      .cls-1 {
        fill: #00e5ca;
      }

      .cls-1, .cls-2, .cls-3, .cls-4, .cls-5 {
        stroke-width: 0px;
      }

      .cls-2 {
        fill: #00a4e1;
      }

      .cls-3 {
        opacity: .2;
      }

      .cls-4 {
        fill: #fff;
      }

      .cls-5 {
        fill: #1b1f45;
      }

      .cls-6 {
        mask: url(#mask-1);
      }

      .cls-7 {
        mask: url(#mask);
      }

      .cls-8 {
        filter: url(#luminosity-invert-noclip);
      }
    </style>
    <filter id="luminosity-invert-noclip" x="0" y="0" width="300" height="300" color-interpolation-filters="sRGB" filterUnits="userSpaceOnUse">
      <feColorMatrix result="cm" values="-1 0 0 0 1 0 -1 0 0 1 0 0 -1 0 1 0 0 0 1 0"/>
      <feFlood flood-color="#fff" result="bg"/>
      <feBlend in="cm" in2="bg"/>
    </filter>
    <mask id="mask" x="0" y="0" width="300" height="300" maskUnits="userSpaceOnUse">
      <g class="cls-8">
        <circle class="cls-4" cx="150" cy="150" r="130.31" transform="translate(-14.05 284.49) rotate(-84.35)"/>
      </g>
    </mask>
    <mask id="mask-1" x="-58.06" y="0" width="416.12" height="300" maskUnits="userSpaceOnUse">
      <path class="cls-4" d="M0,0v300h300V0H0ZM150,280.31c-71.97,0-130.31-58.34-130.31-130.31S78.03,19.69,150,19.69s130.31,58.34,130.31,130.31-58.34,130.31-130.31,130.31Z"/>
    </mask>
  </defs>
  <g class="cls-7">
    <rect class="cls-1" x="0" y="0" width="300" height="300"/>
  </g>
  <g class="cls-6">
    <g>
      <path class="cls-5" d="M237.85,176.34c-8.61-36.25-30.12-73.39-60.75-105.02-8.82,6.61-17.38,14.04-25.53,22.19-.54.52-1.04,1.06-1.57,1.58,26.84,27.33,45.57,59.07,52.81,89.57,6.65,27.99,2.65,51.06-11.25,64.96-5.5,5.5-12.42,9.44-20.51,11.8-6.33,1.85-13.36,2.71-21.01,2.59h-.1c-6.59-.13-13.61-.98-21-2.59-.78-.18-1.55-.36-2.34-.54-22.46-5.34-45.57-16.89-67.12-33.33-8.28-6.32-16.35-13.36-24.04-21.06-27.69-27.69-47-60.06-54.39-91.16-6.64-27.98-2.64-51.05,11.26-64.96,9.52-9.5,23.32-14.38,40.06-14.38,7.73,0,16.08,1.03,24.91,3.13,21.93,5.21,44.5,16.36,65.61,32.2,1.06-1.1,2.13-2.19,3.21-3.27,7.66-7.66,15.65-14.77,23.9-21.28C123.41,25.75,94.22,10.89,65.6,4.09,46.46-.46,28.46-1.21,12.06,1.83-5.97,5.18-21.18,12.95-33.14,24.92c-11.98,11.96-19.74,27.18-23.09,45.22-3.04,16.38-2.29,34.4,2.26,53.52,8.91,37.51,31.62,75.96,63.96,108.3,32.34,32.34,70.79,55.05,108.3,63.96.71.17,1.41.33,2.13.5h.01c10.22,2.28,20.1,3.48,29.58,3.59,9.47-.11,19.35-1.31,29.57-3.59.01-.01.04-.01.05-.01,14.65-3.96,27.2-11.11,37.39-21.32,11.96-11.95,19.74-27.18,23.09-45.2.14-.78.28-1.54.39-2.32,2.57-15.76,1.68-32.97-2.65-51.22Z"/>
      <path class="cls-5" d="M356.23,70.13c-3.36-18.04-11.12-33.25-23.09-45.22-11.98-11.96-27.18-19.74-45.23-23.09-16.37-3.05-34.39-2.29-53.52,2.26-28.63,6.8-57.8,21.65-84.39,42.68,8.24,6.52,16.23,13.62,23.89,21.28,1.08,1.08,2.15,2.18,3.21,3.27,21.11-15.84,43.67-26.98,65.61-32.2,8.84-2.1,17.19-3.13,24.91-3.13,16.73,0,30.54,4.88,40.06,14.38,13.91,13.91,17.9,36.99,11.25,64.96-7.38,31.1-26.69,63.47-54.38,91.16-7.7,7.7-15.76,14.74-24.05,21.06-21.53,16.44-44.64,27.99-67.1,33.33-.79.18-1.57.36-2.34.54-7.39,1.61-14.42,2.46-21.01,2.59h-.1c-7.63.13-14.66-.74-21-2.59-8.09-2.36-15.02-6.29-20.51-11.8-13.9-13.9-17.9-36.97-11.25-64.96,7.25-30.5,25.98-62.24,52.82-89.57-.52-.52-1.04-1.06-1.57-1.58-8.15-8.15-16.73-15.59-25.54-22.19-30.63,31.63-52.13,68.77-60.75,105.02-4.32,18.24-5.22,35.46-2.66,51.22.13.78.27,1.54.41,2.32,3.35,18.03,11.12,33.25,23.09,45.2,10.21,10.22,22.77,17.37,37.43,21.33h.01c2.54.69,5.12,1.27,7.77,1.77,6.56,1.21,13.39,1.82,20.44,1.82h1.38c9.47-.11,19.35-1.31,29.57-3.59.01-.01.04-.01.05-.01.7-.15,1.4-.32,2.09-.48,37.5-8.91,75.96-31.62,108.3-63.96,32.34-32.34,55.05-70.79,63.96-108.3,4.55-19.12,5.31-37.14,2.27-53.52Z"/>
      <path class="cls-5" d="M177.1,71.31c-8.82,6.61-17.38,14.04-25.54,22.2-.53.53-1.05,1.05-1.57,1.58-.52-.53-1.04-1.05-1.57-1.58-8.15-8.15-16.72-15.59-25.54-22.2,1.06-1.09,2.13-2.19,3.21-3.27,7.65-7.65,15.65-14.77,23.9-21.28,8.24,6.52,16.24,13.63,23.89,21.28,1.08,1.08,2.15,2.17,3.21,3.27Z"/>
    </g>
  </g>
  <path class="cls-5" d="M150,8.87C72.06,8.87,8.87,72.06,8.87,150s63.19,141.13,141.13,141.13,141.13-63.19,141.13-141.13S227.94,8.87,150,8.87ZM150,280.31c-71.97,0-130.31-58.34-130.31-130.31S78.03,19.69,150,19.69s130.31,58.34,130.31,130.31-58.34,130.31-130.31,130.31Z"/>
  <polygon class="cls-5" points="150 300 97.77 300 97.77 287.91 150 292.63 150 300"/>
  <rect class="cls-5" width="31.36" height="12.52"/>
  <rect class="cls-5" x="268.64" width="31.36" height="12.52"/>
  <g>
    <rect class="cls-3" x="0" y="3" width="300" height="25.99"/>
    <rect class="cls-2" x="0" y="0" width="300" height="25.99"/>
    <g>
      <path class="cls-4" d="M10.23,16.03h4.57v1.56h-6.5v-8.4h6.35v1.56h-4.42v5.28ZM10.09,12.58h4.04v1.51h-4.04v-1.51Z"/>
      <path class="cls-4" d="M18.9,17.69c-.54,0-1.01-.1-1.43-.31s-.75-.53-.98-.95c-.23-.43-.35-.97-.35-1.64v-3.65h1.87v3.37c0,.54.11.93.34,1.18s.55.38.97.38c.29,0,.54-.06.77-.19.22-.12.4-.32.53-.58s.19-.59.19-.98v-3.19h1.87v6.46h-1.78v-1.78l.32.52c-.22.45-.53.79-.95,1.01-.42.23-.88.34-1.37.34Z"/>
      <path class="cls-4" d="M29.98,17.69c-.55,0-1.08-.07-1.59-.2-.51-.13-.91-.3-1.21-.5l.62-1.34c.3.18.65.33,1.05.45s.8.17,1.19.17c.43,0,.74-.05.92-.16.18-.1.27-.25.27-.43,0-.15-.07-.27-.21-.34s-.33-.13-.56-.17c-.23-.04-.49-.08-.76-.12-.28-.04-.55-.09-.83-.16-.28-.07-.54-.17-.77-.31-.23-.14-.42-.32-.56-.55-.14-.23-.21-.53-.21-.9,0-.41.12-.77.35-1.08.24-.31.58-.56,1.03-.74.45-.18.98-.27,1.61-.27.44,0,.89.05,1.34.14.46.1.84.24,1.14.42l-.62,1.33c-.31-.18-.63-.31-.94-.38-.32-.07-.62-.1-.92-.1-.42,0-.72.06-.91.17-.19.11-.29.26-.29.43,0,.16.07.28.21.36.14.08.33.14.56.19.23.05.49.09.76.13.28.04.55.09.83.16.28.07.53.17.76.31.23.13.41.31.56.54.14.23.22.53.22.89,0,.4-.12.75-.36,1.06-.24.31-.59.55-1.04.73-.45.18-1,.26-1.65.26Z"/>
      <path class="cls-4" d="M37.26,17.69c-.69,0-1.3-.14-1.83-.43-.53-.29-.95-.68-1.26-1.18-.31-.5-.46-1.07-.46-1.71s.15-1.22.46-1.72c.31-.5.73-.89,1.26-1.18.53-.28,1.14-.43,1.83-.43s1.29.14,1.82.43.96.67,1.26,1.17c.3.5.46,1.07.46,1.73s-.15,1.21-.46,1.71c-.3.5-.72.89-1.26,1.18s-1.14.43-1.82.43ZM37.26,16.15c.31,0,.59-.07.84-.22.25-.14.44-.35.59-.62.14-.27.22-.59.22-.95s-.07-.7-.22-.96c-.14-.26-.34-.47-.59-.61-.25-.14-.53-.22-.84-.22s-.59.07-.84.22c-.25.14-.45.35-.59.61-.15.26-.22.58-.22.96s.07.69.22.95c.15.27.35.47.59.62.25.14.53.22.84.22Z"/>
      <path class="cls-4" d="M44.77,17.69c-.54,0-1.01-.1-1.43-.31s-.75-.53-.98-.95c-.23-.43-.35-.97-.35-1.64v-3.65h1.87v3.37c0,.54.11.93.34,1.18s.55.38.97.38c.29,0,.54-.06.77-.19.22-.12.4-.32.53-.58s.19-.59.19-.98v-3.19h1.87v6.46h-1.78v-1.78l.32.52c-.22.45-.53.79-.95,1.01-.42.23-.88.34-1.37.34Z"/>
      <path class="cls-4" d="M55.68,17.69c-.5,0-.94-.09-1.3-.26-.36-.17-.64-.41-.83-.7-.19-.3-.29-.63-.29-1s.09-.72.28-1.01c.19-.29.49-.51.89-.68s.94-.25,1.6-.25h1.72v1.09h-1.51c-.44,0-.74.07-.91.22-.16.14-.25.32-.25.54,0,.24.09.43.28.57.19.14.45.21.77.21s.59-.07.84-.22c.25-.15.43-.37.54-.65l.29.86c-.14.42-.38.73-.74.95-.36.22-.82.32-1.39.32ZM57.64,17.59v-1.26l-.12-.28v-2.26c0-.4-.12-.71-.37-.94-.24-.22-.62-.34-1.12-.34-.34,0-.68.05-1.01.16-.33.11-.61.25-.85.44l-.67-1.31c.35-.25.78-.44,1.27-.58.5-.14,1-.2,1.51-.2.98,0,1.75.23,2.29.7.54.46.82,1.19.82,2.17v3.68h-1.75Z"/>
      <path class="cls-4" d="M68.41,11.04c.51,0,.97.1,1.37.31.4.2.72.52.95.94.23.42.35.96.35,1.61v3.7h-1.87v-3.41c0-.52-.11-.9-.34-1.15s-.55-.37-.97-.37c-.3,0-.56.06-.8.19-.24.12-.42.31-.55.57-.13.26-.2.58-.2.98v3.19h-1.87v-6.46h1.79v1.79l-.34-.54c.23-.43.56-.76,1-1,.43-.23.92-.35,1.48-.35Z"/>
      <path class="cls-4" d="M75.9,17.69c-.69,0-1.3-.14-1.83-.43-.53-.29-.95-.68-1.26-1.18-.31-.5-.46-1.07-.46-1.71s.15-1.22.46-1.72c.31-.5.73-.89,1.26-1.18.53-.28,1.14-.43,1.83-.43s1.29.14,1.82.43.96.67,1.26,1.17c.3.5.46,1.07.46,1.73s-.15,1.21-.46,1.71c-.3.5-.72.89-1.26,1.18s-1.14.43-1.82.43ZM75.9,16.15c.31,0,.59-.07.84-.22.25-.14.44-.35.59-.62.14-.27.22-.59.22-.95s-.07-.7-.22-.96c-.14-.26-.34-.47-.59-.61-.25-.14-.53-.22-.84-.22s-.59.07-.84.22c-.25.14-.45.35-.59.61-.15.26-.22.58-.22.96s.07.69.22.95c.15.27.35.47.59.62.25.14.53.22.84.22Z"/>
      <path class="cls-4" d="M82.26,17.59l-2.71-6.46h1.93l2.26,5.56h-.96l2.34-5.56h1.8l-2.72,6.46h-1.93Z"/>
      <path class="cls-4" d="M89.46,17.69c-.5,0-.94-.09-1.3-.26-.36-.17-.64-.41-.83-.7-.19-.3-.29-.63-.29-1s.09-.72.28-1.01c.19-.29.49-.51.89-.68s.94-.25,1.6-.25h1.72v1.09h-1.51c-.44,0-.74.07-.91.22-.16.14-.25.32-.25.54,0,.24.09.43.28.57.19.14.45.21.77.21s.59-.07.84-.22c.25-.15.43-.37.54-.65l.29.86c-.14.42-.38.73-.74.95-.36.22-.82.32-1.39.32ZM91.42,17.59v-1.26l-.12-.28v-2.26c0-.4-.12-.71-.37-.94-.24-.22-.62-.34-1.12-.34-.34,0-.68.05-1.01.16-.33.11-.61.25-.85.44l-.67-1.31c.35-.25.78-.44,1.27-.58.5-.14,1-.2,1.51-.2.98,0,1.75.23,2.29.7.54.46.82,1.19.82,2.17v3.68h-1.75Z"/>
      <path class="cls-4" d="M101.01,17.28c-.6,0-1.14-.13-1.63-.39-.48-.26-.87-.62-1.16-1.09s-.44-1.01-.44-1.64.15-1.18.44-1.65.68-.83,1.16-1.09c.48-.26,1.03-.38,1.63-.38.54,0,1.02.11,1.44.33.42.22.74.56.97,1.02.23.46.35,1.05.35,1.77s-.12,1.3-.35,1.76c-.23.46-.56.8-.97,1.03-.42.22-.9.34-1.44.34ZM101.3,20.01c-.61,0-1.19-.07-1.76-.22-.56-.15-1.03-.37-1.41-.67l.74-1.34c.27.22.62.4,1.04.53.42.13.83.2,1.24.2.66,0,1.15-.15,1.45-.44.3-.3.45-.74.45-1.32v-.97l.12-1.62-.02-1.63v-1.39h1.78v5.38c0,1.2-.31,2.08-.94,2.65-.62.57-1.52.85-2.69.85ZM101.38,15.74c.33,0,.62-.07.88-.2.26-.13.46-.32.6-.56.14-.24.22-.52.22-.83s-.07-.6-.22-.83c-.14-.24-.34-.42-.6-.55-.26-.13-.55-.2-.88-.2s-.62.07-.88.2c-.26.13-.46.32-.61.55-.15.24-.22.51-.22.83s.07.59.22.83c.15.24.35.43.61.56.26.13.55.2.88.2Z"/>
      <path class="cls-4" d="M109.74,17.69c-.69,0-1.3-.14-1.83-.43-.53-.29-.95-.68-1.26-1.18-.31-.5-.46-1.07-.46-1.71s.15-1.22.46-1.72c.31-.5.73-.89,1.26-1.18.53-.28,1.14-.43,1.83-.43s1.29.14,1.82.43.96.67,1.26,1.17c.3.5.46,1.07.46,1.73s-.15,1.21-.46,1.71c-.3.5-.72.89-1.26,1.18s-1.14.43-1.82.43ZM109.74,16.15c.31,0,.59-.07.84-.22.25-.14.44-.35.59-.62.14-.27.22-.59.22-.95s-.07-.7-.22-.96c-.14-.26-.34-.47-.59-.61-.25-.14-.53-.22-.84-.22s-.59.07-.84.22c-.25.14-.45.35-.59.61-.15.26-.22.58-.22.96s.07.69.22.95c.15.27.35.47.59.62.25.14.53.22.84.22Z"/>
      <path class="cls-4" d="M113.76,12.72v-1.44h4.48v1.44h-4.48ZM117.16,17.69c-.76,0-1.35-.19-1.78-.58-.42-.39-.64-.97-.64-1.73v-5.66h1.87v5.64c0,.27.07.48.22.63.14.15.34.22.59.22.3,0,.55-.08.76-.24l.5,1.32c-.19.14-.42.24-.69.31-.27.07-.55.1-.83.1Z"/>
      <path class="cls-4" d="M121.74,17.69c-.5,0-.94-.09-1.3-.26-.36-.17-.64-.41-.83-.7-.19-.3-.29-.63-.29-1s.09-.72.28-1.01c.19-.29.49-.51.89-.68s.94-.25,1.6-.25h1.72v1.09h-1.51c-.44,0-.74.07-.91.22-.16.14-.25.32-.25.54,0,.24.09.43.28.57.19.14.45.21.77.21s.59-.07.84-.22c.25-.15.43-.37.54-.65l.29.86c-.14.42-.38.73-.74.95-.36.22-.82.32-1.39.32ZM123.7,17.59v-1.26l-.12-.28v-2.26c0-.4-.12-.71-.37-.94-.24-.22-.62-.34-1.12-.34-.34,0-.68.05-1.01.16-.33.11-.61.25-.85.44l-.67-1.31c.35-.25.78-.44,1.27-.58.5-.14,1-.2,1.51-.2.98,0,1.75.23,2.29.7.54.46.82,1.19.82,2.17v3.68h-1.75Z"/>
      <path class="cls-4" d="M133.32,17.69c-.61,0-1.16-.14-1.64-.41-.49-.28-.87-.66-1.16-1.16s-.43-1.08-.43-1.75.14-1.27.43-1.76.67-.88,1.16-1.15c.49-.27,1.04-.41,1.64-.41.54,0,1.02.12,1.43.36.41.24.72.6.95,1.09.22.49.34,1.11.34,1.87s-.11,1.37-.32,1.87c-.22.49-.53.86-.93,1.1-.4.24-.89.36-1.46.36ZM133.64,16.15c.3,0,.58-.07.83-.22.25-.14.45-.35.59-.62.15-.27.22-.59.22-.95s-.07-.7-.22-.96c-.15-.26-.35-.47-.59-.61-.25-.14-.52-.22-.83-.22s-.59.07-.84.22c-.25.14-.45.35-.59.61-.15.26-.22.58-.22.96s.07.69.22.95c.15.27.35.47.59.62.25.14.53.22.84.22ZM135.33,17.59v-1.32l.04-1.92-.12-1.91v-3.76h1.87v8.9h-1.79Z"/>
      <path class="cls-4" d="M142.05,17.69c-.74,0-1.38-.14-1.94-.43s-.99-.68-1.29-1.18-.46-1.07-.46-1.71.15-1.22.45-1.72.71-.89,1.23-1.18c.52-.28,1.11-.43,1.76-.43s1.2.13,1.71.4c.51.27.91.65,1.21,1.15s.44,1.1.44,1.79c0,.07,0,.15-.01.25s-.02.18-.02.26h-5.24v-1.09h4.26l-.72.32c0-.34-.07-.63-.2-.88-.14-.25-.32-.44-.56-.58-.24-.14-.52-.21-.84-.21s-.6.07-.85.21-.43.34-.57.59-.2.55-.2.89v.29c0,.35.08.66.23.93.16.27.38.47.66.61.28.14.62.21,1,.21.34,0,.65-.05.91-.16.26-.1.5-.26.71-.47l1,1.08c-.3.34-.67.59-1.12.77-.45.18-.96.27-1.55.27Z"/>
      <path class="cls-4" d="M153.02,17.69c-.74,0-1.38-.14-1.94-.43s-.99-.68-1.29-1.18-.46-1.07-.46-1.71.15-1.22.45-1.72.71-.89,1.23-1.18c.52-.28,1.11-.43,1.76-.43s1.2.13,1.71.4c.51.27.91.65,1.21,1.15s.44,1.1.44,1.79c0,.07,0,.15-.01.25s-.02.18-.02.26h-5.24v-1.09h4.26l-.72.32c0-.34-.07-.63-.2-.88-.14-.25-.32-.44-.56-.58-.24-.14-.52-.21-.84-.21s-.6.07-.85.21-.43.34-.57.59-.2.55-.2.89v.29c0,.35.08.66.23.93.16.27.38.47.66.61.28.14.62.21,1,.21.34,0,.65-.05.91-.16.26-.1.5-.26.71-.47l1,1.08c-.3.34-.67.59-1.12.77-.45.18-.96.27-1.55.27Z"/>
      <path class="cls-4" d="M156.39,17.59l2.89-3.79-.04,1.03-2.77-3.7h2.1l1.75,2.41-.79.02,1.81-2.44h1.99l-2.78,3.66v-1.01l2.88,3.8h-2.12l-1.84-2.57.78.11-1.82,2.46h-2.04Z"/>
      <path class="cls-4" d="M167.26,17.69c-.7,0-1.32-.14-1.86-.43s-.97-.68-1.28-1.18c-.31-.5-.46-1.08-.46-1.72s.15-1.22.46-1.72c.31-.5.73-.89,1.28-1.18s1.16-.43,1.86-.43,1.27.14,1.78.43.88.69,1.12,1.22l-1.45.78c-.17-.3-.38-.53-.63-.67-.25-.14-.53-.22-.82-.22-.32,0-.61.07-.86.22-.26.14-.46.35-.61.61-.15.26-.22.58-.22.96s.07.7.22.96c.15.26.35.47.61.61.26.14.54.22.86.22.3,0,.57-.07.82-.21.25-.14.46-.37.63-.68l1.45.79c-.24.52-.61.92-1.12,1.21s-1.1.43-1.78.43Z"/>
      <path class="cls-4" d="M174.36,17.69c-.74,0-1.38-.14-1.94-.43s-.99-.68-1.29-1.18-.46-1.07-.46-1.71.15-1.22.45-1.72.71-.89,1.23-1.18c.52-.28,1.11-.43,1.76-.43s1.2.13,1.71.4c.51.27.91.65,1.21,1.15s.44,1.1.44,1.79c0,.07,0,.15-.01.25s-.02.18-.02.26h-5.24v-1.09h4.26l-.72.32c0-.34-.07-.63-.2-.88-.14-.25-.32-.44-.56-.58-.24-.14-.52-.21-.84-.21s-.6.07-.85.21-.43.34-.57.59-.2.55-.2.89v.29c0,.35.08.66.23.93.16.27.38.47.66.61.28.14.62.21,1,.21.34,0,.65-.05.91-.16.26-.1.5-.26.71-.47l1,1.08c-.3.34-.67.59-1.12.77-.45.18-.96.27-1.55.27Z"/>
      <path class="cls-4" d="M178.72,17.59v-8.9h1.87v8.9h-1.87Z"/>
      <path class="cls-4" d="M185.54,17.69c-.74,0-1.38-.14-1.94-.43s-.99-.68-1.29-1.18-.46-1.07-.46-1.71.15-1.22.45-1.72.71-.89,1.23-1.18c.52-.28,1.11-.43,1.76-.43s1.2.13,1.71.4c.51.27.91.65,1.21,1.15s.44,1.1.44,1.79c0,.07,0,.15-.01.25s-.02.18-.02.26h-5.24v-1.09h4.26l-.72.32c0-.34-.07-.63-.2-.88-.14-.25-.32-.44-.56-.58-.24-.14-.52-.21-.84-.21s-.6.07-.85.21-.43.34-.57.59-.2.55-.2.89v.29c0,.35.08.66.23.93.16.27.38.47.66.61.28.14.62.21,1,.21.34,0,.65-.05.91-.16.26-.1.5-.26.71-.47l1,1.08c-.3.34-.67.59-1.12.77-.45.18-.96.27-1.55.27ZM182.85,10.31l1.58-1.73h1.66l1.58,1.73h-1.37l-1.66-1.44h1.22l-1.66,1.44h-1.37Z"/>
      <path class="cls-4" d="M193.83,11.04c.51,0,.97.1,1.37.31.4.2.72.52.95.94.23.42.35.96.35,1.61v3.7h-1.87v-3.41c0-.52-.11-.9-.34-1.15s-.55-.37-.97-.37c-.3,0-.56.06-.8.19-.24.12-.42.31-.55.57-.13.26-.2.58-.2.98v3.19h-1.87v-6.46h1.79v1.79l-.34-.54c.23-.43.56-.76,1-1,.43-.23.92-.35,1.48-.35Z"/>
      <path class="cls-4" d="M201.37,17.69c-.7,0-1.32-.14-1.86-.43s-.97-.68-1.28-1.18c-.31-.5-.46-1.08-.46-1.72s.15-1.22.46-1.72c.31-.5.73-.89,1.28-1.18s1.16-.43,1.86-.43,1.27.14,1.78.43.88.69,1.12,1.22l-1.45.78c-.17-.3-.38-.53-.63-.67-.25-.14-.53-.22-.82-.22-.32,0-.61.07-.86.22-.26.14-.46.35-.61.61-.15.26-.22.58-.22.96s.07.7.22.96c.15.26.35.47.61.61.26.14.54.22.86.22.3,0,.57-.07.82-.21.25-.14.46-.37.63-.68l1.45.79c-.24.52-.61.92-1.12,1.21s-1.1.43-1.78.43Z"/>
      <path class="cls-4" d="M206.23,10.23c-.34,0-.62-.1-.84-.3-.22-.2-.32-.45-.32-.74s.11-.54.32-.74c.22-.2.5-.3.84-.3s.62.09.84.28c.22.19.32.43.32.73,0,.31-.11.57-.32.77-.21.2-.49.31-.85.31ZM205.29,17.59v-6.46h1.87v6.46h-1.87Z"/>
      <path class="cls-4" d="M210.9,17.69c-.5,0-.94-.09-1.3-.26-.36-.17-.64-.41-.83-.7-.19-.3-.29-.63-.29-1s.09-.72.28-1.01c.19-.29.49-.51.89-.68s.94-.25,1.6-.25h1.72v1.09h-1.51c-.44,0-.74.07-.91.22-.16.14-.25.32-.25.54,0,.24.09.43.28.57.19.14.45.21.77.21s.59-.07.84-.22c.25-.15.43-.37.54-.65l.29.86c-.14.42-.38.73-.74.95-.36.22-.82.32-1.39.32ZM212.87,17.59v-1.26l-.12-.28v-2.26c0-.4-.12-.71-.37-.94-.24-.22-.62-.34-1.12-.34-.34,0-.68.05-1.01.16-.33.11-.61.25-.85.44l-.67-1.31c.35-.25.78-.44,1.27-.58.5-.14,1-.2,1.51-.2.98,0,1.75.23,2.29.7.54.46.82,1.19.82,2.17v3.68h-1.75Z"/>
      <path class="cls-4" d="M222.48,17.69c-.61,0-1.16-.14-1.64-.41-.49-.28-.87-.66-1.16-1.16s-.43-1.08-.43-1.75.14-1.27.43-1.76.67-.88,1.16-1.15c.49-.27,1.04-.41,1.64-.41.54,0,1.02.12,1.43.36.41.24.72.6.95,1.09.22.49.34,1.11.34,1.87s-.11,1.37-.32,1.87c-.22.49-.53.86-.93,1.1-.4.24-.89.36-1.46.36ZM222.8,16.15c.3,0,.58-.07.83-.22.25-.14.45-.35.59-.62.15-.27.22-.59.22-.95s-.07-.7-.22-.96c-.15-.26-.35-.47-.59-.61-.25-.14-.52-.22-.83-.22s-.59.07-.84.22c-.25.14-.45.35-.59.61-.15.26-.22.58-.22.96s.07.69.22.95c.15.27.35.47.59.62.25.14.53.22.84.22ZM224.49,17.59v-1.32l.04-1.92-.12-1.91v-3.76h1.87v8.9h-1.79Z"/>
      <path class="cls-4" d="M231.08,17.69c-.69,0-1.3-.14-1.83-.43-.53-.29-.95-.68-1.26-1.18-.31-.5-.46-1.07-.46-1.71s.15-1.22.46-1.72c.31-.5.73-.89,1.26-1.18.53-.28,1.14-.43,1.83-.43s1.29.14,1.82.43.96.67,1.26,1.17c.3.5.46,1.07.46,1.73s-.15,1.21-.46,1.71c-.3.5-.72.89-1.26,1.18s-1.14.43-1.82.43ZM231.08,16.15c.31,0,.59-.07.84-.22.25-.14.44-.35.59-.62.14-.27.22-.59.22-.95s-.07-.7-.22-.96c-.14-.26-.34-.47-.59-.61-.25-.14-.53-.22-.84-.22s-.59.07-.84.22c-.25.14-.45.35-.59.61-.15.26-.22.58-.22.96s.07.69.22.95c.15.27.35.47.59.62.25.14.53.22.84.22Z"/>
      <path class="cls-4" d="M241.33,16.03h4.57v1.56h-6.5v-8.4h6.35v1.56h-4.42v5.28ZM241.18,12.58h4.04v1.51h-4.04v-1.51Z"/>
      <path class="cls-4" d="M248.25,10.23c-.34,0-.62-.1-.84-.3-.22-.2-.32-.45-.32-.74s.11-.54.32-.74c.22-.2.5-.3.84-.3s.62.09.84.28c.22.19.32.43.32.73,0,.31-.11.57-.32.77-.21.2-.49.31-.85.31ZM247.32,17.59v-6.46h1.87v6.46h-1.87Z"/>
      <path class="cls-4" d="M254.85,11.04c.51,0,.97.1,1.37.31.4.2.72.52.95.94.23.42.35.96.35,1.61v3.7h-1.87v-3.41c0-.52-.11-.9-.34-1.15s-.55-.37-.97-.37c-.3,0-.56.06-.8.19-.24.12-.42.31-.55.57-.13.26-.2.58-.2.98v3.19h-1.87v-6.46h1.79v1.79l-.34-.54c.23-.43.56-.76,1-1,.43-.23.92-.35,1.48-.35Z"/>
      <path class="cls-4" d="M261.39,17.69c-.55,0-1.08-.07-1.59-.2-.51-.13-.91-.3-1.21-.5l.62-1.34c.3.18.65.33,1.05.45s.8.17,1.19.17c.43,0,.74-.05.92-.16.18-.1.27-.25.27-.43,0-.15-.07-.27-.21-.34s-.33-.13-.56-.17c-.23-.04-.49-.08-.76-.12-.28-.04-.55-.09-.83-.16-.28-.07-.54-.17-.77-.31-.23-.14-.42-.32-.56-.55-.14-.23-.21-.53-.21-.9,0-.41.12-.77.35-1.08.24-.31.58-.56,1.03-.74.45-.18.98-.27,1.61-.27.44,0,.89.05,1.34.14.46.1.84.24,1.14.42l-.62,1.33c-.31-.18-.63-.31-.94-.38-.32-.07-.62-.1-.92-.1-.42,0-.72.06-.91.17-.19.11-.29.26-.29.43,0,.16.07.28.21.36.14.08.33.14.56.19.23.05.49.09.76.13.28.04.55.09.83.16.28.07.53.17.76.31.23.13.41.31.56.54.14.23.22.53.22.89,0,.4-.12.75-.36,1.06-.24.31-.59.55-1.04.73-.45.18-1,.26-1.65.26Z"/>
      <path class="cls-4" d="M264.82,12.72v-1.44h4.48v1.44h-4.48ZM268.23,17.69c-.76,0-1.35-.19-1.78-.58-.42-.39-.64-.97-.64-1.73v-5.66h1.87v5.64c0,.27.07.48.22.63.14.15.34.22.59.22.3,0,.55-.08.76-.24l.5,1.32c-.19.14-.42.24-.69.31-.27.07-.55.1-.83.1Z"/>
      <path class="cls-4" d="M273.81,17.69c-.74,0-1.38-.14-1.94-.43s-.99-.68-1.29-1.18-.46-1.07-.46-1.71.15-1.22.45-1.72.71-.89,1.23-1.18c.52-.28,1.11-.43,1.76-.43s1.2.13,1.71.4c.51.27.91.65,1.21,1.15s.44,1.1.44,1.79c0,.07,0,.15-.01.25s-.02.18-.02.26h-5.24v-1.09h4.26l-.72.32c0-.34-.07-.63-.2-.88-.14-.25-.32-.44-.56-.58-.24-.14-.52-.21-.84-.21s-.6.07-.85.21-.43.34-.57.59-.2.55-.2.89v.29c0,.35.08.66.23.93.16.27.38.47.66.61.28.14.62.21,1,.21.34,0,.65-.05.91-.16.26-.1.5-.26.71-.47l1,1.08c-.3.34-.67.59-1.12.77-.45.18-.96.27-1.55.27Z"/>
      <path class="cls-4" d="M279.12,10.23c-.34,0-.62-.1-.84-.3-.22-.2-.32-.45-.32-.74s.11-.54.32-.74c.22-.2.5-.3.84-.3s.62.09.84.28c.22.19.32.43.32.73,0,.31-.11.57-.32.77-.21.2-.49.31-.85.31ZM278.18,17.59v-6.46h1.87v6.46h-1.87Z"/>
      <path class="cls-4" d="M285.72,11.04c.51,0,.97.1,1.37.31.4.2.72.52.95.94.23.42.35.96.35,1.61v3.7h-1.87v-3.41c0-.52-.11-.9-.34-1.15s-.55-.37-.97-.37c-.3,0-.56.06-.8.19-.24.12-.42.31-.55.57-.13.26-.2.58-.2.98v3.19h-1.87v-6.46h1.79v1.79l-.34-.54c.23-.43.56-.76,1-1,.43-.23.92-.35,1.48-.35Z"/>
      <path class="cls-4" d="M290.96,17.69c-.34,0-.61-.11-.83-.32-.22-.22-.32-.47-.32-.77s.11-.56.32-.76.49-.31.83-.31.62.1.83.31.32.46.32.76-.11.55-.32.77c-.21.22-.49.32-.83.32ZM290.22,14.67l-.37-5.48h2.23l-.37,5.48h-1.49Z"/>
    </g>
  </g>
  <g>
    <g>
      <polygon class="cls-3" points="188.02 301.13 81.22 301.62 81.01 287.99 187.81 287.51 188.02 301.13"/>
      <polygon class="cls-1" points="187.02 300.13 80.22 300.62 80.01 286.99 186.81 286.51 187.02 300.13"/>
      <g>
        <path class="cls-5" d="M95.33,296.17v-.93s5.48-.08,5.48-.08v.93s-5.48.08-5.48.08ZM95.58,293.86v-.93s5.48-.09,5.48-.09l.02.93-5.5.08ZM96.3,297.52l.65-5.97h.95s-.65,5.96-.65,5.96l-.95.02ZM98.5,297.49l.65-5.97.95-.02-.64,5.97-.96.02Z"/>
        <path class="cls-5" d="M103.37,296.31l3.24-.05.02,1.11-4.61.07-.09-5.96,4.5-.07.02,1.11-3.13.05.06,3.75ZM103.23,293.85l2.87-.04.02,1.07-2.87.04-.02-1.07Z"/>
        <path class="cls-5" d="M108.22,292.12c-.24,0-.44-.06-.6-.21-.15-.14-.23-.31-.24-.52,0-.21.07-.39.22-.53.15-.14.35-.22.59-.22s.44.06.6.19.23.3.24.51c0,.22-.07.4-.22.55-.15.15-.35.22-.6.23ZM107.64,297.34l-.07-4.58,1.33-.02.07,4.58-1.33.02Z"/>
        <path class="cls-5" d="M112.91,292.62c.36,0,.69.06.98.2s.52.36.69.65c.17.29.26.68.26,1.14l.04,2.62-1.33.02-.04-2.42c0-.37-.09-.64-.26-.81-.16-.17-.39-.26-.69-.25-.21,0-.4.05-.56.14s-.29.23-.38.41c-.09.18-.13.42-.13.7l.03,2.26-1.33.02-.07-4.58,1.27-.02.02,1.27-.24-.38c.16-.31.39-.55.7-.72.3-.17.65-.26,1.04-.26Z"/>
        <path class="cls-5" d="M117.62,297.26c-.39,0-.77-.04-1.13-.12-.36-.09-.65-.2-.86-.34l.43-.96c.21.13.46.23.75.31.29.08.57.12.85.11.31,0,.52-.04.65-.12.13-.08.19-.18.19-.31,0-.11-.05-.19-.15-.24-.1-.05-.23-.09-.4-.12-.17-.03-.35-.05-.54-.08s-.39-.06-.59-.11c-.2-.04-.38-.11-.55-.21-.17-.1-.3-.22-.4-.39-.1-.16-.15-.38-.16-.64,0-.29.08-.54.24-.77.16-.22.4-.4.72-.54.32-.13.7-.2,1.14-.21.31,0,.63.03.96.09s.59.16.81.29l-.43.95c-.22-.12-.45-.21-.67-.26-.22-.04-.44-.07-.65-.06-.29,0-.51.05-.64.13-.14.08-.2.18-.2.31,0,.11.05.2.15.25s.23.1.4.13c.16.03.35.06.54.08.2.02.39.06.59.11.2.05.38.12.54.21s.3.22.4.38c.11.16.16.37.16.63,0,.28-.08.54-.24.76-.17.22-.41.39-.73.52-.32.13-.71.2-1.17.21Z"/>
        <path class="cls-5" d="M120,293.7l-.02-1.02,3.18-.05.02,1.02-3.18.05ZM122.47,297.18c-.54,0-.96-.12-1.27-.39s-.46-.68-.47-1.22l-.06-4.02,1.33-.02.06,4c0,.19.06.34.16.44.1.1.24.15.42.15.21,0,.39-.06.53-.18l.37.93c-.14.1-.3.17-.49.23-.19.05-.39.08-.59.08Z"/>
        <path class="cls-5" d="M126.43,297.12c-.52,0-.98-.09-1.38-.29-.4-.2-.71-.47-.93-.82-.22-.35-.33-.75-.34-1.21,0-.46.09-.87.3-1.23.21-.36.49-.64.86-.85.37-.21.78-.31,1.25-.32.45,0,.85.08,1.22.27.36.19.65.45.87.8.22.35.33.78.33,1.27,0,.05,0,.11,0,.18,0,.06,0,.12-.01.18l-3.72.06v-.78s3.01-.05,3.01-.05l-.51.24c0-.24-.06-.45-.15-.62-.1-.17-.24-.31-.41-.41-.17-.1-.37-.14-.6-.14-.23,0-.43.06-.6.16-.17.1-.3.24-.4.42-.09.18-.14.39-.13.64v.21c0,.25.06.47.18.66.11.19.27.33.47.43.2.1.44.14.71.14.24,0,.46-.04.64-.12.18-.08.35-.19.5-.34l.72.75c-.21.24-.47.43-.78.56-.32.13-.68.2-1.1.21Z"/>
        <path class="cls-5" d="M130.11,291.78c-.24,0-.44-.06-.6-.2-.16-.14-.23-.31-.24-.53,0-.21.07-.39.22-.53.15-.14.35-.22.59-.22.24,0,.44.06.6.19.16.13.23.3.24.51,0,.22-.07.41-.22.55-.15.15-.35.22-.6.23ZM129.53,297.01l-.07-4.58,1.33-.02.07,4.58-1.33.02Z"/>
        <path class="cls-5" d="M134.8,292.28c.36,0,.69.06.98.2.29.14.52.36.69.65.17.29.26.68.26,1.14l.04,2.62-1.33.02-.04-2.42c0-.37-.09-.64-.26-.81-.16-.17-.39-.26-.69-.25-.21,0-.4.05-.56.14-.17.09-.29.23-.38.41-.09.18-.13.42-.13.7l.03,2.26-1.33.02-.07-4.58,1.27-.02.02,1.27-.24-.38c.16-.31.39-.55.7-.72.3-.17.65-.26,1.04-.26Z"/>
        <path class="cls-5" d="M138.07,296.88l-.09-5.96,2.58-.04c.53,0,1,.07,1.38.24.39.17.69.41.91.73.21.32.33.71.33,1.15,0,.44-.09.83-.3,1.15-.21.33-.5.58-.88.76-.38.18-.84.27-1.38.28l-1.81.03.6-.63.03,2.26-1.38.02ZM139.41,294.75l-.62-.65,1.74-.03c.43,0,.74-.1.95-.29.21-.19.31-.44.3-.76,0-.33-.11-.58-.33-.76s-.53-.26-.96-.26l-1.74.03.6-.67.05,3.38Z"/>
        <path class="cls-5" d="M146.38,296.82c-.52,0-.98-.09-1.38-.29-.4-.2-.71-.47-.93-.82-.22-.35-.33-.75-.34-1.21,0-.46.09-.87.3-1.23.21-.36.49-.64.86-.85.37-.21.78-.31,1.25-.32.45,0,.85.08,1.22.27s.65.45.87.8c.22.35.33.77.33,1.27,0,.05,0,.11,0,.17,0,.07,0,.13-.01.18l-3.72.06v-.77s3.01-.05,3.01-.05l-.51.24c0-.24-.06-.45-.15-.62-.1-.18-.24-.31-.41-.41-.17-.1-.37-.14-.6-.14-.23,0-.43.06-.6.16-.17.1-.3.24-.4.42-.09.18-.14.39-.13.64v.2c0,.25.06.47.18.66.11.19.27.33.47.43.2.1.44.14.71.14.24,0,.46-.04.64-.12.18-.08.35-.19.5-.34l.72.76c-.21.24-.47.43-.78.56-.32.13-.68.2-1.1.21Z"/>
        <path class="cls-5" d="M149.48,296.7l-.07-4.58,1.27-.02.02,1.29-.18-.37c.13-.33.35-.57.64-.75s.66-.26,1.09-.27l.02,1.23c-.06,0-.11,0-.15,0-.05,0-.09,0-.15,0-.36,0-.65.11-.88.32-.22.21-.33.53-.32.97l.03,2.16-1.33.02Z"/>
        <path class="cls-5" d="M152.68,293.2l-.02-1.02,3.18-.05.02,1.02-3.18.05ZM155.15,296.68c-.54,0-.96-.12-1.27-.39-.3-.27-.46-.68-.47-1.22l-.06-4.02,1.33-.02.06,4c0,.19.06.34.16.44.1.11.24.15.42.15.21,0,.39-.06.53-.18l.37.93c-.14.1-.3.17-.49.22-.19.05-.39.08-.59.08Z"/>
        <path class="cls-5" d="M159.11,296.62c-.52,0-.98-.09-1.38-.29-.4-.2-.71-.47-.93-.82-.22-.35-.33-.75-.34-1.21,0-.46.09-.87.3-1.23.21-.36.49-.64.86-.85.37-.21.78-.31,1.25-.32.45,0,.85.08,1.22.27.36.18.65.45.87.8.22.35.33.78.34,1.27,0,.05,0,.11,0,.18,0,.06,0,.13-.01.18l-3.72.06v-.78s3.01-.04,3.01-.04l-.51.24c0-.24-.06-.45-.15-.62-.1-.17-.24-.31-.41-.41-.17-.1-.37-.14-.6-.14-.23,0-.43.05-.6.16-.17.1-.3.24-.4.42-.09.18-.14.39-.13.64v.21c0,.25.06.47.18.66.11.19.27.33.47.43.2.1.44.14.71.14.24,0,.46-.04.64-.12.18-.08.35-.19.5-.34l.72.75c-.21.24-.47.43-.78.56-.32.13-.68.2-1.1.21Z"/>
        <path class="cls-5" d="M164.92,291.81c.36,0,.69.06.98.2s.52.36.69.65c.17.3.26.68.26,1.14l.04,2.62-1.33.02-.04-2.42c0-.37-.09-.64-.26-.81-.16-.17-.39-.26-.69-.25-.21,0-.4.05-.56.14-.17.09-.29.23-.38.41-.09.18-.13.42-.13.7l.03,2.26-1.33.02-.07-4.58,1.27-.02.02,1.27-.24-.38c.16-.31.39-.55.7-.72s.65-.26,1.04-.26Z"/>
        <path class="cls-5" d="M170.34,296.45c-.49,0-.93-.09-1.32-.28-.39-.19-.7-.47-.92-.82-.22-.36-.34-.76-.35-1.21,0-.46.1-.87.31-1.23.21-.36.51-.64.89-.85.38-.21.82-.32,1.31-.32.48,0,.9.09,1.27.28.36.2.63.48.8.85l-1.02.57c-.12-.21-.27-.37-.45-.47-.18-.1-.38-.15-.59-.14-.23,0-.43.06-.61.16-.18.1-.32.25-.42.44-.1.19-.15.42-.15.68,0,.27.06.49.17.68.11.19.25.33.44.43.18.1.39.15.62.14.21,0,.4-.05.58-.16.18-.1.32-.26.44-.49l1.04.54c-.16.37-.42.66-.78.87-.36.21-.77.31-1.26.32Z"/>
        <path class="cls-5" d="M175.37,296.37c-.52,0-.98-.09-1.38-.29-.4-.2-.71-.47-.93-.82-.22-.35-.33-.75-.34-1.21,0-.46.09-.87.3-1.23.21-.36.49-.64.86-.85.37-.21.78-.31,1.25-.32.45,0,.85.08,1.22.27.36.19.65.45.87.8.22.35.33.78.33,1.27,0,.05,0,.11,0,.18,0,.06,0,.12-.01.18l-3.72.06v-.78s3.01-.05,3.01-.05l-.51.24c0-.24-.06-.45-.15-.62-.1-.17-.24-.31-.41-.41-.17-.1-.37-.14-.6-.14-.23,0-.43.06-.6.16-.17.1-.3.24-.4.42s-.14.39-.13.64v.2c0,.25.06.47.18.66.11.19.27.33.47.43.2.1.44.14.71.14.24,0,.46-.04.64-.12.18-.08.35-.19.5-.34l.72.75c-.21.24-.47.43-.78.56-.32.13-.68.2-1.1.21Z"/>
        <path class="cls-5" d="M178.47,296.25l-.07-4.58,1.27-.02.02,1.29-.18-.37c.13-.33.35-.57.64-.75s.66-.26,1.09-.27l.02,1.22c-.06,0-.11,0-.15,0-.05,0-.09,0-.15,0-.36,0-.65.11-.88.32s-.33.54-.32.97l.03,2.16-1.33.02Z"/>
      </g>
    </g>
    <g>
      <polygon class="cls-3" points="200.53 280.34 80.82 291.3 79.51 277.74 199.22 266.78 200.53 280.34"/>
      <polygon class="cls-1" points="199.53 279.34 79.82 290.3 78.51 276.74 198.22 265.78 199.53 279.34"/>
      <g>
        <path class="cls-5" d="M93.71,284.34l-.09-.92,5.47-.53.09.92-5.47.53ZM93.78,282.02l-.09-.92,5.47-.53.1.92-5.47.53ZM94.78,285.61l.17-6,.95-.09-.17,6-.95.09ZM96.98,285.4l.16-6,.95-.09-.16,6-.96.09Z"/>
        <path class="cls-5" d="M103.37,284.88c-.47.04-.91.01-1.32-.1-.41-.11-.78-.29-1.09-.54-.32-.25-.58-.55-.77-.91-.2-.36-.32-.76-.36-1.2-.04-.44,0-.86.12-1.24.12-.39.32-.73.59-1.04.27-.3.59-.55.97-.74s.8-.31,1.27-.35c.47-.04.91-.01,1.31.1.41.12.77.3,1.09.55.32.25.58.55.77.9.2.36.32.76.36,1.2.04.44,0,.86-.13,1.25-.13.39-.32.74-.59,1.04-.26.3-.59.55-.96.74-.38.19-.8.31-1.26.35ZM103.25,283.72c.26-.03.5-.09.72-.21.21-.11.4-.26.55-.45s.26-.4.34-.64c.07-.24.09-.5.07-.78-.03-.28-.1-.54-.21-.76-.12-.22-.26-.41-.45-.56-.18-.15-.39-.27-.63-.33-.23-.07-.48-.09-.75-.06-.27.03-.51.1-.72.21-.21.11-.4.26-.55.45-.15.19-.27.4-.34.64-.07.24-.09.5-.07.79.03.28.1.53.21.75.11.23.26.42.45.57.18.15.39.26.63.33.24.07.49.09.75.06Z"/>
        <path class="cls-5" d="M107.54,284.38l-.44-4.56,1.26-.12.12,1.29-.21-.36c.1-.34.3-.6.58-.8.28-.2.64-.31,1.07-.35l.12,1.22c-.06,0-.11,0-.15,0s-.09,0-.14,0c-.36.04-.64.17-.85.39-.2.23-.28.56-.24.99l.21,2.15-1.32.13Z"/>
        <path class="cls-5" d="M113.03,283.63c-.42.04-.82-.01-1.17-.16-.36-.15-.66-.38-.9-.69-.24-.31-.38-.69-.42-1.13-.04-.45.02-.85.2-1.2.17-.35.42-.63.75-.85.32-.21.7-.34,1.12-.38.38-.04.73,0,1.04.13s.56.35.76.65.32.72.37,1.23c.05.5,0,.92-.13,1.27-.13.34-.34.6-.62.79-.28.19-.61.3-.99.34ZM113.42,285.54c-.43.04-.85.03-1.26-.04-.41-.07-.76-.19-1.04-.38l.43-1c.21.14.46.24.77.31.31.06.6.08.89.05.47-.04.8-.18.99-.41.19-.23.27-.55.23-.96l-.07-.69-.03-1.15-.13-1.15-.09-.98,1.25-.12.37,3.79c.08.85-.08,1.49-.48,1.94-.4.44-1.01.71-1.84.79ZM113.19,282.52c.23-.02.43-.09.61-.2.17-.11.3-.26.39-.44.09-.18.12-.38.1-.6-.02-.22-.09-.42-.21-.57-.12-.16-.27-.27-.46-.35-.19-.08-.4-.1-.63-.08-.23.02-.43.09-.6.2s-.3.25-.39.43c-.09.18-.12.38-.1.6.02.22.09.41.21.57.12.16.28.28.47.35.19.07.4.1.63.08Z"/>
        <path class="cls-5" d="M118.98,283.35c-.38.04-.72,0-1.03-.12s-.56-.32-.76-.61-.31-.66-.36-1.13l-.25-2.58,1.32-.13.23,2.38c.04.38.14.65.32.81.18.16.42.23.71.2.2-.02.38-.08.53-.18.15-.1.26-.25.33-.44.07-.19.1-.43.07-.7l-.22-2.25,1.32-.13.44,4.56-1.25.12-.12-1.25.26.34c-.12.33-.32.59-.61.78-.28.19-.6.3-.95.33Z"/>
        <path class="cls-5" d="M122.87,282.9l-.61-6.29,1.32-.13.61,6.29-1.32.13Z"/>
        <path class="cls-5" d="M127.74,277.76c.36-.04.69,0,.99.12.3.12.54.32.74.6.19.28.31.65.36,1.12l.25,2.61-1.32.13-.23-2.41c-.04-.37-.14-.63-.32-.79-.18-.16-.41-.23-.71-.2-.21.02-.39.08-.55.19-.16.1-.28.25-.35.44s-.1.43-.07.71l.22,2.25-1.32.13-.61-6.29,1.32-.13.29,2.99-.33-.36c.13-.32.35-.58.64-.77.29-.19.63-.31,1.02-.35Z"/>
        <path class="cls-5" d="M133.48,281.95c-.49.05-.93-.01-1.32-.18-.4-.17-.72-.42-.97-.75-.25-.33-.4-.72-.44-1.17-.04-.46.03-.88.21-1.25.18-.38.45-.68.81-.92.36-.24.78-.38,1.26-.43.48-.05.92.01,1.32.18.4.17.72.41.97.74.25.33.39.72.44,1.19.04.45-.02.86-.21,1.24-.18.38-.45.68-.81.92-.36.24-.78.38-1.26.43ZM133.38,280.86c.22-.02.41-.09.58-.21s.29-.28.37-.48c.08-.2.11-.43.09-.69-.03-.27-.1-.49-.22-.66-.12-.18-.27-.31-.46-.39s-.39-.12-.61-.1c-.22.02-.41.09-.58.21-.17.12-.29.28-.38.47-.09.2-.12.43-.09.7.02.26.1.48.22.66.12.18.28.31.46.39.18.09.39.12.61.1Z"/>
        <path class="cls-5" d="M138.21,280.31l3.23-.31.11,1.1-4.59.44-.57-5.93,4.48-.43.11,1.1-3.12.3.36,3.73ZM137.87,277.88l2.86-.28.1,1.07-2.86.28-.1-1.07Z"/>
        <path class="cls-5" d="M147.94,275.82c.36-.04.69,0,.98.12.29.12.53.32.72.6.19.28.31.65.35,1.12l.25,2.61-1.32.13-.23-2.41c-.04-.37-.14-.63-.31-.79-.17-.16-.39-.23-.67-.2-.19.02-.36.08-.5.18-.14.1-.25.25-.32.43s-.09.41-.06.68l.22,2.29-1.32.13-.23-2.41c-.04-.37-.14-.63-.3-.79-.17-.16-.39-.23-.67-.2-.19.02-.36.08-.5.18-.14.1-.25.24-.32.43-.07.18-.09.41-.06.68l.22,2.29-1.32.13-.44-4.56,1.26-.12.12,1.25-.27-.34c.13-.33.33-.58.61-.77.27-.19.6-.3.97-.34.42-.04.79.03,1.13.21.33.18.57.49.72.91l-.48-.08c.12-.37.33-.68.65-.92.32-.24.69-.38,1.13-.42Z"/>
        <path class="cls-5" d="M151.53,280.14l-.57-5.93,2.57-.25c.53-.05,1,0,1.4.12.4.14.72.36.96.66.24.3.38.68.42,1.12.04.44-.03.83-.2,1.17s-.45.62-.82.83c-.37.21-.82.34-1.35.39l-1.8.17.55-.68.22,2.25-1.37.13ZM152.7,277.91l-.67-.59,1.73-.17c.42-.04.73-.16.92-.36s.27-.46.24-.79c-.03-.33-.16-.57-.39-.73-.23-.16-.55-.22-.98-.18l-1.73.17.55-.71.32,3.37Z"/>
        <path class="cls-5" d="M159.81,279.41c-.52.05-.99,0-1.4-.17-.41-.16-.74-.41-.99-.75s-.39-.72-.44-1.18c-.04-.46.02-.88.2-1.25s.44-.68.79-.91.75-.38,1.22-.42c.45-.04.86.01,1.23.17.38.15.69.4.93.73.24.33.39.75.44,1.24,0,.05,0,.11,0,.18,0,.06,0,.12,0,.18l-3.7.36-.07-.77,3.01-.29-.49.28c-.02-.24-.09-.44-.2-.61-.11-.16-.26-.29-.44-.37-.18-.08-.38-.11-.61-.09-.23.02-.42.09-.58.21-.16.12-.28.27-.36.46-.08.19-.11.4-.08.64l.02.21c.02.25.1.46.23.64.13.18.3.31.51.39.21.08.45.11.72.08.24-.02.45-.08.63-.17.18-.09.33-.22.47-.38l.78.69c-.19.26-.43.47-.74.62-.31.16-.66.26-1.08.29Z"/>
        <path class="cls-5" d="M162.89,279.05l-.44-4.56,1.26-.12.12,1.29-.21-.36c.11-.34.3-.6.58-.8.28-.2.64-.31,1.07-.35l.12,1.22c-.06,0-.11,0-.15,0s-.09,0-.15,0c-.36.04-.64.17-.85.39-.2.23-.28.56-.24.99l.21,2.15-1.32.13Z"/>
        <path class="cls-5" d="M165.8,275.3l-.1-1.02,3.16-.3.1,1.02-3.16.3ZM168.54,278.57c-.54.05-.97-.05-1.29-.29-.33-.25-.52-.64-.57-1.18l-.39-4,1.32-.13.38,3.98c.02.19.08.34.2.43.11.1.26.13.43.12.21-.02.38-.09.52-.22l.45.9c-.13.11-.28.2-.47.26-.18.07-.38.11-.58.13Z"/>
        <path class="cls-5" d="M172.48,278.19c-.52.05-.99,0-1.4-.17-.41-.16-.74-.41-.99-.75s-.4-.72-.44-1.18c-.04-.46.02-.87.2-1.25.18-.38.44-.68.79-.92s.75-.38,1.22-.42c.45-.04.86.01,1.23.17.38.15.69.4.93.73.24.33.39.75.44,1.24,0,.05,0,.11,0,.18,0,.07,0,.12,0,.18l-3.7.36-.08-.77,3.01-.29-.49.28c-.02-.24-.09-.44-.2-.61-.11-.16-.26-.29-.44-.37-.18-.08-.38-.11-.61-.09-.23.02-.42.09-.58.21-.16.12-.28.27-.36.46s-.11.4-.08.64l.02.21c.02.25.1.46.23.64.13.18.3.31.51.39.21.08.45.11.72.08.24-.02.45-.08.63-.17.18-.09.33-.22.47-.38l.78.7c-.19.26-.43.46-.74.62-.31.16-.66.26-1.08.29Z"/>
        <path class="cls-5" d="M177.88,272.93c.36-.04.69,0,.99.12.3.12.54.32.74.6.19.28.31.65.36,1.12l.25,2.61-1.32.13-.23-2.41c-.04-.37-.14-.63-.32-.79-.18-.16-.41-.23-.71-.2-.21.02-.39.08-.55.19-.16.1-.28.25-.35.44s-.1.43-.07.71l.22,2.25-1.32.13-.44-4.56,1.26-.12.12,1.26-.27-.36c.13-.32.35-.58.63-.77s.63-.31,1.02-.35Z"/>
        <path class="cls-5" d="M183.66,277.12c-.49.05-.94,0-1.34-.18-.4-.16-.73-.41-.98-.75-.25-.34-.4-.73-.44-1.18-.04-.46.03-.88.21-1.25.18-.38.46-.68.82-.92s.79-.38,1.28-.43c.48-.04.91.01,1.28.18.38.17.67.43.87.78l-.97.65c-.14-.21-.3-.35-.49-.43-.19-.08-.39-.12-.59-.1-.23.02-.42.09-.6.21s-.3.28-.39.47c-.09.2-.12.43-.09.7.03.26.1.48.22.66.12.18.28.31.47.39s.4.12.62.09c.21-.02.4-.09.57-.21.17-.12.3-.29.4-.52l1.08.46c-.13.38-.37.69-.71.93-.34.23-.75.38-1.23.42Z"/>
        <path class="cls-5" d="M188.67,276.63c-.52.05-.99,0-1.4-.17-.41-.16-.74-.41-.99-.75s-.39-.72-.44-1.18c-.04-.46.02-.88.2-1.25s.44-.68.79-.91c.35-.24.75-.38,1.22-.42.45-.04.86.01,1.23.17.38.15.69.4.93.73.24.33.39.75.44,1.24,0,.05,0,.11,0,.17,0,.07,0,.13,0,.18l-3.7.36-.07-.77,3.01-.29-.49.28c-.02-.24-.09-.44-.2-.61-.11-.17-.26-.29-.44-.37-.18-.08-.38-.11-.61-.09-.23.02-.42.09-.58.21-.16.12-.28.27-.36.45-.08.19-.11.4-.08.65l.02.21c.02.25.1.46.23.64.13.18.3.31.51.39.21.08.45.11.72.08.24-.02.45-.08.63-.17.18-.09.33-.22.47-.38l.78.69c-.19.26-.43.47-.74.62-.3.16-.66.26-1.08.29Z"/>
        <path class="cls-5" d="M191.75,276.27l-.44-4.56,1.26-.12.12,1.29-.21-.36c.1-.34.3-.6.58-.8.28-.2.64-.31,1.07-.36l.12,1.22c-.06,0-.11,0-.15,0s-.09,0-.14,0c-.36.04-.64.17-.85.39-.2.23-.29.56-.24.99l.21,2.15-1.32.13Z"/>
      </g>
    </g>
    <g>
      <rect class="cls-3" x="78.38" y="258.22" width="105.6" height="13.63" transform="translate(-44.19 26.92) rotate(-10.04)"/>
      <rect class="cls-1" x="77.38" y="257.22" width="105.6" height="13.63" transform="translate(-44.03 26.73) rotate(-10.04)"/>
      <g>
        <path class="cls-5" d="M90.74,270.26l-.16-.91,5.41-.95.17.91-5.42.95ZM90.85,272.58l-.16-.91,5.42-.96.16.91-5.42.95ZM92.02,273.76l-.3-6,.94-.16.3,6-.94.17ZM94.19,273.38l-.3-6,.94-.17.31,6-.95.17Z"/>
        <path class="cls-5" d="M96.88,272.91l1.58-6.33,1.34-.24,3.66,5.41-1.43.25-3.06-4.8.54-.09-1.24,5.56-1.39.25ZM97.97,271.42l.18-1.1,3.02-.53.55.97-3.75.66Z"/>
        <path class="cls-5" d="M105.82,271.11c-.42.07-.81.05-1.18-.07-.37-.12-.69-.33-.95-.62s-.43-.65-.51-1.09c-.08-.44-.04-.84.1-1.21s.37-.66.68-.9.67-.39,1.09-.47c.38-.07.73-.05,1.05.05.32.1.59.3.81.59.22.29.37.69.46,1.19.09.5.08.92-.03,1.27s-.29.63-.55.83c-.26.21-.58.35-.96.41ZM106.36,272.98c-.42.08-.84.1-1.26.06-.41-.04-.77-.13-1.07-.29l.35-1.03c.22.12.48.21.79.25.31.04.61.04.89-.02.46-.08.78-.24.96-.49.17-.24.22-.57.15-.98l-.12-.68-.12-1.15-.22-1.14-.17-.97,1.24-.22.66,3.76c.15.84.04,1.49-.33,1.97s-.96.78-1.77.93ZM105.89,269.99c.23-.04.42-.12.59-.25.16-.12.28-.28.35-.46.07-.18.09-.39.05-.6-.04-.22-.12-.41-.25-.56-.13-.15-.29-.25-.49-.31-.19-.06-.41-.07-.64-.03-.23.04-.42.12-.59.24-.16.12-.28.28-.36.46-.08.18-.09.39-.05.61.04.22.12.4.26.55.13.15.3.26.49.32.19.06.41.07.64.03Z"/>
        <path class="cls-5" d="M111.97,270.32c-.48.08-.92.06-1.33-.08-.41-.14-.75-.36-1.03-.67-.28-.31-.46-.69-.53-1.14-.08-.45-.04-.87.11-1.26.15-.39.4-.71.74-.98.34-.27.75-.44,1.23-.52.48-.08.92-.06,1.33.07.41.13.75.35,1.02.66.27.31.45.69.53,1.15.08.45.04.87-.11,1.25-.15.39-.4.71-.73.98-.34.27-.75.44-1.22.53ZM111.78,269.25c.22-.04.41-.12.56-.25.15-.13.27-.3.33-.51.07-.21.08-.44.03-.69-.05-.26-.14-.48-.27-.64s-.29-.29-.49-.35c-.19-.07-.4-.09-.62-.05-.22.04-.4.12-.56.25-.16.13-.27.3-.34.5-.07.2-.08.44-.04.7.04.26.14.47.27.64.14.17.3.29.49.36.19.07.4.09.61.05Z"/>
        <path class="cls-5" d="M115.3,269.66l-.79-4.51,1.25-.22.22,1.27-.24-.34c.08-.34.25-.62.52-.84s.61-.36,1.04-.44l.21,1.21c-.06,0-.11,0-.15.02-.05,0-.09.01-.14.02-.36.06-.63.21-.81.46-.19.24-.24.58-.16,1.01l.38,2.13-1.31.23Z"/>
        <path class="cls-5" d="M121.36,268.59l-.15-.88-.12-.18-.28-1.58c-.05-.28-.17-.48-.37-.61-.2-.12-.47-.16-.83-.1-.24.04-.47.12-.69.24-.22.12-.4.25-.54.41l-.63-.83c.22-.21.49-.4.82-.56.33-.16.67-.27,1.03-.33.69-.12,1.25-.05,1.69.21.44.26.71.73.84,1.42l.45,2.57-1.22.21ZM119.99,268.91c-.35.06-.67.05-.94-.02s-.49-.21-.67-.39-.28-.4-.32-.66c-.05-.27-.02-.51.07-.74.1-.22.28-.42.54-.58.26-.16.63-.29,1.08-.37l1.2-.21.13.76-1.06.19c-.31.05-.51.14-.61.26s-.13.26-.1.41c.03.17.12.29.27.36.15.08.34.09.57.05.22-.04.4-.12.56-.26.16-.13.25-.31.3-.52l.31.57c-.04.31-.18.56-.4.75s-.54.33-.93.4Z"/>
        <path class="cls-5" d="M125.01,266.83l3.2-.56.19,1.09-4.54.8-1.03-5.87,4.43-.78.19,1.09-3.09.54.65,3.69ZM124.49,264.43l2.82-.5.19,1.06-2.83.5-.19-1.06Z"/>
        <path class="cls-5" d="M131.27,266.92c-.38.07-.72.05-1.04-.04-.32-.09-.59-.28-.8-.55-.21-.27-.36-.64-.45-1.1l-.45-2.55,1.31-.23.42,2.36c.07.38.19.64.38.78.19.15.43.2.72.15.2-.04.37-.11.51-.22.14-.12.24-.27.3-.47.06-.2.06-.43.01-.71l-.39-2.23,1.31-.23.79,4.51-1.24.22-.22-1.24.29.32c-.1.34-.28.62-.54.83-.26.21-.57.35-.92.41Z"/>
        <path class="cls-5" d="M136.57,265.92l-1.36.24-1.03-5.87,4.43-.78.19,1.09-3.08.54.84,4.78ZM135.9,262.71l2.82-.5.19,1.09-2.82.5-.19-1.09Z"/>
        <path class="cls-5" d="M143.11,264.76l-.15-.88-.12-.18-.28-1.58c-.05-.28-.17-.48-.37-.61-.2-.13-.47-.16-.83-.1-.24.04-.47.12-.69.24-.22.12-.4.25-.54.41l-.63-.83c.22-.22.49-.4.82-.56.33-.16.67-.27,1.03-.33.69-.12,1.25-.05,1.69.21.44.26.71.73.84,1.42l.45,2.57-1.22.21ZM141.75,265.07c-.35.06-.67.05-.94-.02s-.49-.21-.67-.39-.28-.4-.32-.66c-.05-.27-.02-.51.07-.74.1-.22.28-.42.54-.58s.63-.29,1.08-.37l1.2-.21.13.76-1.06.19c-.31.05-.51.14-.61.26-.1.12-.13.26-.1.41.03.17.12.29.27.36.15.08.34.09.57.05.22-.04.4-.12.56-.26.15-.13.25-.31.3-.52l.31.57c-.04.31-.18.56-.4.75-.22.2-.54.33-.93.4Z"/>
        <path class="cls-5" d="M147.75,264.02c-.49.09-.94.06-1.35-.07-.42-.13-.76-.35-1.04-.67-.28-.32-.46-.7-.53-1.14-.08-.45-.04-.87.11-1.26.15-.39.4-.71.75-.98.34-.27.76-.44,1.25-.53.47-.08.91-.06,1.29.08.39.14.7.37.93.71l-.92.72c-.15-.19-.33-.32-.52-.39-.2-.07-.39-.09-.6-.05-.22.04-.42.12-.58.26s-.28.3-.35.5c-.07.2-.08.44-.04.7.05.26.14.48.27.64.14.17.3.28.5.35.2.07.41.08.63.04.21-.04.39-.12.55-.25.16-.13.28-.31.36-.55l1.11.37c-.1.39-.31.72-.63.98-.32.26-.71.43-1.19.52ZM147.6,265.98c-.15.03-.29.03-.43.02-.14,0-.27-.03-.38-.06l.1-.6c.09.03.18.04.28.05s.19,0,.29-.02c.16-.03.26-.07.32-.13.06-.06.08-.13.07-.21-.01-.07-.06-.12-.13-.16-.07-.03-.18-.04-.33-.01l-.29.05.06-.93.7-.12-.03.51c.26-.02.46.03.6.14.14.11.23.25.26.43.04.25-.03.47-.23.66-.2.19-.48.32-.86.39Z"/>
        <path class="cls-5" d="M152.61,263.16c-.48.08-.93.06-1.33-.08-.41-.14-.75-.36-1.03-.67-.28-.31-.46-.69-.53-1.14-.08-.45-.04-.87.11-1.26.15-.39.4-.71.73-.98.34-.27.75-.44,1.23-.52.47-.08.92-.06,1.33.07.41.13.75.35,1.02.66.27.31.45.69.53,1.15.08.45.04.87-.11,1.25-.15.39-.4.71-.73.98-.34.27-.75.44-1.22.53ZM152.42,262.09c.22-.04.41-.12.56-.25.16-.13.27-.3.33-.51.07-.21.08-.44.03-.69-.05-.26-.14-.48-.27-.64-.13-.17-.29-.29-.49-.35-.19-.07-.4-.09-.61-.05-.22.04-.41.12-.56.25-.16.13-.27.3-.34.5-.07.2-.08.44-.04.7.04.26.14.47.27.64.14.17.3.29.49.36.19.07.4.09.61.05Z"/>
        <path class="cls-5" d="M156.04,262.49l-1.03-5.87,2.54-.45c.52-.09.99-.09,1.4.02.41.1.75.3,1.01.58.26.28.43.64.51,1.09.08.44.04.83-.11,1.19-.15.35-.4.65-.75.89-.35.24-.79.4-1.31.49l-1.79.31.5-.72.39,2.23-1.36.24ZM157.03,260.17l-.72-.54,1.71-.3c.42-.07.72-.22.89-.43.18-.21.23-.48.18-.8-.06-.32-.21-.56-.44-.7s-.57-.18-.99-.1l-1.71.3.49-.75.59,3.33Z"/>
        <path class="cls-5" d="M164.72,260.96l-.15-.88-.12-.18-.28-1.58c-.05-.28-.17-.48-.37-.61-.2-.12-.47-.16-.83-.1-.24.04-.47.12-.69.24-.22.12-.4.25-.54.41l-.63-.83c.22-.22.49-.4.82-.56.33-.16.67-.27,1.03-.33.69-.12,1.25-.05,1.69.21.44.26.71.73.84,1.42l.45,2.57-1.22.21ZM163.36,261.27c-.35.06-.67.05-.94-.02s-.49-.21-.67-.39-.28-.4-.32-.66c-.05-.27-.02-.51.07-.74.1-.22.28-.42.54-.58s.63-.29,1.08-.37l1.2-.21.13.76-1.06.19c-.31.05-.51.14-.61.26-.1.12-.13.26-.1.41.03.17.12.29.27.36.15.08.34.09.57.05.22-.04.41-.12.56-.26.15-.13.25-.31.3-.52l.31.57c-.04.31-.18.56-.4.75s-.54.33-.93.4Z"/>
        <path class="cls-5" d="M167.13,260.53l-.79-4.51,1.25-.22.22,1.28-.24-.34c.08-.34.25-.62.52-.84.27-.22.61-.36,1.04-.44l.21,1.21c-.06,0-.11,0-.15.02-.04,0-.09.01-.14.02-.36.06-.63.22-.81.46-.19.24-.24.58-.16,1.01l.38,2.13-1.31.23Z"/>
        <path class="cls-5" d="M169.73,256.57l-.18-1.01,3.13-.55.18,1.01-3.13.55ZM172.72,259.62c-.53.09-.97.03-1.31-.19-.34-.22-.56-.6-.66-1.13l-.7-3.96,1.31-.23.69,3.94c.03.19.11.33.23.41s.26.12.44.08c.21-.04.37-.12.5-.26l.51.86c-.12.12-.27.22-.44.3-.18.08-.37.14-.57.17Z"/>
        <path class="cls-5" d="M176.62,258.93c-.51.09-.98.07-1.41-.06s-.77-.36-1.05-.67c-.27-.31-.45-.69-.53-1.14-.08-.45-.05-.87.1-1.26.15-.39.39-.71.71-.97.33-.26.72-.44,1.18-.52.44-.08.86-.05,1.24.07s.72.34.98.66c.27.31.45.71.53,1.2,0,.05.02.11.02.17,0,.06.01.12.02.18l-3.67.65-.13-.76,2.98-.52-.46.31c-.04-.23-.13-.43-.25-.59-.13-.16-.28-.27-.47-.34-.19-.07-.39-.08-.61-.04s-.41.12-.57.25c-.15.13-.26.29-.33.48-.06.19-.08.41-.03.65l.04.2c.04.25.13.45.28.62s.32.28.54.35c.22.06.46.07.73.02.24-.04.45-.12.61-.22.17-.1.32-.24.44-.41l.83.63c-.17.27-.39.5-.68.68-.29.18-.64.31-1.05.38Z"/>
      </g>
    </g>
  </g>
  <g>
    <path class="cls-5" d="M0,233.54h43.81c21.25,0,38.5,17.25,38.5,38.5v28.2H0v-66.7h0Z"/>
    <g id="VERTICAL_2" data-name="VERTICAL 2">
      <g>
        <path class="cls-4" d="M47.74,258.22c-.65-2.72-2.26-5.5-4.56-7.88-.66.5-1.3,1.05-1.92,1.66-.04.04-.08.08-.12.12,2.01,2.05,3.42,4.43,3.96,6.72.5,2.1.2,3.83-.84,4.87-.41.41-.93.71-1.54.88-.47.14-1,.2-1.58.19h0c-.49,0-1.02-.07-1.57-.19-.06-.01-.12-.03-.18-.04-1.68-.4-3.42-1.27-5.03-2.5-.62-.47-1.23-1-1.8-1.58-2.08-2.08-3.53-4.5-4.08-6.84-.5-2.1-.2-3.83.84-4.87.71-.71,1.75-1.08,3-1.08.58,0,1.21.08,1.87.24,1.64.39,3.34,1.23,4.92,2.41.08-.08.16-.16.24-.25.57-.57,1.17-1.11,1.79-1.6-1.99-1.58-4.18-2.69-6.33-3.2-1.44-.34-2.79-.4-4.02-.17-1.35.25-2.49.83-3.39,1.73-.9.9-1.48,2.04-1.73,3.39-.23,1.23-.17,2.58.17,4.01.67,2.81,2.37,5.7,4.8,8.12,2.43,2.43,5.31,4.13,8.12,4.8.05.01.11.02.16.04h0c.77.17,1.51.26,2.22.27.71,0,1.45-.1,2.22-.27,0,0,0,0,0,0,1.1-.3,2.04-.83,2.8-1.6.9-.9,1.48-2.04,1.73-3.39.01-.06.02-.12.03-.17.19-1.18.13-2.47-.2-3.84Z"/>
        <path class="cls-4" d="M56.62,250.25c-.25-1.35-.83-2.49-1.73-3.39-.9-.9-2.04-1.48-3.39-1.73-1.23-.23-2.58-.17-4.01.17-2.15.51-4.34,1.62-6.33,3.2.62.49,1.22,1.02,1.79,1.6.08.08.16.16.24.25,1.58-1.19,3.28-2.02,4.92-2.41.66-.16,1.29-.24,1.87-.24,1.25,0,2.29.37,3,1.08,1.04,1.04,1.34,2.77.84,4.87-.55,2.33-2,4.76-4.08,6.84-.58.58-1.18,1.11-1.8,1.58-1.62,1.23-3.35,2.1-5.03,2.5-.06.01-.12.03-.18.04-.55.12-1.08.18-1.58.19h0c-.57,0-1.1-.06-1.57-.19-.61-.18-1.13-.47-1.54-.88-1.04-1.04-1.34-2.77-.84-4.87.54-2.29,1.95-4.67,3.96-6.72-.04-.04-.08-.08-.12-.12-.61-.61-1.25-1.17-1.92-1.66-2.3,2.37-3.91,5.16-4.56,7.88-.32,1.37-.39,2.66-.2,3.84,0,.06.02.12.03.17.25,1.35.83,2.49,1.73,3.39.77.77,1.71,1.3,2.81,1.6h0c.19.05.38.1.58.13.49.09,1,.14,1.53.14h.1c.71,0,1.45-.1,2.22-.27,0,0,0,0,0,0,.05-.01.11-.02.16-.04,2.81-.67,5.7-2.37,8.12-4.8,2.43-2.43,4.13-5.31,4.8-8.12.34-1.43.4-2.79.17-4.01Z"/>
        <path class="cls-4" d="M43.19,250.34c-.66.5-1.3,1.05-1.92,1.66-.04.04-.08.08-.12.12-.04-.04-.08-.08-.12-.12-.61-.61-1.25-1.17-1.92-1.66.08-.08.16-.16.24-.25.57-.57,1.17-1.11,1.79-1.6.62.49,1.22,1.02,1.79,1.6.08.08.16.16.24.25Z"/>
      </g>
      <g>
        <g>
          <path class="cls-4" d="M24.25,278.57v.61h-4.74v-6.71h4.6v.61h-3.89v2.39h3.47v.6h-3.47v2.49h4.03Z"/>
          <path class="cls-4" d="M25.92,272.48h.71v6.71h-.71v-6.71Z"/>
          <path class="cls-4" d="M34.41,272.48v6.71h-.58l-4.31-5.44v5.44h-.71v-6.71h.58l4.32,5.44v-5.44h.7Z"/>
          <path class="cls-4" d="M35.96,278.37l.28-.55c.48.47,1.33.81,2.21.81,1.25,0,1.8-.53,1.8-1.19,0-1.84-4.13-.71-4.13-3.19,0-.99.77-1.84,2.47-1.84.76,0,1.54.22,2.08.59l-.24.57c-.57-.37-1.25-.56-1.84-.56-1.23,0-1.77.55-1.77,1.22,0,1.84,4.13.73,4.13,3.17,0,.99-.79,1.83-2.5,1.83-1.01,0-1.99-.35-2.49-.87Z"/>
          <path class="cls-4" d="M43.7,273.09h-2.36v-.61h5.42v.61h-2.36v6.09h-.71v-6.09Z"/>
          <path class="cls-4" d="M52.63,278.57v.61h-4.74v-6.71h4.6v.61h-3.89v2.39h3.47v.6h-3.47v2.49h4.03Z"/>
          <path class="cls-4" d="M54.3,272.48h.71v6.71h-.71v-6.71Z"/>
          <path class="cls-4" d="M62.8,272.48v6.71h-.58l-4.31-5.44v5.44h-.71v-6.71h.58l4.32,5.44v-5.44h.7Z"/>
        </g>
        <g>
          <path class="cls-4" d="M17.04,284.43c0,1.52-1.15,2.47-2.98,2.47h-1.17v1.75h-1.9v-6.71h3.07c1.83,0,2.98.95,2.98,2.48ZM15.12,284.43c0-.62-.39-.99-1.18-.99h-1.05v1.96h1.05c.79,0,1.18-.36,1.18-.98Z"/>
          <path class="cls-4" d="M23.34,287.19v1.47h-5.38v-6.71h5.26v1.47h-3.38v1.13h2.98v1.42h-2.98v1.23h3.51Z"/>
          <path class="cls-4" d="M27.32,286.88h-1.03v1.78h-1.9v-6.71h3.07c1.83,0,2.98.95,2.98,2.48,0,.99-.48,1.71-1.31,2.12l1.45,2.11h-2.03l-1.22-1.78ZM27.34,283.45h-1.05v1.96h1.05c.79,0,1.18-.36,1.18-.98s-.39-.99-1.18-.99Z"/>
          <path class="cls-4" d="M32.81,283.46h-2.06v-1.5h6.01v1.5h-2.05v5.2h-1.9v-5.2Z"/>
          <path class="cls-4" d="M42.85,287.19v1.47h-5.38v-6.71h5.26v1.47h-3.38v1.13h2.98v1.42h-2.98v1.23h3.51Z"/>
          <path class="cls-4" d="M50.29,281.95v6.71h-1.56l-2.96-3.57v3.57h-1.86v-6.71h1.56l2.96,3.57v-3.57h1.86Z"/>
          <path class="cls-4" d="M51.28,285.31c0-2.04,1.56-3.49,3.69-3.49,1.24,0,2.23.45,2.88,1.26l-1.21,1.09c-.42-.51-.94-.79-1.58-.79-1.1,0-1.87.77-1.87,1.92s.77,1.92,1.87,1.92c.64,0,1.16-.28,1.58-.79l1.21,1.09c-.65.81-1.65,1.26-2.88,1.26-2.13,0-3.69-1.45-3.69-3.49Z"/>
          <path class="cls-4" d="M64.08,287.19v1.47h-5.38v-6.71h5.26v1.47h-3.38v1.13h2.98v1.42h-2.98v1.23h3.51Z"/>
          <path class="cls-4" d="M68.06,286.88h-1.03v1.78h-1.9v-6.71h3.07c1.83,0,2.98.95,2.98,2.48,0,.99-.48,1.71-1.31,2.12l1.45,2.11h-2.03l-1.22-1.78ZM68.08,283.45h-1.05v1.96h1.05c.79,0,1.18-.36,1.18-.98s-.39-.99-1.18-.99Z"/>
        </g>
      </g>
    </g>
  </g>
</svg>