<?xml version="1.0" encoding="UTF-8"?>
<svg id="Layer_1" data-name="Layer 1" xmlns="http://www.w3.org/2000/svg" xmlns:xlink="http://www.w3.org/1999/xlink" viewBox="0 0 300 300">
  <defs>
    <style>
      .cls-1 {
        fill: url(#linear-gradient);
      }

      .cls-1, .cls-2, .cls-3, .cls-4, .cls-5, .cls-6, .cls-7 {
        stroke-width: 0px;
      }

      .cls-2 {
        fill: #004c8f;
        fill-rule: evenodd;
      }

      .cls-3 {
        fill: #fff;
      }

      .cls-4 {
        fill: #1b1f45;
      }

      .cls-5 {
        fill: #55aeb3;
      }

      .cls-6 {
        opacity: .1;
      }

      .cls-7 {
        fill: #2d5c5e;
      }
    </style>
    <linearGradient id="linear-gradient" x1="16.6" y1="259.59" x2="283.38" y2="259.59" gradientUnits="userSpaceOnUse">
      <stop offset="0" stop-color="#c7e8e1"/>
      <stop offset="1" stop-color="#5fc3c4"/>
    </linearGradient>
  </defs>
  <path class="cls-6" d="m153.22,14.73c67.43,1.71,121.56,56.9,121.56,124.74s-55.87,124.78-124.78,124.78S25.22,208.39,25.22,139.48,79.35,16.44,146.78,14.73c-70.48,1.71-127.08,59.38-127.08,130.27s58.34,130.31,130.31,130.31,130.31-58.34,130.31-130.31S223.7,16.44,153.22,14.73Z"/>
  <path class="cls-3" d="m0,0v300h300V0H0Zm150,275.31c-71.97,0-130.31-58.34-130.31-130.31S78.03,14.69,150,14.69s130.31,58.34,130.31,130.31-58.34,130.31-130.31,130.31Z"/>
  <path class="cls-5" d="m30.35,196.67c-10.19-4.95-19.63-10.71-26.41-16.46l14.46,34.24L.16,226.76c18.24,12.45,38.58,28.27,71.17,32.23v-10.11c-17.79-13.49-32-31.45-40.97-52.2Z"/>
  <path class="cls-5" d="m281.6,214.45l14.46-34.24c-6.79,5.75-16.22,11.51-26.42,16.46-8.97,20.75-23.19,38.71-40.97,52.2v10.11c32.59-3.96,52.93-19.78,71.17-32.23l-18.24-12.31Z"/>
  <path class="cls-7" d="m40.99,216.4l-24.39,4.88,42.38,16.95c-6.75-6.59-12.79-13.91-17.99-21.83Z"/>
  <path class="cls-7" d="m259.01,216.41c-5.2,7.92-11.23,15.24-17.98,21.83l42.36-16.95-24.38-4.88Z"/>
  <path class="cls-4" d="m150,3.87C72.06,3.87,8.87,67.06,8.87,145s63.19,141.13,141.13,141.13,141.13-63.19,141.13-141.13S227.94,3.87,150,3.87Zm0,271.44c-71.97,0-130.31-58.34-130.31-130.31S78.03,14.69,150,14.69s130.31,58.34,130.31,130.31-58.34,130.31-130.31,130.31Z"/>
  <path class="cls-1" d="m283.38,273.27c-28.25,10.8-74.7,24.62-133.37,24.63-58.69,0-105.15-13.83-133.41-24.63v-51.99c26.35,11.29,73.14,27.37,133.41,27.36,60.25,0,107.02-16.08,133.37-27.36v51.99Z"/>
  <g>
    <path class="cls-2" d="m286.3,19c-.72-1.2-2.35-1.55-3.51-1.72l-.28-.04c1.34,1.93,2.51,3.91,3.49,5.9.11-.24.19-.44.26-.6.55-1.49.56-2.67.05-3.54h0Z"/>
    <path class="cls-2" d="m272.08,34.58c.64,1.67,1.32,2.52,2.13,2.68,1.01.2,2.34-.63,4.32-2.69.4-.42.84-.92,1.29-1.49-2.25.06-4.96.28-8.07.66.07.16.33.84.33.84h0Z"/>
    <path class="cls-2" d="m267.57,25.37c1.19,1.83,2.28,3.9,3.33,6.33.29-.04.59-.09.89-.13,2.98-.45,6.28-.65,9.55-.55,1.81-2.58,3.39-5.36,4.21-6.99-1.19-2.29-2.7-4.57-4.58-6.95-2.79-.24-5.92-.2-9.09.13-.45,1.06-1.16,2.64-2.16,4.37-.83,1.44-1.54,2.68-2.15,3.79h0Z"/>
    <path class="cls-2" d="m286.51,12.08c-3.6-3.6-8.38-5.58-13.47-5.58-4.26,0-8.29,1.37-11.65,3.97-3.21,2.48-5.57,5.98-6.67,9.86,4.11-2,9.5-3.56,15.25-4.4.4-1.25.68-2.43.94-3.47.52-2.17.89-3.73,1.91-4.01,1.08-.3,2.8.88,5.94,4.09,0,0,0,0,0,0h0s2.38,2.82,2.38,2.82c1.33.09,2.55.25,3.61.46l.13.03c1,.2,3.08.62,3.94,2.16.49.88.5,2,0,3.33-.55,1.52-1.13,2.89-1.76,4.21.54,1.33,1,2.67,1.35,3.98.01.06.03.17.05.27.05.32-.2.63-.21.64l-.1.12-.05-.15c-.39-1.37-.87-2.72-1.44-4.04-.85,1.68-1.78,3.24-2.86,4.76,2.77.21,5.19.62,7.02,1.19.82-2.16,1.25-4.45,1.25-6.79,0-5.08-1.98-9.87-5.58-13.47h0Z"/>
    <path class="cls-2" d="m265.73,31.21c.45.67,1.71.86,4.06.62-.82-2.08-1.69-3.93-2.66-5.64-1.27,2.39-1.98,4.15-1.4,5.02h0Z"/>
    <path class="cls-2" d="m279.53,15.3c-2.27-2.68-3.57-3.73-4.48-3.58-.95.15-1.55,1.61-2.45,3.81l-.03.08c2.46-.26,4.81-.37,6.97-.31h0Z"/>
    <path class="cls-2" d="m282.36,33.09c-1.11,1.38-2.38,2.8-4.01,4.49-2.37,2.43-3.68,3.54-4.74,3.27-.73-.19-1.27-1.05-1.76-2.79-.41-1.46-.85-2.86-1.31-4.17l-1.73.25c-3.89.56-6.06.26-6.82-.95-1.09-1.71.94-5.08,3.71-9.29-.63-.92-1.27-1.79-1.98-2.63-.07-.08-.13-.15-.18-.21l-.1-.12h.15c.25-.03.49.05.67.22.63.67,1.24,1.38,1.83,2.13l.27-.42,1.26-1.9c.69-1.05,1.27-2.19,1.77-3.45-7.1,1.07-12.21,3.27-14.37,6.07-.84,1.02-1.15,2.03-.94,3.91.51,4.37,2.26,8.26,5.53,11.57,3.56,3.6,8.36,5.53,13.42,5.53,5.56,0,10.84-2.43,14.46-6.65.87-1.17,1.14-2.14.77-2.9-.55-1.16-2.54-1.82-5.91-1.96h0Z"/>
  </g>
  <g>
    <path class="cls-4" d="m41.35,257.22l-.85,2.12,2.1.56-.7,2.61-2.43-.65-.93,2.3-2.78-.74.93-2.3-1.72-.46-.93,2.3-2.78-.74.93-2.3-2.1-.56.7-2.61,2.44.65.85-2.12-2.1-.56.7-2.61,2.43.65.93-2.3,2.78.74-.93,2.3,1.72.46.93-2.3,2.78.74-.93,2.3,2.1.56-.7,2.61-2.43-.65Zm-2.78-.74l-1.72-.46-.85,2.12,1.72.46.85-2.12Z"/>
    <path class="cls-4" d="m42.46,264.16l2.04-2.7c1,.96,2.43,1.76,3.78,2.08,1.17.28,1.65.13,1.75-.29.36-1.54-6.71-1.9-5.63-6.47.54-2.28,2.88-3.68,6.68-2.79,1.65.39,3.26,1.14,4.37,2.16l-1.95,2.7c-1.06-.9-2.13-1.46-3.2-1.72-1.21-.29-1.68-.03-1.78.39-.35,1.47,6.72,1.84,5.65,6.36-.53,2.24-2.88,3.68-6.68,2.79-2.05-.48-4-1.48-5.04-2.52Z"/>
    <path class="cls-4" d="m55.2,261.75c.75-3.74,4.25-5.86,8.27-5.05,4.02.81,6.42,4.13,5.66,7.87-.76,3.74-4.25,5.86-8.27,5.05-4.02-.81-6.42-4.12-5.66-7.87Zm9.74,1.97c.39-1.92-.61-3.34-2.14-3.65-1.54-.31-3.01.61-3.39,2.53-.39,1.92.61,3.34,2.15,3.65,1.53.31,3-.6,3.39-2.53Z"/>
    <path class="cls-4" d="m80.42,272.82l.89-5.67-3.44,4.11-1.85-.3-1.99-4.79-.89,5.47-3.82-.62,2.03-12.43,3.45.56,2.97,7.29,5.02-5.98,3.45.56-1.99,12.44-3.82-.62Z"/>
    <path class="cls-4" d="m86.42,267.39c.47-3.79,3.8-6.17,7.87-5.66,4.07.51,6.71,3.63,6.24,7.42-.47,3.79-3.8,6.17-7.87,5.66-4.07-.51-6.71-3.63-6.24-7.42Zm9.86,1.23c.24-1.95-.86-3.28-2.41-3.47-1.55-.19-2.95.83-3.19,2.78-.24,1.95.86,3.28,2.41,3.47,1.55.19,2.95-.83,3.19-2.78Z"/>
    <path class="cls-4" d="m100.53,274.44l1.65-2.96c1.12.81,2.65,1.4,4.04,1.53,1.2.11,1.65-.1,1.69-.53.14-1.58-6.91-.94-6.48-5.62.21-2.33,2.34-4.05,6.23-3.69,1.69.15,3.39.67,4.63,1.53l-1.55,2.95c-1.18-.74-2.32-1.15-3.41-1.25-1.24-.11-1.66.21-1.7.64-.14,1.5,6.91.89,6.49,5.51-.21,2.29-2.34,4.05-6.23,3.69-2.1-.19-4.16-.91-5.35-1.79Z"/>
    <path class="cls-4" d="m116.07,267.45l-3.68-.24.21-3.29,11.6.75-.21,3.29-3.68-.24-.6,9.28-4.24-.27.6-9.28Z"/>
    <path class="cls-4" d="m123.93,270.98c.13-3.81,3.23-6.48,7.33-6.34,4.1.14,7.01,3.01,6.88,6.82s-3.23,6.48-7.33,6.34c-4.1-.14-7.01-3.01-6.88-6.83Zm9.93.34c.07-1.96-1.15-3.19-2.72-3.24-1.57-.05-2.86,1.09-2.93,3.05-.07,1.96,1.15,3.19,2.72,3.24,1.56.05,2.86-1.09,2.93-3.05Z"/>
    <path class="cls-4" d="m139.53,265.25l6.21-.08c4.21-.05,7.13,2.31,7.18,6.21.05,3.9-2.82,6.33-7.03,6.38l-6.21.07-.15-12.59Zm6.14,9.21c1.78-.02,2.99-1.1,2.97-3.02-.02-1.92-1.26-2.97-3.04-2.95l-1.78.02.07,5.97,1.78-.02Z"/>
    <path class="cls-4" d="m153.76,271.44c-.14-3.82,2.76-6.7,6.87-6.85,4.1-.15,7.21,2.51,7.35,6.33.14,3.82-2.76,6.7-6.87,6.85-4.1.15-7.21-2.51-7.35-6.33Zm9.93-.36c-.07-1.96-1.38-3.1-2.94-3.04-1.57.06-2.78,1.29-2.71,3.25.07,1.96,1.38,3.1,2.94,3.05,1.56-.06,2.78-1.29,2.71-3.25Z"/>
    <path class="cls-4" d="m168.78,276.16l1.16-3.18c1.23.62,2.84.96,4.23.87,1.2-.08,1.62-.36,1.59-.79-.11-1.58-6.97.17-7.29-4.52-.16-2.33,1.67-4.37,5.57-4.64,1.69-.11,3.46.13,4.82.77l-1.07,3.16c-1.28-.54-2.47-.77-3.57-.7-1.24.08-1.61.47-1.58.9.1,1.51,6.97-.22,7.28,4.41.16,2.3-1.67,4.37-5.57,4.64-2.1.14-4.26-.23-5.57-.92Z"/>
    <path class="cls-4" d="m191.47,272.09l.31,3.19-10.43,1-1.21-12.54,10.2-.98.31,3.19-6.04.58.14,1.47,5.31-.51.29,3.05-5.3.51.16,1.65,6.27-.6Z"/>
    <path class="cls-4" d="m191.87,262.57l4.22-.5,1.48,12.51-4.22.5-1.47-12.51Z"/>
    <path class="cls-4" d="m210.05,260.14l1.79,12.47-3.46.5-5.55-4.99.81,5.67-4.1.59-1.79-12.47,3.46-.5,5.55,4.99-.81-5.67,4.1-.59Z"/>
    <path class="cls-4" d="m212.84,271.43l.81-3.29c1.29.49,2.93.66,4.29.42,1.19-.21,1.57-.53,1.5-.96-.27-1.56-6.91.9-7.72-3.73-.4-2.3,1.2-4.52,5.05-5.19,1.67-.29,3.45-.24,4.87.26l-.73,3.25c-1.33-.41-2.54-.51-3.62-.32-1.22.21-1.55.64-1.48,1.06.26,1.49,6.9-.95,7.71,3.62.4,2.27-1.2,4.52-5.05,5.2-2.08.36-4.26.21-5.63-.33Z"/>
    <path class="cls-4" d="m226.02,260.61l-3.62.74-.66-3.23,11.39-2.32.66,3.23-3.62.74,1.86,9.12-4.16.85-1.86-9.12Z"/>
    <path class="cls-4" d="m246.13,262.42l.73,3.12-10.21,2.37-2.85-12.27,9.98-2.32.72,3.12-5.91,1.37.33,1.44,5.19-1.21.69,2.98-5.19,1.21.38,1.61,6.14-1.43Z"/>
    <path class="cls-4" d="m245.23,252.93l4.12-1.05,3.12,12.21-4.12,1.05-3.12-12.21Z"/>
    <path class="cls-4" d="m262.94,248.12l3.42,12.13-3.36.95-6.16-4.21,1.55,5.51-3.98,1.12-3.42-12.13,3.36-.95,6.16,4.21-1.55-5.51,3.98-1.12Z"/>
  </g>
</svg>