<?xml version="1.0" encoding="UTF-8"?>
<svg id="Layer_1" data-name="Layer 1" xmlns="http://www.w3.org/2000/svg" xmlns:xlink="http://www.w3.org/1999/xlink" viewBox="0 0 300 300">
  <defs>
    <style>
      .cls-1, .cls-2, .cls-3, .cls-4 {
        stroke-width: 0px;
      }

      .cls-5 {
        opacity: .2;
      }

      .cls-2 {
        fill: #004c8f;
        fill-rule: evenodd;
      }

      .cls-3 {
        fill: none;
      }

      .cls-6 {
        opacity: .8;
      }

      .cls-4 {
        fill: #fff;
      }

      .cls-7 {
        clip-path: url(#clippath);
      }
    </style>
    <clipPath id="clippath">
      <rect class="cls-3" x="-373.27" y="16.1" width="300" height="300"/>
    </clipPath>
  </defs>
  <g class="cls-7">
    <image width="2000" height="1333" transform="translate(-525.11 10.31) scale(.41)" xlink:href="../../../../_GERAL/DESIGN DOS MICROLEARNINGS/ASSETS/portrait-smiling-senior-woman-looking-camera-while-standing-corridor-hospital-team-doctors-is-background.jpg"/>
  </g>
  <g>
    <circle class="cls-4" cx="268.78" cy="31.45" r="23.01"/>
    <g>
      <path class="cls-2" d="m282.04,24.89c-.72-1.2-2.35-1.56-3.52-1.72l-.28-.04c1.34,1.93,2.52,3.92,3.49,5.9.11-.24.19-.44.26-.6.55-1.49.56-2.68.05-3.54h0Z"/>
      <path class="cls-2" d="m267.8,40.5c.64,1.67,1.32,2.53,2.13,2.68,1.01.21,2.35-.63,4.32-2.7.4-.42.84-.92,1.3-1.5-2.26.06-4.97.28-8.08.66.07.16.33.84.33.84h0Z"/>
      <path class="cls-2" d="m263.29,31.27c1.19,1.84,2.28,3.91,3.34,6.34.29-.04.59-.09.89-.13,2.98-.45,6.29-.65,9.57-.55,1.81-2.59,3.4-5.37,4.22-7-1.19-2.29-2.7-4.58-4.58-6.97-2.79-.24-5.93-.2-9.11.13-.45,1.06-1.17,2.65-2.16,4.38-.83,1.44-1.54,2.69-2.16,3.8h0Z"/>
      <path class="cls-2" d="m282.25,17.96c-3.6-3.6-8.4-5.59-13.49-5.59-4.27,0-8.3,1.37-11.67,3.98-3.21,2.49-5.58,5.99-6.68,9.88,4.11-2,9.52-3.56,15.27-4.41.4-1.26.68-2.43.94-3.47.52-2.17.89-3.74,1.91-4.02,1.08-.3,2.8.88,5.95,4.09,0,0,0,0,0,0h0s2.39,2.83,2.39,2.83c1.33.09,2.55.25,3.62.46l.13.03c1,.2,3.09.62,3.95,2.16.49.89.5,2,0,3.33-.55,1.52-1.13,2.9-1.76,4.22.54,1.34,1,2.67,1.35,3.99.01.06.03.17.05.27.05.32-.2.63-.21.65l-.1.13-.05-.15c-.39-1.37-.87-2.73-1.44-4.05-.85,1.68-1.79,3.25-2.86,4.76,2.77.21,5.2.62,7.03,1.19.83-2.17,1.25-4.46,1.25-6.8,0-5.09-1.99-9.89-5.59-13.49h0Z"/>
      <path class="cls-2" d="m261.44,37.12c.45.67,1.71.87,4.07.62-.82-2.08-1.69-3.94-2.66-5.65-1.27,2.39-1.99,4.16-1.4,5.03h0Z"/>
      <path class="cls-2" d="m275.26,21.19c-2.28-2.69-3.58-3.73-4.49-3.59-.95.15-1.55,1.61-2.46,3.82l-.03.08c2.47-.27,4.81-.37,6.98-.31h0Z"/>
      <path class="cls-2" d="m278.1,39c-1.11,1.38-2.39,2.81-4.02,4.5-2.37,2.43-3.69,3.54-4.74,3.28-.73-.19-1.27-1.05-1.76-2.79-.41-1.46-.85-2.87-1.31-4.18l-1.74.25c-3.9.56-6.07.26-6.83-.95-1.09-1.72.94-5.08,3.72-9.3-.63-.92-1.27-1.79-1.99-2.63-.07-.08-.13-.15-.18-.21l-.1-.12h.15c.26-.03.5.05.67.22.63.67,1.25,1.38,1.83,2.14l.27-.42,1.26-1.9c.69-1.05,1.27-2.19,1.78-3.45-7.11,1.07-12.23,3.28-14.39,6.08-.84,1.02-1.16,2.03-.94,3.91.51,4.38,2.26,8.27,5.54,11.59,3.57,3.6,8.37,5.54,13.44,5.54,5.57,0,10.85-2.43,14.48-6.66.87-1.17,1.14-2.14.77-2.9-.55-1.17-2.54-1.82-5.92-1.96h0Z"/>
    </g>
  </g>
  <g>
    <g class="cls-5">
      <path class="cls-1" d="m251.23,300.12c1.19,0,2.38,0,3.56,0-14.44-2.64-27.61-2.84-40.16-2.16-1.3-1.39-2.61-2.78-3.94-4.15,13.94-1.59,28.6-2.09,44.8.64,13.15,2.22,26.53,3.95,39.69,5.54,1.6,0,3.2-.01,4.79-.02-14.7-1.76-29.72-3.63-44.39-6.1-16.44-2.77-31.3-2.22-45.42-.59-1.33-1.36-2.66-2.73-4.02-4.06,14.73-2.53,30.22-3.88,47.32-1.57,8.08,1.09,16.57,2.17,24.06,3.11h.08c7.5.96,15.06,1.93,22.6,2.94v-.58c-7.54-1.01-15.1-1.98-22.6-2.93l-.75-.09c-7.66-.97-15.58-1.97-23.31-3.02-17.34-2.34-33.01-.94-47.91,1.65-1.38-1.35-2.78-2.66-4.18-3.98,15.56-3.52,31.91-5.77,49.97-3.92,15.71,1.61,32.28,3.53,48.78,6.06v-.6c-13.92-2.12-29.55-4.05-48.71-6.02-18.29-1.88-34.81.42-50.53,4.01-1.4-1.31-2.82-2.59-4.25-3.86,16.41-4.56,33.64-7.75,52.68-6.38,17.86,1.28,34.86,3.34,50.81,6.14v-.53c-15.94-2.78-32.94-4.85-50.78-6.12-19.24-1.37-36.63,1.87-53.17,6.49-.84-.75-1.67-1.52-2.52-2.26-.6-.52-1.21-1.04-1.82-1.55,17.27-5.63,35.41-9.8,55.45-8.98,18.05.74,35.82,2.91,52.83,6.32v-.53c-17.09-3.42-34.79-5.55-52.8-6.29-20.22-.84-38.51,3.41-55.92,9.1-1.48-1.26-2.97-2.49-4.46-3.7,17.76-6.59,36.38-11.72,56.88-11.72.48,0,.96,0,1.43,0,18.48.22,36.98,2.47,54.87,6.57v-.51c-18.04-4.13-36.45-6.34-54.86-6.56-.48,0-.96,0-1.44,0-20.68,0-39.44,5.2-57.33,11.86-1.51-1.22-3.03-2.41-4.55-3.58,19.12-7.9,39.16-14.22,61.29-14.6,1.12-.02,2.23-.03,3.35-.03,17.88,0,35.93,2.41,53.55,7.01v-.54c-18.81-4.91-37.94-7.25-56.9-6.92-22.3.38-42.47,6.76-61.71,14.73-1.56-1.19-3.12-2.33-4.68-3.46,20.09-9.11,41.14-16.58,64.36-17.62,21.55-.96,41.32,2.15,58.94,7.41v-.42c-1.52-.46-3.04-.9-4.54-1.3h0s-.28-.08-.28-.08c-17.95-4.83-36.16-6.87-54.14-6.06-23.4,1.05-44.57,8.59-64.77,17.77-1.59-1.14-3.19-2.26-4.78-3.33,21.1-10.37,43.19-19.05,67.53-20.8,22.29-1.6,42.78,1.95,60.97,8.11v-.45c-3.34-1.13-6.69-2.17-10.06-3.08l-.05-.02c-16.86-4.53-33.99-6.21-50.9-5-24.5,1.75-46.71,10.51-67.92,20.95-.79-.53-1.57-1.06-2.36-1.57-.85-.56-1.71-1.09-2.56-1.62,22.16-11.69,45.33-21.64,70.83-24.13,20.96-2.05,42.18,1.03,63.01,8.98v-.52c-4.81-1.83-9.69-3.43-14.53-4.73h0c-16.1-4.33-32.42-5.73-48.52-4.14-25.66,2.51-48.94,12.54-71.19,24.29-1.69-1.06-3.38-2.07-5.06-3.05,23.26-13.06,47.55-24.34,74.26-27.64,21.93-2.7,43.67.61,65.05,9.82v-.39c-.41-.18-.83-.36-1.24-.54-5.69-2.38-11.47-4.37-17.19-5.9l-.06-.03c-15.44-4.15-31.12-5.28-46.62-3.37-26.86,3.32-51.26,14.68-74.62,27.81-6.69-3.86-13.32-7.11-19.81-9.67-4.31-1.71-8.64-3.15-12.86-4.28l-.12-.03c-16.11-4.31-31.47-4.4-45.68-.27-3.12.48-6.19,1.16-9.21,2.02-2.99.45-5.94,1.05-8.83,1.84-.11.03-.22.07-.32.1-2.48.35-4.92.82-7.32,1.41-.7.17-1.4.37-2.09.56-1.87.26-3.73.56-5.55.95-1.27.27-2.53.57-3.79.9-1.29.17-2.57.36-3.84.59-1.96.35-3.9.78-5.83,1.26-.61.08-1.22.15-1.82.24-2.67.4-5.31.92-7.93,1.54-3.42.41-6.81.99-10.18,1.75-3.46.38-6.9.92-10.34,1.64-1.65.16-3.29.37-4.94.61v1.27c.09-.02.18-.05.28-.07.86-.03,1.71-.06,2.57-.07.24,0,.47,0,.7,0-1.02.35-2.04.73-3.06,1.11-.17-.01-.33-.02-.49-.03v.97c.26-.1.53-.2.79-.3,1.38.1,2.76.23,4.14.38-1.25.58-2.49,1.17-3.72,1.78-.41-.07-.82-.12-1.22-.18v.61c.1.01.2.03.3.04-.1.05-.2.1-.3.16v.83c.5-.26,1-.52,1.51-.78,1.53.26,3.07.55,4.61.87-1.3.76-2.58,1.54-3.85,2.34-.75-.19-1.51-.36-2.26-.53v.6c.52.12,1.04.23,1.56.36-.52.33-1.04.67-1.56,1.01v.9c.86-.55,1.71-1.11,2.58-1.66,1.67.42,3.34.86,5.01,1.33-1.28.92-2.56,1.84-3.82,2.79-1.26-.39-2.52-.76-3.77-1.14v.61c1.07.31,2.14.63,3.21.96-1.08.81-2.14,1.62-3.21,2.45v1.28c1.76.59,3.53,1.2,5.29,1.81-1.25,1.08-2.48,2.15-3.72,3.24-.52-.19-1.05-.38-1.57-.56v.55c.37.13.75.27,1.12.4-.38.33-.75.66-1.12.99v1.04c.65-.58,1.3-1.15,1.96-1.73,1.97.72,3.95,1.44,5.91,2.16-1.16,1.12-2.31,2.24-3.46,3.35-1.19-.43-2.37-.87-3.56-1.3l-.05-.02c-.27-.1-.54-.2-.81-.29v.54c.22.08.45.16.67.25,1.11.41,2.22.81,3.34,1.22-1.14,1.11-2.29,2.22-3.44,3.33-.19-.07-.38-.14-.57-.2v.53c.06.02.11.04.17.06-.06.05-.11.11-.17.16v1.1c.34-.32.68-.64,1.01-.97,2.18.77,4.36,1.54,6.54,2.29-1.02,1.07-2.05,2.14-3.09,3.21-1.49-.48-2.98-.98-4.46-1.47v.49c1.36.46,2.73.91,4.09,1.35-1,1.02-2,2.04-3,3.05-.36-.11-.73-.22-1.09-.33v.47c.24.07.49.15.73.22-.24.24-.49.48-.73.72v1.14c.54-.53,1.08-1.06,1.62-1.6,2.44.7,4.88,1.38,7.33,2.02-.01.02-.03.03-.04.04h2.02c-.24-.06-.48-.12-.72-.18.87-.95,1.74-1.91,2.6-2.87,3.7,1.09,7.4,2.11,11.1,3.04h1.96c-4.24-1.04-8.48-2.19-12.72-3.43.92-1.02,1.83-2.05,2.74-3.08,7.47,2.44,14.96,4.66,22.42,6.51h2.08c-8.02-1.92-16.09-4.29-24.15-6.92.96-1.09,1.92-2.17,2.87-3.26,11.09,3.89,22.26,7.49,33.25,10.17h2.15c-11.56-2.7-23.34-6.48-35.04-10.58.3-.34.6-.69.9-1.03.69-.78,1.37-1.56,2.06-2.35,13.68,5.05,27.63,9.99,41.16,13.41.76.19,1.52.37,2.28.55h2.4c-1.51-.33-3.02-.67-4.55-1.05-13.43-3.39-27.3-8.3-40.91-13.32,1.02-1.16,2.05-2.32,3.08-3.48.97.37,1.95.74,2.92,1.11,14.19,5.38,28.85,10.95,42.9,14.87,1,.28,2.01.55,3.02.8-1.04.37-2.09.72-3.15,1.08h1.35c.85-.29,1.7-.58,2.56-.89,1.21.3,2.42.58,3.64.85-.05.02-.1.03-.14.04h3.28c-.41-.08-.82-.15-1.23-.23,1.38-.46,2.77-.93,4.17-1.43,1.18.31,2.37.6,3.56.87-.87.27-1.74.53-2.62.79h1.56c.64-.2,1.28-.39,1.92-.59.93.21,1.86.4,2.79.59h3.01s-.04,0-.06,0c1.34-.39,2.69-.79,4.06-1.22,1.21.29,2.41.56,3.63.82-.53.14-1.07.27-1.61.41h1.74c.27-.07.53-.14.8-.21.38.08.76.14,1.13.21h3.32c-1.05-.18-2.11-.36-3.16-.56,1.34-.37,2.69-.76,4.06-1.17,1.14.29,2.29.57,3.44.83-1.23.31-2.47.62-3.71.91h2.08c.9-.22,1.8-.44,2.7-.67,1.06.23,2.11.46,3.18.67h3.33c-.13-.02-.27-.04-.4-.06,1.28-.29,2.55-.58,3.81-.89,1.18.28,2.37.53,3.56.79-.3.06-.61.11-.92.17h4.78c-.38-.07-.76-.14-1.14-.21,1.32-.27,2.63-.56,3.92-.85,1.1.29,2.22.57,3.34.84-.46.08-.94.15-1.4.23h5.39c-.32-.07-.64-.13-.97-.2,1.3-.24,2.57-.49,3.84-.74,1.12.33,2.25.64,3.36.95h4.08c1.01-.16,2.03-.32,3.03-.49.52.17,1.03.33,1.55.49h2.26c-.79-.24-1.57-.48-2.36-.73,1.45-.25,2.89-.51,4.31-.77,1.23.48,2.46.96,3.69,1.42-.24.03-.48.06-.72.09h4.69c1.04-.14,2.09-.27,3.1-.41.32.14.63.27.94.41h1.81c-.46-.2-.92-.4-1.38-.6l1.04-.14c.29-.04.58-.08.86-.12.94-.13,1.87-.27,2.81-.4.81.42,1.62.84,2.43,1.26h1.64c-.93-.48-1.86-.96-2.79-1.44,1.63-.24,3.26-.49,4.89-.75,1.21.73,2.42,1.46,3.62,2.19h1.46c-1.3-.79-2.61-1.58-3.93-2.37,1.45-.23,2.89-.46,4.32-.69.27-.04.53-.08.8-.13,1.36.95,2.72,1.89,4.06,2.84-1.19.11-2.45.23-3.71.35h6.42c1.46-.14,2.93-.28,4.4-.41.17.14.33.27.5.41h1.28c-.21-.17-.41-.34-.62-.51,1.78-.16,3.57-.31,5.36-.44.34.32.67.64,1.01.96h1.2c-.37-.35-.72-.7-1.09-1.04,1.84-.14,3.69-.25,5.56-.36.43.46.86.94,1.29,1.4h1.14c-.44-.49-.88-.98-1.33-1.46,11.35-.59,23.21-.44,36.06,1.6Zm-42.12-6.73c-1.95.23-3.88.49-5.81.75-1.35-1.22-2.71-2.44-4.11-3.66,1.96-.38,3.94-.75,5.93-1.1,1.35,1.32,2.66,2.66,3.98,4.01Zm-181.23-30.72c-1.19.95-2.37,1.92-3.54,2.9-1.64-.51-3.28-1.01-4.92-1.48,1.22-.91,2.45-1.8,3.7-2.67,1.59.39,3.17.81,4.76,1.25Zm-4.1-1.72c1.22-.85,2.46-1.68,3.71-2.48,1.51.31,3.02.65,4.53,1.01-1.2.89-2.39,1.8-3.56,2.72-1.58-.44-3.14-.86-4.69-1.25Zm5.04,1.98c1.64.47,3.28.96,4.92,1.47-1.15,1.02-2.3,2.06-3.43,3.11-1.69-.57-3.37-1.13-5.06-1.66,1.18-.99,2.37-1.96,3.57-2.92Zm.61-.46c1.19-.93,2.38-1.85,3.6-2.75,1.57.39,3.14.8,4.72,1.24-1.17.97-2.32,1.96-3.47,2.96-1.64-.51-3.25-1-4.85-1.45Zm18.5-3.77c-1.52-.43-3.02-.82-4.51-1.2.48-.36.94-.74,1.42-1.09.68-.5,1.36-.96,2.04-1.43,1.46.3,2.92.63,4.38.98-1.11.88-2.22,1.8-3.33,2.74Zm4.38-2.49c21.03,5.2,41.74,15.4,60.91,25.07-1.59.87-3.2,1.74-4.82,2.6-1.41-.67-2.84-1.36-4.29-2.05l-.03-.02c-14.82-7.1-30.13-14.45-45.87-19.88-3.17-1.1-6.26-2.07-9.3-2.95,1.12-.94,2.25-1.87,3.4-2.77Zm-5.01,3.03c-.25.21-.49.42-.74.63-.86.75-1.71,1.53-2.55,2.31-1.6-.5-3.18-.98-4.74-1.43,1.14-.93,2.29-1.83,3.45-2.72,1.53.38,3.05.78,4.58,1.21Zm-8.98,1.24c-1.56-.44-3.1-.85-4.63-1.23,1.16-.84,2.33-1.67,3.51-2.47,1.5.31,3,.65,4.5,1.01-1.14.88-2.27,1.78-3.38,2.7Zm.38.75c1.6.45,3.19.93,4.78,1.43-1.13,1.04-2.25,2.11-3.35,3.19-.75-.26-1.5-.52-2.25-.77-.9-.3-1.8-.59-2.69-.87,1.16-1.01,2.33-2,3.51-2.98Zm5.71,1.73c15.91,5.09,31.7,12.29,47.19,19.37l.08.04c3.57,1.63,7.04,3.22,10.46,4.75-1.57.79-3.16,1.57-4.76,2.33-5.79-2.4-11.64-4.95-17.73-7.61l-.04-.02c-12.56-5.48-25.51-11.12-38.59-15.66,1.12-1.08,2.25-2.15,3.39-3.2Zm47.47,18.78l-.13-.06c-14.17-6.47-28.82-13.16-43.72-18.19-1.04-.35-2.07-.69-3.09-1.02,1.1-1,2.22-1.99,3.35-2.95,19.19,5.49,38.06,14.53,55.54,22.91,1.3.62,2.57,1.23,3.84,1.84-1.58.83-3.17,1.65-4.78,2.46-3.59-1.61-7.24-3.27-11-4.99Zm16.22,2.74c1.35.64,2.68,1.28,4.01,1.91-1.58.78-3.18,1.55-4.79,2.31-1.32-.58-2.65-1.17-3.98-1.77,1.57-.79,3.16-1.61,4.76-2.46Zm.74-.39c1.58-.84,3.19-1.71,4.81-2.59.84.42,1.67.84,2.5,1.26.52.26,1.05.53,1.57.79-1.6.83-3.22,1.64-4.85,2.46-1.33-.63-2.67-1.27-4.03-1.92Zm36.55-4.46c1.77-.87,3.52-1.73,5.21-2.56,1.41.89,2.81,1.78,4.2,2.67-1.72.78-3.49,1.59-5.28,2.39-1.34-.81-2.71-1.65-4.12-2.5Zm3.29,2.87c-1.48.66-2.96,1.32-4.43,1.97-.26.11-.5.22-.76.33l-1.57-.9c-.81-.46-1.63-.93-2.46-1.4,1.71-.82,3.42-1.65,5.13-2.48,1.38.83,2.75,1.66,4.09,2.48Zm6.58-2.46c1.38.89,2.75,1.78,4.11,2.66-1.77.73-3.54,1.46-5.32,2.18-.31-.19-.62-.37-.94-.56-1.01-.62-2.06-1.26-3.12-1.9,1.77-.79,3.51-1.58,5.27-2.38Zm.81-.37c.92-.42,1.85-.84,2.76-1.25.88-.4,1.76-.8,2.64-1.21,1.42.96,2.83,1.92,4.22,2.88-.64.27-1.29.54-1.93.8l-.24.1c-1.09.45-2.19.91-3.3,1.37-1.37-.9-2.75-1.79-4.14-2.69Zm2.54-1.67c-.97.44-1.98.91-3,1.37-1.4-.9-2.8-1.8-4.22-2.69.75-.37,1.5-.74,2.22-1.1,1.04-.51,2.07-1.03,3.11-1.54,1.45.95,2.88,1.9,4.3,2.86-.8.37-1.6.73-2.4,1.1Zm-5.23-2.81c-.79.39-1.62.8-2.45,1.21-1.42-.9-2.85-1.79-4.29-2.67.55-.29,1.1-.59,1.64-.87,1.2-.64,2.4-1.27,3.6-1.91,1.48.93,2.94,1.87,4.39,2.81-.96.48-1.93.95-2.89,1.43Zm-3.24,1.6c-1.7.84-3.45,1.7-5.22,2.57-1.36-.82-2.77-1.66-4.19-2.5,1.73-.91,3.45-1.82,5.14-2.72,1.43.88,2.85,1.76,4.27,2.65Zm-6.02,2.96c-1.63.8-3.27,1.59-4.9,2.37-.08.04-.16.08-.24.12-1.35-.77-2.72-1.54-4.1-2.32,1.69-.87,3.38-1.76,5.08-2.65,1.4.83,2.8,1.66,4.17,2.49Zm-5.94,2.87c-.77.36-1.54.73-2.28,1.08-.92.43-1.84.86-2.77,1.29-1.32-.7-2.65-1.41-4.02-2.15.62-.31,1.24-.62,1.87-.94,1.03-.52,2.08-1.06,3.13-1.6,1.37.77,2.73,1.54,4.07,2.31Zm-3.76-2.96c-1.38-.78-2.77-1.56-4.17-2.34,1.67-.92,3.35-1.86,5.02-2.8,1.43.83,2.84,1.66,4.24,2.48-1.7.89-3.4,1.79-5.09,2.66Zm-.77.4c-.87.45-1.82.93-2.88,1.47-.71.36-1.42.72-2.13,1.07-1.35-.72-2.71-1.45-4.08-2.18.43-.23.86-.46,1.3-.69,1.15-.62,2.33-1.27,3.52-1.93.04-.02.08-.04.12-.07,1.4.78,2.77,1.55,4.15,2.32Zm-5.78,2.93c-1.63.81-3.29,1.63-4.96,2.43-1.35-.68-2.67-1.34-4-2.01,1.61-.83,3.25-1.7,4.9-2.58,1.36.72,2.71,1.45,4.05,2.17Zm-2.21-3.63c-.51.28-1.02.55-1.54.83-1.38-.74-2.77-1.48-4.16-2.21,1.46-.83,2.93-1.68,4.41-2.55.15-.09.3-.18.46-.27,1.42.78,2.84,1.56,4.24,2.34-1.13.63-2.28,1.26-3.41,1.87Zm-2.29,1.23c-1.62.87-3.26,1.73-4.91,2.59-.67-.34-1.35-.68-2.01-1.01-.69-.35-1.39-.7-2.09-1.05,1.6-.88,3.22-1.79,4.86-2.72,1.39.73,2.77,1.47,4.15,2.2Zm-5.2,3.21c1.32.67,2.63,1.33,3.97,2-1.61.77-3.23,1.53-4.88,2.29-1.3-.61-2.62-1.22-3.94-1.85,1.6-.79,3.21-1.6,4.84-2.44Zm4.45,2.24c1.3.65,2.6,1.3,3.91,1.95-1.61.71-3.23,1.42-4.88,2.11-.35-.16-.7-.3-1.05-.46-.94-.43-1.89-.87-2.83-1.31,1.6-.73,3.22-1.5,4.85-2.28Zm.78-.37c1.62-.78,3.27-1.59,4.93-2.42.12.06.24.13.36.19,1.24.66,2.44,1.3,3.62,1.94-1.64.76-3.3,1.51-4.98,2.26-1.32-.65-2.63-1.31-3.94-1.96Zm9.42-.03c1.24.66,2.47,1.32,3.71,1.97.07.04.14.07.21.11-1.64.69-3.3,1.38-4.96,2.05-1.02-.48-2.03-.95-3.06-1.46-.29-.14-.57-.29-.86-.43,1.63-.73,3.28-1.47,4.96-2.25Zm.8-.37c.82-.38,1.63-.76,2.46-1.15.84-.39,1.71-.81,2.57-1.22.97.55,1.94,1.1,2.9,1.65l.85.48c.08.05.17.09.25.14-.55.24-1.1.48-1.63.71-1.14.49-2.29.99-3.44,1.47-.24-.13-.49-.25-.73-.38-1.07-.57-2.15-1.14-3.23-1.72Zm7.58,1.05c.64-.28,1.3-.57,1.96-.85.49.28.97.56,1.46.83.83.47,1.65.93,2.48,1.39-.3.12-.6.24-.9.35l-.07.02c-1.35.53-2.72,1.05-4.08,1.57-1.3-.64-2.61-1.31-3.92-1.99,1.02-.43,2.04-.87,3.08-1.32Zm3.77-.66l-.98-.56c.15-.06.29-.12.44-.19,1.57-.69,3.15-1.4,4.72-2.11,1.2.73,2.39,1.46,3.56,2.17.16.1.31.18.47.28-1.31.53-2.62,1.06-3.92,1.58-.43.17-.86.34-1.29.51-.99-.55-1.99-1.1-2.99-1.67Zm4.46,1.63c1.42-.56,2.84-1.14,4.27-1.72,1.34.81,2.68,1.62,4,2.4-1.14.41-2.29.82-3.42,1.22-.58.21-1.16.41-1.75.61-1.33-.7-2.67-1.41-4.01-2.15.3-.12.6-.24.91-.35Zm5.14-2.07c1.77-.72,3.54-1.45,5.29-2.17.31.2.63.41.94.61,1.05.69,2.09,1.36,3.14,2.03-1.76.65-3.54,1.3-5.31,1.94-1.34-.79-2.7-1.6-4.06-2.42Zm6.64-2.19c-.17-.11-.34-.22-.51-.33.86-.36,1.72-.71,2.57-1.07l.66-.28c.74-.31,1.48-.62,2.22-.92.92.64,1.83,1.27,2.74,1.91.48.33.94.66,1.42.99-.48.18-.96.36-1.44.54l-.04.02c-1.32.49-2.66.99-4.01,1.49-1.2-.77-2.4-1.55-3.61-2.34Zm7.81,1.31c.59-.22,1.19-.44,1.78-.66,1.38.97,2.77,1.94,4.14,2.89-.36.12-.72.23-1.07.35-1.45.47-2.91.94-4.39,1.42-1.37-.86-2.75-1.74-4.14-2.63,1.26-.47,2.49-.92,3.68-1.37Zm2.67-.99c1.87-.69,3.74-1.38,5.62-2.07,1.42,1.07,2.81,2.13,4.19,3.17-1.88.6-3.76,1.21-5.63,1.81-1.42-.99-2.81-1.95-4.18-2.92Zm-.49-.35c-.62-.43-1.23-.86-1.85-1.3-.76-.53-1.54-1.08-2.33-1.63,1.86-.77,3.72-1.54,5.59-2.3,1.44,1.06,2.86,2.11,4.24,3.15-1.89.69-3.77,1.39-5.64,2.08Zm-4.66-3.26c-1.37-.95-2.79-1.92-4.23-2.9,1.84-.84,3.68-1.67,5.53-2.51,1.46,1.04,2.9,2.07,4.3,3.1-1.87.77-3.74,1.54-5.6,2.31Zm-4.69-3.21c-1.41-.95-2.84-1.91-4.31-2.88,1.82-.9,3.64-1.79,5.47-2.69,1.49,1.02,2.95,2.04,4.39,3.05-1.85.83-3.7,1.67-5.54,2.51Zm-4.76-3.17c-1.44-.94-2.9-1.89-4.39-2.84,1.79-.95,3.58-1.89,5.38-2.84,1.52.99,3.02,1.98,4.49,2.98-1.83.89-3.66,1.79-5.48,2.69Zm-4.82-3.11c-1.47-.93-2.96-1.86-4.48-2.79,1.76-.99,3.52-1.98,5.29-2.97,1.55.96,3.07,1.93,4.58,2.91-1.8.94-3.6,1.89-5.39,2.84Zm-.82.44c-1.13.6-2.26,1.2-3.38,1.79l-1.1.59c-.25.13-.51.27-.76.4-1.45-.89-2.9-1.77-4.36-2.65l1.05-.6c1.36-.77,2.72-1.54,4.09-2.31,1.5.91,2.99,1.83,4.47,2.76Zm-6.02,3.19c-1.71.91-3.42,1.81-5.15,2.72-1.4-.83-2.82-1.66-4.26-2.5,1.7-.96,3.4-1.91,5.07-2.86,1.46.87,2.9,1.75,4.34,2.63Zm-9.84-.02c-1.43-.83-2.89-1.65-4.36-2.48,1.69-1,3.36-2,4.99-2.97,1.49.86,2.97,1.72,4.45,2.6-1.65.93-3.34,1.88-5.08,2.86Zm-.74.42c-1.67.93-3.35,1.87-5.03,2.8-1.41-.78-2.83-1.57-4.26-2.35,1.66-.97,3.31-1.95,4.95-2.92,1.46.82,2.91,1.65,4.34,2.47Zm-9.71.22c-11.26-6.15-23.19-12.19-35.34-16.86-10-3.85-19.39-6.47-28.31-7.9,1.08-.68,2.18-1.34,3.29-1.97,22.9,2.28,45.46,12.66,65.32,23.81-1.66.98-3.31,1.96-4.96,2.93Zm-.73.43c-.08.05-.16.1-.24.14-1.53.89-3.07,1.79-4.63,2.68-13.05-6.89-26.5-13.63-40.51-18.79-7.63-2.81-14.88-4.93-21.83-6.37,1.09-.77,2.2-1.51,3.32-2.24,22.15,3.41,44.06,13.77,63.9,24.58Zm-5.6,3.24c-1.61.91-3.23,1.82-4.87,2.73-19.16-9.68-39.87-19.91-60.94-25.2,1.13-.88,2.27-1.73,3.43-2.56,21.48,4.35,42.63,14.62,62.38,25.04Zm-66.87-22.73c-1.43-.35-2.86-.67-4.3-.97,1.16-.79,2.31-1.55,3.47-2.28,1.39.22,2.79.45,4.18.72-1.12.81-2.24,1.66-3.35,2.53Zm-5.39-1.2c-1.37-.27-2.74-.52-4.11-.74,1.17-.69,2.33-1.36,3.5-1.99,1.32.14,2.64.31,3.96.5-1.12.71-2.23,1.46-3.35,2.23Zm-.77.54c-.47.33-.94.65-1.41.99-.66.48-1.3,1-1.95,1.49-1.48-.36-2.95-.69-4.4-.99,1.17-.78,2.35-1.52,3.52-2.24,1.41.22,2.83.47,4.24.75Zm-8.88,1.26c-1.4-.28-2.8-.54-4.17-.78,1.18-.68,2.35-1.33,3.53-1.94,1.35.15,2.71.31,4.06.51-1.14.71-2.27,1.44-3.41,2.2Zm-.77.54c-1.16.79-2.32,1.6-3.45,2.43-1.5-.37-2.97-.7-4.44-1.01.51-.33,1.02-.67,1.53-.99.68-.42,1.36-.81,2.05-1.21,1.44.23,2.87.49,4.31.78Zm-6.76-.22c-.74.46-1.47.95-2.2,1.42-1.45-.3-2.88-.56-4.3-.8,1.21-.67,2.42-1.3,3.62-1.91,1.37.16,2.75.35,4.12.56-.41.25-.83.48-1.24.74Zm-2.94,1.9c-1.22.8-2.43,1.62-3.63,2.46-1.54-.38-3.07-.73-4.57-1.05,1.24-.76,2.5-1.49,3.77-2.21,1.48.24,2.96.5,4.43.79Zm-9.29,1.18c-1.46-.3-2.91-.58-4.34-.83.64-.33,1.26-.68,1.91-1,.62-.31,1.25-.6,1.87-.91,1.41.16,2.83.35,4.24.57-1.24.71-2.47,1.42-3.68,2.17Zm.33.69c1.56.33,3.11.67,4.67,1.05-1.22.87-2.44,1.75-3.64,2.66-.73-.21-1.46-.41-2.2-.61-.89-.24-1.76-.46-2.64-.68,1.25-.83,2.52-1.63,3.8-2.42Zm1.36,4.43c1.66.47,3.32.97,4.98,1.48-1.19,1.01-2.37,2.03-3.53,3.06-1.72-.58-3.44-1.14-5.16-1.68,1.23-.97,2.46-1.92,3.71-2.86Zm5.88,1.76c1.71.54,3.41,1.09,5.12,1.67-1.14,1.07-2.28,2.15-3.4,3.24-1.76-.63-3.52-1.24-5.28-1.84,1.18-1.04,2.36-2.07,3.56-3.08Zm5.99,1.97c1.73.59,3.46,1.2,5.19,1.83-1.09,1.12-2.17,2.26-3.24,3.4-1.79-.67-3.57-1.33-5.36-1.98,1.13-1.1,2.27-2.18,3.42-3.25Zm.5-.47c1.14-1.06,2.3-2.1,3.46-3.13,1.66.53,3.32,1.08,4.98,1.64-1.11,1.09-2.2,2.19-3.29,3.3-1.72-.62-3.43-1.23-5.15-1.82Zm9.34-1.18c13.08,4.52,26.07,10.19,38.86,15.78l.3.13c5.82,2.54,11.41,4.97,16.92,7.26-1.55.74-3.11,1.46-4.69,2.18-8-3.03-16.08-6.4-24.58-9.95-9.89-4.14-19.97-8.37-30.13-12.08,1.1-1.12,2.2-2.22,3.32-3.31Zm56.57,23.38c1.3.54,2.6,1.06,3.89,1.59-1.56.69-3.13,1.36-4.71,2.02-.01,0-.02,0-.03-.01-1.26-.46-2.53-.95-3.8-1.43,1.54-.7,3.09-1.42,4.66-2.17Zm.76-.36c1.56-.75,3.14-1.53,4.73-2.33,1.32.59,2.64,1.18,3.94,1.75-1.57.73-3.14,1.46-4.74,2.17-1.31-.53-2.62-1.05-3.94-1.59Zm9.16-.37c1.28.56,2.56,1.11,3.84,1.66-1.57.68-3.16,1.34-4.76,2-.57-.22-1.15-.43-1.72-.66-.69-.27-1.38-.56-2.07-.84,1.56-.7,3.13-1.42,4.72-2.16Zm.79-.37c1.57-.74,3.16-1.52,4.77-2.31,1.31.62,2.61,1.23,3.9,1.84-1.58.72-3.19,1.44-4.8,2.14-1.29-.55-2.57-1.1-3.87-1.67Zm9.18-.24c1.12.52,2.24,1.04,3.36,1.55.16.07.31.14.47.21-1.57.66-3.15,1.3-4.75,1.94-1.18-.47-2.36-.93-3.55-1.43-.1-.04-.2-.09-.31-.13,1.58-.69,3.17-1.39,4.78-2.13Zm4.38,2.01c1.28.57,2.55,1.14,3.82,1.67-1.54.58-3.08,1.16-4.64,1.72-1.3-.47-2.6-.95-3.91-1.46,1.55-.62,3.12-1.26,4.72-1.93Zm.86-.36c1.59-.67,3.2-1.38,4.84-2.1.46.23.91.45,1.36.68.84.41,1.67.8,2.5,1.19-1.6.64-3.2,1.28-4.82,1.9-1.29-.53-2.59-1.1-3.89-1.67Zm9.27.05c1.27.6,2.54,1.18,3.81,1.74-1.58.56-3.16,1.12-4.75,1.66-1.27-.48-2.55-.99-3.82-1.52,1.56-.6,3.15-1.22,4.77-1.88Zm.85-.35c1.62-.66,3.26-1.33,4.94-2.04,1.29.68,2.58,1.33,3.86,1.97-1.63.62-3.27,1.22-4.93,1.82-1.29-.56-2.58-1.15-3.88-1.75Zm9.41.23c1.3.64,2.6,1.27,3.9,1.88-1.61.54-3.23,1.06-4.86,1.58-1.3-.53-2.61-1.08-3.92-1.64,1.64-.59,3.26-1.2,4.88-1.81Zm.9-.34c1.22-.47,2.44-.93,3.66-1.41l.06-.02c.43-.17.85-.34,1.28-.5,1.33.73,2.64,1.44,3.95,2.13l-.34.12c-1.54.53-3.09,1.06-4.65,1.58-1.32-.61-2.64-1.25-3.96-1.9Zm8.77.78l.51-.18c.09-.03.19-.06.28-.1,1.32.7,2.64,1.38,3.95,2.04-1.62.48-3.26.97-4.91,1.45-1.32-.58-2.65-1.18-3.98-1.8,1.43-.48,2.82-.96,4.16-1.42Zm1.72-.6c.44-.15.87-.3,1.31-.46,1.27-.45,2.54-.9,3.82-1.36,1.35.79,2.69,1.56,4.02,2.32-1.01.31-2.01.63-3.02.93-.7.21-1.41.43-2.12.63-1.33-.67-2.67-1.36-4.02-2.07Zm6.05-2.16c1.78-.65,3.54-1.29,5.27-1.93,1.37.88,2.73,1.75,4.09,2.6-1.75.56-3.51,1.12-5.27,1.68-1.35-.77-2.72-1.55-4.09-2.35Zm9.93,1.03c1.36.85,2.71,1.7,4.05,2.53-1.73.47-3.47.94-5.21,1.39-1.35-.74-2.71-1.5-4.07-2.26,1.75-.55,3.49-1.1,5.23-1.66Zm.94-.3c1.34-.43,2.68-.86,4-1.29.47-.15.95-.31,1.43-.46,1.38.96,2.74,1.9,4.1,2.84-.23.06-.46.12-.68.19l-.49.13c-1.4.38-2.82.77-4.24,1.16-1.36-.84-2.73-1.7-4.11-2.56Zm6.36-2.06c1.86-.6,3.73-1.21,5.6-1.8,1.4,1.06,2.78,2.12,4.14,3.16-1.87.5-3.73,1.01-5.59,1.52-1.43-.99-2.81-1.95-4.15-2.88Zm6.54-2.1c1.93-.61,3.88-1.22,5.83-1.81,1.41,1.17,2.8,2.33,4.17,3.49-1.95.5-3.89,1-5.82,1.52-1.37-1.06-2.77-2.12-4.18-3.19Zm-.5-.38c-1.39-1.06-2.8-2.13-4.23-3.21,1.93-.7,3.87-1.4,5.81-2.08.35.28.7.55,1.05.84,1.08.88,2.16,1.75,3.22,2.63-1.96.6-3.91,1.21-5.85,1.82Zm-4.7-3.56c-.09-.07-.18-.14-.27-.21-1.34-1.01-2.67-2-4-2.97,1.91-.78,3.83-1.55,5.76-2.31,1.44,1.11,2.89,2.24,4.34,3.4-1.95.69-3.89,1.38-5.83,2.09Zm-4.74-3.51c-1.46-1.07-2.9-2.1-4.34-3.12,1.89-.85,3.79-1.69,5.69-2.52,1.47,1.08,2.94,2.18,4.42,3.32-1.93.77-3.86,1.54-5.77,2.32Zm-4.78-3.43c-1.49-1.05-2.96-2.07-4.42-3.07,1.86-.91,3.73-1.81,5.61-2.7,1.5,1.05,3.01,2.13,4.52,3.24-1.91.83-3.81,1.68-5.7,2.53Zm-4.86-3.37c-1.52-1.03-3.02-2.02-4.52-3,1.82-.95,3.65-1.9,5.49-2.84,1.54,1.02,3.08,2.06,4.63,3.14-1.88.89-3.74,1.79-5.61,2.7Zm-4.94-3.27c-1.55-1-3.08-1.98-4.61-2.92,1.78-.99,3.57-1.98,5.36-2.96,1.57.98,3.15,1.99,4.73,3.03-1.84.94-3.67,1.89-5.49,2.85Zm-5.01-3.18c-1.59-.98-3.16-1.92-4.72-2.84,1.74-1.02,3.48-2.04,5.23-3.05,1.61.94,3.23,1.92,4.86,2.93-1.79.98-3.58,1.97-5.36,2.96Zm-.75.42c-1.77.99-3.53,1.98-5.29,2.97-1.51-.92-3.04-1.82-4.59-2.73,1.72-1.02,3.45-2.05,5.18-3.06,1.59.93,3.16,1.87,4.71,2.82Zm-6.1,3.42c-1.3.73-2.59,1.46-3.89,2.19-.41.23-.84.48-1.26.71-1.48-.88-2.97-1.75-4.47-2.61.15-.09.31-.18.46-.27,1.52-.91,3.04-1.82,4.57-2.72,1.54.89,3.07,1.79,4.59,2.7Zm-9.37-.33l-.65.39s0,0,0,0c-9.26-5.3-18.84-10.18-28.7-14.1-10.24-4.07-20.1-6.79-29.3-8.09-2.71-.38-5.39-.64-8.04-.79.95-.45,1.92-.88,2.9-1.3,23.46-.44,46.97,9.09,68.17,21.28-1.46.87-2.92,1.74-4.38,2.61Zm-1.38.83c-1.65.98-3.32,1.98-5,2.98-9.74-5.46-20.36-10.9-31.11-15.17-12.02-4.77-23.21-7.71-33.78-8.87,1.07-.59,2.15-1.15,3.24-1.7,22.88.9,45.48,10.64,66.65,22.76Zm-71.34-21.21c-1.11-.11-2.21-.19-3.3-.26,1.02-.47,2.05-.92,3.07-1.35,1.06-.02,2.13-.02,3.19,0-.99.51-1.98,1.05-2.97,1.61Zm-1.14.66c-1.04.61-2.07,1.24-3.11,1.91-1.24-.19-2.47-.35-3.7-.49,1.07-.58,2.15-1.13,3.23-1.65,1.19.05,2.38.14,3.58.24Zm-4.09,2.54c-1.07.7-2.14,1.44-3.21,2.2-1.36-.27-2.7-.51-4.04-.73,1.11-.68,2.22-1.33,3.34-1.95,1.3.13,2.61.3,3.91.48Zm-8.48,1.26c-1.27-.19-2.54-.36-3.79-.5,1.09-.57,2.18-1.12,3.27-1.64,1.22.06,2.44.15,3.66.25-1.05.6-2.1,1.23-3.15,1.88Zm-5.19-.65c-1.16-.12-2.3-.22-3.44-.29,1.04-.46,2.09-.89,3.13-1.31,1.11,0,2.21,0,3.32.04-1,.5-2.01,1.02-3.01,1.56Zm-1.09.59c-1.1.61-2.2,1.25-3.3,1.92-1.28-.2-2.57-.38-3.85-.53,1.14-.58,2.28-1.13,3.42-1.66,1.24.07,2.49.15,3.73.27Zm-8.57,1.23c-1.17-.12-2.35-.23-3.52-.31,1.1-.47,2.21-.91,3.31-1.33,1.13,0,2.26.02,3.39.06-1.06.51-2.12,1.03-3.18,1.59Zm-1.05.57c-1.12.6-2.24,1.23-3.36,1.89-1.32-.21-2.64-.4-3.94-.56,1.17-.57,2.34-1.12,3.5-1.64,1.27.07,2.53.18,3.8.3Zm-8.69,1.18c-1.21-.13-2.42-.24-3.61-.33,1.12-.46,2.24-.89,3.35-1.29,1.16,0,2.31.03,3.47.08-1.07.49-2.14,1.01-3.22,1.55Zm-1.12.56c-1.07.56-2.14,1.13-3.22,1.73-.07.04-.13.08-.2.12-1.36-.22-2.71-.41-4.04-.58,1.19-.56,2.38-1.09,3.57-1.6,1.3.08,2.59.19,3.89.32Zm-8.82,1.1c-1.25-.14-2.48-.26-3.71-.36,1.14-.44,2.28-.86,3.43-1.26,1.19.01,2.38.05,3.57.1-1.09.48-2.19.99-3.29,1.51Zm-1.07.52c-.27.13-.54.26-.81.39-.94.47-1.87.97-2.8,1.47-1.4-.23-2.79-.44-4.15-.62,1.25-.56,2.5-1.08,3.75-1.58,1.34.09,2.68.2,4.02.34Zm-3.29,2.53c1.5.25,3,.52,4.5.82-1.25.78-2.5,1.57-3.72,2.39-1.57-.39-3.12-.74-4.65-1.08,1.28-.73,2.57-1.44,3.87-2.14Zm1.09,3.92c1.63.41,3.26.84,4.9,1.29-1.23.94-2.45,1.88-3.67,2.85-1.69-.53-3.38-1.03-5.07-1.52,1.27-.89,2.55-1.77,3.84-2.62Zm1.57,4.87c1.74.54,3.47,1.11,5.2,1.69-1.18,1.05-2.35,2.11-3.51,3.18-1.8-.64-3.59-1.25-5.39-1.86,1.22-1.02,2.46-2.02,3.7-3.01Zm1.21,5.31c-1.17,1.08-2.34,2.17-3.49,3.27-1.87-.68-3.75-1.36-5.63-2.02,1.22-1.05,2.45-2.09,3.69-3.12,1.81.61,3.62,1.23,5.43,1.87Zm-3.11,4.01c1.92.7,3.84,1.42,5.76,2.13-1.11,1.15-2.21,2.29-3.31,3.44-1.98-.74-3.98-1.48-5.97-2.21,1.17-1.12,2.34-2.25,3.52-3.36Zm.46-.43c1.16-1.1,2.32-2.19,3.5-3.27,1.85.66,3.69,1.33,5.54,2.01-1.11,1.12-2.22,2.25-3.31,3.39-1.91-.71-3.81-1.42-5.73-2.12Zm3.98-3.71c1.17-1.07,2.35-2.14,3.53-3.2,1.78.6,3.55,1.22,5.33,1.85-1.13,1.11-2.25,2.22-3.37,3.34-1.83-.68-3.66-1.34-5.5-2Zm9.72-1.04c1.8.65,3.6,1.31,5.4,1.99-1.07,1.15-2.13,2.3-3.19,3.46-1.86-.71-3.72-1.41-5.59-2.1,1.12-1.13,2.25-2.24,3.38-3.35Zm6.24,2.31c7.25,2.73,14.47,5.64,21.62,8.53l.09.04c10.7,4.32,20.84,8.4,30.89,11.85-1.52.63-3.05,1.25-4.6,1.85-.35-.1-.69-.2-1.04-.31-12.32-3.76-24.7-8.59-37.8-13.71l-.04-.02c-4.08-1.59-8.19-3.2-12.32-4.77,1.06-1.16,2.12-2.32,3.2-3.46Zm21.84,7.98c-7.08-2.86-14.22-5.73-21.41-8.45,1.08-1.15,2.16-2.28,3.26-3.41,10.2,3.72,20.35,7.97,30.37,12.17,8.29,3.47,16.2,6.77,24.02,9.74-1.54.69-3.09,1.37-4.66,2.03-10.3-3.51-20.65-7.68-31.58-12.09Zm36.77,10.26c1.27.48,2.54.97,3.8,1.43-1.52.63-3.07,1.24-4.62,1.84-.91-.28-1.81-.57-2.72-.87-.36-.12-.72-.25-1.08-.37,1.53-.65,3.07-1.32,4.62-2.02Zm4.34,1.63s.02,0,.03.01c1.22.44,2.46.85,3.69,1.26-1.49.56-2.99,1.11-4.5,1.64-1.24-.34-2.49-.7-3.74-1.08,1.49-.58,3-1.2,4.52-1.83Zm.83-.35c1.54-.65,3.1-1.31,4.67-2.01.88.35,1.76.72,2.64,1.06.37.15.75.27,1.12.42-1.54.62-3.08,1.23-4.65,1.82-1.25-.41-2.51-.84-3.78-1.29Zm9.01-.32c1.23.47,2.47.93,3.71,1.36-1.5.55-3.02,1.08-4.54,1.6-1.25-.36-2.5-.74-3.76-1.14,1.51-.58,3.04-1.19,4.59-1.82Zm.83-.34c1.55-.64,3.12-1.3,4.7-1.99.29.12.57.25.86.37.97.41,1.95.8,2.93,1.19-1.55.61-3.11,1.21-4.69,1.79-1.26-.43-2.53-.88-3.8-1.36Zm9.09-.19c1.26.5,2.54.98,3.81,1.45-1.51.54-3.04,1.07-4.57,1.58-1.28-.39-2.57-.82-3.86-1.25,1.52-.57,3.06-1.15,4.62-1.77Zm4.47,1.69c1.22.44,2.45.86,3.69,1.27-1.48.46-2.98.91-4.48,1.34-1.23-.33-2.46-.69-3.69-1.06,1.47-.49,2.97-1.01,4.48-1.55Zm.98-.35c1.51-.54,3.04-1.12,4.59-1.71,1.25.52,2.5,1.03,3.74,1.51-1.51.51-3.03,1-4.55,1.48-1.26-.41-2.52-.83-3.78-1.28Zm9.06.07c1.25.48,2.5.94,3.74,1.39-1.47.43-2.94.84-4.42,1.24-1.26-.37-2.52-.75-3.79-1.16,1.5-.48,2.99-.97,4.48-1.47Zm1-.34c1.56-.54,3.12-1.08,4.67-1.64,1.28.56,2.56,1.1,3.83,1.63-1.54.48-3.09.96-4.65,1.41-1.28-.45-2.56-.92-3.85-1.4Zm9.21.29c1.29.52,2.57,1.03,3.84,1.52-1.48.4-2.98.79-4.49,1.17-1.29-.41-2.59-.84-3.89-1.29,1.55-.46,3.06-.93,4.54-1.4Zm1.03-.32c1.64-.52,3.23-1.04,4.78-1.56,1.3.61,2.6,1.2,3.9,1.77-1.56.45-3.14.89-4.74,1.32-1.31-.49-2.62-1.01-3.94-1.54Zm9.41.54c1.27.56,2.54,1.1,3.81,1.63-1.53.36-3.07.71-4.63,1.06-1.27-.45-2.54-.91-3.83-1.38,1.58-.43,3.12-.87,4.64-1.3Zm1.07-.31c1.54-.44,3.04-.89,4.51-1.33l.32-.1c1.31.66,2.6,1.29,3.9,1.92-1.59.39-3.19.78-4.82,1.17-1.3-.54-2.6-1.09-3.92-1.66Zm5.85-1.73l1.59-.48c1.15-.35,2.31-.72,3.46-1.08,1.34.76,2.67,1.5,4,2.23-.86.22-1.72.45-2.57.66l-2.49.62c-1.32-.63-2.65-1.28-3.98-1.95Zm5.37,2.19c.41-.1.82-.2,1.23-.31,1.05-.26,2.1-.54,3.16-.81,1.34.74,2.68,1.46,4.01,2.17-.75.15-1.51.31-2.26.46l-1.88.36c-.28.05-.56.11-.84.16-1.33-.61-2.67-1.24-4.02-1.89l.59-.15Zm5.46-1.4c1.73-.46,3.45-.92,5.15-1.38,1.37.85,2.73,1.68,4.08,2.51-1.71.37-3.42.73-5.12,1.08-1.36-.73-2.73-1.47-4.1-2.22Zm6.14-1.65c1.44-.39,2.86-.78,4.22-1.15.38-.1.76-.21,1.14-.31.64.44,1.3.9,1.93,1.34l.19.13c.67.46,1.33.92,2,1.38-.14.03-.28.06-.42.09l-.11.02c-1.58.35-3.19.7-4.8,1.04-1.38-.84-2.76-1.69-4.15-2.55Zm7.78-.74c-.49-.34-.96-.67-1.43-.99,1.84-.5,3.69-1.01,5.55-1.5,1.4,1.08,2.78,2.14,4.14,3.2-1.84.4-3.68.79-5.51,1.19-.92-.63-1.82-1.26-2.75-1.9Zm5.1-2.76c1.92-.51,3.85-1.01,5.78-1.5,1.4,1.19,2.78,2.38,4.14,3.56-1.92.38-3.83.78-5.74,1.18-1.38-1.07-2.78-2.16-4.19-3.24Zm10.48,2.54c1.37,1.2,2.73,2.4,4.07,3.6-1.88.27-3.76.54-5.62.83-1.36-1.08-2.74-2.17-4.14-3.26,1.89-.4,3.79-.79,5.7-1.17Zm6.43-1.8c-2,.35-3.98.73-5.96,1.12-1.37-1.2-2.77-2.4-4.18-3.61,1.99-.5,3.99-.99,6-1.45,1.39,1.3,2.77,2.61,4.14,3.94Zm-4.62-4.4c-2.03.47-4.04.96-6.04,1.47-1.38-1.17-2.78-2.35-4.21-3.53,2-.6,4-1.19,6.02-1.76,1.42,1.26,2.83,2.52,4.23,3.82Zm-6.79-6.12c.71.62,1.4,1.26,2.11,1.89-2.03.57-4.04,1.16-6.04,1.77-1.2-.99-2.41-1.98-3.64-2.98-.22-.18-.44-.34-.66-.52,2-.7,4.01-1.38,6.04-2.05.75.64,1.49,1.27,2.2,1.89Zm-2.64-2.26c-2.03.67-4.04,1.36-6.05,2.06-1.46-1.17-2.91-2.31-4.36-3.43,1.98-.78,3.97-1.54,5.96-2.29,1.55,1.24,3.03,2.47,4.45,3.66Zm-4.89-4.02c-2,.75-3.99,1.52-5.97,2.3-1.49-1.14-2.97-2.25-4.44-3.34,1.95-.85,3.9-1.68,5.86-2.5,1.57,1.19,3.09,2.37,4.55,3.54Zm-4.98-3.87c-1.97.82-3.92,1.66-5.87,2.51-1.52-1.12-3.04-2.2-4.54-3.26,1.91-.9,3.82-1.79,5.74-2.67,1.6,1.14,3.16,2.29,4.67,3.43Zm-5.1-3.73c-1.92.88-3.83,1.77-5.74,2.68-1.55-1.08-3.1-2.14-4.64-3.16,1.86-.95,3.72-1.88,5.59-2.81,1.64,1.09,3.23,2.19,4.79,3.3Zm-5.21-3.58c-1.87.93-3.73,1.86-5.59,2.81-1.59-1.05-3.17-2.07-4.75-3.06,1.8-.98,3.61-1.95,5.42-2.92,1.67,1.04,3.31,2.1,4.91,3.16Zm-5.33-3.42c-1.81.96-3.61,1.93-5.41,2.91-1.64-1.02-3.26-1.99-4.89-2.94,1.74-1,3.49-2,5.24-2.99,1.72.99,3.41,1.99,5.06,3.02Zm-5.47-3.25c-1.75.99-3.5,1.99-5.23,2.99-12.27-7.13-24.12-12.26-35.44-15.3l-.16-.04c-10.38-2.77-20.42-3.83-30.03-3.18,25.17-4.9,50.2,3.75,70.86,15.53Zm-77.15-14.02c21.56-3.28,45.35,2.57,71.11,17.47-1.75,1.01-3.49,2.03-5.22,3.05-8.35-4.86-16.34-8.81-24.08-11.88-4.79-1.91-9.59-3.51-14.26-4.77-5.3-1.42-10.53-2.43-15.53-2.98-4.6-.51-9.14-.63-13.59-.42.52-.16,1.04-.32,1.57-.47Zm-4.5,1.45c24.58-2.11,48.79,7.35,69.67,19.5-1.73,1.02-3.46,2.04-5.18,3.07-8.28-4.8-17.16-9.34-26.36-13-10.26-4.08-20.2-6.74-29.54-7.92-3.75-.47-7.45-.7-11.09-.71.82-.33,1.66-.64,2.5-.94Zm-6.07.92c.44-.13.89-.25,1.34-.38.48-.07.95-.13,1.43-.19-.5.2-1.01.41-1.51.62-.51.01-1.03.02-1.54.04.1-.03.19-.06.28-.09Zm-3.26,1.07c.87-.07,1.75-.14,2.62-.18-.82.38-1.65.77-2.47,1.18-.89-.03-1.78-.06-2.66-.06.83-.32,1.67-.65,2.51-.94Zm-4.63.49c.48-.07.97-.11,1.45-.17-.52.2-1.04.42-1.55.63-.55.01-1.09.03-1.64.05.58-.17,1.16-.36,1.74-.52Zm-4.5,1.4c.85-.06,1.7-.1,2.56-.14-.85.38-1.7.78-2.55,1.19-.92-.04-1.84-.06-2.76-.07.91-.35,1.83-.67,2.75-.98Zm-1.47,1.77c-.97.5-1.95,1.02-2.92,1.56-1.12-.11-2.24-.2-3.35-.27,1.01-.46,2.03-.9,3.05-1.31,1.07-.01,2.14,0,3.21.03Zm-3.37-1.24c.55-.07,1.09-.16,1.64-.23-.57.22-1.13.44-1.69.67-.6,0-1.19.04-1.78.06.61-.18,1.23-.34,1.84-.5Zm-4.76,1.41c.93-.06,1.86-.13,2.78-.16-.87.38-1.75.76-2.62,1.18-.94-.04-1.88-.07-2.81-.08.88-.32,1.76-.64,2.64-.94Zm-4.71.45c.53-.07,1.06-.11,1.59-.17-.56.21-1.13.43-1.69.65-.58,0-1.16,0-1.73.02.61-.17,1.21-.34,1.82-.5Zm-4.72,1.37c.9-.06,1.79-.09,2.69-.11-.88.37-1.75.77-2.63,1.17-.97-.05-1.93-.09-2.88-.1.94-.33,1.88-.65,2.82-.95Zm-4.98.48c.61-.08,1.23-.16,1.84-.22-.62.22-1.25.44-1.87.68-.62,0-1.23.02-1.84.03.62-.17,1.24-.33,1.87-.48Zm-4.77,1.32c.97-.06,1.93-.1,2.9-.13-.93.38-1.86.77-2.78,1.18-1.01-.06-2.01-.09-3.02-.12.97-.33,1.93-.64,2.9-.93Zm-4.86.42h.04c.54-.07,1.07-.11,1.61-.16-.61.21-1.22.44-1.84.66-.66,0-1.31,0-1.96.02.71-.18,1.43-.35,2.15-.52Zm-4.97,1.3c.98-.05,1.95-.09,2.93-.11-.96.37-1.92.76-2.88,1.16-1.02-.06-2.04-.1-3.04-.13,1-.32,1.99-.63,2.99-.92Zm-5.22.43c.66-.07,1.33-.14,1.99-.2-.64.21-1.28.43-1.92.65-.68,0-1.36,0-2.04.01.66-.16,1.31-.32,1.97-.46Zm-4.9,1.23c1.02-.05,2.03-.08,3.05-.09-.97.36-1.94.74-2.91,1.13-1.07-.07-2.12-.12-3.17-.15,1.01-.31,2.02-.6,3.03-.88Zm-7.45.84c.64-.15,1.29-.3,1.93-.43.76-.07,1.51-.15,2.27-.2-.67.2-1.33.41-2,.63-.74,0-1.47,0-2.2,0Zm-1.08,1.88c1.19-.43,2.38-.84,3.56-1.23,1.24.02,2.49.05,3.73.11-.87.37-1.75.73-2.63,1.13-.28.12-.55.26-.83.39-1.29-.15-2.57-.29-3.83-.4Zm.23,2.89c1.29-.63,2.6-1.24,3.91-1.84,1.44.17,2.88.37,4.33.6-1.26.68-2.51,1.39-3.75,2.11-1.52-.32-3.02-.61-4.49-.87Zm.87,3.91c1.3-.8,2.61-1.59,3.93-2.36,1.59.34,3.17.7,4.76,1.09-1.27.85-2.53,1.71-3.77,2.6-1.64-.46-3.28-.9-4.92-1.32Zm5.24,2.03c1.71.49,3.41,1,5.12,1.52-1.24.99-2.46,1.99-3.68,3-1.77-.59-3.54-1.17-5.31-1.72,1.28-.95,2.57-1.88,3.86-2.8Zm-8.29,6.16c1.28-.99,2.56-1.96,3.86-2.93,1.78.56,3.57,1.14,5.35,1.73-1.23,1.03-2.45,2.06-3.66,3.11-1.85-.65-3.69-1.29-5.54-1.91Zm2.17,5.87c1.23-1.08,2.48-2.16,3.73-3.24,1.89.67,3.78,1.34,5.66,2.03-1.18,1.12-2.35,2.24-3.51,3.36-1.96-.72-3.92-1.44-5.88-2.15Zm6.29,2.86c2.01.74,4.01,1.48,6,2.22-.89.93-1.77,1.86-2.66,2.79-.19.2-.38.4-.57.6-2.08-.75-4.16-1.51-6.23-2.27,1.15-1.11,2.3-2.23,3.46-3.35Zm-7.29,7.06c1.15-1.11,2.29-2.22,3.43-3.32,2.08.76,4.16,1.52,6.26,2.28-1.05,1.11-2.11,2.21-3.17,3.32-2.18-.75-4.35-1.51-6.52-2.28Zm7.89,11.58c-2.44-.64-4.88-1.31-7.31-2.01,1-1.01,2-2.02,2.98-3.03,2.32.74,4.64,1.46,6.96,2.15-.87.97-1.75,1.93-2.63,2.89Zm2.98-3.28c-2.32-.69-4.63-1.41-6.94-2.14,1.03-1.06,2.05-2.12,3.07-3.19,2.21.76,4.43,1.5,6.64,2.23-.92,1.04-1.84,2.07-2.77,3.1Zm3.13-3.51c-2.21-.72-4.42-1.46-6.62-2.22,1.06-1.11,2.11-2.21,3.16-3.32,2.11.76,4.23,1.52,6.35,2.27-.96,1.09-1.92,2.18-2.89,3.27Zm4.37-4.96c-.38.43-.75.86-1.13,1.28-2.11-.74-4.22-1.5-6.33-2.26.09-.1.19-.2.28-.3l.08-.09c.95-1,1.9-2,2.85-3,2.02.75,4.05,1.5,6.09,2.26-.62.7-1.24,1.4-1.85,2.1Zm2.22-2.52c-2.03-.75-4.05-1.5-6.07-2.25,1.1-1.15,2.2-2.29,3.31-3.44,1.95.73,3.9,1.47,5.85,2.2-1.03,1.16-2.06,2.32-3.09,3.49Zm3.49-3.94c-1.94-.73-3.88-1.46-5.82-2.19,1.1-1.13,2.21-2.26,3.32-3.39,1.88.7,3.75,1.4,5.62,2.11-1.05,1.15-2.09,2.31-3.12,3.47Zm47.56,16.51c-.36-.09-.72-.19-1.08-.29l-.07-.02c-13.99-3.9-28.65-9.46-42.82-14.84h-.04c-.9-.36-1.81-.7-2.71-1.04,1.03-1.16,2.07-2.32,3.12-3.47,4.2,1.6,8.39,3.24,12.55,4.86,13.12,5.12,25.51,9.96,37.86,13.73.11.03.23.07.34.1-1.47.57-2.96,1.12-4.46,1.66-.89-.22-1.79-.44-2.68-.69Zm7.2,1.71c-1.25-.26-2.51-.54-3.77-.84,1.45-.53,2.9-1.08,4.37-1.65,1.23.36,2.46.71,3.69,1.04-1.42.5-2.85.98-4.29,1.45Zm1.47-2.84c1.49-.59,3-1.21,4.51-1.85.57.19,1.14.39,1.71.58.69.23,1.38.43,2.07.64-1.49.57-2.99,1.13-4.5,1.67-1.26-.33-2.52-.68-3.79-1.05Zm4.48,1.23c1.47-.53,2.94-1.08,4.43-1.66,1.21.38,2.42.74,3.63,1.08-1.45.5-2.91.98-4.38,1.45-1.22-.27-2.45-.56-3.69-.88Zm8.16,1.8c-1.19-.23-2.39-.47-3.6-.74,1.41-.46,2.83-.94,4.26-1.44,1.17.32,2.35.65,3.53.94-1.39.42-2.78.84-4.19,1.23Zm1.61-2.51c1.46-.52,2.93-1.05,4.42-1.62,1.22.4,2.45.77,3.68,1.13-1.46.49-2.92.96-4.4,1.42-1.23-.29-2.46-.6-3.7-.94Zm8.4,1.96c-1.26-.25-2.52-.53-3.78-.82,1.4-.45,2.81-.92,4.24-1.4,1.24.36,2.49.7,3.74,1.02-1.39.41-2.79.81-4.19,1.2Zm1.43-2.56c1.47-.51,2.95-1.04,4.45-1.59,1.25.43,2.49.85,3.75,1.24-1.45.47-2.91.94-4.37,1.38-1.27-.32-2.55-.67-3.83-1.03Zm4.67,1.24c1.41-.44,2.84-.89,4.29-1.37,1.18.36,2.37.72,3.57,1.05-1.41.4-2.82.78-4.24,1.16-1.2-.26-2.41-.54-3.61-.84Zm8.24,1.77c-1.18-.22-2.36-.45-3.55-.7,1.37-.36,2.73-.74,4.08-1.13,1.17.32,2.35.62,3.53.91-1.35.32-2.7.63-4.06.92Zm1.66-2.16c1.46-.43,2.91-.87,4.36-1.33,1.21.4,2.43.77,3.66,1.14-1.44.38-2.89.75-4.34,1.11-1.22-.29-2.45-.6-3.68-.93Zm8.49,2c-1.24-.25-2.48-.52-3.74-.81,1.41-.35,2.81-.72,4.18-1.09,1.22.36,2.45.7,3.69,1.03-1.37.3-2.75.59-4.13.87Zm1.67-2.24c1.46-.4,2.9-.82,4.32-1.23,1.26.44,2.52.87,3.77,1.28-1.4.35-2.82.68-4.24,1-1.28-.33-2.56-.68-3.85-1.05Zm8.49,2.19c-1.19-.27-2.39-.56-3.6-.87,1.39-.32,2.76-.65,4.11-.99,1.18.38,2.36.75,3.53,1.09-1.34.26-2.69.52-4.05.76Zm1.76-2.17c1.48-.38,2.94-.76,4.38-1.15,1.24.47,2.47.92,3.69,1.36-1.44.31-2.89.62-4.35.91-1.24-.36-2.48-.73-3.73-1.12Zm8.62,2.47c-1.24-.33-2.49-.66-3.75-1.02,1.42-.29,2.81-.59,4.2-.89,1.23.43,2.46.85,3.68,1.26-1.37.23-2.75.45-4.13.66Zm5.58-.9c-1.28-.42-2.56-.85-3.85-1.29,1.53-.34,3.03-.69,4.51-1.04,1.28.53,2.55,1.04,3.81,1.55-1.48.27-2.97.53-4.47.79Zm1.84-2.61c1.61-.38,3.18-.77,4.72-1.15,1.31.63,2.61,1.25,3.9,1.85-1.55.3-3.11.6-4.68.89-1.31-.51-2.62-1.04-3.94-1.58Zm8.82,3.44c-1.28-.48-2.57-.96-3.87-1.47,1.54-.29,3.06-.58,4.57-.87,1.29.59,2.57,1.17,3.84,1.74-1.5.2-3.02.4-4.53.59Zm8.75-1.17c-.47.07-.94.13-1.41.19-.41.05-.82.11-1.22.16-.08.01-.15.02-.23.03-1.32-.59-2.65-1.19-3.98-1.79l1.92-.37c.98-.19,1.97-.39,2.95-.6,1.33.71,2.64,1.4,3.96,2.09-.67.1-1.33.19-2,.28Zm3.27-.47c-1.35-.7-2.71-1.42-4.07-2.15,1.68-.35,3.36-.71,5.04-1.07,1.35.83,2.7,1.65,4.04,2.46-1.67.26-3.34.51-5,.76Zm11.18-1.73l-.5.08c-1.49.24-3.01.48-4.52.71-1.37-.83-2.74-1.66-4.13-2.51,1.18-.26,2.36-.51,3.52-.77l.79-.17c.32-.07.63-.14.95-.21,1.37.95,2.73,1.89,4.08,2.83-.06.01-.13.02-.19.03Zm-2.85-3.09c1.81-.4,3.63-.79,5.46-1.18,1.38,1.08,2.74,2.15,4.09,3.21-1.81.28-3.6.56-5.4.85-1.38-.96-2.76-1.92-4.15-2.88Zm8.99,6.27c-1.37-.96-2.75-1.93-4.14-2.9,1.77-.28,3.54-.56,5.33-.84,1.37,1.09,2.72,2.17,4.05,3.25-1.75.16-3.5.32-5.24.49Zm6.39-.59c-1.35-1.1-2.73-2.2-4.12-3.31,1.84-.28,3.7-.55,5.56-.81,1.35,1.22,2.69,2.44,4,3.67-1.82.14-3.64.29-5.44.46Zm6.55-.54c-1.33-1.24-2.68-2.48-4.05-3.73,1.91-.26,3.83-.51,5.77-.73,1.32,1.35,2.62,2.71,3.91,4.09-1.89.11-3.76.23-5.62.37Z"/>
    </g>
    <g class="cls-6">
      <path class="cls-4" d="m257.77,300.11c1.04,0,2.09,0,3.13,0-.75-.15-1.5-.29-2.25-.44-15.57-3.17-29.64-3.43-43.01-2.71-1.3-1.39-2.61-2.78-3.94-4.15,13.94-1.59,28.6-2.09,44.8.64,14.5,2.45,29.26,4.3,43.71,6.02v-.59c-14.45-1.73-29.21-3.58-43.61-6.01-16.44-2.77-31.3-2.22-45.42-.59-1.33-1.36-2.66-2.73-4.02-4.06,14.73-2.53,30.22-3.88,47.32-1.57,8.08,1.09,16.57,2.17,24.06,3.11h.08c7.17.92,14.39,1.84,21.6,2.81v-.58c-7.21-.96-14.43-1.89-21.6-2.79l-.75-.09c-7.66-.97-15.58-1.97-23.31-3.02-17.34-2.34-33.01-.94-47.91,1.65-1.38-1.35-2.78-2.66-4.18-3.98,15.56-3.52,31.91-5.77,49.97-3.92,15.39,1.58,31.61,3.45,47.78,5.91v-.6c-13.67-2.06-29.01-3.95-47.71-5.87-18.29-1.88-34.81.42-50.53,4.01-1.4-1.31-2.82-2.59-4.25-3.86,16.41-4.56,33.64-7.75,52.68-6.38,17.49,1.25,34.15,3.26,49.81,5.97v-.53c-15.65-2.7-32.31-4.71-49.78-5.95-19.24-1.37-36.63,1.87-53.17,6.49-.84-.75-1.67-1.52-2.52-2.26-.6-.52-1.21-1.04-1.82-1.55,17.27-5.63,35.41-9.8,55.45-8.98,17.69.73,35.12,2.83,51.83,6.13v-.53c-16.78-3.3-34.14-5.37-51.8-6.1-20.22-.84-38.51,3.41-55.92,9.1-1.48-1.26-2.97-2.49-4.46-3.7,17.76-6.59,36.38-11.72,56.88-11.72.48,0,.96,0,1.43,0,18.14.21,36.29,2.4,53.87,6.35v-.51c-17.72-3.98-35.79-6.13-53.86-6.34-.48,0-.96,0-1.44,0-20.68,0-39.44,5.2-57.33,11.86-1.51-1.22-3.03-2.41-4.55-3.58,19.12-7.9,39.16-14.22,61.29-14.6,1.12-.02,2.23-.03,3.35-.03,17.54,0,35.25,2.32,52.55,6.76v-.54c-18.49-4.73-37.28-6.99-55.9-6.66-22.3.38-42.47,6.76-61.71,14.73-1.56-1.19-3.12-2.33-4.68-3.46,20.09-9.11,41.14-16.58,64.36-17.62,21.15-.94,40.57,2.04,57.94,7.12v-.42c-1.19-.35-2.37-.69-3.54-1.01h0s-.28-.08-.28-.08c-17.95-4.83-36.16-6.87-54.14-6.06-23.4,1.05-44.57,8.59-64.77,17.77-1.59-1.14-3.19-2.26-4.78-3.33,21.1-10.37,43.19-19.05,67.53-20.8,21.88-1.57,42.03,1.82,59.97,7.78v-.44c-3.01-1-6.03-1.94-9.06-2.75l-.05-.02c-16.86-4.53-33.99-6.21-50.9-5-24.5,1.75-46.71,10.51-67.92,20.95-.79-.53-1.57-1.06-2.36-1.57-.85-.56-1.71-1.09-2.56-1.62,22.16-11.69,45.33-21.64,70.83-24.13,20.63-2.01,41.5.95,62.01,8.61v-.52c-4.49-1.68-9.03-3.15-13.53-4.36h0c-16.1-4.33-32.42-5.73-48.52-4.14-25.66,2.51-48.94,12.54-71.19,24.29-1.69-1.06-3.38-2.07-5.06-3.05,23.26-13.06,47.55-24.34,74.26-27.64,21.58-2.66,42.99.52,64.05,9.4v-.41c-.08-.03-.16-.07-.24-.1-5.69-2.38-11.47-4.37-17.19-5.9l-.06-.03c-15.44-4.15-31.12-5.28-46.62-3.37-26.86,3.32-51.26,14.68-74.62,27.81-6.69-3.86-13.32-7.11-19.81-9.67-4.31-1.71-8.64-3.15-12.86-4.28l-.12-.03c-16.11-4.31-31.47-4.4-45.68-.27-3.12.48-6.19,1.16-9.21,2.02-2.99.45-5.94,1.05-8.83,1.84-.11.03-.22.07-.32.1-2.48.35-4.92.82-7.32,1.41-.7.17-1.4.37-2.09.56-1.87.26-3.73.56-5.55.95-1.27.27-2.53.57-3.79.9-1.29.17-2.57.36-3.84.59-1.96.35-3.9.78-5.83,1.26-.61.08-1.22.15-1.82.24-2.67.4-5.31.92-7.93,1.54-3.42.41-6.81.99-10.18,1.75-3.46.38-6.9.92-10.34,1.64-1.98.19-3.96.45-5.94.75v1.4c.43-.12.85-.24,1.28-.35.86-.03,1.71-.06,2.57-.07.24,0,.47,0,.7,0-1.02.35-2.04.73-3.06,1.11-.5-.03-.99-.06-1.49-.08v.62s.04,0,.07,0c-.02,0-.04.02-.07.03v.77c.2-.08.4-.17.6-.24.4-.16.79-.29,1.19-.44,1.38.1,2.76.23,4.14.38-1.25.58-2.49,1.17-3.72,1.78-.75-.13-1.48-.23-2.22-.33v.62c.43.06.86.12,1.3.19-.44.22-.87.45-1.3.68v.82c.83-.44,1.66-.87,2.51-1.29,1.53.26,3.07.55,4.61.87-1.3.76-2.58,1.54-3.85,2.34-1.09-.27-2.17-.52-3.26-.77v.61c.85.19,1.7.38,2.56.59-.86.54-1.71,1.1-2.56,1.65v.89c1.19-.78,2.38-1.54,3.58-2.3,1.67.42,3.34.86,5.01,1.33-1.28.92-2.56,1.84-3.82,2.79-1.59-.5-3.18-.98-4.77-1.44v.61c1.4.41,2.8.82,4.21,1.26-1.29.97-2.57,1.94-3.83,2.92-.12-.04-.25-.08-.37-.12v1.38c.23-.18.47-.37.7-.55,1.86.63,3.72,1.26,5.58,1.92-1.25,1.08-2.48,2.15-3.72,3.24-.86-.31-1.71-.61-2.57-.92v.55c.71.25,1.42.5,2.12.76-.71.63-1.42,1.25-2.12,1.88v1.04c.98-.87,1.97-1.74,2.96-2.61,1.97.72,3.95,1.44,5.91,2.16-1.16,1.12-2.31,2.24-3.46,3.35-1.19-.43-2.37-.87-3.56-1.3l-.05-.02c-.6-.22-1.2-.44-1.81-.66v.54c.56.2,1.11.41,1.67.61,1.11.41,2.22.81,3.34,1.22-1.14,1.11-2.29,2.22-3.44,3.33-.52-.19-1.05-.38-1.57-.56v.53c.39.14.78.28,1.17.42-.39.37-.78.75-1.17,1.12v1.1c.67-.64,1.34-1.28,2.01-1.92,2.18.77,4.36,1.54,6.54,2.29-1.02,1.07-2.05,2.14-3.09,3.21-1.82-.58-3.64-1.19-5.46-1.8v.49c1.7.57,3.39,1.14,5.09,1.68-1,1.02-2,2.04-3,3.05-.7-.2-1.39-.42-2.09-.63v.47c.58.18,1.15.36,1.73.53-.57.57-1.15,1.14-1.73,1.71v1.14c.88-.86,1.75-1.72,2.62-2.59,2.44.7,4.88,1.38,7.33,2.02-.32.35-.65.7-.97,1.04h1.14c.25-.27.5-.53.74-.8,1.08.28,2.17.54,3.25.8h1.89c-1.6-.38-3.2-.77-4.8-1.18.87-.95,1.74-1.91,2.6-2.87,5.06,1.49,10.13,2.85,15.2,4.04h2.07c-5.64-1.28-11.28-2.77-16.92-4.43.92-1.02,1.83-2.05,2.74-3.08,8.88,2.9,17.78,5.49,26.61,7.51h2.28c-9.46-2.06-19-4.81-28.54-7.92.96-1.09,1.92-2.17,2.87-3.26,12.15,4.26,24.39,8.19,36.4,10.92.39.09.79.16,1.18.25h2.47c-1.17-.23-2.35-.46-3.53-.73-11.91-2.71-24.08-6.61-36.15-10.85.3-.34.6-.69.9-1.03.69-.78,1.37-1.56,2.06-2.35,13.68,5.05,27.63,9.99,41.16,13.41,1.9.48,3.8.91,5.7,1.31-.26.08-.52.16-.78.24h1.46c.07-.02.13-.04.2-.07.12.02.24.04.35.07h2.94c-.75-.13-1.51-.25-2.26-.4,1.42-.47,2.84-.97,4.28-1.49,1.21.3,2.42.58,3.64.85-1.13.36-2.27.7-3.41,1.04h1.44c.92-.29,1.84-.57,2.77-.87,1.14.24,2.29.47,3.44.68-.23.06-.47.12-.7.19h1.73s.01,0,.02,0c0,0,.02,0,.03,0h3.72c-.82-.12-1.65-.24-2.47-.37,1.31-.39,2.63-.8,3.96-1.22,1.14.26,2.28.5,3.43.73-1.1.3-2.2.58-3.31.86h1.96c.81-.21,1.62-.43,2.44-.66,1.15.22,2.31.42,3.48.61-.07.02-.15.03-.22.05h4.52c-.57-.07-1.14-.14-1.72-.22,1.25-.31,2.51-.64,3.78-.98,1.1.22,2.2.41,3.31.61-.94.21-1.88.4-2.83.6h2.38c.56-.12,1.13-.24,1.69-.37.81.14,1.63.25,2.45.37h4.42c-.1-.01-.2-.02-.3-.03,1.13-.22,2.25-.46,3.36-.7,1.06.2,2.12.4,3.19.58-.34.06-.68.1-1.02.16h6.49c-.67-.08-1.35-.16-2.03-.26,1.14-.21,2.27-.42,3.4-.65,1.01.21,2.03.39,3.05.58-.8.11-1.61.22-2.42.32h3.96s.07-.01.11-.02c.03,0,.07.01.1.02h3.72c-.65-.1-1.29-.19-1.94-.3,1.2-.19,2.38-.4,3.56-.61,1.07.25,2.14.49,3.22.72-.57.07-1.15.13-1.72.19h6.07c-.21-.04-.41-.07-.62-.11,1.15-.16,2.3-.32,3.44-.49.79.21,1.58.41,2.36.6h2.83c-1.16-.27-2.33-.56-3.5-.86,1.32-.2,2.62-.42,3.92-.64,1.16.38,2.31.74,3.46,1.1-1.28.14-2.57.27-3.86.39h7.52c-.17-.05-.34-.1-.51-.15,1.36-.16,2.7-.32,4.03-.49.59.22,1.17.43,1.75.64h2.09c-.77-.28-1.54-.55-2.32-.83,1.48-.19,2.93-.39,4.35-.58,1.08.48,2.15.95,3.23,1.41h1.83c-1.22-.53-2.45-1.06-3.68-1.6l1.04-.14c.29-.04.58-.08.86-.12.94-.13,1.87-.27,2.81-.4,1.31.69,2.62,1.36,3.92,2.03-.59.05-1.19.1-1.78.14-.29.02-.59.04-.88.06l-.33.02h7.51c.88-.08,1.76-.15,2.62-.23.07.04.14.08.2.12l.17.1s.01,0,.02,0h1.46c-.19-.12-.38-.23-.58-.35,1.46-.14,2.89-.27,4.26-.4.23-.02.45-.04.68-.06.39.27.77.54,1.16.82h1.35c-.44-.31-.87-.62-1.31-.93,1.71-.16,3.43-.32,5.15-.48.58.47,1.15.94,1.72,1.41h1.27c-.61-.5-1.21-1.01-1.84-1.51,1.78-.16,3.57-.31,5.36-.44.7.65,1.38,1.3,2.07,1.96h1.19c-.71-.68-1.42-1.36-2.14-2.04,1.84-.14,3.69-.25,5.56-.36.74.79,1.47,1.6,2.21,2.4h.74c.14,0,.27.01.41.02-.75-.83-1.5-1.66-2.26-2.48,12.96-.67,26.59-.39,41.6,2.58Zm-47.66-7.72c-1.95.23-3.88.49-5.81.75-1.35-1.22-2.71-2.44-4.11-3.66,1.96-.38,3.94-.75,5.93-1.1,1.35,1.32,2.66,2.66,3.98,4.01Zm-45.35-12.5l-.24.1c-1.09.45-2.19.91-3.3,1.37-1.37-.9-2.75-1.79-4.14-2.69.92-.42,1.85-.84,2.76-1.25.88-.4,1.76-.8,2.64-1.21,1.42.96,2.83,1.92,4.22,2.88-.64.27-1.29.54-1.93.8Zm2.41-.47c.92.64,1.83,1.27,2.74,1.91.48.33.94.66,1.42.99-.48.18-.96.36-1.44.54l-.04.02c-1.32.49-2.66.99-4.01,1.49-1.2-.77-2.4-1.55-3.61-2.34-.17-.11-.34-.22-.51-.33.86-.36,1.72-.71,2.57-1.07l.66-.28c.74-.31,1.48-.62,2.22-.92Zm-47.25,2.98c1.61-.83,3.25-1.7,4.9-2.58,1.36.72,2.71,1.45,4.05,2.17-1.63.81-3.29,1.63-4.96,2.43-1.35-.68-2.67-1.34-4-2.01Zm3.23,2.39c-1.61.77-3.23,1.53-4.88,2.29-1.3-.61-2.62-1.22-3.94-1.85,1.6-.79,3.21-1.6,4.84-2.44,1.32.67,2.63,1.33,3.97,2Zm6.2-2.55c.12.06.24.13.36.19,1.24.66,2.44,1.3,3.62,1.94-1.64.76-3.3,1.51-4.98,2.26-1.32-.65-2.63-1.31-3.94-1.96,1.62-.78,3.27-1.59,4.93-2.42Zm.77-.39c.62-.31,1.24-.62,1.87-.94,1.03-.52,2.08-1.06,3.13-1.6,1.37.77,2.73,1.54,4.07,2.31-.77.36-1.54.73-2.28,1.08-.92.43-1.84.86-2.77,1.29-1.32-.7-2.65-1.41-4.02-2.15Zm6.98,1.26c.84-.39,1.71-.81,2.57-1.22.97.55,1.94,1.1,2.9,1.65l.85.48c.08.05.17.09.25.14-.55.24-1.1.48-1.63.71-1.14.49-2.29.99-3.44,1.47-.24-.13-.49-.25-.73-.38-1.07-.57-2.15-1.14-3.23-1.72.82-.38,1.63-.76,2.46-1.15Zm5.83-.2c-.81-.46-1.63-.93-2.46-1.4,1.71-.82,3.42-1.65,5.13-2.48,1.38.83,2.75,1.66,4.09,2.48-1.48.66-2.96,1.32-4.43,1.97-.26.11-.5.22-.76.33l-1.57-.9Zm3.47-4.27c1.77-.87,3.52-1.73,5.21-2.56,1.41.89,2.81,1.78,4.2,2.67-1.72.78-3.49,1.59-5.28,2.39-1.34-.81-2.71-1.65-4.12-2.5Zm-.95,5.27c1.57-.69,3.15-1.4,4.72-2.11,1.2.73,2.39,1.46,3.56,2.17.16.1.31.18.47.28-1.31.53-2.62,1.06-3.92,1.58-.43.17-.86.34-1.29.51-.99-.55-1.99-1.1-2.99-1.67l-.98-.56c.15-.06.29-.12.44-.19Zm8.68-.58c-1.01-.62-2.06-1.26-3.12-1.9,1.77-.79,3.51-1.58,5.27-2.38,1.38.89,2.75,1.78,4.11,2.66-1.77.73-3.54,1.46-5.32,2.18-.31-.19-.62-.37-.94-.56Zm5.5-6.33c-.97.44-1.98.91-3,1.37-1.4-.9-2.8-1.8-4.22-2.69.75-.37,1.5-.74,2.22-1.1,1.04-.51,2.07-1.03,3.11-1.54,1.45.95,2.88,1.9,4.3,2.86-.8.37-1.6.73-2.4,1.1Zm-5.23-2.81c-.79.39-1.62.8-2.45,1.21-1.42-.9-2.85-1.79-4.29-2.67.55-.29,1.1-.59,1.64-.87,1.2-.64,2.4-1.27,3.6-1.91,1.48.93,2.94,1.87,4.39,2.81-.96.48-1.93.95-2.89,1.43Zm-3.24,1.6c-1.7.84-3.45,1.7-5.22,2.57-1.36-.82-2.77-1.66-4.19-2.5,1.73-.91,3.45-1.82,5.14-2.72,1.43.88,2.85,1.76,4.27,2.65Zm-6.02,2.96c-1.63.8-3.27,1.59-4.9,2.37-.08.04-.16.08-.24.12-1.35-.77-2.72-1.54-4.1-2.32,1.69-.87,3.38-1.76,5.08-2.65,1.4.83,2.8,1.66,4.17,2.49Zm-9.7-.09c-1.38-.78-2.77-1.56-4.17-2.34,1.67-.92,3.35-1.86,5.02-2.8,1.43.83,2.84,1.66,4.24,2.48-1.7.89-3.4,1.79-5.09,2.66Zm-.77.4c-.87.45-1.82.93-2.88,1.47-.71.36-1.42.72-2.13,1.07-1.35-.72-2.71-1.45-4.08-2.18.43-.23.86-.46,1.3-.69,1.15-.62,2.33-1.27,3.52-1.93.04-.02.08-.04.12-.07,1.4.78,2.77,1.55,4.15,2.32Zm-7.99-.7c-.51.28-1.02.55-1.54.83-1.38-.74-2.77-1.48-4.16-2.21,1.46-.83,2.93-1.68,4.41-2.55.15-.09.3-.18.46-.27,1.42.78,2.84,1.56,4.24,2.34-1.13.63-2.28,1.26-3.41,1.87Zm-2.29,1.23c-1.62.87-3.26,1.73-4.91,2.59-.67-.34-1.35-.68-2.01-1.01-.69-.35-1.39-.7-2.09-1.05,1.6-.88,3.22-1.79,4.86-2.72,1.39.73,2.77,1.47,4.15,2.2Zm-7.23,2.18c.52.26,1.05.53,1.57.79-1.6.83-3.22,1.64-4.85,2.46-1.33-.63-2.67-1.27-4.03-1.92,1.58-.84,3.19-1.71,4.81-2.59.84.42,1.67.84,2.5,1.26Zm-7.75,1.12c-1.41-.67-2.84-1.36-4.29-2.05l-.03-.02c-14.82-7.1-30.13-14.45-45.87-19.88-3.17-1.1-6.26-2.07-9.3-2.95,1.12-.94,2.25-1.87,3.4-2.77,21.03,5.2,41.74,15.4,60.91,25.07-1.59.87-3.2,1.74-4.82,2.6Zm-.73.39c-1.58.83-3.17,1.65-4.78,2.46-3.59-1.61-7.24-3.27-11-4.99l-.13-.06c-14.17-6.47-28.82-13.16-43.72-18.19-1.04-.35-2.07-.69-3.09-1.02,1.1-1,2.22-1.99,3.35-2.95,19.19,5.49,38.06,14.53,55.54,22.91,1.3.62,2.57,1.23,3.84,1.84Zm-59.73-25.57c-1.52-.43-3.02-.82-4.51-1.2.48-.36.94-.74,1.42-1.09.68-.5,1.36-.96,2.04-1.43,1.46.3,2.92.63,4.38.98-1.11.88-2.22,1.8-3.33,2.74Zm-.63.54c-.25.21-.49.42-.74.63-.86.75-1.71,1.53-2.55,2.31-1.6-.5-3.18-.98-4.74-1.43,1.14-.93,2.29-1.83,3.45-2.72,1.53.38,3.05.78,4.58,1.21Zm-8.98,1.24c-1.56-.44-3.1-.85-4.63-1.23,1.16-.84,2.33-1.67,3.51-2.47,1.5.31,3,.65,4.5,1.01-1.14.88-2.27,1.78-3.38,2.7Zm-.57.48c-1.17.97-2.32,1.96-3.47,2.96-1.64-.51-3.25-1-4.85-1.45,1.19-.93,2.38-1.85,3.6-2.75,1.57.39,3.14.8,4.72,1.24Zm-9.27,1.24c-1.58-.44-3.14-.86-4.69-1.25,1.22-.85,2.46-1.68,3.71-2.48,1.51.31,3.02.65,4.53,1.01-1.2.89-2.39,1.8-3.56,2.72Zm-.59.47c-1.19.95-2.37,1.92-3.54,2.9-1.64-.51-3.28-1.01-4.92-1.48,1.22-.91,2.45-1.8,3.7-2.67,1.59.39,3.17.81,4.76,1.25Zm.94.27c1.64.47,3.28.96,4.92,1.47-1.15,1.02-2.3,2.06-3.43,3.11-1.69-.57-3.37-1.13-5.06-1.66,1.18-.99,2.37-1.96,3.57-2.92Zm5.83,1.75c1.66.53,3.32,1.08,4.98,1.64-1.11,1.09-2.2,2.19-3.29,3.3-1.72-.62-3.43-1.23-5.15-1.82,1.14-1.06,2.3-2.1,3.46-3.13Zm3.22.4c-.9-.3-1.8-.59-2.69-.87,1.16-1.01,2.33-2,3.51-2.98,1.6.45,3.19.93,4.78,1.43-1.13,1.04-2.25,2.11-3.35,3.19-.75-.26-1.5-.52-2.25-.77Zm6.53-2.12c15.91,5.09,31.7,12.29,47.19,19.37l.08.04c3.57,1.63,7.04,3.22,10.46,4.75-1.57.79-3.16,1.57-4.76,2.33-5.79-2.4-11.64-4.95-17.73-7.61l-.04-.02c-12.56-5.48-25.51-11.12-38.59-15.66,1.12-1.08,2.25-2.15,3.39-3.2Zm58.18,24.35c1.32.59,2.64,1.18,3.94,1.75-1.57.73-3.14,1.46-4.74,2.17-1.31-.53-2.62-1.05-3.94-1.59,1.56-.75,3.14-1.53,4.73-2.33Zm.75-.38c1.57-.79,3.16-1.61,4.76-2.46,1.35.64,2.68,1.28,4.01,1.91-1.58.78-3.18,1.55-4.79,2.31-1.32-.58-2.65-1.17-3.98-1.77Zm9.23-.33c1.31.62,2.61,1.23,3.9,1.84-1.58.72-3.19,1.44-4.8,2.14-1.29-.55-2.57-1.1-3.87-1.67,1.57-.74,3.16-1.52,4.77-2.31Zm4.41,2.07c1.12.52,2.24,1.04,3.36,1.55.16.07.31.14.47.21-1.57.66-3.15,1.3-4.75,1.94-1.18-.47-2.36-.93-3.55-1.43-.1-.04-.2-.09-.31-.13,1.58-.69,3.17-1.39,4.78-2.13Zm3.63.94c-.94-.43-1.89-.87-2.83-1.31,1.6-.73,3.22-1.5,4.85-2.28,1.3.65,2.6,1.3,3.91,1.95-1.61.71-3.23,1.42-4.88,2.11-.35-.16-.7-.3-1.05-.46Zm6.45-1.39c.46.23.91.45,1.36.68.84.41,1.67.8,2.5,1.19-1.6.64-3.2,1.28-4.82,1.9-1.29-.53-2.59-1.1-3.89-1.67,1.59-.67,3.2-1.38,4.84-2.1Zm1.67.07c-.29-.14-.57-.29-.86-.43,1.63-.73,3.28-1.47,4.96-2.25,1.24.66,2.47,1.32,3.71,1.97.07.04.14.07.21.11-1.64.69-3.3,1.38-4.96,2.05-1.02-.48-2.03-.95-3.06-1.46Zm8.56-.31c1.29.68,2.58,1.33,3.86,1.97-1.63.62-3.27,1.22-4.93,1.82-1.29-.56-2.58-1.15-3.88-1.75,1.62-.66,3.26-1.33,4.94-2.04Zm.85-.36c1.02-.43,2.04-.87,3.08-1.32.64-.28,1.3-.57,1.96-.85.49.28.97.56,1.46.83.83.47,1.65.93,2.48,1.39-.3.12-.6.24-.9.35l-.07.02c-1.35.53-2.72,1.05-4.08,1.57-1.3-.64-2.61-1.31-3.92-1.99Zm8.18.88l.06-.02c.43-.17.85-.34,1.28-.5,1.33.73,2.64,1.44,3.95,2.13l-.34.12c-1.54.53-3.09,1.06-4.65,1.58-1.32-.61-2.64-1.25-3.96-1.9,1.22-.47,2.44-.93,3.66-1.41Zm2.23-.87c.3-.12.6-.24.91-.35,1.42-.56,2.84-1.14,4.27-1.72,1.34.81,2.68,1.62,4,2.4-1.14.41-2.29.82-3.42,1.22-.58.21-1.16.41-1.75.61-1.33-.7-2.67-1.41-4.01-2.15Zm6.05-2.43c1.77-.72,3.54-1.45,5.29-2.17.31.2.63.41.94.61,1.05.69,2.09,1.36,3.14,2.03-1.76.65-3.54,1.3-5.31,1.94-1.34-.79-2.7-1.6-4.06-2.42Zm9.88.81c1.37.88,2.73,1.75,4.09,2.6-1.75.56-3.51,1.12-5.27,1.68-1.35-.77-2.72-1.55-4.09-2.35,1.78-.65,3.54-1.29,5.27-1.93Zm.89-.33c1.26-.47,2.49-.92,3.68-1.37.59-.22,1.19-.44,1.78-.66,1.38.97,2.77,1.94,4.14,2.89-.36.12-.72.23-1.07.35-1.45.47-2.91.94-4.39,1.42-1.37-.86-2.75-1.74-4.14-2.63Zm6.35-2.36c1.87-.69,3.74-1.38,5.62-2.07,1.42,1.07,2.81,2.13,4.19,3.17-1.88.6-3.76,1.21-5.63,1.81-1.42-.99-2.81-1.95-4.18-2.92Zm-.49-.35c-.62-.43-1.23-.86-1.85-1.3-.76-.53-1.54-1.08-2.33-1.63,1.86-.77,3.72-1.54,5.59-2.3,1.44,1.06,2.86,2.11,4.24,3.15-1.89.69-3.77,1.39-5.64,2.08Zm-4.66-3.26c-1.37-.95-2.79-1.92-4.23-2.9,1.84-.84,3.68-1.67,5.53-2.51,1.46,1.04,2.9,2.07,4.3,3.1-1.87.77-3.74,1.54-5.6,2.31Zm-4.69-3.21c-1.41-.95-2.84-1.91-4.31-2.88,1.82-.9,3.64-1.79,5.47-2.69,1.49,1.02,2.95,2.04,4.39,3.05-1.85.83-3.7,1.67-5.54,2.51Zm-4.76-3.17c-1.44-.94-2.9-1.89-4.39-2.84,1.79-.95,3.58-1.89,5.38-2.84,1.52.99,3.02,1.98,4.49,2.98-1.83.89-3.66,1.79-5.48,2.69Zm-4.82-3.11c-1.47-.93-2.96-1.86-4.48-2.79,1.76-.99,3.52-1.98,5.29-2.97,1.55.96,3.07,1.93,4.58,2.91-1.8.94-3.6,1.89-5.39,2.84Zm-.82.44c-1.13.6-2.26,1.2-3.38,1.79l-1.1.59c-.25.13-.51.27-.76.4-1.45-.89-2.9-1.77-4.36-2.65l1.05-.6c1.36-.77,2.72-1.54,4.09-2.31,1.5.91,2.99,1.83,4.47,2.76Zm-6.02,3.19c-1.71.91-3.42,1.81-5.15,2.72-1.4-.83-2.82-1.66-4.26-2.5,1.7-.96,3.4-1.91,5.07-2.86,1.46.87,2.9,1.75,4.34,2.63Zm-9.84-.02c-1.43-.83-2.89-1.65-4.36-2.48,1.69-1,3.36-2,4.99-2.97,1.49.86,2.97,1.72,4.45,2.6-1.65.93-3.34,1.88-5.08,2.86Zm-.74.42c-1.67.93-3.35,1.87-5.03,2.8-1.41-.78-2.83-1.57-4.26-2.35,1.66-.97,3.31-1.95,4.95-2.92,1.46.82,2.91,1.65,4.34,2.47Zm-9.71.22c-11.26-6.15-23.19-12.19-35.34-16.86-10-3.85-19.39-6.47-28.31-7.9,1.08-.68,2.18-1.34,3.29-1.97,22.9,2.28,45.46,12.66,65.32,23.81-1.66.98-3.31,1.96-4.96,2.93Zm-.73.43c-.08.05-.16.1-.24.14-1.53.89-3.07,1.79-4.63,2.68-13.05-6.89-26.5-13.63-40.51-18.79-7.63-2.81-14.88-4.93-21.83-6.37,1.09-.77,2.2-1.51,3.32-2.24,22.15,3.41,44.06,13.77,63.9,24.58Zm-5.6,3.24c-1.61.91-3.23,1.82-4.87,2.73-19.16-9.68-39.87-19.91-60.94-25.2,1.13-.88,2.27-1.73,3.43-2.56,21.48,4.35,42.63,14.62,62.38,25.04Zm-66.87-22.73c-1.43-.35-2.86-.67-4.3-.97,1.16-.79,2.31-1.55,3.47-2.28,1.39.22,2.79.45,4.18.72-1.12.81-2.24,1.66-3.35,2.53Zm-5.39-1.2c-1.37-.27-2.74-.52-4.11-.74,1.17-.69,2.33-1.36,3.5-1.99,1.32.14,2.64.31,3.96.5-1.12.71-2.23,1.46-3.35,2.23Zm-.77.54c-.47.33-.94.65-1.41.99-.66.48-1.3,1-1.95,1.49-1.48-.36-2.95-.69-4.4-.99,1.17-.78,2.35-1.52,3.52-2.24,1.41.22,2.83.47,4.24.75Zm-8.88,1.26c-1.4-.28-2.8-.54-4.17-.78,1.18-.68,2.35-1.33,3.53-1.94,1.35.15,2.71.31,4.06.51-1.14.71-2.27,1.44-3.41,2.2Zm-.77.54c-1.16.79-2.32,1.6-3.45,2.43-1.5-.37-2.97-.7-4.44-1.01.51-.33,1.02-.67,1.53-.99.68-.42,1.36-.81,2.05-1.21,1.44.23,2.87.49,4.31.78Zm-6.76-.22c-.74.46-1.47.95-2.2,1.42-1.45-.3-2.88-.56-4.3-.8,1.21-.67,2.42-1.3,3.62-1.91,1.37.16,2.75.35,4.12.56-.41.25-.83.48-1.24.74Zm-2.94,1.9c-1.22.8-2.43,1.62-3.63,2.46-1.54-.38-3.07-.73-4.57-1.05,1.24-.76,2.5-1.49,3.77-2.21,1.48.24,2.96.5,4.43.79Zm-9.29,1.18c-1.46-.3-2.91-.58-4.34-.83.64-.33,1.26-.68,1.91-1,.62-.31,1.25-.6,1.87-.91,1.41.16,2.83.35,4.24.57-1.24.71-2.47,1.42-3.68,2.17Zm.33.69c1.56.33,3.11.67,4.67,1.05-1.22.87-2.44,1.75-3.64,2.66-.73-.21-1.46-.41-2.2-.61-.89-.24-1.76-.46-2.64-.68,1.25-.83,2.52-1.63,3.8-2.42Zm1.36,4.43c1.66.47,3.32.97,4.98,1.48-1.19,1.01-2.37,2.03-3.53,3.06-1.72-.58-3.44-1.14-5.16-1.68,1.23-.97,2.46-1.92,3.71-2.86Zm1.81,5.28c1.78.6,3.55,1.22,5.33,1.85-1.13,1.11-2.25,2.22-3.37,3.34-1.83-.68-3.66-1.34-5.5-2,1.17-1.07,2.35-2.14,3.53-3.2Zm.52-.45c1.18-1.04,2.36-2.07,3.56-3.08,1.71.54,3.41,1.09,5.12,1.67-1.14,1.07-2.28,2.15-3.4,3.24-1.76-.63-3.52-1.24-5.28-1.84Zm9.55-1.11c1.73.59,3.46,1.2,5.19,1.83-1.09,1.12-2.17,2.26-3.24,3.4-1.79-.67-3.57-1.33-5.36-1.98,1.13-1.1,2.27-2.18,3.42-3.25Zm6.06,2.14c10.2,3.72,20.35,7.97,30.37,12.17,8.29,3.47,16.2,6.77,24.02,9.74-1.54.69-3.09,1.37-4.66,2.03-10.3-3.51-20.65-7.68-31.58-12.09-7.08-2.86-14.22-5.73-21.41-8.45,1.08-1.15,2.16-2.28,3.26-3.41Zm30.6,11.61c-9.89-4.14-19.97-8.37-30.13-12.08,1.1-1.12,2.2-2.22,3.32-3.31,13.08,4.52,26.07,10.19,38.86,15.78l.3.13c5.82,2.54,11.41,4.97,16.92,7.26-1.55.74-3.11,1.46-4.69,2.18-8-3.03-16.08-6.4-24.58-9.95Zm29.75,7.98c1.3.54,2.6,1.06,3.89,1.59-1.56.69-3.13,1.36-4.71,2.02-.01,0-.02,0-.03-.01-1.26-.46-2.53-.95-3.8-1.43,1.54-.7,3.09-1.42,4.66-2.17Zm4.41,1.79c.88.35,1.76.72,2.64,1.06.37.15.75.27,1.12.42-1.54.62-3.08,1.23-4.65,1.82-1.25-.41-2.51-.84-3.78-1.29,1.54-.65,3.1-1.31,4.67-2.01Zm2.87.48c-.69-.27-1.38-.56-2.07-.84,1.56-.7,3.13-1.42,4.72-2.16,1.28.56,2.56,1.11,3.84,1.66-1.57.68-3.16,1.34-4.76,2-.57-.22-1.15-.43-1.72-.66Zm7.01-1.11c.29.12.57.25.86.37.97.41,1.95.8,2.93,1.19-1.55.61-3.11,1.21-4.69,1.79-1.26-.43-2.53-.88-3.8-1.36,1.55-.64,3.12-1.3,4.7-1.99Zm4.39,1.8c1.26.5,2.54.98,3.81,1.45-1.51.54-3.04,1.07-4.57,1.58-1.28-.39-2.57-.82-3.86-1.25,1.52-.57,3.06-1.15,4.62-1.77Zm.88-.35c1.55-.62,3.12-1.26,4.72-1.93,1.28.57,2.55,1.14,3.82,1.67-1.54.58-3.08,1.16-4.64,1.72-1.3-.47-2.6-.95-3.91-1.46Zm9.16-.01c1.25.52,2.5,1.03,3.74,1.51-1.51.51-3.03,1-4.55,1.48-1.26-.41-2.52-.83-3.78-1.28,1.51-.54,3.04-1.12,4.59-1.71Zm.92-.35c1.56-.6,3.15-1.22,4.77-1.88,1.27.6,2.54,1.18,3.81,1.74-1.58.56-3.16,1.12-4.75,1.66-1.27-.48-2.55-.99-3.82-1.52Zm9.22.15c1.28.56,2.56,1.1,3.83,1.63-1.54.48-3.09.96-4.65,1.41-1.28-.45-2.56-.92-3.85-1.4,1.56-.54,3.12-1.08,4.67-1.64Zm.92-.33c1.64-.59,3.26-1.2,4.88-1.81,1.3.64,2.6,1.27,3.9,1.88-1.61.54-3.23,1.06-4.86,1.58-1.3-.53-2.61-1.08-3.92-1.64Zm9.43.38c1.3.61,2.6,1.2,3.9,1.77-1.56.45-3.14.89-4.74,1.32-1.31-.49-2.62-1.01-3.94-1.54,1.64-.52,3.23-1.04,4.78-1.56Zm.97-.33c1.43-.48,2.82-.96,4.16-1.42l.51-.18c.09-.03.19-.06.28-.1,1.32.7,2.64,1.38,3.95,2.04-1.62.48-3.26.97-4.91,1.45-1.32-.58-2.65-1.18-3.98-1.8Zm5.88-2.02c.44-.15.87-.3,1.31-.46,1.27-.45,2.54-.9,3.82-1.36,1.35.79,2.69,1.56,4.02,2.32-1.01.31-2.01.63-3.02.93-.7.21-1.41.43-2.12.63-1.33-.67-2.67-1.36-4.02-2.07Zm6.3,1.92c1.15-.35,2.31-.72,3.46-1.08,1.34.76,2.67,1.5,4,2.23-.86.22-1.72.45-2.57.66l-2.49.62c-1.32-.63-2.65-1.28-3.98-1.95l1.59-.48Zm4.45-1.39c1.75-.55,3.49-1.1,5.23-1.66,1.36.85,2.71,1.7,4.05,2.53-1.73.47-3.47.94-5.21,1.39-1.35-.74-2.71-1.5-4.07-2.26Zm6.17-1.96c1.34-.43,2.68-.86,4-1.29.47-.15.95-.31,1.43-.46,1.38.96,2.74,1.9,4.1,2.84-.23.06-.46.12-.68.19l-.49.13c-1.4.38-2.82.77-4.24,1.16-1.36-.84-2.73-1.7-4.11-2.56Zm6.36-2.06c1.86-.6,3.73-1.21,5.6-1.8,1.4,1.06,2.78,2.12,4.14,3.16-1.87.5-3.73,1.01-5.59,1.52-1.43-.99-2.81-1.95-4.15-2.88Zm10.3,1.79c1.4,1.08,2.78,2.14,4.14,3.2-1.84.4-3.68.79-5.51,1.19-.92-.63-1.82-1.26-2.75-1.9-.49-.34-.96-.67-1.43-.99,1.84-.5,3.69-1.01,5.55-1.5Zm.98-.26c1.92-.51,3.85-1.01,5.78-1.5,1.4,1.19,2.78,2.38,4.14,3.56-1.92.38-3.83.78-5.74,1.18-1.38-1.07-2.78-2.16-4.19-3.24Zm-.56-.43c-1.37-1.06-2.77-2.12-4.18-3.19,1.93-.61,3.88-1.22,5.83-1.81,1.41,1.17,2.8,2.33,4.17,3.49-1.95.5-3.89,1-5.82,1.52Zm-4.68-3.58c-1.39-1.06-2.8-2.13-4.23-3.21,1.93-.7,3.87-1.4,5.81-2.08.35.28.7.55,1.05.84,1.08.88,2.16,1.75,3.22,2.63-1.96.6-3.91,1.21-5.85,1.82Zm-4.7-3.56c-.09-.07-.18-.14-.27-.21-1.34-1.01-2.67-2-4-2.97,1.91-.78,3.83-1.55,5.76-2.31,1.44,1.11,2.89,2.24,4.34,3.4-1.95.69-3.89,1.38-5.83,2.09Zm-4.74-3.51c-1.46-1.07-2.9-2.1-4.34-3.12,1.89-.85,3.79-1.69,5.69-2.52,1.47,1.08,2.94,2.18,4.42,3.32-1.93.77-3.86,1.54-5.77,2.32Zm-4.78-3.43c-1.49-1.05-2.96-2.07-4.42-3.07,1.86-.91,3.73-1.81,5.61-2.7,1.5,1.05,3.01,2.13,4.52,3.24-1.91.83-3.81,1.68-5.7,2.53Zm-4.86-3.37c-1.52-1.03-3.02-2.02-4.52-3,1.82-.95,3.65-1.9,5.49-2.84,1.54,1.02,3.08,2.06,4.63,3.14-1.88.89-3.74,1.79-5.61,2.7Zm-4.94-3.27c-1.55-1-3.08-1.98-4.61-2.92,1.78-.99,3.57-1.98,5.36-2.96,1.57.98,3.15,1.99,4.73,3.03-1.84.94-3.67,1.89-5.49,2.85Zm-5.01-3.18c-1.59-.98-3.16-1.92-4.72-2.84,1.74-1.02,3.48-2.04,5.23-3.05,1.61.94,3.23,1.92,4.86,2.93-1.79.98-3.58,1.97-5.36,2.96Zm-.75.42c-1.77.99-3.53,1.98-5.29,2.97-1.51-.92-3.04-1.82-4.59-2.73,1.72-1.02,3.45-2.05,5.18-3.06,1.59.93,3.16,1.87,4.71,2.82Zm-6.1,3.42c-1.3.73-2.59,1.46-3.89,2.19-.41.23-.84.48-1.26.71-1.48-.88-2.97-1.75-4.47-2.61.15-.09.31-.18.46-.27,1.52-.91,3.04-1.82,4.57-2.72,1.54.89,3.07,1.79,4.59,2.7Zm-9.37-.33l-.65.39s0,0,0,0c-9.26-5.3-18.84-10.18-28.7-14.1-10.24-4.07-20.1-6.79-29.3-8.09-2.71-.38-5.39-.64-8.04-.79.95-.45,1.92-.88,2.9-1.3,23.46-.44,46.97,9.09,68.17,21.28-1.46.87-2.92,1.74-4.38,2.61Zm-1.38.83c-1.65.98-3.32,1.98-5,2.98-9.74-5.46-20.36-10.9-31.11-15.17-12.02-4.77-23.21-7.71-33.78-8.87,1.07-.59,2.15-1.15,3.24-1.7,22.88.9,45.48,10.64,66.65,22.76Zm-71.34-21.21c-1.11-.11-2.21-.19-3.3-.26,1.02-.47,2.05-.92,3.07-1.35,1.06-.02,2.13-.02,3.19,0-.99.51-1.98,1.05-2.97,1.61Zm-1.14.66c-1.04.61-2.07,1.24-3.11,1.91-1.24-.19-2.47-.35-3.7-.49,1.07-.58,2.15-1.13,3.23-1.65,1.19.05,2.38.14,3.58.24Zm-4.09,2.54c-1.07.7-2.14,1.44-3.21,2.2-1.36-.27-2.7-.51-4.04-.73,1.11-.68,2.22-1.33,3.34-1.95,1.3.13,2.61.3,3.91.48Zm-8.48,1.26c-1.27-.19-2.54-.36-3.79-.5,1.09-.57,2.18-1.12,3.27-1.64,1.22.06,2.44.15,3.66.25-1.05.6-2.1,1.23-3.15,1.88Zm-5.19-.65c-1.16-.12-2.3-.22-3.44-.29,1.04-.46,2.09-.89,3.13-1.31,1.11,0,2.21,0,3.32.04-1,.5-2.01,1.02-3.01,1.56Zm-1.09.59c-1.1.61-2.2,1.25-3.3,1.92-1.28-.2-2.57-.38-3.85-.53,1.14-.58,2.28-1.13,3.42-1.66,1.24.07,2.49.15,3.73.27Zm-8.57,1.23c-1.17-.12-2.35-.23-3.52-.31,1.1-.47,2.21-.91,3.31-1.33,1.13,0,2.26.02,3.39.06-1.06.51-2.12,1.03-3.18,1.59Zm-1.05.57c-1.12.6-2.24,1.23-3.36,1.89-1.32-.21-2.64-.4-3.94-.56,1.17-.57,2.34-1.12,3.5-1.64,1.27.07,2.53.18,3.8.3Zm-8.69,1.18c-1.21-.13-2.42-.24-3.61-.33,1.12-.46,2.24-.89,3.35-1.29,1.16,0,2.31.03,3.47.08-1.07.49-2.14,1.01-3.22,1.55Zm-1.12.56c-1.07.56-2.14,1.13-3.22,1.73-.07.04-.13.08-.2.12-1.36-.22-2.71-.41-4.04-.58,1.19-.56,2.38-1.09,3.57-1.6,1.3.08,2.59.19,3.89.32Zm-8.82,1.1c-1.25-.14-2.48-.26-3.71-.36,1.14-.44,2.28-.86,3.43-1.26,1.19.01,2.38.05,3.57.1-1.09.48-2.19.99-3.29,1.51Zm-1.07.52c-.27.13-.54.26-.81.39-.94.47-1.87.97-2.8,1.47-1.4-.23-2.79-.44-4.15-.62,1.25-.56,2.5-1.08,3.75-1.58,1.34.09,2.68.2,4.02.34Zm-3.29,2.53c1.5.25,3,.52,4.5.82-1.25.78-2.5,1.57-3.72,2.39-1.57-.39-3.12-.74-4.65-1.08,1.28-.73,2.57-1.44,3.87-2.14Zm1.09,3.92c1.63.41,3.26.84,4.9,1.29-1.23.94-2.45,1.88-3.67,2.85-1.69-.53-3.38-1.03-5.07-1.52,1.27-.89,2.55-1.77,3.84-2.62Zm1.57,4.87c1.74.54,3.47,1.11,5.2,1.69-1.18,1.05-2.35,2.11-3.51,3.18-1.8-.64-3.59-1.25-5.39-1.86,1.22-1.02,2.46-2.02,3.7-3.01Zm1.21,5.31c-1.17,1.08-2.34,2.17-3.49,3.27-1.87-.68-3.75-1.36-5.63-2.02,1.22-1.05,2.45-2.09,3.69-3.12,1.81.61,3.62,1.23,5.43,1.87Zm-3.11,4.01c1.92.7,3.84,1.42,5.76,2.13-1.11,1.15-2.21,2.29-3.31,3.44-1.98-.74-3.98-1.48-5.97-2.21,1.17-1.12,2.34-2.25,3.52-3.36Zm.46-.43c1.16-1.1,2.32-2.19,3.5-3.27,1.85.66,3.69,1.33,5.54,2.01-1.11,1.12-2.22,2.25-3.31,3.39-1.91-.71-3.81-1.42-5.73-2.12Zm9.88-.95c1.88.7,3.75,1.4,5.62,2.11-1.05,1.15-2.09,2.31-3.12,3.47-1.94-.73-3.88-1.46-5.82-2.19,1.1-1.13,2.21-2.26,3.32-3.39Zm.44-.45c1.12-1.13,2.25-2.24,3.38-3.35,1.8.65,3.6,1.31,5.4,1.99-1.07,1.15-2.13,2.3-3.19,3.46-1.86-.71-3.72-1.41-5.59-2.1Zm9.63-1.04c7.25,2.73,14.47,5.64,21.62,8.53l.09.04c10.7,4.32,20.84,8.4,30.89,11.85-1.52.63-3.05,1.25-4.6,1.85-.35-.1-.69-.2-1.04-.31-12.32-3.76-24.7-8.59-37.8-13.71l-.04-.02c-4.08-1.59-8.19-3.2-12.32-4.77,1.06-1.16,2.12-2.32,3.2-3.46Zm53.18,20.61c.57.19,1.14.39,1.71.58.69.23,1.38.43,2.07.64-1.49.57-2.99,1.13-4.5,1.67-1.26-.33-2.52-.68-3.79-1.05,1.49-.59,3-1.21,4.51-1.85Zm1.9.03c-.36-.12-.72-.25-1.08-.37,1.53-.65,3.07-1.32,4.62-2.02,1.27.48,2.54.97,3.8,1.43-1.52.63-3.07,1.24-4.62,1.84-.91-.28-1.81-.57-2.72-.87Zm7.87-.77s.02,0,.03.01c1.22.44,2.46.85,3.69,1.26-1.49.56-2.99,1.11-4.5,1.64-1.24-.34-2.49-.7-3.74-1.08,1.49-.58,3-1.2,4.52-1.83Zm4.37,1.49c1.22.4,2.45.77,3.68,1.13-1.46.49-2.92.96-4.4,1.42-1.23-.29-2.46-.6-3.7-.94,1.46-.52,2.93-1.05,4.42-1.62Zm.88-.34c1.51-.58,3.04-1.19,4.59-1.82,1.23.47,2.47.93,3.71,1.36-1.5.55-3.02,1.08-4.54,1.6-1.25-.36-2.5-.74-3.76-1.14Zm8.98-.23c1.25.43,2.49.85,3.75,1.24-1.45.47-2.91.94-4.37,1.38-1.27-.32-2.55-.67-3.83-1.03,1.47-.51,2.95-1.04,4.45-1.59Zm4.51,1.47c1.18.36,2.37.72,3.57,1.05-1.41.4-2.82.78-4.24,1.16-1.2-.26-2.41-.54-3.61-.84,1.41-.44,2.84-.89,4.29-1.37Zm1-.33c1.47-.49,2.97-1.01,4.48-1.55,1.22.44,2.45.86,3.69,1.27-1.48.46-2.98.91-4.48,1.34-1.23-.33-2.46-.69-3.69-1.06Zm8.97-.02c1.21.4,2.43.77,3.66,1.14-1.44.38-2.89.75-4.34,1.11-1.22-.29-2.45-.6-3.68-.93,1.46-.43,2.91-.87,4.36-1.33Zm1.08-.34c1.5-.48,2.99-.97,4.48-1.47,1.25.48,2.5.94,3.74,1.39-1.47.43-2.94.84-4.42,1.24-1.26-.37-2.52-.75-3.79-1.16Zm9.04.19c1.26.44,2.52.87,3.77,1.28-1.4.35-2.82.68-4.24,1-1.28-.33-2.56-.68-3.85-1.05,1.46-.4,2.9-.82,4.32-1.23Zm1.12-.33c1.55-.46,3.06-.93,4.54-1.4,1.29.52,2.57,1.03,3.84,1.52-1.48.4-2.98.79-4.49,1.17-1.29-.41-2.59-.84-3.89-1.29Zm9.2.43c1.24.47,2.47.92,3.69,1.36-1.44.31-2.89.62-4.35.91-1.24-.36-2.48-.73-3.73-1.12,1.48-.38,2.94-.76,4.38-1.15Zm1.13-.3c1.58-.43,3.12-.87,4.64-1.3,1.27.56,2.54,1.1,3.81,1.63-1.53.36-3.07.71-4.63,1.06-1.27-.45-2.54-.91-3.83-1.38Zm5.72-1.61c1.54-.44,3.04-.89,4.51-1.33l.32-.1c1.31.66,2.6,1.29,3.9,1.92-1.59.39-3.19.78-4.82,1.17-1.3-.54-2.6-1.09-3.92-1.66Zm9.53.87c1.31.63,2.61,1.25,3.9,1.85-1.55.3-3.11.6-4.68.89-1.31-.51-2.62-1.04-3.94-1.58,1.61-.38,3.18-.77,4.72-1.15Zm1.1-.27l.59-.15c.41-.1.82-.2,1.23-.31,1.05-.26,2.1-.54,3.16-.81,1.34.74,2.68,1.46,4.01,2.17-.75.15-1.51.31-2.26.46l-1.88.36c-.28.05-.56.11-.84.16-1.33-.61-2.67-1.24-4.02-1.89Zm6.05-1.55c1.73-.46,3.45-.92,5.15-1.38,1.37.85,2.73,1.68,4.08,2.51-1.71.37-3.42.73-5.12,1.08-1.36-.73-2.73-1.47-4.1-2.22Zm6.14-1.65c1.44-.39,2.86-.78,4.22-1.15.38-.1.76-.21,1.14-.31.64.44,1.3.9,1.93,1.34l.19.13c.67.46,1.33.92,2,1.38-.14.03-.28.06-.42.09l-.11.02c-1.58.35-3.19.7-4.8,1.04-1.38-.84-2.76-1.69-4.15-2.55Zm8.39,2.22l.79-.17c.32-.07.63-.14.95-.21,1.37.95,2.73,1.89,4.08,2.83-.06.01-.13.02-.19.03l-.5.08c-1.49.24-3.01.48-4.52.71-1.37-.83-2.74-1.66-4.13-2.51,1.18-.26,2.36-.51,3.52-.77Zm2.78-.61c1.81-.4,3.63-.79,5.46-1.18,1.38,1.08,2.74,2.15,4.09,3.21-1.81.28-3.6.56-5.4.85-1.38-.96-2.76-1.92-4.15-2.88Zm6.49-1.4c1.89-.4,3.79-.79,5.7-1.17,1.37,1.2,2.73,2.4,4.07,3.6-1.88.27-3.76.54-5.62.83-1.36-1.08-2.74-2.17-4.14-3.26Zm12.12-2.97c-2,.35-3.98.73-5.96,1.12-1.37-1.2-2.77-2.4-4.18-3.61,1.99-.5,3.99-.99,6-1.45,1.39,1.3,2.77,2.61,4.14,3.94Zm-4.62-4.4c-2.03.47-4.04.96-6.04,1.47-1.38-1.17-2.78-2.35-4.21-3.53,2-.6,4-1.19,6.02-1.76,1.42,1.26,2.83,2.52,4.23,3.82Zm-6.79-6.12c.71.62,1.4,1.26,2.11,1.89-2.03.57-4.04,1.16-6.04,1.77-1.2-.99-2.41-1.98-3.64-2.98-.22-.18-.44-.34-.66-.52,2-.7,4.01-1.38,6.04-2.05.75.64,1.49,1.27,2.2,1.89Zm-2.64-2.26c-2.03.67-4.04,1.36-6.05,2.06-1.46-1.17-2.91-2.31-4.36-3.43,1.98-.78,3.97-1.54,5.96-2.29,1.55,1.24,3.03,2.47,4.45,3.66Zm-4.89-4.02c-2,.75-3.99,1.52-5.97,2.3-1.49-1.14-2.97-2.25-4.44-3.34,1.95-.85,3.9-1.68,5.86-2.5,1.57,1.19,3.09,2.37,4.55,3.54Zm-4.98-3.87c-1.97.82-3.92,1.66-5.87,2.51-1.52-1.12-3.04-2.2-4.54-3.26,1.91-.9,3.82-1.79,5.74-2.67,1.6,1.14,3.16,2.29,4.67,3.43Zm-5.1-3.73c-1.92.88-3.83,1.77-5.74,2.68-1.55-1.08-3.1-2.14-4.64-3.16,1.86-.95,3.72-1.88,5.59-2.81,1.64,1.09,3.23,2.19,4.79,3.3Zm-5.21-3.58c-1.87.93-3.73,1.86-5.59,2.81-1.59-1.05-3.17-2.07-4.75-3.06,1.8-.98,3.61-1.95,5.42-2.92,1.67,1.04,3.31,2.1,4.91,3.16Zm-5.33-3.42c-1.81.96-3.61,1.93-5.41,2.91-1.64-1.02-3.26-1.99-4.89-2.94,1.74-1,3.49-2,5.24-2.99,1.72.99,3.41,1.99,5.06,3.02Zm-5.47-3.25c-1.75.99-3.5,1.99-5.23,2.99-12.27-7.13-24.12-12.26-35.44-15.3l-.16-.04c-10.38-2.77-20.42-3.83-30.03-3.18,25.17-4.9,50.2,3.75,70.86,15.53Zm-77.15-14.02c21.56-3.28,45.35,2.57,71.11,17.47-1.75,1.01-3.49,2.03-5.22,3.05-8.35-4.86-16.34-8.81-24.08-11.88-4.79-1.91-9.59-3.51-14.26-4.77-5.3-1.42-10.53-2.43-15.53-2.98-4.6-.51-9.14-.63-13.59-.42.52-.16,1.04-.32,1.57-.47Zm-4.5,1.45c24.58-2.11,48.79,7.35,69.67,19.5-1.73,1.02-3.46,2.04-5.18,3.07-8.28-4.8-17.16-9.34-26.36-13-10.26-4.08-20.2-6.74-29.54-7.92-3.75-.47-7.45-.7-11.09-.71.82-.33,1.66-.64,2.5-.94Zm-6.07.92c.44-.13.89-.25,1.34-.38.48-.07.95-.13,1.43-.19-.5.2-1.01.41-1.51.62-.51.01-1.03.02-1.54.04.1-.03.19-.06.28-.09Zm-3.26,1.07c.87-.07,1.75-.14,2.62-.18-.82.38-1.65.77-2.47,1.18-.89-.03-1.78-.06-2.66-.06.83-.32,1.67-.65,2.51-.94Zm-4.63.49c.48-.07.97-.11,1.45-.17-.52.2-1.04.42-1.55.63-.55.01-1.09.03-1.64.05.58-.17,1.16-.36,1.74-.52Zm-4.5,1.4c.85-.06,1.7-.1,2.56-.14-.85.38-1.7.78-2.55,1.19-.92-.04-1.84-.06-2.76-.07.91-.35,1.83-.67,2.75-.98Zm-1.47,1.77c-.97.5-1.95,1.02-2.92,1.56-1.12-.11-2.24-.2-3.35-.27,1.01-.46,2.03-.9,3.05-1.31,1.07-.01,2.14,0,3.21.03Zm-3.37-1.24c.55-.07,1.09-.16,1.64-.23-.57.22-1.13.44-1.69.67-.6,0-1.19.04-1.78.06.61-.18,1.23-.34,1.84-.5Zm-4.76,1.41c.93-.06,1.86-.13,2.78-.16-.87.38-1.75.76-2.62,1.18-.94-.04-1.88-.07-2.81-.08.88-.32,1.76-.64,2.64-.94Zm-4.71.45c.53-.07,1.06-.11,1.59-.17-.56.21-1.13.43-1.69.65-.58,0-1.16,0-1.73.02.61-.17,1.21-.34,1.82-.5Zm-4.72,1.37c.9-.06,1.79-.09,2.69-.11-.88.37-1.75.77-2.63,1.17-.97-.05-1.93-.09-2.88-.1.94-.33,1.88-.65,2.82-.95Zm-4.98.48c.61-.08,1.23-.16,1.84-.22-.62.22-1.25.44-1.87.68-.62,0-1.23.02-1.84.03.62-.17,1.24-.33,1.87-.48Zm-4.77,1.32c.97-.06,1.93-.1,2.9-.13-.93.38-1.86.77-2.78,1.18-1.01-.06-2.01-.09-3.02-.12.97-.33,1.93-.64,2.9-.93Zm-4.86.42h.04c.54-.07,1.07-.11,1.61-.16-.61.21-1.22.44-1.84.66-.66,0-1.31,0-1.96.02.71-.18,1.43-.35,2.15-.52Zm-4.97,1.3c.98-.05,1.95-.09,2.93-.11-.96.37-1.92.76-2.88,1.16-1.02-.06-2.04-.1-3.04-.13,1-.32,1.99-.63,2.99-.92Zm-5.22.43c.66-.07,1.33-.14,1.99-.2-.64.21-1.28.43-1.92.65-.68,0-1.36,0-2.04.01.66-.16,1.31-.32,1.97-.46Zm-4.9,1.23c1.02-.05,2.03-.08,3.05-.09-.97.36-1.94.74-2.91,1.13-1.07-.07-2.12-.12-3.17-.15,1.01-.31,2.02-.6,3.03-.88Zm-7.45.84c.64-.15,1.29-.3,1.93-.43.76-.07,1.51-.15,2.27-.2-.67.2-1.33.41-2,.63-.74,0-1.47,0-2.2,0Zm-1.08,1.88c1.19-.43,2.38-.84,3.56-1.23,1.24.02,2.49.05,3.73.11-.87.37-1.75.73-2.63,1.13-.28.12-.55.26-.83.39-1.29-.15-2.57-.29-3.83-.4Zm.23,2.89c1.29-.63,2.6-1.24,3.91-1.84,1.44.17,2.88.37,4.33.6-1.26.68-2.51,1.39-3.75,2.11-1.52-.32-3.02-.61-4.49-.87Zm.87,3.91c1.3-.8,2.61-1.59,3.93-2.36,1.59.34,3.17.7,4.76,1.09-1.27.85-2.53,1.71-3.77,2.6-1.64-.46-3.28-.9-4.92-1.32Zm5.24,2.03c1.71.49,3.41,1,5.12,1.52-1.24.99-2.46,1.99-3.68,3-1.77-.59-3.54-1.17-5.31-1.72,1.28-.95,2.57-1.88,3.86-2.8Zm-8.29,6.16c1.28-.99,2.56-1.96,3.86-2.93,1.78.56,3.57,1.14,5.35,1.73-1.23,1.03-2.45,2.06-3.66,3.11-1.85-.65-3.69-1.29-5.54-1.91Zm2.17,5.87c1.23-1.08,2.48-2.16,3.73-3.24,1.89.67,3.78,1.34,5.66,2.03-1.18,1.12-2.35,2.24-3.51,3.36-1.96-.72-3.92-1.44-5.88-2.15Zm6.29,2.86c2.01.74,4.01,1.48,6,2.22-.89.93-1.77,1.86-2.66,2.79-.19.2-.38.4-.57.6-2.08-.75-4.16-1.51-6.23-2.27,1.15-1.11,2.3-2.23,3.46-3.35Zm-7.29,7.06c1.15-1.11,2.29-2.22,3.43-3.32,2.08.76,4.16,1.52,6.26,2.28-1.05,1.11-2.11,2.21-3.17,3.32-2.18-.75-4.35-1.51-6.52-2.28Zm7.89,11.58c-2.44-.64-4.88-1.31-7.31-2.01,1-1.01,2-2.02,2.98-3.03,2.32.74,4.64,1.46,6.96,2.15-.87.97-1.75,1.93-2.63,2.89Zm2.98-3.28c-2.32-.69-4.63-1.41-6.94-2.14,1.03-1.06,2.05-2.12,3.07-3.19,2.21.76,4.43,1.5,6.64,2.23-.92,1.04-1.84,2.07-2.77,3.1Zm3.13-3.51c-2.21-.72-4.42-1.46-6.62-2.22,1.06-1.11,2.11-2.21,3.16-3.32,2.11.76,4.23,1.52,6.35,2.27-.96,1.09-1.92,2.18-2.89,3.27Zm4.37-4.96c-.38.43-.75.86-1.13,1.28-2.11-.74-4.22-1.5-6.33-2.26.09-.1.19-.2.28-.3l.08-.09c.95-1,1.9-2,2.85-3,2.02.75,4.05,1.5,6.09,2.26-.62.7-1.24,1.4-1.85,2.1Zm2.22-2.52c-2.03-.75-4.05-1.5-6.07-2.25,1.1-1.15,2.2-2.29,3.31-3.44,1.95.73,3.9,1.47,5.85,2.2-1.03,1.16-2.06,2.32-3.09,3.49Zm48.34,15.11c-2.18-.43-4.37-.93-6.59-1.49-13.43-3.39-27.3-8.3-40.91-13.32,1.02-1.16,2.05-2.32,3.08-3.48.97.37,1.95.74,2.92,1.11,14.19,5.38,28.85,10.95,42.9,14.87,1,.28,2.01.55,3.02.8-1.46.52-2.93,1.02-4.41,1.51Zm2.7-2.54c-.36-.09-.72-.19-1.08-.29l-.07-.02c-13.99-3.9-28.65-9.46-42.82-14.84h-.04c-.9-.36-1.81-.7-2.71-1.04,1.03-1.16,2.07-2.32,3.12-3.47,4.2,1.6,8.39,3.24,12.55,4.86,13.12,5.12,25.51,9.96,37.86,13.73.11.03.23.07.34.1-1.47.57-2.96,1.12-4.46,1.66-.89-.22-1.79-.44-2.68-.69Zm3.43.87c1.45-.53,2.9-1.08,4.37-1.65,1.23.36,2.46.71,3.69,1.04-1.42.5-2.85.98-4.29,1.45-1.25-.26-2.51-.54-3.77-.84Zm8.21,1.69c-1.2-.21-2.41-.44-3.62-.68,1.38-.46,2.77-.93,4.17-1.43,1.18.31,2.37.6,3.56.87-1.36.43-2.73.84-4.12,1.24Zm1.51-2.46c1.47-.53,2.94-1.08,4.43-1.66,1.21.38,2.42.74,3.63,1.08-1.45.5-2.91.98-4.38,1.45-1.22-.27-2.45-.56-3.69-.88Zm4.56,1.07c1.41-.46,2.83-.94,4.26-1.44,1.17.32,2.35.65,3.53.94-1.39.42-2.78.84-4.19,1.23-1.19-.23-2.39-.47-3.6-.74Zm8.37,1.54c-1.23-.19-2.46-.39-3.71-.61,1.34-.39,2.69-.79,4.06-1.22,1.21.29,2.41.56,3.63.82-1.32.35-2.65.69-3.98,1.01Zm1.45-2.17c1.4-.45,2.81-.92,4.24-1.4,1.24.36,2.49.7,3.74,1.02-1.39.41-2.79.81-4.19,1.2-1.26-.25-2.52-.53-3.78-.82Zm4.75,1.01c1.34-.37,2.69-.76,4.06-1.17,1.14.29,2.29.57,3.44.83-1.32.34-2.64.66-3.97.97-1.17-.19-2.35-.4-3.53-.63Zm8.16,1.32c-1.12-.15-2.25-.31-3.38-.49,1.27-.3,2.53-.62,3.79-.94,1.09.24,2.19.48,3.29.7-1.23.26-2.46.5-3.7.73Zm1.67-1.76c1.37-.36,2.73-.74,4.08-1.13,1.17.32,2.35.62,3.53.91-1.35.32-2.7.63-4.06.92-1.18-.22-2.36-.45-3.55-.7Zm8.47,1.52c-1.2-.18-2.41-.37-3.62-.58,1.28-.29,2.55-.58,3.81-.89,1.18.28,2.37.53,3.56.79-1.24.24-2.49.47-3.74.69Zm1.49-1.8c1.41-.35,2.81-.72,4.18-1.09,1.22.36,2.45.7,3.69,1.03-1.37.3-2.75.59-4.13.87-1.24-.25-2.48-.52-3.74-.81Zm8.31,1.69c-1.11-.19-2.22-.4-3.33-.62,1.32-.27,2.63-.56,3.92-.85,1.1.29,2.22.57,3.34.84-1.3.22-2.61.44-3.93.64Zm2-1.79c1.39-.32,2.76-.65,4.11-.99,1.18.38,2.36.75,3.53,1.09-1.34.26-2.69.52-4.05.76-1.19-.27-2.39-.56-3.6-.87Zm8.55,1.93c-1.19-.24-2.39-.49-3.6-.76,1.3-.24,2.57-.49,3.84-.74,1.17.34,2.33.67,3.49.98-1.24.18-2.49.35-3.74.52Zm5.43-.77c-1.24-.33-2.49-.66-3.75-1.02,1.42-.29,2.81-.59,4.2-.89,1.23.43,2.46.85,3.68,1.26-1.37.23-2.75.45-4.13.66Zm1.72-2.19c1.53-.34,3.03-.69,4.51-1.04,1.28.53,2.55,1.04,3.81,1.55-1.48.27-2.97.53-4.47.79-1.28-.42-2.56-.85-3.85-1.29Zm8.73,2.82c-1.23-.37-2.47-.76-3.72-1.15,1.45-.25,2.89-.51,4.31-.77,1.23.48,2.46.96,3.69,1.42-1.42.18-2.85.35-4.28.51Zm5.8-.7c-1.28-.48-2.57-.96-3.87-1.47,1.54-.29,3.06-.58,4.57-.87,1.29.59,2.57,1.17,3.84,1.74-1.5.2-3.02.4-4.53.59Zm8.75-1.17c-.47.07-.94.13-1.41.19-.41.05-.82.11-1.22.16-.08.01-.15.02-.23.03-1.32-.59-2.65-1.19-3.98-1.79l1.92-.37c.98-.19,1.97-.39,2.95-.6,1.33.71,2.64,1.4,3.96,2.09-.67.1-1.33.19-2,.28Zm-.81-2.61c1.68-.35,3.36-.71,5.04-1.07,1.35.83,2.7,1.65,4.04,2.46-1.67.26-3.34.51-5,.76-1.35-.7-2.71-1.42-4.07-2.15Zm9.04,4.72c-1.35-.69-2.71-1.4-4.07-2.1,1.63-.24,3.26-.49,4.89-.75,1.35.82,2.69,1.63,4.02,2.43-1.6.15-3.21.29-4.84.42Zm6.11-.54c-1.37-.83-2.75-1.66-4.13-2.5,1.45-.23,2.89-.46,4.32-.69.27-.04.53-.08.8-.13,1.36.95,2.72,1.89,4.06,2.84-1.61.15-3.32.31-5.05.48Zm6.25-.59c-1.37-.96-2.75-1.93-4.14-2.9,1.77-.28,3.54-.56,5.33-.84,1.37,1.09,2.72,2.17,4.05,3.25-1.75.16-3.5.32-5.24.49Zm6.39-.59c-1.35-1.1-2.73-2.2-4.12-3.31,1.84-.28,3.7-.55,5.56-.81,1.35,1.22,2.69,2.44,4,3.67-1.82.14-3.64.29-5.44.46Zm6.55-.54c-1.33-1.24-2.68-2.48-4.05-3.73,1.91-.26,3.83-.51,5.77-.73,1.32,1.35,2.62,2.71,3.91,4.09-1.89.11-3.76.23-5.62.37Z"/>
    </g>
  </g>
</svg>