<?xml version="1.0" encoding="utf-8"?>
<!-- Generator: Adobe Illustrator 25.4.1, SVG Export Plug-In . SVG Version: 6.00 Build 0)  -->
<svg version="1.1" id="Layer_1" xmlns="http://www.w3.org/2000/svg" xmlns:xlink="http://www.w3.org/1999/xlink" x="0px" y="0px"
	 viewBox="0 0 300 300" style="enable-background:new 0 0 300 300;" xml:space="preserve">
<style type="text/css">
	.st0{fill:#FFFFFF;}
	.st1{fill-rule:evenodd;clip-rule:evenodd;fill:#004F81;}
	.st2{fill:#62C8CD;}
	.st3{fill:#00A3E0;}
	.st4{fill:none;stroke:url(#SVGID_1_);stroke-width:1.25;stroke-miterlimit:10;}
	.st5{fill:none;stroke:url(#SVGID_00000144327355218647686310000018439451123143890871_);stroke-width:1.25;stroke-miterlimit:10;}
	.st6{opacity:0.2;}
	.st7{fill:none;stroke:#FFFFFF;stroke-width:6.26;stroke-miterlimit:10;}
	.st8{fill:url(#SVGID_00000010309132469274366580000008441075399826182077_);}
	.st9{fill:#004F81;}
	.st10{fill:url(#SVGID_00000016043087591702004650000016335899915251589770_);}
	.st11{fill:#E17000;}
	.st12{fill:#E4D700;}
	.st13{fill:#5BC6E8;}
</style>
<path class="st0" d="M0,0v300h300V0H0z M150,272.2c-67.3,0-121.9-54.6-121.9-121.9S82.7,28.5,150,28.5
	c67.3,0,121.9,54.6,121.9,121.9S217.3,272.2,150,272.2z"/>
<g>
	<g>
		<path class="st1" d="M286.9,19.1c-0.7-1.2-2.4-1.5-3.5-1.7l-0.3,0c1.3,1.9,2.5,3.9,3.5,5.9c0.1-0.2,0.2-0.4,0.3-0.6
			C287.4,21.1,287.4,20,286.9,19.1L286.9,19.1L286.9,19.1z"/>
		<path class="st1" d="M272.7,34.7c0.6,1.7,1.3,2.5,2.1,2.7c1,0.2,2.3-0.6,4.3-2.7c0.4-0.4,0.8-0.9,1.3-1.5c-2.2,0.1-5,0.3-8.1,0.7
			C272.4,34,272.7,34.7,272.7,34.7L272.7,34.7z"/>
		<path class="st1" d="M268.2,25.5c1.2,1.8,2.3,3.9,3.3,6.3c0.3,0,0.6-0.1,0.9-0.1c3-0.5,6.3-0.6,9.5-0.5c1.8-2.6,3.4-5.4,4.2-7
			c-1.2-2.3-2.7-4.6-4.6-7c-2.8-0.2-5.9-0.2-9.1,0.1c-0.5,1.1-1.2,2.6-2.2,4.4C269.5,23.1,268.8,24.4,268.2,25.5
			C268.2,25.5,268.2,25.5,268.2,25.5z"/>
		<path class="st1" d="M287.1,12.2c-3.6-3.6-8.4-5.6-13.5-5.6c-4.3,0-8.3,1.4-11.6,4c-3.2,2.5-5.6,6-6.7,9.9c4.1-2,9.5-3.6,15.3-4.4
			c0.4-1.3,0.7-2.4,0.9-3.5c0.5-2.2,0.9-3.7,1.9-4c1.1-0.3,2.8,0.9,5.9,4.1l0,0l0,0l2.4,2.8c1.3,0.1,2.5,0.2,3.6,0.5l0.1,0
			c1,0.2,3.1,0.6,3.9,2.2c0.5,0.9,0.5,2,0,3.3c-0.5,1.5-1.1,2.9-1.8,4.2c0.5,1.3,1,2.7,1.4,4c0,0.1,0,0.2,0,0.3
			c0,0.3-0.2,0.6-0.2,0.6l-0.1,0.1l0-0.1c-0.4-1.4-0.9-2.7-1.4-4c-0.9,1.7-1.8,3.2-2.9,4.8c2.8,0.2,5.2,0.6,7,1.2
			c0.8-2.2,1.2-4.5,1.2-6.8C292.7,20.5,290.7,15.8,287.1,12.2L287.1,12.2L287.1,12.2z"/>
		<path class="st1" d="M266.3,31.3c0.5,0.7,1.7,0.9,4.1,0.6c-0.8-2.1-1.7-3.9-2.7-5.6C266.5,28.7,265.7,30.4,266.3,31.3
			C266.3,31.3,266.3,31.3,266.3,31.3z"/>
		<path class="st1" d="M280.1,15.4c-2.3-2.7-3.6-3.7-4.5-3.6c-1,0.1-1.5,1.6-2.5,3.8l0,0.1C275.6,15.4,278,15.3,280.1,15.4
			L280.1,15.4L280.1,15.4z"/>
		<path class="st1" d="M283,33.2c-1.1,1.4-2.4,2.8-4,4.5c-2.4,2.4-3.7,3.5-4.7,3.3c-0.7-0.2-1.3-1-1.8-2.8c-0.4-1.5-0.9-2.9-1.3-4.2
			l-1.7,0.2c-3.9,0.6-6.1,0.3-6.8-1c-1.1-1.7,0.9-5.1,3.7-9.3c-0.6-0.9-1.3-1.8-2-2.6c-0.1-0.1-0.1-0.2-0.2-0.2L264,21h0.1
			c0.2,0,0.5,0,0.7,0.2c0.6,0.7,1.2,1.4,1.8,2.1L267,23l1.3-1.9c0.7-1,1.3-2.2,1.8-3.5c-7.1,1.1-12.2,3.3-14.4,6.1
			c-0.8,1-1.1,2-0.9,3.9c0.5,4.4,2.3,8.3,5.5,11.6c3.6,3.6,8.4,5.5,13.4,5.5c5.6,0,10.8-2.4,14.5-6.7c0.9-1.2,1.1-2.1,0.8-2.9
			C288.3,34,286.3,33.3,283,33.2L283,33.2L283,33.2z"/>
	</g>
	<g>
		<g>
			<path class="st2" d="M149.4,6.8C76,6.8,16.5,66.3,16.5,139.8S76,272.7,149.4,272.7s132.9-59.5,132.9-132.9S222.8,6.8,149.4,6.8z
				 M150,272.2c-67.3,0-121.9-54.6-121.9-121.9S82.7,28.5,150,28.5s121.9,54.6,121.9,121.9S217.3,272.2,150,272.2z"/>
			<path class="st3" d="M250.5,219.3c-22.9,39.9-66,66.8-115.4,66.8c-73.4,0-132.9-59.5-132.9-132.9S61.7,20.3,135.1,20.3
				c31.2,0,59.8,10.7,82.5,28.7C198.3,36,175,28.5,150,28.5c-67.3,0-121.9,54.6-121.9,121.9S82.7,272.2,150,272.2
				C191.7,272.2,228.5,251.3,250.5,219.3z"/>
			<path class="st0" d="M250.5,219.3c11.2-19.5,17.6-42,17.6-66.1c0-42.2-19.7-79.9-50.4-104.2c32.7,21.9,54.2,59.1,54.2,101.4
				C271.9,175.9,264,199.7,250.5,219.3z"/>
			<g>
				<path class="st0" d="M267.7,193.4c0,1-0.7,1.7-1.6,1.7c-0.9,0-1.7-0.7-1.7-1.6c0-0.9,0.7-1.7,1.6-1.7S267.6,192.5,267.7,193.4
					L267.7,193.4z"/>
				<path class="st0" d="M222.8,248.3c0,0.9-0.7,1.7-1.7,1.7c-1,0-1.8-0.8-1.7-1.7c0-0.9,0.8-1.6,1.7-1.6
					C222.1,246.6,222.8,247.4,222.8,248.3L222.8,248.3z"/>
				<path class="st0" d="M272.6,168.6c0,0.9-0.9,1.7-1.8,1.6c-0.9-0.1-1.5-0.8-1.5-1.7c0-0.9,0.8-1.6,1.7-1.6
					C271.9,167,272.7,167.7,272.6,168.6z"/>
				<path class="st0" d="M261,206.8c0.9,0,1.7,0.7,1.7,1.6c0,0.9-0.8,1.6-1.6,1.6c-0.9,0-1.7-0.7-1.7-1.7
					C259.4,207.5,260.1,206.8,261,206.8L261,206.8z"/>
				<path class="st0" d="M271.1,157c0.9,0,1.6,0.7,1.6,1.6c0,0.9-0.7,1.7-1.6,1.7c-0.9,0-1.6-0.8-1.6-1.6
					C269.5,157.7,270.2,157,271.1,157L271.1,157z"/>
				<path class="st0" d="M217.8,253.3c0,0.9-0.7,1.6-1.6,1.6c-0.9,0-1.7-0.7-1.7-1.6c0-0.9,0.8-1.6,1.6-1.6
					C217,251.7,217.7,252.4,217.8,253.3L217.8,253.3z"/>
				<path class="st0" d="M272.6,178.5c0,0.9-0.7,1.6-1.6,1.6c-0.9,0-1.5-0.7-1.6-1.6c0-0.9,0.7-1.6,1.6-1.6
					C271.9,176.9,272.6,177.6,272.6,178.5L272.6,178.5z"/>
				<path class="st0" d="M246,235c-0.9,0-1.6-0.8-1.5-1.7c0-0.9,0.7-1.5,1.6-1.5c0.9,0,1.5,0.7,1.6,1.5
					C247.7,234.2,246.9,235,246,235L246,235z"/>
				<path class="st0" d="M252.6,228.4c0,0.9-0.6,1.6-1.5,1.6c-0.9,0-1.6-0.7-1.6-1.6c0-0.8,0.7-1.6,1.6-1.6
					C251.9,226.8,252.6,227.5,252.6,228.4L252.6,228.4z"/>
				<path class="st0" d="M267.6,203.5c0,0.8-0.7,1.6-1.5,1.6c-0.9,0-1.6-0.7-1.6-1.6c0-0.9,0.7-1.5,1.6-1.5
					C266.9,201.9,267.6,202.6,267.6,203.5z"/>
				<path class="st0" d="M272.7,148.6c0,0.9-0.7,1.5-1.6,1.5c-0.9,0-1.6-0.7-1.5-1.6c0-0.9,0.8-1.5,1.6-1.5S272.7,147.8,272.7,148.6
					z"/>
				<path class="st0" d="M242.6,238.4c0,0.9-0.7,1.5-1.5,1.5c-0.9,0-1.6-0.7-1.6-1.5c0-0.9,0.8-1.6,1.6-1.6
					C241.9,236.8,242.6,237.5,242.6,238.4L242.6,238.4z"/>
				<path class="st0" d="M236.1,241.8c0.9,0,1.6,0.7,1.5,1.6c0,0.8-0.8,1.6-1.6,1.5c-0.8,0-1.5-0.7-1.5-1.6
					C234.6,242.4,235.2,241.8,236.1,241.8L236.1,241.8z"/>
				<path class="st0" d="M271,190c-0.9,0-1.6-0.7-1.6-1.5c0-0.8,0.7-1.6,1.5-1.6c0.8,0,1.5,0.7,1.5,1.6
					C272.5,189.4,271.9,190,271,190L271,190z"/>
				<path class="st0" d="M256,221.9c0.9,0,1.6,0.7,1.6,1.5c0,0.8-0.7,1.6-1.6,1.5c-0.8,0-1.5-0.7-1.5-1.5
					C254.5,222.6,255.1,221.9,256,221.9L256,221.9z"/>
				<path class="st0" d="M196.2,264.8c-0.8,0-1.5-0.8-1.5-1.6c0.1-0.8,0.7-1.4,1.5-1.4c0.9,0,1.5,0.8,1.5,1.6
					C197.6,264.2,196.9,264.8,196.2,264.8L196.2,264.8z"/>
				<path class="st0" d="M231.1,249.8c-0.8,0-1.5-0.7-1.5-1.5c0-0.8,0.7-1.6,1.5-1.5c0.8,0,1.5,0.7,1.5,1.5
					C232.6,249.2,231.9,249.8,231.1,249.8L231.1,249.8z"/>
				<path class="st0" d="M271.1,140.1c-0.8,0-1.5-0.6-1.5-1.5c0-0.8,0.6-1.5,1.5-1.5c0.8,0,1.5,0.6,1.5,1.4
					C272.6,139.5,271.9,140.1,271.1,140.1L271.1,140.1z"/>
				<path class="st0" d="M262.5,218.5c0,0.8-0.7,1.5-1.5,1.4c-0.8,0-1.5-0.7-1.4-1.5c0-0.8,0.7-1.5,1.5-1.4
					C261.9,217,262.5,217.7,262.5,218.5L262.5,218.5z"/>
				<path class="st0" d="M226.1,251.8c0.8,0,1.4,0.7,1.4,1.5c0,0.8-0.6,1.4-1.4,1.4c-0.8,0-1.5-0.6-1.5-1.5
					C224.6,252.5,225.4,251.8,226.1,251.8L226.1,251.8z"/>
				<path class="st0" d="M277.4,173.5c0,0.8-0.6,1.5-1.5,1.5c-0.8,0-1.4-0.6-1.5-1.4c0-0.8,0.6-1.5,1.4-1.6
					C276.7,172.1,277.4,172.7,277.4,173.5L277.4,173.5z"/>
				<path class="st0" d="M277.4,163.7c0,0.8-0.7,1.4-1.5,1.4c-0.8-0.1-1.4-0.7-1.4-1.5c0-0.8,0.7-1.5,1.5-1.4
					C276.8,162.1,277.4,162.8,277.4,163.7L277.4,163.7z"/>
				<path class="st0" d="M272.4,198.5c0,0.8-0.7,1.5-1.5,1.5c-0.8,0-1.5-0.7-1.5-1.5c0-0.8,0.6-1.4,1.4-1.4
					C271.8,197,272.4,197.6,272.4,198.5z"/>
				<path class="st0" d="M277.4,183.5c0,0.8-0.6,1.4-1.4,1.4c-0.8,0-1.4-0.6-1.4-1.4c0-0.8,0.7-1.5,1.5-1.5
					C276.8,182.1,277.4,182.8,277.4,183.5L277.4,183.5z"/>
				<path class="st0" d="M276,155c-0.8,0-1.4-0.6-1.4-1.4c0-0.8,0.6-1.4,1.4-1.4c0.8,0,1.5,0.7,1.4,1.5
					C277.5,154.4,276.8,155,276,155L276,155z"/>
				<path class="st0" d="M206.2,264.7c-0.8,0-1.4-0.6-1.4-1.4c0-0.8,0.7-1.5,1.5-1.5c0.8,0,1.4,0.7,1.4,1.4
					C207.6,264.1,207,264.7,206.2,264.7z"/>
				<path class="st0" d="M267.4,213.4c0,0.8-0.6,1.4-1.4,1.4c-0.8,0-1.4-0.6-1.4-1.4c0-0.8,0.6-1.4,1.4-1.4S267.4,212.6,267.4,213.4
					L267.4,213.4z"/>
				<path class="st0" d="M272.5,128.7c0,0.8-0.7,1.4-1.4,1.4c-0.7,0-1.3-0.6-1.3-1.4c0-0.7,0.6-1.3,1.3-1.4
					C271.8,127.3,272.5,127.9,272.5,128.7L272.5,128.7z"/>
				<path class="st0" d="M221.1,259.7c-0.7,0-1.3-0.6-1.4-1.3c0-0.8,0.6-1.4,1.4-1.4c0.8,0,1.4,0.7,1.4,1.4
					C222.4,259.1,221.9,259.7,221.1,259.7L221.1,259.7z"/>
				<path class="st0" d="M276.1,142.3c0.8,0,1.3,0.6,1.3,1.3c0,0.7-0.6,1.3-1.3,1.4c-0.8,0-1.4-0.7-1.4-1.4
					C274.7,142.9,275.3,142.3,276.1,142.3L276.1,142.3z"/>
				<path class="st0" d="M272.3,208.4c0,0.8-0.5,1.3-1.3,1.4c-0.7,0-1.4-0.6-1.4-1.3c0-0.7,0.6-1.4,1.3-1.4
					C271.7,207.1,272.3,207.7,272.3,208.4z"/>
				<path class="st0" d="M274.7,193.5c0-0.8,0.6-1.3,1.3-1.3c0.7,0,1.3,0.6,1.3,1.3c0,0.7-0.7,1.3-1.4,1.3
					C275.2,194.8,274.6,194.2,274.7,193.5L274.7,193.5z"/>
				<path class="st0" d="M246.2,242.1c0.7,0.1,1.2,0.7,1.2,1.4c-0.1,0.7-0.7,1.3-1.4,1.2c-0.7-0.1-1.3-0.7-1.2-1.5
					C244.9,242.5,245.5,242,246.2,242.1z"/>
				<path class="st0" d="M256.1,232.1c0.7,0,1.3,0.6,1.3,1.3c0,0.7-0.7,1.4-1.4,1.3c-0.7,0-1.3-0.7-1.2-1.4
					C254.8,232.6,255.4,232.1,256.1,232.1z"/>
				<path class="st0" d="M252.3,238.4c0,0.7-0.6,1.2-1.3,1.2c-0.7,0-1.4-0.6-1.3-1.3c0-0.7,0.6-1.3,1.3-1.3
					C251.8,237,252.4,237.7,252.3,238.4z"/>
				<path class="st0" d="M282.2,168.6c0,0.7-0.6,1.2-1.3,1.2c-0.7,0-1.3-0.6-1.3-1.4c0.1-0.7,0.7-1.2,1.4-1.2
					C281.7,167.3,282.3,167.9,282.2,168.6z"/>
				<path class="st0" d="M242.3,248.3c0,0.7-0.5,1.3-1.2,1.3c-0.7,0-1.4-0.6-1.4-1.3c0-0.7,0.6-1.3,1.3-1.3
					C241.7,247,242.3,247.6,242.3,248.3L242.3,248.3z"/>
				<path class="st0" d="M214.9,263.3c0-0.7,0.5-1.3,1.2-1.3c0.7,0,1.4,0.6,1.3,1.3c0,0.7-0.6,1.3-1.3,1.3
					C215.5,264.6,214.9,264,214.9,263.3z"/>
				<path class="st0" d="M201.2,269.6c-0.7,0-1.3-0.5-1.3-1.2c0-0.7,0.5-1.3,1.2-1.3c0.7,0,1.4,0.6,1.3,1.3
					C202.5,269,201.9,269.5,201.2,269.6L201.2,269.6z"/>
				<path class="st0" d="M279.7,178.6c0-0.7,0.5-1.2,1.2-1.3c0.7,0,1.3,0.5,1.3,1.2c0,0.7-0.6,1.3-1.2,1.3
					C280.3,179.8,279.7,179.2,279.7,178.6z"/>
				<path class="st0" d="M237.3,253.4c0,0.7-0.6,1.2-1.3,1.2c-0.7,0-1.2-0.6-1.2-1.3c0-0.7,0.6-1.2,1.3-1.2
					C236.8,252.1,237.3,252.7,237.3,253.4z"/>
				<path class="st0" d="M259.8,228.4c0-0.7,0.5-1.2,1.3-1.2c0.7,0,1.2,0.6,1.2,1.3s-0.6,1.2-1.3,1.2
					C260.3,229.6,259.8,229.1,259.8,228.4z"/>
				<path class="st0" d="M276.1,134.9c-0.7,0-1.3-0.5-1.3-1.2c0-0.7,0.5-1.3,1.2-1.3c0.7,0,1.3,0.5,1.3,1.2
					C277.4,134.3,276.8,134.9,276.1,134.9z"/>
				<path class="st0" d="M281,157.4c0.7,0,1.2,0.5,1.3,1.2c0,0.7-0.5,1.3-1.2,1.3c-0.7,0-1.3-0.6-1.3-1.2
					C279.8,157.9,280.4,157.4,281,157.4z"/>
				<path class="st0" d="M277.2,203.5c0,0.7-0.5,1.1-1.2,1.1c-0.6,0-1.2-0.6-1.2-1.2c0-0.7,0.6-1.3,1.3-1.2
					C276.7,202.3,277.2,202.9,277.2,203.5L277.2,203.5z"/>
				<path class="st0" d="M176.3,272c0.7,0,1.2,0.5,1.2,1.2c0,0.6-0.5,1.2-1.1,1.2c-0.7,0-1.3-0.6-1.3-1.3
					C175.1,272.5,175.6,271.9,176.3,272z"/>
				<path class="st0" d="M271.1,117.5c0.7,0,1.2,0.5,1.2,1.2c0,0.7-0.5,1.2-1.1,1.3c-0.6,0-1.3-0.6-1.3-1.2
					C269.9,118.1,270.4,117.6,271.1,117.5z"/>
				<path class="st0" d="M282.2,148.7c0,0.6-0.6,1.2-1.2,1.2c-0.6,0-1.2-0.6-1.2-1.2c0-0.7,0.6-1.2,1.3-1.2
					C281.8,147.5,282.3,148,282.2,148.7L282.2,148.7z"/>
				<path class="st0" d="M267.2,223.5c0,0.7-0.5,1.1-1.2,1.1c-0.6,0-1.2-0.6-1.2-1.2c0-0.7,0.6-1.3,1.3-1.2
					C266.7,222.2,267.2,222.8,267.2,223.5L267.2,223.5z"/>
				<path class="st0" d="M280.9,189.7c-0.6,0-1.2-0.6-1.2-1.2c0-0.6,0.5-1.1,1.1-1.1c0.7,0,1.2,0.5,1.2,1.1
					C282.1,189.1,281.6,189.7,280.9,189.7L280.9,189.7z"/>
				<path class="st0" d="M187.4,273.2c0,0.7-0.5,1.2-1.2,1.2c-0.7,0-1.2-0.6-1.2-1.2c0-0.6,0.6-1.1,1.1-1.2
					C186.8,272,187.4,272.6,187.4,273.2L187.4,273.2z"/>
				<path class="st0" d="M232.3,258.3c0,0.6-0.6,1.2-1.2,1.2c-0.6,0-1.2-0.6-1.2-1.2c0-0.6,0.5-1.1,1.1-1.1
					C231.7,257.1,232.3,257.6,232.3,258.3L232.3,258.3z"/>
				<path class="st0" d="M166.3,272c0.7,0,1.2,0.5,1.2,1.2c0,0.6-0.5,1.1-1.1,1.1c-0.6,0-1.2-0.5-1.2-1.2
					C165.1,272.5,165.7,272,166.3,272L166.3,272z"/>
				<path class="st0" d="M272.1,218.4c0,0.6-0.5,1.1-1.1,1.1c-0.7,0-1.2-0.5-1.2-1.2c0-0.6,0.5-1.1,1.1-1.1
					C271.6,217.3,272.1,217.8,272.1,218.4z"/>
				<path class="st0" d="M212.3,268.3c0,0.6-0.5,1.1-1.1,1.1c-0.7,0-1.2-0.5-1.1-1.2c0-0.6,0.5-1.1,1.1-1.1
					C211.8,267.1,212.3,267.7,212.3,268.3L212.3,268.3z"/>
				<path class="st0" d="M156.3,272c0.6,0,1.1,0.5,1.2,1.1c0,0.6-0.4,1.1-1.1,1.2c-0.6,0-1.1-0.4-1.2-1
					C155.2,272.6,155.7,272,156.3,272L156.3,272z"/>
				<path class="st0" d="M197.3,273.2c0,0.6-0.5,1.1-1.1,1.2c-0.6,0-1.1-0.5-1.2-1.1c0-0.6,0.4-1.1,1.1-1.2
					C196.8,272.1,197.3,272.6,197.3,273.2L197.3,273.2z"/>
				<path class="st0" d="M282.2,138.6c0,0.6-0.5,1.1-1.1,1.1c-0.6,0-1.1-0.4-1.2-1.1c0-0.6,0.5-1.1,1.1-1.2
					C281.6,137.5,282.2,138,282.2,138.6L282.2,138.6z"/>
				<path class="st0" d="M227.2,263.3c0,0.6-0.6,1.1-1.2,1.1c-0.6,0-1.1-0.6-1-1.2c0-0.6,0.5-1,1.1-1
					C226.7,262.2,227.3,262.7,227.2,263.3L227.2,263.3z"/>
				<path class="st0" d="M276.1,124.8c-0.6,0-1.1-0.6-1.1-1.2c0-0.6,0.6-1.1,1.2-1.1c0.6,0,1,0.5,1,1.1
					C277.2,124.3,276.7,124.8,276.1,124.8L276.1,124.8z"/>
				<path class="st0" d="M287,163.5c0,0.5-0.5,1.1-1,1.1c-0.6,0-1.1-0.4-1.1-1c-0.1-0.6,0.4-1.1,1-1.2
					C286.5,162.5,287,163,287,163.5L287,163.5z"/>
				<path class="st0" d="M282,198.5c0,0.6-0.4,1.1-1,1.1c-0.6,0-1.1-0.5-1.1-1.1c0-0.6,0.5-1,1.1-1C281.5,197.4,282,197.9,282,198.5
					L282,198.5z"/>
				<path class="st0" d="M267.2,103.8c0,0.6-0.5,1-1.1,1c-0.6,0-1-0.5-1-1.1c0-0.6,0.5-1.1,1.2-1.1
					C266.8,102.8,267.2,103.2,267.2,103.8L267.2,103.8z"/>
				<path class="st0" d="M275.9,214.5c-0.6,0-1-0.5-1-1.1c0-0.6,0.6-1,1.1-1c0.5,0.1,0.9,0.5,0.9,1.1
					C277,214,276.5,214.5,275.9,214.5L275.9,214.5z"/>
				<path class="st0" d="M285.9,172.5c0.6,0,1,0.5,1,1.1c0,0.6-0.4,1-1,1c-0.6,0-1.1-0.4-1.1-1C284.9,173,285.4,172.5,285.9,172.5
					L285.9,172.5z"/>
				<path class="st0" d="M261.1,237.4c0.5,0,1,0.4,1,1c0,0.6-0.5,1.1-1,1c-0.6,0-1-0.5-1-1.1C260.1,237.7,260.5,237.3,261.1,237.4
					L261.1,237.4z"/>
				<path class="st0" d="M220.1,268.2c0-0.6,0.4-1,1-1c0.6,0,1.1,0.5,1,1c0,0.5-0.5,1-1,1C220.6,269.3,220.1,268.8,220.1,268.2
					L220.1,268.2z"/>
				<path class="st0" d="M285.9,182.5c0.6,0,1,0.5,1,1.1c0,0.6-0.5,0.9-1,0.9c-0.5,0-1-0.4-1-1C284.9,183,285.4,182.5,285.9,182.5
					L285.9,182.5z"/>
				<path class="st0" d="M147.3,273.1c0,0.6-0.5,1-1,1c-0.5,0-1-0.5-1-1c0-0.6,0.5-1,1.1-1C147,272.2,147.3,272.6,147.3,273.1z"/>
				<path class="st0" d="M207.2,273.3c0,0.6-0.4,1-1,1c-0.6,0-1.1-0.5-1.1-1c0-0.5,0.5-1,1-1C206.7,272.2,207.2,272.7,207.2,273.3
					L207.2,273.3z"/>
				<path class="st0" d="M272.1,108.7c0,0.6-0.4,1.1-1,1.1c-0.5,0-1-0.5-1-1c0-0.6,0.4-1,1-1C271.7,107.8,272.1,108.2,272.1,108.7z"
					/>
				<path class="st0" d="M256,244.3c-0.5,0-1-0.4-1-1c0-0.6,0.5-1.1,1-1c0.6,0,1,0.5,1,1.1C257,244,256.5,244.4,256,244.3L256,244.3
					z"/>
				<path class="st0" d="M286,154.6c-0.6,0-1-0.4-1-0.9c0-0.6,0.4-1.1,1-1.1c0.5,0,1,0.5,1,1.1C287,154.2,286.6,154.6,286,154.6z"/>
				<path class="st0" d="M251,247.3c0.6,0,1.1,0.4,1.1,1c0,0.5-0.5,1-1,1c-0.6,0-1-0.4-1-1C250,247.8,250.4,247.4,251,247.3
					L251,247.3z"/>
				<path class="st0" d="M246.1,254.3c-0.6,0-1.1-0.5-1-1c0-0.5,0.5-1,1-1c0.6,0,1,0.5,1,1.1C247,253.9,246.6,254.3,246.1,254.3z"/>
				<path class="st0" d="M282,128.7c0,0.5-0.4,1-1,1c-0.5,0-1-0.5-1-1c0-0.5,0.5-1,1-1C281.6,127.7,282,128.1,282,128.7z"/>
				<path class="st0" d="M267,233.4c0,0.6-0.4,1-1,0.9c-0.5,0-1-0.5-1-1c0-0.5,0.5-1,1-1C266.5,232.4,267,232.8,267,233.4z"/>
				<path class="st0" d="M171.2,279.1c-0.6,0-1-0.5-0.9-1c0-0.5,0.5-1,1-1c0.5,0,1,0.5,0.9,1C172.2,278.7,171.8,279.1,171.2,279.1
					L171.2,279.1z"/>
				<path class="st0" d="M181.2,277.1c0.5,0,1,0.5,1,1c0,0.5-0.4,1-1,1c-0.6,0-1-0.4-1-0.9C180.3,277.6,180.7,277.2,181.2,277.1
					L181.2,277.1z"/>
				<path class="st0" d="M287,143.7c0,0.5-0.5,1-1,0.9c-0.5-0.1-0.9-0.5-0.9-1c0-0.5,0.5-1,1-0.9C286.6,142.8,287,143.2,287,143.7
					L287,143.7z"/>
				<path class="st0" d="M241,257.4c0.5,0,1,0.4,1,1c0,0.5-0.4,0.9-0.9,0.9c-0.5,0-0.9-0.4-1-0.9C240.1,257.8,240.5,257.4,241,257.4
					L241,257.4z"/>
				<path class="st0" d="M162.3,278.1c0,0.5-0.4,0.9-0.9,1c-0.5,0-1-0.4-1-0.9s0.4-1,1-1C161.8,277.2,162.3,277.6,162.3,278.1
					L162.3,278.1z"/>
				<path class="st0" d="M192.2,278.3c0,0.5-0.4,0.9-0.9,0.9c-0.5,0-1-0.5-1-1c0-0.5,0.5-1,1-0.9
					C191.8,277.4,192.2,277.8,192.2,278.3L192.2,278.3z"/>
				<path class="st0" d="M276.1,114.7c-0.5,0-0.9-0.4-0.9-0.9c0-0.5,0.4-0.9,0.9-0.9c0.5,0,0.9,0.4,0.9,0.9
					C277,114.2,276.6,114.7,276.1,114.7L276.1,114.7z"/>
				<path class="st0" d="M270.9,229.3c-0.5,0-0.9-0.4-0.9-0.9c0-0.5,0.5-0.9,0.9-0.9c0.5,0,0.9,0.4,0.9,0.9
					C271.9,228.9,271.5,229.3,270.9,229.3z"/>
				<path class="st0" d="M281,209.3c-0.5,0-0.9-0.4-1-0.9c0-0.5,0.4-0.9,0.9-0.9c0.5,0,0.9,0.4,0.9,0.9
					C281.9,208.9,281.5,209.3,281,209.3z"/>
				<path class="st0" d="M286.8,193.5c0,0.5-0.4,0.9-0.9,0.9c-0.5,0-0.9-0.4-0.9-0.9c0-0.5,0.4-0.9,0.9-0.9
					C286.4,192.6,286.8,193,286.8,193.5L286.8,193.5z"/>
				<path class="st0" d="M237,263.3c0,0.5-0.5,0.9-1,0.9c-0.4,0-0.8-0.5-0.8-0.9c0-0.5,0.4-0.9,0.9-0.8
					C236.6,262.5,237,262.9,237,263.3L237,263.3z"/>
				<path class="st0" d="M137.3,273.2c0,0.5-0.5,0.9-1,0.8c-0.5,0-0.8-0.4-0.8-0.9c0-0.5,0.4-0.8,0.9-0.8
					C136.8,272.3,137.3,272.7,137.3,273.2L137.3,273.2z"/>
				<path class="st0" d="M217,273.2c0,0.5-0.4,0.9-0.9,0.9c-0.4,0-0.8-0.4-0.9-0.8c0-0.5,0.3-0.9,0.8-0.9
					C216.6,272.4,217,272.7,217,273.2L217,273.2z"/>
				<path class="st0" d="M291.8,168.6c0,0.5-0.4,0.8-0.8,0.9c-0.5,0-0.9-0.4-0.9-0.8c0-0.4,0.4-0.9,0.8-0.9
					C291.3,167.7,291.7,168.1,291.8,168.6L291.8,168.6z"/>
				<path class="st0" d="M276.8,223.4c0,0.4-0.4,0.9-0.9,0.8c-0.5,0-0.8-0.4-0.8-0.9c0-0.5,0.4-0.8,0.9-0.8
					C276.4,222.6,276.8,223,276.8,223.4L276.8,223.4z"/>
				<path class="st0" d="M152.2,278.1c0,0.5-0.4,0.9-0.8,0.9c-0.4,0-0.9-0.4-0.9-0.8c0-0.5,0.4-0.8,0.8-0.8
					C151.8,277.3,152.2,277.7,152.2,278.1L152.2,278.1z"/>
				<path class="st0" d="M286.9,133.7c0,0.5-0.4,0.8-0.9,0.8c-0.4,0-0.8-0.5-0.8-0.9c0-0.4,0.5-0.8,0.9-0.8
					C286.6,132.9,286.9,133.3,286.9,133.7L286.9,133.7z"/>
				<path class="st0" d="M202,278.2c0,0.5-0.4,0.8-0.8,0.8c-0.5,0-0.9-0.4-0.9-0.8c0-0.4,0.4-0.9,0.9-0.9
					C201.6,277.4,202,277.8,202,278.2L202,278.2z"/>
				<path class="st0" d="M121.4,267.4c0.4,0,0.8,0.4,0.8,0.9c0,0.4-0.4,0.7-0.8,0.7c-0.5,0-0.8-0.4-0.8-0.8
					C120.7,267.7,121,267.4,121.4,267.4L121.4,267.4z"/>
				<path class="st0" d="M281,117.9c0.4,0,0.8,0.3,0.8,0.7c0,0.5-0.3,0.9-0.8,0.9c-0.5,0-0.8-0.4-0.8-0.8
					C280.3,118.3,280.6,117.9,281,117.9z"/>
				<path class="st0" d="M291.7,178.5c0,0.4-0.4,0.8-0.9,0.8c-0.4,0-0.7-0.4-0.7-0.8c0-0.5,0.4-0.8,0.8-0.8
					C291.4,177.8,291.7,178.1,291.7,178.5L291.7,178.5z"/>
				<path class="st0" d="M256.1,83c0.4,0,0.9,0.4,0.9,0.8c0,0.4-0.3,0.8-0.8,0.8c-0.4,0-0.8-0.3-0.8-0.7
					C255.3,83.5,255.6,83,256.1,83L256.1,83z"/>
				<path class="st0" d="M231.1,267.5c0.4,0,0.8,0.4,0.8,0.8c0,0.5-0.4,0.8-0.8,0.8s-0.8-0.4-0.8-0.9
					C230.4,267.8,230.7,267.5,231.1,267.5L231.1,267.5z"/>
				<path class="st0" d="M291.7,158.6c0,0.4-0.4,0.9-0.8,0.9c-0.4,0-0.8-0.3-0.8-0.8c0-0.4,0.2-0.8,0.7-0.8
					C291.3,157.8,291.7,158.1,291.7,158.6z"/>
				<path class="st0" d="M261.9,88.8c0,0.5-0.3,0.9-0.8,0.9c-0.4,0-0.8-0.3-0.8-0.8c0-0.4,0.3-0.8,0.8-0.8
					C261.6,88,261.9,88.3,261.9,88.8L261.9,88.8z"/>
				<path class="st0" d="M266.9,93.8c0,0.4-0.4,0.7-0.8,0.7c-0.4,0-0.7-0.4-0.7-0.8c0-0.4,0.4-0.8,0.8-0.7
					C266.6,93.1,266.9,93.5,266.9,93.8L266.9,93.8z"/>
				<path class="st0" d="M286.7,203.5c0,0.4-0.3,0.7-0.8,0.7c-0.4,0-0.8-0.4-0.8-0.8c0-0.4,0.4-0.8,0.8-0.7
					C286.3,202.7,286.7,203.1,286.7,203.5L286.7,203.5z"/>
				<path class="st0" d="M291.8,148.7c0,0.4-0.4,0.8-0.8,0.7c-0.4,0-0.8-0.4-0.7-0.8c0-0.4,0.4-0.7,0.8-0.7
					C291.5,147.9,291.8,148.2,291.8,148.7L291.8,148.7z"/>
				<path class="st0" d="M251.2,79.6c-0.4,0-0.8-0.4-0.8-0.7c0-0.4,0.3-0.8,0.8-0.8c0.4,0,0.8,0.3,0.8,0.7
					C251.9,79.2,251.6,79.6,251.2,79.6L251.2,79.6z"/>
				<path class="st0" d="M281.9,218.5c-0.5,0.3-0.7,0.6-1,0.6c-0.4,0.1-0.7-0.2-0.7-0.7c0-0.4,0.4-0.8,0.8-0.7
					C281.3,217.8,281.5,218.1,281.9,218.5L281.9,218.5z"/>
				<path class="st0" d="M246.2,74.8c-0.3-0.4-0.6-0.7-0.7-1c-0.1-0.4,0.3-0.8,0.7-0.8c0.4,0.1,0.7,0.3,0.6,0.7
					C246.8,74.2,246.5,74.4,246.2,74.8L246.2,74.8z"/>
				<path class="st0" d="M141.4,277.1c0.3,0.5,0.6,0.7,0.6,1c0.1,0.4-0.2,0.7-0.7,0.7c-0.4,0-0.8-0.4-0.7-0.8
					C140.8,277.8,141.1,277.6,141.4,277.1L141.4,277.1z"/>
				<path class="st0" d="M272.1,98.8c-0.4,0.3-0.6,0.6-0.9,0.7c-0.4,0.1-0.8-0.3-0.8-0.7c0-0.4,0.3-0.7,0.7-0.7
					C271.4,98.1,271.6,98.4,272.1,98.8L272.1,98.8z"/>
				<path class="st0" d="M290.9,187.5c0.3,0.4,0.6,0.7,0.7,1c0.1,0.4-0.2,0.7-0.7,0.7c-0.4,0-0.9-0.4-0.7-0.8
					C290.3,188.2,290.6,187.9,290.9,187.5L290.9,187.5z"/>
				<path class="st0" d="M212.1,278.2c-0.4,0.3-0.7,0.6-0.9,0.7c-0.4,0.1-0.7-0.2-0.7-0.6c-0.1-0.4,0.3-0.9,0.7-0.8
					C211.5,277.6,211.7,277.9,212.1,278.2L212.1,278.2z"/>
				<path class="st0" d="M166.3,284.1c-0.3-0.4-0.7-0.6-0.7-0.9c-0.1-0.4,0.2-0.7,0.6-0.8c0.4-0.1,0.9,0.3,0.8,0.7
					C166.9,283.4,166.6,283.6,166.3,284.1L166.3,284.1z"/>
				<path class="st0" d="M177.2,283.1c-0.4,0.3-0.7,0.6-1,0.7c-0.4,0.1-0.7-0.2-0.7-0.7c0-0.4,0.4-0.9,0.8-0.7
					C176.6,282.5,176.8,282.8,177.2,283.1L177.2,283.1z"/>
				<path class="st0" d="M186.2,282.2c0.3,0.4,0.6,0.6,0.7,0.9c0.1,0.4-0.3,0.8-0.7,0.8c-0.4,0-0.7-0.3-0.7-0.7
					C185.6,283,185.9,282.7,186.2,282.2z"/>
				<path class="st0" d="M127.4,273.2c-0.5,0.3-0.7,0.5-1,0.6c-0.4,0-0.6-0.2-0.6-0.6c0-0.4,0.3-0.8,0.7-0.7
					C126.7,272.6,126.9,272.9,127.4,273.2L127.4,273.2z"/>
				<path class="st0" d="M226.2,272.6c0.4,0,0.7,0.4,0.6,0.7c-0.1,0.4-0.4,0.6-0.8,0.6c-0.4,0-0.6-0.3-0.6-0.7
					C225.5,272.9,225.8,272.6,226.2,272.6z"/>
				<path class="st0" d="M256.7,253.5c-0.2,0.1-0.4,0.4-0.7,0.4c-0.3,0.1-0.7-0.4-0.6-0.7s0.3-0.6,0.7-0.6
					C256.4,252.7,256.7,253,256.7,253.5L256.7,253.5z"/>
				<path class="st0" d="M261.1,247.4c0.3,0.5,0.5,0.7,0.6,1c0,0.4-0.2,0.6-0.6,0.6c-0.4,0-0.8-0.3-0.7-0.7
					C260.4,248,260.7,247.8,261.1,247.4L261.1,247.4z"/>
				<path class="st0" d="M241.4,68.2c0.1,0.2,0.4,0.4,0.4,0.7c0.1,0.3-0.4,0.7-0.7,0.6s-0.6-0.3-0.6-0.7
					C240.5,68.5,240.8,68.2,241.4,68.2L241.4,68.2z"/>
				<path class="st0" d="M291.9,138.6c-0.4,0.3-0.6,0.6-0.9,0.6c-0.4,0.1-0.6-0.2-0.6-0.6c0-0.4,0.2-0.7,0.6-0.6
					C291.3,138.1,291.5,138.4,291.9,138.6z"/>
				<path class="st0" d="M277,103.7c-0.4,0.3-0.6,0.6-0.9,0.7c-0.4,0.1-0.6-0.2-0.6-0.6s0.2-0.7,0.6-0.6
					C276.3,103.2,276.5,103.5,277,103.7z"/>
				<path class="st0" d="M196.2,284.1c-0.3-0.4-0.6-0.6-0.6-0.9c-0.1-0.4,0.2-0.6,0.6-0.6c0.4,0,0.7,0.2,0.6,0.6
					C196.8,283.5,196.5,283.7,196.2,284.1z"/>
				<path class="st0" d="M156.4,284c-0.3-0.4-0.6-0.6-0.7-0.9c-0.1-0.4,0.2-0.6,0.6-0.7c0.4,0,0.7,0.2,0.6,0.6
					C156.9,283.3,156.7,283.6,156.4,284L156.4,284z"/>
				<path class="st0" d="M266.9,243.3c-0.4,0.3-0.6,0.6-0.9,0.6c-0.4,0.1-0.6-0.2-0.6-0.6s0.2-0.7,0.6-0.6
					C266.2,242.8,266.5,243,266.9,243.3L266.9,243.3z"/>
				<path class="st0" d="M251.9,258.3c-0.4,0.3-0.7,0.5-0.9,0.6c-0.4,0.1-0.6-0.2-0.6-0.6c0-0.4,0.3-0.7,0.6-0.6
					C251.3,257.7,251.5,258,251.9,258.3L251.9,258.3z"/>
				<path class="st0" d="M286.9,123.6c-0.4,0.3-0.6,0.6-0.9,0.7c-0.4,0.1-0.6-0.2-0.7-0.6c0-0.4,0.2-0.7,0.6-0.6
					C286.3,123.2,286.5,123.4,286.9,123.6L286.9,123.6z"/>
				<path class="st0" d="M286.7,213.5c-0.4,0.2-0.6,0.5-0.8,0.4c-0.2,0-0.5-0.3-0.5-0.5c0-0.4,0.3-0.6,0.6-0.5
					C286.2,212.9,286.4,213.2,286.7,213.5L286.7,213.5z"/>
				<path class="st0" d="M291.7,198.5c-0.4,0.3-0.6,0.5-0.8,0.6c-0.4,0.1-0.6-0.2-0.6-0.6c0-0.4,0.3-0.6,0.6-0.5
					C291.2,198,291.4,198.2,291.7,198.5L291.7,198.5z"/>
				<path class="st0" d="M236.1,63.1c0.3,0.3,0.6,0.5,0.6,0.7c0.1,0.4-0.2,0.7-0.5,0.6c-0.2,0-0.5-0.3-0.5-0.5
					C235.6,63.7,235.9,63.5,236.1,63.1L236.1,63.1z"/>
				<path class="st0" d="M246.1,262.5c0.2,0.4,0.5,0.6,0.5,0.8s-0.3,0.5-0.5,0.5c-0.4,0.1-0.7-0.2-0.6-0.6
					C245.5,263,245.8,262.8,246.1,262.5z"/>
				<path class="st0" d="M271.8,238.3c-0.4,0.3-0.5,0.5-0.8,0.6c-0.4,0.1-0.6-0.2-0.6-0.6c0-0.2,0.3-0.5,0.5-0.5
					C271.2,237.8,271.4,238.1,271.8,238.3L271.8,238.3z"/>
				<path class="st0" d="M281,109.5c-0.2-0.4-0.5-0.6-0.5-0.8c0-0.2,0.3-0.4,0.5-0.4c0.3-0.1,0.6,0.2,0.5,0.6
					C281.5,109,281.3,109.2,281,109.5L281,109.5z"/>
				<path class="st0" d="M295.9,164.3c-0.3-0.3-0.5-0.5-0.5-0.8c0-0.2,0.3-0.4,0.5-0.5c0.3-0.1,0.6,0.2,0.5,0.5
					C296.4,163.8,296.2,164,295.9,164.3z"/>
				<path class="st0" d="M147.1,283.1c-0.3,0.3-0.5,0.5-0.8,0.5c-0.2,0-0.4-0.3-0.5-0.5c-0.1-0.3,0.2-0.6,0.5-0.5
					C146.5,282.6,146.7,282.8,147.1,283.1L147.1,283.1z"/>
				<path class="st0" d="M221.1,277.5c0.3,0.3,0.5,0.5,0.5,0.8c0,0.2-0.3,0.5-0.4,0.5c-0.3,0.1-0.6-0.2-0.6-0.5
					C220.6,278,220.8,277.9,221.1,277.5z"/>
				<path class="st0" d="M276.7,233.4c-0.3,0.2-0.5,0.4-0.6,0.5c-0.3,0.1-0.6-0.2-0.5-0.5c0-0.2,0.3-0.4,0.6-0.5
					C276.2,232.9,276.4,233.1,276.7,233.4L276.7,233.4z"/>
				<path class="st0" d="M206.9,283.2c-0.3,0.2-0.4,0.4-0.6,0.5c-0.3,0.1-0.6-0.2-0.6-0.5c0-0.2,0.4-0.4,0.6-0.5
					C206.4,282.7,206.6,283,206.9,283.2L206.9,283.2z"/>
				<path class="st0" d="M112.2,268.2c-0.4,0.2-0.5,0.4-0.8,0.5c-0.3,0-0.6-0.2-0.5-0.5c0.1-0.2,0.3-0.5,0.5-0.5
					C111.7,267.7,111.9,267.9,112.2,268.2L112.2,268.2z"/>
				<path class="st0" d="M131.4,277.4c0.2,0.4,0.4,0.6,0.5,0.8c0,0.1-0.3,0.4-0.5,0.4c-0.3,0-0.6-0.2-0.5-0.5
					C131,277.9,131.2,277.7,131.4,277.4L131.4,277.4z"/>
				<path class="st0" d="M296.6,173.6c-0.3,0.2-0.5,0.4-0.6,0.5c-0.3,0.1-0.6-0.2-0.5-0.5c0-0.2,0.3-0.4,0.6-0.5
					C296.1,173,296.3,173.3,296.6,173.6L296.6,173.6z"/>
				<path class="st0" d="M281,229c-0.2-0.3-0.4-0.4-0.5-0.6c0-0.1,0.2-0.3,0.4-0.4c0.2,0.1,0.4,0.3,0.5,0.5
					C281.4,228.5,281.2,228.7,281,229L281,229z"/>
				<path class="st0" d="M171.1,288.6c-0.1-0.2-0.3-0.4-0.3-0.6c0-0.1,0.4-0.4,0.4-0.3c0.2,0.1,0.4,0.3,0.4,0.5
					c0,0.2-0.2,0.4-0.3,0.5C171.3,288.7,171.2,288.7,171.1,288.6L171.1,288.6z"/>
				<path class="st0" d="M181.3,287.5c0.2,0.3,0.4,0.5,0.4,0.6c-0.1,0.2-0.3,0.3-0.5,0.5c-0.1-0.1-0.4-0.3-0.4-0.4
					C180.8,287.9,181.1,287.8,181.3,287.5L181.3,287.5z"/>
				<path class="st0" d="M295.4,153.5c0.2-0.1,0.4-0.3,0.6-0.2c0.2,0,0.4,0.2,0.5,0.4c0,0.1-0.2,0.4-0.3,0.4c-0.2,0-0.4-0.2-0.6-0.3
					C295.4,153.7,295.4,153.6,295.4,153.5z"/>
				<path class="st0" d="M295.9,182.9c0.2,0.3,0.4,0.5,0.4,0.6c0,0.1-0.2,0.3-0.4,0.4c-0.2-0.2-0.4-0.3-0.5-0.5
					C295.4,183.4,295.7,183.2,295.9,182.9L295.9,182.9z"/>
				<path class="st0" d="M291.7,128.6c-0.3,0.2-0.4,0.5-0.6,0.4c-0.2,0-0.4-0.2-0.5-0.4c0-0.1,0.2-0.4,0.4-0.4
					C291.2,128.3,291.3,128.5,291.7,128.6L291.7,128.6z"/>
				<path class="st0" d="M241.6,268.2c-0.2,0.2-0.4,0.5-0.5,0.5c-0.2,0-0.4-0.2-0.6-0.4c0.2-0.2,0.3-0.4,0.5-0.5
					C241.2,267.8,241.4,268.1,241.6,268.2L241.6,268.2z"/>
				<path class="st0" d="M231.9,58.9c-0.4,0.2-0.6,0.4-0.8,0.4c-0.1,0-0.3-0.3-0.3-0.4c0-0.2,0.2-0.4,0.4-0.4
					C231.4,58.5,231.5,58.7,231.9,58.9L231.9,58.9z"/>
				<path class="st0" d="M236.6,273.2c-0.2,0.2-0.4,0.4-0.6,0.4s-0.3-0.2-0.3-0.4c0-0.1,0.2-0.3,0.3-0.3
					C236.2,272.9,236.4,273.1,236.6,273.2L236.6,273.2z"/>
				<path class="st0" d="M161.3,288.6c-0.2-0.2-0.4-0.4-0.4-0.6c0-0.1,0.2-0.3,0.4-0.3c0.1,0,0.3,0.2,0.3,0.3
					C161.6,288.2,161.5,288.4,161.3,288.6L161.3,288.6z"/>
				<path class="st0" d="M191.7,288.2c-0.3,0.1-0.4,0.3-0.6,0.3c-0.1,0-0.3-0.3-0.3-0.3c0.1-0.2,0.2-0.4,0.4-0.4
					C191.3,287.8,191.5,288.1,191.7,288.2L191.7,288.2z"/>
				<path class="st0" d="M286,114.3c-0.2-0.3-0.4-0.5-0.3-0.6c0-0.1,0.3-0.3,0.5-0.3c0.1,0,0.3,0.3,0.3,0.4
					C286.4,113.9,286.2,114,286,114.3z"/>
				<path class="st0" d="M296.5,143.7c-0.3,0.2-0.5,0.4-0.6,0.3c-0.1,0-0.3-0.3-0.3-0.4c0-0.1,0.2-0.3,0.4-0.3
					C296.2,143.3,296.3,143.5,296.5,143.7z"/>
				<path class="st0" d="M266.6,83.8c-0.2,0.2-0.4,0.4-0.5,0.4c-0.1,0-0.3-0.2-0.4-0.4c0-0.1,0.2-0.3,0.3-0.3
					C266.2,83.5,266.4,83.6,266.6,83.8L266.6,83.8z"/>
				<path class="st0" d="M261.1,78.3c0.2,0.2,0.4,0.4,0.4,0.5c0,0.1-0.2,0.3-0.4,0.4c-0.1,0-0.3-0.2-0.3-0.3
					C260.8,78.8,260.9,78.6,261.1,78.3z"/>
				<path class="st0" d="M255.6,73.9c0.2-0.2,0.4-0.4,0.5-0.4c0.1,0,0.4,0.2,0.4,0.3c0,0.2-0.1,0.4-0.3,0.5S255.9,74.1,255.6,73.9
					L255.6,73.9z"/>
				<path class="st0" d="M290.9,207.9c0.2,0.2,0.4,0.4,0.4,0.5c0,0.1-0.2,0.4-0.3,0.4c-0.2,0-0.4-0.2-0.5-0.3
					C290.5,208.4,290.7,208.2,290.9,207.9L290.9,207.9z"/>
				<path class="st0" d="M117,273.2c-0.3,0.2-0.4,0.3-0.6,0.3c-0.1,0-0.3-0.2-0.3-0.3c0.1-0.2,0.2-0.4,0.3-0.4S116.7,273,117,273.2
					L117,273.2z"/>
				<path class="st0" d="M295.9,193c0.2,0.3,0.4,0.4,0.3,0.6c0,0.1-0.3,0.3-0.4,0.3c-0.1,0-0.3-0.2-0.3-0.4
					C295.6,193.3,295.7,193.2,295.9,193L295.9,193z"/>
				<path class="st0" d="M251.2,68.5c0.1,0.2,0.2,0.3,0.2,0.4c0,0.1-0.2,0.2-0.3,0.3c-0.1-0.1-0.2-0.2-0.3-0.4
					C250.8,68.8,251,68.7,251.2,68.5L251.2,68.5z"/>
				<path class="st0" d="M291.3,118.9c-0.1,0.1-0.2,0.2-0.3,0.2c-0.1-0.1-0.2-0.2-0.2-0.3c0-0.1,0.2-0.2,0.3-0.2
					c0.1,0,0.3,0.1,0.4,0.1C291.4,118.7,291.3,118.8,291.3,118.9L291.3,118.9z"/>
				<path class="st0" d="M226.2,53.5c0.1,0.2,0.3,0.3,0.3,0.4c-0.1,0.1-0.2,0.2-0.3,0.3c-0.1-0.1-0.2-0.2-0.2-0.3
					C226,53.8,226.1,53.7,226.2,53.5z"/>
				<path class="st0" d="M276.1,93.4c0.1,0.2,0.3,0.3,0.3,0.4c-0.1,0.1-0.2,0.2-0.3,0.3c-0.1-0.1-0.2-0.2-0.2-0.3
					C275.8,93.7,275.9,93.6,276.1,93.4L276.1,93.4z"/>
				<path class="st0" d="M231.2,277.9c0.1,0.1,0.2,0.3,0.2,0.3c-0.1,0.1-0.2,0.2-0.4,0.3c-0.1-0.1-0.2-0.2-0.2-0.4
					c0-0.1,0.1-0.3,0.1-0.4C231,277.8,231.1,277.9,231.2,277.9z"/>
				<path class="st0" d="M271.1,88.4c0.1,0.2,0.2,0.3,0.2,0.4c0,0.1-0.2,0.2-0.3,0.3c-0.1-0.1-0.2-0.2-0.3-0.4
					C270.8,88.7,271,88.6,271.1,88.4L271.1,88.4z"/>
				<path class="st0" d="M246.1,63.5c0.2,0.2,0.3,0.3,0.4,0.5c0,0-0.2,0.2-0.3,0.2c-0.1,0-0.2-0.1-0.3-0.2
					C245.9,63.8,246,63.7,246.1,63.5z"/>
				<path class="st0" d="M296.4,133.7c-0.2,0.1-0.3,0.3-0.4,0.3c-0.1,0-0.2-0.1-0.3-0.2c0.1-0.1,0.2-0.3,0.3-0.4
					C296.1,133.4,296.3,133.5,296.4,133.7z"/>
				<path class="st0" d="M286.4,223.6c-0.1,0-0.3,0.1-0.4,0.1c-0.1,0-0.2-0.1-0.4-0.2c0.1-0.1,0.2-0.3,0.3-0.4c0,0,0.2,0.1,0.3,0.2
					C286.3,223.4,286.4,223.5,286.4,223.6L286.4,223.6z"/>
				<path class="st0" d="M136.7,283.2c-0.1,0.1-0.3,0.2-0.3,0.2c-0.1-0.1-0.2-0.2-0.3-0.4c0.1-0.1,0.2-0.2,0.4-0.2
					c0.1,0,0.3,0.1,0.4,0.1C136.8,283,136.8,283.1,136.7,283.2L136.7,283.2z"/>
				<path class="st0" d="M216.5,283.4c-0.2,0-0.4,0.1-0.4,0.1c-0.1,0-0.1-0.2-0.2-0.3c0.1-0.1,0.3-0.2,0.4-0.2
					C216.3,283,216.4,283.2,216.5,283.4L216.5,283.4z"/>
				<path class="st0" d="M151.4,287.7c0.1,0.2,0.3,0.4,0.2,0.4c-0.1,0.1-0.2,0.2-0.4,0.3c-0.1-0.1-0.2-0.2-0.2-0.3
					C151.1,287.9,151.2,287.9,151.4,287.7z"/>
				<path class="st0" d="M121.3,278.6c0-0.1-0.1-0.3-0.1-0.4c0-0.1,0.1-0.2,0.2-0.4c0.1,0.1,0.3,0.2,0.4,0.3c0,0-0.1,0.2-0.2,0.3
					C121.4,278.5,121.3,278.6,121.3,278.6z"/>
				<path class="st0" d="M201.6,288.2c-0.2,0.1-0.3,0.3-0.4,0.3c-0.1-0.1-0.2-0.2-0.3-0.3c0.1-0.1,0.2-0.2,0.3-0.2
					C201.3,287.9,201.4,288.1,201.6,288.2L201.6,288.2z"/>
			</g>
			
				<linearGradient id="SVGID_1_" gradientUnits="userSpaceOnUse" x1="10.75" y1="219.2625" x2="255.6892" y2="219.2625" gradientTransform="matrix(1 0 0 -1 0 300)">
				<stop  offset="0" style="stop-color:#FFFFFF"/>
				<stop  offset="1" style="stop-color:#00A585;stop-opacity:0"/>
			</linearGradient>
			<path class="st4" d="M11.4,150.4C11.4,73.8,73.4,11.7,150,11.7c42.1,0,79.8,18.8,105.2,48.4"/>
			
				<linearGradient id="SVGID_00000134960671559023843700000001140676925777678010_" gradientUnits="userSpaceOnUse" x1="1.28" y1="205.0682" x2="149.995" y2="205.0682" gradientTransform="matrix(1 0 0 -1 0 300)">
				<stop  offset="0" style="stop-color:#02A180;stop-opacity:0"/>
				<stop  offset="1" style="stop-color:#FFFFFF"/>
			</linearGradient>
			
				<path style="fill:none;stroke:url(#SVGID_00000134960671559023843700000001140676925777678010_);stroke-width:1.25;stroke-miterlimit:10;" d="
				M6.7,188.1c-3.2-12-4.8-24.7-4.8-37.7C1.9,68.6,68.2,2.3,150,2.3"/>
			<g>
				<g class="st6">
					<g class="st6">
						<path d="M150,21.4c-75.3,0-136.4,61-136.4,136.4S74.7,294.1,150,294.1s136.4-61.1,136.4-136.4S225.3,21.4,150,21.4z
							 M150,272.2c-67.3,0-121.9-54.6-121.9-121.9S82.7,28.5,150,28.5s121.9,54.6,121.9,121.9S217.3,272.2,150,272.2z"/>
					</g>
				</g>
				<circle class="st7" cx="150" cy="150.4" r="121.9"/>
			</g>
		</g>
	</g>
</g>
<g>
	<g>
		
			<linearGradient id="SVGID_00000083793782691660737470000000590246092407269526_" gradientUnits="userSpaceOnUse" x1="2.775" y1="29.61" x2="74.085" y2="29.61" gradientTransform="matrix(1 0 0 -1 0 300)">
			<stop  offset="0" style="stop-color:#00283E"/>
			<stop  offset="1" style="stop-color:#00101A"/>
		</linearGradient>
		<polygon style="fill:url(#SVGID_00000083793782691660737470000000590246092407269526_);" points="2.8,297.7 74.1,267.3 
			74.1,243.1 2.8,273.5 		"/>
		<polygon class="st9" points="2.8,273.5 100.2,273.5 89.3,285.6 100.2,297.7 2.8,297.7 		"/>
		
			<linearGradient id="SVGID_00000023988603147648314120000004946501373711711880_" gradientUnits="userSpaceOnUse" x1="2.375" y1="60.02" x2="95.595" y2="60.02" gradientTransform="matrix(1 0 0 -1 0 300)">
			<stop  offset="0" style="stop-color:#00283E"/>
			<stop  offset="1" style="stop-color:#00101A"/>
		</linearGradient>
		<polygon style="fill:url(#SVGID_00000023988603147648314120000004946501373711711880_);" points="95.6,212.7 2.4,243.1 2.4,267.3 
			95.6,236.9 		"/>
		<polygon class="st9" points="95.6,236.9 2.2,236.9 13.1,224.8 2.2,212.7 95.6,212.7 		"/>
		<rect x="2.4" y="243.1" class="st9" width="71.7" height="24.2"/>
	</g>
	<g>
		<path class="st11" d="M27.5,223.7l-0.2,1.8H29v2.1h-2l-0.2,1.9h-2.3l0.2-1.9h-1.4l-0.2,1.9h-2.3l0.2-1.9h-1.7v-2.1h2l0.2-1.8h-1.7
			v-2.1h2l0.2-1.9h2.3l-0.2,1.9h1.4l0.2-1.9H28l-0.2,1.9h1.7v2.1H27.5z M25.3,223.7h-1.4l-0.2,1.8h1.4L25.3,223.7z"/>
		<path class="st11" d="M29.9,228.7l1.1-2.4c0.9,0.6,2.2,0.9,3.3,0.9c1,0,1.3-0.2,1.3-0.5c0-1.2-5.5-0.2-5.5-3.9
			c0-1.8,1.5-3.3,4.6-3.3c1.3,0,2.7,0.3,3.7,0.9l-1,2.4c-1-0.5-1.9-0.7-2.8-0.7c-1,0-1.3,0.3-1.3,0.6c0,1.2,5.5,0.2,5.5,3.9
			c0,1.8-1.5,3.3-4.6,3.3C32.5,229.8,30.9,229.4,29.9,228.7L29.9,228.7z"/>
		<path class="st11" d="M39.4,224.6c0-3,2.4-5.2,5.6-5.2s5.6,2.2,5.6,5.2s-2.4,5.2-5.6,5.2S39.4,227.6,39.4,224.6z M47.2,224.6
			c0-1.5-1-2.5-2.2-2.5s-2.2,0.9-2.2,2.5s1,2.5,2.2,2.5S47.2,226.1,47.2,224.6z"/>
		<path class="st11" d="M60.6,229.5l0-4.5l-2.2,3.6H57l-2.2-3.5v4.4h-3v-9.9h2.7l3.2,5.3l3.1-5.3h2.7l0,9.9L60.6,229.5L60.6,229.5z"
			/>
		<path class="st11" d="M64.9,224.6c0-3,2.4-5.2,5.6-5.2s5.6,2.2,5.6,5.2s-2.4,5.2-5.6,5.2S64.9,227.6,64.9,224.6z M72.7,224.6
			c0-1.5-1-2.5-2.2-2.5s-2.2,0.9-2.2,2.5s1,2.5,2.2,2.5S72.7,226.1,72.7,224.6z"/>
		<path class="st11" d="M76.7,228.7l1.1-2.4c0.9,0.6,2.2,0.9,3.3,0.9c0.9,0,1.3-0.2,1.3-0.5c0-1.2-5.5-0.2-5.5-3.9
			c0-1.8,1.5-3.3,4.6-3.3c1.3,0,2.7,0.3,3.7,0.9l-1,2.4c-1-0.5-1.9-0.7-2.8-0.7c-1,0-1.3,0.3-1.3,0.6c0,1.2,5.5,0.2,5.5,3.9
			c0,1.8-1.5,3.3-4.6,3.3C79.3,229.8,77.7,229.4,76.7,228.7L76.7,228.7z"/>
	</g>
	<g>
		<path class="st12" d="M12.6,254H9.7v-2.6h9.1v2.6H16v7.3h-3.3C12.6,261.3,12.6,254,12.6,254z"/>
		<path class="st12" d="M19.2,256.4c0-3,2.4-5.2,5.6-5.2s5.6,2.2,5.6,5.2c0,3-2.4,5.2-5.6,5.2S19.2,259.4,19.2,256.4L19.2,256.4z
			 M27,256.4c0-1.5-1-2.5-2.2-2.5s-2.2,0.9-2.2,2.5s1,2.5,2.2,2.5S27,257.9,27,256.4z"/>
		<path class="st12" d="M31.6,251.4h4.9c3.3,0,5.6,1.9,5.6,4.9c0,3.1-2.3,4.9-5.6,4.9h-4.9V251.4z M36.3,258.7
			c1.4,0,2.4-0.8,2.4-2.4c0-1.5-1-2.3-2.4-2.3h-1.4v4.7H36.3z"/>
		<path class="st12" d="M42.9,256.4c0-3,2.4-5.2,5.6-5.2s5.6,2.2,5.6,5.2c0,3-2.4,5.2-5.6,5.2S42.9,259.4,42.9,256.4L42.9,256.4z
			 M50.7,256.4c0-1.5-1-2.5-2.2-2.5s-2.2,0.9-2.2,2.5s1,2.5,2.2,2.5S50.7,257.9,50.7,256.4z"/>
		<path class="st12" d="M54.6,260.5l1.1-2.4c0.9,0.5,2.2,0.9,3.3,0.9c1,0,1.3-0.2,1.3-0.5c0-1.2-5.5-0.2-5.5-3.9
			c0-1.8,1.5-3.3,4.6-3.3c1.3,0,2.7,0.3,3.7,0.9l-1,2.4c-1-0.5-1.9-0.7-2.8-0.7c-1,0-1.3,0.3-1.3,0.6c0,1.2,5.5,0.2,5.5,3.8
			c0,1.8-1.5,3.3-4.6,3.3C57.3,261.5,55.6,261.1,54.6,260.5L54.6,260.5z"/>
	</g>
	<g>
		<path class="st13" d="M20.7,288.8v2.5h-8.2v-9.9h8.1v2.5h-4.8v1.2h4.2v2.4h-4.2v1.3L20.7,288.8L20.7,288.8z"/>
		<path class="st13" d="M22,281.5h3.3v9.9H22V281.5z"/>
		<path class="st13" d="M36.7,281.5v9.9h-2.7l-3.8-4.5v4.5h-3.2v-9.9h2.7l3.8,4.5v-4.5H36.7z"/>
		<path class="st13" d="M37.7,290.6l1.1-2.4c0.9,0.5,2.2,0.9,3.3,0.9c1,0,1.3-0.2,1.3-0.5c0-1.2-5.5-0.2-5.5-3.9
			c0-1.8,1.5-3.3,4.6-3.3c1.3,0,2.7,0.3,3.7,0.9l-1,2.4c-1-0.5-1.9-0.7-2.8-0.7c-1,0-1.3,0.3-1.3,0.6c0,1.2,5.5,0.2,5.5,3.9
			c0,1.8-1.5,3.3-4.6,3.3C40.3,291.6,38.7,291.2,37.7,290.6L37.7,290.6z"/>
		<path class="st13" d="M49.6,284h-2.9v-2.6h9.1v2.6h-2.9v7.3h-3.3C49.6,291.4,49.6,284,49.6,284z"/>
		<path class="st13" d="M64.9,288.8v2.5h-8.2v-9.9h8v2.5H60v1.2h4.2v2.4H60v1.3L64.9,288.8L64.9,288.8z"/>
		<path class="st13" d="M66.2,281.5h3.3v9.9h-3.3V281.5z"/>
		<path class="st13" d="M80.9,281.5v9.9h-2.7l-3.8-4.5v4.5h-3.2v-9.9h2.7l3.8,4.5v-4.5H80.9z"/>
	</g>
</g>
</svg>
