<?xml version="1.0" encoding="UTF-8"?>
<svg id="Layer_1" data-name="Layer 1" xmlns="http://www.w3.org/2000/svg" xmlns:xlink="http://www.w3.org/1999/xlink" viewBox="0 0 300 300">
  <defs>
    <style>
      .cls-1 {
        fill: #5bc6e8;
      }

      .cls-1, .cls-2, .cls-3, .cls-4, .cls-5, .cls-6, .cls-7, .cls-8, .cls-9 {
        stroke-width: 0px;
      }

      .cls-2 {
        fill: url(#linear-gradient);
      }

      .cls-3 {
        fill: #00a3e0;
      }

      .cls-4 {
        fill: #02a180;
      }

      .cls-5, .cls-7 {
        fill: #fff;
      }

      .cls-6 {
        fill: #62c8cd;
      }

      .cls-7 {
        fill-rule: evenodd;
      }

      .cls-8 {
        fill: #e17000;
      }

      .cls-9 {
        fill: #c70777;
      }
    </style>
    <linearGradient id="linear-gradient" x1="259.17" y1="55.04" x2="3.93" y2="277.07" gradientUnits="userSpaceOnUse">
      <stop offset="0" stop-color="#00283e"/>
      <stop offset="1" stop-color="#00101a"/>
    </linearGradient>
  </defs>
  <path class="cls-8" d="m0,0v300h300V0H0Zm150,268.6c-65.5,0-118.6-53.1-118.6-118.6S84.5,31.4,150,31.4s118.6,53.1,118.6,118.6-53.1,118.6-118.6,118.6Z"/>
  <path class="cls-2" d="m6.67,6.67v286.67h286.67V6.67H6.67Zm143.33,257.39c-62.99,0-114.06-51.07-114.06-114.06s51.07-114.06,114.06-114.06,114.06,51.07,114.06,114.06-51.07,114.06-114.06,114.06Z"/>
  <g>
    <path class="cls-3" d="m147.82,35.58c-68.63,0-124.27,55.64-124.27,124.27s55.64,124.27,124.27,124.27,124.27-55.64,124.27-124.27-55.64-124.27-124.27-124.27Zm2.18,228.48c-62.99,0-114.06-51.07-114.06-114.06s51.07-114.06,114.06-114.06,114.06,51.07,114.06,114.06-51.07,114.06-114.06,114.06Z"/>
    <path class="cls-3" d="m150,25.73c-68.63,0-124.27,55.64-124.27,124.27s55.64,124.27,124.27,124.27,124.27-55.64,124.27-124.27S218.63,25.73,150,25.73Zm0,238.33c-62.99,0-114.06-51.07-114.06-114.06s51.07-114.06,114.06-114.06,114.06,51.07,114.06,114.06-51.07,114.06-114.06,114.06Z"/>
  </g>
  <g>
    <path class="cls-6" d="m234.95,157.84c.27,0,.48-.22.48-.48s-.22-.48-.48-.48-.48.22-.48.48.22.48.48.48Z"/>
    <path class="cls-6" d="m239.18,157.84c.27,0,.48-.22.48-.48s-.22-.48-.48-.48-.48.22-.48.48.22.48.48.48Z"/>
    <path class="cls-6" d="m243.4,157.84c.27,0,.48-.22.48-.48s-.22-.48-.48-.48-.48.22-.48.48.22.48.48.48Z"/>
    <path class="cls-6" d="m247.63,157.84c.27,0,.48-.22.48-.48s-.22-.48-.48-.48-.48.22-.48.48.22.48.48.48Z"/>
    <path class="cls-6" d="m251.86,157.84c.27,0,.48-.22.48-.48s-.22-.48-.48-.48-.48.22-.48.48.22.48.48.48Z"/>
    <path class="cls-6" d="m256.09,157.84c.27,0,.48-.22.48-.48s-.22-.48-.48-.48-.48.22-.48.48.22.48.48.48Z"/>
    <path class="cls-6" d="m260.31,157.84c.27,0,.48-.22.48-.48s-.22-.48-.48-.48-.48.22-.48.48.22.48.48.48Z"/>
    <path class="cls-6" d="m264.54,157.84c.27,0,.48-.22.48-.48s-.22-.48-.48-.48-.48.22-.48.48.22.48.48.48Z"/>
    <path class="cls-6" d="m268.77,157.84c.27,0,.48-.22.48-.48s-.22-.48-.48-.48-.48.22-.48.48.22.48.48.48Z"/>
    <path class="cls-6" d="m273,157.84c.27,0,.48-.22.48-.48s-.22-.48-.48-.48-.48.22-.48.48.22.48.48.48Z"/>
    <path class="cls-6" d="m234.95,162.06c.27,0,.48-.22.48-.48s-.22-.48-.48-.48-.48.22-.48.48.22.48.48.48Z"/>
    <path class="cls-6" d="m239.18,162.06c.27,0,.48-.22.48-.48s-.22-.48-.48-.48-.48.22-.48.48.22.48.48.48Z"/>
    <path class="cls-6" d="m243.4,162.06c.27,0,.48-.22.48-.48s-.22-.48-.48-.48-.48.22-.48.48.22.48.48.48Z"/>
    <circle class="cls-6" cx="247.63" cy="161.58" r=".48"/>
    <path class="cls-6" d="m251.86,162.06c.27,0,.48-.22.48-.48s-.22-.48-.48-.48-.48.22-.48.48.22.48.48.48Z"/>
    <path class="cls-6" d="m256.09,162.06c.27,0,.48-.22.48-.48s-.22-.48-.48-.48-.48.22-.48.48.22.48.48.48Z"/>
    <path class="cls-6" d="m260.31,162.06c.27,0,.48-.22.48-.48s-.22-.48-.48-.48-.48.22-.48.48.22.48.48.48Z"/>
    <path class="cls-6" d="m264.54,162.06c.27,0,.48-.22.48-.48s-.22-.48-.48-.48-.48.22-.48.48.22.48.48.48Z"/>
    <circle class="cls-6" cx="268.77" cy="161.58" r=".48"/>
    <path class="cls-6" d="m273,162.06c.27,0,.48-.22.48-.48s-.22-.48-.48-.48-.48.22-.48.48.22.48.48.48Z"/>
    <path class="cls-6" d="m234.95,166.29c.27,0,.48-.22.48-.48s-.22-.48-.48-.48-.48.22-.48.48.22.48.48.48Z"/>
    <path class="cls-6" d="m239.18,166.29c.27,0,.48-.22.48-.48s-.22-.48-.48-.48-.48.22-.48.48.22.48.48.48Z"/>
    <path class="cls-6" d="m243.4,166.29c.27,0,.48-.22.48-.48s-.22-.48-.48-.48-.48.22-.48.48.22.48.48.48Z"/>
    <path class="cls-6" d="m247.63,166.29c.27,0,.48-.22.48-.48s-.22-.48-.48-.48-.48.22-.48.48.22.48.48.48Z"/>
    <path class="cls-6" d="m251.86,166.29c.27,0,.48-.22.48-.48s-.22-.48-.48-.48-.48.22-.48.48.22.48.48.48Z"/>
    <path class="cls-6" d="m256.09,166.29c.27,0,.48-.22.48-.48s-.22-.48-.48-.48-.48.22-.48.48.22.48.48.48Z"/>
    <path class="cls-6" d="m260.31,166.29c.27,0,.48-.22.48-.48s-.22-.48-.48-.48-.48.22-.48.48.22.48.48.48Z"/>
    <path class="cls-6" d="m264.54,166.29c.27,0,.48-.22.48-.48s-.22-.48-.48-.48-.48.22-.48.48.22.48.48.48Z"/>
    <path class="cls-6" d="m268.77,166.29c.27,0,.48-.22.48-.48s-.22-.48-.48-.48-.48.22-.48.48.22.48.48.48Z"/>
    <path class="cls-6" d="m273,166.29c.27,0,.48-.22.48-.48s-.22-.48-.48-.48-.48.22-.48.48.22.48.48.48Z"/>
    <path class="cls-6" d="m234.95,170.52c.27,0,.48-.22.48-.48s-.22-.48-.48-.48-.48.22-.48.48.22.48.48.48Z"/>
    <path class="cls-6" d="m239.18,170.52c.27,0,.48-.22.48-.48s-.22-.48-.48-.48-.48.22-.48.48.22.48.48.48Z"/>
    <path class="cls-6" d="m243.4,170.52c.27,0,.48-.22.48-.48s-.22-.48-.48-.48-.48.22-.48.48.22.48.48.48Z"/>
    <path class="cls-6" d="m247.63,170.52c.27,0,.48-.22.48-.48s-.22-.48-.48-.48-.48.22-.48.48.22.48.48.48Z"/>
    <path class="cls-6" d="m251.86,170.52c.27,0,.48-.22.48-.48s-.22-.48-.48-.48-.48.22-.48.48.22.48.48.48Z"/>
    <path class="cls-6" d="m256.09,170.52c.27,0,.48-.22.48-.48s-.22-.48-.48-.48-.48.22-.48.48.22.48.48.48Z"/>
    <path class="cls-6" d="m260.31,170.52c.27,0,.48-.22.48-.48s-.22-.48-.48-.48-.48.22-.48.48.22.48.48.48Z"/>
    <path class="cls-6" d="m264.54,170.52c.27,0,.48-.22.48-.48s-.22-.48-.48-.48-.48.22-.48.48.22.48.48.48Z"/>
    <path class="cls-6" d="m268.77,170.52c.27,0,.48-.22.48-.48s-.22-.48-.48-.48-.48.22-.48.48.22.48.48.48Z"/>
    <path class="cls-6" d="m273,170.52c.27,0,.48-.22.48-.48s-.22-.48-.48-.48-.48.22-.48.48.22.48.48.48Z"/>
    <path class="cls-6" d="m234.95,174.75c.27,0,.48-.22.48-.48s-.22-.48-.48-.48-.48.22-.48.48.22.48.48.48Z"/>
    <path class="cls-6" d="m239.18,174.75c.27,0,.48-.22.48-.48s-.22-.48-.48-.48-.48.22-.48.48.22.48.48.48Z"/>
    <path class="cls-6" d="m243.4,174.75c.27,0,.48-.22.48-.48s-.22-.48-.48-.48-.48.22-.48.48.22.48.48.48Z"/>
    <path class="cls-6" d="m247.63,174.75c.27,0,.48-.22.48-.48s-.22-.48-.48-.48-.48.22-.48.48.22.48.48.48Z"/>
    <path class="cls-6" d="m251.86,174.75c.27,0,.48-.22.48-.48s-.22-.48-.48-.48-.48.22-.48.48.22.48.48.48Z"/>
    <path class="cls-6" d="m256.09,174.75c.27,0,.48-.22.48-.48s-.22-.48-.48-.48-.48.22-.48.48.22.48.48.48Z"/>
    <path class="cls-6" d="m260.31,174.75c.27,0,.48-.22.48-.48s-.22-.48-.48-.48-.48.22-.48.48.22.48.48.48Z"/>
    <path class="cls-6" d="m264.54,174.75c.27,0,.48-.22.48-.48s-.22-.48-.48-.48-.48.22-.48.48.22.48.48.48Z"/>
    <path class="cls-6" d="m268.77,174.75c.27,0,.48-.22.48-.48s-.22-.48-.48-.48-.48.22-.48.48.22.48.48.48Z"/>
    <path class="cls-6" d="m273,174.75c.27,0,.48-.22.48-.48s-.22-.48-.48-.48-.48.22-.48.48.22.48.48.48Z"/>
    <path class="cls-6" d="m234.95,178.97c.27,0,.48-.22.48-.48s-.22-.48-.48-.48-.48.22-.48.48.22.48.48.48Z"/>
    <path class="cls-6" d="m239.18,178.97c.27,0,.48-.22.48-.48s-.22-.48-.48-.48-.48.22-.48.48.22.48.48.48Z"/>
    <path class="cls-6" d="m243.4,178.97c.27,0,.48-.22.48-.48s-.22-.48-.48-.48-.48.22-.48.48.22.48.48.48Z"/>
    <path class="cls-6" d="m247.63,178.97c.27,0,.48-.22.48-.48s-.22-.48-.48-.48-.48.22-.48.48.22.48.48.48Z"/>
    <path class="cls-6" d="m251.86,178.97c.27,0,.48-.22.48-.48s-.22-.48-.48-.48-.48.22-.48.48.22.48.48.48Z"/>
    <path class="cls-6" d="m256.09,178.97c.27,0,.48-.22.48-.48s-.22-.48-.48-.48-.48.22-.48.48.22.48.48.48Z"/>
    <path class="cls-6" d="m260.31,178.97c.27,0,.48-.22.48-.48s-.22-.48-.48-.48-.48.22-.48.48.22.48.48.48Z"/>
    <path class="cls-6" d="m264.54,178.97c.27,0,.48-.22.48-.48s-.22-.48-.48-.48-.48.22-.48.48.22.48.48.48Z"/>
    <path class="cls-6" d="m268.77,178.97c.27,0,.48-.22.48-.48s-.22-.48-.48-.48-.48.22-.48.48.22.48.48.48Z"/>
    <path class="cls-6" d="m273,178.97c.27,0,.48-.22.48-.48s-.22-.48-.48-.48-.48.22-.48.48.22.48.48.48Z"/>
    <path class="cls-6" d="m234.95,183.2c.27,0,.48-.22.48-.48s-.22-.48-.48-.48-.48.22-.48.48.22.48.48.48Z"/>
    <path class="cls-6" d="m239.18,183.2c.27,0,.48-.22.48-.48s-.22-.48-.48-.48-.48.22-.48.48.22.48.48.48Z"/>
    <path class="cls-6" d="m243.4,183.2c.27,0,.48-.22.48-.48s-.22-.48-.48-.48-.48.22-.48.48.22.48.48.48Z"/>
    <circle class="cls-6" cx="247.63" cy="182.72" r=".48"/>
    <path class="cls-6" d="m251.86,183.2c.27,0,.48-.22.48-.48s-.22-.48-.48-.48-.48.22-.48.48.22.48.48.48Z"/>
    <path class="cls-6" d="m256.09,183.2c.27,0,.48-.22.48-.48s-.22-.48-.48-.48-.48.22-.48.48.22.48.48.48Z"/>
    <path class="cls-6" d="m260.31,183.2c.27,0,.48-.22.48-.48s-.22-.48-.48-.48-.48.22-.48.48.22.48.48.48Z"/>
    <path class="cls-6" d="m264.54,183.2c.27,0,.48-.22.48-.48s-.22-.48-.48-.48-.48.22-.48.48.22.48.48.48Z"/>
    <circle class="cls-6" cx="268.77" cy="182.72" r=".48"/>
    <path class="cls-6" d="m273,183.2c.27,0,.48-.22.48-.48s-.22-.48-.48-.48-.48.22-.48.48.22.48.48.48Z"/>
    <path class="cls-6" d="m234.95,187.43c.27,0,.48-.22.48-.48s-.22-.48-.48-.48-.48.22-.48.48.22.48.48.48Z"/>
    <path class="cls-6" d="m239.18,187.43c.27,0,.48-.22.48-.48s-.22-.48-.48-.48-.48.22-.48.48.22.48.48.48Z"/>
    <path class="cls-6" d="m243.4,187.43c.27,0,.48-.22.48-.48s-.22-.48-.48-.48-.48.22-.48.48.22.48.48.48Z"/>
    <circle class="cls-6" cx="247.63" cy="186.95" r=".48"/>
    <path class="cls-6" d="m251.86,187.43c.27,0,.48-.22.48-.48s-.22-.48-.48-.48-.48.22-.48.48.22.48.48.48Z"/>
    <path class="cls-6" d="m256.09,187.43c.27,0,.48-.22.48-.48s-.22-.48-.48-.48-.48.22-.48.48.22.48.48.48Z"/>
    <path class="cls-6" d="m260.31,187.43c.27,0,.48-.22.48-.48s-.22-.48-.48-.48-.48.22-.48.48.22.48.48.48Z"/>
    <path class="cls-6" d="m264.54,187.43c.27,0,.48-.22.48-.48s-.22-.48-.48-.48-.48.22-.48.48.22.48.48.48Z"/>
    <circle class="cls-6" cx="268.77" cy="186.95" r=".48"/>
    <path class="cls-6" d="m273,187.43c.27,0,.48-.22.48-.48s-.22-.48-.48-.48-.48.22-.48.48.22.48.48.48Z"/>
    <path class="cls-6" d="m234.95,191.66c.27,0,.48-.22.48-.48s-.22-.48-.48-.48-.48.22-.48.48.22.48.48.48Z"/>
    <path class="cls-6" d="m239.18,191.66c.27,0,.48-.22.48-.48s-.22-.48-.48-.48-.48.22-.48.48.22.48.48.48Z"/>
    <path class="cls-6" d="m243.4,191.66c.27,0,.48-.22.48-.48s-.22-.48-.48-.48-.48.22-.48.48.22.48.48.48Z"/>
    <path class="cls-6" d="m247.63,191.66c.27,0,.48-.22.48-.48s-.22-.48-.48-.48-.48.22-.48.48.22.48.48.48Z"/>
    <path class="cls-6" d="m251.86,191.66c.27,0,.48-.22.48-.48s-.22-.48-.48-.48-.48.22-.48.48.22.48.48.48Z"/>
    <path class="cls-6" d="m256.09,191.66c.27,0,.48-.22.48-.48s-.22-.48-.48-.48-.48.22-.48.48.22.48.48.48Z"/>
    <path class="cls-6" d="m260.31,191.66c.27,0,.48-.22.48-.48s-.22-.48-.48-.48-.48.22-.48.48.22.48.48.48Z"/>
    <path class="cls-6" d="m264.54,191.66c.27,0,.48-.22.48-.48s-.22-.48-.48-.48-.48.22-.48.48.22.48.48.48Z"/>
    <path class="cls-6" d="m268.77,191.66c.27,0,.48-.22.48-.48s-.22-.48-.48-.48-.48.22-.48.48.22.48.48.48Z"/>
    <path class="cls-6" d="m273,191.66c.27,0,.48-.22.48-.48s-.22-.48-.48-.48-.48.22-.48.48.22.48.48.48Z"/>
    <path class="cls-6" d="m234.95,195.89c.27,0,.48-.22.48-.48s-.22-.48-.48-.48-.48.22-.48.48.22.48.48.48Z"/>
    <path class="cls-6" d="m239.18,195.89c.27,0,.48-.22.48-.48s-.22-.48-.48-.48-.48.22-.48.48.22.48.48.48Z"/>
    <path class="cls-6" d="m243.4,195.89c.27,0,.48-.22.48-.48s-.22-.48-.48-.48-.48.22-.48.48.22.48.48.48Z"/>
    <path class="cls-6" d="m247.63,195.89c.27,0,.48-.22.48-.48s-.22-.48-.48-.48-.48.22-.48.48.22.48.48.48Z"/>
    <path class="cls-6" d="m251.86,195.89c.27,0,.48-.22.48-.48s-.22-.48-.48-.48-.48.22-.48.48.22.48.48.48Z"/>
    <path class="cls-6" d="m256.09,195.89c.27,0,.48-.22.48-.48s-.22-.48-.48-.48-.48.22-.48.48.22.48.48.48Z"/>
    <path class="cls-6" d="m260.31,195.89c.27,0,.48-.22.48-.48s-.22-.48-.48-.48-.48.22-.48.48.22.48.48.48Z"/>
    <path class="cls-6" d="m264.54,195.89c.27,0,.48-.22.48-.48s-.22-.48-.48-.48-.48.22-.48.48.22.48.48.48Z"/>
    <path class="cls-6" d="m268.77,195.89c.27,0,.48-.22.48-.48s-.22-.48-.48-.48-.48.22-.48.48.22.48.48.48Z"/>
    <path class="cls-6" d="m273,195.89c.27,0,.48-.22.48-.48s-.22-.48-.48-.48-.48.22-.48.48.22.48.48.48Z"/>
    <path class="cls-6" d="m234.95,200.11c.27,0,.48-.22.48-.48s-.22-.48-.48-.48-.48.22-.48.48.22.48.48.48Z"/>
    <path class="cls-6" d="m239.18,200.11c.27,0,.48-.22.48-.48s-.22-.48-.48-.48-.48.22-.48.48.22.48.48.48Z"/>
    <path class="cls-6" d="m243.4,200.11c.27,0,.48-.22.48-.48s-.22-.48-.48-.48-.48.22-.48.48.22.48.48.48Z"/>
    <path class="cls-6" d="m247.63,200.11c.27,0,.48-.22.48-.48s-.22-.48-.48-.48-.48.22-.48.48.22.48.48.48Z"/>
    <path class="cls-6" d="m251.86,200.11c.27,0,.48-.22.48-.48s-.22-.48-.48-.48-.48.22-.48.48.22.48.48.48Z"/>
    <path class="cls-6" d="m256.09,200.11c.27,0,.48-.22.48-.48s-.22-.48-.48-.48-.48.22-.48.48.22.48.48.48Z"/>
    <path class="cls-6" d="m260.31,200.11c.27,0,.48-.22.48-.48s-.22-.48-.48-.48-.48.22-.48.48.22.48.48.48Z"/>
    <path class="cls-6" d="m264.54,200.11c.27,0,.48-.22.48-.48s-.22-.48-.48-.48-.48.22-.48.48.22.48.48.48Z"/>
    <path class="cls-6" d="m268.77,200.11c.27,0,.48-.22.48-.48s-.22-.48-.48-.48-.48.22-.48.48.22.48.48.48Z"/>
    <path class="cls-6" d="m273,200.11c.27,0,.48-.22.48-.48s-.22-.48-.48-.48-.48.22-.48.48.22.48.48.48Z"/>
    <path class="cls-6" d="m234.95,204.34c.27,0,.48-.22.48-.48s-.22-.48-.48-.48-.48.22-.48.48.22.48.48.48Z"/>
    <path class="cls-6" d="m239.18,204.34c.27,0,.48-.22.48-.48s-.22-.48-.48-.48-.48.22-.48.48.22.48.48.48Z"/>
    <path class="cls-6" d="m243.4,204.34c.27,0,.48-.22.48-.48s-.22-.48-.48-.48-.48.22-.48.48.22.48.48.48Z"/>
    <path class="cls-6" d="m247.63,204.34c.27,0,.48-.22.48-.48s-.22-.48-.48-.48-.48.22-.48.48.22.48.48.48Z"/>
    <path class="cls-6" d="m251.86,204.34c.27,0,.48-.22.48-.48s-.22-.48-.48-.48-.48.22-.48.48.22.48.48.48Z"/>
    <path class="cls-6" d="m256.09,204.34c.27,0,.48-.22.48-.48s-.22-.48-.48-.48-.48.22-.48.48.22.48.48.48Z"/>
    <path class="cls-6" d="m260.31,204.34c.27,0,.48-.22.48-.48s-.22-.48-.48-.48-.48.22-.48.48.22.48.48.48Z"/>
    <path class="cls-6" d="m264.54,204.34c.27,0,.48-.22.48-.48s-.22-.48-.48-.48-.48.22-.48.48.22.48.48.48Z"/>
    <path class="cls-6" d="m268.77,204.34c.27,0,.48-.22.48-.48s-.22-.48-.48-.48-.48.22-.48.48.22.48.48.48Z"/>
    <path class="cls-6" d="m273,204.34c.27,0,.48-.22.48-.48s-.22-.48-.48-.48-.48.22-.48.48.22.48.48.48Z"/>
    <path class="cls-6" d="m234.95,208.57c.27,0,.48-.22.48-.48s-.22-.48-.48-.48-.48.22-.48.48.22.48.48.48Z"/>
    <path class="cls-6" d="m239.18,208.57c.27,0,.48-.22.48-.48s-.22-.48-.48-.48-.48.22-.48.48.22.48.48.48Z"/>
    <path class="cls-6" d="m243.4,208.57c.27,0,.48-.22.48-.48s-.22-.48-.48-.48-.48.22-.48.48.22.48.48.48Z"/>
    <circle class="cls-6" cx="247.63" cy="208.09" r=".48"/>
    <path class="cls-6" d="m251.86,208.57c.27,0,.48-.22.48-.48s-.22-.48-.48-.48-.48.22-.48.48.22.48.48.48Z"/>
    <path class="cls-6" d="m256.09,208.57c.27,0,.48-.22.48-.48s-.22-.48-.48-.48-.48.22-.48.48.22.48.48.48Z"/>
    <path class="cls-6" d="m260.31,208.57c.27,0,.48-.22.48-.48s-.22-.48-.48-.48-.48.22-.48.48.22.48.48.48Z"/>
    <path class="cls-6" d="m264.54,208.57c.27,0,.48-.22.48-.48s-.22-.48-.48-.48-.48.22-.48.48.22.48.48.48Z"/>
    <circle class="cls-6" cx="268.77" cy="208.09" r=".48"/>
    <path class="cls-6" d="m273,208.57c.27,0,.48-.22.48-.48s-.22-.48-.48-.48-.48.22-.48.48.22.48.48.48Z"/>
    <path class="cls-6" d="m234.95,212.8c.27,0,.48-.22.48-.48s-.22-.48-.48-.48-.48.22-.48.48.22.48.48.48Z"/>
    <path class="cls-6" d="m239.18,212.8c.27,0,.48-.22.48-.48s-.22-.48-.48-.48-.48.22-.48.48.22.48.48.48Z"/>
    <path class="cls-6" d="m243.4,212.8c.27,0,.48-.22.48-.48s-.22-.48-.48-.48-.48.22-.48.48.22.48.48.48Z"/>
    <path class="cls-6" d="m247.63,212.8c.27,0,.48-.22.48-.48s-.22-.48-.48-.48-.48.22-.48.48.22.48.48.48Z"/>
    <path class="cls-6" d="m251.86,212.8c.27,0,.48-.22.48-.48s-.22-.48-.48-.48-.48.22-.48.48.22.48.48.48Z"/>
    <path class="cls-6" d="m256.09,212.8c.27,0,.48-.22.48-.48s-.22-.48-.48-.48-.48.22-.48.48.22.48.48.48Z"/>
    <path class="cls-6" d="m260.31,212.8c.27,0,.48-.22.48-.48s-.22-.48-.48-.48-.48.22-.48.48.22.48.48.48Z"/>
    <path class="cls-6" d="m264.54,212.8c.27,0,.48-.22.48-.48s-.22-.48-.48-.48-.48.22-.48.48.22.48.48.48Z"/>
    <path class="cls-6" d="m268.77,212.8c.27,0,.48-.22.48-.48s-.22-.48-.48-.48-.48.22-.48.48.22.48.48.48Z"/>
    <path class="cls-6" d="m273,212.8c.27,0,.48-.22.48-.48s-.22-.48-.48-.48-.48.22-.48.48.22.48.48.48Z"/>
    <path class="cls-6" d="m234.95,217.03c.27,0,.48-.22.48-.48s-.22-.48-.48-.48-.48.22-.48.48.22.48.48.48Z"/>
    <path class="cls-6" d="m239.18,217.03c.27,0,.48-.22.48-.48s-.22-.48-.48-.48-.48.22-.48.48.22.48.48.48Z"/>
    <path class="cls-6" d="m243.4,217.03c.27,0,.48-.22.48-.48s-.22-.48-.48-.48-.48.22-.48.48.22.48.48.48Z"/>
    <path class="cls-6" d="m247.63,217.03c.27,0,.48-.22.48-.48s-.22-.48-.48-.48-.48.22-.48.48.22.48.48.48Z"/>
    <path class="cls-6" d="m251.86,217.03c.27,0,.48-.22.48-.48s-.22-.48-.48-.48-.48.22-.48.48.22.48.48.48Z"/>
    <path class="cls-6" d="m256.09,217.03c.27,0,.48-.22.48-.48s-.22-.48-.48-.48-.48.22-.48.48.22.48.48.48Z"/>
    <path class="cls-6" d="m260.31,217.03c.27,0,.48-.22.48-.48s-.22-.48-.48-.48-.48.22-.48.48.22.48.48.48Z"/>
    <path class="cls-6" d="m264.54,217.03c.27,0,.48-.22.48-.48s-.22-.48-.48-.48-.48.22-.48.48.22.48.48.48Z"/>
    <path class="cls-6" d="m268.77,217.03c.27,0,.48-.22.48-.48s-.22-.48-.48-.48-.48.22-.48.48.22.48.48.48Z"/>
    <path class="cls-6" d="m273,217.03c.27,0,.48-.22.48-.48s-.22-.48-.48-.48-.48.22-.48.48.22.48.48.48Z"/>
    <path class="cls-6" d="m234.95,221.25c.27,0,.48-.22.48-.48s-.22-.48-.48-.48-.48.22-.48.48.22.48.48.48Z"/>
    <path class="cls-6" d="m239.18,221.25c.27,0,.48-.22.48-.48s-.22-.48-.48-.48-.48.22-.48.48.22.48.48.48Z"/>
    <path class="cls-6" d="m243.4,221.25c.27,0,.48-.22.48-.48s-.22-.48-.48-.48-.48.22-.48.48.22.48.48.48Z"/>
    <path class="cls-6" d="m247.63,221.25c.27,0,.48-.22.48-.48s-.22-.48-.48-.48-.48.22-.48.48.22.48.48.48Z"/>
    <path class="cls-6" d="m251.86,221.25c.27,0,.48-.22.48-.48s-.22-.48-.48-.48-.48.22-.48.48.22.48.48.48Z"/>
    <path class="cls-6" d="m256.09,221.25c.27,0,.48-.22.48-.48s-.22-.48-.48-.48-.48.22-.48.48.22.48.48.48Z"/>
    <path class="cls-6" d="m260.31,221.25c.27,0,.48-.22.48-.48s-.22-.48-.48-.48-.48.22-.48.48.22.48.48.48Z"/>
    <path class="cls-6" d="m264.54,221.25c.27,0,.48-.22.48-.48s-.22-.48-.48-.48-.48.22-.48.48.22.48.48.48Z"/>
    <path class="cls-6" d="m268.77,221.25c.27,0,.48-.22.48-.48s-.22-.48-.48-.48-.48.22-.48.48.22.48.48.48Z"/>
    <path class="cls-6" d="m273,221.25c.27,0,.48-.22.48-.48s-.22-.48-.48-.48-.48.22-.48.48.22.48.48.48Z"/>
    <path class="cls-6" d="m234.95,225.48c.27,0,.48-.22.48-.48s-.22-.48-.48-.48-.48.22-.48.48.22.48.48.48Z"/>
    <path class="cls-6" d="m239.18,225.48c.27,0,.48-.22.48-.48s-.22-.48-.48-.48-.48.22-.48.48.22.48.48.48Z"/>
    <path class="cls-6" d="m243.4,225.48c.27,0,.48-.22.48-.48s-.22-.48-.48-.48-.48.22-.48.48.22.48.48.48Z"/>
    <path class="cls-6" d="m247.63,225.48c.27,0,.48-.22.48-.48s-.22-.48-.48-.48-.48.22-.48.48.22.48.48.48Z"/>
    <path class="cls-6" d="m251.86,225.48c.27,0,.48-.22.48-.48s-.22-.48-.48-.48-.48.22-.48.48.22.48.48.48Z"/>
    <path class="cls-6" d="m256.09,225.48c.27,0,.48-.22.48-.48s-.22-.48-.48-.48-.48.22-.48.48.22.48.48.48Z"/>
    <path class="cls-6" d="m260.31,225.48c.27,0,.48-.22.48-.48s-.22-.48-.48-.48-.48.22-.48.48.22.48.48.48Z"/>
    <path class="cls-6" d="m264.54,225.48c.27,0,.48-.22.48-.48s-.22-.48-.48-.48-.48.22-.48.48.22.48.48.48Z"/>
    <path class="cls-6" d="m268.77,225.48c.27,0,.48-.22.48-.48s-.22-.48-.48-.48-.48.22-.48.48.22.48.48.48Z"/>
    <path class="cls-6" d="m273,225.48c.27,0,.48-.22.48-.48s-.22-.48-.48-.48-.48.22-.48.48.22.48.48.48Z"/>
    <path class="cls-6" d="m234.95,229.71c.27,0,.48-.22.48-.48s-.22-.48-.48-.48-.48.22-.48.48.22.48.48.48Z"/>
    <path class="cls-6" d="m239.18,229.71c.27,0,.48-.22.48-.48s-.22-.48-.48-.48-.48.22-.48.48.22.48.48.48Z"/>
    <path class="cls-6" d="m243.4,229.71c.27,0,.48-.22.48-.48s-.22-.48-.48-.48-.48.22-.48.48.22.48.48.48Z"/>
    <circle class="cls-6" cx="247.63" cy="229.23" r=".48"/>
    <path class="cls-6" d="m251.86,229.71c.27,0,.48-.22.48-.48s-.22-.48-.48-.48-.48.22-.48.48.22.48.48.48Z"/>
    <path class="cls-6" d="m256.09,229.71c.27,0,.48-.22.48-.48s-.22-.48-.48-.48-.48.22-.48.48.22.48.48.48Z"/>
    <path class="cls-6" d="m260.31,229.71c.27,0,.48-.22.48-.48s-.22-.48-.48-.48-.48.22-.48.48.22.48.48.48Z"/>
    <path class="cls-6" d="m264.54,229.71c.27,0,.48-.22.48-.48s-.22-.48-.48-.48-.48.22-.48.48.22.48.48.48Z"/>
    <circle class="cls-6" cx="268.77" cy="229.23" r=".48"/>
    <path class="cls-6" d="m273,229.71c.27,0,.48-.22.48-.48s-.22-.48-.48-.48-.48.22-.48.48.22.48.48.48Z"/>
    <path class="cls-6" d="m234.95,233.94c.27,0,.48-.22.48-.48s-.22-.48-.48-.48-.48.22-.48.48.22.48.48.48Z"/>
    <path class="cls-6" d="m239.18,233.94c.27,0,.48-.22.48-.48s-.22-.48-.48-.48-.48.22-.48.48.22.48.48.48Z"/>
    <path class="cls-6" d="m243.4,233.94c.27,0,.48-.22.48-.48s-.22-.48-.48-.48-.48.22-.48.48.22.48.48.48Z"/>
    <path class="cls-6" d="m247.63,233.94c.27,0,.48-.22.48-.48s-.22-.48-.48-.48-.48.22-.48.48.22.48.48.48Z"/>
    <path class="cls-6" d="m251.86,233.94c.27,0,.48-.22.48-.48s-.22-.48-.48-.48-.48.22-.48.48.22.48.48.48Z"/>
    <path class="cls-6" d="m256.09,233.94c.27,0,.48-.22.48-.48s-.22-.48-.48-.48-.48.22-.48.48.22.48.48.48Z"/>
    <path class="cls-6" d="m260.31,233.94c.27,0,.48-.22.48-.48s-.22-.48-.48-.48-.48.22-.48.48.22.48.48.48Z"/>
    <path class="cls-6" d="m264.54,233.94c.27,0,.48-.22.48-.48s-.22-.48-.48-.48-.48.22-.48.48.22.48.48.48Z"/>
    <path class="cls-6" d="m268.77,233.94c.27,0,.48-.22.48-.48s-.22-.48-.48-.48-.48.22-.48.48.22.48.48.48Z"/>
    <path class="cls-6" d="m273,233.94c.27,0,.48-.22.48-.48s-.22-.48-.48-.48-.48.22-.48.48.22.48.48.48Z"/>
    <path class="cls-6" d="m234.95,238.16c.27,0,.48-.22.48-.48s-.22-.48-.48-.48-.48.22-.48.48.22.48.48.48Z"/>
    <path class="cls-6" d="m239.18,238.16c.27,0,.48-.22.48-.48s-.22-.48-.48-.48-.48.22-.48.48.22.48.48.48Z"/>
    <path class="cls-6" d="m243.4,238.16c.27,0,.48-.22.48-.48s-.22-.48-.48-.48-.48.22-.48.48.22.48.48.48Z"/>
    <path class="cls-6" d="m247.63,238.16c.27,0,.48-.22.48-.48s-.22-.48-.48-.48-.48.22-.48.48.22.48.48.48Z"/>
    <path class="cls-6" d="m251.86,238.16c.27,0,.48-.22.48-.48s-.22-.48-.48-.48-.48.22-.48.48.22.48.48.48Z"/>
    <path class="cls-6" d="m256.09,238.16c.27,0,.48-.22.48-.48s-.22-.48-.48-.48-.48.22-.48.48.22.48.48.48Z"/>
    <path class="cls-6" d="m260.31,238.16c.27,0,.48-.22.48-.48s-.22-.48-.48-.48-.48.22-.48.48.22.48.48.48Z"/>
    <path class="cls-6" d="m264.54,238.16c.27,0,.48-.22.48-.48s-.22-.48-.48-.48-.48.22-.48.48.22.48.48.48Z"/>
    <path class="cls-6" d="m268.77,238.16c.27,0,.48-.22.48-.48s-.22-.48-.48-.48-.48.22-.48.48.22.48.48.48Z"/>
    <path class="cls-6" d="m273,238.16c.27,0,.48-.22.48-.48s-.22-.48-.48-.48-.48.22-.48.48.22.48.48.48Z"/>
    <path class="cls-6" d="m234.95,242.39c.27,0,.48-.22.48-.48s-.22-.48-.48-.48-.48.22-.48.48.22.48.48.48Z"/>
    <path class="cls-6" d="m239.18,242.39c.27,0,.48-.22.48-.48s-.22-.48-.48-.48-.48.22-.48.48.22.48.48.48Z"/>
    <path class="cls-6" d="m243.4,242.39c.27,0,.48-.22.48-.48s-.22-.48-.48-.48-.48.22-.48.48.22.48.48.48Z"/>
    <path class="cls-6" d="m247.63,242.39c.27,0,.48-.22.48-.48s-.22-.48-.48-.48-.48.22-.48.48.22.48.48.48Z"/>
    <path class="cls-6" d="m251.86,242.39c.27,0,.48-.22.48-.48s-.22-.48-.48-.48-.48.22-.48.48.22.48.48.48Z"/>
    <path class="cls-6" d="m256.09,242.39c.27,0,.48-.22.48-.48s-.22-.48-.48-.48-.48.22-.48.48.22.48.48.48Z"/>
    <path class="cls-6" d="m260.31,242.39c.27,0,.48-.22.48-.48s-.22-.48-.48-.48-.48.22-.48.48.22.48.48.48Z"/>
    <path class="cls-6" d="m264.54,242.39c.27,0,.48-.22.48-.48s-.22-.48-.48-.48-.48.22-.48.48.22.48.48.48Z"/>
    <path class="cls-6" d="m268.77,242.39c.27,0,.48-.22.48-.48s-.22-.48-.48-.48-.48.22-.48.48.22.48.48.48Z"/>
    <path class="cls-6" d="m273,242.39c.27,0,.48-.22.48-.48s-.22-.48-.48-.48-.48.22-.48.48.22.48.48.48Z"/>
    <path class="cls-6" d="m234.95,246.62c.27,0,.48-.22.48-.48s-.22-.48-.48-.48-.48.22-.48.48.22.48.48.48Z"/>
    <path class="cls-6" d="m239.18,246.62c.27,0,.48-.22.48-.48s-.22-.48-.48-.48-.48.22-.48.48.22.48.48.48Z"/>
    <path class="cls-6" d="m243.4,246.62c.27,0,.48-.22.48-.48s-.22-.48-.48-.48-.48.22-.48.48.22.48.48.48Z"/>
    <path class="cls-6" d="m247.63,246.62c.27,0,.48-.22.48-.48s-.22-.48-.48-.48-.48.22-.48.48.22.48.48.48Z"/>
    <path class="cls-6" d="m251.86,246.62c.27,0,.48-.22.48-.48s-.22-.48-.48-.48-.48.22-.48.48.22.48.48.48Z"/>
    <path class="cls-6" d="m256.09,246.62c.27,0,.48-.22.48-.48s-.22-.48-.48-.48-.48.22-.48.48.22.48.48.48Z"/>
    <path class="cls-6" d="m260.31,246.62c.27,0,.48-.22.48-.48s-.22-.48-.48-.48-.48.22-.48.48.22.48.48.48Z"/>
    <path class="cls-6" d="m264.54,246.62c.27,0,.48-.22.48-.48s-.22-.48-.48-.48-.48.22-.48.48.22.48.48.48Z"/>
    <path class="cls-6" d="m268.77,246.62c.27,0,.48-.22.48-.48s-.22-.48-.48-.48-.48.22-.48.48.22.48.48.48Z"/>
    <path class="cls-6" d="m273,246.62c.27,0,.48-.22.48-.48s-.22-.48-.48-.48-.48.22-.48.48.22.48.48.48Z"/>
    <path class="cls-6" d="m234.95,250.85c.27,0,.48-.22.48-.48s-.22-.48-.48-.48-.48.22-.48.48.22.48.48.48Z"/>
    <path class="cls-6" d="m239.18,250.85c.27,0,.48-.22.48-.48s-.22-.48-.48-.48-.48.22-.48.48.22.48.48.48Z"/>
    <path class="cls-6" d="m243.4,250.85c.27,0,.48-.22.48-.48s-.22-.48-.48-.48-.48.22-.48.48.22.48.48.48Z"/>
    <circle class="cls-6" cx="247.63" cy="250.37" r=".48"/>
    <path class="cls-6" d="m251.86,250.85c.27,0,.48-.22.48-.48s-.22-.48-.48-.48-.48.22-.48.48.22.48.48.48Z"/>
    <path class="cls-6" d="m256.09,250.85c.27,0,.48-.22.48-.48s-.22-.48-.48-.48-.48.22-.48.48.22.48.48.48Z"/>
    <path class="cls-6" d="m260.31,250.85c.27,0,.48-.22.48-.48s-.22-.48-.48-.48-.48.22-.48.48.22.48.48.48Z"/>
    <path class="cls-6" d="m264.54,250.85c.27,0,.48-.22.48-.48s-.22-.48-.48-.48-.48.22-.48.48.22.48.48.48Z"/>
    <circle class="cls-6" cx="268.77" cy="250.37" r=".48"/>
    <path class="cls-6" d="m273,250.85c.27,0,.48-.22.48-.48s-.22-.48-.48-.48-.48.22-.48.48.22.48.48.48Z"/>
    <path class="cls-6" d="m234.95,255.08c.27,0,.48-.22.48-.48s-.22-.48-.48-.48-.48.22-.48.48.22.48.48.48Z"/>
    <path class="cls-6" d="m239.18,255.08c.27,0,.48-.22.48-.48s-.22-.48-.48-.48-.48.22-.48.48.22.48.48.48Z"/>
    <path class="cls-6" d="m243.4,255.08c.27,0,.48-.22.48-.48s-.22-.48-.48-.48-.48.22-.48.48.22.48.48.48Z"/>
    <path class="cls-6" d="m247.63,255.08c.27,0,.48-.22.48-.48s-.22-.48-.48-.48-.48.22-.48.48.22.48.48.48Z"/>
    <path class="cls-6" d="m251.86,255.08c.27,0,.48-.22.48-.48s-.22-.48-.48-.48-.48.22-.48.48.22.48.48.48Z"/>
    <path class="cls-6" d="m256.09,255.08c.27,0,.48-.22.48-.48s-.22-.48-.48-.48-.48.22-.48.48.22.48.48.48Z"/>
    <path class="cls-6" d="m260.31,255.08c.27,0,.48-.22.48-.48s-.22-.48-.48-.48-.48.22-.48.48.22.48.48.48Z"/>
    <path class="cls-6" d="m264.54,255.08c.27,0,.48-.22.48-.48s-.22-.48-.48-.48-.48.22-.48.48.22.48.48.48Z"/>
    <path class="cls-6" d="m268.77,255.08c.27,0,.48-.22.48-.48s-.22-.48-.48-.48-.48.22-.48.48.22.48.48.48Z"/>
    <path class="cls-6" d="m273,255.08c.27,0,.48-.22.48-.48s-.22-.48-.48-.48-.48.22-.48.48.22.48.48.48Z"/>
    <path class="cls-6" d="m234.95,259.3c.27,0,.48-.22.48-.48s-.22-.48-.48-.48-.48.22-.48.48.22.48.48.48Z"/>
    <path class="cls-6" d="m239.18,259.3c.27,0,.48-.22.48-.48s-.22-.48-.48-.48-.48.22-.48.48.22.48.48.48Z"/>
    <path class="cls-6" d="m243.4,259.3c.27,0,.48-.22.48-.48s-.22-.48-.48-.48-.48.22-.48.48.22.48.48.48Z"/>
    <path class="cls-6" d="m247.63,259.3c.27,0,.48-.22.48-.48s-.22-.48-.48-.48-.48.22-.48.48.22.48.48.48Z"/>
    <path class="cls-6" d="m251.86,259.3c.27,0,.48-.22.48-.48s-.22-.48-.48-.48-.48.22-.48.48.22.48.48.48Z"/>
    <path class="cls-6" d="m256.09,259.3c.27,0,.48-.22.48-.48s-.22-.48-.48-.48-.48.22-.48.48.22.48.48.48Z"/>
    <path class="cls-6" d="m260.31,259.3c.27,0,.48-.22.48-.48s-.22-.48-.48-.48-.48.22-.48.48.22.48.48.48Z"/>
    <path class="cls-6" d="m264.54,259.3c.27,0,.48-.22.48-.48s-.22-.48-.48-.48-.48.22-.48.48.22.48.48.48Z"/>
    <path class="cls-6" d="m268.77,259.3c.27,0,.48-.22.48-.48s-.22-.48-.48-.48-.48.22-.48.48.22.48.48.48Z"/>
    <path class="cls-6" d="m273,259.3c.27,0,.48-.22.48-.48s-.22-.48-.48-.48-.48.22-.48.48.22.48.48.48Z"/>
    <path class="cls-6" d="m234.95,263.53c.27,0,.48-.22.48-.48s-.22-.48-.48-.48-.48.22-.48.48.22.48.48.48Z"/>
    <path class="cls-6" d="m239.18,263.53c.27,0,.48-.22.48-.48s-.22-.48-.48-.48-.48.22-.48.48.22.48.48.48Z"/>
    <path class="cls-6" d="m243.4,263.53c.27,0,.48-.22.48-.48s-.22-.48-.48-.48-.48.22-.48.48.22.48.48.48Z"/>
    <path class="cls-6" d="m247.63,263.53c.27,0,.48-.22.48-.48s-.22-.48-.48-.48-.48.22-.48.48.22.48.48.48Z"/>
    <path class="cls-6" d="m251.86,263.53c.27,0,.48-.22.48-.48s-.22-.48-.48-.48-.48.22-.48.48.22.48.48.48Z"/>
    <path class="cls-6" d="m256.09,263.53c.27,0,.48-.22.48-.48s-.22-.48-.48-.48-.48.22-.48.48.22.48.48.48Z"/>
    <path class="cls-6" d="m260.31,263.53c.27,0,.48-.22.48-.48s-.22-.48-.48-.48-.48.22-.48.48.22.48.48.48Z"/>
    <path class="cls-6" d="m264.54,263.53c.27,0,.48-.22.48-.48s-.22-.48-.48-.48-.48.22-.48.48.22.48.48.48Z"/>
    <path class="cls-6" d="m268.77,263.53c.27,0,.48-.22.48-.48s-.22-.48-.48-.48-.48.22-.48.48.22.48.48.48Z"/>
    <path class="cls-6" d="m273,263.53c.27,0,.48-.22.48-.48s-.22-.48-.48-.48-.48.22-.48.48.22.48.48.48Z"/>
    <path class="cls-6" d="m234.95,267.76c.27,0,.48-.22.48-.48s-.22-.48-.48-.48-.48.22-.48.48.22.48.48.48Z"/>
    <path class="cls-6" d="m239.18,267.76c.27,0,.48-.22.48-.48s-.22-.48-.48-.48-.48.22-.48.48.22.48.48.48Z"/>
    <path class="cls-6" d="m243.4,267.76c.27,0,.48-.22.48-.48s-.22-.48-.48-.48-.48.22-.48.48.22.48.48.48Z"/>
    <path class="cls-6" d="m247.63,267.76c.27,0,.48-.22.48-.48s-.22-.48-.48-.48-.48.22-.48.48.22.48.48.48Z"/>
    <path class="cls-6" d="m251.86,267.76c.27,0,.48-.22.48-.48s-.22-.48-.48-.48-.48.22-.48.48.22.48.48.48Z"/>
    <path class="cls-6" d="m256.09,267.76c.27,0,.48-.22.48-.48s-.22-.48-.48-.48-.48.22-.48.48.22.48.48.48Z"/>
    <path class="cls-6" d="m260.31,267.76c.27,0,.48-.22.48-.48s-.22-.48-.48-.48-.48.22-.48.48.22.48.48.48Z"/>
    <path class="cls-6" d="m264.54,267.76c.27,0,.48-.22.48-.48s-.22-.48-.48-.48-.48.22-.48.48.22.48.48.48Z"/>
    <path class="cls-6" d="m268.77,267.76c.27,0,.48-.22.48-.48s-.22-.48-.48-.48-.48.22-.48.48.22.48.48.48Z"/>
    <path class="cls-6" d="m273,267.76c.27,0,.48-.22.48-.48s-.22-.48-.48-.48-.48.22-.48.48.22.48.48.48Z"/>
    <path class="cls-6" d="m234.95,271.99c.27,0,.48-.22.48-.48s-.22-.48-.48-.48-.48.22-.48.48.22.48.48.48Z"/>
    <path class="cls-6" d="m239.18,271.99c.27,0,.48-.22.48-.48s-.22-.48-.48-.48-.48.22-.48.48.22.48.48.48Z"/>
    <path class="cls-6" d="m243.4,271.99c.27,0,.48-.22.48-.48s-.22-.48-.48-.48-.48.22-.48.48.22.48.48.48Z"/>
    <circle class="cls-6" cx="247.63" cy="271.51" r=".48"/>
    <path class="cls-6" d="m251.86,271.99c.27,0,.48-.22.48-.48s-.22-.48-.48-.48-.48.22-.48.48.22.48.48.48Z"/>
    <path class="cls-6" d="m256.09,271.99c.27,0,.48-.22.48-.48s-.22-.48-.48-.48-.48.22-.48.48.22.48.48.48Z"/>
    <path class="cls-6" d="m260.31,271.99c.27,0,.48-.22.48-.48s-.22-.48-.48-.48-.48.22-.48.48.22.48.48.48Z"/>
    <path class="cls-6" d="m264.54,271.99c.27,0,.48-.22.48-.48s-.22-.48-.48-.48-.48.22-.48.48.22.48.48.48Z"/>
    <circle class="cls-6" cx="268.77" cy="271.51" r=".48"/>
    <path class="cls-6" d="m273,271.99c.27,0,.48-.22.48-.48s-.22-.48-.48-.48-.48.22-.48.48.22.48.48.48Z"/>
    <path class="cls-6" d="m234.95,276.21c.27,0,.48-.22.48-.48s-.22-.48-.48-.48-.48.22-.48.48.22.48.48.48Z"/>
    <path class="cls-6" d="m239.18,276.21c.27,0,.48-.22.48-.48s-.22-.48-.48-.48-.48.22-.48.48.22.48.48.48Z"/>
    <path class="cls-6" d="m243.4,276.21c.27,0,.48-.22.48-.48s-.22-.48-.48-.48-.48.22-.48.48.22.48.48.48Z"/>
    <path class="cls-6" d="m247.63,276.21c.27,0,.48-.22.48-.48s-.22-.48-.48-.48-.48.22-.48.48.22.48.48.48Z"/>
    <path class="cls-6" d="m251.86,276.21c.27,0,.48-.22.48-.48s-.22-.48-.48-.48-.48.22-.48.48.22.48.48.48Z"/>
    <path class="cls-6" d="m256.09,276.21c.27,0,.48-.22.48-.48s-.22-.48-.48-.48-.48.22-.48.48.22.48.48.48Z"/>
    <path class="cls-6" d="m260.31,276.21c.27,0,.48-.22.48-.48s-.22-.48-.48-.48-.48.22-.48.48.22.48.48.48Z"/>
    <path class="cls-6" d="m264.54,276.21c.27,0,.48-.22.48-.48s-.22-.48-.48-.48-.48.22-.48.48.22.48.48.48Z"/>
    <path class="cls-6" d="m268.77,276.21c.27,0,.48-.22.48-.48s-.22-.48-.48-.48-.48.22-.48.48.22.48.48.48Z"/>
    <path class="cls-6" d="m273,276.21c.27,0,.48-.22.48-.48s-.22-.48-.48-.48-.48.22-.48.48.22.48.48.48Z"/>
  </g>
  <path class="cls-9" d="m289.42,48.93c-1.35,0-2.67-1.11-3.8-3.22-.89-1.64-1.84-2.55-2.68-2.55s-1.79.91-2.68,2.55c-1.13,2.1-2.45,3.22-3.8,3.22s-2.67-1.11-3.8-3.22c-.87-1.62-1.85-2.55-2.68-2.55s-1.81.93-2.69,2.55c-2.27,4.21-5.34,4.21-7.61,0-.88-1.62-1.86-2.55-2.68-2.55s-1.81.93-2.68,2.55c-2.28,4.22-5.34,4.2-7.61,0-.89-1.64-1.84-2.55-2.68-2.55s-1.8.91-2.69,2.55l-1.12-.6c2.27-4.21,5.33-4.21,7.61,0,.87,1.62,1.85,2.55,2.68,2.55s1.8-.91,2.69-2.55c1.13-2.1,2.45-3.22,3.8-3.22s2.67,1.11,3.8,3.22c.87,1.62,1.85,2.55,2.68,2.55s1.81-.93,2.68-2.55c1.14-2.1,2.45-3.22,3.8-3.22s2.67,1.11,3.8,3.22c.89,1.64,1.84,2.55,2.68,2.55s1.81-.93,2.68-2.55c2.28-4.21,5.33-4.21,7.61,0,.87,1.62,1.85,2.55,2.68,2.55s1.8-.91,2.69-2.55l1.12.6c-1.14,2.1-2.45,3.22-3.8,3.22Z"/>
  <path class="cls-4" d="m48.01,246.99c-1.06,0-2.09-.77-2.98-2.23-.62-1.03-1.31-1.62-1.89-1.62s-1.27.59-1.89,1.62c-1.77,2.92-4.18,2.92-5.95,0-.62-1.03-1.31-1.62-1.89-1.62s-1.27.59-1.89,1.62c-.89,1.46-1.91,2.23-2.98,2.23-.74,0-1.85-.39-2.98-2.23-.62-1.03-1.31-1.62-1.89-1.62s-1.27.59-1.89,1.62c-1.77,2.91-4.18,2.92-5.95,0-.62-1.03-1.31-1.62-1.89-1.62s-1.27.59-1.89,1.62l-1.09-.66c1.77-2.92,4.18-2.92,5.95,0,.62,1.03,1.31,1.62,1.89,1.62s1.27-.59,1.89-1.62c1.77-2.92,4.18-2.92,5.95,0,.63,1.04,1.31,1.62,1.89,1.62s1.27-.59,1.89-1.62c1.77-2.92,4.18-2.91,5.95,0,.62,1.03,1.31,1.62,1.89,1.62s1.27-.59,1.89-1.62c1.77-2.91,4.18-2.92,5.95,0,.62,1.03,1.31,1.62,1.89,1.62s1.27-.59,1.89-1.62l1.09.66c-.89,1.46-1.91,2.23-2.98,2.23Z"/>
  <circle class="cls-9" cx="96.62" cy="19.74" r="9.85" transform="translate(14.34 74.1) rotate(-45)"/>
  <circle class="cls-4" cx="18.15" cy="98.46" r="9.85" transform="translate(-81.84 93.5) rotate(-76.72)"/>
  <circle class="cls-4" cx="129.64" cy="13.58" r="3.96"/>
  <circle class="cls-9" cx="18.39" cy="119.78" r="3.96"/>
  <rect class="cls-3" x="281.91" y="99.79" width="1.27" height="148.9"/>
  <rect class="cls-1" x="27.83" y="255.05" width="1.27" height="39.05"/>
  <g>
    <path class="cls-7" d="m55.3,32.16c-.85-1.42-2.78-1.84-4.17-2.04l-.33-.05c1.59,2.29,2.98,4.65,4.14,7,.13-.28.23-.52.3-.71.65-1.76.67-3.17.06-4.2h0Z"/>
    <path class="cls-7" d="m38.41,50.66c.76,1.98,1.57,2.99,2.52,3.18,1.2.24,2.78-.74,5.12-3.2.48-.5,1-1.09,1.53-1.77-2.67.07-5.89.33-9.58.79.08.19.39,1,.39,1h0Z"/>
    <path class="cls-7" d="m33.07,39.72c1.41,2.18,2.71,4.63,3.96,7.52.34-.05.7-.1,1.05-.16,3.54-.54,7.45-.77,11.34-.66,2.15-3.06,4.02-6.37,5-8.29-1.41-2.72-3.2-5.43-5.43-8.26-3.31-.29-7.03-.24-10.79.15-.54,1.25-1.38,3.14-2.56,5.19-.98,1.71-1.83,3.18-2.55,4.5h0Z"/>
    <path class="cls-7" d="m55.55,23.95c-4.27-4.27-9.95-6.62-15.99-6.62-5.06,0-9.84,1.63-13.83,4.72-3.81,2.95-6.61,7.1-7.92,11.71,4.88-2.37,11.28-4.22,18.1-5.22.48-1.49.81-2.88,1.11-4.12.62-2.57,1.06-4.43,2.26-4.76,1.28-.36,3.32,1.05,7.05,4.85,0,0,0,0,0,0h0s2.83,3.35,2.83,3.35c1.57.11,3.02.29,4.29.55l.16.03c1.18.24,3.66.74,4.68,2.56.58,1.05.59,2.37.01,3.95-.65,1.8-1.34,3.44-2.08,5,.65,1.58,1.18,3.17,1.6,4.73.01.08.04.2.06.32.05.38-.24.75-.25.77l-.12.15-.06-.18c-.46-1.62-1.04-3.23-1.7-4.8-1.01,2-2.12,3.85-3.39,5.65,3.29.25,6.16.73,8.33,1.41.98-2.57,1.48-5.28,1.48-8.06,0-6.04-2.35-11.72-6.62-15.99h0Z"/>
    <path class="cls-7" d="m30.88,46.66c.53.79,2.03,1.03,4.82.74-.97-2.47-2-4.67-3.16-6.7-1.5,2.83-2.35,4.93-1.66,5.96h0Z"/>
    <path class="cls-7" d="m47.26,27.77c-2.7-3.19-4.24-4.43-5.32-4.25-1.12.18-1.84,1.91-2.91,4.53l-.04.09c2.92-.31,5.71-.44,8.28-.36h0Z"/>
    <path class="cls-7" d="m50.62,48.89c-1.32,1.64-2.83,3.33-4.76,5.33-2.81,2.88-4.37,4.2-5.62,3.88-.87-.23-1.51-1.24-2.09-3.31-.49-1.74-1.01-3.4-1.55-4.95l-2.06.29c-4.62.67-7.19.3-8.1-1.12-1.3-2.03,1.11-6.03,4.41-11.02-.74-1.09-1.51-2.12-2.35-3.12-.09-.09-.16-.18-.21-.25l-.12-.14.18-.02c.3-.02.59.07.8.28.74.79,1.48,1.64,2.17,2.53l.32-.5,1.49-2.26c.82-1.25,1.5-2.6,2.1-4.09-8.43,1.27-14.5,3.88-17.06,7.2-.99,1.21-1.37,2.41-1.12,4.64.6,5.19,2.68,9.8,6.57,13.73,4.23,4.27,9.92,6.57,15.93,6.57,6.61,0,12.87-2.88,17.17-7.9,1.03-1.39,1.35-2.54.92-3.44-.65-1.38-3.01-2.16-7.02-2.33h0Z"/>
  </g>
  <rect class="cls-9" x="38.46" y="268.6" width="254.87" height="24.73"/>
  <g>
    <path class="cls-5" d="m55.22,280.06l-.27,2.27h2.18v2.7h-2.52l-.31,2.47h-2.88l.31-2.47h-1.78l-.31,2.47h-2.88l.31-2.47h-2.18v-2.7h2.52l.27-2.27h-2.18v-2.7h2.52l.31-2.47h2.88l-.31,2.47h1.78l.31-2.47h2.88l-.31,2.47h2.18v2.7h-2.52Zm-2.88,0h-1.78l-.27,2.27h1.78l.27-2.27Z"/>
    <path class="cls-5" d="m58.21,286.49l1.37-3.1c1.19.7,2.77,1.15,4.16,1.15,1.21,0,1.64-.25,1.64-.68,0-1.58-6.97-.31-6.97-5.01,0-2.34,1.96-4.25,5.87-4.25,1.69,0,3.44.36,4.75,1.1l-1.28,3.08c-1.24-.63-2.41-.94-3.51-.94-1.24,0-1.64.36-1.64.79,0,1.51,6.97.25,6.97,4.9,0,2.3-1.96,4.25-5.87,4.25-2.11,0-4.23-.52-5.49-1.3Z"/>
    <path class="cls-5" d="m70.32,281.2c0-3.82,3.01-6.59,7.11-6.59s7.11,2.77,7.11,6.59-3.01,6.59-7.11,6.59-7.11-2.77-7.11-6.59Zm9.94,0c0-1.96-1.26-3.15-2.83-3.15s-2.83,1.19-2.83,3.15,1.26,3.15,2.83,3.15,2.83-1.19,2.83-3.15Z"/>
    <path class="cls-5" d="m97.34,287.5l-.04-5.74-2.74,4.61h-1.87l-2.74-4.41v5.55h-3.87v-12.6h3.49l4.11,6.72,4-6.72h3.49l.04,12.6h-3.87Z"/>
    <path class="cls-5" d="m102.76,281.2c0-3.82,3.01-6.59,7.11-6.59s7.11,2.77,7.11,6.59-3.01,6.59-7.11,6.59-7.11-2.77-7.11-6.59Zm9.94,0c0-1.96-1.26-3.15-2.83-3.15s-2.83,1.19-2.83,3.15,1.26,3.15,2.83,3.15,2.83-1.19,2.83-3.15Z"/>
    <path class="cls-5" d="m117.73,286.49l1.37-3.1c1.19.7,2.77,1.15,4.16,1.15,1.21,0,1.64-.25,1.64-.68,0-1.58-6.97-.31-6.97-5.01,0-2.34,1.96-4.25,5.87-4.25,1.69,0,3.44.36,4.75,1.1l-1.28,3.08c-1.24-.63-2.41-.94-3.51-.94-1.24,0-1.64.36-1.64.79,0,1.51,6.97.25,6.97,4.9,0,2.3-1.96,4.25-5.87,4.25-2.11,0-4.23-.52-5.49-1.3Z"/>
    <path class="cls-5" d="m132.91,278.19h-3.69v-3.29h11.63v3.29h-3.69v9.31h-4.25v-9.31Z"/>
    <path class="cls-5" d="m141.26,281.2c0-3.82,3.01-6.59,7.11-6.59s7.11,2.77,7.11,6.59-3.01,6.59-7.11,6.59-7.11-2.77-7.11-6.59Zm9.94,0c0-1.96-1.26-3.15-2.83-3.15s-2.83,1.19-2.83,3.15,1.26,3.15,2.83,3.15,2.83-1.19,2.83-3.15Z"/>
    <path class="cls-5" d="m157.03,274.89h6.21c4.21,0,7.11,2.39,7.11,6.3s-2.9,6.3-7.11,6.3h-6.21v-12.6Zm6.03,9.29c1.78,0,3.01-1.06,3.01-2.99s-1.22-2.99-3.01-2.99h-1.78v5.98h1.78Z"/>
    <path class="cls-5" d="m171.39,281.2c0-3.82,3.01-6.59,7.11-6.59s7.11,2.77,7.11,6.59-3.01,6.59-7.11,6.59-7.11-2.77-7.11-6.59Zm9.94,0c0-1.96-1.26-3.15-2.83-3.15s-2.83,1.19-2.83,3.15,1.26,3.15,2.83,3.15,2.83-1.19,2.83-3.15Z"/>
    <path class="cls-5" d="m186.36,286.49l1.37-3.1c1.19.7,2.77,1.15,4.16,1.15,1.21,0,1.64-.25,1.64-.68,0-1.58-6.97-.31-6.97-5.01,0-2.34,1.96-4.25,5.87-4.25,1.69,0,3.44.36,4.75,1.1l-1.28,3.08c-1.24-.63-2.41-.94-3.51-.94-1.24,0-1.64.36-1.64.79,0,1.51,6.97.25,6.97,4.9,0,2.3-1.96,4.25-5.87,4.25-2.11,0-4.23-.52-5.49-1.3Z"/>
    <path class="cls-5" d="m209.46,284.29v3.21h-10.48v-12.6h10.25v3.21h-6.07v1.48h5.33v3.06h-5.33v1.66h6.3Z"/>
    <path class="cls-5" d="m211.1,274.89h4.25v12.6h-4.25v-12.6Z"/>
    <path class="cls-5" d="m229.82,274.89v12.6h-3.49l-4.79-5.73v5.73h-4.14v-12.6h3.49l4.79,5.73v-5.73h4.14Z"/>
    <path class="cls-5" d="m231.08,286.49l1.37-3.1c1.19.7,2.77,1.15,4.16,1.15,1.21,0,1.64-.25,1.64-.68,0-1.58-6.97-.31-6.97-5.01,0-2.34,1.96-4.25,5.87-4.25,1.69,0,3.44.36,4.75,1.1l-1.28,3.08c-1.24-.63-2.41-.94-3.51-.94-1.24,0-1.64.36-1.64.79,0,1.51,6.97.25,6.97,4.9,0,2.3-1.96,4.25-5.87,4.25-2.11,0-4.23-.52-5.49-1.3Z"/>
    <path class="cls-5" d="m246.25,278.19h-3.69v-3.29h11.63v3.29h-3.69v9.31h-4.25v-9.31Z"/>
    <path class="cls-5" d="m265.77,284.29v3.21h-10.48v-12.6h10.25v3.21h-6.07v1.48h5.33v3.06h-5.33v1.66h6.3Z"/>
    <path class="cls-5" d="m267.4,274.89h4.25v12.6h-4.25v-12.6Z"/>
    <path class="cls-5" d="m286.12,274.89v12.6h-3.49l-4.79-5.73v5.73h-4.14v-12.6h3.49l4.79,5.73v-5.73h4.14Z"/>
  </g>
</svg>