<?xml version="1.0" encoding="UTF-8" standalone="no"?>
<!DOCTYPE svg PUBLIC "-//W3C//DTD SVG 1.1//EN" "http://www.w3.org/Graphics/SVG/1.1/DTD/svg11.dtd">
<svg width="100%" height="100%" viewBox="0 0 60 69" version="1.1" xmlns="http://www.w3.org/2000/svg" xmlns:xlink="http://www.w3.org/1999/xlink" xml:space="preserve" xmlns:serif="http://www.serif.com/" style="fill-rule:evenodd;clip-rule:evenodd;stroke-linejoin:round;stroke-miterlimit:2;">
    <g transform="matrix(1,0,0,1,-6739.09,-19635.3)">
        <g transform="matrix(1,0,0,1,6480,19093.5)">
            <path d="M309.27,551.079C307.447,549.256 305.305,548.345 302.844,548.345C300.383,548.345 298.195,549.256 296.281,551.079L270.168,577.192C267.16,580.382 265.656,584.028 265.656,588.13C265.656,592.231 267.16,595.832 270.168,598.931C273.267,601.938 276.867,603.442 280.969,603.442C285.07,603.442 288.671,601.938 291.77,598.931L312.551,578.149C314.1,576.873 315.604,576.873 317.063,578.149C318.43,579.699 318.43,581.203 317.063,582.661L296.281,603.442C291.906,607.817 286.802,610.005 280.969,610.005C275.135,610.005 269.986,607.817 265.52,603.442C261.236,599.067 259.094,593.963 259.094,588.13C259.094,582.297 261.236,577.147 265.52,572.681L291.77,546.431C294.96,543.332 298.651,541.782 302.844,541.782C306.945,541.782 310.591,543.332 313.781,546.431C316.88,549.621 318.43,553.312 318.43,557.505C318.43,561.606 316.88,565.252 313.781,568.442L288.762,593.735C286.483,595.832 283.885,596.834 280.969,596.743C278.052,596.561 275.591,595.285 273.586,592.915C271.945,590.728 271.171,588.403 271.262,585.942C271.444,583.39 272.447,581.157 274.27,579.243L295.051,558.462C296.6,557.186 298.104,557.186 299.563,558.462C300.93,560.011 300.93,561.515 299.563,562.974L278.918,583.892C277.551,585.441 277.46,587.082 278.645,588.813C279.374,589.634 280.285,590.09 281.379,590.181C282.382,590.181 283.293,589.816 284.113,589.087L309.27,563.931C311.092,562.108 312.004,559.966 312.004,557.505C312.004,555.044 311.092,552.902 309.27,551.079Z" style="fill:rgb(65,69,72);fill-rule:nonzero;"/>
        </g>
    </g>
</svg>
