<?xml version="1.0" encoding="UTF-8" standalone="no"?>
<!DOCTYPE svg PUBLIC "-//W3C//DTD SVG 1.1//EN" "http://www.w3.org/Graphics/SVG/1.1/DTD/svg11.dtd">
<svg width="100%" height="100%" viewBox="0 0 35 35" version="1.1" xmlns="http://www.w3.org/2000/svg" xmlns:xlink="http://www.w3.org/1999/xlink" xml:space="preserve" xmlns:serif="http://www.serif.com/" style="fill-rule:evenodd;clip-rule:evenodd;stroke-linejoin:round;stroke-miterlimit:2;">
    <g transform="matrix(1,0,0,1,-6599.47,-19458.2)">
        <g transform="matrix(1,0,0,1,6519.76,19042.5)">
            <g transform="matrix(1,0,0,1,-102.789,32.9351)">
                <path d="M191.25,388.949C190.521,388.949 189.922,389.184 189.453,389.652C188.984,390.121 188.75,390.72 188.75,391.449C188.75,392.178 188.984,392.777 189.453,393.246C189.922,393.715 190.521,393.949 191.25,393.949C191.979,393.949 192.578,393.715 193.047,393.246C193.516,392.777 193.75,392.178 193.75,391.449C193.75,390.72 193.516,390.121 193.047,389.652C192.578,389.184 191.979,388.949 191.25,388.949ZM217.5,387.699C217.448,386.293 216.953,385.121 216.016,384.184C215.078,383.246 213.906,382.751 212.5,382.699L187.5,382.699C186.094,382.751 184.922,383.246 183.984,384.184C183.047,385.121 182.552,386.293 182.5,387.699L182.5,412.699C182.552,414.105 183.047,415.277 183.984,416.215C184.922,417.152 186.094,417.647 187.5,417.699L212.5,417.699C213.906,417.647 215.078,417.152 216.016,416.215C216.953,415.277 217.448,414.105 217.5,412.699L217.5,387.699ZM213.75,412.699C213.698,413.48 213.281,413.897 212.5,413.949L187.5,413.949C186.719,413.897 186.302,413.48 186.25,412.699L186.25,408.949L213.75,408.949L213.75,412.699ZM213.75,405.199L211.484,405.199L203.984,393.871C203.724,393.507 203.359,393.324 202.891,393.324C202.474,393.324 202.135,393.507 201.875,393.871L196.953,401.215L195.234,398.871C194.974,398.507 194.635,398.324 194.219,398.324C193.802,398.324 193.464,398.507 193.203,398.871L188.594,405.199L186.25,405.199L186.25,387.699C186.302,386.918 186.719,386.501 187.5,386.449L212.5,386.449C213.281,386.501 213.698,386.918 213.75,387.699L213.75,405.199Z" style="fill:rgb(65,69,72);fill-rule:nonzero;"/>
            </g>
        </g>
    </g>
</svg>
