<?xml version="1.0" encoding="UTF-8"?>
<svg id="Layer_1" data-name="Layer 1" xmlns="http://www.w3.org/2000/svg" xmlns:xlink="http://www.w3.org/1999/xlink" viewBox="0 0 300 300">
  <defs>
    <style>
      .cls-1 {
        fill: url(#linear-gradient);
      }

      .cls-1, .cls-2, .cls-3, .cls-4, .cls-5, .cls-6 {
        stroke-width: 0px;
      }

      .cls-2 {
        fill: #02a180;
      }

      .cls-3, .cls-4 {
        fill: #fff;
      }

      .cls-4 {
        fill-rule: evenodd;
      }

      .cls-5 {
        fill: #004f81;
      }

      .cls-6 {
        fill: #0065bd;
      }
    </style>
    <linearGradient id="linear-gradient" x1="228.42" y1="5" x2="241.71" y2="5" gradientUnits="userSpaceOnUse">
      <stop offset="0" stop-color="#00283e"/>
      <stop offset="1" stop-color="#00101a"/>
    </linearGradient>
  </defs>
  <g>
    <polygon class="cls-3" points="300 10 0 17 0 0 300 0 300 10"/>
    <rect class="cls-3" x="0" y="290" width="300" height="10"/>
  </g>
  <g>
    <rect class="cls-3" x="-145" y="145" width="300" height="10" transform="translate(-145 155) rotate(-90)"/>
    <polygon class="cls-3" points="300 0 300 300 293 300 290 0 300 0"/>
  </g>
  <path class="cls-1" d="m235.07,0c-3.67,0-6.65,2.98-6.65,6.65v3.35h13.29v-3.33s0-.02,0-.03c0-3.67-2.98-6.65-6.65-6.65Z"/>
  <path class="cls-2" d="m291.1,297.58L3.2,290.32,10.46,2.42l287.91,7.26-7.26,287.91Zm-279.71-15.05l271.91,6.85,6.86-271.91L18.25,10.62l-6.85,271.91Z"/>
  <path class="cls-6" d="m11.59,298.66L2.12,10.81,289.97,1.34l9.47,287.84-287.84,9.47ZM10.38,18.54l8.94,271.85,271.85-8.94-8.94-271.85L10.38,18.54Z"/>
  <path class="cls-5" d="m293.35,0h-58.29c3.67,0,6.65,2.98,6.65,6.65v45.86l29.14,16.62,29.15-16.62V6.65c0-3.67-2.98-6.65-6.65-6.65Z"/>
  <g>
    <path class="cls-4" d="m282.45,23.52c-.62-1.03-2.02-1.34-3.02-1.48l-.24-.03c1.16,1.66,2.16,3.37,3,5.08.09-.2.17-.38.22-.52.47-1.28.48-2.3.05-3.04h0Z"/>
    <path class="cls-4" d="m270.2,36.94c.55,1.44,1.14,2.17,1.83,2.31.87.18,2.02-.54,3.72-2.32.35-.36.72-.79,1.11-1.29-1.94.05-4.27.24-6.95.57.06.14.29.73.29.73h0Z"/>
    <path class="cls-4" d="m266.32,29.01c1.02,1.58,1.96,3.36,2.87,5.45.25-.03.51-.07.76-.11,2.56-.39,5.41-.56,8.23-.48,1.56-2.22,2.92-4.62,3.62-6.02-1.03-1.97-2.32-3.94-3.94-5.99-2.4-.21-5.1-.17-7.83.11-.39.91-1,2.28-1.86,3.76-.71,1.24-1.33,2.31-1.85,3.26h0Z"/>
    <path class="cls-4" d="m282.63,17.57c-3.1-3.1-7.22-4.8-11.6-4.8-3.67,0-7.14,1.18-10.03,3.42-2.76,2.14-4.8,5.15-5.75,8.49,3.54-1.72,8.18-3.06,13.13-3.79.35-1.08.59-2.09.81-2.99.45-1.87.77-3.21,1.64-3.45.93-.26,2.41.76,5.12,3.52,0,0,0,0,0,0h0s2.05,2.43,2.05,2.43c1.14.08,2.19.21,3.11.4l.11.02c.86.17,2.65.54,3.4,1.86.42.76.43,1.72,0,2.86-.47,1.31-.97,2.49-1.51,3.63.47,1.15.86,2.3,1.16,3.43.01.05.03.14.04.24.04.27-.18.54-.18.56l-.08.11-.04-.13c-.33-1.18-.75-2.35-1.24-3.48-.73,1.45-1.54,2.79-2.46,4.1,2.38.18,4.47.53,6.04,1.03.71-1.86,1.08-3.83,1.08-5.85,0-4.38-1.71-8.5-4.8-11.6h0Z"/>
    <path class="cls-4" d="m264.73,34.04c.39.58,1.47.74,3.5.54-.7-1.79-1.45-3.39-2.29-4.86-1.09,2.05-1.71,3.57-1.21,4.32h0Z"/>
    <path class="cls-4" d="m276.61,20.34c-1.96-2.31-3.08-3.21-3.86-3.09-.82.13-1.33,1.38-2.11,3.28l-.03.07c2.12-.23,4.14-.32,6-.26h0Z"/>
    <path class="cls-4" d="m279.05,35.66c-.96,1.19-2.05,2.41-3.46,3.87-2.04,2.09-3.17,3.05-4.08,2.82-.63-.16-1.09-.9-1.51-2.4-.36-1.26-.73-2.47-1.12-3.59l-1.49.21c-3.35.49-5.22.22-5.87-.82-.94-1.47.81-4.37,3.2-8-.54-.79-1.1-1.54-1.71-2.26-.06-.07-.12-.13-.15-.18l-.08-.1h.13c.22-.03.43.04.58.19.54.57,1.07,1.19,1.57,1.84l.23-.36,1.08-1.64c.6-.91,1.09-1.88,1.53-2.97-6.11.92-10.51,2.82-12.37,5.22-.72.88-.99,1.75-.81,3.37.44,3.77,1.94,7.11,4.76,9.96,3.07,3.1,7.2,4.76,11.56,4.76,4.79,0,9.33-2.09,12.45-5.73.75-1.01.98-1.84.66-2.5-.47-1-2.19-1.56-5.09-1.69h0Z"/>
  </g>
</svg>