<?xml version="1.0" encoding="UTF-8"?>
<svg id="Layer_1" data-name="Layer 1" xmlns="http://www.w3.org/2000/svg" xmlns:xlink="http://www.w3.org/1999/xlink" viewBox="0 0 300 300">
  <defs>
    <style>
      .cls-1 {
        fill: #00e5ca;
      }

      .cls-1, .cls-2, .cls-3 {
        stroke-width: 0px;
      }

      .cls-2 {
        fill: #fff;
      }

      .cls-3 {
        fill: #1b1f45;
      }

      .cls-4 {
        mask: url(#mask-1);
      }

      .cls-5 {
        mask: url(#mask);
      }

      .cls-6 {
        filter: url(#luminosity-invert-noclip);
      }
    </style>
    <filter id="luminosity-invert-noclip" x="0" y="0" width="300" height="300" color-interpolation-filters="sRGB" filterUnits="userSpaceOnUse">
      <feColorMatrix result="cm" values="-1 0 0 0 1 0 -1 0 0 1 0 0 -1 0 1 0 0 0 1 0"/>
      <feFlood flood-color="#fff" result="bg"/>
      <feBlend in="cm" in2="bg"/>
    </filter>
    <mask id="mask" x="0" y="0" width="300" height="300" maskUnits="userSpaceOnUse">
      <g class="cls-6">
        <circle class="cls-2" cx="150" cy="150" r="130.31" transform="translate(-14.05 284.49) rotate(-84.35)"/>
      </g>
    </mask>
    <mask id="mask-1" x="-58.06" y="0" width="416.12" height="300" maskUnits="userSpaceOnUse">
      <path class="cls-2" d="m0,0v300h300V0H0Zm150,280.31c-71.97,0-130.31-58.34-130.31-130.31S78.03,19.69,150,19.69s130.31,58.34,130.31,130.31-58.34,130.31-130.31,130.31Z"/>
    </mask>
  </defs>
  <g class="cls-5">
    <rect class="cls-1" x="0" y="0" width="300" height="300"/>
  </g>
  <g class="cls-4">
    <g>
      <path class="cls-3" d="m237.85,176.34c-8.61-36.25-30.12-73.39-60.75-105.02-8.82,6.61-17.38,14.04-25.53,22.19-.54.52-1.04,1.06-1.57,1.58,26.84,27.33,45.57,59.07,52.81,89.57,6.65,27.99,2.65,51.06-11.25,64.96-5.5,5.5-12.42,9.44-20.51,11.8-6.33,1.85-13.36,2.71-21.01,2.59h-.1c-6.59-.13-13.61-.98-21-2.59-.78-.18-1.55-.36-2.34-.54-22.46-5.34-45.57-16.89-67.12-33.33-8.28-6.32-16.35-13.36-24.04-21.06-27.69-27.69-47-60.06-54.39-91.16-6.64-27.98-2.64-51.05,11.26-64.96,9.52-9.5,23.32-14.38,40.06-14.38,7.73,0,16.08,1.03,24.91,3.13,21.93,5.21,44.5,16.36,65.61,32.2,1.06-1.1,2.13-2.19,3.21-3.27,7.66-7.66,15.65-14.77,23.9-21.28C123.41,25.75,94.22,10.89,65.6,4.09,46.46-.46,28.46-1.21,12.06,1.83-5.97,5.18-21.18,12.95-33.14,24.92c-11.98,11.96-19.74,27.18-23.09,45.22-3.04,16.38-2.29,34.4,2.26,53.52,8.91,37.51,31.62,75.96,63.96,108.3,32.34,32.34,70.79,55.05,108.3,63.96.71.17,1.41.33,2.13.5h.01c10.22,2.28,20.1,3.48,29.58,3.59,9.47-.11,19.35-1.31,29.57-3.59.01-.01.04-.01.05-.01,14.65-3.96,27.2-11.11,37.39-21.32,11.96-11.95,19.74-27.18,23.09-45.2.14-.78.28-1.54.39-2.32,2.57-15.76,1.68-32.97-2.65-51.22Z"/>
      <path class="cls-3" d="m356.23,70.13c-3.36-18.04-11.12-33.25-23.09-45.22-11.98-11.96-27.18-19.74-45.23-23.09-16.37-3.05-34.39-2.29-53.52,2.26-28.63,6.8-57.8,21.65-84.39,42.68,8.24,6.52,16.23,13.62,23.89,21.28,1.08,1.08,2.15,2.18,3.21,3.27,21.11-15.84,43.67-26.98,65.61-32.2,8.84-2.1,17.19-3.13,24.91-3.13,16.73,0,30.54,4.88,40.06,14.38,13.91,13.91,17.9,36.99,11.25,64.96-7.38,31.1-26.69,63.47-54.38,91.16-7.7,7.7-15.76,14.74-24.05,21.06-21.53,16.44-44.64,27.99-67.1,33.33-.79.18-1.57.36-2.34.54-7.39,1.61-14.42,2.46-21.01,2.59h-.1c-7.63.13-14.66-.74-21-2.59-8.09-2.36-15.02-6.29-20.51-11.8-13.9-13.9-17.9-36.97-11.25-64.96,7.25-30.5,25.98-62.24,52.82-89.57-.52-.52-1.04-1.06-1.57-1.58-8.15-8.15-16.73-15.59-25.54-22.19-30.63,31.63-52.13,68.77-60.75,105.02-4.32,18.24-5.22,35.46-2.66,51.22.13.78.27,1.54.41,2.32,3.35,18.03,11.12,33.25,23.09,45.2,10.21,10.22,22.77,17.37,37.43,21.33h.01c2.54.69,5.12,1.27,7.77,1.77,6.56,1.21,13.39,1.82,20.44,1.82h1.38c9.47-.11,19.35-1.31,29.57-3.59.01-.01.04-.01.05-.01.7-.15,1.4-.32,2.09-.48,37.5-8.91,75.96-31.62,108.3-63.96,32.34-32.34,55.05-70.79,63.96-108.3,4.55-19.12,5.31-37.14,2.27-53.52Z"/>
      <path class="cls-3" d="m177.1,71.31c-8.82,6.61-17.38,14.04-25.54,22.2-.53.53-1.05,1.05-1.57,1.58-.52-.53-1.04-1.05-1.57-1.58-8.15-8.15-16.72-15.59-25.54-22.2,1.06-1.09,2.13-2.19,3.21-3.27,7.65-7.65,15.65-14.77,23.9-21.28,8.24,6.52,16.24,13.63,23.89,21.28,1.08,1.08,2.15,2.17,3.21,3.27Z"/>
    </g>
  </g>
  <path class="cls-3" d="m150,8.87C72.06,8.87,8.87,72.06,8.87,150s63.19,141.13,141.13,141.13,141.13-63.19,141.13-141.13S227.94,8.87,150,8.87Zm0,271.44c-71.97,0-130.31-58.34-130.31-130.31S78.03,19.69,150,19.69s130.31,58.34,130.31,130.31-58.34,130.31-130.31,130.31Z"/>
  <polygon class="cls-3" points="150 300 97.77 300 97.77 287.91 150 292.63 150 300"/>
  <rect class="cls-3" width="31.36" height="12.52"/>
  <rect class="cls-3" x="268.64" width="31.36" height="12.52"/>
  <path class="cls-3" d="m0,217.49h54.19c26.28,0,47.62,21.34,47.62,47.62v34.89H0v-82.51h0Z"/>
  <g id="VERTICAL_2" data-name="VERTICAL 2">
    <g>
      <path class="cls-2" d="m59.06,248.02c-.8-3.36-2.79-6.81-5.64-9.74-.82.61-1.61,1.3-2.37,2.06-.05.05-.1.1-.15.15,2.49,2.54,4.23,5.48,4.9,8.31.62,2.6.25,4.74-1.04,6.03-.51.51-1.15.88-1.9,1.09-.59.17-1.24.25-1.95.24h0c-.61-.01-1.26-.09-1.95-.24-.07-.02-.14-.03-.22-.05-2.08-.5-4.23-1.57-6.23-3.09-.77-.59-1.52-1.24-2.23-1.95-2.57-2.57-4.36-5.57-5.05-8.46-.62-2.6-.24-4.74,1.05-6.03.88-.88,2.16-1.33,3.72-1.33.72,0,1.49.1,2.31.29,2.03.48,4.13,1.52,6.09,2.99.1-.1.2-.2.3-.3.71-.71,1.45-1.37,2.22-1.97-2.47-1.95-5.18-3.33-7.83-3.96-1.78-.42-3.45-.49-4.97-.21-1.67.31-3.08,1.03-4.19,2.14-1.11,1.11-1.83,2.52-2.14,4.2-.28,1.52-.21,3.19.21,4.97.83,3.48,2.93,7.05,5.93,10.05,3,3,6.57,5.11,10.05,5.93.07.02.13.03.2.05h0c.95.21,1.87.32,2.74.33.88-.01,1.8-.12,2.74-.33,0,0,0,0,0,0,1.36-.37,2.52-1.03,3.47-1.98,1.11-1.11,1.83-2.52,2.14-4.19.01-.07.03-.14.04-.22.24-1.46.16-3.06-.25-4.75Z"/>
      <path class="cls-2" d="m70.04,238.16c-.31-1.67-1.03-3.09-2.14-4.2-1.11-1.11-2.52-1.83-4.2-2.14-1.52-.28-3.19-.21-4.97.21-2.66.63-5.36,2.01-7.83,3.96.76.61,1.51,1.26,2.22,1.97.1.1.2.2.3.3,1.96-1.47,4.05-2.5,6.09-2.99.82-.2,1.59-.29,2.31-.29,1.55,0,2.83.45,3.72,1.33,1.29,1.29,1.66,3.43,1.04,6.03-.68,2.89-2.48,5.89-5.05,8.46-.71.71-1.46,1.37-2.23,1.95-2,1.52-4.14,2.6-6.23,3.09-.07.02-.15.03-.22.05-.69.15-1.34.23-1.95.24h0c-.71.01-1.36-.07-1.95-.24-.75-.22-1.39-.58-1.9-1.09-1.29-1.29-1.66-3.43-1.04-6.03.67-2.83,2.41-5.77,4.9-8.31-.05-.05-.1-.1-.15-.15-.76-.76-1.55-1.45-2.37-2.06-2.84,2.94-4.84,6.38-5.64,9.74-.4,1.69-.48,3.29-.25,4.75.01.07.02.14.04.22.31,1.67,1.03,3.09,2.14,4.19.95.95,2.11,1.61,3.47,1.98h0c.24.06.48.12.72.16.61.11,1.24.17,1.9.17h.13c.88-.01,1.8-.12,2.74-.33,0,0,0,0,0,0,.07-.01.13-.03.19-.04,3.48-.83,7.05-2.93,10.05-5.93,3-3,5.11-6.57,5.93-10.05.42-1.77.49-3.45.21-4.97Z"/>
      <path class="cls-2" d="m53.42,238.27c-.82.61-1.61,1.3-2.37,2.06-.05.05-.1.1-.15.15-.05-.05-.1-.1-.15-.15-.76-.76-1.55-1.45-2.37-2.06.1-.1.2-.2.3-.3.71-.71,1.45-1.37,2.22-1.97.76.61,1.51,1.26,2.22,1.97.1.1.2.2.3.3Z"/>
    </g>
    <g>
      <g>
        <path class="cls-2" d="m30,273.19v.76h-5.87v-8.29h5.69v.76h-4.81v2.95h4.29v.75h-4.29v3.08h4.99Z"/>
        <path class="cls-2" d="m32.06,265.66h.88v8.29h-.88v-8.29Z"/>
        <path class="cls-2" d="m42.57,265.66v8.29h-.72l-5.33-6.73v6.73h-.88v-8.29h.72l5.34,6.73v-6.73h.86Z"/>
        <path class="cls-2" d="m44.48,272.94l.34-.68c.59.58,1.65,1.01,2.74,1.01,1.55,0,2.23-.65,2.23-1.47,0-2.28-5.11-.88-5.11-3.95,0-1.22.95-2.28,3.06-2.28.94,0,1.91.27,2.57.73l-.3.7c-.71-.46-1.54-.69-2.28-.69-1.52,0-2.19.68-2.19,1.5,0,2.28,5.11.9,5.11,3.92,0,1.22-.97,2.26-3.09,2.26-1.24,0-2.46-.44-3.08-1.08Z"/>
        <path class="cls-2" d="m54.05,266.41h-2.92v-.76h6.71v.76h-2.92v7.54h-.88v-7.54Z"/>
        <path class="cls-2" d="m65.11,273.19v.76h-5.87v-8.29h5.69v.76h-4.81v2.95h4.29v.75h-4.29v3.08h4.99Z"/>
        <path class="cls-2" d="m67.17,265.66h.88v8.29h-.88v-8.29Z"/>
        <path class="cls-2" d="m77.68,265.66v8.29h-.72l-5.33-6.73v6.73h-.88v-8.29h.72l5.34,6.73v-6.73h.86Z"/>
      </g>
      <g>
        <path class="cls-2" d="m21.08,280.45c0,1.88-1.42,3.06-3.69,3.06h-1.45v2.17h-2.35v-8.29h3.79c2.26,0,3.69,1.17,3.69,3.07Zm-2.37,0c0-.77-.49-1.22-1.46-1.22h-1.3v2.43h1.3c.97,0,1.46-.45,1.46-1.21Z"/>
        <path class="cls-2" d="m28.87,283.86v1.81h-6.66v-8.29h6.51v1.81h-4.18v1.4h3.69v1.75h-3.69v1.52h4.34Z"/>
        <path class="cls-2" d="m33.8,283.47h-1.28v2.2h-2.35v-8.29h3.79c2.26,0,3.69,1.17,3.69,3.07,0,1.22-.59,2.12-1.62,2.62l1.79,2.61h-2.51l-1.5-2.2Zm.02-4.24h-1.3v2.43h1.3c.97,0,1.46-.45,1.46-1.21s-.49-1.22-1.46-1.22Z"/>
        <path class="cls-2" d="m40.59,279.24h-2.55v-1.86h7.43v1.86h-2.54v6.43h-2.35v-6.43Z"/>
        <path class="cls-2" d="m53.01,283.86v1.81h-6.66v-8.29h6.51v1.81h-4.18v1.4h3.69v1.75h-3.69v1.52h4.34Z"/>
        <path class="cls-2" d="m62.21,277.38v8.29h-1.93l-3.66-4.42v4.42h-2.3v-8.29h1.93l3.66,4.42v-4.42h2.3Z"/>
        <path class="cls-2" d="m63.44,281.52c0-2.52,1.93-4.31,4.56-4.31,1.53,0,2.76.56,3.57,1.56l-1.49,1.35c-.52-.63-1.16-.97-1.96-.97-1.36,0-2.31.95-2.31,2.37s.95,2.37,2.31,2.37c.79,0,1.43-.34,1.96-.97l1.49,1.35c-.81,1.01-2.04,1.56-3.57,1.56-2.63,0-4.56-1.79-4.56-4.31Z"/>
        <path class="cls-2" d="m79.27,283.86v1.81h-6.66v-8.29h6.51v1.81h-4.18v1.4h3.69v1.75h-3.69v1.52h4.34Z"/>
        <path class="cls-2" d="m84.2,283.47h-1.28v2.2h-2.35v-8.29h3.79c2.26,0,3.69,1.17,3.69,3.07,0,1.22-.59,2.12-1.62,2.62l1.79,2.61h-2.51l-1.5-2.2Zm.02-4.24h-1.3v2.43h1.3c.97,0,1.46-.45,1.46-1.21s-.49-1.22-1.46-1.22Z"/>
      </g>
    </g>
  </g>
</svg>