<?xml version="1.0" encoding="UTF-8" standalone="no"?>
<!DOCTYPE svg PUBLIC "-//W3C//DTD SVG 1.1//EN" "http://www.w3.org/Graphics/SVG/1.1/DTD/svg11.dtd">
<svg width="100%" height="100%" viewBox="0 0 152 148" version="1.1" xmlns="http://www.w3.org/2000/svg" xmlns:xlink="http://www.w3.org/1999/xlink" xml:space="preserve" xmlns:serif="http://www.serif.com/" style="fill-rule:evenodd;clip-rule:evenodd;">
    <g transform="matrix(1,0,0,1,-9247.07,-17249.7)">
        <g transform="matrix(1,0,0,1,8640,15606)">
            <g transform="matrix(1,0,0,-1,618,1715.6)">
                <path d="M3.5,17L3.5,44C3.5,44.886 3.586,45.764 3.759,46.634C3.932,47.503 4.188,48.347 4.528,49.166C4.867,49.985 5.283,50.763 5.775,51.5C6.268,52.237 6.827,52.919 7.454,53.546C8.081,54.173 8.763,54.732 9.5,55.225C10.237,55.717 11.015,56.133 11.834,56.472C12.653,56.812 13.497,57.068 14.366,57.241C15.236,57.414 16.114,57.5 17,57.5L45,57.5C45.886,57.5 46.764,57.414 47.634,57.241C48.503,57.068 49.347,56.812 50.166,56.472C50.985,56.133 51.763,55.717 52.5,55.225C53.237,54.732 53.919,54.173 54.546,53.546C55.173,52.919 55.732,52.237 56.225,51.5C56.717,50.763 57.133,49.985 57.472,49.166C57.812,48.347 58.068,47.503 58.241,46.634C58.414,45.764 58.5,44.886 58.5,44L58.5,17C58.5,16.114 58.414,15.236 58.241,14.366C58.068,13.497 57.812,12.653 57.472,11.834C57.133,11.015 56.717,10.237 56.225,9.5C55.732,8.763 55.173,8.081 54.546,7.454C53.919,6.827 53.237,6.268 52.5,5.775C51.763,5.283 50.985,4.867 50.166,4.528C49.347,4.188 48.503,3.932 47.634,3.759C46.764,3.586 45.886,3.5 45,3.5L17,3.5C16.114,3.5 15.236,3.586 14.366,3.759C13.497,3.932 12.653,4.188 11.834,4.528C11.015,4.867 10.237,5.283 9.5,5.775C8.763,6.268 8.081,6.827 7.454,7.454C6.827,8.081 6.268,8.763 5.775,9.5C5.283,10.237 4.867,11.015 4.528,11.834C4.188,12.653 3.932,13.497 3.759,14.366C3.586,15.236 3.5,16.114 3.5,17Z" 
                style="fill:none;stroke:rgb(0,0,0);stroke-width:7px;"/>
            </g>
            <g transform="matrix(1,0,0,-1,686,1715.6)">
                <path d="M3.5,17L3.5,44C3.5,44.886 3.586,45.764 3.759,46.634C3.932,47.503 4.188,48.347 4.528,49.166C4.867,49.985 5.283,50.763 5.775,51.5C6.268,52.237 6.827,52.919 7.454,53.546C8.081,54.173 8.763,54.732 9.5,55.225C10.237,55.717 11.015,56.133 11.834,56.472C12.653,56.812 13.497,57.068 14.366,57.241C15.236,57.414 16.114,57.5 17,57.5L45,57.5C45.886,57.5 46.764,57.414 47.634,57.241C48.503,57.068 49.347,56.812 50.166,56.472C50.985,56.133 51.763,55.717 52.5,55.225C53.237,54.732 53.919,54.173 54.546,53.546C55.173,52.919 55.732,52.237 56.225,51.5C56.717,50.763 57.133,49.985 57.472,49.166C57.812,48.347 58.068,47.503 58.241,46.634C58.414,45.764 58.5,44.886 58.5,44L58.5,17C58.5,16.114 58.414,15.236 58.241,14.366C58.068,13.497 57.812,12.653 57.472,11.834C57.133,11.015 56.717,10.237 56.225,9.5C55.732,8.763 55.173,8.081 54.546,7.454C53.919,6.827 53.237,6.268 52.5,5.775C51.763,5.283 50.985,4.867 50.166,4.528C49.347,4.188 48.503,3.932 47.634,3.759C46.764,3.586 45.886,3.5 45,3.5L17,3.5C16.114,3.5 15.236,3.586 14.366,3.759C13.497,3.932 12.653,4.188 11.834,4.528C11.015,4.867 10.237,5.283 9.5,5.775C8.763,6.268 8.081,6.827 7.454,7.454C6.827,8.081 6.268,8.763 5.775,9.5C5.283,10.237 4.867,11.015 4.528,11.834C4.188,12.653 3.932,13.497 3.759,14.366C3.586,15.236 3.5,16.114 3.5,17Z" 
                style="fill:none;stroke:rgb(0,0,0);stroke-width:7px;"/>
            </g>
            <g transform="matrix(1,0,0,-1,686,1780.6)">
                <path d="M3.5,17L3.5,44C3.5,44.886 3.586,45.764 3.759,46.634C3.932,47.503 4.188,48.347 4.528,49.166C4.867,49.985 5.283,50.763 5.775,51.5C6.268,52.237 6.827,52.919 7.454,53.546C8.081,54.173 8.763,54.732 9.5,55.225C10.237,55.717 11.015,56.133 11.834,56.472C12.653,56.812 13.497,57.068 14.366,57.241C15.236,57.414 16.114,57.5 17,57.5L45,57.5C45.886,57.5 46.764,57.414 47.634,57.241C48.503,57.068 49.347,56.812 50.166,56.472C50.985,56.133 51.763,55.717 52.5,55.225C53.237,54.732 53.919,54.173 54.546,53.546C55.173,52.919 55.732,52.237 56.225,51.5C56.717,50.763 57.133,49.985 57.472,49.166C57.812,48.347 58.068,47.503 58.241,46.634C58.414,45.764 58.5,44.886 58.5,44L58.5,17C58.5,16.114 58.414,15.236 58.241,14.366C58.068,13.497 57.812,12.653 57.472,11.834C57.133,11.015 56.717,10.237 56.225,9.5C55.732,8.763 55.173,8.081 54.546,7.454C53.919,6.827 53.237,6.268 52.5,5.775C51.763,5.283 50.985,4.867 50.166,4.528C49.347,4.188 48.503,3.932 47.634,3.759C46.764,3.586 45.886,3.5 45,3.5L17,3.5C16.114,3.5 15.236,3.586 14.366,3.759C13.497,3.932 12.653,4.188 11.834,4.528C11.015,4.867 10.237,5.283 9.5,5.775C8.763,6.268 8.081,6.827 7.454,7.454C6.827,8.081 6.268,8.763 5.775,9.5C5.283,10.237 4.867,11.015 4.528,11.834C4.188,12.653 3.932,13.497 3.759,14.366C3.586,15.236 3.5,16.114 3.5,17Z" 
                style="fill:none;stroke:rgb(0,0,0);stroke-width:7px;"/>
            </g>
            <g transform="matrix(1,0,0,-1,618,1780.6)">
                <path d="M3.5,17L3.5,44C3.5,44.886 3.586,45.764 3.759,46.634C3.932,47.503 4.188,48.347 4.528,49.166C4.867,49.985 5.283,50.763 5.775,51.5C6.268,52.237 6.827,52.919 7.454,53.546C8.081,54.173 8.763,54.732 9.5,55.225C10.237,55.717 11.015,56.133 11.834,56.472C12.653,56.812 13.497,57.068 14.366,57.241C15.236,57.414 16.114,57.5 17,57.5L45,57.5C45.886,57.5 46.764,57.414 47.634,57.241C48.503,57.068 49.347,56.812 50.166,56.472C50.985,56.133 51.763,55.717 52.5,55.225C53.237,54.732 53.919,54.173 54.546,53.546C55.173,52.919 55.732,52.237 56.225,51.5C56.717,50.763 57.133,49.985 57.472,49.166C57.812,48.347 58.068,47.503 58.241,46.634C58.414,45.764 58.5,44.886 58.5,44L58.5,17C58.5,16.114 58.414,15.236 58.241,14.366C58.068,13.497 57.812,12.653 57.472,11.834C57.133,11.015 56.717,10.237 56.225,9.5C55.732,8.763 55.173,8.081 54.546,7.454C53.919,6.827 53.237,6.268 52.5,5.775C51.763,5.283 50.985,4.867 50.166,4.528C49.347,4.188 48.503,3.932 47.634,3.759C46.764,3.586 45.886,3.5 45,3.5L17,3.5C16.114,3.5 15.236,3.586 14.366,3.759C13.497,3.932 12.653,4.188 11.834,4.528C11.015,4.867 10.237,5.283 9.5,5.775C8.763,6.268 8.081,6.827 7.454,7.454C6.827,8.081 6.268,8.763 5.775,9.5C5.283,10.237 4.867,11.015 4.528,11.834C4.188,12.653 3.932,13.497 3.759,14.366C3.586,15.236 3.5,16.114 3.5,17Z" 
                style="fill:none;stroke:rgb(0,0,0);stroke-width:7px;"/>
            </g>
            <g transform="matrix(1,0,0,-1,630.026,1691.7)">
                <path d="M18.315,23.63C12.618,23.63 8,19.012 8,13.315C8,7.618 12.618,3 18.315,3C24.012,3 28.63,7.618 28.63,13.315C28.623,19.009 24.009,23.623 18.315,23.63L18.315,23.63ZM18.315,5.579C14.042,5.579 10.579,9.042 10.579,13.315C10.579,17.588 14.042,21.052 18.315,21.052C22.588,21.052 26.052,17.588 26.052,13.315C26.048,9.044 22.586,5.582 18.315,5.579L18.315,5.579Z" 
                style="fill:rgb(0,0,0);"/>
            </g>
            <g transform="matrix(1,0,0,-1,628.001,1722.62)">
                <path d="M1.39,21.386C1.901,20.89 2.717,20.901 3.214,21.412C7.597,26.214 13.84,28.892 20.341,28.757C26.842,28.892 33.085,26.214 37.468,21.411C37.964,20.9 38.781,20.889 39.292,21.385C39.803,21.882 39.814,22.698 39.318,23.209C34.435,28.493 27.534,31.448 20.341,31.336C13.148,31.448 6.247,28.493 1.364,23.209C0.868,22.698 0.88,21.882 1.39,21.386Z" 
                style="fill:rgb(0,0,0);"/>
            </g>
            <g transform="matrix(1,0,0,-1,630.026,1756.7)">
                <path d="M18.315,23.63C12.618,23.63 8,19.012 8,13.315C8,7.618 12.618,3 18.315,3C24.012,3 28.63,7.618 28.63,13.315C28.623,19.009 24.009,23.623 18.315,23.63L18.315,23.63ZM18.315,5.579C14.042,5.579 10.579,9.042 10.579,13.315C10.579,17.588 14.042,21.052 18.315,21.052C22.588,21.052 26.052,17.588 26.052,13.315C26.048,9.044 22.586,5.582 18.315,5.579L18.315,5.579Z" 
                style="fill:rgb(0,0,0);"/>
            </g>
            <g transform="matrix(1,0,0,-1,628.001,1787.62)">
                <path d="M1.39,21.386C1.901,20.89 2.717,20.901 3.214,21.412C7.597,26.214 13.84,28.892 20.341,28.757C26.842,28.892 33.085,26.214 37.468,21.411C37.964,20.9 38.781,20.889 39.292,21.385C39.803,21.882 39.814,22.698 39.318,23.209C34.435,28.493 27.534,31.448 20.341,31.336C13.148,31.448 6.247,28.493 1.364,23.209C0.868,22.698 0.88,21.882 1.39,21.386Z" 
                style="fill:rgb(0,0,0);"/>
            </g>
            <g transform="matrix(1,0,0,-1,699.026,1691.7)">
                <path d="M18.315,23.63C12.618,23.63 8,19.012 8,13.315C8,7.618 12.618,3 18.315,3C24.012,3 28.63,7.618 28.63,13.315C28.623,19.009 24.009,23.623 18.315,23.63L18.315,23.63ZM18.315,5.579C14.042,5.579 10.579,9.042 10.579,13.315C10.579,17.588 14.042,21.052 18.315,21.052C22.588,21.052 26.052,17.588 26.052,13.315C26.048,9.044 22.586,5.582 18.315,5.579L18.315,5.579Z" 
                style="fill:rgb(0,0,0);"/>
            </g>
            <g transform="matrix(1,0,0,-1,697.001,1722.62)">
                <path d="M1.39,21.386C1.901,20.89 2.717,20.901 3.214,21.412C7.597,26.214 13.84,28.892 20.341,28.757C26.842,28.892 33.085,26.214 37.468,21.411C37.964,20.9 38.781,20.889 39.292,21.385C39.803,21.882 39.814,22.698 39.318,23.209C34.435,28.493 27.534,31.448 20.341,31.336C13.148,31.448 6.247,28.493 1.364,23.209C0.868,22.698 0.88,21.882 1.39,21.386Z" 
                style="fill:rgb(0,0,0);"/>
            </g>
            <g transform="matrix(1,0,0,-1,699.026,1756.7)">
                <path d="M18.315,23.63C12.618,23.63 8,19.012 8,13.315C8,7.618 12.618,3 18.315,3C24.012,3 28.63,7.618 28.63,13.315C28.623,19.009 24.009,23.623 18.315,23.63L18.315,23.63ZM18.315,5.579C14.042,5.579 10.579,9.042 10.579,13.315C10.579,17.588 14.042,21.052 18.315,21.052C22.588,21.052 26.052,17.588 26.052,13.315C26.048,9.044 22.586,5.582 18.315,5.579L18.315,5.579Z" 
                style="fill:rgb(0,0,0);"/>
            </g>
            <g transform="matrix(1,0,0,-1,697.001,1787.62)">
                <path d="M1.39,21.386C1.901,20.89 2.717,20.901 3.214,21.412C7.597,26.214 13.84,28.892 20.341,28.757C26.842,28.892 33.085,26.214 37.468,21.411C37.964,20.9 38.781,20.889 39.292,21.385C39.803,21.882 39.814,22.698 39.318,23.209C34.435,28.493 27.534,31.448 20.341,31.336C13.148,31.448 6.247,28.493 1.364,23.209C0.868,22.698 0.88,21.882 1.39,21.386Z" 
                style="fill:rgb(0,0,0);"/>
            </g>
        </g>
    </g>
</svg>
