<?xml version="1.0" encoding="UTF-8"?>
<svg xmlns="http://www.w3.org/2000/svg" viewBox="0 0 63 95">
  <defs>
    <style>
      .cls-1 {
        fill: #192b31;
        opacity: 0;
      }

      .cls-1, .cls-2 {
        stroke-width: 0px;
      }
    </style>
  </defs>
  <g id="bg">
    <rect class="cls-1" width="63" height="95"/>
  </g>
  <g id="progresso">
    <path class="cls-2" d="m61.75,54.38c-1.83-6.34-5.61-11.76-10.05-18.13l-.09-.13c-1.15-1.64-2.37-3.37-3.6-5.21-2.46-.85-3.64-2.13-7.21-2.94-8.59-1.95-13.53,2.78-23.96,3.59-.71.06-1.51.09-2.34.1-1.01,1.49-2,2.92-2.95,4.28l-.1.15c-4.51,6.44-8.34,11.93-10.19,18.31v17.12c3.74,13.34,15.88,23.15,30.25,23.15s26.51-9.81,30.25-23.15v-17.15Z"/>
  </g>
</svg>