<?xml version="1.0" encoding="UTF-8"?>
<svg xmlns="http://www.w3.org/2000/svg" viewBox="0 0 63 95">
  <defs>
    <style>
      .cls-1 {
        fill: #192b31;
        opacity: 0;
      }

      .cls-1, .cls-2 {
        stroke-width: 0px;
      }
    </style>
  </defs>
  <g id="bg">
    <rect class="cls-1" width="63" height="95"/>
  </g>
  <g id="progresso">
    <path class="cls-2" d="m46.21,34.58c-10.43-.81-15.37-5.55-23.96-3.59-4.59,1.04-5.25,2.86-9.72,3.54-.33.48-.66.96-.99,1.42l-.1.15C5.08,45.19.06,52.36.06,62.86c0,17.55,14.11,31.82,31.44,31.82s31.44-14.28,31.44-31.82c0-10.49-4.96-17.6-11.24-26.61l-.09-.13c-.33-.48-.67-.96-1.02-1.45-1.64.06-3.11.02-4.38-.08Z"/>
  </g>
</svg>