<?xml version="1.0" encoding="UTF-8"?>
<svg xmlns="http://www.w3.org/2000/svg" viewBox="0 0 63 95">
  <defs>
    <style>
      .cls-1 {
        fill: #192b31;
        opacity: 0;
      }

      .cls-1, .cls-2 {
        stroke-width: 0px;
      }
    </style>
  </defs>
  <g id="bg">
    <rect class="cls-1" width="63" height="95"/>
  </g>
  <g id="progresso">
    <path class="cls-2" d="m61.75,54.38c-1.83-6.34-5.61-11.76-10.05-18.13l-.09-.13c-.11-.16-.22-.32-.34-.48-1.94.11-3.66.07-5.11-.05-10.43-.81-15.37-5.55-23.96-3.59-4.71,1.07-5.27,2.96-10.07,3.59-.12.02-.25.02-.37.04-.07.11-.15.22-.22.32l-.1.15c-4.51,6.44-8.34,11.93-10.19,18.31v17.12c3.74,13.34,15.88,23.15,30.25,23.15s26.51-9.81,30.25-23.15v-17.15Z"/>
  </g>
</svg>