<?xml version="1.0" encoding="UTF-8"?>
<svg xmlns="http://www.w3.org/2000/svg" viewBox="0 0 63 95">
  <defs>
    <style>
      .cls-1 {
        fill: #192b31;
        opacity: 0;
      }

      .cls-1, .cls-2 {
        stroke-width: 0px;
      }
    </style>
  </defs>
  <g id="bg">
    <rect class="cls-1" width="63" height="95"/>
  </g>
  <g id="progresso">
    <path class="cls-2" d="m51.61,36.12c-1.53-2.18-3.16-4.5-4.81-7.02-1.77-.81-3.09-1.8-6.05-2.48-8.59-1.95-13.53,2.78-23.96,3.59-.43.03-.9.06-1.37.08-1.33,2-2.63,3.88-3.87,5.66l-.1.15C5.08,45.19.06,52.36.06,62.86c0,17.55,14.11,31.82,31.44,31.82s31.44-14.28,31.44-31.82c0-10.49-4.96-17.6-11.24-26.61l-.09-.13Z"/>
  </g>
</svg>