<?xml version="1.0" encoding="UTF-8"?>
<svg xmlns="http://www.w3.org/2000/svg" viewBox="0 0 63 95">
  <defs>
    <style>
      .cls-1 {
        fill: #192b31;
        opacity: 0;
      }

      .cls-1, .cls-2 {
        stroke-width: 0px;
      }
    </style>
  </defs>
  <g id="bg">
    <rect class="cls-1" width="63" height="95"/>
  </g>
  <g id="progresso">
    <path class="cls-2" d="m66.27,62.86c0,19.43-15.56,35.14-34.77,35.14S-3.27,82.29-3.27,62.86C-3.27,40.94,16.49,32.48,25.73,1.35c.89-2.94,3.32-4.37,5.59-4.37,2.67,0,5.17,1.48,5.96,4.37,9.28,31.26,28.98,39.45,28.98,61.51m-6.32,0c0-9.59-4.54-16.06-10.79-25.02-5.78-8.23-12.94-18.44-17.66-33.76-4.72,15.27-11.85,25.47-17.6,33.74-6.3,9-10.84,15.49-10.84,25.04,0,15.9,12.76,28.82,28.44,28.82s28.44-12.92,28.44-28.82"/>
    <path class="cls-2" d="m61.75,54.38c-1.83-6.34-5.61-11.76-10.05-18.13l-.09-.13c-5.64-8.03-12.65-18.02-17.24-32.92l-.31-1c-.07-.24-.18-.44-.29-.63-1.68.26-3.31.7-5,1.21l-.13.42c-4.55,14.73-11.5,24.72-17.09,32.75l-.1.15c-4.51,6.44-8.34,11.93-10.19,18.31v17.12c3.74,13.34,15.88,23.15,30.25,23.15s26.51-9.81,30.25-23.15v-17.15Z"/>
  </g>
</svg>