<?xml version="1.0" encoding="UTF-8" standalone="no"?>
<!DOCTYPE svg PUBLIC "-//W3C//DTD SVG 1.1//EN" "http://www.w3.org/Graphics/SVG/1.1/DTD/svg11.dtd">
<svg width="100%" height="100%" viewBox="0 0 104 94" version="1.1" xmlns="http://www.w3.org/2000/svg" xmlns:xlink="http://www.w3.org/1999/xlink" xml:space="preserve" xmlns:serif="http://www.serif.com/" style="fill-rule:evenodd;clip-rule:evenodd;stroke-linejoin:round;stroke-miterlimit:2;">
    <g transform="matrix(1,0,0,1,-6521,-4894.37)">
        <g transform="matrix(1,0,0,1,6480,4773.38)">
            <g transform="matrix(1,0,0,-1,-106.316,210.907)">
                <path d="M200.524,62.916C203.733,59.721 207.063,57.805 210.169,57.396C213.276,56.977 216.117,58.042 218.624,60.544C219.279,61.2 220.358,61.214 221.028,60.544C221.698,59.875 221.698,58.809 221.028,58.14C218.842,55.949 216.359,54.605 213.694,54.126L230.919,36.899C232.11,35.699 232.845,34.216 233.119,32.672L238.602,38.155C238.635,38.202 238.681,38.243 238.728,38.29C244.057,43.62 247.001,50.712 247.001,58.261C247.001,65.809 244.066,72.906 238.728,78.241C233.389,83.571 226.297,86.505 218.759,86.505L218.749,86.505C211.211,86.505 204.119,83.571 198.78,78.231C198.78,78.231 179.448,58.898 176.239,55.689C175.277,54.726 176.002,53.591 176.774,52.81C179.039,50.545 184.298,49.071 188.368,53.14L198.124,62.912C198.761,63.549 199.896,63.549 200.529,62.912L200.524,62.916ZM158.977,78.25C147.96,67.237 147.969,49.303 158.977,38.299C159.023,38.253 159.065,38.197 159.111,38.155L195.636,1.627C197.417,-0.14 200.291,-0.14 202.063,1.627C202.914,2.488 203.389,3.632 203.389,4.846C203.389,6.06 202.914,7.19 202.063,8.041L183.931,26.165C183.275,26.835 183.275,27.909 183.931,28.579C184.601,29.235 185.675,29.235 186.345,28.579L204.463,10.455C206.23,8.687 209.109,8.687 210.867,10.445C211.727,11.306 212.206,12.441 212.206,13.654C212.206,14.868 211.732,16.012 210.881,16.864L192.748,34.997C192.093,35.653 192.093,36.732 192.748,37.402C193.418,38.071 194.492,38.071 195.162,37.402L213.285,19.277C214.145,18.417 215.28,17.938 216.494,17.938C217.707,17.938 218.838,18.412 219.703,19.263C221.47,21.031 221.47,23.91 219.703,25.677L201.57,43.811C200.915,44.48 200.915,45.545 201.57,46.21C202.24,46.88 203.314,46.88 203.97,46.21L222.102,28.086C222.953,27.226 224.097,26.747 225.311,26.747C226.525,26.747 227.669,27.221 228.52,28.086C230.287,29.853 230.287,32.732 228.52,34.5L208.834,54.187C205.672,54.819 202.44,56.568 199.361,59.344L190.772,50.74C185.061,45.038 177.616,47.168 174.374,50.41C171.914,52.87 171.7,55.963 173.84,58.093C176.914,61.177 194.841,79.106 196.278,80.534C185.149,89.226 169.115,88.366 158.981,78.245L158.977,78.25ZM193.237,-0.782L156.563,35.885C156.517,35.932 156.475,35.988 156.437,36.03C144.23,48.382 144.276,68.353 156.572,80.654C168.073,92.147 186.368,93.007 198.854,82.873C204.468,87.431 211.415,89.914 218.749,89.914L218.758,89.914C227.199,89.914 235.156,86.626 241.132,80.654C247.103,74.669 250.4,66.725 250.4,58.27C250.4,49.815 247.159,41.983 241.253,36.02C241.22,35.974 241.174,35.932 241.141,35.885L230.919,25.686C229.427,24.179 227.432,23.351 225.311,23.351C224.985,23.351 224.679,23.384 224.358,23.421C224.627,21.086 223.883,18.649 222.102,16.859C220.609,15.361 218.61,14.538 216.494,14.538C216.177,14.538 215.857,14.561 215.54,14.594C215.587,14.287 215.61,13.971 215.61,13.654C215.61,11.538 214.782,9.543 213.285,8.046C211.732,6.501 209.704,5.734 207.676,5.734C207.36,5.734 207.044,5.757 206.737,5.79C206.77,5.483 206.793,5.167 206.793,4.85C206.793,2.734 205.965,0.734 204.468,-0.772C202.914,-2.312 200.887,-3.093 198.859,-3.093C196.818,-3.093 194.79,-2.317 193.237,-0.772L193.237,-0.782Z" style="fill:rgb(0,79,129);fill-rule:nonzero;"/>
            </g>
        </g>
        <g transform="matrix(1,0,0,1,6480,4773.38)">
            <g transform="matrix(1,0,0,-1,-114.225,166.19)">
                <path d="M163.235,13.26C162.607,13.26 162.1,13.767 162.1,14.395C162.1,27.98 173.15,39.03 186.729,39.03C187.357,39.03 187.864,38.523 187.864,37.896C187.864,37.268 187.357,36.761 186.729,36.761C174.396,36.761 164.365,26.724 164.365,14.395C164.365,13.767 163.858,13.26 163.23,13.26L163.235,13.26Z" style="fill:rgb(0,79,129);fill-rule:nonzero;"/>
            </g>
        </g>
        <g transform="matrix(1,0,0,1,6480,4773.38)">
            <g transform="matrix(1,0,0,-1,-167.553,149.754)">
                <path d="M262.919,13.396C262.63,13.396 262.337,13.507 262.119,13.726C261.677,14.168 261.677,14.884 262.119,15.33C266.448,19.66 272.201,22.214 278.316,22.516C278.949,22.549 279.474,22.065 279.507,21.437C279.54,20.814 279.056,20.279 278.433,20.251C272.88,19.977 267.658,17.66 263.723,13.731C263.5,13.507 263.212,13.4 262.923,13.4L262.919,13.396Z" style="fill:rgb(0,79,129);fill-rule:nonzero;"/>
            </g>
        </g>
        <g transform="matrix(1,0,0,1,6480,4773.38)">
            <g transform="matrix(1,0,0,-1,-161.133,169.997)">
                <path d="M250.919,28.057C250.63,28.057 250.337,28.169 250.119,28.387C249.677,28.829 249.677,29.545 250.119,29.992L255.699,35.573C256.141,36.015 256.857,36.015 257.304,35.573C257.75,35.131 257.746,34.415 257.304,33.968L251.723,28.387C251.5,28.164 251.212,28.057 250.923,28.057L250.919,28.057Z" style="fill:rgb(0,79,129);fill-rule:nonzero;"/>
            </g>
        </g>
        <g transform="matrix(1,0,0,1,6480,4773.38)">
            <g transform="matrix(1,0,0,-1,-155.11,192.494)">
                <path d="M239.659,45.317C239.37,45.317 239.077,45.429 238.859,45.647C238.417,46.089 238.417,46.805 238.859,47.252L241.649,50.042C242.091,50.484 242.807,50.484 243.254,50.042C243.7,49.6 243.695,48.884 243.254,48.438L240.463,45.647C240.24,45.424 239.952,45.317 239.663,45.317L239.659,45.317Z" style="fill:rgb(0,79,129);fill-rule:nonzero;"/>
            </g>
        </g>
    </g>
</svg>
