<?xml version="1.0" encoding="UTF-8" standalone="no"?>
<!DOCTYPE svg PUBLIC "-//W3C//DTD SVG 1.1//EN" "http://www.w3.org/Graphics/SVG/1.1/DTD/svg11.dtd">
<svg width="100%" height="100%" viewBox="0 0 339 97" version="1.1" xmlns="http://www.w3.org/2000/svg" xmlns:xlink="http://www.w3.org/1999/xlink" xml:space="preserve" xmlns:serif="http://www.serif.com/" style="fill-rule:evenodd;clip-rule:evenodd;stroke-linejoin:round;stroke-miterlimit:2;">
    <g transform="matrix(1,0,0,1,-7271,-6576.93)">
        <g transform="matrix(1,0,0,1,6480,5202)">
            <g>
                <g transform="matrix(1,0,0,-1,690.365,1427.08)">
                    <path d="M290.585,32.493C289.463,34.375 286.916,34.935 285.089,35.196L284.648,35.261C286.749,32.221 288.578,29.103 290.1,25.985C290.271,26.358 290.406,26.671 290.5,26.93C291.358,29.268 291.381,31.136 290.585,32.493" style="fill:white;fill-rule:nonzero;"/>
                </g>
                <g transform="matrix(1,0,0,-1,699.573,1487.98)">
                    <path d="M259.123,68.868C260.129,66.244 261.186,64.899 262.448,64.648C264.027,64.326 266.117,65.636 269.203,68.886C269.835,69.546 270.518,70.331 271.227,71.238C267.704,71.15 263.461,70.8 258.603,70.193C258.706,69.943 259.123,68.868 259.123,68.868" style="fill:white;fill-rule:nonzero;"/>
                </g>
                <g transform="matrix(1,0,0,-1,703.144,1439.65)">
                    <path d="M248.503,35.041C250.362,32.157 252.071,28.897 253.719,25.076C254.172,25.136 254.64,25.211 255.105,25.282C259.766,25.996 264.93,26.301 270.053,26.151C272.885,30.216 275.36,34.593 276.642,37.144C274.777,40.751 272.421,44.339 269.477,48.09C265.118,48.474 260.209,48.406 255.25,47.89C254.542,46.226 253.428,43.729 251.869,41.008C250.577,38.744 249.458,36.789 248.503,35.041" style="fill:white;fill-rule:nonzero;"/>
                </g>
                <g transform="matrix(1,0,0,-1,714.149,1415.58)">
                    <path d="M267.131,31.879C261.498,37.538 254.011,40.657 246.051,40.657C239.385,40.657 233.078,38.502 227.817,34.403C222.801,30.494 219.104,24.994 217.375,18.887C223.802,22.028 232.245,24.486 241.24,25.809C241.869,27.782 242.306,29.631 242.704,31.267C243.521,34.677 244.101,37.141 245.688,37.581C247.375,38.057 250.068,36.192 254.988,31.147C254.988,31.147 254.988,31.144 254.995,31.144L254.997,31.141L258.726,26.702C260.799,26.559 262.709,26.31 264.381,25.972L264.586,25.924C266.147,25.612 269.414,24.945 270.758,22.535C271.529,21.143 271.537,19.385 270.775,17.299C269.915,14.908 269.011,12.745 268.026,10.67C268.876,8.569 269.587,6.47 270.131,4.404C270.15,4.305 270.183,4.143 270.205,3.973C270.276,3.474 269.885,2.981 269.868,2.961L269.719,2.764L269.64,3.004C269.037,5.155 268.275,7.291 267.393,9.362C266.066,6.717 264.605,4.258 262.92,1.879C267.253,1.549 271.04,0.903 273.906,0C275.194,3.405 275.858,7.003 275.858,10.684C275.858,18.687 272.757,26.215 267.131,31.879" style="fill:white;fill-rule:nonzero;"/>
                </g>
                <g transform="matrix(1,0,0,-1,704.899,1462.83)">
                    <path d="M243.86,49.016C244.566,47.964 246.535,47.657 250.214,48.037C248.936,51.306 247.57,54.222 246.052,56.917C244.071,53.164 242.948,50.385 243.86,49.016" style="fill:white;fill-rule:nonzero;"/>
                </g>
                <g transform="matrix(0.0333214,0.999445,-0.999445,0.0333214,971.586,1119.69)">
                    <path d="M268.892,10.198C264.553,13.614 262.842,15.595 263.021,17.024C263.21,18.515 265.465,19.53 268.892,21.065L269.011,21.117C268.722,17.251 268.682,13.579 268.892,10.198" style="fill:white;fill-rule:nonzero;"/>
                </g>
                <g transform="matrix(1,0,0,-1,714.739,1461.57)">
                    <path d="M260.047,44.796C258.309,42.622 256.319,40.384 253.765,37.733C250.058,33.91 248.007,32.165 246.354,32.586C245.21,32.886 244.363,34.232 243.601,36.975C242.955,39.276 242.274,41.485 241.559,43.543L238.845,43.157C232.749,42.268 229.36,42.754 228.167,44.648C226.458,47.343 229.635,52.636 233.977,59.261C232.998,60.713 231.984,62.069 230.874,63.396C230.758,63.521 230.665,63.63 230.597,63.731L230.443,63.918L230.683,63.94C231.082,63.97 231.458,63.842 231.735,63.574C232.716,62.526 233.682,61.397 234.598,60.214L235.023,60.875L236.988,63.866C238.073,65.52 238.972,67.311 239.762,69.294C228.656,67.608 220.656,64.143 217.277,59.746C215.971,58.141 215.472,56.549 215.806,53.595C216.599,46.715 219.336,40.6 224.459,35.389C230.032,29.725 237.538,26.683 245.46,26.683C254.167,26.683 262.419,30.504 268.088,37.15C269.452,38.989 269.863,40.518 269.294,41.711C268.432,43.543 265.322,44.569 260.047,44.796" style="fill:white;fill-rule:nonzero;"/>
                </g>
                <g transform="matrix(1,0,0,-1,739.83,1553.35)">
                    <path d="M144.735,100.837L149.397,112.865L151.883,112.865L156.555,100.837L154.003,100.837L152.756,104.051L147.794,104.051L146.548,100.837L144.735,100.837ZM148.411,105.643L152.136,105.643L150.271,110.444L148.411,105.643Z" style="fill:white;fill-rule:nonzero;"/>
                </g>
                <g transform="matrix(1,0,0,-1,732.224,1553.35)">
                    <path d="M166.248,100.837L166.248,112.865L168.743,112.865L168.743,102.548L174.129,102.548L174.129,100.837L166.248,100.837Z" style="fill:white;fill-rule:nonzero;"/>
                </g>
                <g transform="matrix(1,0,0,-1,726.733,1553.35)">
                    <path d="M181.78,100.839L181.78,112.865L185.84,112.865C187.04,112.865 187.954,112.638 188.579,112.18C189.206,111.724 189.52,111.059 189.52,110.186C189.52,108.735 188.564,107.707 186.651,107.105C188.889,106.561 190.009,105.459 190.009,103.805C190.009,102.849 189.684,102.115 189.029,101.605C188.374,101.094 187.436,100.839 186.215,100.839L181.78,100.839ZM184.134,107.85L184.718,107.85C185.411,107.85 185.961,108.023 186.368,108.371C186.776,108.722 186.979,109.194 186.979,109.795C186.979,110.349 186.816,110.729 186.486,110.925C186.16,111.124 185.541,111.224 184.631,111.224L184.134,111.224L184.134,107.85ZM184.134,102.549L184.665,102.549C185.701,102.549 186.416,102.661 186.81,102.885C187.203,103.109 187.398,103.518 187.398,104.108C187.398,104.717 187.136,105.222 186.608,105.626C186.082,106.03 185.418,106.232 184.616,106.232L184.134,106.232L184.134,102.549Z" style="fill:white;fill-rule:nonzero;"/>
                </g>
                <g transform="matrix(1,0,0,-1,720.804,1553.35)">
                    <path d="M198.55,100.837L198.55,112.865L206.033,112.865L206.033,111.223L201.043,111.223L201.043,107.847L205.148,107.847L205.148,106.231L201.043,106.231L201.043,102.548L206.406,102.548L206.406,100.837L198.55,100.837Z" style="fill:white;fill-rule:nonzero;"/>
                </g>
                <g transform="matrix(1,0,0,-1,715.142,1553.35)">
                    <path d="M214.566,100.837L214.566,112.865L219.052,112.865C221.488,112.865 222.703,111.871 222.703,109.883C222.703,109.139 222.499,108.463 222.089,107.854C221.68,107.244 221.115,106.778 220.396,106.452L224.289,100.837L221.259,100.837L218.301,105.76L216.922,105.76L216.922,100.837L214.566,100.837ZM216.922,107.403L217.498,107.403C219.305,107.403 220.209,108.14 220.209,109.609C220.209,110.685 219.402,111.226 217.788,111.226L216.922,111.226L216.922,107.403Z" style="fill:white;fill-rule:nonzero;"/>
                </g>
                <g transform="matrix(1,0,0,-1,709.395,1553.35)">
                    <path d="M235.109,100.837L235.109,111.223L230.821,111.223L230.821,112.865L241.895,112.865L241.895,111.223L237.605,111.223L237.605,100.837L235.109,100.837Z" style="fill:white;fill-rule:nonzero;"/>
                </g>
                <g transform="matrix(1,0,0,-1,698.986,1553.35)">
                    <path d="M260.262,100.837L260.262,112.865L267.746,112.865L267.746,111.223L262.756,111.223L262.756,107.847L266.859,107.847L266.859,106.231L262.756,106.231L262.756,102.548L268.119,102.548L268.119,100.837L260.262,100.837Z" style="fill:white;fill-rule:nonzero;"/>
                </g>
                <g transform="matrix(1,0,0,-1,969.604,1452.51)">
                    <rect x="0" y="0" width="2.493" height="12.026" style="fill:white;"/>
                </g>
                <g transform="matrix(1,0,0,-1,690.096,1553.35)">
                    <path d="M285.408,100.837L285.408,112.865L287.61,112.865L293.151,104.648L293.151,112.865L295.154,112.865L295.154,100.837L292.926,100.837L287.415,109.052L287.415,100.837L285.408,100.837Z" style="fill:white;fill-rule:nonzero;"/>
                </g>
                <g transform="matrix(1,0,0,-1,683.294,1553.2)">
                    <path d="M304.672,100.803L304.672,102.868C305.962,102.32 307.067,102.046 307.985,102.046C308.627,102.046 309.132,102.192 309.503,102.479C309.872,102.766 310.057,103.157 310.057,103.651C310.057,104.042 309.942,104.372 309.715,104.64C309.482,104.91 309.044,105.227 308.394,105.592L307.592,106.04C306.517,106.642 305.756,107.219 305.313,107.775C304.87,108.329 304.649,108.973 304.649,109.714C304.649,110.702 305.012,111.498 305.738,112.097C306.464,112.695 307.426,112.994 308.62,112.994C309.576,112.994 310.654,112.864 311.853,112.598L311.853,110.675C310.634,111.127 309.668,111.353 308.958,111.353C308.41,111.353 307.97,111.233 307.64,110.985C307.308,110.74 307.144,110.416 307.144,110.018C307.144,109.689 307.256,109.399 307.48,109.15C307.705,108.901 308.14,108.596 308.784,108.234L309.645,107.756C310.799,107.106 311.597,106.508 312.035,105.964C312.473,105.419 312.693,104.753 312.693,103.972C312.693,102.859 312.277,101.984 311.452,101.353C310.624,100.722 309.482,100.407 308.029,100.407C307.067,100.407 305.948,100.539 304.672,100.803" style="fill:white;fill-rule:nonzero;"/>
                </g>
                <g transform="matrix(1,0,0,-1,678.241,1553.35)">
                    <path d="M323.232,100.837L323.232,111.223L318.941,111.223L318.941,112.865L330.017,112.865L330.017,111.223L325.725,111.223L325.725,100.837L323.232,100.837Z" style="fill:white;fill-rule:nonzero;"/>
                </g>
                <g transform="matrix(1,0,0,-1,671.041,1553.35)">
                    <path d="M339.307,100.837L339.307,112.865L346.79,112.865L346.79,111.223L341.801,111.223L341.801,107.847L345.905,107.847L345.905,106.231L341.801,106.231L341.801,102.548L347.162,102.548L347.162,100.837L339.307,100.837Z" style="fill:white;fill-rule:nonzero;"/>
                </g>
                <g transform="matrix(1,0,0,-1,1020.7,1452.51)">
                    <rect x="0" y="0" width="2.495" height="12.026" style="fill:white;"/>
                </g>
                <g transform="matrix(1,0,0,-1,662.15,1553.35)">
                    <path d="M364.455,100.837L364.455,112.865L366.654,112.865L372.196,104.648L372.196,112.865L374.201,112.865L374.201,100.837L371.97,100.837L366.46,109.052L366.46,100.837L364.455,100.837Z" style="fill:white;fill-rule:nonzero;"/>
                </g>
                <g transform="matrix(1,0,0,-1,791,1597.06)">
                    <path d="M3.66,125.52C2.706,125.52 1.486,125.728 0,126.147L0,128.157C1.602,127.409 2.917,127.036 3.949,127.036C4.743,127.036 5.382,127.245 5.867,127.666C6.351,128.082 6.592,128.633 6.592,129.317C6.592,129.876 6.433,130.354 6.115,130.746C5.799,131.141 5.214,131.578 4.362,132.061L3.382,132.631C2.171,133.326 1.319,133.982 0.821,134.596C0.325,135.21 0.077,135.929 0.077,136.746C0.077,137.848 0.474,138.755 1.268,139.467C2.062,140.179 3.074,140.535 4.304,140.535C5.4,140.535 6.556,140.35 7.774,139.984L7.774,138.129C6.275,138.722 5.157,139.019 4.42,139.019C3.721,139.019 3.144,138.831 2.69,138.457C2.235,138.084 2.009,137.615 2.009,137.048C2.009,136.57 2.175,136.148 2.508,135.779C2.841,135.413 3.449,134.976 4.333,134.465L5.351,133.889C6.582,133.187 7.44,132.522 7.927,131.896C8.414,131.272 8.656,130.523 8.656,129.643C8.656,128.401 8.2,127.402 7.289,126.649C6.375,125.896 5.166,125.52 3.66,125.52" style="fill:white;fill-rule:nonzero;"/>
                </g>
                <g transform="matrix(1,0,0,-1,784.926,1604.16)">
                    <path d="M21.644,132.739C20.301,132.739 19.221,133.206 18.404,134.141C17.587,135.073 17.18,136.309 17.18,137.845C17.18,139.39 17.59,140.625 18.411,141.55C19.233,142.476 20.33,142.938 21.703,142.938C23.071,142.938 24.167,142.478 24.99,141.554C25.813,140.631 26.226,139.396 26.226,137.857C26.226,136.288 25.813,135.041 24.99,134.118C24.167,133.199 23.051,132.739 21.644,132.739M21.664,133.77C22.648,133.77 23.411,134.127 23.949,134.843C24.488,135.558 24.758,136.566 24.758,137.87C24.758,139.135 24.486,140.124 23.945,140.836C23.404,141.55 22.657,141.904 21.703,141.904C20.743,141.904 19.994,141.549 19.456,140.832C18.917,140.118 18.649,139.126 18.649,137.849C18.649,136.584 18.916,135.583 19.449,134.86C19.984,134.132 20.721,133.77 21.664,133.77" style="fill:white;fill-rule:nonzero;"/>
                </g>
                <g transform="matrix(1,0,0,-1,778.948,1604.16)">
                    <path d="M38.799,132.737C37.296,132.737 36.135,133.182 35.318,134.066C34.497,134.953 34.088,136.206 34.088,137.831C34.088,139.45 34.505,140.706 35.337,141.597C36.17,142.491 37.345,142.938 38.858,142.938C39.724,142.938 40.737,142.796 41.898,142.514L41.898,141.225C40.578,141.68 39.561,141.903 38.845,141.903C37.797,141.903 36.988,141.549 36.417,140.835C35.844,140.123 35.557,139.116 35.557,137.817C35.557,136.58 35.864,135.603 36.475,134.888C37.088,134.174 37.926,133.816 38.988,133.816C39.9,133.816 40.877,134.096 41.921,134.658L41.921,133.489C40.968,132.987 39.926,132.737 38.799,132.737" style="fill:white;fill-rule:nonzero;"/>
                </g>
                <g transform="matrix(1,0,0,-1,823.389,1471.19)">
                    <rect x="0" y="0" width="1.374" height="9.73" style="fill:white;"/>
                </g>
                <g transform="matrix(1,0,0,-1,770.872,1604.29)">
                    <path d="M56.932,133.1L56.932,142.83L62.316,142.83L62.316,141.799L58.307,141.799L58.307,138.679L61.664,138.679L61.664,137.65L58.307,137.65L58.307,134.131L62.597,134.131L62.597,133.1L56.932,133.1Z" style="fill:white;fill-rule:nonzero;"/>
                </g>
                <g transform="matrix(1,0,0,-1,766.613,1604.29)">
                    <path d="M68.979,133.1L68.979,142.83L72.191,142.83C73.147,142.83 73.922,142.724 74.512,142.509C75.103,142.292 75.612,141.928 76.044,141.418C76.727,140.602 77.069,139.528 77.069,138.196C77.069,136.579 76.644,135.323 75.796,134.433C74.946,133.546 73.751,133.1 72.21,133.1L68.979,133.1ZM70.354,134.131L72.106,134.131C73.355,134.131 74.24,134.471 74.759,135.15C75.319,135.873 75.6,136.846 75.6,138.064C75.6,139.208 75.323,140.107 74.773,140.758C74.44,141.158 74.04,141.431 73.575,141.578C73.112,141.726 72.412,141.799 71.481,141.799L70.354,141.799L70.354,134.131Z" style="fill:white;fill-rule:nonzero;"/>
                </g>
                <g transform="matrix(1,0,0,-1,761.463,1604.29)">
                    <path d="M91.041,133.101L89.985,135.796L85.889,135.796L84.817,133.101L83.546,133.101L87.389,142.83L88.738,142.83L92.521,133.101L91.041,133.101ZM89.581,136.827L87.94,141.017L86.288,136.827L89.581,136.827Z" style="fill:white;fill-rule:nonzero;"/>
                </g>
                <g transform="matrix(1,0,0,-1,755.497,1604.29)">
                    <path d="M100.422,133.1L100.422,142.83L103.634,142.83C104.591,142.83 105.365,142.724 105.954,142.509C106.544,142.292 107.055,141.928 107.486,141.418C108.17,140.602 108.511,139.528 108.511,138.196C108.511,136.579 108.088,135.323 107.238,134.433C106.39,133.546 105.194,133.1 103.654,133.1L100.422,133.1ZM101.798,134.131L103.547,134.131C104.797,134.131 105.681,134.471 106.203,135.15C106.763,135.873 107.043,136.846 107.043,138.064C107.043,139.208 106.767,140.107 106.216,140.758C105.882,141.158 105.481,141.431 105.019,141.578C104.555,141.726 103.855,141.799 102.923,141.799L101.798,141.799L101.798,134.131Z" style="fill:white;fill-rule:nonzero;"/>
                </g>
                <g transform="matrix(1,0,0,-1,749.722,1604.29)">
                    <path d="M116.754,133.1L116.754,142.83L122.141,142.83L122.141,141.799L118.129,141.799L118.129,138.679L121.486,138.679L121.486,137.65L118.129,137.65L118.129,134.131L122.42,134.131L122.42,133.1L116.754,133.1Z" style="fill:white;fill-rule:nonzero;"/>
                </g>
                <g transform="matrix(1,0,0,-1,742.854,1604.29)">
                    <path d="M136.181,133.1L136.181,142.83L138.677,142.83C139.638,142.83 140.375,142.647 140.89,142.279C141.403,141.911 141.659,141.38 141.659,140.692C141.659,139.515 141.003,138.677 139.695,138.178C141.269,137.692 142.057,136.81 142.057,135.537C142.057,134.745 141.795,134.143 141.275,133.726C140.753,133.308 140.003,133.1 139.02,133.1L136.181,133.1ZM137.557,138.562L137.988,138.562C138.709,138.562 139.268,138.721 139.664,139.036C140.062,139.351 140.26,139.795 140.26,140.368C140.26,141.322 139.536,141.799 138.085,141.799L137.557,141.799L137.557,138.562ZM137.557,134.131L137.833,134.131C138.822,134.131 139.46,134.196 139.753,134.325C140.309,134.564 140.588,135.013 140.588,135.67C140.588,136.25 140.335,136.731 139.83,137.118C139.323,137.503 138.693,137.695 137.935,137.695L137.557,137.695L137.557,134.131Z" style="fill:white;fill-rule:nonzero;"/>
                </g>
                <g transform="matrix(1,0,0,-1,738.352,1604.29)">
                    <path d="M148.915,133.1L148.915,142.83L154.302,142.83L154.302,141.799L150.29,141.799L150.29,138.679L153.647,138.679L153.647,137.65L150.29,137.65L150.29,134.131L154.581,134.131L154.581,133.1L148.915,133.1Z" style="fill:white;fill-rule:nonzero;"/>
                </g>
                <g transform="matrix(1,0,0,-1,734.093,1604.29)">
                    <path d="M160.962,133.1L160.962,142.83L162.297,142.83L167.165,135.316L167.165,142.83L168.328,142.83L168.328,133.1L167,133.1L162.128,140.612L162.128,133.1L160.962,133.1Z" style="fill:white;fill-rule:nonzero;"/>
                </g>
                <g transform="matrix(1,0,0,-1,728.394,1604.29)">
                    <path d="M177.082,133.1L177.082,142.83L182.468,142.83L182.468,141.799L178.458,141.799L178.458,138.679L181.814,138.679L181.814,137.65L178.458,137.65L178.458,134.131L182.747,134.131L182.747,133.1L177.082,133.1Z" style="fill:white;fill-rule:nonzero;"/>
                </g>
                <g transform="matrix(1,0,0,-1,724.135,1604.29)">
                    <path d="M189.129,133.1L189.129,142.83L194.54,142.83L194.54,141.799L190.504,141.799L190.504,138.538L193.885,138.538L193.885,137.507L190.504,137.507L190.504,133.1L189.129,133.1Z" style="fill:white;fill-rule:nonzero;"/>
                </g>
                <g transform="matrix(1,0,0,-1,920.952,1471.19)">
                    <rect x="0" y="0" width="1.375" height="9.73" style="fill:white;"/>
                </g>
                <g transform="matrix(1,0,0,-1,717.836,1604.16)">
                    <path d="M211.656,132.737C210.153,132.737 208.991,133.182 208.173,134.066C207.355,134.953 206.944,136.206 206.944,137.831C206.944,139.45 207.362,140.706 208.195,141.597C209.026,142.491 210.201,142.938 211.715,142.938C212.58,142.938 213.593,142.796 214.755,142.514L214.755,141.225C213.436,141.68 212.418,141.903 211.701,141.903C210.654,141.903 209.847,141.549 209.274,140.835C208.702,140.123 208.414,139.116 208.414,137.817C208.414,136.58 208.721,135.603 209.333,134.888C209.946,134.174 210.781,133.816 211.844,133.816C212.756,133.816 213.734,134.096 214.778,134.658L214.778,133.489C213.824,132.987 212.783,132.737 211.656,132.737" style="fill:white;fill-rule:nonzero;"/>
                </g>
                <g transform="matrix(1,0,0,-1,712.161,1604.29)">
                    <path d="M222.999,133.1L222.999,142.83L228.384,142.83L228.384,141.799L224.373,141.799L224.373,138.679L227.73,138.679L227.73,137.65L224.373,137.65L224.373,134.131L228.663,134.131L228.663,133.1L222.999,133.1Z" style="fill:white;fill-rule:nonzero;"/>
                </g>
                <g transform="matrix(1,0,0,-1,707.902,1604.29)">
                    <path d="M235.044,133.1L235.044,142.83L236.381,142.83L241.247,135.316L241.247,142.83L242.414,142.83L242.414,133.1L241.082,133.1L236.211,140.612L236.211,133.1L235.044,133.1Z" style="fill:white;fill-rule:nonzero;"/>
                </g>
                <g transform="matrix(1,0,0,-1,702.827,1604.29)">
                    <path d="M252.826,133.1L252.826,141.799L249.4,141.799L249.4,142.83L257.628,142.83L257.628,141.799L254.201,141.799L254.201,133.1L252.826,133.1Z" style="fill:white;fill-rule:nonzero;"/>
                </g>
                <g transform="matrix(1,0,0,-1,697.282,1604.29)">
                    <path d="M265.082,133.1L265.082,142.83L270.467,142.83L270.467,141.799L266.457,141.799L266.457,138.679L269.814,138.679L269.814,137.65L266.457,137.65L266.457,134.131L270.746,134.131L270.746,133.1L265.082,133.1Z" style="fill:white;fill-rule:nonzero;"/>
                </g>
                <g transform="matrix(1,0,0,-1,974.9,1471.19)">
                    <rect x="0" y="0" width="1.376" height="9.73" style="fill:white;"/>
                </g>
                <g transform="matrix(1,0,0,-1,688.345,1604.16)">
                    <path d="M292.846,132.737C292.2,132.737 291.37,132.887 290.361,133.183L290.361,134.544C291.448,134.027 292.344,133.769 293.044,133.769C293.584,133.769 294.014,133.91 294.344,134.195C294.673,134.479 294.838,134.854 294.838,135.317C294.838,135.697 294.73,136.021 294.514,136.289C294.298,136.554 293.9,136.855 293.322,137.181L292.655,137.567C291.834,138.039 291.251,138.487 290.913,138.903C290.578,139.322 290.408,139.807 290.408,140.363C290.408,141.111 290.677,141.727 291.216,142.21C291.756,142.694 292.441,142.938 293.279,142.938C294.02,142.938 294.803,142.811 295.63,142.562L295.63,141.294C294.611,141.701 293.853,141.903 293.352,141.903C292.879,141.903 292.486,141.777 292.177,141.524C291.867,141.271 291.713,140.952 291.713,140.569C291.713,140.244 291.827,139.956 292.054,139.708C292.279,139.459 292.693,139.161 293.295,138.814L293.989,138.42C294.826,137.944 295.409,137.493 295.739,137.069C296.071,136.645 296.237,136.135 296.237,135.54C296.237,134.695 295.926,134.017 295.307,133.505C294.688,132.994 293.867,132.737 292.846,132.737" style="fill:white;fill-rule:nonzero;"/>
                </g>
                <g transform="matrix(1,0,0,-1,683.779,1604.29)">
                    <path d="M303.277,133.101L303.277,142.831L306.205,142.831C307.134,142.831 307.845,142.624 308.339,142.214C308.835,141.803 309.082,141.206 309.082,140.424C309.082,139.129 308.431,138.21 307.129,137.666L310.34,133.101L308.661,133.101L305.918,137.227L304.652,137.227L304.652,133.101L303.277,133.101ZM304.652,138.259L305.092,138.259C306.802,138.259 307.659,138.938 307.659,140.298C307.659,141.299 306.941,141.801 305.508,141.801L304.652,141.801L304.652,138.259Z" style="fill:white;fill-rule:nonzero;"/>
                </g>
                <g transform="matrix(1,0,0,-1,679.484,1604.29)">
                    <path d="M322.921,133.101L321.865,135.796L317.769,135.796L316.699,133.101L315.426,133.101L319.269,142.83L320.618,142.83L324.401,133.101L322.921,133.101ZM321.46,136.827L319.821,141.017L318.168,136.827L321.46,136.827Z" style="fill:white;fill-rule:nonzero;"/>
                </g>
                <g transform="matrix(1,0,0,-1,673.517,1604.29)">
                    <path d="M332.303,133.1L332.303,142.83L337.689,142.83L337.689,141.799L333.678,141.799L333.678,138.679L337.036,138.679L337.036,137.65L333.678,137.65L333.678,134.131L337.967,134.131L337.967,133.1L332.303,133.1Z" style="fill:white;fill-rule:nonzero;"/>
                </g>
                <g transform="matrix(1,0,0,-1,669.257,1604.29)">
                    <path d="M344.352,133.1L344.352,142.83L345.727,142.83L345.727,134.131L350.062,134.131L350.062,133.1L344.352,133.1Z" style="fill:white;fill-rule:nonzero;"/>
                </g>
                <g transform="matrix(1,0,0,-1,1021.26,1471.19)">
                    <rect x="0" y="0" width="1.376" height="9.73" style="fill:white;"/>
                </g>
                <g transform="matrix(1,0,0,-1,663.286,1604.29)">
                    <path d="M364.667,133.1L364.667,141.799L361.24,141.799L361.24,142.83L369.471,142.83L369.471,141.799L366.042,141.799L366.042,133.1L364.667,133.1Z" style="fill:white;fill-rule:nonzero;"/>
                </g>
                <g transform="matrix(1,0,0,-1,658.366,1604.29)">
                    <path d="M382.652,133.101L381.598,135.796L377.501,135.796L376.43,133.101L375.156,133.101L378.999,142.83L380.348,142.83L384.133,133.101L382.652,133.101ZM381.191,136.827L379.553,141.017L377.9,136.827L381.191,136.827Z" style="fill:white;fill-rule:nonzero;"/>
                </g>
                <g transform="matrix(1,0,0,-1,649.792,1604.29)">
                    <path d="M399.41,133.1L399.41,142.83L401.907,142.83C402.871,142.83 403.606,142.647 404.121,142.279C404.633,141.911 404.89,141.38 404.89,140.692C404.89,139.515 404.237,138.677 402.927,138.178C404.5,137.692 405.288,136.81 405.288,135.537C405.288,134.745 405.025,134.143 404.506,133.726C403.984,133.308 403.233,133.1 402.25,133.1L399.41,133.1ZM400.788,138.562L401.219,138.562C401.94,138.562 402.499,138.721 402.895,139.036C403.293,139.351 403.491,139.795 403.491,140.368C403.491,141.322 402.766,141.799 401.313,141.799L400.788,141.799L400.788,138.562ZM400.788,134.131L401.063,134.131C402.053,134.131 402.69,134.196 402.984,134.325C403.539,134.564 403.819,135.013 403.819,135.67C403.819,136.25 403.567,136.731 403.062,137.118C402.554,137.503 401.924,137.695 401.166,137.695L400.788,137.695L400.788,134.131Z" style="fill:white;fill-rule:nonzero;"/>
                </g>
                <g transform="matrix(1,0,0,-1,645.289,1604.29)">
                    <path d="M412.146,133.101L412.146,142.831L415.075,142.831C416.003,142.831 416.715,142.624 417.208,142.214C417.704,141.803 417.952,141.206 417.952,140.424C417.952,139.129 417.3,138.21 416,137.666L419.212,133.101L417.53,133.101L414.789,137.227L413.524,137.227L413.524,133.101L412.146,133.101ZM413.524,138.259L413.963,138.259C415.671,138.259 416.53,138.938 416.53,140.298C416.53,141.299 415.811,141.801 414.376,141.801L413.524,141.801L413.524,138.259Z" style="fill:white;fill-rule:nonzero;"/>
                </g>
                <g transform="matrix(1,0,0,-1,640.992,1604.29)">
                    <path d="M431.793,133.101L430.737,135.796L426.641,135.796L425.572,133.101L424.299,133.101L428.142,142.83L429.491,142.83L433.272,133.101L431.793,133.101ZM430.333,136.827L428.694,141.017L427.04,136.827L430.333,136.827Z" style="fill:white;fill-rule:nonzero;"/>
                </g>
                <g transform="matrix(1,0,0,-1,635.358,1604.16)">
                    <path d="M442.721,132.737C442.075,132.737 441.244,132.887 440.236,133.183L440.236,134.544C441.325,134.027 442.217,133.769 442.917,133.769C443.457,133.769 443.89,133.91 444.221,134.195C444.549,134.479 444.715,134.854 444.715,135.317C444.715,135.697 444.605,136.021 444.39,136.289C444.174,136.554 443.775,136.855 443.196,137.181L442.53,137.567C441.709,138.039 441.127,138.487 440.789,138.903C440.451,139.322 440.284,139.807 440.284,140.363C440.284,141.111 440.552,141.727 441.091,142.21C441.63,142.694 442.318,142.938 443.15,142.938C443.894,142.938 444.68,142.811 445.505,142.562L445.505,141.294C444.487,141.701 443.729,141.903 443.226,141.903C442.755,141.903 442.361,141.777 442.051,141.524C441.742,141.271 441.59,140.952 441.59,140.569C441.59,140.244 441.702,139.956 441.928,139.708C442.154,139.459 442.568,139.161 443.17,138.814L443.863,138.42C444.701,137.944 445.284,137.493 445.615,137.069C445.947,136.645 446.112,136.135 446.112,135.54C446.112,134.695 445.802,134.017 445.182,133.505C444.563,132.994 443.744,132.737 442.721,132.737" style="fill:white;fill-rule:nonzero;"/>
                </g>
                <g transform="matrix(1,0,0,-1,1083.92,1471.19)">
                    <rect x="0" y="0" width="1.374" height="9.73" style="fill:white;"/>
                </g>
                <g transform="matrix(1,0,0,-1,628.39,1604.29)">
                    <path d="M459.943,133.1L459.943,142.83L461.317,142.83L461.317,134.131L465.654,134.131L465.654,133.1L459.943,133.1Z" style="fill:white;fill-rule:nonzero;"/>
                </g>
                <g transform="matrix(1,0,0,-1,624.196,1604.29)">
                    <path d="M471.807,133.1L471.807,142.83L477.192,142.83L477.192,141.799L473.182,141.799L473.182,138.679L476.539,138.679L476.539,137.65L473.182,137.65L473.182,134.131L477.472,134.131L477.472,133.1L471.807,133.1Z" style="fill:white;fill-rule:nonzero;"/>
                </g>
                <g transform="matrix(1,0,0,-1,1103.77,1471.19)">
                    <rect x="0" y="0" width="1.375" height="9.73" style="fill:white;"/>
                </g>
                <g transform="matrix(1,0,0,-1,617.535,1604.29)">
                    <path d="M490.648,133.101L490.648,142.831L493.575,142.831C494.503,142.831 495.216,142.624 495.71,142.214C496.205,141.803 496.453,141.206 496.453,140.424C496.453,139.129 495.8,138.21 494.5,137.666L497.711,133.101L496.029,133.101L493.288,137.227L492.023,137.227L492.023,133.101L490.648,133.101ZM492.023,138.259L492.464,138.259C494.173,138.259 495.03,138.938 495.03,140.298C495.03,141.299 494.311,141.801 492.879,141.801L492.023,141.801L492.023,138.259Z" style="fill:white;fill-rule:nonzero;"/>
                </g>
                <g transform="matrix(1,0,0,-1,613.214,1597.26)">
                    <path d="M513.882,126.071L512.333,130.033L506.31,130.033L504.745,126.071L502.87,126.071L508.51,140.371L510.507,140.371L516.062,126.071L513.882,126.071ZM511.748,131.54L509.326,137.704L506.896,131.54L511.748,131.54Z" style="fill:white;fill-rule:nonzero;"/>
                </g>
            </g>
        </g>
    </g>
</svg>
