<?xml version="1.0" encoding="UTF-8" standalone="no"?>
<!DOCTYPE svg PUBLIC "-//W3C//DTD SVG 1.1//EN" "http://www.w3.org/Graphics/SVG/1.1/DTD/svg11.dtd">
<svg width="100%" height="100%" viewBox="0 0 39 41" version="1.1" xmlns="http://www.w3.org/2000/svg" xmlns:xlink="http://www.w3.org/1999/xlink" xml:space="preserve" xmlns:serif="http://www.serif.com/" style="fill-rule:evenodd;clip-rule:evenodd;stroke-linejoin:round;stroke-miterlimit:2;">
    <g transform="matrix(1,0,0,1,-424.648,-761)">
        <g>
            <g transform="matrix(1,0,0,-1,410.091,820.2)">
                <path d="M48.465,43.579C45.151,44.999 44.441,46.892 43.731,47.129C43.494,47.366 42.784,47.366 42.074,47.366C41.601,47.366 41.128,47.129 40.654,47.129C39.708,47.129 35.921,45.472 34.264,44.525C32.607,43.579 30.003,42.868 30.003,42.868L29.53,42.632C28.82,42.395 27.4,42.632 27.163,42.158C26.926,41.448 27.873,40.975 28.347,40.738C28.583,40.738 29.057,40.502 30.24,40.502C30.95,40.502 31.66,40.738 32.844,40.738L33.317,40.738C36.157,40.738 34.737,37.898 33.79,36.241C32.844,34.348 27.163,27.011 26.69,26.537C26.453,26.064 26.453,25.59 26.926,25.117C27.163,24.88 27.4,24.644 27.637,24.644C27.873,24.644 28.11,24.88 28.347,25.117C29.057,25.59 33.554,30.324 34.737,31.508C35.21,31.744 35.447,31.981 35.684,31.981C36.157,31.981 36.157,31.508 35.921,30.798C35.447,29.851 32.134,22.277 31.897,21.804C31.66,21.33 32.134,20.62 32.37,20.383C32.607,20.147 32.844,20.147 33.08,20.147C33.554,20.147 33.79,20.147 34.027,20.62C34.974,22.514 38.287,28.431 38.997,29.377C39.234,29.614 39.234,29.851 39.471,29.851C39.708,29.851 39.708,29.614 39.708,29.141C39.708,28.431 38.761,21.33 38.761,20.147C38.761,19.2 39.471,19.2 39.708,19.2L39.944,19.2C40.181,19.2 40.654,19.437 40.891,20.62C41.128,21.804 41.838,27.011 42.311,29.141C42.548,30.088 42.784,30.324 43.021,30.324C43.258,30.324 43.731,29.851 43.731,29.377C43.731,28.667 44.205,23.697 44.441,22.514C44.678,21.804 44.915,21.567 45.388,21.567C45.861,21.567 46.335,21.804 46.335,22.277C46.571,22.987 46.571,25.117 46.571,28.194C46.335,31.271 46.571,32.454 47.045,33.401C47.281,34.348 48.465,36.715 49.175,39.555L49.175,39.318C49.885,42.158 48.465,43.579 48.465,43.579Z" style="fill-rule:nonzero;"/>
            </g>
            <g transform="matrix(1,0,0,-1,424.669,803.102)">
                <path d="M37.2,21.273C37.2,21.037 37.2,20.8 37.437,20.8C37.673,20.8 37.91,20.8 37.91,21.037C38.147,21.037 38.383,21.747 38.62,23.404L38.383,23.167C38.62,24.824 37.91,26.244 37.91,26.244L37.91,26.48L37.437,26.48C37.2,26.48 37.2,26.244 37.2,26.007C37.2,26.007 37.91,24.824 37.673,23.404C37.437,21.983 37.2,21.273 37.2,21.273Z" style="fill-rule:nonzero;"/>
            </g>
            <g transform="matrix(1,0,0,-1,423.439,802.428)">
                <path d="M37.72,23.204C37.72,24.86 37.01,26.28 37.01,26.28L36.537,26.28C36.3,26.28 36.3,26.044 36.3,25.807C36.3,25.807 37.01,24.624 37.01,23.204C37.01,21.783 36.773,21.073 36.773,21.073C36.773,20.837 36.773,20.6 37.01,20.6C37.247,20.6 37.483,20.6 37.483,20.837L37.247,20.837C37.483,20.837 37.72,21.547 37.72,23.204Z" style="fill-rule:nonzero;"/>
            </g>
            <g transform="matrix(1,0,0,-1,405.807,816.396)">
                <path d="M27.187,25.1C27.424,25.1 27.66,25.1 27.66,25.337L27.424,25.337C27.424,25.573 27.424,25.81 27.187,25.81C27.187,25.81 26.004,26.283 25.057,27.467C24.347,28.65 24.11,29.36 24.11,29.36C24.11,29.597 23.873,29.597 23.637,29.597C23.4,29.597 23.4,29.36 23.4,29.124C23.4,29.124 23.637,28.414 24.583,26.993C25.53,25.573 26.95,25.1 26.95,25.1L27.187,25.1L27.187,25.1Z" style="fill-rule:nonzero;"/>
            </g>
            <g transform="matrix(1,0,0,-1,403.174,803.602)">
                <path d="M33.607,14.437L34.79,14.437C37.157,17.514 38.577,19.644 39.05,20.354L39.287,20.59L39.997,22.011C38.814,21.774 38.104,21.774 37.394,21.774C35.973,21.774 35.263,22.011 34.79,22.247C34.553,22.484 33.133,23.194 32.66,24.377C32.423,24.851 32.66,25.561 32.896,26.271C33.607,27.691 35.027,27.691 35.973,27.691L36.447,27.691L36.92,27.928C37.63,27.928 38.814,28.401 39.997,28.874C39.76,31.478 40.47,39.525 40.47,40.235C40.47,40.945 39.997,41.419 39.524,41.419L39.287,41.419C38.814,41.419 38.34,41.182 38.34,40.472C38.34,39.762 36.92,33.371 36.683,31.715C36.447,31.005 36.21,30.768 35.973,30.768C35.737,30.768 35.263,31.241 35.263,31.715C35.027,32.898 33.843,41.182 33.607,41.655C33.37,42.129 32.896,42.602 32.423,42.602C31.95,42.602 31.24,42.129 31.24,41.419C31.476,39.289 31.95,32.661 31.95,31.478C31.95,31.005 31.95,30.768 31.713,30.768C31.476,30.768 31.24,31.005 31.003,31.241C30.53,31.715 27.216,38.342 26.743,39.289C26.506,39.762 26.269,39.762 26.033,39.762C25.796,39.762 25.559,39.525 25.559,39.525C25.559,39.525 24.612,39.525 25.323,37.869C25.796,36.922 28.163,32.188 28.873,30.058C29.11,28.874 29.11,28.638 28.636,28.638C28.399,28.638 27.926,28.874 27.689,29.111C27.216,29.585 24.139,33.371 23.192,34.318C22.956,34.792 22.719,34.792 22.482,34.792C21.772,34.792 21.299,34.082 21.536,33.608C21.772,32.898 22.956,31.005 24.612,28.638C26.269,26.271 26.743,25.088 26.979,24.141C26.979,23.194 27.453,20.59 28.399,17.75L28.399,17.277C29.583,14.437 31.476,14.2 31.476,14.2C32.186,14.437 32.896,14.437 33.607,14.437Z" style="fill-rule:nonzero;"/>
            </g>
            <g transform="matrix(1,0,0,-1,404.986,817.543)">
                <path d="M24.457,28.14C23.51,29.324 23.51,30.034 23.51,30.034C23.51,30.034 23.273,30.27 23.037,30.27C23.037,30.27 22.8,30.034 22.8,29.797C22.8,29.56 22.8,28.85 23.747,27.43C24.457,26.01 25.877,25.3 25.877,25.3L26.114,25.3C26.114,25.3 26.35,25.3 26.35,25.537L26.587,25.773C26.587,26.01 26.587,26.247 26.35,26.247C26.35,26.247 25.167,26.957 24.457,28.14Z" style="fill-rule:nonzero;"/>
            </g>
        </g>
    </g>
</svg>
