<svg id="b85a0dfe-c925-4a21-90b3-7540a1f23462" data-name="Layer 1" xmlns="http://www.w3.org/2000/svg" width="288.66" height="209.6" viewBox="0 0 288.66 209.6"><g id="bd4ee7c8-f6e0-4e65-b942-ffa5af871354" data-name="VERTICAL 1"><path d="M181.69,72.3c-3.09-13-10.81-26.35-21.8-37.7a84.92,84.92,0,0,0-9.17,8l-.56.56c9.64,9.81,16.36,21.2,19,32.15,2.38,10,.95,18.33-4,23.32a16.87,16.87,0,0,1-7.36,4.23,25.07,25.07,0,0,1-7.54.93h0a38.4,38.4,0,0,1-7.54-.93l-.84-.19a65.4,65.4,0,0,1-24.09-12A86.63,86.63,0,0,1,109,83.12C99.1,73.18,92.17,61.56,89.52,50.4c-2.38-10-1-18.33,4-23.32,3.42-3.41,8.37-5.16,14.38-5.16A39,39,0,0,1,116.88,23,65.06,65.06,0,0,1,140.43,34.6c.38-.39.76-.79,1.15-1.18a98.62,98.62,0,0,1,8.58-7.63c-9.54-7.55-20-12.88-30.29-15.32a46.18,46.18,0,0,0-19.22-.81A29.53,29.53,0,0,0,76.14,34.17,46.18,46.18,0,0,0,77,53.39c3.19,13.46,11.35,27.26,23,38.87s25.41,19.76,38.87,22.95l.77.18h0a51.54,51.54,0,0,0,10.62,1.29,51.54,51.54,0,0,0,10.62-1.29h0a29.59,29.59,0,0,0,13.43-7.65,30.25,30.25,0,0,0,8.28-16.23c.05-.28.1-.55.14-.83A46.63,46.63,0,0,0,181.69,72.3Z" transform="translate(-5.83 -9)" style="fill:#0095e2"/><path d="M224.19,34.17A29.55,29.55,0,0,0,199.67,9.66a46.18,46.18,0,0,0-19.22.81c-10.27,2.44-20.74,7.77-30.29,15.32a100.3,100.3,0,0,1,8.58,7.63c.39.39.77.79,1.15,1.18A65.06,65.06,0,0,1,183.44,23a39,39,0,0,1,8.94-1.12c6,0,11,1.75,14.38,5.16,5,5,6.42,13.28,4,23.32-2.65,11.16-9.58,22.78-19.52,32.72a85.62,85.62,0,0,1-8.64,7.56,65.28,65.28,0,0,1-24.08,12l-.84.19a38.58,38.58,0,0,1-7.54.93h0a25.07,25.07,0,0,1-7.54-.93,16.81,16.81,0,0,1-7.36-4.23c-5-5-6.43-13.27-4-23.32,2.6-11,9.33-22.34,19-32.15l-.56-.56a85.88,85.88,0,0,0-9.17-8c-11,11.35-18.71,24.68-21.8,37.7a47,47,0,0,0-1,18.38l.15.83a30.25,30.25,0,0,0,8.28,16.23,29.62,29.62,0,0,0,13.44,7.65h0c.91.25,1.84.46,2.79.64a40.9,40.9,0,0,0,7.34.65h.49a51.54,51.54,0,0,0,10.62-1.29h0l.75-.18C175,112,188.81,103.86,200.42,92.26s19.76-25.41,23-38.87A46.36,46.36,0,0,0,224.19,34.17Z" transform="translate(-5.83 -9)" style="fill:#00e5ca"/><path d="M159.89,34.6a85.92,85.92,0,0,0-9.17,8l-.56.57-.56-.57a85.92,85.92,0,0,0-9.17-8l1.15-1.18a98.62,98.62,0,0,1,8.58-7.63,100.3,100.3,0,0,1,8.58,7.63Z" transform="translate(-5.83 -9)" style="fill:#0095e2"/><path d="M69.28,169.68v2.93H46.59V140.53h22v2.93H50v11.41H66.57v2.89H50v11.92Z" transform="translate(-5.83 -9)" style="fill:#00a4e1"/><path d="M77.25,140.53h3.4v32.08h-3.4Z" transform="translate(-5.83 -9)" style="fill:#00a4e1"/><path d="M117.91,140.53v32.08h-2.79l-20.63-26v26H91.1V140.53h2.79l20.68,26v-26Z" transform="translate(-5.83 -9)" style="fill:#00a4e1"/><path d="M125.29,168.72l1.33-2.61A15.78,15.78,0,0,0,137.21,170c6,0,8.62-2.52,8.62-5.68,0-8.8-19.76-3.39-19.76-15.27,0-4.72,3.67-8.8,11.83-8.8a18.2,18.2,0,0,1,9.95,2.84l-1.15,2.71a16.5,16.5,0,0,0-8.8-2.66c-5.87,0-8.48,2.61-8.48,5.82,0,8.8,19.76,3.49,19.76,15.17,0,4.73-3.76,8.76-12,8.76C132.4,172.89,127.68,171.19,125.29,168.72Z" transform="translate(-5.83 -9)" style="fill:#00a4e1"/><path d="M162.33,143.46H151.06v-2.93H177v2.93H165.72v29.15h-3.39Z" transform="translate(-5.83 -9)" style="fill:#00a4e1"/><path d="M205.1,169.68v2.93H182.41V140.53h22v2.93H185.8v11.41h16.6v2.89H185.8v11.92Z" transform="translate(-5.83 -9)" style="fill:#00a4e1"/><path d="M213.08,140.53h3.39v32.08h-3.39Z" transform="translate(-5.83 -9)" style="fill:#00a4e1"/><path d="M253.74,140.53v32.08h-2.8l-20.63-26v26h-3.39V140.53h2.8l20.67,26v-26Z" transform="translate(-5.83 -9)" style="fill:#00a4e1"/><path d="M34.76,197.74c0,7.29-5.5,11.83-14.26,11.83H14.91V218H5.83V185.87H20.5C29.26,185.87,34.76,190.41,34.76,197.74Zm-9.17,0c0-3-1.88-4.72-5.64-4.72h-5v9.4h5C23.71,202.42,25.59,200.67,25.59,197.74Z" transform="translate(-5.83 -9)" style="fill:#00a4e1"/><path d="M64.92,210.94v7H39.16V185.87H64.33v7H48.14v5.41H62.4v6.78H48.14v5.87Z" transform="translate(-5.83 -9)" style="fill:#00a4e1"/><path d="M84,209.43H79V218H70V185.87H84.63c8.76,0,14.26,4.54,14.26,11.87a10.64,10.64,0,0,1-6.28,10.13L99.53,218H89.81ZM84.08,193H79v9.4h5c3.76,0,5.64-1.75,5.64-4.68S87.84,193,84.08,193Z" transform="translate(-5.83 -9)" style="fill:#00a4e1"/><path d="M110.26,193.06H100.4v-7.19h28.74v7.19h-9.81V218h-9.07Z" transform="translate(-5.83 -9)" style="fill:#00a4e1"/><path d="M158.3,210.94v7H132.54V185.87H157.7v7H141.52v5.41h14.26v6.78H141.52v5.87Z" transform="translate(-5.83 -9)" style="fill:#00a4e1"/><path d="M193.87,185.87V218H186.4l-14.17-17.1V218h-8.89V185.87h7.47L185,203v-17.1Z" transform="translate(-5.83 -9)" style="fill:#00a4e1"/><path d="M198.64,201.91c0-9.76,7.47-16.68,17.65-16.68,5.91,0,10.68,2.15,13.79,6.05l-5.77,5.22a9.49,9.49,0,0,0-7.57-3.76c-5.27,0-8.93,3.67-8.93,9.17s3.66,9.17,8.93,9.17a9.49,9.49,0,0,0,7.57-3.76l5.77,5.23c-3.11,3.89-7.88,6-13.79,6C206.11,218.6,198.64,211.68,198.64,201.91Z" transform="translate(-5.83 -9)" style="fill:#00a4e1"/><path d="M259.88,210.94v7H234.12V185.87h25.16v7H243.1v5.41h14.26v6.78H243.1v5.87Z" transform="translate(-5.83 -9)" style="fill:#00a4e1"/><path d="M279,209.43H274V218h-9.08V185.87h14.67c8.76,0,14.26,4.54,14.26,11.87a10.64,10.64,0,0,1-6.28,10.13L294.49,218h-9.72ZM279,193h-5v9.4h5c3.76,0,5.64-1.75,5.64-4.68S282.8,193,279,193Z" transform="translate(-5.83 -9)" style="fill:#00a4e1"/></g></svg>