<?xml version="1.0" encoding="UTF-8" standalone="no"?>
<!DOCTYPE svg PUBLIC "-//W3C//DTD SVG 1.1//EN" "http://www.w3.org/Graphics/SVG/1.1/DTD/svg11.dtd">
<svg width="100%" height="100%" viewBox="0 0 62 62" version="1.1" xmlns="http://www.w3.org/2000/svg" xmlns:xlink="http://www.w3.org/1999/xlink" xml:space="preserve" xmlns:serif="http://www.serif.com/" style="fill-rule:evenodd;clip-rule:evenodd;stroke-linejoin:round;stroke-miterlimit:2;">
    <g transform="matrix(1,0,0,1,-1717.55,-395.557)">
        <g transform="matrix(1,0,0,1,-600.807,25.0469)">
            <path d="M2359.05,387.947C2359.05,386.817 2359.41,385.889 2360.14,385.162C2360.86,384.436 2361.79,384.072 2362.92,384.072C2364.05,384.072 2364.98,384.436 2365.71,385.162C2366.43,385.889 2366.8,386.817 2366.8,387.947C2366.8,389.077 2366.43,390.006 2365.71,390.732C2364.98,391.459 2364.05,391.822 2362.92,391.822C2361.79,391.822 2360.86,391.459 2360.14,390.732C2359.41,390.006 2359.05,389.077 2359.05,387.947ZM2359.05,413.135C2357.91,413.135 2356.78,413.054 2355.66,412.893L2352.26,416.041C2351.78,416.687 2351.13,417.01 2350.33,417.01L2345.48,417.01L2345.48,421.854C2345.32,423.63 2344.35,424.598 2342.58,424.76L2337.73,424.76L2337.73,429.604C2337.57,431.38 2336.6,432.348 2334.83,432.51L2321.26,432.51C2319.49,432.348 2318.52,431.38 2318.36,429.604L2318.36,416.041C2318.36,415.234 2318.64,414.548 2319.21,413.982L2337.97,395.213C2337.81,394.083 2337.73,392.952 2337.73,391.822C2337.89,385.768 2339.99,380.762 2344.03,376.807C2347.99,372.77 2352.99,370.671 2359.05,370.51C2365.1,370.671 2370.11,372.77 2374.06,376.807C2378.1,380.762 2380.2,385.768 2380.36,391.822C2380.2,397.877 2378.1,402.882 2374.06,406.838C2370.11,410.874 2365.1,412.973 2359.05,413.135ZM2359.05,407.322C2363.41,407.242 2367.08,405.748 2370.07,402.842C2372.97,399.855 2374.47,396.182 2374.55,391.822C2374.47,387.463 2372.97,383.79 2370.07,380.803C2367.08,377.896 2363.41,376.403 2359.05,376.322C2354.69,376.403 2351.01,377.896 2348.03,380.803C2345.12,383.79 2343.63,387.463 2343.55,391.822C2343.55,392.63 2343.63,393.437 2343.79,394.244L2344.15,397.271L2324.05,417.252L2324.05,426.697L2331.8,426.697L2331.8,418.947L2339.55,418.947L2339.55,411.197L2349.12,411.197L2353.72,406.717L2356.62,407.08C2357.43,407.242 2358.24,407.322 2359.05,407.322Z" style="fill:rgb(0,79,129);fill-rule:nonzero;"/>
        </g>
    </g>
</svg>
