<?xml version="1.0" encoding="UTF-8" standalone="no"?>
<!DOCTYPE svg PUBLIC "-//W3C//DTD SVG 1.1//EN" "http://www.w3.org/Graphics/SVG/1.1/DTD/svg11.dtd">
<svg width="100%" height="100%" viewBox="0 0 62 62" version="1.1" xmlns="http://www.w3.org/2000/svg" xmlns:xlink="http://www.w3.org/1999/xlink" xml:space="preserve" xmlns:serif="http://www.serif.com/" style="fill-rule:evenodd;clip-rule:evenodd;stroke-linejoin:round;stroke-miterlimit:2;">
    <g transform="matrix(1,0,0,1,-2885,-148.75)">
        <g transform="matrix(1,0,0,1,2160,0)">
            <path d="M765.688,166.188C765.688,165.057 766.051,164.129 766.777,163.402C767.504,162.676 768.432,162.313 769.563,162.313C770.693,162.313 771.621,162.676 772.348,163.402C773.074,164.129 773.438,165.057 773.438,166.188C773.438,167.318 773.074,168.246 772.348,168.973C771.621,169.699 770.693,170.063 769.563,170.063C768.432,170.063 767.504,169.699 766.777,168.973C766.051,168.246 765.688,167.318 765.688,166.188ZM765.688,191.375C764.557,191.375 763.427,191.294 762.297,191.133L758.906,194.281C758.422,194.927 757.776,195.25 756.969,195.25L752.125,195.25L752.125,200.094C751.964,201.87 750.995,202.839 749.219,203L744.375,203L744.375,207.844C744.214,209.62 743.245,210.589 741.469,210.75L727.906,210.75C726.13,210.589 725.161,209.62 725,207.844L725,194.281C725,193.474 725.283,192.788 725.848,192.223L744.617,173.453C744.456,172.323 744.375,171.193 744.375,170.063C744.536,164.008 746.635,159.003 750.672,155.047C754.628,151.01 759.633,148.911 765.688,148.75C771.742,148.911 776.747,151.01 780.703,155.047C784.74,159.003 786.839,164.008 787,170.063C786.839,176.117 784.74,181.122 780.703,185.078C776.747,189.115 771.742,191.214 765.688,191.375ZM765.688,185.563C770.047,185.482 773.72,183.988 776.707,181.082C779.613,178.095 781.107,174.422 781.188,170.063C781.107,165.703 779.613,162.03 776.707,159.043C773.72,156.137 770.047,154.643 765.688,154.563C761.328,154.643 757.655,156.137 754.668,159.043C751.762,162.03 750.268,165.703 750.188,170.063C750.188,170.87 750.268,171.677 750.43,172.484L750.793,175.512L730.691,195.492L730.691,204.938L738.441,204.938L738.441,197.188L746.191,197.188L746.191,189.438L755.758,189.438L760.359,184.957L763.266,185.32C764.073,185.482 764.88,185.563 765.688,185.563Z" style="fill:white;fill-rule:nonzero;"/>
        </g>
    </g>
</svg>
