<?xml version="1.0" encoding="UTF-8" standalone="no"?>
<!DOCTYPE svg PUBLIC "-//W3C//DTD SVG 1.1//EN" "http://www.w3.org/Graphics/SVG/1.1/DTD/svg11.dtd">
<svg width="100%" height="100%" viewBox="0 0 328 179" version="1.1" xmlns="http://www.w3.org/2000/svg" xmlns:xlink="http://www.w3.org/1999/xlink" xml:space="preserve" xmlns:serif="http://www.serif.com/" style="fill-rule:evenodd;clip-rule:evenodd;stroke-linejoin:round;stroke-miterlimit:2;">
    <g transform="matrix(1,0,0,1,-796,-178.597)">
        <g id="Top-logo">
            <g id="text-top-logo">
                <g transform="matrix(1,0,0,-1,796,578.125)">
                    <path d="M15.267,235.484L15.267,232.31L0,232.31L0,252.666L14.863,252.666L14.863,249.499L3.78,249.499L3.78,244.208L13.611,244.208L13.611,241.097L3.78,241.097L3.78,235.484L15.267,235.484Z" style="fill:rgb(0,79,135);fill-rule:nonzero;"/>
                </g>
                <g transform="matrix(1,0,0,-1,784.664,578.125)">
                    <rect x="30.82" y="232.31" width="3.78" height="20.356" style="fill:rgb(0,79,135);"/>
                </g>
                <g transform="matrix(1,0,0,-1,779.264,578.125)">
                    <path d="M63.587,252.666L63.587,232.31L60.476,232.31L49.249,246.098L49.249,232.31L45.5,232.31L45.5,252.666L48.61,252.666L59.838,238.878L59.838,252.666L63.587,252.666L63.587,252.666Z" style="fill:rgb(0,79,135);fill-rule:nonzero;"/>
                </g>
                <g transform="matrix(1,0,0,-1,766.563,577.94)">
                    <path d="M80.036,234.274L81.345,237.214C82.976,235.905 85.562,234.976 88.065,234.976C91.232,234.976 92.572,236.107 92.572,237.624C92.572,242.018 80.473,239.135 80.473,246.696C80.473,249.984 83.09,252.778 88.672,252.778C91.118,252.778 93.672,252.139 95.449,250.976L94.254,248.036C92.421,249.111 90.417,249.636 88.64,249.636C85.498,249.636 84.221,248.416 84.221,246.873C84.221,242.543 96.29,245.362 96.29,237.89C96.29,234.634 93.641,231.84 88.059,231.84C84.891,231.84 81.718,232.826 80.03,234.28L80.036,234.274Z" style="fill:rgb(0,79,135);fill-rule:nonzero;"/>
                </g>
                <g transform="matrix(1,0,0,-1,756.61,578.125)">
                    <path d="M113.842,249.467L107.09,249.467L107.09,252.666L124.367,252.666L124.367,249.467L117.622,249.467L117.622,232.31L113.842,232.31L113.842,249.467Z" style="fill:rgb(0,79,135);fill-rule:nonzero;"/>
                </g>
                <g transform="matrix(1,0,0,-1,744.902,578.125)">
                    <path d="M154.187,235.484L154.187,232.31L138.92,232.31L138.92,252.666L153.783,252.666L153.783,249.499L142.7,249.499L142.7,244.208L152.531,244.208L152.531,241.097L142.7,241.097L142.7,235.484L154.187,235.484Z" style="fill:rgb(0,79,135);fill-rule:nonzero;"/>
                </g>
                <g transform="matrix(1,0,0,-1,733.566,578.125)">
                    <rect x="169.74" y="232.31" width="3.78" height="20.356" style="fill:rgb(0,79,135);"/>
                </g>
                <g transform="matrix(1,0,0,-1,728.166,578.125)">
                    <path d="M202.507,252.666L202.507,232.31L199.396,232.31L188.169,246.098L188.169,232.31L184.42,232.31L184.42,252.666L187.53,252.666L198.758,238.878L198.758,252.666L202.507,252.666L202.507,252.666Z" style="fill:rgb(0,79,135);fill-rule:nonzero;"/>
                </g>
                <g transform="matrix(1,0,0,-1,709.798,578.125)">
                    <path d="M251.404,245.428C251.404,240.952 248.091,238.183 242.736,238.183L238.14,238.183L238.14,232.31L234.36,232.31L234.36,252.666L242.736,252.666C248.085,252.666 251.404,249.929 251.404,245.421L251.404,245.428ZM247.592,245.428C247.592,247.988 245.878,249.474 242.559,249.474L238.14,249.474L238.14,241.388L242.559,241.388C245.878,241.388 247.592,242.874 247.592,245.428Z" style="fill:rgb(0,79,135);fill-rule:nonzero;"/>
                </g>
                <g transform="matrix(1,0,0,-1,697.682,578.125)">
                    <path d="M282.567,235.477L282.567,232.31L267.3,232.31L267.3,252.666L282.163,252.666L282.163,249.499L271.08,249.499L271.08,244.208L280.911,244.208L280.911,241.097L271.08,241.097L271.08,235.484L282.567,235.484L282.567,235.477Z" style="fill:rgb(0,79,135);fill-rule:nonzero;"/>
                </g>
                <g transform="matrix(1,0,0,-1,686.345,578.132)">
                    <path d="M311.44,232.316L307.28,238.278C307.021,238.246 306.756,238.246 306.496,238.246L301.9,238.246L301.9,232.316L298.12,232.316L298.12,252.673L306.496,252.673C311.845,252.673 315.164,249.935 315.164,245.428C315.164,242.343 313.596,240.08 310.833,238.998L315.518,232.31L311.446,232.31L311.44,232.316ZM306.319,249.474L301.9,249.474L301.9,241.357L306.319,241.357C309.638,241.357 311.352,242.867 311.352,245.428C311.352,247.988 309.638,249.474 306.319,249.474Z" style="fill:rgb(0,79,135);fill-rule:nonzero;"/>
                </g>
                <g transform="matrix(1,0,0,-1,675.667,578.125)">
                    <path d="M333.902,249.467L327.15,249.467L327.15,252.666L344.427,252.666L344.427,249.467L337.682,249.467L337.682,232.31L333.902,232.31L333.902,249.467Z" style="fill:rgb(0,79,135);fill-rule:nonzero;"/>
                </g>
                <g transform="matrix(1,0,0,-1,663.96,578.125)">
                    <path d="M374.247,235.484L374.247,232.31L358.98,232.31L358.98,252.666L373.843,252.666L373.843,249.499L362.76,249.499L362.76,244.208L372.591,244.208L372.591,241.097L362.76,241.097L362.76,235.484L374.247,235.484Z" style="fill:rgb(0,79,135);fill-rule:nonzero;"/>
                </g>
                <g transform="matrix(1,0,0,-1,652.624,578.125)">
                    <path d="M407.887,252.666L407.887,232.31L404.776,232.31L393.549,246.098L393.549,232.31L389.8,232.31L389.8,252.666L392.91,252.666L404.138,238.878L404.138,252.666L407.887,252.666L407.887,252.666Z" style="fill:rgb(0,79,135);fill-rule:nonzero;"/>
                </g>
                <g transform="matrix(1,0,0,-1,639.768,577.956)">
                    <path d="M424.756,242.319C424.756,248.4 429.409,252.788 435.661,252.788C438.974,252.788 441.825,251.593 443.715,249.387L441.275,247.092C439.79,248.691 437.956,249.475 435.838,249.475C431.622,249.475 428.568,246.51 428.568,242.319C428.568,238.128 431.622,235.163 435.838,235.163C437.963,235.163 439.796,235.947 441.275,237.578L443.715,235.251C441.825,233.039 438.974,231.85 435.63,231.85C429.403,231.85 424.75,236.244 424.75,242.319L424.756,242.319Z" style="fill:rgb(0,79,135);fill-rule:nonzero;"/>
                </g>
                <g transform="matrix(1,0,0,-1,626.619,578.125)">
                    <path d="M475.767,235.477L475.767,232.31L460.5,232.31L460.5,252.666L475.363,252.666L475.363,249.499L464.28,249.499L464.28,244.208L474.111,244.208L474.111,241.097L464.28,241.097L464.28,235.484L475.767,235.484L475.767,235.477Z" style="fill:rgb(0,79,135);fill-rule:nonzero;"/>
                </g>
                <g transform="matrix(1,0,0,-1,615.282,578.132)">
                    <path d="M504.64,232.316L500.48,238.278C500.221,238.246 499.956,238.246 499.696,238.246L495.1,238.246L495.1,232.316L491.32,232.316L491.32,252.673L499.696,252.673C505.045,252.673 508.364,249.935 508.364,245.428C508.364,242.343 506.796,240.08 504.033,238.998L508.718,232.31L504.646,232.31L504.64,232.316ZM499.519,249.474L495.1,249.474L495.1,241.357L499.519,241.357C502.838,241.357 504.552,242.867 504.552,245.428C504.552,247.988 502.838,249.474 499.519,249.474Z" style="fill:rgb(0,79,135);fill-rule:nonzero;"/>
                </g>
                <g transform="matrix(1,0,0,-1,796,625.465)">
                    <path d="M4.432,273.954C4.432,272.791 3.572,272.07 2.175,272.07L0.98,272.07L0.98,270.54L0,270.54L0,275.838L2.181,275.838C3.572,275.838 4.438,275.123 4.438,273.954L4.432,273.954ZM3.439,273.954C3.439,274.618 2.99,275.003 2.13,275.003L0.98,275.003L0.98,272.898L2.13,272.898C2.99,272.898 3.439,273.284 3.439,273.947L3.439,273.954Z" style="fill:rgb(0,79,135);fill-rule:nonzero;"/>
                </g>
                <g transform="matrix(1,0,0,-1,792.848,625.465)">
                    <path d="M12.034,270.54L10.953,272.089C10.884,272.083 10.814,272.083 10.751,272.083L9.556,272.083L9.556,270.54L8.57,270.54L8.57,275.838L10.751,275.838C12.142,275.838 13.008,275.123 13.008,273.954C13.008,273.151 12.597,272.563 11.883,272.285L13.103,270.546L12.041,270.546L12.034,270.54ZM10.7,275.003L9.55,275.003L9.55,272.892L10.7,272.892C11.56,272.892 12.009,273.284 12.009,273.954C12.009,274.624 11.56,275.003 10.7,275.003Z" style="fill:rgb(0,79,135);fill-rule:nonzero;"/>
                </g>
                <g transform="matrix(1,0,0,-1,789.85,625.421)">
                    <path d="M16.72,273.145C16.72,274.713 17.927,275.869 19.571,275.869C21.215,275.869 22.422,274.719 22.422,273.145C22.422,271.571 21.215,270.42 19.571,270.42C17.927,270.42 16.72,271.577 16.72,273.145ZM21.43,273.145C21.43,274.226 20.633,275.003 19.571,275.003C18.509,275.003 17.713,274.226 17.713,273.145C17.713,272.064 18.509,271.286 19.571,271.286C20.633,271.286 21.43,272.064 21.43,273.145Z" style="fill:rgb(0,79,135);fill-rule:nonzero;"/>
                </g>
                <g transform="matrix(1,0,0,-1,786.142,625.405)">
                    <path d="M30.795,273.192L31.725,273.192L31.725,271.08C31.175,270.631 30.403,270.41 29.651,270.41C28.007,270.41 26.8,271.554 26.8,273.135C26.8,274.715 28.007,275.859 29.67,275.859C30.555,275.859 31.295,275.562 31.794,275L31.175,274.393C30.757,274.81 30.283,275 29.714,275C28.589,275 27.793,274.235 27.793,273.141C27.793,272.047 28.589,271.282 29.708,271.282C30.087,271.282 30.454,271.358 30.795,271.554L30.795,273.204L30.795,273.192Z" style="fill:rgb(0,79,135);fill-rule:nonzero;"/>
                </g>
                <g transform="matrix(1,0,0,-1,782.523,625.465)">
                    <path d="M40.104,270.54L39.023,272.089C38.954,272.083 38.884,272.083 38.821,272.083L37.626,272.083L37.626,270.54L36.64,270.54L36.64,275.838L38.821,275.838C40.212,275.838 41.078,275.123 41.078,273.954C41.078,273.151 40.667,272.563 39.953,272.285L41.173,270.546L40.111,270.546L40.104,270.54ZM38.77,275.003L37.62,275.003L37.62,272.892L38.77,272.892C39.63,272.892 40.079,273.284 40.079,273.954C40.079,274.624 39.63,275.003 38.77,275.003Z" style="fill:rgb(0,79,135);fill-rule:nonzero;"/>
                </g>
                <g transform="matrix(1,0,0,-1,779.739,625.465)">
                    <path d="M48.395,271.766L45.746,271.766L45.221,270.54L44.21,270.54L46.593,275.838L47.561,275.838L49.95,270.54L48.92,270.54L48.389,271.766L48.395,271.766ZM48.073,272.538L47.074,274.851L46.081,272.538L48.073,272.538Z" style="fill:rgb(0,79,135);fill-rule:nonzero;"/>
                </g>
                <g transform="matrix(1,0,0,-1,776.002,625.465)">
                    <path d="M59.225,270.54L59.225,274.049L57.48,271.147L57.044,271.147L55.306,274.004L55.306,270.54L54.37,270.54L54.37,275.838L55.179,275.838L57.284,272.329L59.352,275.838L60.161,275.838L60.161,270.54L59.225,270.54Z" style="fill:rgb(0,79,135);fill-rule:nonzero;"/>
                </g>
                <g transform="matrix(1,0,0,-1,772.235,625.465)">
                    <path d="M68.795,271.766L66.146,271.766L65.621,270.54L64.61,270.54L66.993,275.838L67.961,275.838L70.35,270.54L69.32,270.54L68.789,271.766L68.795,271.766ZM68.473,272.538L67.474,274.851L66.481,272.538L68.473,272.538Z" style="fill:rgb(0,79,135);fill-rule:nonzero;"/>
                </g>
                <g transform="matrix(1,0,0,-1,767.288,625.465)">
                    <path d="M78.06,275.838L80.374,275.838C82.093,275.838 83.263,274.782 83.263,273.189C83.263,271.596 82.093,270.54 80.374,270.54L78.06,270.54L78.06,275.838ZM80.33,271.374C81.512,271.374 82.27,272.095 82.27,273.189C82.27,274.282 81.505,275.003 80.33,275.003L79.046,275.003L79.046,271.374L80.33,271.374Z" style="fill:rgb(0,79,135);fill-rule:nonzero;"/>
                </g>
                <g transform="matrix(1,0,0,-1,763.65,625.449)">
                    <path d="M91.92,271.352L91.92,270.53L87.95,270.53L87.95,275.828L91.813,275.828L91.813,275.006L88.93,275.006L88.93,273.628L91.484,273.628L91.484,272.818L88.93,272.818L88.93,271.358L91.92,271.358L91.92,271.352Z" style="fill:rgb(0,79,135);fill-rule:nonzero;"/>
                </g>
                <g transform="matrix(1,0,0,-1,759.483,625.465)">
                    <rect x="99.28" y="270.54" width="0.986" height="5.298" style="fill:rgb(0,79,135);"/>
                </g>
                <g transform="matrix(1,0,0,-1,758.078,625.465)">
                    <path d="M107.803,275.838L107.803,270.54L106.994,270.54L104.074,274.124L104.074,270.54L103.1,270.54L103.1,275.838L103.909,275.838L106.83,272.253L106.83,275.838L107.803,275.838Z" style="fill:rgb(0,79,135);fill-rule:nonzero;"/>
                </g>
                <g transform="matrix(1,0,0,-1,754.911,625.465)">
                    <path d="M113.467,275.003L111.71,275.003L111.71,275.838L116.205,275.838L116.205,275.003L114.447,275.003L114.447,270.54L113.461,270.54L113.461,275.003L113.467,275.003Z" style="fill:rgb(0,79,135);fill-rule:nonzero;"/>
                </g>
                <g transform="matrix(1,0,0,-1,751.862,625.449)">
                    <path d="M123.97,271.358L123.97,270.53L120,270.53L120,275.828L123.863,275.828L123.863,275.006L120.98,275.006L120.98,273.628L123.534,273.628L123.534,272.818L120.98,272.818L120.98,271.358L123.97,271.358Z" style="fill:rgb(0,79,135);fill-rule:nonzero;"/>
                </g>
                <g transform="matrix(1,0,0,-1,749.147,625.405)">
                    <path d="M131.375,273.192L132.305,273.192L132.305,271.08C131.755,270.631 130.983,270.41 130.231,270.41C128.587,270.41 127.38,271.554 127.38,273.135C127.38,274.715 128.587,275.859 130.25,275.859C131.135,275.859 131.875,275.562 132.374,275L131.755,274.393C131.337,274.81 130.863,275 130.294,275C129.169,275 128.373,274.235 128.373,273.141C128.373,272.047 129.169,271.282 130.288,271.282C130.667,271.282 131.034,271.358 131.375,271.554L131.375,273.204L131.375,273.192Z" style="fill:rgb(0,79,135);fill-rule:nonzero;"/>
                </g>
                <g transform="matrix(1,0,0,-1,745.528,625.465)">
                    <path d="M140.684,270.54L139.603,272.089C139.534,272.083 139.464,272.083 139.401,272.083L138.206,272.083L138.206,270.54L137.22,270.54L137.22,275.838L139.401,275.838C140.792,275.838 141.658,275.123 141.658,273.954C141.658,273.151 141.247,272.563 140.533,272.285L141.753,270.546L140.691,270.546L140.684,270.54ZM139.35,275.003L138.2,275.003L138.2,272.892L139.35,272.892C140.21,272.892 140.659,273.284 140.659,273.954C140.659,274.624 140.21,275.003 139.35,275.003Z" style="fill:rgb(0,79,135);fill-rule:nonzero;"/>
                </g>
                <g transform="matrix(1,0,0,-1,742.743,625.465)">
                    <path d="M148.975,271.766L146.326,271.766L145.801,270.54L144.79,270.54L147.173,275.838L148.141,275.838L150.53,270.54L149.5,270.54L148.969,271.766L148.975,271.766ZM148.653,272.538L147.654,274.851L146.661,272.538L148.653,272.538Z" style="fill:rgb(0,79,135);fill-rule:nonzero;"/>
                </g>
                <g transform="matrix(1,0,0,-1,739.271,627.081)">
                    <path d="M158.523,273.572L159.161,272.965C158.687,272.415 157.979,272.105 157.151,272.08L157.075,271.783C157.524,271.732 157.732,271.473 157.732,271.151C157.732,270.715 157.321,270.43 156.702,270.43C156.43,270.43 156.196,270.481 156.006,270.588L156.183,271.037C156.341,270.955 156.506,270.917 156.695,270.917C156.974,270.917 157.094,271.024 157.094,271.189C157.094,271.334 156.98,271.435 156.695,271.435L156.462,271.435L156.639,272.099C155.241,272.282 154.23,273.363 154.23,274.798C154.23,276.379 155.437,277.523 157.068,277.523C157.928,277.523 158.674,277.213 159.161,276.638L158.523,276.044C158.137,276.461 157.663,276.663 157.106,276.663C156.006,276.663 155.216,275.892 155.216,274.805C155.216,273.717 156.013,272.946 157.106,272.946C157.656,272.946 158.137,273.148 158.523,273.572L158.523,273.572Z" style="fill:rgb(0,79,135);fill-rule:nonzero;"/>
                </g>
                <g transform="matrix(1,0,0,-1,736.354,623.115)">
                    <path d="M166.345,269.416L163.696,269.416L163.171,268.19L162.16,268.19L164.543,273.488L165.511,273.488L167.9,268.19L166.87,268.19L166.339,269.416L166.345,269.416ZM164.177,273.962L163.671,273.962C163.684,274.581 164.006,274.973 164.486,274.973C164.967,274.973 165.245,274.474 165.517,274.474C165.732,274.474 165.871,274.632 165.89,274.904L166.396,274.904C166.383,274.316 166.061,273.911 165.58,273.911C165.1,273.911 164.821,274.411 164.55,274.411C164.335,274.411 164.196,274.246 164.177,273.955L164.177,273.962ZM166.023,270.188L165.024,272.501L164.031,270.188L166.023,270.188Z" style="fill:rgb(0,79,135);fill-rule:nonzero;"/>
                </g>
                <g transform="matrix(1,0,0,-1,732.886,625.421)">
                    <path d="M171.59,273.145C171.59,274.713 172.797,275.869 174.441,275.869C176.085,275.869 177.292,274.719 177.292,273.145C177.292,271.571 176.085,270.42 174.441,270.42C172.797,270.42 171.59,271.577 171.59,273.145ZM176.3,273.145C176.3,274.226 175.503,275.003 174.441,275.003C173.379,275.003 172.583,274.226 172.583,273.145C172.583,272.064 173.379,271.286 174.441,271.286C175.503,271.286 176.3,272.064 176.3,273.145Z" style="fill:rgb(0,79,135);fill-rule:nonzero;"/>
                </g>
                <g transform="matrix(1,0,0,-1,727.74,625.449)">
                    <path d="M189.55,271.358L189.55,270.53L185.58,270.53L185.58,275.828L189.443,275.828L189.443,275.006L186.56,275.006L186.56,273.628L189.114,273.628L189.114,272.818L186.56,272.818L186.56,271.358L189.55,271.358Z" style="fill:rgb(0,79,135);fill-rule:nonzero;"/>
                </g>
                <g transform="matrix(1,0,0,-1,723.841,625.421)">
                    <path d="M196.186,271.059L196.528,271.823C196.951,271.482 197.628,271.242 198.272,271.242C199.094,271.242 199.442,271.539 199.442,271.931C199.442,273.075 196.294,272.323 196.294,274.289C196.294,275.142 196.977,275.869 198.424,275.869C199.063,275.869 199.727,275.705 200.188,275.402L199.878,274.637C199.404,274.915 198.879,275.054 198.418,275.054C197.602,275.054 197.267,274.738 197.267,274.333C197.267,273.208 200.409,273.941 200.409,271.994C200.409,271.147 199.72,270.42 198.266,270.42C197.444,270.42 196.616,270.679 196.18,271.059L196.186,271.059Z" style="fill:rgb(0,79,135);fill-rule:nonzero;"/>
                </g>
                <g transform="matrix(1,0,0,-1,721.027,625.421)">
                    <path d="M203.83,273.145C203.83,274.713 205.037,275.869 206.681,275.869C208.325,275.869 209.532,274.719 209.532,273.145C209.532,271.571 208.325,270.42 206.681,270.42C205.037,270.42 203.83,271.577 203.83,273.145ZM208.54,273.145C208.54,274.226 207.743,275.003 206.681,275.003C205.619,275.003 204.823,274.226 204.823,273.145C204.823,272.064 205.619,271.286 206.681,271.286C207.743,271.286 208.54,272.064 208.54,273.145Z" style="fill:rgb(0,79,135);fill-rule:nonzero;"/>
                </g>
                <g transform="matrix(1,0,0,-1,717.323,625.415)">
                    <path d="M213.906,273.138C213.906,274.719 215.114,275.863 216.745,275.863C217.605,275.863 218.351,275.553 218.837,274.978L218.199,274.384C217.813,274.801 217.339,275.003 216.783,275.003C215.683,275.003 214.893,274.232 214.893,273.145C214.893,272.057 215.689,271.286 216.783,271.286C217.333,271.286 217.813,271.488 218.199,271.912L218.837,271.305C218.344,270.73 217.605,270.42 216.732,270.42C215.114,270.42 213.9,271.564 213.9,273.145L213.906,273.138Z" style="fill:rgb(0,79,135);fill-rule:nonzero;"/>
                </g>
                <g transform="matrix(1,0,0,-1,713.899,625.465)">
                    <rect x="223.21" y="270.54" width="0.986" height="5.298" style="fill:rgb(0,79,135);"/>
                </g>
                <g transform="matrix(1,0,0,-1,712.931,625.465)">
                    <path d="M230.025,271.766L227.376,271.766L226.852,270.54L225.84,270.54L228.223,275.838L229.191,275.838L231.58,270.54L230.55,270.54L230.019,271.766L230.025,271.766ZM229.703,272.538L228.704,274.851L227.711,272.538L229.703,272.538Z" style="fill:rgb(0,79,135);fill-rule:nonzero;"/>
                </g>
                <g transform="matrix(1,0,0,-1,709.194,625.465)">
                    <path d="M236,275.838L236.986,275.838L236.986,271.374L239.755,271.374L239.755,270.54L236.006,270.54L236.006,275.838L236,275.838Z" style="fill:rgb(0,79,135);fill-rule:nonzero;"/>
                </g>
                <g transform="matrix(1,0,0,-1,706.557,625.465)">
                    <rect x="243.17" y="270.54" width="0.986" height="5.298" style="fill:rgb(0,79,135);"/>
                </g>
                <g transform="matrix(1,0,0,-1,705.387,625.465)">
                    <path d="M250.864,271.374L250.864,270.54L246.35,270.54L246.35,271.197L249.467,275.003L246.407,275.003L246.407,275.838L250.769,275.838L250.769,275.18L247.652,271.374L250.864,271.374Z" style="fill:rgb(0,79,135);fill-rule:nonzero;"/>
                </g>
                <g transform="matrix(1,0,0,-1,702.669,625.465)">
                    <path d="M257.925,271.766L255.276,271.766L254.752,270.54L253.74,270.54L256.123,275.838L257.091,275.838L259.48,270.54L258.45,270.54L257.919,271.766L257.925,271.766ZM257.603,272.538L256.604,274.851L255.611,272.538L257.603,272.538Z" style="fill:rgb(0,79,135);fill-rule:nonzero;"/>
                </g>
                <g transform="matrix(1,0,0,-1,699.197,627.081)">
                    <path d="M267.473,273.572L268.111,272.965C267.637,272.415 266.929,272.105 266.101,272.08L266.025,271.783C266.474,271.732 266.682,271.473 266.682,271.151C266.682,270.715 266.271,270.43 265.652,270.43C265.38,270.43 265.146,270.481 264.956,270.588L265.133,271.037C265.292,270.955 265.456,270.917 265.646,270.917C265.924,270.917 266.044,271.024 266.044,271.189C266.044,271.334 265.93,271.435 265.646,271.435L265.412,271.435L265.589,272.099C264.192,272.282 263.18,273.363 263.18,274.798C263.18,276.379 264.388,277.523 266.019,277.523C266.878,277.523 267.624,277.213 268.111,276.638L267.473,276.044C267.087,276.461 266.613,276.663 266.056,276.663C264.956,276.663 264.166,275.892 264.166,274.805C264.166,273.717 264.963,272.946 266.056,272.946C266.606,272.946 267.087,273.148 267.473,273.572L267.473,273.572Z" style="fill:rgb(0,79,135);fill-rule:nonzero;"/>
                </g>
                <g transform="matrix(1,0,0,-1,696.28,623.115)">
                    <path d="M275.295,269.416L272.646,269.416L272.122,268.19L271.11,268.19L273.493,273.488L274.461,273.488L276.85,268.19L275.82,268.19L275.289,269.416L275.295,269.416ZM273.127,273.962L272.621,273.962C272.634,274.581 272.956,274.973 273.436,274.973C273.917,274.973 274.195,274.474 274.467,274.474C274.682,274.474 274.821,274.632 274.84,274.904L275.346,274.904C275.333,274.316 275.011,273.911 274.53,273.911C274.05,273.911 273.771,274.411 273.5,274.411C273.285,274.411 273.146,274.246 273.127,273.955L273.127,273.962ZM274.973,270.188L273.974,272.501L272.981,270.188L274.973,270.188Z" style="fill:rgb(0,79,135);fill-rule:nonzero;"/>
                </g>
                <g transform="matrix(1,0,0,-1,692.812,625.421)">
                    <path d="M280.54,273.145C280.54,274.713 281.748,275.869 283.391,275.869C285.035,275.869 286.242,274.719 286.242,273.145C286.242,271.571 285.035,270.42 283.391,270.42C281.748,270.42 280.54,271.577 280.54,273.145ZM285.25,273.145C285.25,274.226 284.453,275.003 283.391,275.003C282.329,275.003 281.533,274.226 281.533,273.145C281.533,272.064 282.329,271.286 283.391,271.286C284.453,271.286 285.25,272.064 285.25,273.145Z" style="fill:rgb(0,79,135);fill-rule:nonzero;"/>
                </g>
                <g transform="matrix(1,0,0,-1,687.669,625.465)">
                    <path d="M294.52,275.838L296.834,275.838C298.553,275.838 299.723,274.782 299.723,273.189C299.723,271.596 298.553,270.54 296.834,270.54L294.52,270.54L294.52,275.838ZM296.79,271.374C297.972,271.374 298.73,272.095 298.73,273.189C298.73,274.282 297.965,275.003 296.79,275.003L295.506,275.003L295.506,271.374L296.79,271.374Z" style="fill:rgb(0,79,135);fill-rule:nonzero;"/>
                </g>
                <g transform="matrix(1,0,0,-1,684.514,625.465)">
                    <path d="M307.285,271.766L304.636,271.766L304.112,270.54L303.1,270.54L305.483,275.838L306.451,275.838L308.84,270.54L307.81,270.54L307.279,271.766L307.285,271.766ZM306.963,272.538L305.964,274.851L304.971,272.538L306.963,272.538Z" style="fill:rgb(0,79,135);fill-rule:nonzero;"/>
                </g>
                <g transform="matrix(1,0,0,-1,679.559,625.465)">
                    <path d="M321.273,275.838L321.273,270.54L320.464,270.54L317.544,274.124L317.544,270.54L316.57,270.54L316.57,275.838L317.379,275.838L320.3,272.253L320.3,275.838L321.273,275.838Z" style="fill:rgb(0,79,135);fill-rule:nonzero;"/>
                </g>
                <g transform="matrix(1,0,0,-1,676.216,625.421)">
                    <path d="M325.66,273.145C325.66,274.713 326.867,275.869 328.511,275.869C330.155,275.869 331.362,274.719 331.362,273.145C331.362,271.571 330.155,270.42 328.511,270.42C326.867,270.42 325.66,271.577 325.66,273.145ZM330.37,273.145C330.37,274.226 329.573,275.003 328.511,275.003C327.449,275.003 326.653,274.226 326.653,273.145C326.653,272.064 327.449,271.286 328.511,271.286C329.573,271.286 330.37,272.064 330.37,273.145Z" style="fill:rgb(0,79,135);fill-rule:nonzero;"/>
                </g>
                <g transform="matrix(1,0,0,-1,672.821,625.465)">
                    <path d="M340.478,275.838L338.171,270.54L337.204,270.54L334.89,275.838L335.958,275.838L337.722,271.754L339.499,275.838L340.478,275.838Z" style="fill:rgb(0,79,135);fill-rule:nonzero;"/>
                </g>
                <g transform="matrix(1,0,0,-1,669.775,625.465)">
                    <path d="M347.355,271.766L344.706,271.766L344.182,270.54L343.17,270.54L345.553,275.838L346.521,275.838L348.91,270.54L347.88,270.54L347.349,271.766L347.355,271.766ZM347.033,272.538L346.034,274.851L345.041,272.538L347.033,272.538Z" style="fill:rgb(0,79,135);fill-rule:nonzero;"/>
                </g>
                <g transform="matrix(1,0,0,-1,664.828,625.465)">
                    <path d="M361.058,273.954C361.058,272.791 360.198,272.07 358.801,272.07L357.606,272.07L357.606,270.54L356.62,270.54L356.62,275.838L358.801,275.838C360.192,275.838 361.058,275.123 361.058,273.954ZM360.065,273.954C360.065,274.618 359.617,275.003 358.757,275.003L357.606,275.003L357.606,272.898L358.757,272.898C359.617,272.898 360.065,273.284 360.065,273.947L360.065,273.954Z" style="fill:rgb(0,79,135);fill-rule:nonzero;"/>
                </g>
                <g transform="matrix(1,0,0,-1,661.672,625.449)">
                    <path d="M369.17,271.358L369.17,270.53L365.2,270.53L365.2,275.828L369.063,275.828L369.063,275.006L366.18,275.006L366.18,273.628L368.734,273.628L368.734,272.818L366.18,272.818L366.18,271.358L369.17,271.358Z" style="fill:rgb(0,79,135);fill-rule:nonzero;"/>
                </g>
                <g transform="matrix(1,0,0,-1,658.983,625.421)">
                    <path d="M372.516,271.059L372.858,271.823C373.281,271.482 373.958,271.242 374.603,271.242C375.424,271.242 375.772,271.539 375.772,271.931C375.772,273.075 372.624,272.323 372.624,274.289C372.624,275.142 373.307,275.869 374.754,275.869C375.393,275.869 376.057,275.705 376.518,275.402L376.208,274.637C375.734,274.915 375.209,275.054 374.748,275.054C373.932,275.054 373.597,274.738 373.597,274.333C373.597,273.208 376.739,273.941 376.739,271.994C376.739,271.147 376.05,270.42 374.596,270.42C373.774,270.42 372.946,270.679 372.51,271.059L372.516,271.059Z" style="fill:rgb(0,79,135);fill-rule:nonzero;"/>
                </g>
                <g transform="matrix(1,0,0,-1,656.213,625.421)">
                    <path d="M380.046,271.059L380.388,271.823C380.811,271.482 381.481,271.242 382.133,271.242C382.954,271.242 383.302,271.539 383.302,271.931C383.302,273.075 380.154,272.323 380.154,274.289C380.154,275.142 380.837,275.869 382.284,275.869C382.923,275.869 383.587,275.705 384.048,275.402L383.738,274.637C383.264,274.915 382.739,275.054 382.278,275.054C381.462,275.054 381.127,274.738 381.127,274.333C381.127,273.208 384.269,273.941 384.269,271.994C384.269,271.147 383.58,270.42 382.126,270.42C381.304,270.42 380.476,270.679 380.04,271.059L380.046,271.059Z" style="fill:rgb(0,79,135);fill-rule:nonzero;"/>
                </g>
                <g transform="matrix(1,0,0,-1,653.403,625.421)">
                    <path d="M387.68,273.145C387.68,274.713 388.887,275.869 390.531,275.869C392.175,275.869 393.382,274.719 393.382,273.145C393.382,271.571 392.175,270.42 390.531,270.42C388.887,270.42 387.68,271.577 387.68,273.145ZM392.39,273.145C392.39,274.226 391.593,275.003 390.531,275.003C389.469,275.003 388.673,274.226 388.673,273.145C388.673,272.064 389.469,271.286 390.531,271.286C391.593,271.286 392.39,272.064 392.39,273.145Z" style="fill:rgb(0,79,135);fill-rule:nonzero;"/>
                </g>
                <g transform="matrix(1,0,0,-1,649.957,625.465)">
                    <path d="M401.235,271.766L398.586,271.766L398.062,270.54L397.05,270.54L399.433,275.838L400.401,275.838L402.79,270.54L401.76,270.54L401.229,271.766L401.235,271.766ZM400.913,272.538L399.914,274.851L398.921,272.538L400.913,272.538Z" style="fill:rgb(0,79,135);fill-rule:nonzero;"/>
                </g>
                <g transform="matrix(1,0,0,-1,645.23,625.415)">
                    <path d="M409.906,273.138C409.906,274.719 411.114,275.863 412.745,275.863C413.605,275.863 414.351,275.553 414.837,274.978L414.199,274.384C413.813,274.801 413.339,275.003 412.783,275.003C411.683,275.003 410.893,274.232 410.893,273.145C410.893,272.057 411.689,271.286 412.783,271.286C413.333,271.286 413.813,271.488 414.199,271.912L414.837,271.305C414.344,270.73 413.605,270.42 412.732,270.42C411.114,270.42 409.9,271.564 409.9,273.145L409.906,273.138Z" style="fill:rgb(0,79,135);fill-rule:nonzero;"/>
                </g>
                <g transform="matrix(1,0,0,-1,642.089,625.421)">
                    <path d="M418.44,273.145C418.44,274.713 419.647,275.869 421.291,275.869C422.935,275.869 424.142,274.719 424.142,273.145C424.142,271.571 422.935,270.42 421.291,270.42C419.647,270.42 418.44,271.577 418.44,273.145ZM423.15,273.145C423.15,274.226 422.353,275.003 421.291,275.003C420.229,275.003 419.433,274.226 419.433,273.145C419.433,272.064 420.229,271.286 421.291,271.286C422.353,271.286 423.15,272.064 423.15,273.145Z" style="fill:rgb(0,79,135);fill-rule:nonzero;"/>
                </g>
                <g transform="matrix(1,0,0,-1,638.165,625.465)">
                    <path d="M429.11,275.838L430.096,275.838L430.096,271.374L432.865,271.374L432.865,270.54L429.116,270.54L429.116,275.838L429.11,275.838Z" style="fill:rgb(0,79,135);fill-rule:nonzero;"/>
                </g>
                <g transform="matrix(1,0,0,-1,635.939,625.465)">
                    <path d="M439.345,271.766L436.696,271.766L436.172,270.54L435.16,270.54L437.543,275.838L438.511,275.838L440.9,270.54L439.87,270.54L439.339,271.766L439.345,271.766ZM439.023,272.538L438.024,274.851L437.031,272.538L439.023,272.538Z" style="fill:rgb(0,79,135);fill-rule:nonzero;"/>
                </g>
                <g transform="matrix(1,0,0,-1,632.206,625.449)">
                    <path d="M450.013,271.965C450.013,271.055 449.305,270.53 447.94,270.53L445.31,270.53L445.31,275.828L447.794,275.828C449.065,275.828 449.748,275.29 449.748,274.45C449.748,273.906 449.476,273.501 449.065,273.286C449.634,273.103 450.02,272.66 450.02,271.971L450.013,271.965ZM446.29,275.05L446.29,273.59L447.681,273.59C448.363,273.59 448.749,273.83 448.749,274.317C448.749,274.804 448.363,275.05 447.681,275.05L446.29,275.05ZM449.021,272.06C449.021,272.591 448.623,272.825 447.877,272.825L446.29,272.825L446.29,271.295L447.877,271.295C448.616,271.295 449.021,271.529 449.021,272.06L449.021,272.06Z" style="fill:rgb(0,79,135);fill-rule:nonzero;"/>
                </g>
                <g transform="matrix(1,0,0,-1,629.076,625.421)">
                    <path d="M453.82,273.145C453.82,274.713 455.027,275.869 456.671,275.869C458.315,275.869 459.522,274.719 459.522,273.145C459.522,271.571 458.315,270.42 456.671,270.42C455.027,270.42 453.82,271.577 453.82,273.145ZM458.53,273.145C458.53,274.226 457.733,275.003 456.671,275.003C455.609,275.003 454.813,274.226 454.813,273.145C454.813,272.064 455.609,271.286 456.671,271.286C457.733,271.286 458.53,272.064 458.53,273.145Z" style="fill:rgb(0,79,135);fill-rule:nonzero;"/>
                </g>
                <g transform="matrix(1,0,0,-1,625.147,625.465)">
                    <path d="M467.964,270.54L466.883,272.089C466.814,272.083 466.744,272.083 466.681,272.083L465.486,272.083L465.486,270.54L464.5,270.54L464.5,275.838L466.681,275.838C468.072,275.838 468.938,275.123 468.938,273.954C468.938,273.151 468.527,272.563 467.813,272.285L469.033,270.546L467.971,270.546L467.964,270.54ZM466.63,275.003L465.48,275.003L465.48,272.892L466.63,272.892C467.49,272.892 467.939,273.284 467.939,273.954C467.939,274.624 467.49,275.003 466.63,275.003Z" style="fill:rgb(0,79,135);fill-rule:nonzero;"/>
                </g>
                <g transform="matrix(1,0,0,-1,622.367,625.465)">
                    <path d="M476.245,271.766L473.596,271.766L473.071,270.54L472.06,270.54L474.443,275.838L475.411,275.838L477.8,270.54L476.77,270.54L476.239,271.766L476.245,271.766ZM475.923,272.538L474.924,274.851L473.931,272.538L475.923,272.538Z" style="fill:rgb(0,79,135);fill-rule:nonzero;"/>
                </g>
                <g transform="matrix(1,0,0,-1,618.63,625.465)">
                    <path d="M482.22,275.838L484.534,275.838C486.253,275.838 487.423,274.782 487.423,273.189C487.423,271.596 486.253,270.54 484.534,270.54L482.22,270.54L482.22,275.838ZM484.49,271.374C485.672,271.374 486.43,272.095 486.43,273.189C486.43,274.282 485.665,275.003 484.49,275.003L483.206,275.003L483.206,271.374L484.49,271.374Z" style="fill:rgb(0,79,135);fill-rule:nonzero;"/>
                </g>
                <g transform="matrix(1,0,0,-1,615.212,625.421)">
                    <path d="M491.51,273.145C491.51,274.713 492.717,275.869 494.361,275.869C496.005,275.869 497.212,274.719 497.212,273.145C497.212,271.571 496.005,270.42 494.361,270.42C492.717,270.42 491.51,271.577 491.51,273.145ZM496.22,273.145C496.22,274.226 495.423,275.003 494.361,275.003C493.299,275.003 492.503,274.226 492.503,273.145C492.503,272.064 493.299,271.286 494.361,271.286C495.423,271.286 496.22,272.064 496.22,273.145Z" style="fill:rgb(0,79,135);fill-rule:nonzero;"/>
                </g>
                <g transform="matrix(1,0,0,-1,611.288,625.465)">
                    <path d="M505.644,270.54L504.563,272.089C504.494,272.083 504.424,272.083 504.361,272.083L503.166,272.083L503.166,270.54L502.18,270.54L502.18,275.838L504.361,275.838C505.752,275.838 506.618,275.123 506.618,273.954C506.618,273.151 506.207,272.563 505.493,272.285L506.713,270.546L505.651,270.546L505.644,270.54ZM504.31,275.003L503.16,275.003L503.16,272.892L504.31,272.892C505.17,272.892 505.619,273.284 505.619,273.954C505.619,274.624 505.17,275.003 504.31,275.003Z" style="fill:rgb(0,79,135);fill-rule:nonzero;"/>
                </g>
                <g transform="matrix(1,0,0,-1,608.503,625.465)">
                    <path d="M513.935,271.766L511.286,271.766L510.762,270.54L509.75,270.54L512.133,275.838L513.101,275.838L515.49,270.54L514.46,270.54L513.929,271.766L513.935,271.766ZM513.613,272.538L512.614,274.851L511.621,272.538L513.613,272.538Z" style="fill:rgb(0,79,135);fill-rule:nonzero;"/>
                </g>
            </g>
            <g id="login-top-icon">
                <g id="login-top-icon1" serif:id="login-top-icon" transform="matrix(1,0,0,-1,741.814,300.817)">
                    <path d="M219.646,85.521C224.008,81.178 228.535,78.573 232.758,78.017C236.981,77.448 240.843,78.896 244.251,82.297C245.142,83.188 246.609,83.207 247.519,82.297C248.429,81.387 248.429,79.939 247.519,79.028C244.548,76.051 241.172,74.224 237.549,73.573L260.965,50.157C262.584,48.526 263.583,46.509 263.956,44.41L271.409,51.864C271.453,51.927 271.517,51.984 271.58,52.047C278.825,59.292 282.826,68.933 282.826,79.193C282.826,89.453 278.837,99.1 271.58,106.351C264.322,113.596 254.682,117.585 244.434,117.585L244.421,117.585C234.174,117.585 224.533,113.596 217.276,106.339C217.276,106.339 190.996,80.059 186.634,75.697C185.325,74.388 186.311,72.846 187.361,71.784C190.439,68.705 197.589,66.701 203.121,72.233L216.384,85.515C217.25,86.381 218.793,86.381 219.653,85.515L219.646,85.521ZM163.167,106.364C148.191,91.394 148.204,67.017 163.167,52.06C163.23,51.996 163.287,51.921 163.351,51.864L213.002,2.212C215.423,-0.19 219.33,-0.19 221.739,2.212C222.896,3.382 223.54,4.937 223.54,6.587C223.54,8.237 222.896,9.773 221.739,10.93L197.09,35.566C196.199,36.476 196.199,37.937 197.09,38.847C198,39.739 199.461,39.739 200.371,38.847L225.001,14.211C227.403,11.809 231.316,11.809 233.706,14.198C234.875,15.368 235.527,16.911 235.527,18.561C235.527,20.211 234.882,21.766 233.725,22.923L209.076,47.571C208.185,48.463 208.185,49.929 209.076,50.84C209.986,51.75 211.447,51.75 212.357,50.84L236.993,26.204C238.163,25.034 239.705,24.383 241.355,24.383C243.005,24.383 244.541,25.028 245.717,26.185C248.12,28.587 248.12,32.5 245.717,34.902L221.069,59.551C220.177,60.461 220.177,61.909 221.069,62.813C221.979,63.723 223.439,63.723 224.331,62.813L248.979,38.177C250.136,37.008 251.691,36.356 253.341,36.356C254.991,36.356 256.546,37.001 257.703,38.177C260.106,40.579 260.106,44.493 257.703,46.895L230.943,73.655C226.644,74.515 222.251,76.892 218.066,80.666L206.389,68.971C198.626,61.22 188.505,64.115 184.099,68.522C180.754,71.866 180.464,76.07 183.372,78.965C187.55,83.157 211.921,107.527 213.874,109.468C198.746,121.283 176.949,120.114 163.174,106.358L163.167,106.364ZM209.74,-1.062L159.886,48.779C159.823,48.842 159.766,48.918 159.716,48.975C143.121,65.765 143.184,92.911 159.899,109.632C175.533,125.253 200.403,126.423 217.377,112.648C225.007,118.843 234.452,122.219 244.421,122.219L244.434,122.219C255.908,122.219 266.725,117.749 274.848,109.632C282.965,101.496 287.447,90.699 287.447,79.206C287.447,67.712 283.041,57.067 275.012,48.962C274.968,48.899 274.905,48.842 274.861,48.779L260.965,34.915C258.936,32.867 256.224,31.741 253.341,31.741C252.899,31.741 252.482,31.786 252.045,31.836C252.412,28.663 251.401,25.35 248.979,22.916C246.95,20.881 244.232,19.762 241.355,19.762C240.925,19.762 240.489,19.793 240.059,19.838C240.122,19.42 240.154,18.99 240.154,18.561C240.154,15.684 239.029,12.972 236.993,10.936C234.882,8.838 232.125,7.794 229.369,7.794C228.939,7.794 228.509,7.826 228.092,7.87C228.136,7.453 228.168,7.023 228.168,6.593C228.168,3.717 227.043,0.999 225.007,-1.05C222.896,-3.142 220.139,-4.204 217.383,-4.204C214.608,-4.204 211.851,-3.149 209.74,-1.05L209.74,-1.062Z" style="fill:rgb(0,79,135);fill-rule:nonzero;"/>
                </g>
                <g transform="matrix(1,0,0,-1,736.376,235.269)">
                    <path d="M163.643,13.26C162.789,13.26 162.1,13.949 162.1,14.803C162.1,33.268 177.121,48.289 195.58,48.289C196.434,48.289 197.123,47.6 197.123,46.747C197.123,45.893 196.434,45.204 195.58,45.204C178.815,45.204 165.179,31.562 165.179,14.803C165.179,13.949 164.49,13.26 163.636,13.26L163.643,13.26Z" style="fill:rgb(0,79,135);fill-rule:nonzero;"/>
                </g>
                <g transform="matrix(1,0,0,-1,699.709,212.869)">
                    <path d="M263.325,13.385C262.933,13.385 262.535,13.536 262.238,13.833C261.637,14.434 261.637,15.407 262.238,16.014C268.124,21.9 275.944,25.371 284.257,25.782C285.116,25.826 285.831,25.168 285.875,24.315C285.919,23.468 285.262,22.741 284.415,22.703C276.867,22.33 269.767,19.182 264.419,13.84C264.116,13.536 263.724,13.391 263.332,13.391L263.325,13.385Z" style="fill:rgb(0,79,135);fill-rule:nonzero;"/>
                </g>
                <g transform="matrix(1,0,0,-1,704.123,235.088)">
                    <path d="M251.325,28.017C250.933,28.017 250.535,28.169 250.238,28.466C249.637,29.067 249.637,30.04 250.238,30.647L257.824,38.233C258.425,38.834 259.398,38.834 260.005,38.233C260.612,37.633 260.606,36.659 260.005,36.052L252.419,28.466C252.116,28.163 251.724,28.017 251.332,28.017L251.325,28.017Z" style="fill:rgb(0,79,135);fill-rule:nonzero;"/>
                </g>
                <g transform="matrix(1,0,0,-1,708.265,259.467)">
                    <path d="M240.065,45.277C239.673,45.277 239.275,45.429 238.978,45.726C238.377,46.327 238.377,47.3 238.978,47.907L242.771,51.7C243.372,52.301 244.345,52.301 244.952,51.7C245.559,51.1 245.553,50.126 244.952,49.519L241.159,45.726C240.856,45.423 240.464,45.277 240.072,45.277L240.065,45.277Z" style="fill:rgb(0,79,135);fill-rule:nonzero;"/>
                </g>
            </g>
        </g>
    </g>
</svg>
