<?xml version="1.0" encoding="UTF-8" standalone="no"?>
<!DOCTYPE svg PUBLIC "-//W3C//DTD SVG 1.1//EN" "http://www.w3.org/Graphics/SVG/1.1/DTD/svg11.dtd">
<svg width="100%" height="100%" viewBox="0 0 458 386" version="1.1" xmlns="http://www.w3.org/2000/svg" xmlns:xlink="http://www.w3.org/1999/xlink" xml:space="preserve" xmlns:serif="http://www.serif.com/" style="fill-rule:evenodd;clip-rule:evenodd;stroke-linejoin:round;stroke-miterlimit:2;">
    <g transform="matrix(1,0,0,1,-827.356,-4.66534)">
        <g transform="matrix(1.72378,0,0,1.72378,-598.822,-282.274)">
            <g>
                <g transform="matrix(1,0,0,-1,827.356,740.053)">
                    <path d="M25.677,386.886C28.48,384.493 29.882,381.173 29.882,376.924C29.882,372.713 28.48,369.411 25.677,367.02C22.874,364.627 19.006,363.43 14.072,363.43L2.86,363.43L2.86,350.282L0,350.282L0,390.475L14.072,390.475C19.006,390.475 22.874,389.278 25.677,386.886M23.659,368.885C25.864,370.761 26.967,373.44 26.967,376.924C26.967,380.406 25.864,383.097 23.659,384.991C21.453,386.886 18.258,387.833 14.072,387.833L2.86,387.833L2.86,366.072L14.072,366.072C18.258,366.072 21.453,367.009 23.659,368.885" style="fill:rgb(27,31,69);fill-rule:nonzero;"/>
                </g>
                <g transform="matrix(1,0,0,-1,793.534,759.395)">
                    <path d="M97.005,383.921L71.833,383.921C71.907,381.586 72.487,379.509 73.571,377.692C74.654,375.873 76.122,374.466 77.972,373.471C79.822,372.475 81.905,371.978 84.223,371.978C86.129,371.978 87.895,372.332 89.521,373.04C91.147,373.748 92.501,374.792 93.586,376.169L95.212,374.275C93.94,372.705 92.343,371.499 90.418,370.658C88.493,369.815 86.41,369.394 84.167,369.394C81.252,369.394 78.653,370.045 76.374,371.347C74.094,372.647 72.309,374.447 71.02,376.744C69.731,379.041 69.086,381.662 69.086,384.61C69.086,387.519 69.693,390.131 70.908,392.447C72.122,394.763 73.795,396.572 75.925,397.874C78.056,399.174 80.447,399.825 83.102,399.825C85.755,399.825 88.138,399.184 90.25,397.903C92.361,396.62 94.024,394.831 95.24,392.534C96.453,390.237 97.062,387.633 97.062,384.725L97.005,383.921ZM77.552,395.892C75.906,394.954 74.589,393.634 73.599,391.931C72.608,390.227 72.038,388.303 71.889,386.16L94.315,386.16C94.202,388.303 93.641,390.218 92.633,391.902C91.623,393.586 90.296,394.906 88.652,395.864C87.007,396.82 85.157,397.299 83.102,397.299C81.046,397.299 79.196,396.83 77.552,395.892" style="fill:rgb(27,31,69);fill-rule:nonzero;"/>
                </g>
                <g transform="matrix(1,0,0,-1,758.37,759.164)">
                    <path d="M147.811,397.844C149.717,399.01 152.033,399.595 154.762,399.595L154.762,396.782L154.09,396.839C150.839,396.839 148.296,395.795 146.465,393.709C144.634,391.623 143.718,388.723 143.718,385.01L143.718,369.393L140.915,369.393L140.915,399.365L143.606,399.365L143.606,392.82C144.503,395.001 145.905,396.676 147.811,397.844" style="fill:rgb(27,31,69);fill-rule:nonzero;"/>
                </g>
                <g transform="matrix(1,0,0,-1,741.003,747.312)">
                    <path d="M195.732,359.436C195.022,358.748 194.135,358.221 193.069,357.857C192.004,357.494 190.892,357.312 189.734,357.312C187.192,357.312 185.229,358.03 183.847,359.465C182.464,360.9 181.772,362.9 181.772,365.465L181.772,385.044L176.39,385.044L176.39,387.514L181.772,387.514L181.772,394.059L184.576,394.059L184.576,387.514L193.882,387.514L193.882,385.044L184.576,385.044L184.576,365.752C184.576,363.8 185.033,362.316 185.949,361.302C186.865,360.288 188.22,359.781 190.014,359.781C191.845,359.781 193.359,360.335 194.555,361.446L195.732,359.436Z" style="fill:rgb(27,31,69);fill-rule:nonzero;"/>
                </g>
                <g transform="matrix(1,0,0,-1,719.065,759.395)">
                    <path d="M249.121,383.921L223.949,383.921C224.023,381.586 224.603,379.509 225.687,377.692C226.77,375.873 228.238,374.466 230.088,373.471C231.938,372.475 234.021,371.978 236.339,371.978C238.245,371.978 240.011,372.332 241.637,373.04C243.263,373.748 244.617,374.792 245.702,376.169L247.328,374.275C246.056,372.705 244.459,371.499 242.534,370.658C240.609,369.815 238.526,369.394 236.283,369.394C233.368,369.394 230.769,370.045 228.49,371.347C226.21,372.647 224.425,374.447 223.136,376.744C221.847,379.041 221.202,381.662 221.202,384.61C221.202,387.519 221.809,390.131 223.024,392.447C224.238,394.763 225.911,396.572 228.041,397.874C230.172,399.174 232.563,399.825 235.218,399.825C237.871,399.825 240.254,399.184 242.366,397.903C244.477,396.62 246.14,394.831 247.356,392.534C248.569,390.237 249.178,387.633 249.178,384.725L249.121,383.921ZM229.668,395.892C228.022,394.954 226.705,393.634 225.715,391.931C224.724,390.227 224.154,388.303 224.005,386.16L246.431,386.16C246.318,388.303 245.757,390.218 244.749,391.902C243.739,393.586 242.412,394.906 240.768,395.864C239.123,396.82 237.273,397.299 235.218,397.299C233.162,397.299 231.312,396.83 229.668,395.892" style="fill:rgb(27,31,69);fill-rule:nonzero;"/>
                </g>
                <g transform="matrix(1,0,0,-1,683.9,759.164)">
                    <path d="M316.017,396.322C318.147,394.14 319.213,391.001 319.213,386.905L319.213,369.393L316.409,369.393L316.409,386.676C316.409,390.044 315.577,392.608 313.914,394.37C312.251,396.13 309.924,397.011 306.935,397.011C303.496,397.011 300.786,395.958 298.805,393.853C296.824,391.747 295.834,388.915 295.834,385.355L295.834,369.393L293.031,369.393L293.031,399.365L295.722,399.365L295.722,392.877C296.731,394.982 298.235,396.628 300.235,397.815C302.234,399.001 304.598,399.595 307.327,399.595C310.989,399.595 313.886,398.504 316.017,396.322" style="fill:rgb(27,31,69);fill-rule:nonzero;"/>
                </g>
                <g transform="matrix(1,0,0,-1,650.726,759.393)">
                    <path d="M367.971,371.345C365.728,372.646 363.972,374.454 362.702,376.771C361.431,379.087 360.795,381.699 360.795,384.608C360.795,387.556 361.431,390.187 362.702,392.504C363.972,394.819 365.728,396.618 367.971,397.901C370.214,399.183 372.755,399.824 375.596,399.824C377.95,399.824 380.09,399.355 382.015,398.417C383.94,397.479 385.5,396.111 386.696,394.313L384.622,392.762C383.575,394.255 382.276,395.374 380.726,396.121C379.174,396.867 377.465,397.24 375.596,397.24C373.316,397.24 371.269,396.714 369.457,395.662C367.644,394.608 366.224,393.125 365.196,391.211C364.168,389.297 363.655,387.096 363.655,384.608C363.655,382.119 364.168,379.919 365.196,378.005C366.224,376.091 367.644,374.608 369.457,373.556C371.269,372.502 373.316,371.977 375.596,371.977C377.465,371.977 379.174,372.35 380.726,373.096C382.276,373.842 383.575,374.963 384.622,376.455L386.696,374.905C385.5,373.105 383.94,371.737 382.015,370.8C380.09,369.861 377.95,369.393 375.596,369.393C372.755,369.393 370.214,370.043 367.971,371.345" style="fill:rgb(27,31,69);fill-rule:nonzero;"/>
                </g>
                <g transform="matrix(1,0,0,-1,621.367,759.395)">
                    <path d="M448.684,383.921L423.512,383.921C423.586,381.586 424.166,379.509 425.25,377.692C426.333,375.873 427.801,374.466 429.651,373.471C431.501,372.475 433.584,371.978 435.902,371.978C437.808,371.978 439.574,372.332 441.2,373.04C442.826,373.748 444.18,374.792 445.265,376.169L446.891,374.275C445.619,372.705 444.022,371.499 442.097,370.658C440.172,369.815 438.089,369.394 435.846,369.394C432.931,369.394 430.332,370.045 428.053,371.347C425.773,372.647 423.988,374.447 422.699,376.744C421.41,379.041 420.765,381.662 420.765,384.61C420.765,387.519 421.372,390.131 422.587,392.447C423.801,394.763 425.474,396.572 427.604,397.874C429.735,399.174 432.126,399.825 434.781,399.825C437.434,399.825 439.817,399.184 441.929,397.903C444.04,396.62 445.703,394.831 446.919,392.534C448.132,390.237 448.741,387.633 448.741,384.725L448.684,383.921ZM429.231,395.892C427.585,394.954 426.268,393.634 425.278,391.931C424.287,390.227 423.717,388.303 423.568,386.16L445.994,386.16C445.881,388.303 445.32,390.218 444.312,391.902C443.302,393.586 441.975,394.906 440.331,395.864C438.686,396.82 436.836,397.299 434.781,397.299C432.725,397.299 430.875,396.83 429.231,395.892" style="fill:rgb(27,31,69);fill-rule:nonzero;"/>
                </g>
                <g transform="matrix(1,0,0,-1,586.203,759.164)">
                    <path d="M499.49,397.844C501.395,399.01 503.712,399.595 506.441,399.595L506.441,396.782L505.769,396.839C502.517,396.839 499.975,395.795 498.144,393.709C496.312,391.623 495.397,388.723 495.397,385.01L495.397,369.393L492.594,369.393L492.594,399.365L495.285,399.365L495.285,392.82C496.182,395.001 497.583,396.676 499.49,397.844" style="fill:rgb(27,31,69);fill-rule:nonzero;"/>
                </g>
                <g transform="matrix(1,0,0,-1,827.356,658.902)">
                    <path d="M2.027,319.134L6.824,319.134L6.824,317.458L0,317.458L0,326.484L6.66,326.484L6.66,324.808L2.027,324.808L2.027,319.134ZM1.876,322.847L6.119,322.847L6.119,321.223L1.876,321.223L1.876,322.847Z" style="fill:rgb(27,31,69);fill-rule:nonzero;"/>
                </g>
                <g transform="matrix(1,0,0,-1,835.803,341.445)">
                    <rect x="0" y="0" width="2.04" height="9.026" style="fill:rgb(27,31,69);"/>
                </g>
                <g transform="matrix(1,0,0,-1,815.293,658.901)">
                    <path d="M24.64,317.457L24.64,326.483L26.327,326.483L31.527,319.984L30.708,319.984L30.708,326.483L32.722,326.483L32.722,317.457L31.048,317.457L25.836,323.956L26.654,323.956L26.654,317.457L24.64,317.457Z" style="fill:rgb(27,31,69);fill-rule:nonzero;"/>
                </g>
                <g transform="matrix(1,0,0,-1,806.2,658.761)">
                    <path d="M46.801,317.162C46.096,317.162 45.42,317.259 44.774,317.452C44.128,317.646 43.607,317.897 43.213,318.206L43.905,319.78C44.283,319.504 44.73,319.279 45.246,319.103C45.763,318.926 46.285,318.838 46.814,318.838C47.216,318.838 47.542,318.879 47.79,318.96C48.037,319.042 48.219,319.156 48.337,319.303C48.454,319.449 48.513,319.616 48.513,319.806C48.513,320.046 48.421,320.237 48.237,320.379C48.051,320.521 47.809,320.637 47.506,320.727C47.204,320.817 46.87,320.903 46.505,320.985C46.14,321.067 45.775,321.167 45.41,321.288C45.045,321.409 44.711,321.563 44.409,321.752C44.107,321.942 43.861,322.191 43.672,322.5C43.484,322.81 43.389,323.205 43.389,323.686C43.389,324.202 43.525,324.673 43.798,325.099C44.071,325.524 44.482,325.864 45.032,326.117C45.581,326.37 46.273,326.497 47.104,326.497C47.657,326.497 48.203,326.43 48.74,326.298C49.277,326.164 49.751,325.964 50.163,325.698L49.533,324.112C49.122,324.353 48.71,324.531 48.3,324.647C47.888,324.763 47.485,324.821 47.09,324.821C46.696,324.821 46.373,324.774 46.122,324.679C45.869,324.584 45.689,324.462 45.58,324.312C45.471,324.161 45.416,323.987 45.416,323.79C45.416,323.557 45.508,323.37 45.693,323.228C45.878,323.087 46.122,322.973 46.424,322.887C46.726,322.801 47.059,322.715 47.425,322.629C47.79,322.543 48.155,322.444 48.52,322.333C48.885,322.221 49.218,322.07 49.521,321.881C49.823,321.692 50.068,321.442 50.257,321.133C50.446,320.824 50.54,320.433 50.54,319.96C50.54,319.453 50.402,318.989 50.125,318.567C49.848,318.146 49.434,317.807 48.885,317.549C48.335,317.291 47.641,317.162 46.801,317.162" style="fill:rgb(27,31,69);fill-rule:nonzero;"/>
                </g>
                <g transform="matrix(1,0,0,-1,798.907,658.901)">
                    <path d="M60.931,317.457L60.931,324.781L58.111,324.781L58.111,326.483L65.791,326.483L65.791,324.781L62.97,324.781L62.97,317.457L60.931,317.457Z" style="fill:rgb(27,31,69);fill-rule:nonzero;"/>
                </g>
                <g transform="matrix(1,0,0,-1,790.491,658.902)">
                    <path d="M77.329,319.134L82.126,319.134L82.126,317.458L75.302,317.458L75.302,326.484L81.962,326.484L81.962,324.808L77.329,324.808L77.329,319.134ZM77.178,322.847L81.421,322.847L81.421,321.223L77.178,321.223L77.178,322.847Z" style="fill:rgb(27,31,69);fill-rule:nonzero;"/>
                </g>
                <g transform="matrix(1,0,0,-1,874.241,341.445)">
                    <rect x="0" y="0" width="2.04" height="9.026" style="fill:rgb(27,31,69);"/>
                </g>
                <g transform="matrix(1,0,0,-1,778.429,658.901)">
                    <path d="M99.941,317.457L99.941,326.483L101.629,326.483L106.828,319.984L106.01,319.984L106.01,326.483L108.024,326.483L108.024,317.457L106.35,317.457L101.138,323.956L101.956,323.956L101.956,317.457L99.941,317.457Z" style="fill:rgb(27,31,69);fill-rule:nonzero;"/>
                </g>
                <g transform="matrix(1,0,0,-1,755.405,331.71)">
                    <path d="M262.175,58.293C262.283,61.179 262.174,64.069 261.85,66.885C261.769,67.602 261.151,68.123 260.437,68.068C260.33,68.06 260.225,68.038 260.124,68.004L248.001,63.876C247.646,63.754 247.359,63.485 247.21,63.134C245.795,59.793 243.744,56.853 241.113,54.395C240.728,54.035 240.327,53.689 239.919,53.352L221.175,74.388C222.365,74.508 223.543,74.736 224.682,75.07L226.165,75.533L227.587,76.147C229.456,76.951 231.144,78.146 232.736,79.411C230.041,78.237 227.242,77.221 224.324,76.893C222.418,76.638 220.49,76.668 218.593,76.937C218.563,76.945 218.533,76.946 218.503,76.95C218.475,76.955 218.449,76.964 218.42,76.968C218.34,76.975 218.265,76.987 218.187,76.996C215.639,77.405 213.154,78.248 210.861,79.435C210.348,79.791 209.665,79.731 209.218,79.293C209.102,79.181 208.985,79.068 208.866,78.957C205.776,76.068 201.965,74.25 197.836,73.69C197.783,73.69 197.729,73.687 197.674,73.68C194.825,73.318 192.006,73.557 189.291,74.387C188.391,74.663 187.761,75.394 187.605,76.343C187.45,77.29 187.811,78.188 188.571,78.749L209.202,93.953C209.297,94.025 209.393,94.095 209.49,94.164L210.019,94.554C210.05,94.573 210.085,94.596 210.106,94.61C210.814,95.104 215.809,97.214 241.312,105.787C241.722,105.924 242.039,106.259 242.162,106.682C242.285,107.105 242.197,107.562 241.928,107.907C239.077,111.551 236.056,115.205 233.135,118.738C221.517,132.791 209.504,147.322 205.878,164.194C205.746,164.811 205.212,165.251 204.595,165.251C203.978,165.251 203.444,164.811 203.312,164.194C199.686,147.322 187.673,132.792 176.055,118.739C173.065,115.122 169.973,111.382 167.061,107.649C167.038,107.62 167.023,107.588 167.003,107.558C166.98,107.523 166.957,107.49 166.937,107.453C166.909,107.402 166.889,107.349 166.869,107.295C166.86,107.273 166.848,107.252 166.84,107.229C166.838,107.223 166.837,107.216 166.835,107.209C166.818,107.152 166.808,107.094 166.798,107.035C166.793,107.005 166.785,106.974 166.782,106.945C166.777,106.893 166.779,106.841 166.78,106.789C166.78,106.753 166.778,106.717 166.781,106.681C166.786,106.634 166.797,106.588 166.806,106.541C166.813,106.503 166.819,106.464 166.829,106.427C166.842,106.383 166.861,106.34 166.879,106.297C166.894,106.26 166.906,106.223 166.924,106.188C166.943,106.15 166.968,106.115 166.991,106.079C167.015,106.041 167.038,106.003 167.065,105.967C167.087,105.939 167.114,105.914 167.138,105.888C167.174,105.849 167.21,105.81 167.25,105.775C167.257,105.77 167.261,105.763 167.267,105.758C167.29,105.74 167.315,105.728 167.338,105.711C167.379,105.682 167.42,105.652 167.465,105.627C167.506,105.605 167.548,105.588 167.59,105.57C167.62,105.558 167.647,105.541 167.677,105.53C192.569,97.14 197.32,95.271 197.935,94.905C199.346,94.031 200.669,93.015 201.886,91.876L187.036,80.934C185.468,79.778 184.693,77.848 185.013,75.897C185.334,73.943 186.685,72.377 188.538,71.808C190.679,71.153 192.876,70.824 195.1,70.824C196.005,70.824 196.915,70.879 197.828,70.988C197.889,70.988 197.942,70.991 198,70.999C202.57,71.58 206.8,73.526 210.269,76.633C211.84,75.684 213.539,75.087 215.326,74.694C215.984,74.554 216.652,74.458 217.323,74.391C217.433,74.376 217.543,74.362 217.654,74.348L239.576,49.745C240.415,48.804 240.845,47.585 240.789,46.312C240.731,45.039 240.194,43.864 239.275,43.006C237.377,41.231 234.425,41.37 232.693,43.313L231.513,44.638L231.512,44.639L218.307,57.463L229.571,42.825L229.575,42.82C230.411,41.879 230.84,40.661 230.784,39.391C230.727,38.117 230.189,36.943 229.27,36.084C228.351,35.225 227.175,34.784 225.916,34.842C224.674,34.9 223.528,35.451 222.689,36.391L222.687,36.393L221.507,37.718C221.35,37.894 221.155,38.012 220.948,38.083L209.483,49.217L219.263,36.507C219.312,36.29 219.409,36.08 219.566,35.904L219.569,35.899C221.298,33.956 221.161,30.935 219.265,29.163C218.346,28.304 217.145,27.864 215.913,27.921C214.669,27.979 213.523,28.53 212.683,29.471L211.503,30.796L211.503,30.797C211.456,30.848 211.405,30.891 211.353,30.934L205.913,37.039C205.828,37.146 205.748,37.256 205.656,37.359C205.56,37.466 205.457,37.564 205.356,37.665L205.326,37.697C205.317,37.708 205.306,37.715 205.296,37.725C204.025,38.97 202.381,39.701 200.606,39.784C199.771,39.822 198.954,39.708 198.175,39.468C198.185,39.584 198.201,39.698 198.207,39.816C198.296,41.806 197.622,43.714 196.309,45.187C194.361,47.373 191.425,48.09 188.824,47.291C189.008,49.311 188.401,51.4 186.963,53.014C185.651,54.486 183.859,55.347 181.914,55.438C181.08,55.476 180.262,55.362 179.483,55.122C179.493,55.238 179.509,55.353 179.515,55.47C179.604,57.461 178.93,59.368 177.618,60.842C174.909,63.88 170.291,64.096 167.324,61.323L164.263,58.462C163.274,59.947 162.429,61.527 161.766,63.185C161.621,63.548 161.328,63.828 160.965,63.952L149.062,68.004C149.011,68.021 148.956,68.03 148.902,68.041C148.343,68.157 147.78,67.893 147.503,67.394C147.439,67.28 147.398,67.152 147.369,67.019C147.359,66.974 147.345,66.93 147.34,66.885C147.015,64.071 146.906,61.18 147.015,58.293C146.986,57.518 146.971,56.833 146.971,56.201C146.971,25.212 172.821,0 204.595,0C236.369,0 262.219,25.212 262.219,56.201C262.219,56.833 262.205,57.498 262.175,58.293M238.685,107.735C238.514,107.677 238.348,107.622 238.179,107.565C238.106,107.924 238.03,108.284 237.957,108.644C238.2,108.341 238.445,108.038 238.685,107.735M237.554,109.146C237.667,108.587 237.781,108.028 237.893,107.468C237.482,107.329 237.078,107.193 236.679,107.058C236.567,107.641 236.457,108.225 236.342,108.809C236.328,108.865 236.316,108.918 236.303,108.973C236.151,109.738 235.997,110.502 235.842,111.265C236.416,110.56 236.986,109.854 237.554,109.146M235.412,111.793C235.636,110.712 235.846,109.632 236.058,108.551C236.07,108.498 236.07,108.445 236.083,108.393C236.177,107.912 236.266,107.43 236.357,106.949C235.914,106.8 235.477,106.652 235.049,106.506C235.037,106.574 235.025,106.641 235.013,106.708C235,106.761 235,106.814 234.987,106.867C234.561,109.251 234.143,111.634 233.589,114.018C234.197,113.279 234.805,112.538 235.412,111.793M231.128,117.001C231.78,116.212 232.438,115.417 233.097,114.617C233.763,111.895 234.226,109.173 234.703,106.451C234.708,106.431 234.709,106.412 234.713,106.393C234.235,106.231 233.768,106.072 233.309,105.916C232.711,109.708 232.098,113.501 230.886,117.293C230.967,117.196 231.047,117.098 231.128,117.001M230.243,118.072C231.661,113.979 232.322,109.887 232.948,105.793C232.437,105.619 231.936,105.449 231.447,105.282C230.671,110.949 229.738,116.617 226.781,122.284C227.931,120.873 229.088,119.47 230.243,118.072M204.595,158.73C204.681,158.453 204.774,158.177 204.864,157.9C204.702,157.952 204.54,158.004 204.377,158.056C204.449,158.281 204.525,158.505 204.595,158.73M204.304,157.834C204.522,157.764 204.738,157.694 204.953,157.625C205.077,157.25 205.206,156.877 205.338,156.504C204.9,156.651 204.456,156.797 204.006,156.944C204.108,157.24 204.207,157.537 204.304,157.834M203.929,156.726C204.439,156.559 204.941,156.392 205.436,156.225C205.573,155.843 205.715,155.462 205.859,155.082C205.129,155.336 204.382,155.59 203.62,155.845C203.726,156.137 203.827,156.432 203.929,156.726M203.537,155.628C204.367,155.35 205.177,155.072 205.968,154.795C206.119,154.403 206.274,154.014 206.433,153.625C205.393,154.003 204.317,154.382 203.209,154.76C203.32,155.049 203.43,155.338 203.537,155.628M203.126,154.543C204.307,154.139 205.45,153.733 206.553,153.329C206.722,152.921 206.895,152.514 207.072,152.108C205.703,152.63 204.269,153.152 202.777,153.673C202.894,153.963 203.013,154.252 203.126,154.543M202.686,153.451C204.262,152.898 205.771,152.345 207.208,151.792C207.397,151.364 207.591,150.938 207.788,150.513C206.069,151.202 204.246,151.891 202.321,152.579C202.445,152.869 202.567,153.16 202.686,153.451M202.226,152.359C204.244,151.633 206.149,150.908 207.941,150.183C208.155,149.728 208.374,149.275 208.597,148.824C206.506,149.708 204.255,150.593 201.842,151.477C201.973,151.77 202.099,152.065 202.226,152.359M201.741,151.255C204.263,150.326 206.606,149.398 208.777,148.469C209.019,147.984 209.268,147.501 209.521,147.02C207.037,148.137 204.312,149.253 201.336,150.37C201.474,150.664 201.607,150.96 201.741,151.255M201.232,150.148C204.332,148.978 207.158,147.808 209.723,146.638C210.008,146.104 210.298,145.57 210.595,145.04C207.696,146.443 204.442,147.845 200.799,149.248C200.945,149.548 201.09,149.847 201.232,150.148M200.69,149.022C204.482,147.555 207.849,146.087 210.832,144.619C211.173,144.017 211.523,143.418 211.879,142.82C208.545,144.581 204.685,146.342 200.229,148.103C200.384,148.409 200.539,148.715 200.69,149.022M200.11,147.868C204.751,146.025 208.743,144.181 212.166,142.338C212.59,141.636 213.024,140.939 213.465,140.244C209.679,142.473 205.12,144.704 199.623,146.933C199.787,147.244 199.95,147.555 200.11,147.868M199.497,146.695C205.241,144.353 209.955,142.012 213.83,139.67C214.401,138.784 214.986,137.902 215.582,137.026C211.35,139.927 205.937,142.828 198.976,145.729C199.152,146.05 199.325,146.372 199.497,146.695M198.839,145.481C206.187,142.402 211.801,139.322 216.121,136.243C217.085,134.849 218.077,133.468 219.092,132.097C214.505,136.226 207.921,140.356 198.281,144.486C198.47,144.816 198.655,145.148 198.839,145.481M198.136,144.233C208.91,139.59 215.843,134.947 220.437,130.305C222.029,128.207 223.667,126.133 225.326,124.076C229.174,117.767 230.226,111.459 231.061,105.15C230.511,104.962 229.971,104.778 229.447,104.598C228.725,110.9 227.687,117.203 223.817,123.504C223.792,123.557 223.752,123.61 223.727,123.663C219.672,130.175 212.292,136.685 197.535,143.197C197.738,143.541 197.938,143.887 198.136,144.233M197.379,142.936C212.167,136.371 219.51,129.804 223.507,123.24C223.533,123.187 223.572,123.134 223.598,123.082C227.327,116.874 228.349,110.664 229.031,104.455C228.443,104.254 227.872,104.057 227.318,103.866C226.771,109.712 225.855,115.559 222.63,121.404C222.592,121.457 222.566,121.51 222.54,121.562C218.738,128.33 211.596,135.094 196.733,141.861C196.951,142.218 197.166,142.576 197.379,142.936M196.565,141.588C211.434,134.772 218.521,127.955 222.269,121.14C222.295,121.087 222.334,121.034 222.36,120.982C225.467,115.226 226.358,109.469 226.873,103.713C226.24,103.495 225.629,103.283 225.04,103.079C224.652,108.485 223.872,113.89 221.199,119.297C221.173,119.353 221.148,119.406 221.122,119.462C217.601,126.465 210.742,133.465 195.866,140.467C196.102,140.84 196.334,141.213 196.565,141.588M195.688,140.186C210.552,133.138 217.351,126.088 220.812,119.039C220.838,118.987 220.863,118.934 220.889,118.881C223.449,113.559 224.199,108.235 224.559,102.912C223.881,102.676 223.23,102.449 222.609,102.232C222.364,107.22 221.733,112.208 219.561,117.197C219.535,117.253 219.509,117.306 219.496,117.362C216.281,124.582 209.724,131.799 194.936,139.019C195.189,139.407 195.44,139.796 195.688,140.186M194.74,138.72C209.509,131.461 215.988,124.198 219.135,116.939C219.161,116.886 219.174,116.833 219.2,116.781C221.286,111.873 221.887,106.964 222.106,102.056C221.37,101.797 220.674,101.552 220.018,101.319C219.9,105.911 219.421,110.503 217.678,115.096C217.664,115.15 217.652,115.202 217.626,115.255C214.761,122.671 208.545,130.09 193.931,137.506C194.203,137.91 194.473,138.314 194.74,138.72M193.717,137.189C208.283,129.738 214.423,122.29 217.226,114.839C217.239,114.786 217.265,114.733 217.291,114.68C218.952,110.165 219.399,105.648 219.489,101.131C218.693,100.848 217.955,100.583 217.274,100.338C217.272,104.557 216.935,108.776 215.575,112.996C215.562,113.049 215.537,113.102 215.524,113.155C213.016,120.74 207.177,128.328 192.84,135.912C193.135,136.337 193.428,136.762 193.717,137.189M192.611,135.583C206.885,127.967 212.644,120.354 215.072,112.738C215.098,112.683 215.111,112.63 215.124,112.573C216.412,108.425 216.719,104.277 216.698,100.129C215.82,99.81 215.041,99.523 214.35,99.266C214.453,103.142 214.261,107.019 213.228,110.896C213.215,110.948 213.189,111.001 213.177,111.054C211.086,118.699 205.747,126.348 192.1,133.993C192.011,134.046 191.907,134.099 191.817,134.151C191.766,134.181 191.712,134.211 191.66,134.24C191.98,134.687 192.297,135.134 192.611,135.583M191.411,133.895C191.507,133.84 191.606,133.784 191.701,133.729C191.791,133.676 191.894,133.623 191.985,133.57C205.438,125.925 210.661,118.283 212.673,110.638C212.686,110.582 212.712,110.529 212.725,110.473C213.702,106.661 213.869,102.85 213.746,99.039C212.721,98.653 211.91,98.337 211.265,98.077C211.459,101.65 211.388,105.223 210.622,108.795C210.61,108.848 210.596,108.901 210.584,108.954C208.907,116.599 204.122,124.247 191.365,131.892C191.275,131.945 191.185,131.999 191.108,132.051C190.873,132.196 190.628,132.341 190.385,132.487C190.73,132.955 191.072,133.424 191.411,133.895M190.117,132.123C190.39,131.958 190.663,131.793 190.927,131.628C191.004,131.576 191.094,131.523 191.185,131.47C203.773,123.825 208.443,116.176 210.042,108.531C210.042,108.478 210.055,108.426 210.067,108.373C210.781,104.851 210.826,101.332 210.617,97.811C209.217,97.226 208.861,96.997 208.655,96.854C208.611,96.827 208.554,96.79 208.523,96.767L207.97,96.361C207.962,96.355 207.954,96.349 207.946,96.343C208.253,99.794 208.325,103.245 207.772,106.695C207.772,106.748 207.759,106.801 207.746,106.854C206.482,114.499 202.225,122.147 190.308,129.792C190.217,129.845 190.14,129.898 190.063,129.951C189.72,130.177 189.362,130.404 189.001,130.63C189.376,131.127 189.747,131.624 190.117,132.123M188.705,130.241C189.08,130.003 189.45,129.766 189.805,129.528C189.882,129.475 189.972,129.422 190.05,129.37C201.826,121.724 205.967,114.076 207.152,106.431C207.166,106.378 207.166,106.325 207.178,106.272C207.701,102.791 207.591,99.309 207.248,95.828L204.321,93.671C204.809,97.312 205.082,100.954 204.689,104.595C204.689,104.647 204.676,104.7 204.676,104.753C203.812,112.398 200.059,120.04 188.928,127.685C188.838,127.742 188.76,127.794 188.683,127.85C188.3,128.121 187.899,128.391 187.493,128.661C187.899,129.186 188.304,129.712 188.705,130.241M170.306,107.477C170.951,108.29 171.601,109.104 172.256,109.916C173.183,108.623 173.946,107.33 174.564,106.037C173.219,106.492 171.804,106.971 170.306,107.477M175.722,105.643C174.992,107.292 174.031,108.941 172.803,110.589C173.504,111.455 174.207,112.318 174.912,113.178C177.475,110.175 179.105,107.172 180.047,104.17C178.704,104.629 177.264,105.12 175.722,105.643M181.067,103.822C180.119,107.147 178.346,110.472 175.421,113.797C176.072,114.59 176.721,115.378 177.369,116.162C181.839,111.61 184.054,107.059 184.892,102.507C183.718,102.912 182.445,103.35 181.067,103.822M185.801,102.193C185.015,107.037 182.709,111.881 177.832,116.723C177.908,116.815 177.985,116.909 178.061,117C178.589,117.639 179.118,118.279 179.647,118.919C179.666,118.9 179.687,118.881 179.706,118.861C186.252,112.901 188.779,106.943 189.278,100.984C188.234,101.349 187.08,101.751 185.801,102.193M190.1,100.695C189.688,106.891 187.161,113.089 180.273,119.284C180.209,119.337 180.144,119.39 180.093,119.443L180.084,119.45C180.642,120.127 181.2,120.806 181.757,121.486C181.898,121.366 182.045,121.247 182.182,121.127C182.247,121.07 182.311,121.018 182.375,120.962C190.754,113.826 193.255,106.695 193.3,99.56C192.387,99.888 191.327,100.264 190.1,100.695M197.08,99.971C197.08,99.376 197.06,98.782 197.029,98.187C196.311,98.463 195.353,98.819 194.064,99.285C194.115,106.652 191.641,114.017 182.879,121.384C182.814,121.437 182.749,121.49 182.685,121.543C182.516,121.688 182.336,121.834 182.16,121.98C182.68,122.615 183.197,123.251 183.712,123.89C183.998,123.669 184.285,123.448 184.555,123.227C184.619,123.174 184.684,123.121 184.749,123.068C194.371,115.423 197.04,107.775 197.08,100.13L197.08,99.971ZM200.494,96.417C200.101,96.691 199.701,96.956 199.294,97.208C199.141,97.303 198.907,97.447 197.743,97.909C197.795,98.735 197.821,99.561 197.815,100.387L197.815,100.553C197.712,108.198 194.938,115.84 185.2,123.485C185.123,123.541 185.058,123.593 184.981,123.65C184.693,123.882 184.387,124.115 184.082,124.347C184.562,124.943 185.039,125.541 185.515,126.139C185.892,125.868 186.265,125.598 186.619,125.327C186.683,125.275 186.761,125.222 186.838,125.169C197.118,117.523 200.265,109.875 200.665,102.23C200.665,102.177 200.678,102.125 200.678,102.072C200.77,100.187 200.683,98.302 200.494,96.417M201.15,95.934C201.386,98.119 201.49,100.303 201.362,102.488L201.362,102.653C200.884,110.298 197.634,117.94 187.212,125.585C187.135,125.641 187.07,125.694 186.993,125.75C186.629,126.024 186.247,126.299 185.859,126.573C186.3,127.132 186.74,127.691 187.177,128.253C187.586,127.978 187.989,127.703 188.373,127.428C188.45,127.375 188.528,127.322 188.605,127.269C199.607,119.624 203.244,111.976 204.031,104.331C204.031,104.278 204.044,104.225 204.044,104.172C204.381,100.727 204.122,97.283 203.656,93.839C202.859,94.586 202.023,95.286 201.15,95.934M259.591,56.201C259.591,55.612 259.577,55.025 259.558,54.44C253.774,51.6 248.359,49.182 243.379,47.256C243.297,48.121 243.07,48.956 242.707,49.732C247.872,51.618 253.521,54.054 259.584,56.96C259.588,56.699 259.591,56.445 259.591,56.201M243.413,46.606C248.378,48.546 253.774,50.976 259.534,53.82C259.496,52.995 259.439,52.176 259.364,51.361C253.484,48.397 247.974,45.852 242.924,43.83C243.205,44.575 243.377,45.367 243.414,46.188C243.42,46.328 243.414,46.467 243.413,46.606M242.396,50.325C242.187,50.683 241.953,51.027 241.685,51.35C242.095,51.692 242.496,52.044 242.885,52.407C243.403,52.891 243.894,53.398 244.371,53.915C249.068,55.602 254.154,57.732 259.584,60.252C259.582,59.617 259.571,58.982 259.547,58.346C259.545,58.31 259.545,58.275 259.547,58.239C259.555,58.016 259.562,57.806 259.569,57.602C253.388,54.658 247.639,52.204 242.396,50.325M245.311,54.988C246.354,56.242 247.292,57.579 248.105,59.001C251.696,60.332 255.495,61.901 259.487,63.687C259.542,62.772 259.572,61.852 259.579,60.929C254.509,58.592 249.742,56.599 245.311,54.988M259.403,64.922C259.419,64.744 259.427,64.564 259.44,64.385C255.653,62.702 252.041,61.219 248.617,59.95C248.884,60.461 249.142,60.979 249.379,61.509L259.403,64.922ZM241.046,41.017C241.681,41.611 242.191,42.304 242.58,43.06C247.71,45.117 253.315,47.713 259.308,50.751C259.223,49.939 259.117,49.132 258.995,48.331C249.175,43.262 240.392,39.369 233.077,37.144C233.054,37.138 233.027,37.127 233.003,37.121C233.237,37.803 233.376,38.524 233.409,39.268C233.414,39.381 233.416,39.494 233.417,39.606C235.932,38.576 238.915,39.025 241.046,41.017M248.213,25.831C223.187,12.374 207.843,9.926 196.479,11.994C196.406,12.014 196.322,12.022 196.249,12.043C184.941,14.175 177.233,20.403 169.256,26.32C169.194,26.354 169.144,26.4 169.094,26.446C169.105,26.181 169.112,25.917 169.133,25.663C169.183,25.616 169.234,25.57 169.296,25.537C177.318,19.671 185.06,13.482 196.459,11.453C196.531,11.432 196.616,11.425 196.689,11.404C208.144,9.439 223.617,12.047 248.881,25.775C249.059,25.867 249.245,25.975 249.423,26.068C249.738,26.238 250.062,26.418 250.381,26.593C249.736,25.65 249.06,24.73 248.356,23.832C224.063,10.557 208.853,7.61 197.583,9.132C197.498,9.14 197.414,9.148 197.341,9.168C197.419,8.979 197.495,8.793 197.585,8.617C197.669,8.609 197.742,8.589 197.827,8.581C208.974,7.17 224.007,10.171 247.795,23.124C246.943,22.073 246.05,21.054 245.121,20.068C223.571,8.568 209.445,5.508 198.856,6.464C198.771,6.471 198.688,6.479 198.603,6.487C186.446,7.653 178.325,13.4 170.02,18.943C169.955,18.98 169.905,19.026 169.84,19.062C169.884,18.835 169.914,18.597 169.959,18.37C170.02,18.336 170.082,18.302 170.132,18.256C178.472,12.752 186.633,7.038 198.881,5.974C198.836,6.062 198.789,6.146 198.742,6.23C198.789,6.146 198.836,6.062 198.881,5.974C198.965,5.966 199.05,5.959 199.145,5.964C209.555,5.106 223.401,8.15 244.328,19.242C243.08,17.972 241.768,16.763 240.399,15.618C222.367,6.436 209.871,3.542 200.317,3.995C200.218,3.992 200.134,4.001 200.046,4.011C187.436,4.663 179.123,10.19 170.67,15.567C170.608,15.6 170.547,15.634 170.496,15.68C170.517,15.568 170.545,15.463 170.57,15.355C170.545,15.463 170.517,15.568 170.496,15.68C168.607,16.882 166.733,18.102 164.822,19.282C163.244,20.89 161.769,22.595 160.405,24.384C163.721,22.53 166.824,20.431 169.959,18.37C169.914,18.597 169.884,18.835 169.84,19.062C166.483,21.295 163.159,23.564 159.562,25.522C158.579,26.883 157.66,28.29 156.808,29.74C161.371,27.526 165.398,24.703 169.456,21.914C169.506,21.867 169.567,21.833 169.617,21.787C177.81,16.115 185.779,10.183 197.585,8.617C197.495,8.793 197.419,8.979 197.341,9.168C185.614,10.824 177.697,16.803 169.539,22.513C169.486,22.562 169.424,22.596 169.371,22.645C165.171,25.563 161.002,28.513 156.219,30.766C155.493,32.069 154.824,33.405 154.209,34.769C159.799,32.432 164.462,29.042 169.133,25.663C169.112,25.917 169.105,26.181 169.094,26.446C164.323,29.935 159.554,33.424 153.773,35.762C153.225,37.045 152.728,38.354 152.284,39.685C158.761,37.361 163.896,33.51 168.993,29.619C168.994,29.689 168.993,29.757 168.993,29.826C168.993,29.757 168.994,29.689 168.993,29.619C169.055,29.585 169.105,29.539 169.155,29.493C177.007,23.434 184.523,16.987 195.502,14.482C195.587,14.475 195.66,14.454 195.732,14.433C206.779,12.005 221.562,13.828 245.647,26.216C245.814,26.296 245.978,26.378 246.156,26.471C248.17,27.498 250.263,28.615 252.417,29.801C251.911,28.936 251.381,28.086 250.827,27.252C250.124,26.866 249.424,26.483 248.738,26.117C248.563,26.022 248.388,25.926 248.213,25.831M218.127,4.332C213.796,3.262 209.263,2.691 204.595,2.691C189.822,2.691 176.392,8.39 166.502,17.644C167.885,16.777 169.261,15.901 170.643,15.031C170.705,14.998 170.755,14.951 170.816,14.918C179.292,9.567 187.646,4.073 200.347,3.524C200.443,3.53 200.538,3.534 200.622,3.527C209.89,3.165 221.946,5.97 239.098,14.566C236.147,12.246 232.946,10.214 229.539,8.52C225.408,6.752 221.618,5.372 218.127,4.332M245.549,26.61C245.375,26.515 245.211,26.433 245.048,26.35C221.188,14.219 206.535,12.556 195.568,15.074C195.495,15.095 195.411,15.103 195.338,15.123C184.438,17.719 176.968,24.218 169.15,30.315C169.099,30.361 169.049,30.408 168.999,30.454C163.83,34.443 158.61,38.37 151.963,40.676C151.555,41.983 151.197,43.312 150.892,44.659C158.165,42.425 163.661,38.172 169.068,33.82C169.068,34.099 169.084,34.388 169.096,34.68C163.649,39.128 158.095,43.45 150.674,45.654C150.4,46.983 150.178,48.328 150.007,49.69C153.57,48.748 156.696,47.311 159.564,45.579C159.776,45.249 160.008,44.929 160.273,44.631C161.351,43.421 162.756,42.633 164.301,42.336C165.629,41.326 166.922,40.275 168.196,39.203C168.511,38.341 168.977,37.524 169.619,36.803C170.706,35.583 172.102,34.82 173.574,34.521C174.929,33.334 176.289,32.155 177.679,31.008C177.995,30.274 178.421,29.586 178.965,28.977C180.165,27.63 181.769,26.802 183.522,26.599C184.508,25.936 185.521,25.303 186.564,24.704C186.812,23.419 187.388,22.186 188.311,21.149C188.481,20.959 188.658,20.78 188.843,20.611C181.298,24.104 175.408,29.479 169.259,34.554C169.208,34.6 169.146,34.634 169.096,34.68C169.084,34.388 169.068,34.099 169.068,33.82L169.219,33.681C176.889,27.416 184.161,20.704 194.755,17.761C194.831,17.738 194.904,17.717 194.98,17.693C205.631,14.815 219.766,15.904 242.754,27.044C242.906,27.114 243.059,27.183 243.222,27.265C246.626,28.892 250.263,30.782 254.091,32.89C253.675,32.057 253.236,31.236 252.777,30.427C250.277,29.051 247.864,27.775 245.549,26.61M149.599,56.201C149.599,56.812 149.614,57.479 149.643,58.239C149.644,58.275 149.644,58.31 149.643,58.346C149.619,58.955 149.609,59.565 149.606,60.173C154.021,59.283 157.741,57.603 161.067,55.476L160.744,55.174C159.885,54.371 159.245,53.39 158.845,52.307C156.083,53.869 153.054,55.128 149.603,55.905C149.602,56.004 149.599,56.103 149.599,56.201M167.852,40.481C167.162,41.064 166.463,41.636 165.758,42.202C166.443,42.211 167.115,42.318 167.757,42.516C167.697,41.838 167.733,41.153 167.852,40.481M177.267,32.245C176.433,32.95 175.606,33.664 174.787,34.386C174.859,34.383 174.932,34.375 175.005,34.375C175.711,34.375 176.417,34.484 177.1,34.693C177.09,34.578 177.073,34.464 177.068,34.348C177.036,33.63 177.107,32.924 177.267,32.245M186.451,25.544C185.897,25.872 185.356,26.215 184.818,26.561C185.376,26.598 185.922,26.699 186.45,26.861C186.41,26.424 186.416,25.983 186.451,25.544M158.565,51.375C158.463,50.928 158.397,50.47 158.376,50.002C158.33,48.976 158.491,47.973 158.833,47.039C156.138,48.593 153.2,49.872 149.886,50.722C149.743,52.083 149.652,53.458 149.617,54.847C152.943,54.08 155.88,52.87 158.565,51.375M242.679,27.463C242.527,27.394 242.363,27.312 242.211,27.242C219.439,16.347 205.421,15.406 194.85,18.374C194.777,18.394 194.704,18.415 194.631,18.436C194.328,18.523 194.039,18.625 193.741,18.718C195.301,18.727 196.791,19.24 198.035,20.188C199.342,19.905 200.704,19.685 202.128,19.534C203.333,18.725 204.725,18.308 206.124,18.308C207.453,18.308 208.785,18.679 209.959,19.425C217.944,19.989 227.699,22.563 240.167,28.22C240.318,28.289 240.471,28.358 240.623,28.428C245.154,30.441 250.136,32.965 255.471,35.89C255.128,35.078 254.764,34.277 254.382,33.485C250.242,31.207 246.325,29.181 242.679,27.463M198.668,20.726L199.802,21.786L200.739,20.735C200.878,20.579 201.027,20.435 201.178,20.293C200.318,20.411 199.483,20.558 198.668,20.726M240.148,28.703C239.996,28.634 239.855,28.577 239.703,28.508C227.897,23.22 218.548,20.724 210.835,20.087C210.9,20.144 210.968,20.195 211.032,20.254C211.771,20.945 212.349,21.767 212.752,22.672C219.663,23.362 227.865,25.519 237.896,29.755C238.048,29.825 238.189,29.881 238.341,29.951C243.781,32.175 249.939,35.215 256.622,38.853C256.34,38.054 256.04,37.264 255.721,36.483C250.105,33.407 244.877,30.772 240.148,28.703M237.923,30.291C237.778,30.237 237.638,30.18 237.482,30.113C227.755,26.066 219.761,23.987 213.003,23.312C213.231,23.985 213.367,24.694 213.4,25.425C213.405,25.537 213.407,25.648 213.407,25.759C214.158,25.451 214.961,25.271 215.792,25.232C217.65,25.149 219.427,25.778 220.836,27.005C225.348,27.959 230.348,29.467 235.943,31.651C236.095,31.721 236.225,31.765 236.366,31.822C242.541,34.135 249.705,37.571 257.565,41.797C257.336,41.003 257.088,40.216 256.823,39.437C249.891,35.671 243.521,32.542 237.923,30.291M236.015,32.238C235.871,32.185 235.729,32.128 235.586,32.074C230.45,30.101 225.822,28.704 221.613,27.783C222.318,28.607 222.825,29.57 223.118,30.611C226.553,31.375 230.261,32.449 234.296,33.896C234.425,33.939 234.566,33.996 234.695,34.039C241.474,36.365 249.466,40.069 258.319,44.752C258.141,43.958 257.944,43.17 257.73,42.39C249.664,38.066 242.324,34.566 236.015,32.238M234.395,34.527C234.266,34.483 234.125,34.426 233.995,34.382C232.297,33.786 230.661,33.258 229.075,32.788C229.785,33.11 230.45,33.544 231.041,34.096C231.75,34.758 232.312,35.541 232.712,36.402C232.79,36.427 232.864,36.449 232.943,36.474C233.073,36.518 233.202,36.561 233.32,36.592C240.559,38.843 249.226,42.715 258.9,47.73C258.768,46.931 258.62,46.136 258.453,45.348C249.419,40.588 241.277,36.842 234.395,34.527M223.412,32.68C224.162,32.372 224.965,32.192 225.797,32.153C226.224,32.134 226.646,32.159 227.062,32.213C225.762,31.86 224.502,31.555 223.275,31.284C223.339,31.633 223.388,31.986 223.404,32.347C223.409,32.458 223.411,32.569 223.412,32.68M207.485,31.283L209.819,28.664C210.486,27.773 210.824,26.683 210.774,25.549C210.717,24.276 210.18,23.101 209.261,22.242C207.363,20.468 204.412,20.608 202.679,22.55L201.744,23.6L205.185,26.816C206.486,28.032 207.256,29.623 207.485,31.283M197.134,35.853C197.999,36.662 199.104,37.1 200.268,37.1C200.34,37.1 200.413,37.099 200.486,37.095C201.588,37.043 202.613,36.603 203.416,35.849L203.971,35.226C205.424,33.283 205.211,30.484 203.414,28.804L196.834,22.656L196.833,22.656C195.915,21.796 194.731,21.35 193.481,21.413C192.238,21.471 191.091,22.022 190.253,22.963C188.522,24.906 188.656,27.929 190.552,29.702L191.117,30.23L197.134,35.853ZM186.501,42.478L187.787,43.68C188.679,44.514 189.804,44.925 190.926,44.925C192.19,44.925 193.45,44.402 194.369,43.373C195.207,42.43 195.638,41.211 195.582,39.938C195.524,38.665 194.987,37.491 194.068,36.632L192.636,35.294L188.781,31.692L188.775,31.685L187.488,30.482C185.59,28.708 182.639,28.847 180.906,30.79C180.068,31.732 179.637,32.952 179.693,34.225C179.751,35.498 180.288,36.672 181.207,37.531L181.93,38.206L186.494,42.471L186.501,42.478M178.442,51.508C179.307,52.317 180.412,52.755 181.576,52.755C181.648,52.755 181.722,52.753 181.794,52.75C183.037,52.692 184.184,52.141 185.023,51.2C186.753,49.257 186.619,46.235 184.724,44.461L182.176,42.08L178.142,38.31L178.141,38.31C176.244,36.536 173.292,36.675 171.56,38.617C169.829,40.561 169.964,43.584 171.86,45.358L172.425,45.886L178.442,51.508ZM169.095,59.335C169.987,60.168 171.112,60.58 172.233,60.58C173.498,60.58 174.759,60.056 175.677,59.027C177.408,57.084 177.273,54.06 175.376,52.286L171.218,48.401L170.09,47.346L170.089,47.345L168.796,46.137C167.878,45.279 166.694,44.835 165.442,44.895C164.199,44.953 163.054,45.504 162.214,46.445C161.376,47.387 160.945,48.606 161.002,49.88C161.059,51.152 161.596,52.327 162.516,53.186L169.095,59.335ZM159.571,61.59C160.311,59.849 161.233,58.19 162.303,56.631L161.797,56.158C158.294,58.488 154.354,60.322 149.615,61.247C149.634,62.478 149.691,63.704 149.792,64.919L159.571,61.59Z" style="fill:rgb(27,31,69);fill-rule:nonzero;"/>
                </g>
            </g>
        </g>
    </g>
</svg>
