<?xml version="1.0" encoding="UTF-8" standalone="no"?>
<!DOCTYPE svg PUBLIC "-//W3C//DTD SVG 1.1//EN" "http://www.w3.org/Graphics/SVG/1.1/DTD/svg11.dtd">
<svg width="100%" height="100%" viewBox="0 0 688 958" version="1.1" xmlns="http://www.w3.org/2000/svg" xmlns:xlink="http://www.w3.org/1999/xlink" xml:space="preserve" xmlns:serif="http://www.serif.com/" style="fill-rule:evenodd;clip-rule:evenodd;stroke-linejoin:round;stroke-miterlimit:2;">
    <g transform="matrix(1,0,0,1,-31.25,388.711)">
        <path d="M390.625,318.32C419.271,320.924 434.896,336.549 437.5,365.195C434.896,393.841 419.271,409.466 390.625,412.07C333.333,410.768 285.156,390.586 246.094,351.523C208.333,313.763 188.802,265.586 187.5,206.992C187.5,193.971 192.057,182.904 201.172,173.789C210.286,164.674 221.354,160.117 234.375,160.117C247.396,160.117 258.464,164.674 267.578,173.789C276.693,182.904 281.25,193.971 281.25,206.992C282.552,239.544 292.969,265.586 312.5,285.117C333.333,305.951 359.375,317.018 390.625,318.32ZM718.75,222.617C716.146,321.576 682.292,402.956 617.188,466.758C553.385,531.862 472.656,565.716 375,568.32C277.344,565.716 196.615,531.862 132.813,466.758C67.708,402.956 33.854,321.576 31.25,222.617C32.552,173.138 50.781,111.289 85.938,37.07C121.094,-35.846 161.458,-108.763 207.031,-181.68C252.604,-254.596 292.318,-315.143 326.172,-363.32C339.193,-380.247 355.469,-388.711 375,-388.711C394.531,-388.711 410.807,-380.247 423.828,-363.32C457.682,-315.143 497.396,-254.596 542.969,-181.68C588.542,-108.763 628.906,-35.846 664.063,37.07C699.219,111.289 717.448,173.138 718.75,222.617ZM599.609,124.961C580.078,78.086 555.339,27.305 525.391,-27.383C500.651,-71.654 475.26,-114.622 449.219,-156.289C421.875,-197.956 397.135,-235.065 375,-267.617C352.865,-235.065 328.125,-197.956 300.781,-156.289C274.74,-114.622 249.349,-71.654 224.609,-27.383C194.661,27.305 169.922,78.086 150.391,124.961C132.161,173.138 123.698,205.69 125,222.617C126.302,294.232 150.391,353.477 197.266,400.352C245.443,448.529 304.688,473.268 375,474.57C445.313,473.268 504.557,448.529 552.734,400.352C599.609,353.477 623.698,294.232 625,222.617C626.302,205.69 617.839,173.138 599.609,124.961Z" style="fill:white;fill-rule:nonzero;"/>
    </g>
</svg>
