<?xml version="1.0" encoding="UTF-8" standalone="no"?>
<!DOCTYPE svg PUBLIC "-//W3C//DTD SVG 1.1//EN" "http://www.w3.org/Graphics/SVG/1.1/DTD/svg11.dtd">
<svg width="100%" height="100%" viewBox="0 0 331 79" version="1.1" xmlns="http://www.w3.org/2000/svg" xmlns:xlink="http://www.w3.org/1999/xlink" xml:space="preserve" xmlns:serif="http://www.serif.com/" style="fill-rule:evenodd;clip-rule:evenodd;stroke-linejoin:round;stroke-miterlimit:2;">
    <g transform="matrix(1,0,0,1,-2302.22,-23.5002)">
        <g transform="matrix(1,0,0,1,2160,0)">
            <g transform="matrix(1,0,0,1,97.224,4.49973)">
                <g>
                    <g transform="matrix(1,0,0,-1,-32.2314,143.666)">
                        <path d="M176.684,92.659C179.384,90.407 180.734,87.285 180.734,83.288C180.734,79.327 179.384,76.222 176.684,73.973C173.983,71.722 170.257,70.596 165.504,70.596L154.703,70.596L154.703,58.229L151.948,58.229L151.948,96.034L165.504,96.034C170.257,96.034 173.983,94.908 176.684,92.659M174.739,75.728C176.863,77.491 177.926,80.011 177.926,83.288C177.926,86.564 176.863,89.095 174.739,90.877C172.615,92.659 169.536,93.549 165.504,93.549L154.703,93.549L154.703,73.081L165.504,73.081C169.536,73.081 172.615,73.963 174.739,75.728" style="fill:rgb(27,31,69);"/>
                    </g>
                    <g transform="matrix(1,0,0,-1,-67.3462,162.994)">
                        <path d="M247.929,91.005L223.68,91.005C223.752,88.808 224.31,86.854 225.354,85.145C226.398,83.434 227.812,82.111 229.594,81.174C231.376,80.238 233.383,79.771 235.616,79.771C237.452,79.771 239.154,80.103 240.72,80.77C242.286,81.436 243.59,82.417 244.635,83.713L246.201,81.931C244.977,80.455 243.438,79.32 241.584,78.529C239.729,77.736 237.723,77.34 235.562,77.34C232.754,77.34 230.25,77.952 228.055,79.177C225.859,80.4 224.139,82.093 222.897,84.253C221.655,86.414 221.034,88.879 221.034,91.652C221.034,94.388 221.619,96.845 222.789,99.024C223.959,101.202 225.571,102.904 227.623,104.128C229.675,105.352 231.979,105.964 234.536,105.964C237.092,105.964 239.387,105.361 241.422,104.155C243.456,102.949 245.058,101.266 246.229,99.105C247.398,96.945 247.984,94.496 247.984,91.76L247.929,91.005ZM229.189,102.265C227.604,101.382 226.335,100.14 225.382,98.538C224.427,96.936 223.878,95.126 223.734,93.111L245.337,93.111C245.229,95.126 244.689,96.927 243.717,98.511C242.745,100.095 241.467,101.337 239.883,102.238C238.297,103.137 236.515,103.588 234.536,103.588C232.556,103.588 230.773,103.147 229.189,102.265" style="fill:rgb(27,31,69);"/>
                    </g>
                    <g transform="matrix(1,0,0,-1,-103.855,162.777)">
                        <path d="M299.506,104.101C301.342,105.198 303.574,105.747 306.203,105.747L306.203,103.101L305.555,103.155C302.423,103.155 299.973,102.174 298.21,100.212C296.445,98.249 295.563,95.522 295.563,92.03L295.563,77.34L292.863,77.34L292.863,105.532L295.455,105.532L295.455,99.375C296.32,101.427 297.67,103.002 299.506,104.101" style="fill:rgb(27,31,69);"/>
                    </g>
                    <g transform="matrix(1,0,0,-1,-121.886,150.911)">
                        <path d="M346.971,67.256C346.286,66.608 345.432,66.113 344.406,65.771C343.379,65.429 342.308,65.258 341.192,65.258C338.743,65.258 336.853,65.933 335.522,67.283C334.189,68.633 333.523,70.514 333.523,72.927L333.523,91.343L328.338,91.343L328.338,93.666L333.523,93.666L333.523,99.822L336.224,99.822L336.224,93.666L345.189,93.666L345.189,91.343L336.224,91.343L336.224,73.197C336.224,71.361 336.664,69.965 337.547,69.011C338.429,68.057 339.734,67.58 341.462,67.58C343.226,67.58 344.684,68.102 345.837,69.147L346.971,67.256Z" style="fill:rgb(27,31,69);"/>
                    </g>
                    <g transform="matrix(1,0,0,-1,-144.663,162.994)">
                        <path d="M400.045,91.005L375.796,91.005C375.868,88.808 376.426,86.854 377.47,85.145C378.514,83.434 379.928,82.111 381.71,81.174C383.492,80.238 385.499,79.771 387.732,79.771C389.568,79.771 391.27,80.103 392.836,80.77C394.402,81.436 395.706,82.417 396.751,83.713L398.317,81.931C397.093,80.455 395.554,79.32 393.7,78.529C391.845,77.736 389.839,77.34 387.678,77.34C384.87,77.34 382.366,77.952 380.171,79.177C377.975,80.4 376.255,82.093 375.013,84.253C373.771,86.414 373.15,88.879 373.15,91.652C373.15,94.388 373.735,96.845 374.905,99.024C376.075,101.202 377.687,102.904 379.739,104.128C381.791,105.352 384.095,105.964 386.652,105.964C389.208,105.964 391.503,105.361 393.538,104.155C395.572,102.949 397.174,101.266 398.344,99.105C399.514,96.945 400.1,94.496 400.1,91.76L400.045,91.005ZM381.305,102.265C379.72,101.382 378.451,100.14 377.498,98.538C376.543,96.936 375.994,95.126 375.85,93.111L397.453,93.111C397.345,95.126 396.805,96.927 395.833,98.511C394.861,100.095 393.583,101.337 391.999,102.238C390.413,103.137 388.631,103.588 386.652,103.588C384.672,103.588 382.889,103.147 381.305,102.265" style="fill:rgb(27,31,69);"/>
                    </g>
                    <g transform="matrix(1,0,0,-1,-181.172,162.778)">
                        <path d="M467.122,102.67C469.174,100.617 470.201,97.664 470.201,93.812L470.201,77.34L467.5,77.34L467.5,93.596C467.5,96.764 466.698,99.177 465.096,100.834C463.494,102.489 461.253,103.317 458.373,103.317C455.06,103.317 452.449,102.327 450.541,100.347C448.633,98.367 447.679,95.702 447.679,92.354L447.679,77.34L444.979,77.34L444.979,105.532L447.571,105.532L447.571,99.429C448.544,101.409 449.992,102.957 451.919,104.074C453.844,105.189 456.122,105.748 458.751,105.748C462.279,105.748 465.069,104.722 467.122,102.67" style="fill:rgb(27,31,69);"/>
                    </g>
                    <g transform="matrix(1,0,0,-1,-215.615,162.993)">
                        <path d="M519.656,79.176C517.496,80.4 515.803,82.101 514.58,84.28C513.355,86.458 512.743,88.915 512.743,91.652C512.743,94.424 513.355,96.899 514.58,99.078C515.803,101.256 517.496,102.948 519.656,104.154C521.817,105.36 524.265,105.963 527.002,105.963C529.269,105.963 531.33,105.522 533.185,104.64C535.039,103.757 536.542,102.471 537.695,100.78L535.696,99.321C534.688,100.725 533.436,101.778 531.943,102.48C530.448,103.182 528.801,103.533 527.002,103.533C524.805,103.533 522.833,103.038 521.087,102.049C519.34,101.057 517.973,99.662 516.983,97.863C515.992,96.062 515.498,93.992 515.498,91.652C515.498,89.311 515.992,87.241 516.983,85.441C517.973,83.64 519.34,82.245 521.087,81.256C522.833,80.265 524.805,79.77 527.002,79.77C528.801,79.77 530.448,80.121 531.943,80.823C533.436,81.525 534.688,82.579 535.696,83.983L537.695,82.525C536.542,80.832 535.039,79.545 533.185,78.663C531.33,77.78 529.269,77.34 527.002,77.34C524.265,77.34 521.817,77.952 519.656,79.176" style="fill:rgb(27,31,69);"/>
                    </g>
                    <g transform="matrix(1,0,0,-1,-246.095,162.994)">
                        <path d="M599.607,91.005L575.358,91.005C575.43,88.808 575.988,86.854 577.032,85.145C578.076,83.434 579.49,82.111 581.272,81.174C583.054,80.238 585.061,79.771 587.294,79.771C589.13,79.771 590.832,80.103 592.398,80.77C593.964,81.436 595.268,82.417 596.313,83.713L597.879,81.931C596.655,80.455 595.116,79.32 593.262,78.529C591.407,77.736 589.401,77.34 587.24,77.34C584.432,77.34 581.928,77.952 579.733,79.177C577.537,80.4 575.817,82.093 574.575,84.253C573.333,86.414 572.712,88.879 572.712,91.652C572.712,94.388 573.297,96.845 574.467,99.024C575.637,101.202 577.249,102.904 579.301,104.128C581.353,105.352 583.657,105.964 586.214,105.964C588.77,105.964 591.065,105.361 593.1,104.155C595.134,102.949 596.736,101.266 597.906,99.105C599.076,96.945 599.662,94.496 599.662,91.76L599.607,91.005ZM580.867,102.265C579.282,101.382 578.013,100.14 577.06,98.538C576.105,96.936 575.556,95.126 575.412,93.111L597.016,93.111C596.907,95.126 596.367,96.927 595.395,98.511C594.423,100.095 593.145,101.337 591.561,102.238C589.975,103.137 588.193,103.588 586.214,103.588C584.234,103.588 582.451,103.147 580.867,102.265" style="fill:rgb(27,31,69);"/>
                    </g>
                    <g transform="matrix(1,0,0,-1,-282.604,162.777)">
                        <path d="M651.184,104.101C653.02,105.198 655.252,105.747 657.881,105.747L657.881,103.101L657.233,103.155C654.101,103.155 651.651,102.174 649.888,100.212C648.123,98.249 647.241,95.522 647.241,92.03L647.241,77.34L644.541,77.34L644.541,105.532L647.133,105.532L647.133,99.375C647.998,101.427 649.348,103.002 651.184,104.101" style="fill:rgb(27,31,69);"/>
                    </g>
                    <g transform="matrix(1,0,0,-1,-32.2314,65.386)">
                        <path d="M153.901,26.98L158.522,26.98L158.522,25.404L151.948,25.404L151.948,33.894L158.364,33.894L158.364,32.318L153.901,32.318L153.901,26.98ZM153.756,30.474L157.843,30.474L157.843,28.946L153.756,28.946L153.756,30.474Z" style="fill:rgb(27,31,69);"/>
                    </g>
                    <g transform="matrix(1,0,0,-1,127.854,39.9818)">
                        <rect x="0" y="0" width="1.965" height="8.49" style="fill:rgb(27,31,69);"/>
                    </g>
                    <g transform="matrix(1,0,0,-1,-44.7549,65.386)">
                        <path d="M176.588,25.404L176.588,33.894L178.213,33.894L183.222,27.781L182.434,27.781L182.434,33.894L184.374,33.894L184.374,25.404L182.761,25.404L177.74,31.517L178.528,31.517L178.528,25.404L176.588,25.404Z" style="fill:rgb(27,31,69);"/>
                    </g>
                    <g transform="matrix(1,0,0,-1,-54.1953,65.2365)">
                        <path d="M198.617,25.109C197.938,25.109 197.287,25.2 196.665,25.382C196.042,25.564 195.541,25.8 195.161,26.091L195.828,27.571C196.192,27.312 196.622,27.1 197.12,26.934C197.617,26.769 198.12,26.685 198.63,26.685C199.018,26.685 199.331,26.724 199.57,26.801C199.808,26.878 199.984,26.984 200.097,27.123C200.21,27.26 200.267,27.417 200.267,27.596C200.267,27.822 200.178,28.002 200.001,28.135C199.822,28.268 199.588,28.377 199.297,28.462C199.006,28.547 198.684,28.628 198.333,28.705C197.981,28.782 197.629,28.877 197.277,28.99C196.926,29.103 196.604,29.249 196.313,29.426C196.022,29.605 195.785,29.839 195.604,30.13C195.422,30.422 195.331,30.793 195.331,31.246C195.331,31.731 195.462,32.174 195.725,32.574C195.988,32.974 196.384,33.294 196.914,33.532C197.443,33.77 198.108,33.89 198.909,33.89C199.442,33.89 199.968,33.827 200.485,33.702C201.003,33.576 201.46,33.389 201.856,33.138L201.25,31.646C200.853,31.873 200.457,32.04 200.061,32.15C199.665,32.259 199.277,32.313 198.896,32.313C198.517,32.313 198.205,32.269 197.963,32.18C197.72,32.091 197.546,31.975 197.441,31.834C197.336,31.693 197.283,31.529 197.283,31.343C197.283,31.124 197.372,30.949 197.55,30.815C197.728,30.682 197.963,30.575 198.254,30.494C198.545,30.413 198.866,30.332 199.218,30.251C199.57,30.17 199.921,30.077 200.273,29.973C200.625,29.867 200.946,29.726 201.237,29.548C201.528,29.37 201.765,29.135 201.947,28.845C202.129,28.554 202.22,28.186 202.22,27.741C202.22,27.264 202.086,26.827 201.819,26.431C201.553,26.035 201.154,25.715 200.625,25.473C200.095,25.23 199.426,25.109 198.617,25.109" style="fill:rgb(27,31,69);"/>
                    </g>
                    <g transform="matrix(1,0,0,-1,-61.7676,65.386)">
                        <path d="M212.775,25.404L212.775,32.293L210.059,32.293L210.059,33.894L217.457,33.894L217.457,32.293L214.74,32.293L214.74,25.404L212.775,25.404Z" style="fill:rgb(27,31,69);"/>
                    </g>
                    <g transform="matrix(1,0,0,-1,-70.5054,65.386)">
                        <path d="M229.203,26.98L233.824,26.98L233.824,25.404L227.25,25.404L227.25,33.894L233.666,33.894L233.666,32.318L229.203,32.318L229.203,26.98ZM229.057,30.474L233.144,30.474L233.144,28.946L229.057,28.946L229.057,30.474Z" style="fill:rgb(27,31,69);"/>
                    </g>
                    <g transform="matrix(1,0,0,-1,164.882,39.9818)">
                        <rect x="0" y="0" width="1.965" height="8.49" style="fill:rgb(27,31,69);"/>
                    </g>
                    <g transform="matrix(1,0,0,-1,-83.0293,65.386)">
                        <path d="M251.889,25.404L251.889,33.894L253.515,33.894L258.524,27.781L257.736,27.781L257.736,33.894L259.676,33.894L259.676,25.404L258.063,25.404L253.042,31.517L253.83,31.517L253.83,25.404L251.889,25.404Z" style="fill:rgb(27,31,69);"/>
                    </g>
                    <g transform="matrix(1,0,0,-1,45,98.001)">
                        <path d="M56.405,27.869C56.458,29.248 56.405,30.63 56.246,31.976C56.206,32.319 55.903,32.568 55.554,32.542C55.502,32.538 55.45,32.527 55.401,32.511L49.465,30.537C49.291,30.48 49.151,30.351 49.078,30.183C48.385,28.586 47.381,27.18 46.093,26.005C45.904,25.833 45.708,25.668 45.508,25.506L36.331,35.563C36.914,35.62 37.49,35.729 38.048,35.889L38.774,36.11L39.47,36.404C40.385,36.788 41.211,37.36 41.991,37.964C40.672,37.403 39.302,36.917 37.873,36.76C36.939,36.638 35.996,36.653 35.067,36.782C35.052,36.785 35.037,36.785 35.023,36.788C35.009,36.79 34.996,36.795 34.982,36.796C34.943,36.8 34.906,36.806 34.868,36.81C33.621,37.005 32.404,37.408 31.281,37.975C31.03,38.146 30.695,38.117 30.477,37.908C30.42,37.854 30.363,37.8 30.305,37.747C28.791,36.366 26.925,35.497 24.904,35.23C24.878,35.23 24.851,35.228 24.825,35.225C23.43,35.052 22.049,35.166 20.72,35.563C20.28,35.694 19.971,36.044 19.895,36.498C19.818,36.95 19.995,37.379 20.368,37.647L30.469,44.916C30.515,44.951 30.563,44.984 30.609,45.017L30.869,45.203C30.884,45.213 30.901,45.223 30.911,45.23C31.258,45.466 33.704,46.475 46.191,50.573C46.391,50.639 46.546,50.799 46.606,51.001C46.667,51.204 46.624,51.422 46.492,51.587C45.096,53.329 43.617,55.076 42.187,56.765C36.499,63.483 30.617,70.43 28.842,78.496C28.777,78.791 28.515,79.001 28.213,79.001C27.911,79.001 27.65,78.791 27.585,78.496C25.81,70.43 19.928,63.483 14.24,56.765C12.776,55.036 11.262,53.248 9.836,51.464C9.825,51.45 9.818,51.434 9.808,51.42C9.797,51.403 9.785,51.388 9.775,51.37C9.762,51.345 9.752,51.32 9.742,51.295C9.738,51.284 9.732,51.274 9.728,51.263L9.726,51.253C9.717,51.226 9.712,51.198 9.708,51.17C9.705,51.156 9.701,51.141 9.7,51.127C9.697,51.102 9.698,51.077 9.698,51.053C9.699,51.035 9.698,51.018 9.699,51.001C9.701,50.978 9.707,50.956 9.711,50.934C9.715,50.916 9.717,50.897 9.723,50.88C9.729,50.858 9.739,50.838 9.747,50.817C9.754,50.8 9.76,50.782 9.769,50.765C9.778,50.747 9.791,50.73 9.802,50.713C9.814,50.695 9.825,50.677 9.838,50.659C9.849,50.646 9.862,50.634 9.874,50.622C9.892,50.603 9.909,50.584 9.929,50.568L9.937,50.56C9.948,50.551 9.96,50.545 9.972,50.538C9.992,50.523 10.012,50.509 10.034,50.497C10.054,50.486 10.074,50.479 10.095,50.47C10.11,50.464 10.123,50.456 10.138,50.451C22.325,46.439 24.651,45.547 24.952,45.371C25.643,44.953 26.291,44.468 26.887,43.923L19.616,38.692C18.848,38.14 18.469,37.217 18.626,36.284C18.783,35.35 19.444,34.601 20.352,34.33C21.4,34.017 22.476,33.859 23.564,33.859C24.007,33.859 24.453,33.885 24.899,33.937C24.93,33.937 24.956,33.939 24.984,33.942C27.222,34.221 29.293,35.151 30.991,36.636C31.76,36.183 32.592,35.897 33.467,35.709C33.789,35.642 34.116,35.596 34.445,35.564C34.498,35.557 34.553,35.55 34.607,35.544L45.34,23.782C45.751,23.332 45.962,22.749 45.934,22.14C45.906,21.532 45.643,20.971 45.192,20.56C44.264,19.712 42.818,19.778 41.97,20.707L41.392,21.34L41.392,21.341L34.926,27.472L40.441,20.473L40.444,20.472C40.853,20.022 41.063,19.439 41.035,18.832C41.007,18.223 40.744,17.662 40.294,17.251C39.844,16.841 39.269,16.63 38.653,16.658C38.044,16.685 37.483,16.948 37.072,17.398L37.072,17.399L37.071,17.399L36.494,18.032C36.417,18.117 36.321,18.173 36.22,18.207L30.606,23.53L35.394,17.454C35.418,17.35 35.466,17.25 35.543,17.165L35.545,17.163C36.391,16.234 36.324,14.79 35.396,13.942C34.946,13.532 34.358,13.322 33.754,13.349C33.145,13.377 32.584,13.64 32.174,14.09L31.595,14.723L31.595,14.724C31.573,14.748 31.548,14.768 31.522,14.789L28.859,17.708C28.817,17.759 28.778,17.811 28.732,17.86C28.686,17.912 28.635,17.959 28.585,18.007L28.571,18.023C28.567,18.028 28.561,18.031 28.556,18.036C27.934,18.631 27.129,18.98 26.261,19.02C25.851,19.038 25.451,18.984 25.07,18.869C25.075,18.925 25.083,18.979 25.085,19.035C25.129,19.987 24.799,20.899 24.156,21.603C23.203,22.648 21.765,22.991 20.492,22.609C20.582,23.575 20.285,24.573 19.58,25.344C18.938,26.048 18.061,26.46 17.109,26.504C16.7,26.522 16.299,26.467 15.918,26.353C15.923,26.408 15.931,26.463 15.934,26.519C15.977,27.471 15.647,28.383 15.005,29.087C13.679,30.54 11.417,30.643 9.965,29.317L8.466,27.949C7.982,28.659 7.568,29.415 7.244,30.207C7.173,30.381 7.029,30.514 6.851,30.573L1.024,32.511C0.999,32.519 0.972,32.523 0.945,32.529C0.672,32.584 0.396,32.458 0.261,32.219C0.229,32.165 0.209,32.104 0.195,32.04C0.19,32.019 0.183,31.998 0.18,31.976C0.022,30.631 -0.032,29.249 0.021,27.869C0.007,27.498 0,27.171 0,26.869C0,12.054 12.657,0.001 28.213,0.001C43.77,0.001 56.426,12.054 56.426,26.869C56.426,27.17 56.42,27.489 56.405,27.869M44.904,51.505C44.82,51.477 44.739,51.451 44.656,51.423C44.62,51.595 44.583,51.767 44.548,51.939C44.666,51.794 44.786,51.65 44.904,51.505M44.351,52.179C44.406,51.912 44.461,51.644 44.516,51.377C44.315,51.311 44.117,51.246 43.922,51.181C43.867,51.46 43.813,51.739 43.757,52.018C43.75,52.045 43.744,52.07 43.737,52.097C43.663,52.462 43.588,52.827 43.512,53.192C43.793,52.855 44.072,52.518 44.351,52.179M43.302,53.445C43.411,52.928 43.514,52.411 43.617,51.895C43.624,51.87 43.624,51.845 43.63,51.819C43.676,51.589 43.72,51.359 43.764,51.129C43.548,51.058 43.333,50.987 43.124,50.918C43.118,50.95 43.112,50.982 43.106,51.014C43.1,51.039 43.1,51.065 43.093,51.09C42.885,52.229 42.68,53.369 42.409,54.509C42.707,54.155 43.004,53.801 43.302,53.445M41.204,55.935C41.523,55.558 41.845,55.177 42.168,54.795C42.494,53.493 42.721,52.192 42.955,50.891C42.957,50.881 42.957,50.872 42.959,50.863C42.725,50.786 42.497,50.71 42.272,50.635C41.979,52.448 41.679,54.261 41.086,56.074C41.125,56.028 41.165,55.981 41.204,55.935M40.771,56.447C41.465,54.49 41.789,52.533 42.095,50.576C41.845,50.493 41.6,50.412 41.36,50.332C40.98,53.041 40.524,55.751 39.075,58.46C39.639,57.786 40.205,57.115 40.771,56.447M28.213,75.883C28.255,75.751 28.301,75.619 28.345,75.487C28.265,75.512 28.186,75.536 28.106,75.561C28.142,75.669 28.179,75.776 28.213,75.883M28.071,75.455C28.178,75.422 28.283,75.388 28.389,75.355C28.449,75.176 28.513,74.997 28.577,74.819C28.362,74.89 28.145,74.96 27.925,75.03C27.975,75.171 28.023,75.313 28.071,75.455M27.887,74.926C28.137,74.845 28.383,74.766 28.625,74.686C28.692,74.503 28.761,74.321 28.832,74.139C28.475,74.261 28.109,74.383 27.736,74.504C27.788,74.644 27.837,74.785 27.887,74.926M27.695,74.401C28.102,74.268 28.498,74.135 28.885,74.002C28.959,73.815 29.035,73.629 29.113,73.443C28.604,73.624 28.077,73.804 27.534,73.985C27.589,74.124 27.643,74.262 27.695,74.401M27.494,73.882C28.072,73.688 28.632,73.495 29.172,73.301C29.254,73.106 29.339,72.912 29.426,72.718C28.756,72.968 28.054,73.217 27.323,73.466C27.381,73.604 27.439,73.743 27.494,73.882M27.279,73.36C28.05,73.095 28.789,72.831 29.493,72.567C29.585,72.362 29.68,72.159 29.776,71.956C28.935,72.285 28.042,72.614 27.1,72.943C27.16,73.082 27.22,73.221 27.279,73.36M27.053,72.838C28.041,72.491 28.974,72.144 29.852,71.798C29.956,71.58 30.063,71.364 30.173,71.148C29.149,71.571 28.047,71.993 26.865,72.416C26.929,72.556 26.991,72.697 27.053,72.838M26.816,72.31C28.05,71.866 29.198,71.422 30.26,70.978C30.379,70.746 30.501,70.515 30.625,70.285C29.409,70.819 28.075,71.353 26.618,71.887C26.685,72.028 26.75,72.169 26.816,72.31M26.567,71.781C28.084,71.221 29.468,70.662 30.724,70.103C30.864,69.847 31.005,69.592 31.151,69.339C29.732,70.009 28.138,70.68 26.354,71.351C26.426,71.494 26.497,71.637 26.567,71.781M26.301,71.243C28.158,70.541 29.806,69.839 31.267,69.138C31.434,68.85 31.605,68.563 31.78,68.277C30.147,69.119 28.257,69.961 26.075,70.803C26.151,70.95 26.227,71.096 26.301,71.243M26.017,70.691C28.289,69.81 30.244,68.929 31.92,68.047C32.127,67.711 32.34,67.378 32.556,67.046C30.703,68.112 28.47,69.178 25.779,70.244C25.859,70.392 25.939,70.541 26.017,70.691M25.717,70.13C28.529,69.011 30.838,67.891 32.735,66.772C33.014,66.348 33.301,65.927 33.593,65.508C31.521,66.894 28.871,68.281 25.462,69.668C25.548,69.821 25.633,69.975 25.717,70.13M25.395,69.55C28.993,68.077 31.741,66.605 33.857,65.133C34.328,64.467 34.814,63.806 35.311,63.151C33.065,65.126 29.841,67.1 25.122,69.074C25.214,69.232 25.305,69.391 25.395,69.55M25.051,68.953C30.326,66.733 33.721,64.514 35.969,62.294C36.749,61.292 37.551,60.3 38.363,59.317C40.247,56.301 40.763,53.285 41.172,50.269C40.902,50.179 40.638,50.091 40.381,50.005C40.027,53.018 39.519,56.031 37.625,59.043C37.612,59.069 37.593,59.094 37.581,59.119C35.595,62.233 31.982,65.345 24.757,68.458C24.856,68.622 24.954,68.787 25.051,68.953M24.681,68.333C31.92,65.194 35.515,62.055 37.473,58.917C37.486,58.892 37.505,58.867 37.517,58.841C39.343,55.874 39.843,52.905 40.177,49.937C39.889,49.84 39.61,49.747 39.339,49.655C39.071,52.45 38.623,55.245 37.044,58.039C37.024,58.065 37.012,58.09 36.999,58.115C35.138,61.35 31.641,64.584 24.364,67.819C24.471,67.99 24.576,68.161 24.681,68.333M24.281,67.688C31.562,64.43 35.032,61.171 36.867,57.913C36.879,57.888 36.899,57.863 36.911,57.837C38.432,55.086 38.868,52.334 39.121,49.582C38.811,49.478 38.512,49.377 38.223,49.279C38.033,51.863 37.651,54.447 36.343,57.032C36.33,57.059 36.317,57.084 36.305,57.111C34.581,60.459 31.223,63.805 23.94,67.153C24.055,67.331 24.169,67.509 24.281,67.688M23.852,67.019C31.13,63.649 34.459,60.278 36.153,56.909C36.166,56.884 36.178,56.859 36.191,56.833C37.444,54.289 37.812,51.744 37.988,49.199C37.656,49.086 37.337,48.978 37.033,48.874C36.913,51.258 36.604,53.643 35.54,56.028C35.528,56.055 35.515,56.08 35.509,56.107C33.935,59.559 30.724,63.009 23.484,66.461C23.608,66.646 23.731,66.832 23.852,67.019M23.388,66.317C30.619,62.847 33.791,59.375 35.332,55.905C35.345,55.88 35.352,55.855 35.364,55.829C36.385,53.483 36.68,51.136 36.787,48.789C36.426,48.666 36.086,48.548 35.765,48.437C35.707,50.633 35.472,52.828 34.618,55.024C34.612,55.049 34.606,55.075 34.593,55.1C33.19,58.645 30.147,62.192 22.992,65.737C23.125,65.93 23.257,66.124 23.388,66.317M22.887,65.585C30.019,62.023 33.025,58.463 34.398,54.901C34.404,54.876 34.417,54.85 34.429,54.825C35.242,52.666 35.461,50.507 35.505,48.348C35.116,48.212 34.754,48.086 34.421,47.968C34.42,49.985 34.255,52.002 33.589,54.02C33.583,54.045 33.571,54.071 33.564,54.096C32.336,57.722 29.477,61.349 22.458,64.975C22.602,65.178 22.746,65.381 22.887,65.585M22.346,64.818C29.334,61.177 32.154,57.538 33.343,53.896C33.356,53.87 33.362,53.845 33.368,53.818C33.999,51.834 34.149,49.852 34.139,47.868C33.709,47.716 33.328,47.579 32.989,47.456C33.04,49.309 32.946,51.163 32.44,53.016C32.434,53.041 32.421,53.066 32.415,53.092C31.392,56.747 28.777,60.403 22.096,64.057C22.052,64.083 22.001,64.108 21.957,64.134C21.932,64.147 21.905,64.162 21.88,64.176C22.037,64.389 22.192,64.603 22.346,64.818M21.758,64.011C21.805,63.984 21.854,63.958 21.9,63.932C21.944,63.906 21.995,63.881 22.039,63.855C28.626,60.201 31.183,56.547 32.169,52.893C32.175,52.866 32.187,52.841 32.194,52.814C32.672,50.991 32.754,49.17 32.694,47.348C32.192,47.163 31.794,47.012 31.479,46.888C31.574,48.596 31.539,50.304 31.164,52.012C31.158,52.037 31.152,52.062 31.145,52.087C30.325,55.742 27.982,59.399 21.736,63.053C21.691,63.079 21.648,63.104 21.61,63.13C21.495,63.199 21.375,63.268 21.256,63.338C21.424,63.561 21.592,63.786 21.758,64.011M21.124,63.164C21.258,63.085 21.392,63.006 21.521,62.928C21.559,62.902 21.603,62.877 21.648,62.851C27.811,59.197 30.097,55.54 30.88,51.885C30.88,51.86 30.886,51.835 30.893,51.81C31.242,50.126 31.264,48.443 31.162,46.761C30.476,46.481 30.302,46.372 30.201,46.303C30.18,46.29 30.152,46.272 30.136,46.261L29.866,46.067C29.861,46.064 29.858,46.061 29.854,46.059C30.004,47.709 30.039,49.358 29.769,51.008C29.769,51.033 29.762,51.058 29.756,51.083C29.137,54.738 27.053,58.395 21.218,62.049C21.174,62.075 21.136,62.1 21.098,62.126C20.93,62.234 20.755,62.342 20.578,62.45C20.762,62.687 20.944,62.925 21.124,63.164M20.433,62.264C20.617,62.15 20.798,62.037 20.972,61.923C21.009,61.898 21.054,61.873 21.092,61.847C26.858,58.193 28.885,54.536 29.465,50.881C29.472,50.856 29.472,50.831 29.478,50.806C29.734,49.141 29.68,47.477 29.512,45.813L28.079,44.781C28.318,46.522 28.452,48.263 28.259,50.004C28.259,50.029 28.253,50.054 28.253,50.079C27.83,53.734 25.992,57.387 20.542,61.042C20.498,61.069 20.46,61.094 20.422,61.121C20.235,61.25 20.039,61.38 19.84,61.508C20.039,61.76 20.237,62.011 20.433,62.264M11.425,51.381C11.74,51.77 12.059,52.159 12.38,52.547C12.834,51.929 13.207,51.311 13.51,50.693C12.851,50.911 12.158,51.14 11.425,51.381M14.077,50.505C13.72,51.293 13.249,52.081 12.648,52.869C12.991,53.283 13.335,53.695 13.68,54.106C14.935,52.671 15.733,51.236 16.194,49.8C15.537,50.02 14.831,50.255 14.077,50.505M16.694,49.634C16.229,51.223 15.361,52.813 13.929,54.402C14.248,54.782 14.566,55.159 14.883,55.533C17.072,53.357 18.156,51.181 18.567,49.005C17.992,49.199 17.368,49.409 16.694,49.634M19.012,48.855C18.627,51.171 17.498,53.486 15.11,55.801C15.147,55.846 15.184,55.89 15.222,55.934C15.48,56.24 15.739,56.545 15.998,56.852C16.008,56.842 16.018,56.833 16.027,56.824C19.232,53.975 20.47,51.126 20.713,48.277C20.203,48.452 19.638,48.644 19.012,48.855M21.116,48.139C20.915,51.102 19.677,54.064 16.305,57.026C16.274,57.051 16.242,57.076 16.217,57.102L16.213,57.105C16.486,57.429 16.759,57.754 17.031,58.079C17.101,58.022 17.173,57.964 17.239,57.907C17.271,57.88 17.303,57.855 17.334,57.828C21.436,54.417 22.661,51.007 22.683,47.597C22.236,47.753 21.717,47.933 21.116,48.139M24.534,47.793C24.534,47.509 24.524,47.225 24.509,46.941C24.157,47.072 23.688,47.242 23.057,47.465C23.082,50.987 21.871,54.508 17.581,58.03L17.486,58.106C17.403,58.175 17.315,58.245 17.229,58.315C17.483,58.618 17.737,58.923 17.989,59.228C18.128,59.122 18.269,59.016 18.402,58.911C18.433,58.886 18.465,58.86 18.496,58.835L18.496,58.835C23.207,55.18 24.514,51.524 24.534,47.869L24.534,47.793ZM26.205,46.094C26.013,46.225 25.817,46.351 25.618,46.472C25.543,46.518 25.428,46.587 24.859,46.807C24.884,47.202 24.897,47.597 24.894,47.992L24.894,48.071C24.843,51.726 23.485,55.379 18.717,59.034C18.679,59.061 18.648,59.086 18.61,59.113C18.469,59.224 18.319,59.335 18.17,59.447C18.405,59.731 18.638,60.017 18.871,60.303C19.056,60.174 19.239,60.045 19.412,59.915C19.443,59.89 19.482,59.865 19.52,59.839C24.552,56.184 26.093,52.528 26.289,48.873C26.289,48.848 26.295,48.822 26.295,48.797C26.341,47.896 26.298,46.995 26.205,46.094M26.527,45.863C26.642,46.908 26.693,47.952 26.63,48.996L26.63,49.075C26.396,52.73 24.805,56.383 19.702,60.038C19.665,60.065 19.633,60.09 19.595,60.117C19.417,60.248 19.23,60.379 19.04,60.511C19.256,60.778 19.471,61.045 19.685,61.314C19.885,61.182 20.083,61.051 20.271,60.919C20.309,60.894 20.347,60.869 20.384,60.843C25.771,57.189 27.552,53.532 27.937,49.877C27.937,49.852 27.943,49.826 27.943,49.801C28.108,48.155 27.982,46.508 27.753,44.862C27.363,45.219 26.954,45.553 26.527,45.863M55.14,26.869C55.14,26.587 55.133,26.306 55.124,26.027C52.291,24.669 49.641,23.513 47.202,22.592C47.162,23.006 47.051,23.405 46.873,23.776C49.402,24.677 52.168,25.842 55.136,27.231C55.139,27.106 55.14,26.985 55.14,26.869M47.219,22.282C49.649,23.209 52.291,24.37 55.112,25.73C55.093,25.336 55.065,24.944 55.028,24.554C52.15,23.138 49.452,21.921 46.979,20.954C47.117,21.31 47.201,21.689 47.219,22.082C47.222,22.149 47.219,22.215 47.219,22.282M46.721,24.06C46.619,24.23 46.504,24.395 46.373,24.549C46.574,24.713 46.77,24.881 46.96,25.055C47.214,25.286 47.454,25.528 47.688,25.776C49.988,26.582 52.478,27.6 55.137,28.805C55.135,28.501 55.13,28.197 55.118,27.894C55.117,27.877 55.117,27.86 55.118,27.843C55.122,27.736 55.126,27.635 55.129,27.538C52.103,26.131 49.288,24.958 46.721,24.06M48.148,26.288C48.659,26.888 49.118,27.527 49.516,28.207C51.274,28.844 53.134,29.593 55.089,30.447C55.115,30.009 55.13,29.57 55.134,29.129C52.652,28.012 50.318,27.059 48.148,26.288M55.048,31.038C55.055,30.952 55.059,30.866 55.066,30.781C53.211,29.977 51.443,29.267 49.767,28.661C49.898,28.905 50.024,29.152 50.14,29.406L55.048,31.038ZM46.06,19.61C46.371,19.893 46.621,20.225 46.811,20.587C49.322,21.57 52.067,22.811 55.001,24.263C54.96,23.875 54.907,23.489 54.848,23.106C50.04,20.682 45.74,18.822 42.158,17.758C42.147,17.755 42.133,17.75 42.122,17.747C42.237,18.073 42.305,18.418 42.321,18.773C42.323,18.827 42.324,18.881 42.325,18.935C43.556,18.443 45.016,18.658 46.06,19.61M49.569,12.35C37.316,5.916 29.803,4.746 24.24,5.735C24.204,5.745 24.162,5.748 24.126,5.758C18.591,6.777 14.817,9.755 10.911,12.584C10.88,12.599 10.856,12.622 10.831,12.644C10.837,12.517 10.841,12.391 10.851,12.27C10.875,12.247 10.9,12.225 10.931,12.209C14.858,9.405 18.649,6.446 24.229,5.476C24.265,5.466 24.306,5.463 24.342,5.453C29.95,4.514 37.526,5.761 49.896,12.323C49.983,12.367 50.074,12.419 50.161,12.463C50.316,12.544 50.474,12.63 50.63,12.714C50.314,12.264 49.984,11.824 49.639,11.394C37.745,5.048 30.298,3.639 24.78,4.367C24.739,4.37 24.697,4.374 24.661,4.384C24.7,4.294 24.737,4.204 24.781,4.12C24.822,4.117 24.858,4.107 24.899,4.103C30.357,3.429 37.718,4.863 49.365,11.055C48.947,10.553 48.51,10.066 48.055,9.595C37.504,4.097 30.588,2.634 25.403,3.091C25.362,3.094 25.321,3.098 25.28,3.102C19.327,3.659 15.351,6.407 11.285,9.057C11.253,9.074 11.229,9.096 11.197,9.114C11.219,9.005 11.233,8.891 11.255,8.783C11.285,8.766 11.316,8.751 11.34,8.729C15.423,6.097 19.419,3.365 25.415,2.857C25.394,2.899 25.371,2.939 25.347,2.979C25.371,2.939 25.394,2.899 25.415,2.857C25.457,2.853 25.498,2.85 25.545,2.852C30.642,2.442 37.421,3.897 47.667,9.2C47.056,8.593 46.413,8.015 45.743,7.467C36.915,3.078 30.796,1.694 26.118,1.911C26.07,1.909 26.029,1.913 25.986,1.919C19.812,2.23 15.742,4.873 11.603,7.443C11.573,7.458 11.543,7.475 11.518,7.497C11.528,7.443 11.542,7.393 11.554,7.342C11.542,7.393 11.528,7.443 11.518,7.497C10.593,8.072 9.676,8.655 8.74,9.218C7.967,9.987 7.246,10.803 6.577,11.658C8.201,10.771 9.72,9.768 11.255,8.783C11.233,8.891 11.219,9.005 11.197,9.114C9.553,10.181 7.926,11.265 6.165,12.202C5.683,12.853 5.233,13.525 4.816,14.219C7.05,13.16 9.022,11.81 11.009,10.477C11.033,10.455 11.063,10.438 11.088,10.416C15.099,7.705 19.001,4.869 24.781,4.12C24.737,4.204 24.7,4.294 24.661,4.384C18.92,5.175 15.044,8.033 11.05,10.763C11.023,10.787 10.993,10.803 10.967,10.827C8.911,12.221 6.869,13.632 4.528,14.709C4.172,15.332 3.845,15.97 3.543,16.623C6.281,15.506 8.564,13.885 10.851,12.27C10.841,12.391 10.837,12.517 10.831,12.644C8.496,14.311 6.161,15.98 3.33,17.097C3.062,17.711 2.819,18.336 2.601,18.973C5.772,17.862 8.287,16.021 10.782,14.161C10.783,14.194 10.782,14.227 10.782,14.26C10.782,14.227 10.783,14.194 10.782,14.161C10.813,14.144 10.837,14.122 10.862,14.1C14.706,11.204 18.386,8.122 23.761,6.924C23.802,6.921 23.838,6.911 23.874,6.901C29.283,5.74 36.52,6.611 48.313,12.534C48.395,12.572 48.475,12.611 48.562,12.656C49.548,13.146 50.573,13.68 51.627,14.248C51.379,13.834 51.12,13.428 50.849,13.029C50.505,12.845 50.162,12.661 49.826,12.486C49.74,12.441 49.655,12.395 49.569,12.35M34.839,2.072C32.718,1.56 30.499,1.287 28.213,1.287C20.98,1.287 14.405,4.011 9.563,8.436C10.24,8.021 10.913,7.602 11.59,7.187C11.62,7.171 11.645,7.149 11.675,7.132C15.825,4.575 19.915,1.948 26.133,1.686C26.18,1.688 26.227,1.691 26.268,1.687C30.806,1.514 36.709,2.855 45.106,6.964C43.661,5.855 42.094,4.884 40.426,4.074C38.404,3.229 36.548,2.569 34.839,2.072M48.265,12.722C48.179,12.677 48.1,12.637 48.019,12.598C36.337,6.799 29.163,6.003 23.794,7.207C23.758,7.217 23.716,7.221 23.68,7.231C18.344,8.471 14.686,11.579 10.859,14.493C10.834,14.515 10.81,14.538 10.785,14.56C8.254,16.466 5.699,18.344 2.444,19.446C2.244,20.071 2.069,20.707 1.92,21.351C5.48,20.283 8.172,18.25 10.819,16.169C10.819,16.302 10.826,16.44 10.833,16.58C8.166,18.706 5.446,20.773 1.813,21.827C1.679,22.462 1.57,23.105 1.486,23.756C3.231,23.305 4.762,22.618 6.165,21.79C6.269,21.632 6.383,21.48 6.513,21.337C7.041,20.759 7.728,20.382 8.485,20.24C9.135,19.757 9.768,19.254 10.392,18.742C10.546,18.331 10.775,17.94 11.089,17.595C11.621,17.012 12.304,16.647 13.025,16.504C13.688,15.936 14.354,15.373 15.035,14.825C15.189,14.474 15.398,14.145 15.665,13.853C16.252,13.21 17.038,12.814 17.895,12.717C18.378,12.4 18.875,12.097 19.385,11.811C19.507,11.197 19.788,10.607 20.241,10.111C20.323,10.021 20.411,9.935 20.501,9.854C16.807,11.524 13.923,14.093 10.912,16.52C10.887,16.542 10.857,16.558 10.833,16.58C10.826,16.44 10.819,16.302 10.819,16.169L10.893,16.103C14.648,13.107 18.209,9.899 23.395,8.492C23.433,8.481 23.468,8.471 23.505,8.46C28.72,7.083 35.641,7.604 46.896,12.929C46.971,12.963 47.045,12.996 47.125,13.036C48.792,13.813 50.573,14.717 52.447,15.724C52.243,15.326 52.028,14.934 51.804,14.547C50.579,13.889 49.398,13.279 48.265,12.722M1.287,26.869C1.287,27.16 1.294,27.479 1.308,27.843C1.309,27.86 1.309,27.877 1.308,27.894C1.297,28.185 1.291,28.476 1.29,28.767C3.451,28.342 5.273,27.539 6.902,26.522L6.744,26.377C6.323,25.994 6.009,25.524 5.814,25.007C4.461,25.754 2.978,26.355 1.289,26.727C1.288,26.774 1.287,26.821 1.287,26.869M10.223,19.353C9.886,19.632 9.543,19.906 9.198,20.176C9.534,20.18 9.863,20.232 10.177,20.326C10.148,20.002 10.165,19.675 10.223,19.353M14.833,15.416C14.425,15.753 14.02,16.095 13.619,16.439C13.654,16.438 13.69,16.434 13.726,16.434C14.071,16.434 14.417,16.487 14.752,16.586C14.746,16.531 14.738,16.477 14.736,16.421C14.72,16.078 14.755,15.741 14.833,15.416M19.33,12.212C19.058,12.369 18.794,12.533 18.53,12.699C18.803,12.717 19.071,12.765 19.329,12.842C19.31,12.633 19.312,12.422 19.33,12.212M5.676,24.561C5.627,24.348 5.594,24.128 5.584,23.905C5.562,23.414 5.64,22.935 5.808,22.489C4.488,23.232 3.05,23.843 1.427,24.249C1.357,24.899 1.313,25.557 1.295,26.221C2.924,25.854 4.362,25.276 5.676,24.561M46.859,13.13C46.785,13.097 46.705,13.058 46.63,13.024C35.481,7.816 28.617,7.366 23.442,8.785C23.406,8.795 23.37,8.804 23.335,8.814C23.187,8.856 23.045,8.905 22.899,8.949C23.663,8.954 24.392,9.199 25.001,9.652C25.641,9.517 26.308,9.412 27.005,9.339C27.595,8.952 28.277,8.753 28.962,8.753C29.613,8.753 30.265,8.931 30.839,9.287C34.749,9.557 39.525,10.787 45.63,13.491C45.704,13.525 45.779,13.558 45.853,13.591C48.072,14.553 50.51,15.76 53.123,17.159C52.954,16.77 52.777,16.387 52.589,16.009C50.562,14.919 48.644,13.951 46.859,13.13M25.312,9.909L25.867,10.416L26.325,9.914C26.393,9.838 26.467,9.77 26.54,9.702C26.119,9.759 25.711,9.829 25.312,9.909M45.62,13.723C45.546,13.69 45.477,13.663 45.402,13.63C39.622,11.101 35.045,9.908 31.268,9.603C31.3,9.631 31.334,9.655 31.365,9.684C31.727,10.014 32.01,10.407 32.207,10.84C35.591,11.169 39.606,12.201 44.518,14.226C44.593,14.259 44.661,14.286 44.736,14.32C47.399,15.383 50.414,16.836 53.686,18.575C53.548,18.193 53.401,17.815 53.245,17.442C50.495,15.972 47.936,14.712 45.62,13.723M44.531,14.482C44.46,14.456 44.391,14.429 44.315,14.397C39.552,12.462 35.639,11.468 32.33,11.145C32.442,11.467 32.508,11.806 32.524,12.156C32.527,12.209 32.528,12.262 32.528,12.315C32.895,12.168 33.288,12.082 33.695,12.063C34.605,12.023 35.475,12.325 36.165,12.911C38.374,13.367 40.822,14.088 43.561,15.132C43.636,15.166 43.7,15.186 43.768,15.213C46.792,16.319 50.3,17.962 54.148,19.983C54.036,19.603 53.915,19.226 53.785,18.854C50.391,17.054 47.272,15.558 44.531,14.482M43.597,15.413C43.526,15.387 43.457,15.36 43.387,15.334C40.872,14.391 38.606,13.723 36.545,13.283C36.89,13.677 37.139,14.137 37.283,14.635C38.964,15 40.779,15.513 42.755,16.205C42.818,16.226 42.887,16.253 42.951,16.274C46.269,17.386 50.182,19.156 54.517,21.395C54.43,21.015 54.334,20.639 54.229,20.266C50.279,18.199 46.686,16.525 43.597,15.413M42.804,16.507C42.74,16.486 42.671,16.459 42.608,16.438C41.776,16.153 40.975,15.9 40.199,15.676C40.547,15.83 40.872,16.037 41.161,16.301C41.508,16.617 41.783,16.992 41.98,17.403C42.017,17.415 42.054,17.426 42.093,17.438C42.156,17.459 42.219,17.479 42.277,17.494C45.822,18.57 50.065,20.421 54.801,22.819C54.737,22.436 54.665,22.056 54.582,21.68C50.159,19.404 46.173,17.614 42.804,16.507M37.426,15.624C37.793,15.477 38.187,15.391 38.594,15.372C38.803,15.363 39.01,15.375 39.214,15.401C38.576,15.232 37.96,15.086 37.359,14.957C37.39,15.124 37.414,15.292 37.422,15.464C37.425,15.518 37.426,15.571 37.426,15.624M29.628,14.956L30.771,13.704C31.098,13.278 31.263,12.757 31.239,12.214C31.211,11.606 30.948,11.045 30.498,10.634C29.568,9.786 28.124,9.853 27.275,10.781L26.817,11.283L28.502,12.821C29.139,13.402 29.516,14.163 29.628,14.956M24.56,17.141C24.984,17.528 25.525,17.737 26.095,17.737C26.13,17.737 26.166,17.737 26.202,17.735C26.741,17.71 27.243,17.5 27.636,17.139L27.908,16.841C28.619,15.912 28.515,14.574 27.635,13.771L24.413,10.832C23.964,10.421 23.384,10.208 22.772,10.238C22.163,10.266 21.601,10.528 21.191,10.979C20.344,11.908 20.41,13.353 21.338,14.201L21.614,14.453L24.56,17.141ZM19.354,20.308L19.984,20.883C20.421,21.281 20.972,21.478 21.52,21.478C22.14,21.478 22.757,21.228 23.206,20.736C23.617,20.285 23.828,19.702 23.8,19.094C23.772,18.485 23.509,17.924 23.059,17.513L22.358,16.874L20.471,15.152L20.468,15.149L19.838,14.573C18.908,13.725 17.463,13.791 16.615,14.721C16.204,15.171 15.993,15.754 16.021,16.363C16.049,16.971 16.312,17.532 16.762,17.943L17.116,18.266L19.35,20.304L19.354,20.308M15.408,24.625C15.832,25.012 16.373,25.221 16.943,25.221C16.978,25.221 17.014,25.22 17.05,25.219C17.658,25.191 18.22,24.928 18.63,24.478C19.478,23.549 19.412,22.104 18.484,21.256L17.236,20.117L15.262,18.315L15.261,18.315C14.332,17.467 12.887,17.533 12.039,18.462C11.192,19.392 11.258,20.837 12.186,21.685L12.462,21.937L15.408,24.625ZM10.832,28.367C11.269,28.765 11.82,28.962 12.369,28.962C12.988,28.962 13.605,28.712 14.054,28.22C14.902,27.29 14.836,25.845 13.907,24.997L11.872,23.139L11.319,22.635L11.319,22.635L10.686,22.057C10.236,21.647 9.656,21.435 9.044,21.463C8.435,21.491 7.874,21.754 7.463,22.204C7.053,22.655 6.842,23.237 6.869,23.846C6.897,24.455 7.16,25.016 7.61,25.427L10.832,28.367ZM6.169,29.444C6.532,28.612 6.983,27.819 7.507,27.074L7.259,26.848C5.544,27.961 3.615,28.838 1.295,29.281C1.304,29.869 1.332,30.455 1.381,31.036L6.169,29.444Z" style="fill:rgb(27,31,69);"/>
                    </g>
                </g>
            </g>
        </g>
    </g>
</svg>
