<?xml version="1.0" encoding="UTF-8" standalone="no"?>
<!DOCTYPE svg PUBLIC "-//W3C//DTD SVG 1.1//EN" "http://www.w3.org/Graphics/SVG/1.1/DTD/svg11.dtd">
<svg width="100%" height="100%" viewBox="0 0 563 55" version="1.1" xmlns="http://www.w3.org/2000/svg" xmlns:xlink="http://www.w3.org/1999/xlink" xml:space="preserve" xmlns:serif="http://www.serif.com/" style="fill-rule:evenodd;clip-rule:evenodd;stroke-linejoin:round;stroke-miterlimit:2;">
    <g transform="matrix(1,0,0,1,-6642.45,-4914.38)">
        <g transform="matrix(1,0,0,1,6480,4773.38)">
            <g transform="matrix(1,0,0,-1,162.447,408.756)">
                <path d="M26.197,237.756L26.197,232.31L0,232.31L0,267.242L25.503,267.242L25.503,261.807L6.487,261.807L6.487,252.727L23.355,252.727L23.355,247.389L6.487,247.389L6.487,237.756L26.197,237.756Z" style="fill:rgb(0,79,129);fill-rule:nonzero;"/>
            </g>
        </g>
        <g transform="matrix(1,0,0,1,6480,4773.38)">
            <g transform="matrix(1,0,0,-1,165.059,408.756)">
                <rect x="30.82" y="232.31" width="6.487" height="34.932" style="fill:rgb(0,79,129);"/>
            </g>
        </g>
        <g transform="matrix(1,0,0,1,6480,4773.38)">
            <g transform="matrix(1,0,0,-1,166.303,408.756)">
                <path d="M76.535,267.242L76.535,232.31L71.198,232.31L51.933,255.97L51.933,232.31L45.5,232.31L45.5,267.242L50.837,267.242L70.102,243.581L70.102,267.242L76.535,267.242L76.535,267.242Z" style="fill:rgb(0,79,129);fill-rule:nonzero;"/>
            </g>
        </g>
        <g transform="matrix(1,0,0,1,6480,4773.38)">
            <g transform="matrix(1,0,0,-1,169.229,408.774)">
                <path d="M80.041,236.017L82.286,241.061C85.085,238.815 89.522,237.221 93.817,237.221C99.252,237.221 101.551,239.163 101.551,241.766C101.551,249.306 80.789,244.359 80.789,257.334C80.789,262.975 85.28,267.77 94.859,267.77C99.057,267.77 103.439,266.674 106.487,264.678L104.437,259.634C101.291,261.478 97.852,262.378 94.804,262.378C89.413,262.378 87.222,260.284 87.222,257.637C87.222,250.206 107.93,255.045 107.93,242.222C107.93,236.635 103.385,231.84 93.806,231.84C88.372,231.84 82.926,233.532 80.03,236.027L80.041,236.017Z" style="fill:rgb(0,79,129);fill-rule:nonzero;"/>
            </g>
        </g>
        <g transform="matrix(1,0,0,1,6480,4773.38)">
            <g transform="matrix(1,0,0,-1,171.523,408.756)">
                <path d="M118.664,261.752L107.09,261.752L107.09,267.242L136.736,267.242L136.736,261.752L125.162,261.752L125.162,232.31L118.675,232.31L118.675,261.752L118.664,261.752Z" style="fill:rgb(0,79,129);fill-rule:nonzero;"/>
            </g>
        </g>
        <g transform="matrix(1,0,0,1,6480,4773.38)">
            <g transform="matrix(1,0,0,-1,174.22,408.756)">
                <path d="M165.117,237.756L165.117,232.31L138.92,232.31L138.92,267.242L164.423,267.242L164.423,261.807L145.407,261.807L145.407,252.727L162.275,252.727L162.275,247.389L145.407,247.389L145.407,237.756L165.117,237.756Z" style="fill:rgb(0,79,129);fill-rule:nonzero;"/>
            </g>
        </g>
        <g transform="matrix(1,0,0,1,6480,4773.38)">
            <g transform="matrix(1,0,0,-1,176.832,408.756)">
                <rect x="169.74" y="232.31" width="6.487" height="34.932" style="fill:rgb(0,79,129);"/>
            </g>
        </g>
        <g transform="matrix(1,0,0,1,6480,4773.38)">
            <g transform="matrix(1,0,0,-1,178.076,408.756)">
                <path d="M215.455,267.242L215.455,232.31L210.118,232.31L190.853,255.97L190.853,232.31L184.42,232.31L184.42,267.242L189.757,267.242L209.022,243.581L209.022,267.242L215.455,267.242L215.455,267.242Z" style="fill:rgb(0,79,129);fill-rule:nonzero;"/>
            </g>
        </g>
        <g transform="matrix(1,0,0,1,6480,4773.38)">
            <g transform="matrix(1,0,0,-1,182.309,408.756)">
                <path d="M263.605,254.82C263.605,247.14 257.921,242.388 248.733,242.388L240.847,242.388L240.847,232.31L234.36,232.31L234.36,267.242L248.733,267.242C257.91,267.242 263.605,262.544 263.605,254.81L263.605,254.82ZM257.064,254.82C257.064,259.214 254.124,261.763 248.429,261.763L240.847,261.763L240.847,247.888L248.429,247.888C254.124,247.888 257.064,250.438 257.064,254.82Z" style="fill:rgb(0,79,129);fill-rule:nonzero;"/>
            </g>
        </g>
        <g transform="matrix(1,0,0,1,6480,4773.38)">
            <g transform="matrix(1,0,0,-1,185.101,408.756)">
                <path d="M293.497,237.745L293.497,232.31L267.3,232.31L267.3,267.242L292.803,267.242L292.803,261.807L273.787,261.807L273.787,252.727L290.655,252.727L290.655,247.389L273.787,247.389L273.787,237.756L293.497,237.756L293.497,237.745Z" style="fill:rgb(0,79,129);fill-rule:nonzero;"/>
            </g>
        </g>
        <g transform="matrix(1,0,0,1,6480,4773.38)">
            <g transform="matrix(1,0,0,-1,187.713,408.767)">
                <path d="M320.976,232.321L313.838,242.551C313.393,242.497 312.938,242.497 312.493,242.497L304.607,242.497L304.607,232.321L298.12,232.321L298.12,267.253L312.493,267.253C321.67,267.253 327.365,262.555 327.365,254.82C327.365,249.526 324.675,245.643 319.934,243.788L327.972,232.31L320.987,232.31L320.976,232.321ZM312.189,261.763L304.607,261.763L304.607,247.834L312.189,247.834C317.884,247.834 320.824,250.427 320.824,254.82C320.824,259.214 317.884,261.763 312.189,261.763Z" style="fill:rgb(0,79,129);fill-rule:nonzero;"/>
            </g>
        </g>
        <g transform="matrix(1,0,0,1,6480,4773.38)">
            <g transform="matrix(1,0,0,-1,190.173,408.756)">
                <path d="M338.724,261.752L327.15,261.752L327.15,267.242L356.796,267.242L356.796,261.752L345.222,261.752L345.222,232.31L338.735,232.31L338.735,261.752L338.724,261.752Z" style="fill:rgb(0,79,129);fill-rule:nonzero;"/>
            </g>
        </g>
        <g transform="matrix(1,0,0,1,6480,4773.38)">
            <g transform="matrix(1,0,0,-1,192.871,408.756)">
                <path d="M385.177,237.745L385.177,232.31L358.98,232.31L358.98,267.242L384.483,267.242L384.483,261.807L365.467,261.807L365.467,252.727L382.335,252.727L382.335,247.389L365.467,247.389L365.467,237.756L385.177,237.756L385.177,237.745Z" style="fill:rgb(0,79,129);fill-rule:nonzero;"/>
            </g>
        </g>
        <g transform="matrix(1,0,0,1,6480,4773.38)">
            <g transform="matrix(1,0,0,-1,195.483,408.756)">
                <path d="M420.835,267.242L420.835,232.31L415.498,232.31L396.233,255.97L396.233,232.31L389.8,232.31L389.8,267.242L395.137,267.242L414.402,243.581L414.402,267.242L420.835,267.242L420.835,267.242Z" style="fill:rgb(0,79,129);fill-rule:nonzero;"/>
            </g>
        </g>
        <g transform="matrix(1,0,0,1,6480,4773.38)">
            <g transform="matrix(1,0,0,-1,198.445,408.795)">
                <path d="M424.761,249.815C424.761,260.251 432.745,267.78 443.473,267.78C449.157,267.78 454.049,265.729 457.293,261.943L453.105,258.005C450.556,260.75 447.41,262.095 443.777,262.095C436.541,262.095 431.302,257.007 431.302,249.815C431.302,242.622 436.541,237.535 443.777,237.535C447.421,237.535 450.567,238.88 453.105,241.679L457.293,237.686C454.049,233.889 449.157,231.85 443.419,231.85C432.734,231.85 424.75,239.39 424.75,249.815L424.761,249.815Z" style="fill:rgb(0,79,129);fill-rule:nonzero;"/>
            </g>
        </g>
        <g transform="matrix(1,0,0,1,6480,4773.38)">
            <g transform="matrix(1,0,0,-1,201.475,408.756)">
                <path d="M486.697,237.756L486.697,232.31L460.5,232.31L460.5,267.242L486.003,267.242L486.003,261.807L466.987,261.807L466.987,252.727L483.855,252.727L483.855,247.389L466.987,247.389L466.987,237.756L486.697,237.756Z" style="fill:rgb(0,79,129);fill-rule:nonzero;"/>
            </g>
        </g>
        <g transform="matrix(1,0,0,1,6480,4773.38)">
            <g transform="matrix(1,0,0,-1,204.087,408.767)">
                <path d="M514.176,232.321L507.038,242.551C506.593,242.497 506.138,242.497 505.693,242.497L497.807,242.497L497.807,232.321L491.32,232.321L491.32,267.253L505.693,267.253C514.87,267.253 520.565,262.555 520.565,254.82C520.565,249.526 517.875,245.643 513.134,243.788L521.172,232.31L514.187,232.31L514.176,232.321ZM505.389,261.763L497.807,261.763L497.807,247.834L505.389,247.834C511.084,247.834 514.024,250.427 514.024,254.82C514.024,259.214 511.084,261.763 505.389,261.763Z" style="fill:rgb(0,79,129);fill-rule:nonzero;"/>
            </g>
        </g>
        <g transform="matrix(1,0,0,1,6480,4773.38)">
            <g transform="matrix(1,0,0,-1,162.447,462.619)">
                <path d="M7.604,276.398C7.604,274.402 6.129,273.165 3.732,273.165L1.681,273.165L1.681,270.54L0,270.54L0,279.631L3.742,279.631C6.129,279.631 7.615,278.405 7.615,276.398L7.604,276.398ZM5.901,276.398C5.901,277.537 5.131,278.199 3.656,278.199L1.681,278.199L1.681,274.586L3.656,274.586C5.131,274.586 5.901,275.248 5.901,276.387L5.901,276.398Z" style="fill:rgb(0,79,129);fill-rule:nonzero;"/>
            </g>
        </g>
        <g transform="matrix(1,0,0,1,6480,4773.38)">
            <g transform="matrix(1,0,0,-1,163.173,462.619)">
                <path d="M14.514,270.54L12.66,273.198C12.54,273.187 12.421,273.187 12.312,273.187L10.262,273.187L10.262,270.54L8.57,270.54L8.57,279.631L12.312,279.631C14.699,279.631 16.185,278.405 16.185,276.398C16.185,275.02 15.48,274.012 14.254,273.534L16.348,270.551L14.525,270.551L14.514,270.54ZM12.226,278.199L10.251,278.199L10.251,274.576L12.226,274.576C13.701,274.576 14.471,275.248 14.471,276.398C14.471,277.548 13.701,278.199 12.226,278.199Z" style="fill:rgb(0,79,129);fill-rule:nonzero;"/>
            </g>
        </g>
        <g transform="matrix(1,0,0,1,6480,4773.38)">
            <g transform="matrix(1,0,0,-1,163.864,462.629)">
                <path d="M16.72,275.096C16.72,277.786 18.792,279.771 21.612,279.771C24.433,279.771 26.504,277.797 26.504,275.096C26.504,272.394 24.433,270.42 21.612,270.42C18.792,270.42 16.72,272.405 16.72,275.096ZM24.801,275.096C24.801,276.951 23.435,278.285 21.612,278.285C19.79,278.285 18.423,276.951 18.423,275.096C18.423,273.241 19.79,271.906 21.612,271.906C23.435,271.906 24.801,273.241 24.801,275.096Z" style="fill:rgb(0,79,129);fill-rule:nonzero;"/>
            </g>
        </g>
        <g transform="matrix(1,0,0,1,6480,4773.38)">
            <g transform="matrix(1,0,0,-1,164.718,462.608)">
                <path d="M33.656,275.183L35.25,275.183L35.25,271.56C34.306,270.79 32.983,270.41 31.692,270.41C28.872,270.41 26.8,272.374 26.8,275.086C26.8,277.798 28.872,279.761 31.725,279.761C33.243,279.761 34.513,279.251 35.37,278.286L34.306,277.244C33.591,277.96 32.777,278.286 31.801,278.286C29.87,278.286 28.503,276.973 28.503,275.097C28.503,273.22 29.87,271.907 31.79,271.907C32.441,271.907 33.07,272.037 33.656,272.374L33.656,275.205L33.656,275.183Z" style="fill:rgb(0,79,129);fill-rule:nonzero;"/>
            </g>
        </g>
        <g transform="matrix(1,0,0,1,6480,4773.38)">
            <g transform="matrix(1,0,0,-1,165.552,462.619)">
                <path d="M42.584,270.54L40.73,273.198C40.61,273.187 40.491,273.187 40.382,273.187L38.332,273.187L38.332,270.54L36.64,270.54L36.64,279.631L40.382,279.631C42.769,279.631 44.255,278.405 44.255,276.398C44.255,275.02 43.55,274.012 42.324,273.534L44.418,270.551L42.595,270.551L42.584,270.54ZM40.296,278.199L38.321,278.199L38.321,274.576L40.296,274.576C41.771,274.576 42.541,275.248 42.541,276.398C42.541,277.548 41.771,278.199 40.296,278.199Z" style="fill:rgb(0,79,129);fill-rule:nonzero;"/>
            </g>
        </g>
        <g transform="matrix(1,0,0,1,6480,4773.38)">
            <g transform="matrix(1,0,0,-1,166.193,462.619)">
                <path d="M51.391,272.645L46.846,272.645L45.946,270.54L44.21,270.54L48.3,279.631L49.959,279.631L54.06,270.54L52.291,270.54L51.38,272.645L51.391,272.645ZM50.838,273.968L49.124,277.939L47.421,273.968L50.838,273.968Z" style="fill:rgb(0,79,129);fill-rule:nonzero;"/>
            </g>
        </g>
        <g transform="matrix(1,0,0,1,6480,4773.38)">
            <g transform="matrix(1,0,0,-1,167.054,462.619)">
                <path d="M62.701,270.54L62.701,276.561L59.707,271.581L58.959,271.581L55.975,276.485L55.975,270.54L54.37,270.54L54.37,279.631L55.758,279.631L59.371,273.61L62.918,279.631L64.306,279.631L64.306,270.54L62.701,270.54Z" style="fill:rgb(0,79,129);fill-rule:nonzero;"/>
            </g>
        </g>
        <g transform="matrix(1,0,0,1,6480,4773.38)">
            <g transform="matrix(1,0,0,-1,167.922,462.619)">
                <path d="M71.791,272.645L67.246,272.645L66.346,270.54L64.61,270.54L68.7,279.631L70.359,279.631L74.46,270.54L72.691,270.54L71.78,272.645L71.791,272.645ZM71.238,273.968L69.524,277.939L67.821,273.968L71.238,273.968Z" style="fill:rgb(0,79,129);fill-rule:nonzero;"/>
            </g>
        </g>
        <g transform="matrix(1,0,0,1,6480,4773.38)">
            <g transform="matrix(1,0,0,-1,169.062,462.619)">
                <path d="M78.06,279.631L82.03,279.631C84.981,279.631 86.988,277.819 86.988,275.086C86.988,272.352 84.981,270.54 82.03,270.54L78.06,270.54L78.06,279.631ZM81.954,271.972C83.983,271.972 85.284,273.209 85.284,275.086C85.284,276.962 83.972,278.199 81.954,278.199L79.752,278.199L79.752,271.972L81.954,271.972Z" style="fill:rgb(0,79,129);fill-rule:nonzero;"/>
            </g>
        </g>
        <g transform="matrix(1,0,0,1,6480,4773.38)">
            <g transform="matrix(1,0,0,-1,169.901,462.598)">
                <path d="M94.762,271.951L94.762,270.53L87.95,270.53L87.95,279.621L94.578,279.621L94.578,278.211L89.631,278.211L89.631,275.846L94.014,275.846L94.014,274.457L89.631,274.457L89.631,271.951L94.762,271.951Z" style="fill:rgb(0,79,129);fill-rule:nonzero;"/>
            </g>
        </g>
        <g transform="matrix(1,0,0,1,6480,4773.38)">
            <g transform="matrix(1,0,0,-1,170.861,462.619)">
                <rect x="99.28" y="270.54" width="1.692" height="9.091" style="fill:rgb(0,79,129);"/>
            </g>
        </g>
        <g transform="matrix(1,0,0,1,6480,4773.38)">
            <g transform="matrix(1,0,0,-1,171.184,462.619)">
                <path d="M111.171,279.631L111.171,270.54L109.782,270.54L104.771,276.691L104.771,270.54L103.1,270.54L103.1,279.631L104.488,279.631L109.5,273.48L109.5,279.631L111.171,279.631Z" style="fill:rgb(0,79,129);fill-rule:nonzero;"/>
            </g>
        </g>
        <g transform="matrix(1,0,0,1,6480,4773.38)">
            <g transform="matrix(1,0,0,-1,171.914,462.619)">
                <path d="M114.726,278.199L111.71,278.199L111.71,279.631L119.423,279.631L119.423,278.199L116.407,278.199L116.407,270.54L114.715,270.54L114.715,278.199L114.726,278.199Z" style="fill:rgb(0,79,129);fill-rule:nonzero;"/>
            </g>
        </g>
        <g transform="matrix(1,0,0,1,6480,4773.38)">
            <g transform="matrix(1,0,0,-1,172.617,462.598)">
                <path d="M126.812,271.94L126.812,270.53L120,270.53L120,279.621L126.628,279.621L126.628,278.211L121.681,278.211L121.681,275.846L126.064,275.846L126.064,274.457L121.681,274.457L121.681,271.951L126.812,271.951L126.812,271.94Z" style="fill:rgb(0,79,129);fill-rule:nonzero;"/>
            </g>
        </g>
        <g transform="matrix(1,0,0,1,6480,4773.38)">
            <g transform="matrix(1,0,0,-1,173.242,462.608)">
                <path d="M134.236,275.183L135.83,275.183L135.83,271.56C134.887,270.79 133.563,270.41 132.272,270.41C129.452,270.41 127.38,272.374 127.38,275.086C127.38,277.798 129.452,279.761 132.305,279.761C133.823,279.761 135.093,279.251 135.95,278.286L134.887,277.244C134.171,277.96 133.357,278.286 132.381,278.286C130.45,278.286 129.083,276.973 129.083,275.097C129.083,273.22 130.45,271.907 132.37,271.907C133.021,271.907 133.65,272.037 134.236,272.374L134.236,275.205L134.236,275.183Z" style="fill:rgb(0,79,129);fill-rule:nonzero;"/>
            </g>
        </g>
        <g transform="matrix(1,0,0,1,6480,4773.38)">
            <g transform="matrix(1,0,0,-1,174.076,462.619)">
                <path d="M143.164,270.54L141.31,273.198C141.19,273.187 141.071,273.187 140.962,273.187L138.912,273.187L138.912,270.54L137.22,270.54L137.22,279.631L140.962,279.631C143.349,279.631 144.835,278.405 144.835,276.398C144.835,275.02 144.13,274.012 142.904,273.534L144.998,270.551L143.175,270.551L143.164,270.54ZM140.876,278.199L138.901,278.199L138.901,274.576L140.876,274.576C142.351,274.576 143.121,275.248 143.121,276.398C143.121,277.548 142.351,278.199 140.876,278.199Z" style="fill:rgb(0,79,129);fill-rule:nonzero;"/>
            </g>
        </g>
        <g transform="matrix(1,0,0,1,6480,4773.38)">
            <g transform="matrix(1,0,0,-1,174.718,462.619)">
                <path d="M151.971,272.645L147.426,272.645L146.526,270.54L144.79,270.54L148.88,279.631L150.539,279.631L154.64,270.54L152.871,270.54L151.96,272.645L151.971,272.645ZM151.418,273.968L149.704,277.939L148.001,273.968L151.418,273.968Z" style="fill:rgb(0,79,129);fill-rule:nonzero;"/>
            </g>
        </g>
        <g transform="matrix(1,0,0,1,6480,4773.38)">
            <g transform="matrix(1,0,0,-1,175.518,465.47)">
                <path d="M161.595,275.822L162.691,274.78C161.878,273.836 160.663,273.305 159.242,273.261L159.111,272.752C159.882,272.665 160.24,272.22 160.24,271.667C160.24,270.918 159.534,270.43 158.471,270.43C158.005,270.43 157.604,270.517 157.278,270.701L157.582,271.471C157.853,271.33 158.135,271.265 158.461,271.265C158.938,271.265 159.144,271.45 159.144,271.732C159.144,271.981 158.949,272.155 158.461,272.155L158.059,272.155L158.363,273.294C155.966,273.609 154.23,275.464 154.23,277.926C154.23,280.638 156.302,282.602 159.101,282.602C160.576,282.602 161.856,282.07 162.691,281.083L161.595,280.063C160.934,280.779 160.12,281.126 159.166,281.126C157.278,281.126 155.922,279.803 155.922,277.937C155.922,276.071 157.289,274.748 159.166,274.748C160.109,274.748 160.934,275.095 161.595,275.822Z" style="fill:rgb(0,79,129);fill-rule:nonzero;"/>
            </g>
        </g>
        <g transform="matrix(1,0,0,1,6480,4773.38)">
            <g transform="matrix(1,0,0,-1,176.19,460.269)">
                <path d="M169.341,270.295L164.796,270.295L163.896,268.19L162.16,268.19L166.249,277.281L167.909,277.281L172.01,268.19L170.241,268.19L169.33,270.295L169.341,270.295ZM165.62,278.095L164.753,278.095C164.774,279.158 165.327,279.83 166.152,279.83C166.976,279.83 167.454,278.973 167.92,278.973C168.289,278.973 168.528,279.245 168.56,279.711L169.428,279.711C169.406,278.702 168.853,278.008 168.029,278.008C167.204,278.008 166.727,278.865 166.26,278.865C165.892,278.865 165.653,278.583 165.62,278.084L165.62,278.095ZM168.788,271.618L167.074,275.589L165.371,271.618L168.788,271.618Z" style="fill:rgb(0,79,129);fill-rule:nonzero;"/>
            </g>
        </g>
        <g transform="matrix(1,0,0,1,6480,4773.38)">
            <g transform="matrix(1,0,0,-1,176.989,462.629)">
                <path d="M171.59,275.096C171.59,277.786 173.662,279.771 176.482,279.771C179.303,279.771 181.374,277.797 181.374,275.096C181.374,272.394 179.303,270.42 176.482,270.42C173.662,270.42 171.59,272.405 171.59,275.096ZM179.671,275.096C179.671,276.951 178.305,278.285 176.482,278.285C174.66,278.285 173.293,276.951 173.293,275.096C173.293,273.241 174.66,271.906 176.482,271.906C178.305,271.906 179.671,273.241 179.671,275.096Z" style="fill:rgb(0,79,129);fill-rule:nonzero;"/>
            </g>
        </g>
        <g transform="matrix(1,0,0,1,6480,4773.38)">
            <g transform="matrix(1,0,0,-1,178.175,462.598)">
                <path d="M192.392,271.951L192.392,270.53L185.58,270.53L185.58,279.621L192.208,279.621L192.208,278.211L187.261,278.211L187.261,275.846L191.644,275.846L191.644,274.457L187.261,274.457L187.261,271.951L192.392,271.951Z" style="fill:rgb(0,79,129);fill-rule:nonzero;"/>
            </g>
        </g>
        <g transform="matrix(1,0,0,1,6480,4773.38)">
            <g transform="matrix(1,0,0,-1,179.073,462.629)">
                <path d="M196.191,271.516L196.777,272.828C197.503,272.243 198.664,271.83 199.771,271.83C201.181,271.83 201.777,272.34 201.777,273.013C201.777,274.976 196.375,273.685 196.375,277.059C196.375,278.524 197.547,279.771 200.031,279.771C201.126,279.771 202.265,279.489 203.057,278.968L202.526,277.656C201.712,278.133 200.812,278.372 200.02,278.372C198.621,278.372 198.046,277.829 198.046,277.135C198.046,275.204 203.437,276.463 203.437,273.121C203.437,271.668 202.255,270.42 199.76,270.42C198.349,270.42 196.928,270.865 196.18,271.516L196.191,271.516Z" style="fill:rgb(0,79,129);fill-rule:nonzero;"/>
            </g>
        </g>
        <g transform="matrix(1,0,0,1,6480,4773.38)">
            <g transform="matrix(1,0,0,-1,179.721,462.629)">
                <path d="M203.83,275.096C203.83,277.786 205.902,279.771 208.722,279.771C211.543,279.771 213.614,277.797 213.614,275.096C213.614,272.394 211.543,270.42 208.722,270.42C205.902,270.42 203.83,272.405 203.83,275.096ZM211.911,275.096C211.911,276.951 210.545,278.285 208.722,278.285C206.9,278.285 205.533,276.951 205.533,275.096C205.533,273.241 206.9,271.906 208.722,271.906C210.545,271.906 211.911,273.241 211.911,275.096Z" style="fill:rgb(0,79,129);fill-rule:nonzero;"/>
            </g>
        </g>
        <g transform="matrix(1,0,0,1,6480,4773.38)">
            <g transform="matrix(1,0,0,-1,180.575,462.618)">
                <path d="M213.911,275.085C213.911,277.797 215.983,279.76 218.781,279.76C220.257,279.76 221.537,279.229 222.372,278.242L221.276,277.222C220.615,277.938 219.801,278.285 218.846,278.285C216.959,278.285 215.603,276.962 215.603,275.096C215.603,273.23 216.97,271.906 218.846,271.906C219.79,271.906 220.615,272.253 221.276,272.98L222.372,271.939C221.526,270.952 220.257,270.42 218.76,270.42C215.983,270.42 213.9,272.384 213.9,275.096L213.911,275.085Z" style="fill:rgb(0,79,129);fill-rule:nonzero;"/>
            </g>
        </g>
        <g transform="matrix(1,0,0,1,6480,4773.38)">
            <g transform="matrix(1,0,0,-1,181.364,462.619)">
                <rect x="223.21" y="270.54" width="1.692" height="9.091" style="fill:rgb(0,79,129);"/>
            </g>
        </g>
        <g transform="matrix(1,0,0,1,6480,4773.38)">
            <g transform="matrix(1,0,0,-1,181.587,462.619)">
                <path d="M233.021,272.645L228.476,272.645L227.576,270.54L225.84,270.54L229.93,279.631L231.589,279.631L235.69,270.54L233.921,270.54L233.01,272.645L233.021,272.645ZM232.468,273.968L230.754,277.939L229.051,273.968L232.468,273.968Z" style="fill:rgb(0,79,129);fill-rule:nonzero;"/>
            </g>
        </g>
        <g transform="matrix(1,0,0,1,6480,4773.38)">
            <g transform="matrix(1,0,0,-1,182.448,462.619)">
                <path d="M236,279.631L237.692,279.631L237.692,271.972L242.443,271.972L242.443,270.54L236.011,270.54L236.011,279.631L236,279.631Z" style="fill:rgb(0,79,129);fill-rule:nonzero;"/>
            </g>
        </g>
        <g transform="matrix(1,0,0,1,6480,4773.38)">
            <g transform="matrix(1,0,0,-1,183.056,462.619)">
                <rect x="243.17" y="270.54" width="1.692" height="9.091" style="fill:rgb(0,79,129);"/>
            </g>
        </g>
        <g transform="matrix(1,0,0,1,6480,4773.38)">
            <g transform="matrix(1,0,0,-1,183.325,462.619)">
                <path d="M254.095,271.972L254.095,270.54L246.35,270.54L246.35,271.668L251.698,278.199L246.448,278.199L246.448,279.631L253.932,279.631L253.932,278.503L248.585,271.972L254.095,271.972Z" style="fill:rgb(0,79,129);fill-rule:nonzero;"/>
            </g>
        </g>
        <g transform="matrix(1,0,0,1,6480,4773.38)">
            <g transform="matrix(1,0,0,-1,183.951,462.619)">
                <path d="M260.921,272.645L256.376,272.645L255.476,270.54L253.74,270.54L257.83,279.631L259.489,279.631L263.59,270.54L261.821,270.54L260.91,272.645L260.921,272.645ZM260.368,273.968L258.654,277.939L256.951,273.968L260.368,273.968Z" style="fill:rgb(0,79,129);fill-rule:nonzero;"/>
            </g>
        </g>
        <g transform="matrix(1,0,0,1,6480,4773.38)">
            <g transform="matrix(1,0,0,-1,184.752,465.47)">
                <path d="M270.546,275.822L271.641,274.78C270.828,273.836 269.613,273.305 268.192,273.261L268.061,272.752C268.832,272.665 269.19,272.22 269.19,271.667C269.19,270.918 268.485,270.43 267.421,270.43C266.955,270.43 266.554,270.517 266.228,270.701L266.532,271.471C266.803,271.33 267.085,271.265 267.411,271.265C267.888,271.265 268.094,271.45 268.094,271.732C268.094,271.981 267.899,272.155 267.411,272.155L267.009,272.155L267.313,273.294C264.916,273.609 263.18,275.464 263.18,277.926C263.18,280.638 265.252,282.602 268.051,282.602C269.526,282.602 270.806,282.07 271.641,281.083L270.546,280.063C269.884,280.779 269.07,281.126 268.116,281.126C266.228,281.126 264.872,279.803 264.872,277.937C264.872,276.071 266.239,274.748 268.116,274.748C269.059,274.748 269.884,275.095 270.546,275.822Z" style="fill:rgb(0,79,129);fill-rule:nonzero;"/>
            </g>
        </g>
        <g transform="matrix(1,0,0,1,6480,4773.38)">
            <g transform="matrix(1,0,0,-1,185.424,460.269)">
                <path d="M278.291,270.295L273.746,270.295L272.846,268.19L271.11,268.19L275.2,277.281L276.859,277.281L280.96,268.19L279.191,268.19L278.28,270.295L278.291,270.295ZM274.57,278.095L273.703,278.095C273.724,279.158 274.277,279.83 275.102,279.83C275.926,279.83 276.404,278.973 276.87,278.973C277.239,278.973 277.478,279.245 277.51,279.711L278.378,279.711C278.356,278.702 277.803,278.008 276.979,278.008C276.154,278.008 275.677,278.865 275.21,278.865C274.842,278.865 274.603,278.583 274.57,278.084L274.57,278.095ZM277.738,271.618L276.024,275.589L274.321,271.618L277.738,271.618Z" style="fill:rgb(0,79,129);fill-rule:nonzero;"/>
            </g>
        </g>
        <g transform="matrix(1,0,0,1,6480,4773.38)">
            <g transform="matrix(1,0,0,-1,186.223,462.629)">
                <path d="M280.54,275.096C280.54,277.786 282.612,279.771 285.432,279.771C288.253,279.771 290.324,277.797 290.324,275.096C290.324,272.394 288.253,270.42 285.432,270.42C282.612,270.42 280.54,272.405 280.54,275.096ZM288.621,275.096C288.621,276.951 287.255,278.285 285.432,278.285C283.61,278.285 282.243,276.951 282.243,275.096C282.243,273.241 283.61,271.906 285.432,271.906C287.255,271.906 288.621,273.241 288.621,275.096Z" style="fill:rgb(0,79,129);fill-rule:nonzero;"/>
            </g>
        </g>
        <g transform="matrix(1,0,0,1,6480,4773.38)">
            <g transform="matrix(1,0,0,-1,187.408,462.619)">
                <path d="M294.52,279.631L298.49,279.631C301.441,279.631 303.448,277.819 303.448,275.086C303.448,272.352 301.441,270.54 298.49,270.54L294.52,270.54L294.52,279.631ZM298.414,271.972C300.443,271.972 301.744,273.209 301.744,275.086C301.744,276.962 300.432,278.199 298.414,278.199L296.212,278.199L296.212,271.972L298.414,271.972Z" style="fill:rgb(0,79,129);fill-rule:nonzero;"/>
            </g>
        </g>
        <g transform="matrix(1,0,0,1,6480,4773.38)">
            <g transform="matrix(1,0,0,-1,188.135,462.619)">
                <path d="M310.281,272.645L305.736,272.645L304.836,270.54L303.1,270.54L307.189,279.631L308.849,279.631L312.949,270.54L311.181,270.54L310.27,272.645L310.281,272.645ZM309.728,273.968L308.014,277.939L306.311,273.968L309.728,273.968Z" style="fill:rgb(0,79,129);fill-rule:nonzero;"/>
            </g>
        </g>
        <g transform="matrix(1,0,0,1,6480,4773.38)">
            <g transform="matrix(1,0,0,-1,189.276,462.619)">
                <path d="M324.641,279.631L324.641,270.54L323.252,270.54L318.24,276.691L318.24,270.54L316.57,270.54L316.57,279.631L317.958,279.631L322.97,273.48L322.97,279.631L324.641,279.631Z" style="fill:rgb(0,79,129);fill-rule:nonzero;"/>
            </g>
        </g>
        <g transform="matrix(1,0,0,1,6480,4773.38)">
            <g transform="matrix(1,0,0,-1,190.047,462.629)">
                <path d="M325.66,275.096C325.66,277.786 327.732,279.771 330.552,279.771C333.373,279.771 335.444,277.797 335.444,275.096C335.444,272.394 333.373,270.42 330.552,270.42C327.732,270.42 325.66,272.405 325.66,275.096ZM333.741,275.096C333.741,276.951 332.375,278.285 330.552,278.285C328.73,278.285 327.363,276.951 327.363,275.096C327.363,273.241 328.73,271.906 330.552,271.906C332.375,271.906 333.741,273.241 333.741,275.096Z" style="fill:rgb(0,79,129);fill-rule:nonzero;"/>
            </g>
        </g>
        <g transform="matrix(1,0,0,1,6480,4773.38)">
            <g transform="matrix(1,0,0,-1,190.829,462.619)">
                <path d="M344.479,279.631L340.52,270.54L338.86,270.54L334.89,279.631L336.723,279.631L339.75,272.623L342.798,279.631L344.479,279.631Z" style="fill:rgb(0,79,129);fill-rule:nonzero;"/>
            </g>
        </g>
        <g transform="matrix(1,0,0,1,6480,4773.38)">
            <g transform="matrix(1,0,0,-1,191.531,462.619)">
                <path d="M350.351,272.645L345.806,272.645L344.906,270.54L343.17,270.54L347.26,279.631L348.919,279.631L353.02,270.54L351.251,270.54L350.34,272.645L350.351,272.645ZM349.798,273.968L348.084,277.939L346.381,273.968L349.798,273.968Z" style="fill:rgb(0,79,129);fill-rule:nonzero;"/>
            </g>
        </g>
        <g transform="matrix(1,0,0,1,6480,4773.38)">
            <g transform="matrix(1,0,0,-1,192.671,462.619)">
                <path d="M364.235,276.398C364.235,274.402 362.76,273.165 360.362,273.165L358.312,273.165L358.312,270.54L356.62,270.54L356.62,279.631L360.362,279.631C362.749,279.631 364.235,278.405 364.235,276.398L364.235,276.398ZM362.532,276.398C362.532,277.537 361.762,278.199 360.286,278.199L358.312,278.199L358.312,274.586L360.286,274.586C361.762,274.586 362.532,275.248 362.532,276.387L362.532,276.398Z" style="fill:rgb(0,79,129);fill-rule:nonzero;"/>
            </g>
        </g>
        <g transform="matrix(1,0,0,1,6480,4773.38)">
            <g transform="matrix(1,0,0,-1,193.398,462.598)">
                <path d="M372.012,271.951L372.012,270.53L365.2,270.53L365.2,279.621L371.828,279.621L371.828,278.211L366.881,278.211L366.881,275.846L371.264,275.846L371.264,274.457L366.881,274.457L366.881,271.951L372.012,271.951Z" style="fill:rgb(0,79,129);fill-rule:nonzero;"/>
            </g>
        </g>
        <g transform="matrix(1,0,0,1,6480,4773.38)">
            <g transform="matrix(1,0,0,-1,194.017,462.629)">
                <path d="M372.521,271.516L373.107,272.828C373.833,272.243 374.994,271.83 376.101,271.83C377.511,271.83 378.107,272.34 378.107,273.013C378.107,274.976 372.705,273.685 372.705,277.059C372.705,278.524 373.877,279.771 376.361,279.771C377.457,279.771 378.596,279.489 379.387,278.968L378.856,277.656C378.042,278.133 377.142,278.372 376.35,278.372C374.951,278.372 374.376,277.829 374.376,277.135C374.376,275.204 379.767,276.463 379.767,273.121C379.767,271.668 378.585,270.42 376.09,270.42C374.68,270.42 373.258,270.865 372.51,271.516L372.521,271.516Z" style="fill:rgb(0,79,129);fill-rule:nonzero;"/>
            </g>
        </g>
        <g transform="matrix(1,0,0,1,6480,4773.38)">
            <g transform="matrix(1,0,0,-1,194.656,462.629)">
                <path d="M380.051,271.516L380.637,272.828C381.363,272.243 382.513,271.83 383.631,271.83C385.041,271.83 385.637,272.34 385.637,273.013C385.637,274.976 380.235,273.685 380.235,277.059C380.235,278.524 381.407,279.771 383.891,279.771C384.986,279.771 386.125,279.489 386.917,278.968L386.386,277.656C385.572,278.133 384.672,278.372 383.88,278.372C382.481,278.372 381.906,277.829 381.906,277.135C381.906,275.204 387.297,276.463 387.297,273.121C387.297,271.668 386.115,270.42 383.62,270.42C382.21,270.42 380.789,270.865 380.04,271.516L380.051,271.516Z" style="fill:rgb(0,79,129);fill-rule:nonzero;"/>
            </g>
        </g>
        <g transform="matrix(1,0,0,1,6480,4773.38)">
            <g transform="matrix(1,0,0,-1,195.303,462.629)">
                <path d="M387.68,275.096C387.68,277.786 389.752,279.771 392.572,279.771C395.393,279.771 397.464,277.797 397.464,275.096C397.464,272.394 395.393,270.42 392.572,270.42C389.752,270.42 387.68,272.405 387.68,275.096ZM395.761,275.096C395.761,276.951 394.395,278.285 392.572,278.285C390.75,278.285 389.383,276.951 389.383,275.096C389.383,273.241 390.75,271.906 392.572,271.906C394.395,271.906 395.761,273.241 395.761,275.096Z" style="fill:rgb(0,79,129);fill-rule:nonzero;"/>
            </g>
        </g>
        <g transform="matrix(1,0,0,1,6480,4773.38)">
            <g transform="matrix(1,0,0,-1,196.097,462.619)">
                <path d="M404.231,272.645L399.686,272.645L398.786,270.54L397.05,270.54L401.14,279.631L402.799,279.631L406.9,270.54L405.131,270.54L404.22,272.645L404.231,272.645ZM403.678,273.968L401.964,277.939L400.261,273.968L403.678,273.968Z" style="fill:rgb(0,79,129);fill-rule:nonzero;"/>
            </g>
        </g>
        <g transform="matrix(1,0,0,1,6480,4773.38)">
            <g transform="matrix(1,0,0,-1,197.186,462.618)">
                <path d="M409.911,275.085C409.911,277.797 411.983,279.76 414.781,279.76C416.257,279.76 417.537,279.229 418.372,278.242L417.276,277.222C416.615,277.938 415.801,278.285 414.846,278.285C412.959,278.285 411.603,276.962 411.603,275.096C411.603,273.23 412.97,271.906 414.846,271.906C415.79,271.906 416.615,272.253 417.276,272.98L418.372,271.939C417.526,270.952 416.257,270.42 414.76,270.42C411.983,270.42 409.9,272.384 409.9,275.096L409.911,275.085Z" style="fill:rgb(0,79,129);fill-rule:nonzero;"/>
            </g>
        </g>
        <g transform="matrix(1,0,0,1,6480,4773.38)">
            <g transform="matrix(1,0,0,-1,197.91,462.629)">
                <path d="M418.44,275.096C418.44,277.786 420.512,279.771 423.332,279.771C426.153,279.771 428.224,277.797 428.224,275.096C428.224,272.394 426.153,270.42 423.332,270.42C420.512,270.42 418.44,272.405 418.44,275.096ZM426.521,275.096C426.521,276.951 425.155,278.285 423.332,278.285C421.51,278.285 420.143,276.951 420.143,275.096C420.143,273.241 421.51,271.906 423.332,271.906C425.155,271.906 426.521,273.241 426.521,275.096Z" style="fill:rgb(0,79,129);fill-rule:nonzero;"/>
            </g>
        </g>
        <g transform="matrix(1,0,0,1,6480,4773.38)">
            <g transform="matrix(1,0,0,-1,198.814,462.619)">
                <path d="M429.11,279.631L430.802,279.631L430.802,271.972L435.553,271.972L435.553,270.54L429.121,270.54L429.121,279.631L429.11,279.631Z" style="fill:rgb(0,79,129);fill-rule:nonzero;"/>
            </g>
        </g>
        <g transform="matrix(1,0,0,1,6480,4773.38)">
            <g transform="matrix(1,0,0,-1,199.327,462.619)">
                <path d="M442.341,272.645L437.796,272.645L436.896,270.54L435.16,270.54L439.249,279.631L440.909,279.631L445.009,270.54L443.241,270.54L442.33,272.645L442.341,272.645ZM441.788,273.968L440.074,277.939L438.371,273.968L441.788,273.968Z" style="fill:rgb(0,79,129);fill-rule:nonzero;"/>
            </g>
        </g>
        <g transform="matrix(1,0,0,1,6480,4773.38)">
            <g transform="matrix(1,0,0,-1,200.187,462.598)">
                <path d="M453.381,272.993C453.381,271.43 452.166,270.53 449.822,270.53L445.31,270.53L445.31,279.621L449.573,279.621C451.753,279.621 452.925,278.699 452.925,277.256C452.925,276.323 452.458,275.629 451.753,275.26C452.73,274.945 453.391,274.186 453.391,273.003L453.381,272.993ZM446.991,278.287L446.991,275.781L449.378,275.781C450.549,275.781 451.211,276.193 451.211,277.028C451.211,277.863 450.549,278.287 449.378,278.287L446.991,278.287ZM451.677,273.155C451.677,274.067 450.994,274.468 449.714,274.468L446.991,274.468L446.991,271.843L449.714,271.843C450.983,271.843 451.677,272.244 451.677,273.155Z" style="fill:rgb(0,79,129);fill-rule:nonzero;"/>
            </g>
        </g>
        <g transform="matrix(1,0,0,1,6480,4773.38)">
            <g transform="matrix(1,0,0,-1,200.909,462.629)">
                <path d="M453.82,275.096C453.82,277.786 455.892,279.771 458.712,279.771C461.533,279.771 463.604,277.797 463.604,275.096C463.604,272.394 461.533,270.42 458.712,270.42C455.892,270.42 453.82,272.405 453.82,275.096ZM461.901,275.096C461.901,276.951 460.535,278.285 458.712,278.285C456.89,278.285 455.523,276.951 455.523,275.096C455.523,273.241 456.89,271.906 458.712,271.906C460.535,271.906 461.901,273.241 461.901,275.096Z" style="fill:rgb(0,79,129);fill-rule:nonzero;"/>
            </g>
        </g>
        <g transform="matrix(1,0,0,1,6480,4773.38)">
            <g transform="matrix(1,0,0,-1,201.814,462.619)">
                <path d="M470.444,270.54L468.59,273.198C468.47,273.187 468.351,273.187 468.242,273.187L466.192,273.187L466.192,270.54L464.5,270.54L464.5,279.631L468.242,279.631C470.629,279.631 472.115,278.405 472.115,276.398C472.115,275.02 471.41,274.012 470.184,273.534L472.278,270.551L470.455,270.551L470.444,270.54ZM468.156,278.199L466.181,278.199L466.181,274.576L468.156,274.576C469.631,274.576 470.401,275.248 470.401,276.398C470.401,277.548 469.631,278.199 468.156,278.199Z" style="fill:rgb(0,79,129);fill-rule:nonzero;"/>
            </g>
        </g>
        <g transform="matrix(1,0,0,1,6480,4773.38)">
            <g transform="matrix(1,0,0,-1,202.454,462.619)">
                <path d="M479.241,272.645L474.696,272.645L473.795,270.54L472.06,270.54L476.149,279.631L477.809,279.631L481.91,270.54L480.141,270.54L479.23,272.645L479.241,272.645ZM478.688,273.968L476.974,277.939L475.271,273.968L478.688,273.968Z" style="fill:rgb(0,79,129);fill-rule:nonzero;"/>
            </g>
        </g>
        <g transform="matrix(1,0,0,1,6480,4773.38)">
            <g transform="matrix(1,0,0,-1,203.316,462.619)">
                <path d="M482.22,279.631L486.19,279.631C489.141,279.631 491.147,277.819 491.147,275.086C491.147,272.352 489.141,270.54 486.19,270.54L482.22,270.54L482.22,279.631ZM486.114,271.972C488.143,271.972 489.444,273.209 489.444,275.086C489.444,276.962 488.132,278.199 486.114,278.199L483.912,278.199L483.912,271.972L486.114,271.972Z" style="fill:rgb(0,79,129);fill-rule:nonzero;"/>
            </g>
        </g>
        <g transform="matrix(1,0,0,1,6480,4773.38)">
            <g transform="matrix(1,0,0,-1,204.103,462.629)">
                <path d="M491.51,275.096C491.51,277.786 493.582,279.771 496.402,279.771C499.223,279.771 501.295,277.797 501.295,275.096C501.295,272.394 499.223,270.42 496.402,270.42C493.582,270.42 491.51,272.405 491.51,275.096ZM499.591,275.096C499.591,276.951 498.225,278.285 496.402,278.285C494.58,278.285 493.213,276.951 493.213,275.096C493.213,273.241 494.58,271.906 496.402,271.906C498.225,271.906 499.591,273.241 499.591,275.096Z" style="fill:rgb(0,79,129);fill-rule:nonzero;"/>
            </g>
        </g>
        <g transform="matrix(1,0,0,1,6480,4773.38)">
            <g transform="matrix(1,0,0,-1,205.007,462.619)">
                <path d="M508.124,270.54L506.27,273.198C506.15,273.187 506.031,273.187 505.922,273.187L503.872,273.187L503.872,270.54L502.18,270.54L502.18,279.631L505.922,279.631C508.309,279.631 509.795,278.405 509.795,276.398C509.795,275.02 509.09,274.012 507.864,273.534L509.958,270.551L508.135,270.551L508.124,270.54ZM505.836,278.199L503.861,278.199L503.861,274.576L505.836,274.576C507.311,274.576 508.081,275.248 508.081,276.398C508.081,277.548 507.311,278.199 505.836,278.199Z" style="fill:rgb(0,79,129);fill-rule:nonzero;"/>
            </g>
        </g>
        <g transform="matrix(1,0,0,1,6480,4773.38)">
            <g transform="matrix(1,0,0,-1,205.649,462.619)">
                <path d="M516.931,272.645L512.386,272.645L511.486,270.54L509.75,270.54L513.84,279.631L515.499,279.631L519.6,270.54L517.832,270.54L516.92,272.645L516.931,272.645ZM516.378,273.968L514.664,277.939L512.961,273.968L516.378,273.968Z" style="fill:rgb(0,79,129);fill-rule:nonzero;"/>
            </g>
        </g>
    </g>
</svg>
