<?xml version="1.0" encoding="UTF-8" standalone="no"?>
<!DOCTYPE svg PUBLIC "-//W3C//DTD SVG 1.1//EN" "http://www.w3.org/Graphics/SVG/1.1/DTD/svg11.dtd">
<svg width="100%" height="100%" viewBox="0 0 553 133" version="1.1" xmlns="http://www.w3.org/2000/svg" xmlns:xlink="http://www.w3.org/1999/xlink" xml:space="preserve" xmlns:serif="http://www.serif.com/" style="fill-rule:evenodd;clip-rule:evenodd;stroke-linejoin:round;stroke-miterlimit:2;">
    <g transform="matrix(1,0,0,1,-7534.33,-5385.32)">
        <g transform="matrix(1,0,0,1,6480,5202)">
            <g transform="matrix(1,0,0,1,997.609,33.17)">
                <g>
                    <g transform="matrix(1,0,0,-1,29.6631,319.43)">
                        <path d="M193.294,115.78C197.808,112.016 200.065,106.797 200.065,100.116C200.065,93.496 197.808,88.304 193.294,84.545C188.78,80.783 182.552,78.901 174.608,78.901L156.552,78.901L156.552,58.229L151.948,58.229L151.948,121.421L174.608,121.421C182.552,121.421 188.78,119.539 193.294,115.78M190.045,87.478C193.594,90.427 195.371,94.639 195.371,100.116C195.371,105.591 193.594,109.822 190.045,112.8C186.493,115.78 181.347,117.268 174.608,117.268L156.552,117.268L156.552,83.055L174.608,83.055C181.347,83.055 186.493,84.528 190.045,87.478" style="fill:white;"/>
                    </g>
                    <g transform="matrix(1,0,0,-1,17.3611,338.903)">
                        <path d="M265.99,100.181L225.458,100.181C225.577,96.508 226.51,93.243 228.256,90.386C230,87.526 232.364,85.314 235.342,83.749C238.322,82.184 241.676,81.403 245.408,81.403C248.477,81.403 251.321,81.959 253.939,83.073C256.557,84.186 258.738,85.826 260.484,87.992L263.102,85.014C261.055,82.546 258.483,80.65 255.383,79.327C252.284,78.002 248.93,77.34 245.318,77.34C240.624,77.34 236.439,78.363 232.77,80.41C229.099,82.455 226.224,85.285 224.148,88.896C222.072,92.507 221.034,96.628 221.034,101.263C221.034,105.836 222.011,109.944 223.967,113.586C225.923,117.227 228.617,120.071 232.047,122.117C235.478,124.162 239.329,125.185 243.603,125.185C247.875,125.185 251.712,124.178 255.113,122.162C258.512,120.145 261.19,117.333 263.147,113.721C265.102,110.11 266.082,106.016 266.082,101.444L265.99,100.181ZM234.666,119.002C232.016,117.527 229.894,115.45 228.302,112.773C226.705,110.095 225.787,107.07 225.547,103.701L261.658,103.701C261.477,107.07 260.574,110.08 258.95,112.728C257.324,115.376 255.188,117.452 252.54,118.957C249.89,120.46 246.912,121.214 243.603,121.214C240.293,121.214 237.313,120.477 234.666,119.002" style="fill:white;"/>
                    </g>
                    <g transform="matrix(1,0,0,-1,4.57056,338.541)">
                        <path d="M303.966,122.071C307.036,123.905 310.766,124.824 315.16,124.824L315.16,120.401L314.078,120.491C308.842,120.491 304.748,118.85 301.8,115.57C298.851,112.29 297.376,107.732 297.376,101.894L297.376,77.34L292.863,77.34L292.863,124.463L297.196,124.463L297.196,114.172C298.641,117.601 300.897,120.234 303.966,122.071" style="fill:white;"/>
                    </g>
                    <g transform="matrix(1,0,0,-1,-1.74658,326.82)">
                        <path d="M359.483,68.598C358.339,67.515 356.911,66.687 355.195,66.115C353.48,65.544 351.689,65.258 349.824,65.258C345.731,65.258 342.571,66.387 340.346,68.644C338.118,70.9 337.004,74.044 337.004,78.077L337.004,108.86L328.338,108.86L328.338,112.743L337.004,112.743L337.004,123.033L341.519,123.033L341.519,112.743L356.505,112.743L356.505,108.86L341.519,108.86L341.519,78.528C341.519,75.459 342.255,73.126 343.73,71.532C345.205,69.936 347.386,69.139 350.275,69.139C353.224,69.139 355.661,70.011 357.587,71.758L359.483,68.598Z" style="fill:white;"/>
                    </g>
                    <g transform="matrix(1,0,0,-1,-9.72607,338.903)">
                        <path d="M418.106,100.181L377.574,100.181C377.693,96.508 378.626,93.243 380.371,90.386C382.116,87.526 384.479,85.314 387.458,83.749C390.438,82.184 393.792,81.403 397.524,81.403C400.593,81.403 403.437,81.959 406.055,83.073C408.673,84.186 410.854,85.826 412.6,87.992L415.218,85.014C413.171,82.546 410.599,80.65 407.499,79.327C404.4,78.002 401.046,77.34 397.434,77.34C392.74,77.34 388.555,78.363 384.886,80.41C381.215,82.455 378.34,85.285 376.264,88.896C374.188,92.507 373.15,96.628 373.15,101.263C373.15,105.836 374.127,109.944 376.083,113.586C378.039,117.227 380.733,120.071 384.163,122.117C387.594,124.162 391.445,125.185 395.719,125.185C399.991,125.185 403.828,124.178 407.229,122.162C410.628,120.145 413.306,117.333 415.263,113.721C417.218,110.11 418.198,106.016 418.198,101.444L418.106,100.181ZM386.782,119.002C384.132,117.527 382.01,115.45 380.418,112.773C378.821,110.095 377.903,107.07 377.663,103.701L413.774,103.701C413.593,107.07 412.69,110.08 411.066,112.728C409.44,115.376 407.304,117.452 404.656,118.957C402.006,120.46 399.028,121.214 395.719,121.214C392.409,121.214 389.429,120.477 386.782,119.002" style="fill:white;"/>
                    </g>
                    <g transform="matrix(1,0,0,-1,-22.5166,338.542)">
                        <path d="M481.991,119.679C485.422,116.249 487.138,111.313 487.138,104.874L487.138,77.34L482.623,77.34L482.623,104.513C482.623,109.808 481.284,113.84 478.606,116.61C475.927,119.378 472.181,120.762 467.367,120.762C461.829,120.762 457.466,119.106 454.277,115.797C451.086,112.487 449.492,108.033 449.492,102.436L449.492,77.34L444.979,77.34L444.979,124.464L449.311,124.464L449.311,114.263C450.937,117.572 453.359,120.16 456.579,122.026C459.798,123.891 463.605,124.825 467.999,124.825C473.896,124.825 478.561,123.11 481.991,119.679" style="fill:white;"/>
                    </g>
                    <g transform="matrix(1,0,0,-1,-34.5833,338.902)">
                        <path d="M524.299,80.409C520.687,82.454 517.858,85.298 515.813,88.94C513.766,92.581 512.743,96.688 512.743,101.262C512.743,105.896 513.766,110.033 515.813,113.676C517.858,117.315 520.687,120.145 524.299,122.161C527.91,124.177 532.002,125.185 536.577,125.185C540.367,125.185 543.812,124.447 546.912,122.973C550.011,121.497 552.524,119.347 554.45,116.52L551.11,114.081C549.424,116.429 547.332,118.188 544.836,119.362C542.337,120.536 539.585,121.122 536.577,121.122C532.904,121.122 529.609,120.295 526.69,118.641C523.771,116.984 521.484,114.652 519.83,111.644C518.174,108.634 517.347,105.174 517.347,101.262C517.347,97.349 518.174,93.89 519.83,90.88C521.484,87.871 523.771,85.539 526.69,83.885C529.609,82.229 532.904,81.402 536.577,81.402C539.585,81.402 542.337,81.989 544.836,83.163C547.332,84.335 549.424,86.097 551.11,88.443L554.45,86.006C552.524,83.177 550.011,81.026 546.912,79.552C543.812,78.076 540.367,77.34 536.577,77.34C532.002,77.34 527.91,78.362 524.299,80.409" style="fill:white;"/>
                    </g>
                    <g transform="matrix(1,0,0,-1,-45.262,338.903)">
                        <path d="M617.668,100.181L577.136,100.181C577.255,96.508 578.188,93.243 579.933,90.386C581.678,87.526 584.041,85.314 587.02,83.749C590,82.184 593.354,81.403 597.086,81.403C600.155,81.403 602.999,81.959 605.617,83.073C608.235,84.186 610.416,85.826 612.162,87.992L614.78,85.014C612.733,82.546 610.161,80.65 607.061,79.327C603.962,78.002 600.608,77.34 596.996,77.34C592.302,77.34 588.117,78.363 584.448,80.41C580.777,82.455 577.902,85.285 575.826,88.896C573.75,92.507 572.712,96.628 572.712,101.263C572.712,105.836 573.689,109.944 575.646,113.586C577.601,117.227 580.295,120.071 583.725,122.117C587.156,124.162 591.006,125.185 595.281,125.185C599.553,125.185 603.39,124.178 606.791,122.162C610.19,120.145 612.868,117.333 614.825,113.721C616.78,110.11 617.76,106.016 617.76,101.444L617.668,100.181ZM586.344,119.002C583.694,117.527 581.572,115.45 579.979,112.773C578.383,110.095 577.465,107.07 577.225,103.701L613.336,103.701C613.155,107.07 612.252,110.08 610.628,112.728C609.002,115.376 606.866,117.452 604.218,118.957C601.568,120.46 598.59,121.214 595.281,121.214C591.971,121.214 588.991,120.477 586.344,119.002" style="fill:white;"/>
                    </g>
                    <g transform="matrix(1,0,0,-1,-58.0522,338.541)">
                        <path d="M655.644,122.071C658.714,123.905 662.444,124.824 666.838,124.824L666.838,120.401L665.756,120.491C660.52,120.491 656.426,118.85 653.478,115.57C650.529,112.29 649.054,107.732 649.054,101.894L649.054,77.34L644.541,77.34L644.541,124.463L648.874,124.463L648.874,114.172C650.319,117.601 652.575,120.234 655.644,122.071" style="fill:white;"/>
                    </g>
                    <g transform="matrix(1,0,0,-1,29.6631,210.625)">
                        <path d="M155.213,28.039L162.936,28.039L162.936,25.404L151.948,25.404L151.948,39.595L162.673,39.595L162.673,36.96L155.213,36.96L155.213,28.039ZM154.969,33.878L161.801,33.878L161.801,31.324L154.969,31.324L154.969,33.878Z" style="fill:white;"/>
                    </g>
                    <g transform="matrix(1,0,0,-1,195.214,185.221)">
                        <rect x="0" y="0" width="3.284" height="14.191" style="fill:white;"/>
                    </g>
                    <g transform="matrix(1,0,0,-1,25.2755,210.625)">
                        <path d="M176.588,25.404L176.588,39.595L179.305,39.595L187.677,29.377L186.36,29.377L186.36,39.595L189.603,39.595L189.603,25.404L186.907,25.404L178.514,35.622L179.831,35.622L179.831,25.404L176.588,25.404Z" style="fill:white;"/>
                    </g>
                    <g transform="matrix(1,0,0,-1,21.9683,210.573)">
                        <path d="M200.938,25.109C199.803,25.109 198.715,25.261 197.674,25.565C196.634,25.869 195.796,26.265 195.161,26.751L196.276,29.224C196.884,28.791 197.604,28.437 198.435,28.16C199.267,27.883 200.107,27.744 200.959,27.744C201.607,27.744 202.131,27.808 202.53,27.936C202.929,28.065 203.223,28.244 203.412,28.475C203.601,28.704 203.695,28.967 203.695,29.266C203.695,29.644 203.547,29.944 203.25,30.167C202.952,30.39 202.561,30.572 202.074,30.714C201.588,30.856 201.05,30.991 200.462,31.12C199.874,31.248 199.286,31.407 198.699,31.597C198.111,31.786 197.573,32.029 197.087,32.326C196.6,32.624 196.205,33.015 195.901,33.502C195.597,33.989 195.445,34.611 195.445,35.367C195.445,36.178 195.664,36.918 196.104,37.588C196.543,38.256 197.205,38.79 198.09,39.189C198.975,39.586 200.088,39.786 201.426,39.786C202.318,39.786 203.195,39.681 204.061,39.473C204.926,39.263 205.689,38.949 206.352,38.529L205.338,36.036C204.676,36.415 204.013,36.695 203.352,36.877C202.689,37.06 202.041,37.151 201.404,37.151C200.77,37.151 200.25,37.077 199.844,36.928C199.438,36.779 199.147,36.586 198.972,36.351C198.796,36.114 198.708,35.84 198.708,35.529C198.708,35.164 198.857,34.87 199.155,34.647C199.451,34.425 199.844,34.245 200.331,34.11C200.818,33.975 201.354,33.84 201.943,33.705C202.53,33.569 203.118,33.414 203.706,33.239C204.294,33.063 204.831,32.826 205.318,32.529C205.804,32.231 206.2,31.839 206.504,31.353C206.808,30.867 206.96,30.252 206.96,29.509C206.96,28.711 206.737,27.981 206.291,27.318C205.845,26.657 205.179,26.122 204.294,25.717C203.408,25.311 202.29,25.109 200.938,25.109" style="fill:white;"/>
                    </g>
                    <g transform="matrix(1,0,0,-1,19.3154,210.625)">
                        <path d="M214.6,25.404L214.6,36.919L210.059,36.919L210.059,39.595L222.425,39.595L222.425,36.919L217.883,36.919L217.883,25.404L214.6,25.404Z" style="fill:white;"/>
                    </g>
                    <g transform="matrix(1,0,0,-1,16.2542,210.625)">
                        <path d="M230.514,28.039L238.238,28.039L238.238,25.404L227.25,25.404L227.25,39.595L237.975,39.595L237.975,36.96L230.514,36.96L230.514,28.039ZM230.271,33.878L237.102,33.878L237.102,31.324L230.271,31.324L230.271,33.878Z" style="fill:white;"/>
                    </g>
                    <g transform="matrix(1,0,0,-1,257.107,185.221)">
                        <rect x="0" y="0" width="3.284" height="14.191" style="fill:white;"/>
                    </g>
                    <g transform="matrix(1,0,0,-1,11.8667,210.625)">
                        <path d="M251.889,25.404L251.889,39.595L254.607,39.595L262.979,29.377L261.661,29.377L261.661,39.595L264.905,39.595L264.905,25.404L262.209,25.404L253.816,35.622L255.133,35.622L255.133,25.404L251.889,25.404Z" style="fill:white;"/>
                    </g>
                    <g transform="matrix(1,0,0,-1,56.7202,282.201)">
                        <path d="M94.282,46.582C94.371,48.889 94.282,51.198 94.017,53.448C93.95,54.021 93.444,54.438 92.86,54.394C92.773,54.387 92.687,54.369 92.604,54.342L82.682,51.043C82.392,50.947 82.157,50.731 82.035,50.451C80.877,47.782 79.199,45.432 77.045,43.467C76.731,43.18 76.402,42.903 76.068,42.634L60.728,59.444C61.702,59.539 62.666,59.722 63.599,59.989L64.812,60.359L65.976,60.849C67.505,61.492 68.886,62.447 70.19,63.457C67.984,62.52 65.694,61.707 63.305,61.445C61.745,61.241 60.168,61.265 58.615,61.481C58.591,61.486 58.566,61.487 58.541,61.491C58.518,61.495 58.497,61.503 58.474,61.505C58.408,61.511 58.346,61.521 58.282,61.527C56.198,61.855 54.164,62.529 52.287,63.476C51.867,63.761 51.308,63.713 50.942,63.364C50.848,63.273 50.753,63.184 50.655,63.094C48.126,60.786 45.006,59.333 41.628,58.887C41.584,58.887 41.54,58.883 41.495,58.878C39.163,58.589 36.856,58.78 34.635,59.443C33.898,59.663 33.382,60.248 33.255,61.006C33.127,61.763 33.423,62.48 34.045,62.928L50.929,75.077C51.007,75.135 51.086,75.191 51.164,75.246L51.598,75.558C51.623,75.573 51.653,75.592 51.669,75.603C52.249,75.998 56.337,77.683 77.209,84.534C77.543,84.644 77.803,84.911 77.903,85.249C78.005,85.588 77.933,85.953 77.712,86.228C75.379,89.14 72.907,92.061 70.517,94.884C61.009,106.113 51.177,117.725 48.21,131.207C48.101,131.7 47.664,132.051 47.159,132.051C46.654,132.051 46.217,131.7 46.109,131.207C43.142,117.725 33.31,106.113 23.802,94.884C21.355,91.994 18.825,89.005 16.441,86.023C16.423,85.999 16.411,85.973 16.394,85.95C16.375,85.922 16.356,85.895 16.34,85.866C16.318,85.825 16.301,85.783 16.284,85.74C16.277,85.722 16.267,85.705 16.26,85.687L16.257,85.671C16.243,85.625 16.234,85.578 16.227,85.531C16.222,85.507 16.216,85.483 16.213,85.459C16.209,85.418 16.21,85.377 16.211,85.336C16.212,85.306 16.21,85.277 16.213,85.248C16.216,85.211 16.225,85.174 16.232,85.137C16.239,85.106 16.243,85.076 16.252,85.046C16.263,85.01 16.278,84.976 16.292,84.942C16.305,84.912 16.315,84.883 16.329,84.855C16.345,84.824 16.365,84.796 16.384,84.768C16.404,84.737 16.422,84.707 16.444,84.678C16.462,84.656 16.485,84.636 16.504,84.615C16.534,84.583 16.563,84.552 16.596,84.525L16.61,84.511C16.628,84.496 16.649,84.487 16.668,84.474C16.702,84.45 16.735,84.426 16.772,84.407C16.805,84.389 16.84,84.376 16.874,84.361C16.899,84.351 16.92,84.338 16.946,84.33C37.317,77.624 41.205,76.132 41.708,75.839C42.863,75.14 43.945,74.328 44.942,73.418L32.789,64.675C31.505,63.751 30.871,62.209 31.134,60.65C31.396,59.088 32.502,57.836 34.019,57.382C35.77,56.859 37.569,56.596 39.389,56.596C40.129,56.596 40.875,56.639 41.62,56.727C41.671,56.727 41.715,56.729 41.762,56.735C45.502,57.2 48.964,58.755 51.802,61.237C53.088,60.48 54.478,60.003 55.941,59.688C56.48,59.576 57.026,59.5 57.575,59.446C57.665,59.434 57.755,59.423 57.847,59.412L75.787,39.751C76.474,39 76.826,38.025 76.78,37.008C76.733,35.991 76.293,35.052 75.54,34.366C73.988,32.948 71.572,33.059 70.154,34.612L69.189,35.67L69.188,35.671L58.38,45.919L67.599,34.221L67.603,34.218C68.287,33.466 68.638,32.493 68.592,31.478C68.545,30.46 68.105,29.522 67.353,28.835C66.601,28.149 65.639,27.796 64.609,27.843C63.592,27.889 62.654,28.329 61.967,29.081L61.967,29.082L61.965,29.083L61,30.14C60.871,30.282 60.712,30.376 60.543,30.432L51.159,39.33L59.163,29.174C59.203,29 59.283,28.833 59.412,28.691L59.414,28.688C60.829,27.135 60.717,24.721 59.165,23.304C58.413,22.618 57.43,22.267 56.421,22.312C55.403,22.359 54.465,22.799 53.779,23.551L52.812,24.61L52.812,24.61C52.775,24.652 52.733,24.685 52.69,24.72L48.238,29.598C48.168,29.683 48.103,29.771 48.027,29.854C47.949,29.94 47.864,30.018 47.781,30.098L47.758,30.125C47.75,30.133 47.741,30.139 47.733,30.147C46.692,31.142 45.347,31.725 43.895,31.792C43.211,31.822 42.542,31.731 41.905,31.539C41.913,31.632 41.927,31.723 41.931,31.817C42.004,33.408 41.452,34.932 40.378,36.109C38.784,37.857 36.38,38.429 34.252,37.791C34.403,39.405 33.906,41.075 32.729,42.363C31.656,43.54 30.189,44.228 28.597,44.301C27.914,44.331 27.245,44.24 26.607,44.049C26.616,44.141 26.629,44.233 26.634,44.326C26.706,45.917 26.155,47.442 25.081,48.619C22.864,51.047 19.084,51.22 16.656,49.003L14.151,46.717C13.342,47.904 12.65,49.167 12.109,50.491C11.99,50.782 11.75,51.005 11.452,51.104L1.711,54.342C1.669,54.356 1.624,54.363 1.58,54.372C1.123,54.464 0.662,54.254 0.436,53.855C0.383,53.764 0.349,53.662 0.325,53.555C0.317,53.519 0.306,53.484 0.302,53.448C0.036,51.199 -0.053,48.889 0.035,46.582C0.012,45.963 0,45.416 0,44.911C0,20.147 21.156,0.001 47.159,0.001C73.163,0.001 94.318,20.147 94.318,44.911C94.318,45.415 94.307,45.948 94.282,46.582M75.058,86.091C74.918,86.045 74.783,86 74.644,85.954C74.584,86.242 74.522,86.53 74.463,86.817C74.661,86.575 74.862,86.333 75.058,86.091M74.133,87.219C74.225,86.771 74.318,86.324 74.41,85.877C74.074,85.767 73.743,85.658 73.417,85.55C73.325,86.016 73.235,86.482 73.14,86.949C73.13,86.993 73.119,87.036 73.108,87.081C72.984,87.691 72.859,88.302 72.732,88.912C73.201,88.348 73.668,87.784 74.133,87.219M72.38,89.333C72.563,88.47 72.735,87.607 72.908,86.743C72.918,86.701 72.918,86.659 72.929,86.616C73.006,86.232 73.079,85.848 73.154,85.463C72.791,85.344 72.433,85.225 72.083,85.11C72.073,85.163 72.063,85.216 72.053,85.271C72.042,85.313 72.042,85.355 72.032,85.397C71.683,87.302 71.341,89.207 70.887,91.112C71.386,90.521 71.883,89.928 72.38,89.333M68.874,93.496C69.407,92.865 69.946,92.229 70.485,91.59C71.03,89.415 71.409,87.24 71.8,85.064C71.804,85.049 71.804,85.034 71.807,85.018C71.417,84.889 71.035,84.762 70.659,84.638C70.169,87.667 69.667,90.698 68.676,93.728C68.742,93.651 68.808,93.573 68.874,93.496M68.15,94.351C69.31,91.081 69.851,87.81 70.363,84.539C69.945,84.4 69.535,84.264 69.134,84.131C68.5,88.659 67.736,93.188 65.316,97.717C66.258,96.59 67.204,95.468 68.15,94.351M47.159,126.841C47.23,126.619 47.305,126.398 47.379,126.177C47.246,126.219 47.114,126.26 46.98,126.302C47.04,126.482 47.102,126.661 47.159,126.841M46.921,126.125C47.1,126.069 47.276,126.013 47.453,125.958C47.554,125.658 47.66,125.359 47.767,125.062C47.408,125.179 47.045,125.296 46.677,125.414C46.76,125.65 46.841,125.887 46.921,126.125M46.614,125.239C47.032,125.106 47.443,124.972 47.847,124.839C47.96,124.533 48.076,124.229 48.194,123.925C47.596,124.128 46.985,124.332 46.361,124.535C46.448,124.769 46.53,125.004 46.614,125.239M46.294,124.362C46.973,124.14 47.635,123.918 48.283,123.696C48.406,123.383 48.533,123.072 48.663,122.761C47.813,123.063 46.931,123.365 46.024,123.668C46.116,123.899 46.206,124.13 46.294,124.362M45.957,123.495C46.923,123.172 47.859,122.848 48.761,122.525C48.899,122.198 49.041,121.874 49.186,121.549C48.066,121.967 46.893,122.383 45.671,122.8C45.768,123.031 45.865,123.263 45.957,123.495M45.597,122.622C46.887,122.18 48.122,121.738 49.298,121.297C49.452,120.955 49.611,120.614 49.772,120.275C48.366,120.825 46.873,121.376 45.298,121.925C45.399,122.157 45.5,122.39 45.597,122.622M45.22,121.75C46.871,121.17 48.431,120.591 49.898,120.011C50.073,119.647 50.251,119.285 50.435,118.925C48.723,119.631 46.881,120.338 44.906,121.045C45.013,121.279 45.117,121.515 45.22,121.75M44.823,120.868C46.887,120.125 48.805,119.383 50.581,118.641C50.78,118.254 50.984,117.868 51.191,117.483C49.158,118.376 46.927,119.268 44.492,120.161C44.605,120.396 44.714,120.632 44.823,120.868M44.407,119.983C46.944,119.048 49.257,118.113 51.356,117.178C51.589,116.751 51.826,116.325 52.069,115.902C49.697,117.022 47.033,118.143 44.052,119.264C44.171,119.503 44.291,119.742 44.407,119.983M43.963,119.083C47.066,117.91 49.822,116.737 52.263,115.565C52.543,115.084 52.829,114.605 53.121,114.127C50.392,115.534 47.232,116.941 43.585,118.348C43.713,118.593 43.839,118.837 43.963,119.083M43.488,118.161C47.287,116.688 50.554,115.215 53.356,113.742C53.702,113.181 54.058,112.624 54.418,112.068C51.321,113.85 47.589,115.632 43.09,117.414C43.225,117.662 43.358,117.911 43.488,118.161M42.987,117.223C47.688,115.352 51.546,113.481 54.717,111.61C55.184,110.902 55.663,110.197 56.151,109.497C52.687,111.815 48.258,114.134 42.56,116.451C42.704,116.708 42.846,116.965 42.987,117.223M42.448,116.253C48.462,113.792 53.056,111.332 56.592,108.872C57.381,107.758 58.193,106.653 59.024,105.558C55.269,108.858 49.881,112.158 41.992,115.458C42.146,115.722 42.297,115.988 42.448,116.253M41.873,115.256C50.691,111.546 56.365,107.836 60.123,104.126C61.427,102.45 62.768,100.793 64.125,99.149C67.274,94.107 68.136,89.067 68.819,84.025C68.368,83.875 67.927,83.728 67.499,83.584C66.907,88.62 66.057,93.657 62.891,98.692C62.87,98.735 62.837,98.777 62.817,98.819C59.499,104.023 53.458,109.225 41.382,114.429C41.548,114.703 41.711,114.979 41.873,115.256M41.254,114.219C53.356,108.973 59.365,103.726 62.637,98.481C62.658,98.439 62.69,98.397 62.711,98.354C65.763,93.394 66.599,88.432 67.158,83.47C66.676,83.309 66.209,83.152 65.756,83C65.308,87.671 64.559,92.343 61.919,97.014C61.887,97.056 61.867,97.098 61.845,97.14C58.734,102.548 52.889,107.953 40.725,113.36C40.903,113.646 41.079,113.932 41.254,114.219M40.587,113.142C52.756,107.696 58.557,102.248 61.623,96.802C61.645,96.76 61.677,96.718 61.698,96.676C64.241,92.077 64.97,87.477 65.391,82.877C64.873,82.703 64.374,82.534 63.891,82.37C63.574,86.69 62.935,91.009 60.748,95.33C60.727,95.375 60.705,95.417 60.685,95.462C57.803,101.057 52.189,106.652 40.016,112.247C40.209,112.545 40.399,112.843 40.587,113.142M39.869,112.023C52.034,106.39 57.599,100.756 60.431,95.124C60.452,95.082 60.473,95.04 60.494,94.997C62.588,90.745 63.203,86.49 63.497,82.237C62.943,82.049 62.41,81.867 61.902,81.694C61.701,85.679 61.185,89.665 59.407,93.652C59.386,93.696 59.365,93.739 59.354,93.783C56.723,99.553 51.357,105.321 39.254,111.09C39.462,111.4 39.666,111.711 39.869,112.023M39.094,110.851C51.18,105.05 56.482,99.247 59.059,93.446C59.08,93.404 59.091,93.362 59.112,93.319C60.819,89.398 61.311,85.474 61.49,81.552C60.888,81.346 60.318,81.149 59.782,80.964C59.685,84.634 59.292,88.303 57.866,91.973C57.855,92.015 57.845,92.058 57.824,92.1C55.479,98.026 50.392,103.955 38.432,109.881C38.655,110.203 38.875,110.527 39.094,110.851M38.257,109.627C50.178,103.673 55.203,97.721 57.497,91.767C57.507,91.725 57.529,91.683 57.549,91.641C58.909,88.032 59.274,84.423 59.348,80.814C58.697,80.587 58.092,80.376 57.536,80.18C57.534,83.551 57.258,86.923 56.145,90.295C56.135,90.337 56.114,90.38 56.103,90.422C54.05,96.483 49.272,102.546 37.539,108.607C37.78,108.946 38.02,109.286 38.257,109.627M37.352,108.344C49.033,102.258 53.746,96.175 55.734,90.089C55.755,90.044 55.766,90.002 55.776,89.957C56.83,86.642 57.081,83.328 57.064,80.013C56.346,79.758 55.708,79.529 55.143,79.323C55.227,82.421 55.07,85.519 54.224,88.617C54.214,88.659 54.192,88.701 54.183,88.743C52.472,94.853 48.102,100.965 36.933,107.073C36.86,107.116 36.775,107.158 36.702,107.201C36.66,107.224 36.615,107.247 36.573,107.271C36.835,107.628 37.095,107.986 37.352,108.344M36.37,106.995C36.448,106.951 36.529,106.906 36.606,106.863C36.68,106.82 36.765,106.778 36.839,106.735C47.849,100.627 52.124,94.52 53.771,88.411C53.781,88.366 53.802,88.324 53.813,88.279C54.612,85.233 54.749,82.188 54.649,79.142C53.809,78.833 53.145,78.581 52.618,78.374C52.776,81.228 52.719,84.084 52.092,86.938C52.082,86.98 52.071,87.023 52.06,87.065C50.689,93.174 46.772,99.286 36.332,105.395C36.258,105.438 36.185,105.479 36.121,105.522C35.929,105.638 35.729,105.754 35.53,105.87C35.812,106.244 36.092,106.619 36.37,106.995M35.31,105.579C35.534,105.447 35.757,105.316 35.973,105.184C36.037,105.142 36.111,105.1 36.185,105.057C46.487,98.948 50.308,92.836 51.616,86.727C51.616,86.685 51.627,86.642 51.638,86.6C52.221,83.787 52.258,80.974 52.087,78.161C50.942,77.693 50.651,77.511 50.481,77.396C50.446,77.374 50.399,77.345 50.374,77.327L49.922,77.002C49.914,76.997 49.908,76.992 49.901,76.988C50.153,79.746 50.212,82.503 49.759,85.26C49.759,85.302 49.748,85.345 49.738,85.387C48.704,91.496 45.22,97.608 35.466,103.716C35.392,103.759 35.33,103.801 35.267,103.844C34.986,104.025 34.693,104.205 34.397,104.386C34.704,104.782 35.008,105.18 35.31,105.579M34.155,104.075C34.461,103.885 34.764,103.696 35.055,103.506C35.118,103.463 35.192,103.421 35.255,103.379C44.893,97.27 48.282,91.158 49.252,85.049C49.263,85.007 49.263,84.964 49.273,84.922C49.701,82.14 49.611,79.358 49.331,76.576L46.935,74.853C47.334,77.762 47.558,80.672 47.236,83.582C47.236,83.623 47.226,83.666 47.226,83.708C46.519,89.818 43.446,95.924 34.337,102.033C34.263,102.078 34.2,102.12 34.136,102.165C33.823,102.381 33.495,102.597 33.162,102.812C33.495,103.232 33.827,103.653 34.155,104.075M19.098,85.885C19.624,86.535 20.157,87.185 20.694,87.833C21.452,86.8 22.076,85.767 22.582,84.734C21.481,85.098 20.323,85.481 19.098,85.885M23.529,84.42C22.933,85.737 22.146,87.054 21.141,88.372C21.715,89.064 22.29,89.753 22.867,90.44C24.965,88.041 26.298,85.641 27.069,83.242C25.97,83.609 24.791,84.002 23.529,84.42M27.904,82.963C27.128,85.621 25.677,88.278 23.283,90.935C23.816,91.568 24.347,92.199 24.877,92.825C28.536,89.187 30.349,85.55 31.034,81.913C30.074,82.237 29.031,82.587 27.904,82.963M31.778,81.662C31.135,85.533 29.248,89.403 25.256,93.273C25.319,93.347 25.381,93.422 25.444,93.495C25.876,94.005 26.308,94.517 26.742,95.029C26.758,95.013 26.774,94.997 26.79,94.982C32.147,90.219 34.215,85.458 34.623,80.696C33.77,80.988 32.825,81.309 31.778,81.662M35.296,80.466C34.96,85.417 32.891,90.369 27.254,95.32C27.202,95.361 27.148,95.404 27.106,95.446L27.1,95.452C27.556,95.994 28.013,96.536 28.468,97.079C28.584,96.984 28.704,96.888 28.816,96.792C28.87,96.747 28.922,96.705 28.975,96.66C35.831,90.958 37.879,85.259 37.916,79.558C37.168,79.82 36.301,80.121 35.296,80.466M41.009,79.887C41.009,79.412 40.992,78.937 40.967,78.462C40.379,78.681 39.595,78.966 38.54,79.339C38.582,85.225 36.558,91.11 29.387,96.998L29.228,97.125C29.09,97.241 28.943,97.357 28.799,97.474C29.224,97.981 29.647,98.491 30.069,99C30.302,98.823 30.537,98.647 30.759,98.471C30.811,98.428 30.864,98.386 30.917,98.344L30.917,98.343C38.792,92.235 40.977,86.123 41.009,80.014L41.009,79.887ZM43.803,77.046C43.481,77.266 43.154,77.477 42.821,77.679C42.696,77.755 42.504,77.87 41.552,78.239C41.594,78.899 41.616,79.559 41.61,80.22L41.61,80.351C41.526,86.461 39.256,92.567 31.286,98.676C31.223,98.722 31.17,98.763 31.107,98.809C30.871,98.994 30.621,99.18 30.372,99.366C30.764,99.842 31.154,100.319 31.544,100.798C31.852,100.582 32.158,100.365 32.447,100.149C32.5,100.106 32.564,100.065 32.627,100.022C41.04,93.913 43.616,87.801 43.943,81.692C43.943,81.65 43.954,81.607 43.954,81.565C44.029,80.06 43.958,78.553 43.803,77.046M44.34,76.661C44.533,78.407 44.619,80.152 44.513,81.898L44.513,82.03C44.122,88.139 41.462,94.245 32.933,100.355C32.87,100.4 32.817,100.442 32.754,100.487C32.456,100.706 32.143,100.925 31.825,101.145C32.187,101.591 32.547,102.038 32.904,102.487C33.239,102.267 33.569,102.047 33.883,101.828C33.947,101.785 34.01,101.743 34.073,101.7C43.077,95.592 46.054,89.48 46.698,83.37C46.698,83.328 46.708,83.286 46.708,83.244C46.984,80.491 46.772,77.738 46.391,74.987C45.739,75.584 45.054,76.143 44.34,76.661M92.167,44.911C92.167,44.44 92.157,43.971 92.141,43.503C87.407,41.234 82.976,39.302 78.9,37.763C78.832,38.454 78.647,39.121 78.35,39.741C82.577,41.248 87.2,43.195 92.162,45.517C92.166,45.308 92.167,45.105 92.167,44.911M78.928,37.244C82.99,38.794 87.407,40.735 92.12,43.008C92.09,42.349 92.043,41.693 91.982,41.042C87.17,38.674 82.66,36.641 78.527,35.025C78.757,35.62 78.898,36.253 78.928,36.91C78.933,37.022 78.928,37.133 78.928,37.244M78.095,40.216C77.925,40.501 77.733,40.776 77.514,41.034C77.849,41.307 78.178,41.589 78.495,41.879C78.919,42.266 79.321,42.671 79.712,43.084C83.556,44.432 87.718,46.134 92.162,48.147C92.16,47.64 92.152,47.132 92.131,46.624C92.13,46.596 92.13,46.568 92.131,46.54C92.139,46.361 92.144,46.193 92.149,46.03C87.091,43.678 82.385,41.716 78.095,40.216M80.48,43.941C81.335,44.943 82.103,46.012 82.768,47.149C85.706,48.212 88.815,49.465 92.083,50.893C92.127,50.161 92.152,49.426 92.158,48.689C88.009,46.821 84.107,45.229 80.48,43.941M92.014,51.88C92.027,51.737 92.033,51.593 92.044,51.45C88.944,50.106 85.988,48.92 83.187,47.906C83.405,48.315 83.616,48.728 83.811,49.152L92.014,51.88ZM76.99,32.777C77.51,33.251 77.928,33.805 78.246,34.41C82.444,36.053 87.031,38.128 91.935,40.555C91.866,39.907 91.779,39.262 91.68,38.622C83.643,34.571 76.455,31.46 70.468,29.683C70.449,29.678 70.427,29.669 70.408,29.664C70.6,30.209 70.713,30.786 70.74,31.379C70.744,31.469 70.746,31.56 70.747,31.649C72.805,30.827 75.246,31.186 76.99,32.777M82.856,20.642C62.375,9.889 49.817,7.933 40.517,9.585C40.457,9.602 40.388,9.608 40.328,9.624C31.075,11.328 24.766,16.305 18.238,21.033C18.187,21.06 18.146,21.097 18.105,21.134C18.114,20.922 18.12,20.711 18.138,20.508C18.179,20.471 18.22,20.433 18.271,20.407C24.835,15.72 31.172,10.774 40.5,9.152C40.56,9.136 40.629,9.13 40.689,9.114C50.063,7.544 62.727,9.628 83.402,20.597C83.549,20.671 83.701,20.757 83.846,20.831C84.104,20.967 84.369,21.111 84.63,21.25C84.102,20.498 83.549,19.763 82.973,19.045C63.091,8.436 50.644,6.082 41.42,7.298C41.351,7.304 41.282,7.31 41.222,7.328C41.286,7.176 41.348,7.027 41.422,6.886C41.491,6.881 41.55,6.864 41.619,6.858C50.743,5.731 63.046,8.128 82.515,18.479C81.817,17.639 81.086,16.825 80.326,16.037C62.689,6.848 51.128,4.402 42.463,5.166C42.394,5.172 42.325,5.178 42.255,5.184C32.306,6.116 25.66,10.708 18.863,15.138C18.81,15.167 18.769,15.204 18.715,15.234C18.752,15.051 18.776,14.862 18.813,14.68C18.863,14.653 18.914,14.626 18.955,14.589C25.78,10.19 32.459,5.625 42.482,4.775C42.446,4.845 42.408,4.912 42.369,4.979C42.408,4.912 42.446,4.845 42.482,4.775C42.551,4.768 42.621,4.762 42.699,4.767C51.219,4.081 62.55,6.513 79.676,15.377C78.656,14.363 77.581,13.396 76.46,12.481C61.704,5.144 51.477,2.831 43.658,3.193C43.577,3.191 43.508,3.197 43.437,3.207C33.116,3.727 26.312,8.144 19.395,12.44C19.344,12.466 19.294,12.494 19.253,12.531C19.27,12.441 19.292,12.357 19.313,12.272C19.292,12.357 19.27,12.441 19.253,12.531C17.707,13.491 16.173,14.466 14.61,15.408C13.318,16.694 12.111,18.056 10.994,19.487C13.708,18.004 16.247,16.327 18.813,14.68C18.776,14.862 18.752,15.051 18.715,15.234C15.968,17.017 13.248,18.83 10.305,20.395C9.5,21.483 8.747,22.607 8.051,23.766C11.785,21.997 15.08,19.74 18.401,17.511C18.442,17.474 18.493,17.447 18.534,17.41C25.238,12.878 31.76,8.137 41.422,6.886C41.348,7.027 41.286,7.176 41.222,7.328C31.625,8.65 25.146,13.427 18.47,17.991C18.426,18.03 18.376,18.057 18.332,18.097C14.895,20.428 11.482,22.785 7.569,24.586C6.974,25.626 6.427,26.694 5.923,27.785C10.499,25.917 14.315,23.208 18.138,20.508C18.12,20.711 18.114,20.922 18.105,21.134C14.201,23.921 10.298,26.71 5.566,28.578C5.118,29.604 4.712,30.649 4.347,31.714C9.649,29.856 13.851,26.779 18.022,23.669C18.023,23.725 18.022,23.779 18.022,23.835C18.022,23.779 18.023,23.725 18.022,23.669C18.073,23.642 18.114,23.605 18.156,23.568C24.582,18.727 30.732,13.575 39.717,11.573C39.786,11.567 39.846,11.551 39.906,11.534C48.947,9.594 61.044,11.05 80.756,20.95C80.893,21.014 81.027,21.079 81.172,21.153C82.82,21.974 84.534,22.866 86.296,23.815C85.882,23.124 85.449,22.444 84.995,21.777C84.421,21.47 83.847,21.163 83.285,20.871C83.142,20.794 82.999,20.719 82.856,20.642M58.234,3.463C54.69,2.607 50.979,2.151 47.159,2.151C35.069,2.151 24.078,6.705 15.984,14.1C17.116,13.407 18.242,12.706 19.373,12.012C19.424,11.986 19.465,11.949 19.515,11.921C26.451,7.646 33.288,3.255 43.682,2.817C43.761,2.821 43.839,2.825 43.908,2.819C51.492,2.53 61.36,4.771 75.397,11.64C72.981,9.786 70.361,8.163 67.573,6.809C64.193,5.396 61.091,4.294 58.234,3.463M80.677,21.264C80.533,21.189 80.4,21.123 80.266,21.057C60.739,11.363 48.747,10.034 39.772,12.046C39.712,12.063 39.643,12.069 39.583,12.086C30.663,14.16 24.549,19.353 18.151,24.225C18.11,24.262 18.069,24.3 18.027,24.337C13.797,27.523 9.525,30.661 4.085,32.504C3.751,33.549 3.459,34.611 3.209,35.688C9.16,33.902 13.66,30.505 18.084,27.026C18.084,27.249 18.096,27.48 18.107,27.713C13.649,31.267 9.103,34.722 3.03,36.483C2.806,37.544 2.624,38.619 2.485,39.708C5.4,38.955 7.96,37.807 10.305,36.422C10.48,36.159 10.669,35.903 10.886,35.665C11.768,34.698 12.918,34.068 14.182,33.831C15.27,33.024 16.328,32.184 17.371,31.327C17.628,30.639 18.01,29.986 18.535,29.41C19.425,28.435 20.566,27.825 21.772,27.586C22.88,26.637 23.994,25.695 25.131,24.779C25.389,24.193 25.739,23.643 26.184,23.156C27.166,22.08 28.479,21.418 29.913,21.256C30.72,20.726 31.55,20.22 32.402,19.741C32.606,18.715 33.077,17.729 33.833,16.901C33.971,16.749 34.117,16.606 34.268,16.471C28.094,19.262 23.273,23.557 18.239,27.613C18.198,27.65 18.148,27.676 18.107,27.713C18.096,27.48 18.084,27.249 18.084,27.026L18.207,26.915C24.485,21.909 30.436,16.546 39.106,14.194C39.168,14.175 39.228,14.159 39.29,14.14C48.007,11.839 59.575,12.71 78.388,21.611C78.513,21.667 78.637,21.723 78.771,21.789C81.558,23.088 84.534,24.599 87.666,26.283C87.326,25.616 86.967,24.961 86.591,24.315C84.545,23.215 82.57,22.196 80.677,21.264M2.151,44.911C2.151,45.399 2.163,45.931 2.186,46.54C2.188,46.568 2.188,46.596 2.186,46.624C2.167,47.112 2.158,47.598 2.157,48.085C5.769,47.374 8.814,46.031 11.537,44.331L11.272,44.089C10.568,43.448 10.045,42.664 9.718,41.799C7.457,43.047 4.978,44.053 2.154,44.674C2.153,44.754 2.151,44.832 2.151,44.911M17.089,32.349C16.524,32.814 15.952,33.272 15.375,33.724C15.936,33.731 16.485,33.817 17.012,33.975C16.962,33.433 16.992,32.886 17.089,32.349M24.794,25.767C24.111,26.331 23.435,26.902 22.764,27.478C22.823,27.477 22.883,27.469 22.943,27.469C23.52,27.469 24.098,27.557 24.658,27.724C24.649,27.632 24.636,27.541 24.632,27.448C24.605,26.874 24.663,26.31 24.794,25.767M32.31,20.413C31.856,20.675 31.414,20.949 30.974,21.226C31.43,21.255 31.878,21.336 32.309,21.466C32.277,21.116 32.281,20.764 32.31,20.413M9.488,41.054C9.405,40.697 9.351,40.331 9.334,39.957C9.297,39.137 9.428,38.336 9.708,37.59C7.503,38.831 5.098,39.853 2.385,40.532C2.269,41.619 2.195,42.719 2.165,43.829C4.888,43.216 7.291,42.248 9.488,41.054M78.327,21.947C78.203,21.891 78.069,21.826 77.944,21.77C59.307,13.064 47.835,12.311 39.183,14.683C39.124,14.7 39.064,14.716 39.005,14.732C38.757,14.803 38.52,14.884 38.277,14.958C39.553,14.966 40.773,15.375 41.79,16.133C42.86,15.907 43.975,15.731 45.14,15.61C46.126,14.963 47.265,14.631 48.41,14.631C49.498,14.631 50.588,14.927 51.549,15.523C58.084,15.974 66.067,18.031 76.271,22.551C76.395,22.607 76.52,22.662 76.644,22.718C80.353,24.325 84.43,26.342 88.797,28.681C88.515,28.031 88.218,27.391 87.905,26.759C84.516,24.938 81.31,23.319 78.327,21.947M42.309,16.563L43.237,17.409L44.003,16.57C44.117,16.445 44.24,16.33 44.362,16.217C43.659,16.311 42.976,16.428 42.309,16.563M76.256,22.937C76.131,22.882 76.016,22.837 75.891,22.782C66.23,18.555 58.578,16.561 52.266,16.052C52.319,16.098 52.375,16.138 52.428,16.186C53.032,16.738 53.505,17.395 53.835,18.118C59.491,18.669 66.203,20.393 74.413,23.778C74.538,23.834 74.653,23.879 74.778,23.935C79.228,25.712 84.269,28.141 89.738,31.048C89.508,30.41 89.262,29.778 89,29.154C84.404,26.697 80.126,24.591 76.256,22.937M74.435,24.206C74.317,24.162 74.202,24.117 74.074,24.065C66.113,20.83 59.571,19.168 54.04,18.629C54.227,19.167 54.338,19.734 54.365,20.318C54.369,20.407 54.371,20.496 54.371,20.585C54.985,20.339 55.642,20.195 56.323,20.164C57.843,20.096 59.298,20.6 60.451,21.581C64.144,22.343 68.235,23.548 72.814,25.293C72.939,25.349 73.045,25.384 73.16,25.429C78.214,27.278 84.077,30.024 90.509,33.401C90.322,32.766 90.12,32.137 89.903,31.515C84.23,28.505 79.016,26.005 74.435,24.206M72.873,25.762C72.756,25.719 72.64,25.674 72.522,25.631C68.319,24.055 64.531,22.938 61.087,22.202C61.663,22.861 62.079,23.63 62.319,24.462C65.129,25.072 68.164,25.93 71.466,27.087C71.572,27.121 71.687,27.167 71.793,27.201C77.34,29.06 83.881,32.019 91.127,35.762C90.98,35.127 90.82,34.498 90.645,33.874C84.043,30.419 78.037,27.622 72.873,25.762M71.547,27.591C71.441,27.555 71.326,27.511 71.22,27.476C69.83,26.999 68.492,26.577 67.194,26.202C67.775,26.459 68.319,26.806 68.802,27.246C69.383,27.776 69.842,28.401 70.17,29.089C70.233,29.11 70.295,29.127 70.359,29.147C70.465,29.182 70.571,29.217 70.667,29.241C76.592,31.04 83.685,34.134 91.602,38.142C91.494,37.502 91.373,36.867 91.236,36.238C83.843,32.434 77.179,29.441 71.547,27.591M62.559,26.115C63.173,25.869 63.83,25.726 64.511,25.695C64.86,25.679 65.205,25.699 65.547,25.742C64.481,25.46 63.451,25.215 62.446,25C62.499,25.279 62.539,25.561 62.552,25.848C62.556,25.938 62.559,26.027 62.559,26.115M49.524,24.999L51.434,22.906C51.981,22.194 52.258,21.323 52.216,20.416C52.17,19.399 51.73,18.461 50.978,17.774C49.424,16.357 47.01,16.468 45.592,18.02L44.826,18.859L47.642,21.43C48.707,22.401 49.337,23.673 49.524,24.999M41.053,28.651C41.761,29.297 42.666,29.647 43.618,29.647C43.677,29.647 43.737,29.646 43.797,29.643C44.698,29.602 45.537,29.25 46.195,28.647L46.649,28.15C47.838,26.597 47.663,24.36 46.193,23.018L40.807,18.105C40.056,17.418 39.087,17.062 38.064,17.112C37.046,17.159 36.107,17.598 35.421,18.351C34.005,19.903 34.115,22.319 35.667,23.736L36.129,24.158L41.053,28.651ZM32.351,33.945L33.403,34.905C34.134,35.572 35.055,35.9 35.972,35.9C37.007,35.9 38.039,35.482 38.79,34.659C39.477,33.906 39.828,32.932 39.782,31.915C39.735,30.897 39.296,29.96 38.544,29.273L37.372,28.204L34.217,25.326L34.212,25.321L33.159,24.359C31.605,22.941 29.19,23.052 27.772,24.606C27.086,25.358 26.733,26.332 26.78,27.35C26.827,28.367 27.267,29.305 28.019,29.992L28.611,30.532L32.345,33.939L32.351,33.945M25.755,41.16C26.463,41.807 27.368,42.157 28.32,42.157C28.38,42.157 28.44,42.155 28.499,42.153C29.516,42.106 30.455,41.666 31.141,40.914C32.558,39.362 32.447,36.947 30.896,35.529L28.811,33.626L25.51,30.614L25.509,30.614C23.957,29.196 21.541,29.307 20.123,30.86C18.707,32.413 18.817,34.829 20.369,36.246L20.831,36.667L25.755,41.16ZM18.106,47.415C18.836,48.081 19.757,48.409 20.675,48.409C21.71,48.409 22.741,47.992 23.492,47.169C24.909,45.616 24.799,43.2 23.246,41.782L19.844,38.677L18.92,37.834L18.92,37.834L17.861,36.869C17.11,36.182 16.141,35.828 15.117,35.876C14.099,35.923 13.162,36.362 12.475,37.114C11.789,37.867 11.436,38.841 11.482,39.859C11.529,40.876 11.969,41.814 12.721,42.501L18.106,47.415ZM10.312,49.217C10.918,47.826 11.672,46.499 12.548,45.254L12.134,44.876C9.266,46.738 6.042,48.203 2.164,48.943C2.18,49.927 2.226,50.906 2.309,51.877L10.312,49.217Z" style="fill:white;"/>
                    </g>
                </g>
            </g>
        </g>
    </g>
</svg>
