<svg id="a3efafdf-7585-4126-a70a-8a25208f089e" data-name="Layer 1" xmlns="http://www.w3.org/2000/svg" width="528.85" height="124.02" viewBox="0 0 528.85 124.02"><g id="b31ae82d-c795-471e-98a5-730bdc7a444e" data-name="HORIZONTAL 3"><path d="M133.41,91.39C129.85,76.4,121,61.05,108.29,48a100,100,0,0,0-10.55,9.18c-.22.21-.43.44-.65.65,11.1,11.3,18.84,24.42,21.83,37,2.75,11.57,1.1,21.11-4.65,26.86a19.45,19.45,0,0,1-8.48,4.87,29.06,29.06,0,0,1-8.68,1.07h0a44.31,44.31,0,0,1-8.68-1.07l-1-.22c-9.29-2.21-18.84-7-27.75-13.78a99.19,99.19,0,0,1-9.94-8.7C38.29,92.41,30.3,79,27.25,66.17,24.5,54.6,26.16,45.07,31.9,39.31c3.94-3.93,9.64-5.94,16.56-5.94a44.57,44.57,0,0,1,10.3,1.29c9.06,2.16,18.4,6.77,27.12,13.31l1.33-1.35a112.72,112.72,0,0,1,9.88-8.8C86.1,29.13,74,23,62.2,20.18a53.42,53.42,0,0,0-22.13-.93A34.05,34.05,0,0,0,11.83,47.48a53.59,53.59,0,0,0,.94,22.13c3.68,15.51,13.07,31.4,26.44,44.77S68.47,137.14,84,140.82l.88.21h0a59.9,59.9,0,0,0,12.23,1.48A59.9,59.9,0,0,0,109.32,141h0a34.12,34.12,0,0,0,15.46-8.81,34.83,34.83,0,0,0,9.54-18.69c.06-.32.12-.64.16-1A53.87,53.87,0,0,0,133.41,91.39Z" transform="translate(-11.08 -18.49)" style="fill:#fff"/><path d="M182.35,47.48a34,34,0,0,0-28.24-28.23,53.42,53.42,0,0,0-22.13.93c-11.83,2.81-23.9,9-34.89,17.64a114.37,114.37,0,0,1,9.88,8.8q.68.68,1.32,1.35c8.73-6.54,18.06-11.15,27.13-13.31a44.7,44.7,0,0,1,10.3-1.29c6.91,0,12.62,2,16.56,5.94,5.75,5.76,7.4,15.29,4.65,26.86-3.05,12.86-11,26.24-22.48,37.69a98.19,98.19,0,0,1-9.95,8.7c-8.9,6.8-18.45,11.57-27.74,13.78l-1,.22a44.4,44.4,0,0,1-8.68,1.07h0a29.06,29.06,0,0,1-8.68-1.07,19.45,19.45,0,0,1-8.48-4.87c-5.75-5.75-7.4-15.29-4.66-26.86,3-12.61,10.74-25.73,21.84-37l-.65-.65A98,98,0,0,0,85.88,48C73.22,61.05,64.33,76.4,60.77,91.39a54.07,54.07,0,0,0-1.1,21.17c0,.32.11.64.17,1a34.83,34.83,0,0,0,9.54,18.69A34.1,34.1,0,0,0,84.86,141h0c1,.28,2.12.52,3.21.73a46.68,46.68,0,0,0,8.45.75h.57A59.9,59.9,0,0,0,109.32,141h0l.86-.2c15.5-3.68,31.4-13.07,44.77-26.44s22.76-29.26,26.44-44.77A53.42,53.42,0,0,0,182.35,47.48Z" transform="translate(-11.08 -18.49)" style="fill:#fff"/><path d="M108.3,48a99.12,99.12,0,0,0-10.56,9.18l-.65.65-.65-.65A98,98,0,0,0,85.88,48l1.33-1.35a114.37,114.37,0,0,1,9.88-8.8,116.07,116.07,0,0,1,9.88,8.8Z" transform="translate(-11.08 -18.49)" style="fill:#fff"/><path d="M238.81,68.76v3.35H212.93V35.5H238v3.35H216.8v13h18.93v3.29H216.8v13.6Z" transform="translate(-11.08 -18.49)" style="fill:#fff"/><path d="M247.91,35.5h3.87V72.11h-3.87Z" transform="translate(-11.08 -18.49)" style="fill:#fff"/><path d="M294.3,35.5V72.11h-3.19L267.58,42.4V72.11h-3.87V35.5h3.19l23.58,29.7V35.5Z" transform="translate(-11.08 -18.49)" style="fill:#fff"/><path d="M302.72,67.66l1.51-3c2.62,2.56,7.27,4.44,12.08,4.44,6.85,0,9.83-2.87,9.83-6.48,0-10-22.53-3.87-22.53-17.41,0-5.39,4.18-10,13.49-10a20.61,20.61,0,0,1,11.34,3.24l-1.3,3.08a18.85,18.85,0,0,0-10-3c-6.7,0-9.68,3-9.68,6.64,0,10,22.54,4,22.54,17.31,0,5.39-4.29,10-13.65,10C310.82,72.42,305.44,70.48,302.72,67.66Z" transform="translate(-11.08 -18.49)" style="fill:#fff"/><path d="M345,38.85H332.11V35.5H361.7v3.35H348.84V72.11H345Z" transform="translate(-11.08 -18.49)" style="fill:#fff"/><path d="M393.76,68.76v3.35H367.87V35.5H393v3.35H371.74v13h18.93v3.29H371.74v13.6Z" transform="translate(-11.08 -18.49)" style="fill:#fff"/><path d="M402.86,35.5h3.87V72.11h-3.87Z" transform="translate(-11.08 -18.49)" style="fill:#fff"/><path d="M449.24,35.5V72.11h-3.19L422.52,42.4V72.11h-3.87V35.5h3.19l23.59,29.7V35.5Z" transform="translate(-11.08 -18.49)" style="fill:#fff"/><path d="M243.62,100.77c0,8.31-6.27,13.49-16.26,13.49H221v9.57H210.63V87.22h16.73C237.35,87.22,243.62,92.4,243.62,100.77Zm-10.45,0c0-3.4-2.15-5.39-6.44-5.39H221V106.1h5.75C231,106.1,233.17,104.12,233.17,100.77Z" transform="translate(-11.08 -18.49)" style="fill:#fff"/><path d="M278,115.83v8H248.65V87.22h28.7v8H258.9v6.17h16.26v7.73H258.9v6.7Z" transform="translate(-11.08 -18.49)" style="fill:#fff"/><path d="M299.79,114.1h-5.65v9.73H283.79V87.22h16.73c10,0,16.26,5.18,16.26,13.55a12.13,12.13,0,0,1-7.16,11.55l7.9,11.51H306.43Zm.1-18.72h-5.75V106.1h5.75c4.29,0,6.44-2,6.44-5.33S304.18,95.38,299.89,95.38Z" transform="translate(-11.08 -18.49)" style="fill:#fff"/><path d="M329.75,95.43H318.51V87.22H351.3v8.21H340.11v28.4H329.75Z" transform="translate(-11.08 -18.49)" style="fill:#fff"/><path d="M384.56,115.83v8H355.17V87.22h28.71v8H365.42v6.17h16.26v7.73H365.42v6.7Z" transform="translate(-11.08 -18.49)" style="fill:#fff"/><path d="M425.14,87.22v36.61h-8.53l-16.15-19.51v19.51H390.31V87.22h8.52L415,106.73V87.22Z" transform="translate(-11.08 -18.49)" style="fill:#fff"/><path d="M430.58,105.53c0-11.14,8.52-19,20.13-19,6.75,0,12.18,2.46,15.74,6.91l-6.59,6a10.79,10.79,0,0,0-8.63-4.29c-6,0-10.19,4.18-10.19,10.46S445.22,116,451.23,116a10.82,10.82,0,0,0,8.63-4.29l6.59,6c-3.56,4.44-9,6.9-15.74,6.9C439.1,124.56,430.58,116.67,430.58,105.53Z" transform="translate(-11.08 -18.49)" style="fill:#fff"/><path d="M500.44,115.83v8H471.05V87.22h28.71v8H481.3v6.17h16.27v7.73H481.3v6.7Z" transform="translate(-11.08 -18.49)" style="fill:#fff"/><path d="M522.2,114.1h-5.65v9.73H506.19V87.22h16.74c10,0,16.26,5.18,16.26,13.55A12.13,12.13,0,0,1,532,112.32l7.89,11.51H528.84Zm.1-18.72h-5.75V106.1h5.75c4.29,0,6.43-2,6.43-5.33S526.59,95.38,522.3,95.38Z" transform="translate(-11.08 -18.49)" style="fill:#fff"/></g></svg>