<?xml version="1.0" encoding="UTF-8" standalone="no"?>
<!DOCTYPE svg PUBLIC "-//W3C//DTD SVG 1.1//EN" "http://www.w3.org/Graphics/SVG/1.1/DTD/svg11.dtd">
<svg width="100%" height="100%" viewBox="0 0 69 55" version="1.1" xmlns="http://www.w3.org/2000/svg" xmlns:xlink="http://www.w3.org/1999/xlink" xml:space="preserve" xmlns:serif="http://www.serif.com/" style="fill-rule:evenodd;clip-rule:evenodd;stroke-linejoin:round;stroke-miterlimit:2;">
    <g transform="matrix(1,0,0,1,-16183.2,-14973.9)">
        <g transform="matrix(1,0,0,1,15120,14320.1)">
            <g transform="matrix(1.51573,0,0,1,-487.342,381.084)">
                <path d="M1052.48,279.417L1052.48,300.149C1052.43,302.083 1051.99,303.694 1051.14,304.983C1050.29,306.272 1049.22,306.952 1047.95,307.024L1038.88,307.024L1031.15,313.684C1031.01,313.827 1030.84,313.899 1030.65,313.899C1030.13,313.827 1029.85,313.398 1029.8,312.61L1029.8,307.024L1027.54,307.024C1026.26,306.952 1025.2,306.272 1024.35,304.983C1023.5,303.694 1023.05,302.083 1023,300.149L1023,279.417C1023.05,277.555 1023.5,275.979 1024.35,274.69C1025.2,273.401 1026.26,272.721 1027.54,272.649L1047.95,272.649C1049.22,272.721 1050.29,273.401 1051.14,274.69C1051.99,275.979 1052.43,277.555 1052.48,279.417ZM1033.2,305.95L1037.95,301.868L1047.95,301.868C1048.65,301.796 1049.03,301.223 1049.08,300.149L1049.08,279.524C1049.03,278.45 1048.65,277.877 1047.95,277.805L1027.54,277.805C1026.83,277.877 1026.45,278.45 1026.4,279.524L1026.4,300.149C1026.45,301.223 1026.83,301.796 1027.54,301.868L1033.2,301.868L1033.2,305.95ZM1041.14,313.899L1041.14,310.461L1044.55,310.461L1044.55,313.899C1044.59,314.973 1044.97,315.546 1045.68,315.618L1053.4,315.618L1058.15,319.7L1058.15,315.618L1063.82,315.618C1064.53,315.546 1064.91,314.973 1064.96,313.899L1064.96,293.274C1064.91,292.2 1064.53,291.627 1063.82,291.555L1054.75,291.555L1054.75,286.399L1063.82,286.399C1065.1,286.471 1066.16,287.151 1067.01,288.44C1067.86,289.729 1068.31,291.305 1068.36,293.167L1068.36,313.899C1068.31,315.833 1067.86,317.444 1067.01,318.733C1066.16,320.022 1065.1,320.702 1063.82,320.774L1061.55,320.774L1061.55,326.36C1061.51,327.148 1061.22,327.577 1060.7,327.649C1060.52,327.649 1060.35,327.577 1060.21,327.434L1052.48,320.774L1045.68,320.774C1044.4,320.702 1043.34,320.022 1042.49,318.733C1041.64,317.444 1041.19,315.833 1041.14,313.899Z" style="fill:rgb(112,112,112);fill-rule:nonzero;"/>
            </g>
        </g>
    </g>
</svg>
