<?xml version="1.0" encoding="UTF-8" standalone="no"?>
<!DOCTYPE svg PUBLIC "-//W3C//DTD SVG 1.1//EN" "http://www.w3.org/Graphics/SVG/1.1/DTD/svg11.dtd">
<svg width="100%" height="100%" viewBox="0 0 62 62" version="1.1" xmlns="http://www.w3.org/2000/svg" xmlns:xlink="http://www.w3.org/1999/xlink" xml:space="preserve" xmlns:serif="http://www.serif.com/" style="fill-rule:evenodd;clip-rule:evenodd;stroke-linejoin:round;stroke-miterlimit:2;">
    <g transform="matrix(1,0,0,1,-2837.64,300.963)">
        <g transform="matrix(1,0,0,1,1803.93,-353.661)">
            <path d="M1064.7,114.698C1070.52,114.618 1075.72,113.205 1080.33,110.46C1085.01,107.715 1088.72,104.002 1091.47,99.319C1094.21,94.718 1095.62,89.511 1095.7,83.698C1095.62,77.886 1094.21,72.679 1091.47,68.077C1088.72,63.395 1085.01,59.681 1080.33,56.937C1075.72,54.192 1070.52,52.779 1064.7,52.698C1058.89,52.779 1053.69,54.192 1049.08,56.937C1044.4,59.681 1040.69,63.395 1037.94,68.077C1035.2,72.679 1033.79,77.886 1033.7,83.698C1033.79,89.511 1035.2,94.718 1037.94,99.319C1040.69,104.002 1044.4,107.715 1049.08,110.46C1053.69,113.205 1058.89,114.618 1064.7,114.698ZM1054.05,74.979C1054.13,73.042 1054.78,71.427 1055.99,70.136C1057.28,68.925 1058.89,68.279 1060.83,68.198L1067.73,68.198C1069.91,68.279 1071.73,69.046 1073.18,70.499C1074.55,71.871 1075.28,73.647 1075.36,75.827C1075.28,78.733 1073.99,80.953 1071.49,82.487L1067.61,84.667L1067.61,87.573L1061.8,87.573L1061.8,81.397L1063.25,80.55L1068.58,77.401C1069.23,77.078 1069.55,76.554 1069.55,75.827C1069.47,74.697 1068.86,74.091 1067.73,74.011L1060.83,74.011C1060.27,74.091 1059.94,74.414 1059.86,74.979L1059.86,75.827L1054.05,75.827L1054.05,74.979ZM1061.8,97.261L1061.8,91.448L1067.61,91.448L1067.61,97.261L1061.8,97.261Z" style="fill:rgb(27,31,69);fill-rule:nonzero;"/>
        </g>
    </g>
</svg>
