<?xml version="1.0" encoding="UTF-8" standalone="no"?>
<!DOCTYPE svg PUBLIC "-//W3C//DTD SVG 1.1//EN" "http://www.w3.org/Graphics/SVG/1.1/DTD/svg11.dtd">
<svg width="100%" height="100%" viewBox="0 0 62 62" version="1.1" xmlns="http://www.w3.org/2000/svg" xmlns:xlink="http://www.w3.org/1999/xlink" xml:space="preserve" xmlns:serif="http://www.serif.com/" style="fill-rule:evenodd;clip-rule:evenodd;stroke-linejoin:round;stroke-miterlimit:2;">
    <g transform="matrix(1,0,0,1,-7474.71,-4811.63)">
        <g transform="matrix(1,0,0,1,6480,4773.38)">
            <path d="M1025.7,38.259C1019.89,38.34 1014.69,39.752 1010.08,42.497C1005.4,45.242 1001.69,48.955 998.943,53.638C996.199,58.239 994.786,63.446 994.705,69.259C994.786,75.071 996.199,80.278 998.943,84.88C1001.69,89.562 1005.4,93.276 1010.08,96.021C1014.69,98.765 1019.89,100.178 1025.7,100.259C1031.52,100.178 1036.72,98.765 1041.33,96.021C1046.01,93.276 1049.72,89.562 1052.47,84.88C1055.21,80.278 1056.62,75.071 1056.7,69.259C1056.62,63.446 1055.21,58.239 1052.47,53.638C1049.72,48.955 1046.01,45.242 1041.33,42.497C1036.72,39.752 1031.52,38.34 1025.7,38.259ZM1025.7,94.446C1018.6,94.285 1012.67,91.823 1007.9,87.06C1003.14,82.297 1000.68,76.363 1000.52,69.259C1000.68,62.155 1003.14,56.221 1007.9,51.458C1012.67,46.695 1018.6,44.233 1025.7,44.071C1032.81,44.233 1038.74,46.695 1043.51,51.458C1048.27,56.221 1050.73,62.155 1050.89,69.259C1050.73,76.363 1048.27,82.297 1043.51,87.06C1038.74,91.823 1032.81,94.285 1025.7,94.446ZM1025.7,78.946C1024.58,78.946 1023.65,79.31 1022.92,80.036C1022.19,80.763 1021.83,81.691 1021.83,82.821C1021.99,85.243 1023.28,86.535 1025.7,86.696C1026.76,86.696 1027.64,86.333 1028.37,85.606C1029.18,84.88 1029.58,83.951 1029.58,82.821C1029.58,81.691 1029.18,80.763 1028.37,80.036C1027.64,79.31 1026.76,78.946 1025.7,78.946ZM1029.7,53.759L1023.52,53.759C1021.1,53.84 1019.09,54.647 1017.47,56.181C1015.94,57.795 1015.13,59.813 1015.05,62.235C1015.21,64.011 1016.18,64.98 1017.96,65.142C1019.73,64.98 1020.7,64.011 1020.86,62.235C1021.02,60.621 1021.87,59.733 1023.4,59.571L1029.58,59.571C1031.36,59.733 1032.33,60.621 1032.49,62.235C1032.49,63.204 1032.04,63.931 1031.15,64.415L1024.25,68.653C1023.28,69.299 1022.8,70.147 1022.8,71.196L1022.8,73.134C1022.96,74.91 1023.93,75.879 1025.7,76.04C1027.48,75.879 1028.45,74.91 1028.61,73.134L1028.61,72.892L1034.06,69.501C1036.72,67.725 1038.1,65.303 1038.18,62.235C1038.18,59.813 1037.37,57.795 1035.76,56.181C1034.22,54.647 1032.2,53.84 1029.7,53.759Z" style="fill:rgb(0,79,129);fill-rule:nonzero;"/>
        </g>
    </g>
</svg>
