<?xml version="1.0" encoding="UTF-8" standalone="no"?>
<!DOCTYPE svg PUBLIC "-//W3C//DTD SVG 1.1//EN" "http://www.w3.org/Graphics/SVG/1.1/DTD/svg11.dtd">
<svg width="100%" height="100%" viewBox="0 0 55 42" version="1.1" xmlns="http://www.w3.org/2000/svg" xmlns:xlink="http://www.w3.org/1999/xlink" xml:space="preserve" xmlns:serif="http://www.serif.com/" style="fill-rule:evenodd;clip-rule:evenodd;stroke-linejoin:round;stroke-miterlimit:2;">
    <g transform="matrix(1,0,0,1,-16315,-14599.6)">
        <g transform="matrix(1,0,0,1,15120,14320.1)">
            <path d="M1195,286.399C1195.07,284.465 1195.75,282.854 1197.04,281.565C1198.33,280.276 1199.94,279.596 1201.88,279.524L1243.12,279.524C1245.06,279.596 1246.67,280.276 1247.96,281.565C1249.25,282.854 1249.93,284.465 1250,286.399L1250,313.899C1249.93,315.833 1249.25,317.444 1247.96,318.733C1246.67,320.022 1245.06,320.702 1243.12,320.774L1201.88,320.774C1199.94,320.702 1198.33,320.022 1197.04,318.733C1195.75,317.444 1195.07,315.833 1195,313.899L1195,286.399ZM1200.16,286.292L1200.16,288.762L1218.74,304.016C1219.89,304.875 1221.14,305.305 1222.5,305.305C1223.86,305.305 1225.15,304.875 1226.37,304.016L1244.84,288.762L1244.84,286.292C1244.77,285.289 1244.2,284.716 1243.12,284.573L1201.88,284.573C1200.8,284.716 1200.23,285.289 1200.16,286.292ZM1200.16,295.422L1200.16,313.899C1200.23,314.973 1200.8,315.546 1201.88,315.618L1243.12,315.618C1244.2,315.546 1244.77,314.973 1244.84,313.899L1244.84,295.422L1229.59,307.991C1227.44,309.638 1225.08,310.461 1222.5,310.461C1219.92,310.461 1217.52,309.638 1215.3,307.991L1200.16,295.422Z" style="fill:rgb(112,112,112);fill-rule:nonzero;"/>
        </g>
    </g>
</svg>
