<?xml version="1.0" encoding="UTF-8" standalone="no"?>
<!DOCTYPE svg PUBLIC "-//W3C//DTD SVG 1.1//EN" "http://www.w3.org/Graphics/SVG/1.1/DTD/svg11.dtd">
<svg width="100%" height="100%" viewBox="0 0 30 30" version="1.1" xmlns="http://www.w3.org/2000/svg" xmlns:xlink="http://www.w3.org/1999/xlink" xml:space="preserve" xmlns:serif="http://www.serif.com/" style="fill-rule:evenodd;clip-rule:evenodd;stroke-linejoin:round;stroke-miterlimit:2;">
    <g transform="matrix(1,0,0,1,-72,-1537.9)">
        <g>
            <path d="M95.906,1546.2C95.906,1546.91 95.672,1547.48 95.203,1547.9C94.773,1548.33 94.227,1548.55 93.563,1548.55C92.898,1548.55 92.352,1548.33 91.922,1547.9C91.453,1547.48 91.219,1546.91 91.219,1546.2C91.219,1545.58 91.453,1545.03 91.922,1544.56C92.352,1544.13 92.898,1543.9 93.563,1543.86C94.227,1543.9 94.773,1544.13 95.203,1544.56C95.672,1545.03 95.906,1545.58 95.906,1546.2ZM94.5,1556.11L94.5,1560.91C94.461,1562.51 93.777,1563.73 92.449,1564.55L87.234,1567.65C86.766,1567.88 86.297,1567.88 85.828,1567.65C85.359,1567.38 85.125,1566.97 85.125,1566.42L85.125,1559.68C85.125,1558.31 84.637,1557.12 83.66,1556.11C82.684,1555.17 81.512,1554.7 80.145,1554.7L73.406,1554.7C72.859,1554.7 72.449,1554.47 72.176,1554C71.941,1553.53 71.941,1553.06 72.176,1552.59L75.281,1547.38C76.102,1546.05 77.313,1545.35 78.914,1545.27L83.719,1545.27C85.359,1542.77 87.176,1540.95 89.168,1539.82C91.199,1538.73 93.191,1538.1 95.145,1537.94C97.098,1537.75 98.836,1537.81 100.359,1538.12C101.063,1538.31 101.512,1538.76 101.707,1539.47C102.02,1540.99 102.078,1542.73 101.883,1544.68C101.727,1546.63 101.082,1548.63 99.949,1550.66C98.855,1552.65 97.039,1554.47 94.5,1556.11ZM83.602,1552.71C84.383,1553.06 85.047,1553.55 85.594,1554.17C86.258,1554.8 86.766,1555.48 87.117,1556.23C90.203,1555.33 92.566,1554.21 94.207,1552.88C95.887,1551.6 97.078,1550.25 97.781,1548.84C98.484,1547.48 98.914,1546.09 99.07,1544.68C99.227,1543.28 99.227,1541.97 99.07,1540.76C97.859,1540.6 96.551,1540.6 95.145,1540.76C93.738,1540.91 92.332,1541.34 90.926,1542.05C89.559,1542.75 88.23,1543.94 86.941,1545.62C85.613,1547.26 84.5,1549.62 83.602,1552.71ZM74.461,1558.1C75.516,1557.08 76.727,1556.58 78.094,1556.58C79.461,1556.58 80.691,1557.08 81.785,1558.1C82.762,1559.15 83.25,1560.37 83.25,1561.73C83.25,1563.1 82.762,1564.31 81.785,1565.37C80.73,1566.3 79.441,1566.95 77.918,1567.3C76.434,1567.61 75.105,1567.79 73.934,1567.83L72,1567.83L72,1565.89C72.039,1564.72 72.215,1563.37 72.527,1561.85C72.879,1560.37 73.523,1559.12 74.461,1558.1ZM75.809,1564.02C75.848,1564.06 76.258,1564.06 77.039,1564.02C77.82,1563.94 78.484,1563.69 79.031,1563.26C79.344,1562.9 79.5,1562.49 79.5,1562.03C79.5,1561.56 79.344,1561.15 79.031,1560.8C78.68,1560.48 78.27,1560.33 77.801,1560.33C77.332,1560.33 76.922,1560.48 76.57,1560.8C76.141,1561.34 75.887,1562.01 75.809,1562.79C75.77,1563.53 75.77,1563.94 75.809,1564.02Z" style="fill:rgb(0,164,225);fill-rule:nonzero;"/>
        </g>
    </g>
</svg>
