<?xml version="1.0" encoding="UTF-8" standalone="no"?>
<!DOCTYPE svg PUBLIC "-//W3C//DTD SVG 1.1//EN" "http://www.w3.org/Graphics/SVG/1.1/DTD/svg11.dtd">
<svg width="100%" height="100%" viewBox="0 0 30 40" version="1.1" xmlns="http://www.w3.org/2000/svg" xmlns:xlink="http://www.w3.org/1999/xlink" xml:space="preserve" xmlns:serif="http://www.serif.com/" style="fill-rule:evenodd;clip-rule:evenodd;stroke-linejoin:round;stroke-miterlimit:2;">
    <g transform="matrix(1,0,0,1,-8026.5,-4924.95)">
        <g transform="matrix(1,0,0,1,6480,4773.38)">
            <g transform="matrix(1,0,0,1,-290.503,-205.626)">
                <path d="M1853.88,376.184L1856.77,378.137C1857.7,378.866 1857.86,379.725 1857.23,380.715C1856.56,381.652 1855.72,381.809 1854.73,381.184L1850.98,378.684C1850.41,378.371 1850.12,377.85 1850.12,377.121L1850.12,370.871C1850.12,370.35 1850.31,369.908 1850.67,369.543C1851.04,369.178 1851.48,368.996 1852,368.996C1852.52,368.996 1852.96,369.178 1853.33,369.543C1853.69,369.908 1853.88,370.35 1853.88,370.871L1853.88,376.184ZM1858.25,357.199C1859.29,357.251 1860.18,357.616 1860.91,358.293C1861.58,359.022 1861.95,359.908 1862,360.949L1862,365.949L1861.84,365.949C1863.46,367.355 1864.71,369.022 1865.59,370.949C1866.53,372.876 1867,374.96 1867,377.199C1867,379.439 1866.53,381.522 1865.59,383.449C1864.71,385.376 1863.46,387.043 1861.84,388.449L1862,388.449L1862,393.449C1861.95,394.491 1861.58,395.376 1860.91,396.105C1860.18,396.783 1859.29,397.147 1858.25,397.199L1845.75,397.199C1844.71,397.147 1843.82,396.783 1843.09,396.105C1842.42,395.376 1842.05,394.491 1842,393.449L1842,388.449L1842.08,388.449C1840.52,387.043 1839.29,385.376 1838.41,383.449C1837.47,381.522 1837,379.439 1837,377.199C1837,374.96 1837.47,372.876 1838.41,370.949C1839.29,369.022 1840.52,367.355 1842.08,365.949L1842,365.949L1842,360.949C1842.05,359.908 1842.42,359.022 1843.09,358.293C1843.82,357.616 1844.71,357.251 1845.75,357.199L1858.25,357.199ZM1852,365.949C1848.82,366.053 1846.17,367.147 1844.03,369.23C1841.95,371.366 1840.85,374.022 1840.75,377.199C1840.85,380.376 1841.95,383.033 1844.03,385.168C1846.17,387.251 1848.82,388.345 1852,388.449C1855.18,388.345 1857.83,387.251 1859.97,385.168C1862.05,383.033 1863.15,380.376 1863.25,377.199C1863.15,374.022 1862.05,371.366 1859.97,369.23C1857.83,367.147 1855.18,366.053 1852,365.949Z" style="fill:rgb(0,79,129);fill-rule:nonzero;"/>
            </g>
        </g>
    </g>
</svg>
