<?xml version="1.0" encoding="UTF-8" standalone="no"?>
<!DOCTYPE svg PUBLIC "-//W3C//DTD SVG 1.1//EN" "http://www.w3.org/Graphics/SVG/1.1/DTD/svg11.dtd">
<svg width="100%" height="100%" viewBox="0 0 55 55" version="1.1" xmlns="http://www.w3.org/2000/svg" xmlns:xlink="http://www.w3.org/1999/xlink" xml:space="preserve" xmlns:serif="http://www.serif.com/" style="fill-rule:evenodd;clip-rule:evenodd;">
    <g transform="matrix(1,0,0,1,-10401.6,-15880)">
        <g transform="matrix(1,0,0,1,8640,15606)">
            <g transform="matrix(1,0,0,1,-63.6797,-349.318)">
                <g transform="matrix(1,0,0,-1,1830,673)">
                    <path d="M1.5,10L1.5,35C1.5,35.558 1.554,36.111 1.663,36.658C1.772,37.206 1.933,37.737 2.147,38.253C2.361,38.768 2.622,39.258 2.933,39.722C3.243,40.186 3.595,40.616 3.99,41.01C4.384,41.405 4.814,41.757 5.278,42.067C5.742,42.378 6.232,42.639 6.747,42.853C7.263,43.067 7.794,43.228 8.342,43.337C8.889,43.446 9.442,43.5 10,43.5L35,43.5C35.558,43.5 36.111,43.446 36.658,43.337C37.206,43.228 37.737,43.067 38.253,42.853C38.768,42.639 39.258,42.378 39.722,42.067C40.186,41.757 40.616,41.405 41.01,41.01C41.405,40.616 41.757,40.186 42.067,39.722C42.378,39.258 42.639,38.768 42.853,38.253C43.067,37.737 43.228,37.206 43.337,36.658C43.446,36.111 43.5,35.558 43.5,35L43.5,10C43.5,9.442 43.446,8.889 43.337,8.342C43.228,7.794 43.067,7.263 42.853,6.747C42.639,6.232 42.378,5.742 42.067,5.278C41.757,4.814 41.405,4.384 41.01,3.99C40.616,3.595 40.186,3.243 39.722,2.933C39.258,2.622 38.768,2.361 38.253,2.147C37.737,1.933 37.206,1.772 36.658,1.663C36.111,1.554 35.558,1.5 35,1.5L10,1.5C9.442,1.5 8.889,1.554 8.342,1.663C7.794,1.772 7.263,1.933 6.747,2.147C6.232,2.361 5.742,2.622 5.278,2.933C4.814,3.243 4.384,3.595 3.99,3.99C3.595,4.384 3.243,4.814 2.933,5.278C2.622,5.742 2.361,6.232 2.147,6.747C1.933,7.263 1.772,7.794 1.663,8.342C1.554,8.889 1.5,9.442 1.5,10Z" style="fill:none;stroke:rgb(27,31,69);stroke-width:3px;"/>
                </g>
                <g transform="matrix(1,0,0,-1,1836.36,656.554)">
                    <path d="M16.144,19.288C11.646,19.288 8,15.642 8,11.144C8,6.646 11.646,3 16.144,3C20.642,3 24.288,6.646 24.288,11.144C24.282,15.639 20.639,19.282 16.144,19.288L16.144,19.288ZM16.144,5.036C12.771,5.036 10.036,7.771 10.036,11.144C10.036,14.517 12.771,17.252 16.144,17.252C19.517,17.252 22.252,14.517 22.252,11.144C22.249,7.772 19.516,5.039 16.144,5.036L16.144,5.036Z" style="fill:rgb(27,31,69);"/>
                </g>
                <g transform="matrix(1,0,0,-1,1836.23,684.751)">
                    <path d="M1.308,21.304C1.711,20.912 2.356,20.921 2.748,21.325C6.209,25.116 11.137,27.23 16.27,27.124C21.402,27.23 26.331,25.116 29.792,21.324C30.184,20.921 30.828,20.912 31.232,21.304C31.635,21.696 31.644,22.34 31.252,22.744C27.397,26.915 21.949,29.248 16.27,29.16C10.591,29.248 5.142,26.915 1.287,22.744C0.896,22.34 0.905,21.696 1.308,21.304Z" style="fill:rgb(27,31,69);"/>
                </g>
            </g>
        </g>
    </g>
</svg>
