<?xml version="1.0" encoding="UTF-8" standalone="no"?>
<!DOCTYPE svg PUBLIC "-//W3C//DTD SVG 1.1//EN" "http://www.w3.org/Graphics/SVG/1.1/DTD/svg11.dtd">
<svg width="100%" height="100%" viewBox="0 0 34 49" version="1.1" xmlns="http://www.w3.org/2000/svg" xmlns:xlink="http://www.w3.org/1999/xlink" xml:space="preserve" xmlns:serif="http://www.serif.com/" style="fill-rule:evenodd;clip-rule:evenodd;stroke-linecap:round;stroke-linejoin:round;">
    <g transform="matrix(1,0,0,1,-10475.3,-16079)">
        <g transform="matrix(1,0,0,1,8640,15606)">
            <g transform="matrix(1,0,0,-1,1836.81,512.052)">
                <path d="M15.187,30.373C16.184,30.373 17.171,30.276 18.149,30.081C19.127,29.887 20.077,29.599 20.998,29.217C21.919,28.836 22.795,28.368 23.624,27.814C24.453,27.26 25.22,26.63 25.925,25.925C26.63,25.22 27.26,24.453 27.814,23.624C28.368,22.795 28.836,21.919 29.217,20.998C29.599,20.077 29.887,19.127 30.081,18.149C30.276,17.171 30.373,16.184 30.373,15.187C30.373,14.189 30.276,13.202 30.081,12.224C29.887,11.246 29.599,10.296 29.217,9.375C28.836,8.454 28.368,7.578 27.814,6.749C27.26,5.92 26.63,5.153 25.925,4.448C25.22,3.743 24.453,3.113 23.624,2.559C22.795,2.005 21.919,1.538 20.998,1.156C20.077,0.774 19.127,0.486 18.149,0.292C17.171,0.097 16.184,0 15.187,0C14.189,0 13.202,0.097 12.224,0.292C11.246,0.486 10.296,0.774 9.375,1.156C8.454,1.538 7.578,2.005 6.749,2.559C5.92,3.113 5.153,3.743 4.448,4.448C3.743,5.153 3.113,5.92 2.559,6.749C2.005,7.578 1.538,8.454 1.156,9.375C0.774,10.296 0.486,11.246 0.292,12.224C0.097,13.202 0,14.189 0,15.187C0,16.184 0.097,17.171 0.292,18.149C0.486,19.127 0.774,20.077 1.156,20.998C1.538,21.919 2.005,22.795 2.559,23.624C3.113,24.453 3.743,25.22 4.448,25.925C5.153,26.63 5.92,27.26 6.749,27.814C7.578,28.368 8.454,28.836 9.375,29.217C10.296,29.599 11.246,29.887 12.224,30.081C13.202,30.276 14.189,30.373 15.187,30.373Z" style="fill:none;stroke:white;stroke-width:3px;"/>
            </g>
            <g transform="matrix(1,0,0,-1,1723.82,585.042)">
                <path d="M128,96.329L128,88L136.329,88" style="fill:none;stroke:white;stroke-width:2px;"/>
            </g>
            <g transform="matrix(1,0,0,-1,1755.49,507.723)">
                <path d="M88,23.998L89.416,31.806C89.558,32.603 90.252,33.183 91.061,33.181L101.598,33.181C102.407,33.183 103.101,32.603 103.243,31.806L104.659,23.998" style="fill:none;stroke:white;stroke-width:3px;"/>
            </g>
            <g transform="matrix(1,0,0,-1,1755.49,707.444)">
                <path d="M88,197.085L89.416,189.277C89.558,188.48 90.252,187.9 91.061,187.902L101.598,187.902C102.407,187.9 103.101,188.48 103.243,189.277L104.659,197.085" style="fill:none;stroke:white;stroke-width:3px;"/>
            </g>
        </g>
    </g>
</svg>
