<?xml version="1.0" encoding="UTF-8" standalone="no"?>
<!DOCTYPE svg PUBLIC "-//W3C//DTD SVG 1.1//EN" "http://www.w3.org/Graphics/SVG/1.1/DTD/svg11.dtd">
<svg width="100%" height="100%" viewBox="0 0 70 102" version="1.1" xmlns="http://www.w3.org/2000/svg" xmlns:xlink="http://www.w3.org/1999/xlink" xml:space="preserve" xmlns:serif="http://www.serif.com/" style="fill-rule:evenodd;clip-rule:evenodd;stroke-linejoin:round;stroke-miterlimit:2;">
    <g transform="matrix(1,0,0,1,-8001.26,-5081.17)">
        <g transform="matrix(1,0,0,1,6480,4773.38)">
            <g transform="matrix(1,0,0,-1,1521.26,408.801)">
                <path d="M69.53,35.137C69.53,15.708 53.974,0 34.765,0C15.555,0 0,15.704 0,35.137C0,57.055 19.753,65.519 28.997,96.645C29.886,99.58 32.316,101.011 34.587,101.011C37.254,101.011 39.762,99.531 40.552,96.645C49.836,65.381 69.53,57.194 69.53,35.137M63.208,35.137C63.208,44.725 58.665,51.196 52.42,60.152C46.642,68.379 39.482,78.593 34.765,93.908C30.043,78.639 22.913,68.439 17.165,60.173C10.865,51.176 6.321,44.685 6.321,35.137C6.321,19.235 19.085,6.314 34.765,6.314C50.448,6.314 63.208,19.235 63.208,35.137M37.925,15.783C37.925,14.032 36.518,12.626 34.765,12.626C22.567,12.626 12.642,22.362 12.642,34.545C12.642,36.296 14.049,37.701 15.803,37.701C17.555,37.701 18.962,36.296 18.962,34.545C18.962,26.017 26.048,18.939 34.765,18.939C36.522,18.939 37.925,17.534 37.925,15.783" style="fill:white;fill-rule:nonzero;"/>
            </g>
        </g>
    </g>
</svg>
