<?xml version="1.0" encoding="UTF-8" standalone="no"?>
<!DOCTYPE svg PUBLIC "-//W3C//DTD SVG 1.1//EN" "http://www.w3.org/Graphics/SVG/1.1/DTD/svg11.dtd">
<svg width="100%" height="100%" viewBox="0 0 30 40" version="1.1" xmlns="http://www.w3.org/2000/svg" xmlns:xlink="http://www.w3.org/1999/xlink" xml:space="preserve" xmlns:serif="http://www.serif.com/" style="fill-rule:evenodd;clip-rule:evenodd;stroke-linejoin:round;stroke-miterlimit:2;">
    <g transform="matrix(1,0,0,1,-1745.06,-343.131)">
        <g transform="matrix(1,0,0,1,-91.9371,-165.069)">
            <path d="M1853.88,527.184L1856.77,529.137C1857.7,529.866 1857.86,530.725 1857.23,531.715C1856.56,532.652 1855.72,532.809 1854.73,532.184L1850.98,529.684C1850.41,529.371 1850.12,528.85 1850.12,528.121L1850.12,521.871C1850.12,521.35 1850.31,520.908 1850.67,520.543C1851.04,520.178 1851.48,519.996 1852,519.996C1852.52,519.996 1852.96,520.178 1853.33,520.543C1853.69,520.908 1853.88,521.35 1853.88,521.871L1853.88,527.184ZM1858.25,508.199C1859.29,508.251 1860.18,508.616 1860.91,509.293C1861.58,510.022 1861.95,510.908 1862,511.949L1862,516.949L1861.84,516.949C1863.46,518.355 1864.71,520.022 1865.59,521.949C1866.53,523.876 1867,525.96 1867,528.199C1867,530.439 1866.53,532.522 1865.59,534.449C1864.71,536.376 1863.46,538.043 1861.84,539.449L1862,539.449L1862,544.449C1861.95,545.491 1861.58,546.376 1860.91,547.105C1860.18,547.783 1859.29,548.147 1858.25,548.199L1845.75,548.199C1844.71,548.147 1843.82,547.783 1843.09,547.105C1842.42,546.376 1842.05,545.491 1842,544.449L1842,539.449L1842.08,539.449C1840.52,538.043 1839.29,536.376 1838.41,534.449C1837.47,532.522 1837,530.439 1837,528.199C1837,525.96 1837.47,523.876 1838.41,521.949C1839.29,520.022 1840.52,518.355 1842.08,516.949L1842,516.949L1842,511.949C1842.05,510.908 1842.42,510.022 1843.09,509.293C1843.82,508.616 1844.71,508.251 1845.75,508.199L1858.25,508.199ZM1852,516.949C1848.82,517.053 1846.17,518.147 1844.03,520.23C1841.95,522.366 1840.85,525.022 1840.75,528.199C1840.85,531.376 1841.95,534.033 1844.03,536.168C1846.17,538.251 1848.82,539.345 1852,539.449C1855.18,539.345 1857.83,538.251 1859.97,536.168C1862.05,534.033 1863.15,531.376 1863.25,528.199C1863.15,525.022 1862.05,522.366 1859.97,520.23C1857.83,518.147 1855.18,517.053 1852,516.949Z" style="fill:rgb(0,164,225);fill-rule:nonzero;"/>
        </g>
    </g>
</svg>
