<?xml version="1.0" encoding="UTF-8" standalone="no"?>
<!DOCTYPE svg PUBLIC "-//W3C//DTD SVG 1.1//EN" "http://www.w3.org/Graphics/SVG/1.1/DTD/svg11.dtd">
<svg width="100%" height="100%" viewBox="0 0 45 39" version="1.1" xmlns="http://www.w3.org/2000/svg" xmlns:xlink="http://www.w3.org/1999/xlink" xml:space="preserve" xmlns:serif="http://www.serif.com/" style="fill-rule:evenodd;clip-rule:evenodd;stroke-linejoin:round;stroke-miterlimit:2;">
    <g transform="matrix(1,0,0,1,-10470,-16162)">
        <g transform="matrix(1,0,0,1,8640,15606)">
            <g transform="matrix(1,0,0,-1,1829.9,592.999)">
                <path d="M12.151,34.178C10.215,34.178 8.174,33.543 6.198,31.804C2.548,28.151 1.953,23.431 4.498,17.833C8.567,8.877 19.431,0.968 22.668,1.207C26.432,1.21 37.746,9.765 41.222,18.904C43.246,24.233 42.267,28.717 38.309,32.234C31.861,37.495 23.849,29.648 23.77,29.569C23.499,29.298 23.189,29.093 22.753,29.153C22.372,29.156 22.007,29.315 21.743,29.589C21.498,29.842 17.204,34.178 12.151,34.178M22.497,-1.646C17.384,-1.646 6.03,7.584 1.905,16.655C-1.139,23.348 -0.327,29.304 4.25,33.879C11.024,39.858 18.813,36.017 22.785,32.524C26.622,35.775 33.993,39.428 40.151,34.403C45.062,30.041 46.335,24.344 43.884,17.89C40.055,7.821 27.915,-1.637 22.767,-1.637C22.676,-1.643 22.588,-1.646 22.497,-1.646" style="fill:white;fill-rule:nonzero;"/>
            </g>
        </g>
    </g>
</svg>
