<?xml version="1.0" encoding="UTF-8" standalone="no"?>
<!DOCTYPE svg PUBLIC "-//W3C//DTD SVG 1.1//EN" "http://www.w3.org/Graphics/SVG/1.1/DTD/svg11.dtd">
<svg width="100%" height="100%" viewBox="0 0 45 40" version="1.1" xmlns="http://www.w3.org/2000/svg" xmlns:xlink="http://www.w3.org/1999/xlink" xml:space="preserve" xmlns:serif="http://www.serif.com/" style="fill-rule:evenodd;clip-rule:evenodd;stroke-linejoin:round;stroke-miterlimit:2;">
    <g transform="matrix(1,0,0,1,-8099.11,-4924.95)">
        <g transform="matrix(1,0,0,1,6480,4773.38)">
            <g transform="matrix(1,0,0,1,-210.39,-205.626)">
                <path d="M1849.5,367.199L1854.5,367.199C1855.23,367.199 1855.83,366.965 1856.3,366.496C1856.77,366.027 1857,365.428 1857,364.699L1857,359.699C1857,358.97 1856.77,358.371 1856.3,357.902C1855.83,357.434 1855.23,357.199 1854.5,357.199L1849.5,357.199C1848.77,357.199 1848.17,357.434 1847.7,357.902C1847.23,358.371 1847,358.97 1847,359.699L1847,364.699C1847,365.428 1847.23,366.027 1847.7,366.496C1848.17,366.965 1848.77,367.199 1849.5,367.199ZM1852,380.949C1853.41,380.897 1854.58,380.402 1855.52,379.465C1856.45,378.527 1856.95,377.355 1857,375.949C1856.95,374.543 1856.45,373.371 1855.52,372.434C1854.58,371.496 1853.41,371.001 1852,370.949C1850.59,371.001 1849.42,371.496 1848.48,372.434C1847.55,373.371 1847.05,374.543 1847,375.949C1847.05,377.355 1847.55,378.527 1848.48,379.465C1849.42,380.402 1850.59,380.897 1852,380.949ZM1869.5,362.199L1859.5,362.199L1859.5,365.949L1869.5,365.949C1870.28,366.001 1870.7,366.418 1870.75,367.199L1870.75,392.199C1870.7,392.98 1870.28,393.397 1869.5,393.449L1834.5,393.449C1833.72,393.397 1833.3,392.98 1833.25,392.199L1833.25,367.199C1833.3,366.418 1833.72,366.001 1834.5,365.949L1844.5,365.949L1844.5,362.199L1834.5,362.199C1833.09,362.251 1831.92,362.746 1830.98,363.684C1830.05,364.621 1829.55,365.793 1829.5,367.199L1829.5,392.199C1829.55,393.605 1830.05,394.777 1830.98,395.715C1831.92,396.652 1833.09,397.147 1834.5,397.199L1869.5,397.199C1870.91,397.147 1872.08,396.652 1873.02,395.715C1873.95,394.777 1874.45,393.605 1874.5,392.199L1874.5,367.199C1874.45,365.793 1873.95,364.621 1873.02,363.684C1872.08,362.746 1870.91,362.251 1869.5,362.199ZM1844.5,390.949L1859.5,390.949C1860.28,390.897 1860.7,390.48 1860.75,389.699C1860.7,387.928 1860.1,386.444 1858.95,385.246C1857.76,384.1 1856.27,383.501 1854.5,383.449L1849.5,383.449C1847.73,383.501 1846.25,384.1 1845.05,385.246C1843.9,386.444 1843.3,387.928 1843.25,389.699C1843.3,390.48 1843.72,390.897 1844.5,390.949Z" style="fill:rgb(0,79,129);fill-rule:nonzero;"/>
            </g>
        </g>
    </g>
</svg>
