<?xml version="1.0" encoding="UTF-8" standalone="no"?>
<!DOCTYPE svg PUBLIC "-//W3C//DTD SVG 1.1//EN" "http://www.w3.org/Graphics/SVG/1.1/DTD/svg11.dtd">
<svg width="100%" height="100%" viewBox="0 0 45 35" version="1.1" xmlns="http://www.w3.org/2000/svg" xmlns:xlink="http://www.w3.org/1999/xlink" xml:space="preserve" xmlns:serif="http://www.serif.com/" style="fill-rule:evenodd;clip-rule:evenodd;stroke-linejoin:round;stroke-miterlimit:2;">
    <g transform="matrix(1,0,0,1,-7875.88,-4927.45)">
        <g transform="matrix(1,0,0,1,6480,4773.38)">
            <g transform="matrix(1,0,0,1,-433.62,-205.626)">
                <path d="M1870.75,380.949L1867,380.949L1867,365.949C1866.95,364.178 1866.35,362.694 1865.2,361.496C1864.01,360.35 1862.52,359.751 1860.75,359.699L1835.75,359.699C1833.98,359.751 1832.5,360.35 1831.3,361.496C1830.15,362.694 1829.55,364.178 1829.5,365.949L1829.5,369.699C1829.55,370.741 1829.92,371.626 1830.59,372.355C1831.32,373.033 1832.21,373.397 1833.25,373.449L1835.75,373.449L1835.75,369.699L1833.25,369.699L1833.25,365.949C1833.25,365.22 1833.48,364.621 1833.95,364.152C1834.42,363.684 1835.02,363.449 1835.75,363.449C1836.48,363.449 1837.08,363.684 1837.55,364.152C1838.02,364.621 1838.25,365.22 1838.25,365.949L1838.25,388.449C1838.3,390.22 1838.9,391.704 1840.05,392.902C1841.25,394.048 1842.73,394.647 1844.5,394.699L1865.36,394.699C1867.91,394.647 1870.07,393.762 1871.84,392.043C1873.56,390.272 1874.45,388.111 1874.5,385.559L1874.5,384.699C1874.45,383.658 1874.08,382.772 1873.41,382.043C1872.68,381.366 1871.79,381.001 1870.75,380.949ZM1847,383.449L1847,388.449C1847,389.178 1846.77,389.777 1846.3,390.246C1845.83,390.715 1845.23,390.949 1844.5,390.949C1843.77,390.949 1843.17,390.715 1842.7,390.246C1842.23,389.777 1842,389.178 1842,388.449L1842,377.199L1845.75,377.199C1846.53,377.147 1846.95,376.73 1847,375.949C1846.95,375.168 1846.53,374.751 1845.75,374.699L1842,374.699L1842,365.949C1842,365.064 1841.82,364.23 1841.45,363.449L1860.75,363.449C1861.48,363.449 1862.08,363.684 1862.55,364.152C1863.02,364.621 1863.25,365.22 1863.25,365.949L1863.25,367.199L1860.75,367.199C1859.97,367.251 1859.55,367.668 1859.5,368.449C1859.55,369.23 1859.97,369.647 1860.75,369.699L1863.25,369.699L1863.25,374.699L1860.75,374.699C1859.97,374.751 1859.55,375.168 1859.5,375.949C1859.55,376.73 1859.97,377.147 1860.75,377.199L1863.25,377.199L1863.25,380.949L1849.5,380.949C1848.77,380.949 1848.17,381.184 1847.7,381.652C1847.23,382.121 1847,382.72 1847,383.449ZM1870.75,385.559C1870.7,387.069 1870.18,388.345 1869.19,389.387C1868.15,390.376 1866.87,390.897 1865.36,390.949L1850.2,390.949C1850.57,390.168 1850.75,389.335 1850.75,388.449L1850.75,384.699L1858.25,384.699L1858.25,387.199C1858.3,387.98 1858.72,388.397 1859.5,388.449C1860.28,388.397 1860.7,387.98 1860.75,387.199L1860.75,384.699L1870.75,384.699L1870.75,385.559Z" style="fill:rgb(0,79,129);fill-rule:nonzero;"/>
            </g>
        </g>
    </g>
</svg>
