<?xml version="1.0" encoding="UTF-8" standalone="no"?>
<!DOCTYPE svg PUBLIC "-//W3C//DTD SVG 1.1//EN" "http://www.w3.org/Graphics/SVG/1.1/DTD/svg11.dtd">
<svg width="100%" height="100%" viewBox="0 0 35 35" version="1.1" xmlns="http://www.w3.org/2000/svg" xmlns:xlink="http://www.w3.org/1999/xlink" xml:space="preserve" xmlns:serif="http://www.serif.com/" style="fill-rule:evenodd;clip-rule:evenodd;stroke-linejoin:round;stroke-miterlimit:2;">
    <g transform="matrix(1,0,0,1,-1742.56,-269.631)">
        <g transform="matrix(1,0,0,1,-91.9371,-165.069)">
            <path d="M1843.25,440.949C1842.52,440.949 1841.92,441.184 1841.45,441.652C1840.98,442.121 1840.75,442.72 1840.75,443.449C1840.75,444.178 1840.98,444.777 1841.45,445.246C1841.92,445.715 1842.52,445.949 1843.25,445.949C1843.98,445.949 1844.58,445.715 1845.05,445.246C1845.52,444.777 1845.75,444.178 1845.75,443.449C1845.75,442.72 1845.52,442.121 1845.05,441.652C1844.58,441.184 1843.98,440.949 1843.25,440.949ZM1869.5,439.699C1869.45,438.293 1868.95,437.121 1868.02,436.184C1867.08,435.246 1865.91,434.751 1864.5,434.699L1839.5,434.699C1838.09,434.751 1836.92,435.246 1835.98,436.184C1835.05,437.121 1834.55,438.293 1834.5,439.699L1834.5,464.699C1834.55,466.105 1835.05,467.277 1835.98,468.215C1836.92,469.152 1838.09,469.647 1839.5,469.699L1864.5,469.699C1865.91,469.647 1867.08,469.152 1868.02,468.215C1868.95,467.277 1869.45,466.105 1869.5,464.699L1869.5,439.699ZM1865.75,464.699C1865.7,465.48 1865.28,465.897 1864.5,465.949L1839.5,465.949C1838.72,465.897 1838.3,465.48 1838.25,464.699L1838.25,460.949L1865.75,460.949L1865.75,464.699ZM1865.75,457.199L1863.48,457.199L1855.98,445.871C1855.72,445.507 1855.36,445.324 1854.89,445.324C1854.47,445.324 1854.13,445.507 1853.88,445.871L1848.95,453.215L1847.23,450.871C1846.97,450.507 1846.63,450.324 1846.22,450.324C1845.8,450.324 1845.46,450.507 1845.2,450.871L1840.59,457.199L1838.25,457.199L1838.25,439.699C1838.3,438.918 1838.72,438.501 1839.5,438.449L1864.5,438.449C1865.28,438.501 1865.7,438.918 1865.75,439.699L1865.75,457.199Z" style="fill:rgb(0,164,225);fill-rule:nonzero;"/>
        </g>
    </g>
</svg>
