<?xml version="1.0" encoding="UTF-8" standalone="no"?>
<!DOCTYPE svg PUBLIC "-//W3C//DTD SVG 1.1//EN" "http://www.w3.org/Graphics/SVG/1.1/DTD/svg11.dtd">
<svg width="100%" height="100%" viewBox="0 0 124 124" version="1.1" xmlns="http://www.w3.org/2000/svg" xmlns:xlink="http://www.w3.org/1999/xlink" xml:space="preserve" xmlns:serif="http://www.serif.com/" 
style="fill-rule:evenodd;clip-rule:evenodd;stroke-linejoin:round;stroke-miterlimit:2;">
    <g transform="matrix(1,0,0,1,-9693.6,-17048.7)">
        <g transform="matrix(1,0,0,1,8640,15606)">
            <g transform="matrix(1,0,0,-1,1053.1,1565.91)">
                <path d="M3.191,-0.448C2.483,-0.448 1.789,-0.161 1.288,0.34C0.722,0.907 0.438,1.688 0.511,2.483L1.792,16.909C2.755,27.742 9.98,39.714 20.649,48.152C21.131,48.532 21.708,48.733 22.319,48.733C23.147,48.733 23.917,48.36 24.43,47.711C24.875,47.148 25.074,46.445 24.991,45.732C24.908,45.018 24.551,44.38 23.988,43.935C14.586,36.497 7.978,25.7 7.152,16.431L6.156,5.205L17.384,6.204C26.655,7.027 37.454,13.633 44.895,23.033C45.409,23.683 46.179,24.055 47.008,24.055C47.619,24.055 48.195,23.854 48.674,23.474C49.238,23.028 49.595,22.388 49.677,21.674C49.76,20.96 49.56,20.258 49.113,19.696C40.673,9.03 28.699,1.806 17.862,0.844L3.432,-0.438C3.357,-0.445 3.278,-0.448 3.191,-0.448ZM67.06,8.312C66.178,8.312 65.257,8.542 64.396,8.977C61.775,10.308 60.351,13.051 60.933,15.649C62.409,22.218 62.832,27.7 62.225,32.391C57.532,33.499 52.647,36.836 49.919,38.932L46.953,35.965C45.611,34.626 43.83,33.888 41.937,33.888C40.042,33.888 38.261,34.626 36.922,35.965C35.583,37.304 34.846,39.085 34.846,40.98C34.846,42.875 35.584,44.655 36.925,45.993L39.885,48.954C37.782,51.69 34.438,56.582 33.347,61.262C31.978,61.438 30.523,61.528 29.015,61.528C25.335,61.528 21.273,61.018 16.6,59.969C16.213,59.883 15.819,59.839 15.428,59.839C14.326,59.839 13.23,60.174 12.257,60.807C11.281,61.442 10.475,62.35 9.926,63.432C8.763,65.729 9.143,68.2 10.895,69.728L22.587,79.937C24.764,81.838 27.297,83.303 30.114,84.289C32.884,85.259 35.881,85.75 39.022,85.75C42.159,85.75 45.382,85.26 48.606,84.294L58.652,95.511C62.65,99.973 67.09,104.073 71.851,107.696C75.704,110.629 79.83,113.203 84.112,115.349C88.304,117.45 92.693,119.162 97.158,120.44C97.183,120.452 97.215,120.466 97.253,120.476C97.355,120.505 97.449,120.526 97.54,120.546C97.622,120.564 97.699,120.582 97.773,120.602C99.789,121.158 101.564,121.582 103.199,121.899C103.381,121.936 103.562,121.962 103.738,121.988C103.885,122.01 104.024,122.03 104.163,122.056C105.657,122.323 107.427,122.622 109.243,122.811C109.694,122.858 110.147,122.882 110.584,122.904C110.843,122.918 111.111,122.931 111.373,122.95C111.59,122.966 111.808,122.983 112.026,122.999C113.109,123.081 114.229,123.167 115.338,123.181C115.677,123.186 116.021,123.189 116.359,123.189C118.094,123.189 119.824,123.121 121.501,122.987C122.823,122.879 123.86,121.843 123.968,120.523C124.129,118.529 124.194,116.445 124.163,114.325C124.151,113.411 124.083,112.49 124.016,111.598C123.994,111.299 123.972,110.999 123.951,110.7C123.931,110.406 123.915,110.106 123.901,109.816C123.874,109.302 123.847,108.77 123.79,108.24C123.606,106.466 123.308,104.698 123.04,103.203C123.014,103.061 122.993,102.921 122.971,102.773C122.945,102.594 122.917,102.41 122.881,102.223C122.562,100.574 122.133,98.785 121.571,96.755C121.553,96.69 121.538,96.62 121.522,96.547C121.504,96.462 121.485,96.374 121.459,96.281C121.447,96.242 121.433,96.208 121.42,96.182C118.817,87.087 114.529,78.576 108.673,70.887C105.049,66.126 100.948,61.686 96.484,57.688L85.264,47.644C86.694,42.87 87.077,38.019 86.372,33.593C86.011,31.327 85.369,29.167 84.463,27.172C83.542,25.143 82.346,23.278 80.907,21.632L70.696,9.942C69.777,8.891 68.486,8.312 67.06,8.312ZM66.185,14.477C66.184,14.425 66.258,14.251 66.436,14.069L66.439,14.065C66.611,13.887 66.784,13.788 66.906,13.737L76.854,25.172C80.881,29.781 82.298,36.473 80.793,43.639L69.787,33.786C69.215,33.216 68.514,32.776 67.699,32.473C68.254,27.367 67.757,21.475 66.185,14.477ZM64.755,37.471L64.776,37.47C64.881,37.463 64.983,37.46 65.079,37.46L65.079,37.46C65.654,37.46 65.977,37.58 66.079,37.682L66.089,37.693L66.1,37.703L73.291,44.144C69.866,45.278 65.826,47.605 61.776,50.783L53.751,42.761C58.693,39.064 62.655,37.601 64.755,37.471ZM63.719,64.464C63.262,64.464 62.833,64.286 62.511,63.964L45.397,46.854L40.729,42.186C40.405,41.865 40.227,41.437 40.227,40.98C40.227,40.519 40.404,40.091 40.726,39.774L40.731,39.77C41.034,39.463 41.473,39.287 41.935,39.287L41.935,39.287C42.398,39.287 42.839,39.463 43.146,39.769L64.93,61.547C65.595,62.213 65.594,63.298 64.928,63.964C64.758,64.132 64.535,64.26 64.247,64.355C64.073,64.411 63.888,64.464 63.719,64.464ZM65.624,54.631C71.314,50.262 75.669,48.7 77.7,48.7C78.35,48.7 78.563,48.863 78.612,48.913C78.634,48.934 78.657,48.953 78.681,48.971L80.404,50.515C80.418,50.528 80.434,50.541 80.449,50.552L92.894,61.697C97.105,65.466 100.972,69.653 104.39,74.143C109.297,80.587 113.027,87.61 115.483,95.024C113.614,95.608 111.685,96.521 109.739,97.743C107.601,99.086 105.546,100.738 103.63,102.653C101.714,104.567 100.062,106.622 98.718,108.76C97.497,110.704 96.583,112.633 95.999,114.502C88.579,112.047 81.553,108.318 75.109,103.413C70.613,99.991 66.425,96.124 62.661,91.921L51.482,79.441L51.472,79.43L51.47,79.428L49.923,77.701C49.908,77.68 49.891,77.66 49.872,77.642C49.576,77.346 49.47,76.004 50.392,73.518C51.085,71.652 52.546,68.623 55.593,64.656L58.706,67.768C60.043,69.104 61.824,69.84 63.721,69.84C65.547,69.84 67.266,69.158 68.586,67.915L68.591,67.915L68.729,67.776C68.731,67.774 68.881,67.625 68.881,67.625L68.881,67.62C70.126,66.3 70.809,64.579 70.809,62.753C70.808,60.857 70.072,59.077 68.734,57.742L65.624,54.631ZM45.091,72.307L38.746,65.221L38.737,65.211L38.727,65.202C37.988,64.462 38.419,59.867 43.72,52.789L51.738,60.803C48.558,64.855 46.229,68.89 45.091,72.307ZM14.696,65.907C14.778,65.748 14.888,65.597 15.017,65.472C15.188,65.307 15.356,65.22 15.435,65.22C15.437,65.22 15.438,65.221 15.44,65.221C20.628,66.387 25.141,66.954 29.236,66.954C30.697,66.954 32.118,66.878 33.467,66.73C33.576,67.026 33.706,67.31 33.853,67.576C33.862,67.592 33.87,67.609 33.878,67.625C33.897,67.662 33.917,67.703 33.943,67.748L33.946,67.752C34.144,68.084 34.387,68.407 34.669,68.715C34.671,68.717 34.672,68.719 34.674,68.722C34.695,68.754 34.729,68.806 34.781,68.859L44.598,79.822C42.743,80.211 40.898,80.407 39.103,80.407C34.002,80.407 29.516,78.844 26.127,75.886L14.696,65.907ZM101.16,115.943C102.146,112.909 104.409,109.483 107.435,106.458C110.458,103.435 113.886,101.173 116.924,100.184C117.194,101.309 117.418,102.434 117.61,103.418L117.673,103.753C117.754,104.179 117.838,104.62 117.91,105.052C118.076,106.048 118.222,107.084 118.345,108.132C118.433,108.893 118.508,109.719 118.581,110.73C118.594,110.899 118.607,111.066 118.619,111.234C118.667,111.851 118.716,112.488 118.738,113.108C118.797,114.79 118.796,116.313 118.736,117.758C118.008,117.787 117.25,117.802 116.478,117.802C115.695,117.802 114.868,117.787 114.02,117.757C113.465,117.736 112.893,117.692 112.34,117.65C112.197,117.639 112.055,117.628 111.912,117.617C110.825,117.542 109.879,117.456 109.017,117.354C108.03,117.236 107.057,117.099 106.127,116.946C105.575,116.856 105.014,116.748 104.471,116.643L104.291,116.609C103.344,116.424 102.257,116.208 101.16,115.943ZM16.361,11.981C15.949,11.981 15.674,11.991 15.556,11.996L15.513,11.997L15.509,11.997C14.115,12.065 13.015,13.165 12.95,14.557C12.924,15.102 12.387,28.021 20.315,35.949C22.649,38.283 25.257,40.308 27.858,41.803C28.265,42.039 28.729,42.164 29.199,42.164C30.161,42.164 31.055,41.647 31.532,40.815C31.89,40.196 31.986,39.472 31.801,38.779C31.615,38.084 31.168,37.502 30.544,37.142C28.344,35.876 26.123,34.148 24.121,32.146C19.828,27.853 18.686,21.314 18.402,17.449C22.268,17.733 28.808,18.875 33.102,23.166C35.105,25.167 36.834,27.388 38.102,29.588C38.579,30.42 39.472,30.937 40.432,30.937C40.902,30.937 41.366,30.812 41.775,30.576C42.4,30.215 42.846,29.633 43.032,28.937C43.217,28.244 43.121,27.522 42.762,26.902C41.267,24.306 39.243,21.698 36.909,19.362C30.056,12.514 19.449,11.981 16.361,11.981ZM88.627,76.206C82.312,76.206 77.174,81.342 77.174,87.655C77.174,93.969 82.312,99.106 88.627,99.106C94.943,99.106 100.081,93.969 100.081,87.655C100.081,81.342 94.943,76.206 88.627,76.206ZM88.627,93.727C85.279,93.727 82.555,91.003 82.555,87.655C82.555,84.308 85.279,81.585 88.627,81.585C91.975,81.585 94.699,84.308 94.699,87.655C94.699,91.003 91.975,93.727 88.627,93.727Z" 
                style="fill:black;"/>
            </g>
        </g>
    </g>
</svg>
