<?xml version="1.0" encoding="UTF-8" standalone="no"?>
<!DOCTYPE svg PUBLIC "-//W3C//DTD SVG 1.1//EN" "http://www.w3.org/Graphics/SVG/1.1/DTD/svg11.dtd">
<svg width="100%" height="100%" viewBox="0 0 55 47" version="1.1" xmlns="http://www.w3.org/2000/svg" xmlns:xlink="http://www.w3.org/1999/xlink" xml:space="preserve" xmlns:serif="http://www.serif.com/" style="fill-rule:evenodd;clip-rule:evenodd;stroke-linejoin:round;stroke-miterlimit:2;">
    <g transform="matrix(1,0,0,1,-13881.9,-4817.56)">
        <g transform="matrix(1,0,0,1,12960,4773.38)">
            <g transform="matrix(1,0,0,1,-7.13021,-16.1198)">
                <path d="M983.129,83.556C982.967,85.332 981.999,86.3 980.223,86.462L939.172,86.462L955.277,101.841C956.408,103.132 956.408,104.505 955.277,105.958C953.986,107.088 952.613,107.088 951.16,105.958L929.848,85.614C929.283,85.049 929,84.363 929,83.556C929,82.748 929.283,82.062 929.848,81.497L951.16,61.153C952.613,60.023 953.986,60.023 955.277,61.153C956.408,62.606 956.408,63.979 955.277,65.271L939.172,80.649L980.344,80.649C982.039,80.811 982.967,81.78 983.129,83.556Z" style="fill:rgb(0,79,129);fill-rule:nonzero;"/>
            </g>
        </g>
    </g>
</svg>
