<svg id="b3bbe7d1-b250-4c69-8ef2-fd34eeefac98" data-name="Layer 1" xmlns="http://www.w3.org/2000/svg" width="272.34" height="152.87" viewBox="0 0 272.34 152.87"><g id="e82727e8-4797-4a74-aa92-45f1378c9484" data-name="HORIZONTAL 2"><path d="M77.8,157.54c-1.84-7.72-6.42-15.62-12.94-22.36a50.78,50.78,0,0,0-5.43,4.73l-.34.33c5.72,5.82,9.71,12.58,11.25,19.07,1.41,6,.56,10.87-2.4,13.83a10,10,0,0,1-4.37,2.51,14.69,14.69,0,0,1-4.47.55h0a22.07,22.07,0,0,1-4.47-.55l-.5-.11a39,39,0,0,1-14.29-7.1A50.67,50.67,0,0,1,34.7,164c-5.89-5.89-10-12.78-11.58-19.41-1.41-6-.56-10.86,2.4-13.83,2-2,5-3.06,8.53-3.06a22.82,22.82,0,0,1,5.3.67,38.61,38.61,0,0,1,14,6.85c.23-.23.45-.46.69-.69A58,58,0,0,1,59.09,130a47.06,47.06,0,0,0-18-9.09,27.43,27.43,0,0,0-11.39-.48,17.5,17.5,0,0,0-14.54,14.54,27.48,27.48,0,0,0,.48,11.4c1.89,8,6.73,16.17,13.61,23S44.35,181.1,52.34,183l.45.1h0a30.68,30.68,0,0,0,6.29.77,30.78,30.78,0,0,0,6.3-.77h0a17.52,17.52,0,0,0,8-4.54,17.93,17.93,0,0,0,4.92-9.62c0-.17,0-.33.08-.5A27.79,27.79,0,0,0,77.8,157.54Z" transform="translate(-14.8 -31)"/><path d="M103,134.93a17.53,17.53,0,0,0-14.55-14.54,27.43,27.43,0,0,0-11.39.48,47.13,47.13,0,0,0-18,9.09,58.29,58.29,0,0,1,5.09,4.53l.68.69a38.68,38.68,0,0,1,14-6.85,22.89,22.89,0,0,1,5.3-.67c3.57,0,6.51,1,8.53,3.06,3,3,3.81,7.88,2.4,13.83-1.57,6.63-5.69,13.52-11.58,19.41a50.67,50.67,0,0,1-5.12,4.48,38.81,38.81,0,0,1-14.29,7.1l-.5.11a22.07,22.07,0,0,1-4.47.55h0a14.77,14.77,0,0,1-4.47-.55,10.06,10.06,0,0,1-4.37-2.51c-3-3-3.81-7.87-2.39-13.83,1.54-6.49,5.53-13.25,11.24-19.07l-.33-.33a50.87,50.87,0,0,0-5.44-4.73c-6.52,6.74-11.1,14.64-12.93,22.36a28,28,0,0,0-.57,10.9l.09.5a17.92,17.92,0,0,0,4.91,9.62,17.51,17.51,0,0,0,8,4.54h0c.54.15,1.09.27,1.65.38a23.78,23.78,0,0,0,4.35.39h.29a30.78,30.78,0,0,0,6.3-.77h0l.44-.1c8-1.9,16.18-6.74,23.06-13.62s11.72-15.07,13.62-23A27.65,27.65,0,0,0,103,134.93Z" transform="translate(-14.8 -31)"/><path d="M64.86,135.18a49.82,49.82,0,0,0-5.43,4.73l-.34.33-.33-.33a50.87,50.87,0,0,0-5.44-4.73l.69-.69A56.59,56.59,0,0,1,59.09,130a56.7,56.7,0,0,1,5.09,4.53Z" transform="translate(-14.8 -31)"/><path d="M132.07,145.89v1.72H118.75V128.76h12.92v1.72H120.74v6.71h9.75v1.7h-9.75v7Z" transform="translate(-14.8 -31)"/><path d="M136.76,128.76h2v18.85h-2Z" transform="translate(-14.8 -31)"/><path d="M160.65,128.76v18.85H159l-12.11-15.3v15.3h-2V128.76h1.65l12.14,15.3v-15.3Z" transform="translate(-14.8 -31)"/><path d="M165,145.32l.78-1.53a9.27,9.27,0,0,0,6.22,2.29c3.53,0,5.07-1.49,5.07-3.34,0-5.17-11.61-2-11.61-9,0-2.77,2.15-5.17,6.95-5.17a10.63,10.63,0,0,1,5.84,1.67l-.67,1.59a9.71,9.71,0,0,0-5.17-1.56c-3.45,0-5,1.53-5,3.42,0,5.17,11.6,2,11.6,8.91,0,2.77-2.21,5.14-7,5.14C169.16,147.77,166.38,146.78,165,145.32Z" transform="translate(-14.8 -31)"/><path d="M186.74,130.48h-6.62v-1.72h15.24v1.72h-6.63v17.13h-2Z" transform="translate(-14.8 -31)"/><path d="M211.87,145.89v1.72H198.54V128.76h12.92v1.72H200.53v6.71h9.75v1.7h-9.75v7Z" transform="translate(-14.8 -31)"/><path d="M216.55,128.76h2v18.85h-2Z" transform="translate(-14.8 -31)"/><path d="M240.44,128.76v18.85H238.8l-12.12-15.3v15.3h-2V128.76h1.65l12.14,15.3v-15.3Z" transform="translate(-14.8 -31)"/><path d="M134.55,162.37c0,4.28-3.23,6.95-8.37,6.95h-3.29v4.93h-5.33V155.4h8.62C131.32,155.4,134.55,158.06,134.55,162.37Zm-5.38,0c0-1.75-1.11-2.77-3.32-2.77h-3v5.52h3C128.06,165.12,129.17,164.09,129.17,162.37Z" transform="translate(-14.8 -31)"/><path d="M152.27,170.13v4.12H137.14V155.4h14.78v4.12h-9.5v3.17h8.37v4h-8.37v3.45Z" transform="translate(-14.8 -31)"/><path d="M163.48,169.24h-2.91v5h-5.34V155.4h8.62c5.15,0,8.38,2.66,8.38,7a6.26,6.26,0,0,1-3.69,5.95l4.06,5.93h-5.7Zm.05-9.64h-3v5.52h3c2.21,0,3.31-1,3.31-2.75S165.74,159.6,163.53,159.6Z" transform="translate(-14.8 -31)"/><path d="M178.91,159.62h-5.79V155.4H190v4.22h-5.76v14.63h-5.33Z" transform="translate(-14.8 -31)"/><path d="M207.13,170.13v4.12H192V155.4h14.79v4.12h-9.51v3.17h8.38v4h-8.38v3.45Z" transform="translate(-14.8 -31)"/><path d="M228,155.4v18.85h-4.38l-8.33-10.05v10.05h-5.22V155.4h4.39l8.32,10v-10Z" transform="translate(-14.8 -31)"/><path d="M230.83,164.82c0-5.73,4.39-9.8,10.36-9.8a10,10,0,0,1,8.11,3.55l-3.39,3.07a5.6,5.6,0,0,0-4.45-2.2,5.39,5.39,0,0,0,0,10.77,5.58,5.58,0,0,0,4.45-2.21l3.39,3.07a10,10,0,0,1-8.11,3.55C235.22,174.62,230.83,170.56,230.83,164.82Z" transform="translate(-14.8 -31)"/><path d="M266.8,170.13v4.12H251.67V155.4h14.78v4.12H257v3.17h8.37v4H257v3.45Z" transform="translate(-14.8 -31)"/><path d="M278,169.24H275.1v5h-5.33V155.4h8.61c5.15,0,8.38,2.66,8.38,7a6.26,6.26,0,0,1-3.69,5.95l4.07,5.93h-5.71Zm.05-9.64h-3v5.52h3c2.21,0,3.31-1,3.31-2.75S280.27,159.6,278.06,159.6Z" transform="translate(-14.8 -31)"/></g><g id="aafae81a-ca88-4e46-8935-a1f61fee6b90" data-name="HORIZONTAL 1"><path d="M77.87,68.5C76,60.79,71.46,52.89,65,46.17a48.66,48.66,0,0,0-5.43,4.72l-.34.33c5.71,5.81,9.7,12.56,11.24,19,1.41,6,.56,10.86-2.4,13.82a10,10,0,0,1-4.36,2.51,15.39,15.39,0,0,1-4.47.55h0a23.49,23.49,0,0,1-4.46-.55l-.5-.12a38.66,38.66,0,0,1-14.28-7.09,51.73,51.73,0,0,1-5.11-4.47c-5.89-5.89-10-12.78-11.57-19.39-1.41-6-.56-10.86,2.4-13.82,2-2,5-3.06,8.52-3.06a22.74,22.74,0,0,1,5.29.67,38.57,38.57,0,0,1,14,6.85c.22-.24.45-.47.68-.7a59.67,59.67,0,0,1,5.08-4.53,46.93,46.93,0,0,0-18-9.07,27.38,27.38,0,0,0-11.38-.48A17.52,17.52,0,0,0,15.32,45.91,27.77,27.77,0,0,0,15.8,57.3c1.9,8,6.73,16.15,13.61,23s15.05,11.71,23,13.6l.45.11h0a30.73,30.73,0,0,0,6.29.76A30.57,30.57,0,0,0,65.47,94h0a17.5,17.5,0,0,0,8-4.53,18,18,0,0,0,4.91-9.61c0-.17.06-.33.08-.5A27.73,27.73,0,0,0,77.87,68.5Z" transform="translate(-14.8 -31)" style="fill:#00a4e1"/><path d="M103.05,45.91A17.52,17.52,0,0,0,88.52,31.39a27.43,27.43,0,0,0-11.39.48,47,47,0,0,0-17.95,9.07,58.29,58.29,0,0,1,5.09,4.53l.68.7a38.6,38.6,0,0,1,14-6.85,22.89,22.89,0,0,1,5.3-.67c3.56,0,6.5,1,8.52,3.06,3,3,3.81,7.87,2.39,13.82C93.54,62.14,89.44,69,83.55,74.92a50.71,50.71,0,0,1-5.12,4.47,38.62,38.62,0,0,1-14.27,7.09l-.5.12a23.59,23.59,0,0,1-4.47.55h0a15.32,15.32,0,0,1-4.46-.55,10,10,0,0,1-4.37-2.51c-3-3-3.8-7.87-2.39-13.82,1.54-6.49,5.53-13.24,11.23-19l-.33-.33a49.58,49.58,0,0,0-5.43-4.72C46.9,52.89,42.33,60.79,40.5,68.5a27.93,27.93,0,0,0-.57,10.89l.09.5a17.85,17.85,0,0,0,4.91,9.61,17.61,17.61,0,0,0,8,4.54h0c.54.14,1.09.27,1.66.37a23.59,23.59,0,0,0,4.34.39h.29A30.57,30.57,0,0,0,65.47,94h0l.45-.1c8-1.89,16.15-6.72,23-13.6s11.71-15.06,13.6-23A27.61,27.61,0,0,0,103.05,45.91Z" transform="translate(-14.8 -31)" style="fill:#00e5ca"/><path d="M65,46.17a48.66,48.66,0,0,0-5.43,4.72l-.34.33-.33-.33a49.58,49.58,0,0,0-5.43-4.72c.22-.24.45-.47.68-.7a59.67,59.67,0,0,1,5.08-4.53,56.76,56.76,0,0,1,5.08,4.53Z" transform="translate(-14.8 -31)" style="fill:#00a4e1"/><path d="M132.09,56.86v1.72H118.78V39.75h12.91v1.72H120.77v6.7h9.74v1.69h-9.74v7Z" transform="translate(-14.8 -31)" style="fill:#00a4e1"/><path d="M136.78,39.75h2V58.58h-2Z" transform="translate(-14.8 -31)" style="fill:#00a4e1"/><path d="M160.64,39.75V58.58H159L146.89,43.3V58.58h-2V39.75h1.64L158.67,55V39.75Z" transform="translate(-14.8 -31)" style="fill:#00a4e1"/><path d="M165,56.29l.78-1.53A9.23,9.23,0,0,0,172,57.05c3.53,0,5.06-1.48,5.06-3.34,0-5.16-11.59-2-11.59-9,0-2.77,2.15-5.16,6.94-5.16a10.59,10.59,0,0,1,5.83,1.67l-.67,1.58a9.68,9.68,0,0,0-5.16-1.56c-3.45,0-5,1.54-5,3.42,0,5.16,11.59,2,11.59,8.9,0,2.78-2.2,5.14-7,5.14C169.14,58.74,166.37,57.75,165,56.29Z" transform="translate(-14.8 -31)" style="fill:#00a4e1"/><path d="M186.71,41.47h-6.62V39.75h15.22v1.72H188.7V58.58h-2Z" transform="translate(-14.8 -31)" style="fill:#00a4e1"/><path d="M211.81,56.86v1.72H198.49V39.75H211.4v1.72H200.48v6.7h9.74v1.69h-9.74v7Z" transform="translate(-14.8 -31)" style="fill:#00a4e1"/><path d="M216.49,39.75h2V58.58h-2Z" transform="translate(-14.8 -31)" style="fill:#00a4e1"/><path d="M240.35,39.75V58.58h-1.64L226.6,43.3V58.58h-2V39.75h1.64L238.39,55V39.75Z" transform="translate(-14.8 -31)" style="fill:#00a4e1"/><path d="M134.57,73.33c0,4.27-3.23,6.94-8.37,6.94h-3.28v4.92h-5.33V66.36h8.61C131.34,66.36,134.57,69,134.57,73.33Zm-5.38,0c0-1.75-1.1-2.77-3.31-2.77h-3v5.51h3C128.09,76.07,129.19,75.05,129.19,73.33Z" transform="translate(-14.8 -31)" style="fill:#00a4e1"/><path d="M152.27,81.07v4.12H137.15V66.36h14.77v4.12h-9.5v3.17h8.37v4h-8.37v3.44Z" transform="translate(-14.8 -31)" style="fill:#00a4e1"/><path d="M163.46,80.19h-2.9v5h-5.33V66.36h8.61c5.14,0,8.37,2.66,8.37,7a6.25,6.25,0,0,1-3.69,5.94l4.06,5.92h-5.7Zm.06-9.63h-3v5.51h3c2.2,0,3.31-1,3.31-2.74S165.72,70.56,163.52,70.56Z" transform="translate(-14.8 -31)" style="fill:#00a4e1"/><path d="M178.88,70.58h-5.79V66.36H190v4.22H184.2V85.19h-5.32Z" transform="translate(-14.8 -31)" style="fill:#00a4e1"/><path d="M207.07,81.07v4.12H192V66.36h14.77v4.12h-9.49v3.17h8.36v4h-8.36v3.44Z" transform="translate(-14.8 -31)" style="fill:#00a4e1"/><path d="M228,66.36V85.19h-4.39l-8.31-10v10H210V66.36h4.39l8.31,10v-10Z" transform="translate(-14.8 -31)" style="fill:#00a4e1"/><path d="M230.75,75.78c0-5.74,4.38-9.8,10.35-9.8a10,10,0,0,1,8.1,3.55l-3.39,3.07a5.54,5.54,0,0,0-4.44-2.21,5.39,5.39,0,0,0,0,10.77A5.54,5.54,0,0,0,245.81,79L249.2,82a10,10,0,0,1-8.1,3.55C235.13,85.57,230.75,81.51,230.75,75.78Z" transform="translate(-14.8 -31)" style="fill:#00a4e1"/><path d="M266.69,81.07v4.12H251.57V66.36h14.77v4.12h-9.5v3.17h8.37v4h-8.37v3.44Z" transform="translate(-14.8 -31)" style="fill:#00a4e1"/><path d="M277.88,80.19H275v5h-5.32V66.36h8.61c5.13,0,8.36,2.66,8.36,7a6.24,6.24,0,0,1-3.68,5.94L287,85.19h-5.7Zm.05-9.63h-3v5.51h3c2.21,0,3.31-1,3.31-2.74S280.14,70.56,277.93,70.56Z" transform="translate(-14.8 -31)" style="fill:#00a4e1"/></g></svg>