<?xml version="1.0" encoding="UTF-8" standalone="no"?>
<!DOCTYPE svg PUBLIC "-//W3C//DTD SVG 1.1//EN" "http://www.w3.org/Graphics/SVG/1.1/DTD/svg11.dtd">
<svg width="100%" height="100%" viewBox="0 0 584 80" version="1.1" xmlns="http://www.w3.org/2000/svg" xmlns:xlink="http://www.w3.org/1999/xlink" xml:space="preserve" xmlns:serif="http://www.serif.com/" style="fill-rule:evenodd;clip-rule:evenodd;stroke-linejoin:round;stroke-miterlimit:2;">
    <g transform="matrix(1,0,0,1,-10850,-9570.25)">
        <g transform="matrix(1,0,0,1,10800,9546.75)">
            <g transform="matrix(1,0,0,-1,-97.316,99.8762)">
                <path d="M192.67,53.446C195.405,50.731 198.244,49.104 200.892,48.756C203.54,48.4 205.962,49.305 208.098,51.431C208.657,51.988 209.577,52 210.148,51.431C210.719,50.862 210.719,49.957 210.148,49.388C208.285,47.527 206.168,46.386 203.896,45.979L218.579,31.345C219.594,30.326 220.22,29.065 220.454,27.754L225.128,32.412C225.156,32.451 225.195,32.487 225.235,32.526C229.778,37.054 232.287,43.079 232.287,49.491C232.287,55.903 229.786,61.932 225.235,66.463C220.684,70.991 214.639,73.484 208.213,73.484L208.205,73.484C201.78,73.484 195.734,70.991 191.184,66.455C191.184,66.455 174.705,50.032 171.97,47.306C171.149,46.488 171.768,45.524 172.426,44.861C174.356,42.937 178.84,41.684 182.308,45.141L190.625,53.442C191.168,53.983 192.135,53.983 192.674,53.442L192.67,53.446ZM157.255,66.471C147.865,57.116 147.873,41.882 157.255,32.534C157.295,32.495 157.331,32.447 157.37,32.412L188.504,1.382C190.022,-0.119 192.472,-0.119 193.982,1.382C194.708,2.113 195.112,3.085 195.112,4.116C195.112,5.147 194.708,6.107 193.982,6.83L178.526,22.227C177.968,22.795 177.968,23.708 178.526,24.277C179.097,24.834 180.013,24.834 180.584,24.277L196.028,8.881C197.534,7.38 199.988,7.38 201.486,8.873C202.22,9.604 202.628,10.568 202.628,11.599C202.628,12.63 202.224,13.602 201.498,14.325L186.042,29.729C185.483,30.286 185.483,31.203 186.042,31.772C186.613,32.341 187.529,32.341 188.1,31.772L203.548,16.375C204.281,15.645 205.248,15.238 206.283,15.238C207.317,15.238 208.281,15.641 209.018,16.364C210.524,17.865 210.524,20.31 209.018,21.812L193.562,37.216C193.003,37.785 193.003,38.689 193.562,39.254C194.133,39.823 195.049,39.823 195.608,39.254L211.063,23.858C211.789,23.127 212.764,22.72 213.799,22.72C214.833,22.72 215.808,23.123 216.534,23.858C218.04,25.36 218.04,27.805 216.534,29.306L199.754,46.03C197.058,46.567 194.303,48.053 191.679,50.411L184.358,43.102C179.49,38.259 173.143,40.068 170.38,42.822C168.283,44.912 168.101,47.539 169.925,49.349C172.545,51.968 187.826,67.198 189.051,68.411C179.565,75.795 165.897,75.064 157.259,66.467L157.255,66.471ZM186.459,-0.664L155.198,30.484C155.158,30.523 155.123,30.571 155.091,30.606C144.685,41.099 144.725,58.064 155.206,68.514C165.009,78.276 180.604,79.007 191.247,70.398C196.032,74.27 201.954,76.38 208.205,76.38L208.213,76.38C215.408,76.38 222.19,73.587 227.284,68.514C232.374,63.429 235.185,56.681 235.185,49.499C235.185,42.316 232.422,35.663 227.387,30.598C227.36,30.559 227.32,30.523 227.292,30.484L218.579,21.82C217.307,20.54 215.606,19.836 213.799,19.836C213.521,19.836 213.259,19.864 212.986,19.896C213.216,17.912 212.582,15.842 211.063,14.321C209.791,13.049 208.086,12.35 206.283,12.35C206.013,12.35 205.74,12.369 205.47,12.397C205.51,12.136 205.53,11.868 205.53,11.599C205.53,9.801 204.824,8.107 203.548,6.834C202.224,5.523 200.495,4.871 198.767,4.871C198.497,4.871 198.228,4.891 197.966,4.918C197.994,4.657 198.014,4.389 198.014,4.12C198.014,2.323 197.308,0.624 196.032,-0.656C194.708,-1.964 192.979,-2.628 191.251,-2.628C189.511,-2.628 187.783,-1.968 186.459,-0.656L186.459,-0.664Z" style="fill:rgb(0,79,129);fill-rule:nonzero;"/>
            </g>
        </g>
        <g transform="matrix(1,0,0,1,10800,9546.75)">
            <g transform="matrix(1,0,0,-1,-106.24,63.8863)">
                <path d="M163.067,13.26C162.532,13.26 162.1,13.691 162.1,14.224C162.1,25.764 171.519,35.151 183.094,35.151C183.629,35.151 184.061,34.721 184.061,34.187C184.061,33.654 183.629,33.223 183.094,33.223C172.581,33.223 164.03,24.697 164.03,14.224C164.03,13.691 163.598,13.26 163.063,13.26L163.067,13.26Z" style="fill:rgb(0,79,129);fill-rule:nonzero;"/>
            </g>
        </g>
        <g transform="matrix(1,0,0,1,10800,9546.75)">
            <g transform="matrix(1,0,0,-1,-166.411,49.95)">
                <path d="M262.752,13.4C262.506,13.4 262.256,13.495 262.07,13.681C261.693,14.056 261.693,14.665 262.07,15.044C265.76,18.722 270.664,20.891 275.877,21.148C276.416,21.175 276.864,20.765 276.891,20.231C276.919,19.702 276.507,19.247 275.976,19.224C271.243,18.991 266.791,17.023 263.438,13.685C263.247,13.495 263.001,13.404 262.756,13.404L262.752,13.4Z" style="fill:rgb(0,79,129);fill-rule:nonzero;"/>
            </g>
        </g>
        <g transform="matrix(1,0,0,1,10800,9546.75)">
            <g transform="matrix(1,0,0,-1,-159.167,69.3644)">
                <path d="M250.752,28.074C250.506,28.074 250.256,28.168 250.07,28.354C249.693,28.729 249.693,29.338 250.07,29.717L254.827,34.458C255.203,34.833 255.814,34.833 256.194,34.458C256.575,34.083 256.571,33.474 256.194,33.095L251.438,28.354C251.247,28.165 251.002,28.074 250.756,28.074L250.752,28.074Z" style="fill:rgb(0,79,129);fill-rule:nonzero;"/>
            </g>
        </g>
        <g transform="matrix(1,0,0,1,10800,9546.75)">
            <g transform="matrix(1,0,0,-1,-152.371,91.073)">
                <path d="M239.492,45.334C239.246,45.334 238.996,45.428 238.81,45.614C238.433,45.99 238.433,46.598 238.81,46.977L241.188,49.348C241.565,49.723 242.175,49.723 242.556,49.348C242.937,48.972 242.933,48.364 242.556,47.985L240.178,45.614C239.987,45.425 239.742,45.334 239.496,45.334L239.492,45.334Z" style="fill:rgb(0,79,129);fill-rule:nonzero;"/>
            </g>
        </g>
        <g transform="matrix(1,0,0,1,10800,9546.75)">
            <g transform="matrix(1,0,0,-1,153.52,302.913)">
                <path d="M22.33,236.936L22.33,232.31L0,232.31L0,261.984L21.738,261.984L21.738,257.367L5.529,257.367L5.529,249.653L19.907,249.653L19.907,245.119L5.529,245.119L5.529,236.936L22.33,236.936Z" style="fill:rgb(0,79,129);fill-rule:nonzero;"/>
            </g>
        </g>
        <g transform="matrix(1,0,0,1,10800,9546.75)">
            <g transform="matrix(1,0,0,-1,151.198,302.913)">
                <rect x="30.82" y="232.31" width="5.529" height="29.674" style="fill:rgb(0,79,129);"/>
            </g>
        </g>
        <g transform="matrix(1,0,0,1,10800,9546.75)">
            <g transform="matrix(1,0,0,-1,150.091,302.913)">
                <path d="M71.954,261.984L71.954,232.31L67.405,232.31L50.983,252.409L50.983,232.31L45.5,232.31L45.5,261.984L50.049,261.984L66.471,241.885L66.471,261.984L71.954,261.984L71.954,261.984Z" style="fill:rgb(0,79,129);fill-rule:nonzero;"/>
            </g>
        </g>
        <g transform="matrix(1,0,0,1,10800,9546.75)">
            <g transform="matrix(1,0,0,-1,147.489,302.857)">
                <path d="M80.039,235.388L81.953,239.673C84.339,237.765 88.121,236.411 91.782,236.411C96.415,236.411 98.375,238.06 98.375,240.272C98.375,246.677 80.677,242.475 80.677,253.496C80.677,258.288 84.505,262.361 92.67,262.361C96.248,262.361 99.984,261.431 102.582,259.735L100.834,255.45C98.153,257.016 95.222,257.781 92.624,257.781C88.028,257.781 86.16,256.003 86.16,253.754C86.16,247.442 103.812,251.552 103.812,240.659C103.812,235.913 99.937,231.84 91.773,231.84C87.14,231.84 82.499,233.278 80.03,235.397L80.039,235.388Z" style="fill:rgb(0,79,129);fill-rule:nonzero;"/>
            </g>
        </g>
        <g transform="matrix(1,0,0,1,10800,9546.75)">
            <g transform="matrix(1,0,0,-1,145.45,302.913)">
                <path d="M116.956,257.321L107.09,257.321L107.09,261.984L132.36,261.984L132.36,257.321L122.494,257.321L122.494,232.31L116.965,232.31L116.965,257.321L116.956,257.321Z" style="fill:rgb(0,79,129);fill-rule:nonzero;"/>
            </g>
        </g>
        <g transform="matrix(1,0,0,1,10800,9546.75)">
            <g transform="matrix(1,0,0,-1,143.051,302.913)">
                <path d="M161.25,236.936L161.25,232.31L138.92,232.31L138.92,261.984L160.658,261.984L160.658,257.367L144.449,257.367L144.449,249.653L158.827,249.653L158.827,245.119L144.449,245.119L144.449,236.936L161.25,236.936Z" style="fill:rgb(0,79,129);fill-rule:nonzero;"/>
            </g>
        </g>
        <g transform="matrix(1,0,0,1,10800,9546.75)">
            <g transform="matrix(1,0,0,-1,140.728,302.913)">
                <rect x="169.74" y="232.31" width="5.529" height="29.674" style="fill:rgb(0,79,129);"/>
            </g>
        </g>
        <g transform="matrix(1,0,0,1,10800,9546.75)">
            <g transform="matrix(1,0,0,-1,139.622,302.913)">
                <path d="M210.874,261.984L210.874,232.31L206.325,232.31L189.903,252.409L189.903,232.31L184.42,232.31L184.42,261.984L188.969,261.984L205.391,241.885L205.391,261.984L210.874,261.984L210.874,261.984Z" style="fill:rgb(0,79,129);fill-rule:nonzero;"/>
            </g>
        </g>
        <g transform="matrix(1,0,0,1,10800,9546.75)">
            <g transform="matrix(1,0,0,-1,135.858,302.913)">
                <path d="M259.288,251.432C259.288,244.908 254.443,240.871 246.611,240.871L239.889,240.871L239.889,232.31L234.36,232.31L234.36,261.984L246.611,261.984C254.434,261.984 259.288,257.993 259.288,251.423L259.288,251.432ZM253.713,251.432C253.713,255.164 251.207,257.33 246.353,257.33L239.889,257.33L239.889,245.543L246.353,245.543C251.207,245.543 253.713,247.709 253.713,251.432Z" style="fill:rgb(0,79,129);fill-rule:nonzero;"/>
            </g>
        </g>
        <g transform="matrix(1,0,0,1,10800,9546.75)">
            <g transform="matrix(1,0,0,-1,133.376,302.913)">
                <path d="M289.63,236.927L289.63,232.31L267.3,232.31L267.3,261.984L289.038,261.984L289.038,257.367L272.829,257.367L272.829,249.653L287.207,249.653L287.207,245.119L272.829,245.119L272.829,236.936L289.63,236.936L289.63,236.927Z" style="fill:rgb(0,79,129);fill-rule:nonzero;"/>
            </g>
        </g>
        <g transform="matrix(1,0,0,1,10800,9546.75)">
            <g transform="matrix(1,0,0,-1,131.053,302.922)">
                <path d="M317.602,232.319L311.518,241.009C311.139,240.963 310.751,240.963 310.371,240.963L303.649,240.963L303.649,232.319L298.12,232.319L298.12,261.993L310.371,261.993C318.194,261.993 323.048,258.003 323.048,251.432C323.048,246.935 320.755,243.636 316.715,242.06L323.566,232.31L317.611,232.31L317.602,232.319ZM310.113,257.33L303.649,257.33L303.649,245.497L310.113,245.497C314.967,245.497 317.473,247.7 317.473,251.432C317.473,255.164 314.967,257.33 310.113,257.33Z" style="fill:rgb(0,79,129);fill-rule:nonzero;"/>
            </g>
        </g>
        <g transform="matrix(1,0,0,1,10800,9546.75)">
            <g transform="matrix(1,0,0,-1,128.865,302.913)">
                <path d="M337.016,257.321L327.15,257.321L327.15,261.984L352.42,261.984L352.42,257.321L342.554,257.321L342.554,232.31L337.025,232.31L337.025,257.321L337.016,257.321Z" style="fill:rgb(0,79,129);fill-rule:nonzero;"/>
            </g>
        </g>
        <g transform="matrix(1,0,0,1,10800,9546.75)">
            <g transform="matrix(1,0,0,-1,126.467,302.913)">
                <path d="M381.31,236.927L381.31,232.31L358.98,232.31L358.98,261.984L380.718,261.984L380.718,257.367L364.509,257.367L364.509,249.653L378.887,249.653L378.887,245.119L364.509,245.119L364.509,236.936L381.31,236.936L381.31,236.927Z" style="fill:rgb(0,79,129);fill-rule:nonzero;"/>
            </g>
        </g>
        <g transform="matrix(1,0,0,1,10800,9546.75)">
            <g transform="matrix(1,0,0,-1,124.144,302.913)">
                <path d="M416.254,261.984L416.254,232.31L411.705,232.31L395.283,252.409L395.283,232.31L389.8,232.31L389.8,261.984L394.349,261.984L410.771,241.885L410.771,261.984L416.254,261.984L416.254,261.984Z" style="fill:rgb(0,79,129);fill-rule:nonzero;"/>
            </g>
        </g>
        <g transform="matrix(1,0,0,1,10800,9546.75)">
            <g transform="matrix(1,0,0,-1,121.51,302.877)">
                <path d="M424.759,247.111C424.759,255.976 431.565,262.371 440.709,262.371C445.554,262.371 449.724,260.63 452.489,257.414L448.92,254.068C446.747,256.4 444.066,257.543 440.968,257.543C434.801,257.543 430.335,253.221 430.335,247.111C430.335,241.001 434.801,236.679 440.968,236.679C444.075,236.679 446.756,237.822 448.92,240.199L452.489,236.808C449.724,233.582 445.554,231.85 440.663,231.85C431.555,231.85 424.75,238.255 424.75,247.111L424.759,247.111Z" style="fill:rgb(0,79,129);fill-rule:nonzero;"/>
            </g>
        </g>
        <g transform="matrix(1,0,0,1,10800,9546.75)">
            <g transform="matrix(1,0,0,-1,118.816,302.913)">
                <path d="M482.83,236.936L482.83,232.31L460.5,232.31L460.5,261.984L482.238,261.984L482.238,257.367L466.029,257.367L466.029,249.653L480.407,249.653L480.407,245.119L466.029,245.119L466.029,236.936L482.83,236.936Z" style="fill:rgb(0,79,129);fill-rule:nonzero;"/>
            </g>
        </g>
        <g transform="matrix(1,0,0,1,10800,9546.75)">
            <g transform="matrix(1,0,0,-1,116.493,302.922)">
                <path d="M510.802,232.319L504.718,241.009C504.339,240.963 503.951,240.963 503.571,240.963L496.849,240.963L496.849,232.319L491.32,232.319L491.32,261.993L503.571,261.993C511.394,261.993 516.248,258.003 516.248,251.432C516.248,246.935 513.955,243.636 509.915,242.06L516.766,232.31L510.811,232.31L510.802,232.319ZM503.313,257.33L496.849,257.33L496.849,245.497L503.313,245.497C508.167,245.497 510.673,247.7 510.673,251.432C510.673,255.164 508.167,257.33 503.313,257.33Z" style="fill:rgb(0,79,129);fill-rule:nonzero;"/>
            </g>
        </g>
        <g transform="matrix(1,0,0,1,10800,9546.75)">
            <g transform="matrix(1,0,0,-1,153.52,354.422)">
                <path d="M6.482,275.516C6.482,273.821 5.224,272.77 3.181,272.77L1.433,272.77L1.433,270.54L0,270.54L0,278.263L3.19,278.263C5.224,278.263 6.491,277.221 6.491,275.516L6.482,275.516ZM5.03,275.516C5.03,276.484 4.374,277.046 3.116,277.046L1.433,277.046L1.433,273.977L3.116,273.977C4.374,273.977 5.03,274.54 5.03,275.507L5.03,275.516Z" style="fill:rgb(0,79,129);fill-rule:nonzero;"/>
            </g>
        </g>
        <g transform="matrix(1,0,0,1,10800,9546.75)">
            <g transform="matrix(1,0,0,-1,152.875,354.422)">
                <path d="M13.637,270.54L12.056,272.798C11.954,272.789 11.852,272.789 11.76,272.789L10.012,272.789L10.012,270.54L8.57,270.54L8.57,278.263L11.76,278.263C13.794,278.263 15.061,277.221 15.061,275.516C15.061,274.346 14.46,273.489 13.415,273.083L15.2,270.549L13.646,270.549L13.637,270.54ZM11.686,277.046L10.003,277.046L10.003,273.968L11.686,273.968C12.944,273.968 13.6,274.539 13.6,275.516C13.6,276.493 12.944,277.046 11.686,277.046Z" style="fill:rgb(0,79,129);fill-rule:nonzero;"/>
            </g>
        </g>
        <g transform="matrix(1,0,0,1,10800,9546.75)">
            <g transform="matrix(1,0,0,-1,152.26,354.413)">
                <path d="M16.72,274.392C16.72,276.677 18.486,278.364 20.89,278.364C23.294,278.364 25.06,276.686 25.06,274.392C25.06,272.097 23.294,270.42 20.89,270.42C18.486,270.42 16.72,272.106 16.72,274.392ZM23.609,274.392C23.609,275.968 22.444,277.101 20.89,277.101C19.337,277.101 18.172,275.968 18.172,274.392C18.172,272.816 19.337,271.682 20.89,271.682C22.444,271.682 23.609,272.816 23.609,274.392Z" style="fill:rgb(0,79,129);fill-rule:nonzero;"/>
            </g>
        </g>
        <g transform="matrix(1,0,0,1,10800,9546.75)">
            <g transform="matrix(1,0,0,-1,151.501,354.394)">
                <path d="M32.644,274.465L34.003,274.465L34.003,271.387C33.198,270.733 32.07,270.41 30.97,270.41C28.566,270.41 26.8,272.078 26.8,274.382C26.8,276.686 28.566,278.354 30.998,278.354C32.292,278.354 33.374,277.921 34.105,277.1L33.198,276.216C32.588,276.824 31.895,277.1 31.063,277.1C29.417,277.1 28.252,275.985 28.252,274.391C28.252,272.797 29.417,271.682 31.053,271.682C31.608,271.682 32.144,271.792 32.644,272.078L32.644,274.483L32.644,274.465Z" style="fill:rgb(0,79,129);fill-rule:nonzero;"/>
            </g>
        </g>
        <g transform="matrix(1,0,0,1,10800,9546.75)">
            <g transform="matrix(1,0,0,-1,150.759,354.422)">
                <path d="M41.707,270.54L40.126,272.798C40.024,272.789 39.922,272.789 39.83,272.789L38.082,272.789L38.082,270.54L36.64,270.54L36.64,278.263L39.83,278.263C41.864,278.263 43.131,277.221 43.131,275.516C43.131,274.346 42.53,273.489 41.485,273.083L43.27,270.549L41.716,270.549L41.707,270.54ZM39.756,277.046L38.073,277.046L38.073,273.968L39.756,273.968C41.014,273.968 41.67,274.539 41.67,275.516C41.67,276.493 41.014,277.046 39.756,277.046Z" style="fill:rgb(0,79,129);fill-rule:nonzero;"/>
            </g>
        </g>
        <g transform="matrix(1,0,0,1,10800,9546.75)">
            <g transform="matrix(1,0,0,-1,150.189,354.422)">
                <path d="M50.331,272.328L46.457,272.328L45.689,270.54L44.21,270.54L47.696,278.263L49.111,278.263L52.606,270.54L51.099,270.54L50.322,272.328L50.331,272.328ZM49.86,273.452L48.399,276.825L46.947,273.452L49.86,273.452Z" style="fill:rgb(0,79,129);fill-rule:nonzero;"/>
            </g>
        </g>
        <g transform="matrix(1,0,0,1,10800,9546.75)">
            <g transform="matrix(1,0,0,-1,149.423,354.422)">
                <path d="M61.471,270.54L61.471,275.655L58.919,271.425L58.281,271.425L55.738,275.59L55.738,270.54L54.37,270.54L54.37,278.263L55.554,278.263L58.633,273.148L61.656,278.263L62.84,278.263L62.84,270.54L61.471,270.54Z" style="fill:rgb(0,79,129);fill-rule:nonzero;"/>
            </g>
        </g>
        <g transform="matrix(1,0,0,1,10800,9546.75)">
            <g transform="matrix(1,0,0,-1,148.651,354.422)">
                <path d="M70.731,272.328L66.857,272.328L66.089,270.54L64.61,270.54L68.096,278.263L69.511,278.263L73.006,270.54L71.499,270.54L70.722,272.328L70.731,272.328ZM70.26,273.452L68.799,276.825L67.347,273.452L70.26,273.452Z" style="fill:rgb(0,79,129);fill-rule:nonzero;"/>
            </g>
        </g>
        <g transform="matrix(1,0,0,1,10800,9546.75)">
            <g transform="matrix(1,0,0,-1,147.638,354.422)">
                <path d="M78.06,278.263L81.444,278.263C83.959,278.263 85.67,276.724 85.67,274.401C85.67,272.079 83.959,270.54 81.444,270.54L78.06,270.54L78.06,278.263ZM81.379,271.756C83.109,271.756 84.218,272.807 84.218,274.401C84.218,275.996 83.099,277.046 81.379,277.046L79.502,277.046L79.502,271.756L81.379,271.756Z" style="fill:rgb(0,79,129);fill-rule:nonzero;"/>
            </g>
        </g>
        <g transform="matrix(1,0,0,1,10800,9546.75)">
            <g transform="matrix(1,0,0,-1,146.892,354.403)">
                <path d="M93.757,271.737L93.757,270.53L87.95,270.53L87.95,278.253L93.6,278.253L93.6,277.055L89.383,277.055L89.383,275.046L93.119,275.046L93.119,273.866L89.383,273.866L89.383,271.737L93.757,271.737Z" style="fill:rgb(0,79,129);fill-rule:nonzero;"/>
            </g>
        </g>
        <g transform="matrix(1,0,0,1,10800,9546.75)">
            <g transform="matrix(1,0,0,-1,146.038,354.422)">
                <rect x="99.28" y="270.54" width="1.442" height="7.723" style="fill:rgb(0,79,129);"/>
            </g>
        </g>
        <g transform="matrix(1,0,0,1,10800,9546.75)">
            <g transform="matrix(1,0,0,-1,145.751,354.422)">
                <path d="M109.979,278.263L109.979,270.54L108.796,270.54L104.524,275.765L104.524,270.54L103.1,270.54L103.1,278.263L104.284,278.263L108.555,273.037L108.555,278.263L109.979,278.263Z" style="fill:rgb(0,79,129);fill-rule:nonzero;"/>
            </g>
        </g>
        <g transform="matrix(1,0,0,1,10800,9546.75)">
            <g transform="matrix(1,0,0,-1,145.102,354.422)">
                <path d="M114.281,277.046L111.71,277.046L111.71,278.262L118.284,278.262L118.284,277.046L115.714,277.046L115.714,270.54L114.271,270.54L114.271,277.046L114.281,277.046Z" style="fill:rgb(0,79,129);fill-rule:nonzero;"/>
            </g>
        </g>
        <g transform="matrix(1,0,0,1,10800,9546.75)">
            <g transform="matrix(1,0,0,-1,144.477,354.403)">
                <path d="M125.807,271.728L125.807,270.53L120,270.53L120,278.253L125.65,278.253L125.65,277.055L121.433,277.055L121.433,275.046L125.169,275.046L125.169,273.866L121.433,273.866L121.433,271.737L125.807,271.737L125.807,271.728Z" style="fill:rgb(0,79,129);fill-rule:nonzero;"/>
            </g>
        </g>
        <g transform="matrix(1,0,0,1,10800,9546.75)">
            <g transform="matrix(1,0,0,-1,143.921,354.394)">
                <path d="M133.224,274.465L134.583,274.465L134.583,271.387C133.779,270.733 132.65,270.41 131.55,270.41C129.146,270.41 127.38,272.078 127.38,274.382C127.38,276.686 129.146,278.354 131.578,278.354C132.872,278.354 133.954,277.921 134.685,277.1L133.779,276.216C133.168,276.824 132.475,277.1 131.643,277.1C129.997,277.1 128.832,275.985 128.832,274.391C128.832,272.797 129.997,271.682 131.633,271.682C132.188,271.682 132.724,271.792 133.224,272.078L133.224,274.483L133.224,274.465Z" style="fill:rgb(0,79,129);fill-rule:nonzero;"/>
            </g>
        </g>
        <g transform="matrix(1,0,0,1,10800,9546.75)">
            <g transform="matrix(1,0,0,-1,143.179,354.422)">
                <path d="M142.287,270.54L140.706,272.798C140.604,272.789 140.502,272.789 140.41,272.789L138.662,272.789L138.662,270.54L137.22,270.54L137.22,278.263L140.41,278.263C142.444,278.263 143.711,277.221 143.711,275.516C143.711,274.346 143.11,273.489 142.065,273.083L143.85,270.549L142.296,270.549L142.287,270.54ZM140.336,277.046L138.653,277.046L138.653,273.968L140.336,273.968C141.594,273.968 142.25,274.539 142.25,275.516C142.25,276.493 141.594,277.046 140.336,277.046Z" style="fill:rgb(0,79,129);fill-rule:nonzero;"/>
            </g>
        </g>
        <g transform="matrix(1,0,0,1,10800,9546.75)">
            <g transform="matrix(1,0,0,-1,142.609,354.422)">
                <path d="M150.911,272.328L147.037,272.328L146.269,270.54L144.79,270.54L148.276,278.263L149.691,278.263L153.186,270.54L151.679,270.54L150.902,272.328L150.911,272.328ZM150.44,273.452L148.979,276.825L147.527,273.452L150.44,273.452Z" style="fill:rgb(0,79,129);fill-rule:nonzero;"/>
            </g>
        </g>
        <g transform="matrix(1,0,0,1,10800,9546.75)">
            <g transform="matrix(1,0,0,-1,141.897,356.828)">
                <path d="M160.508,275.01L161.442,274.125C160.749,273.324 159.713,272.872 158.502,272.835L158.391,272.402C159.047,272.328 159.352,271.951 159.352,271.481C159.352,270.845 158.751,270.43 157.845,270.43C157.448,270.43 157.106,270.504 156.828,270.66L157.087,271.315C157.318,271.195 157.559,271.14 157.836,271.14C158.243,271.14 158.419,271.296 158.419,271.536C158.419,271.748 158.252,271.895 157.836,271.895L157.494,271.895L157.753,272.863C155.709,273.13 154.23,274.706 154.23,276.798C154.23,279.102 155.996,280.77 158.382,280.77C159.639,280.77 160.73,280.318 161.442,279.48L160.508,278.613C159.944,279.221 159.251,279.516 158.437,279.516C156.828,279.516 155.672,278.392 155.672,276.807C155.672,275.222 156.837,274.098 158.437,274.098C159.242,274.098 159.944,274.393 160.508,275.01Z" style="fill:rgb(0,79,129);fill-rule:nonzero;"/>
            </g>
        </g>
        <g transform="matrix(1,0,0,1,10800,9546.75)">
            <g transform="matrix(1,0,0,-1,141.3,352.072)">
                <path d="M168.281,269.978L164.407,269.978L163.639,268.19L162.16,268.19L165.646,275.913L167.061,275.913L170.556,268.19L169.049,268.19L168.272,269.978L168.281,269.978ZM165.11,276.604L164.37,276.604C164.388,277.507 164.86,278.078 165.563,278.078C166.265,278.078 166.672,277.35 167.07,277.35C167.384,277.35 167.588,277.581 167.615,277.977L168.355,277.977C168.337,277.12 167.865,276.53 167.162,276.53C166.46,276.53 166.053,277.258 165.655,277.258C165.341,277.258 165.137,277.018 165.11,276.594L165.11,276.604ZM167.81,271.102L166.349,274.475L164.897,271.102L167.81,271.102Z" style="fill:rgb(0,79,129);fill-rule:nonzero;"/>
            </g>
        </g>
        <g transform="matrix(1,0,0,1,10800,9546.75)">
            <g transform="matrix(1,0,0,-1,140.589,354.413)">
                <path d="M171.59,274.392C171.59,276.677 173.356,278.364 175.76,278.364C178.164,278.364 179.93,276.686 179.93,274.392C179.93,272.097 178.164,270.42 175.76,270.42C173.356,270.42 171.59,272.106 171.59,274.392ZM178.479,274.392C178.479,275.968 177.314,277.101 175.76,277.101C174.207,277.101 173.042,275.968 173.042,274.392C173.042,272.816 174.207,271.682 175.76,271.682C177.314,271.682 178.479,272.816 178.479,274.392Z" style="fill:rgb(0,79,129);fill-rule:nonzero;"/>
            </g>
        </g>
        <g transform="matrix(1,0,0,1,10800,9546.75)">
            <g transform="matrix(1,0,0,-1,139.535,354.403)">
                <path d="M191.387,271.737L191.387,270.53L185.58,270.53L185.58,278.253L191.23,278.253L191.23,277.055L187.013,277.055L187.013,275.046L190.749,275.046L190.749,273.866L187.013,273.866L187.013,271.737L191.387,271.737Z" style="fill:rgb(0,79,129);fill-rule:nonzero;"/>
            </g>
        </g>
        <g transform="matrix(1,0,0,1,10800,9546.75)">
            <g transform="matrix(1,0,0,-1,138.736,354.413)">
                <path d="M196.189,271.351L196.689,272.466C197.308,271.968 198.297,271.618 199.241,271.618C200.443,271.618 200.951,272.051 200.951,272.622C200.951,274.29 196.346,273.194 196.346,276.06C196.346,277.304 197.345,278.364 199.462,278.364C200.396,278.364 201.367,278.124 202.042,277.682L201.589,276.567C200.896,276.972 200.128,277.175 199.453,277.175C198.26,277.175 197.77,276.714 197.77,276.124C197.77,274.484 202.366,275.553 202.366,272.715C202.366,271.48 201.358,270.42 199.231,270.42C198.029,270.42 196.818,270.798 196.18,271.351L196.189,271.351Z" style="fill:rgb(0,79,129);fill-rule:nonzero;"/>
            </g>
        </g>
        <g transform="matrix(1,0,0,1,10800,9546.75)">
            <g transform="matrix(1,0,0,-1,138.159,354.413)">
                <path d="M203.83,274.392C203.83,276.677 205.596,278.364 208,278.364C210.404,278.364 212.17,276.686 212.17,274.392C212.17,272.097 210.404,270.42 208,270.42C205.596,270.42 203.83,272.106 203.83,274.392ZM210.719,274.392C210.719,275.968 209.554,277.101 208,277.101C206.447,277.101 205.282,275.968 205.282,274.392C205.282,272.816 206.447,271.682 208,271.682C209.554,271.682 210.719,272.816 210.719,274.392Z" style="fill:rgb(0,79,129);fill-rule:nonzero;"/>
            </g>
        </g>
        <g transform="matrix(1,0,0,1,10800,9546.75)">
            <g transform="matrix(1,0,0,-1,137.4,354.404)">
                <path d="M213.909,274.383C213.909,276.686 215.675,278.354 218.061,278.354C219.318,278.354 220.409,277.903 221.121,277.064L220.188,276.198C219.624,276.806 218.93,277.101 218.116,277.101C216.508,277.101 215.352,275.977 215.352,274.392C215.352,272.807 216.517,271.683 218.116,271.683C218.921,271.683 219.624,271.977 220.188,272.595L221.121,271.71C220.4,270.872 219.318,270.42 218.042,270.42C215.675,270.42 213.9,272.088 213.9,274.392L213.909,274.383Z" style="fill:rgb(0,79,129);fill-rule:nonzero;"/>
            </g>
        </g>
        <g transform="matrix(1,0,0,1,10800,9546.75)">
            <g transform="matrix(1,0,0,-1,136.699,354.422)">
                <rect x="223.21" y="270.54" width="1.442" height="7.723" style="fill:rgb(0,79,129);"/>
            </g>
        </g>
        <g transform="matrix(1,0,0,1,10800,9546.75)">
            <g transform="matrix(1,0,0,-1,136.5,354.422)">
                <path d="M231.961,272.328L228.087,272.328L227.319,270.54L225.84,270.54L229.326,278.263L230.741,278.263L234.236,270.54L232.729,270.54L231.952,272.328L231.961,272.328ZM231.49,273.452L230.029,276.825L228.577,273.452L231.49,273.452Z" style="fill:rgb(0,79,129);fill-rule:nonzero;"/>
            </g>
        </g>
        <g transform="matrix(1,0,0,1,10800,9546.75)">
            <g transform="matrix(1,0,0,-1,135.735,354.422)">
                <path d="M236,278.263L237.442,278.263L237.442,271.756L241.492,271.756L241.492,270.54L236.009,270.54L236.009,278.263L236,278.263Z" style="fill:rgb(0,79,129);fill-rule:nonzero;"/>
            </g>
        </g>
        <g transform="matrix(1,0,0,1,10800,9546.75)">
            <g transform="matrix(1,0,0,-1,135.194,354.422)">
                <rect x="243.17" y="270.54" width="1.442" height="7.723" style="fill:rgb(0,79,129);"/>
            </g>
        </g>
        <g transform="matrix(1,0,0,1,10800,9546.75)">
            <g transform="matrix(1,0,0,-1,134.955,354.422)">
                <path d="M252.952,271.756L252.952,270.54L246.35,270.54L246.35,271.498L250.908,277.046L246.433,277.046L246.433,278.263L252.813,278.263L252.813,277.304L248.255,271.756L252.952,271.756Z" style="fill:rgb(0,79,129);fill-rule:nonzero;"/>
            </g>
        </g>
        <g transform="matrix(1,0,0,1,10800,9546.75)">
            <g transform="matrix(1,0,0,-1,134.398,354.422)">
                <path d="M259.861,272.328L255.987,272.328L255.219,270.54L253.74,270.54L257.226,278.263L258.641,278.263L262.136,270.54L260.629,270.54L259.852,272.328L259.861,272.328ZM259.39,273.452L257.929,276.825L256.477,273.452L259.39,273.452Z" style="fill:rgb(0,79,129);fill-rule:nonzero;"/>
            </g>
        </g>
        <g transform="matrix(1,0,0,1,10800,9546.75)">
            <g transform="matrix(1,0,0,-1,133.686,356.828)">
                <path d="M269.458,275.01L270.392,274.125C269.699,273.324 268.663,272.872 267.452,272.835L267.341,272.402C267.997,272.328 268.303,271.951 268.303,271.481C268.303,270.845 267.702,270.43 266.795,270.43C266.398,270.43 266.056,270.504 265.778,270.66L266.037,271.315C266.268,271.195 266.509,271.14 266.786,271.14C267.193,271.14 267.369,271.296 267.369,271.536C267.369,271.748 267.202,271.895 266.786,271.895L266.444,271.895L266.703,272.863C264.659,273.13 263.18,274.706 263.18,276.798C263.18,279.102 264.946,280.77 267.332,280.77C268.589,280.77 269.68,280.318 270.392,279.48L269.458,278.613C268.894,279.221 268.201,279.516 267.387,279.516C265.778,279.516 264.622,278.392 264.622,276.807C264.622,275.222 265.788,274.098 267.387,274.098C268.192,274.098 268.894,274.393 269.458,275.01Z" style="fill:rgb(0,79,129);fill-rule:nonzero;"/>
            </g>
        </g>
        <g transform="matrix(1,0,0,1,10800,9546.75)">
            <g transform="matrix(1,0,0,-1,133.089,352.072)">
                <path d="M277.231,269.978L273.357,269.978L272.589,268.19L271.11,268.19L274.596,275.913L276.011,275.913L279.506,268.19L277.999,268.19L277.222,269.978L277.231,269.978ZM274.06,276.604L273.32,276.604C273.338,277.507 273.81,278.078 274.513,278.078C275.215,278.078 275.622,277.35 276.02,277.35C276.334,277.35 276.538,277.581 276.565,277.977L277.305,277.977C277.287,277.12 276.815,276.53 276.112,276.53C275.41,276.53 275.003,277.258 274.605,277.258C274.291,277.258 274.087,277.018 274.06,276.594L274.06,276.604ZM276.76,271.102L275.299,274.475L273.847,271.102L276.76,271.102Z" style="fill:rgb(0,79,129);fill-rule:nonzero;"/>
            </g>
        </g>
        <g transform="matrix(1,0,0,1,10800,9546.75)">
            <g transform="matrix(1,0,0,-1,132.378,354.413)">
                <path d="M280.54,274.392C280.54,276.677 282.306,278.364 284.71,278.364C287.114,278.364 288.88,276.686 288.88,274.392C288.88,272.097 287.114,270.42 284.71,270.42C282.306,270.42 280.54,272.106 280.54,274.392ZM287.429,274.392C287.429,275.968 286.264,277.101 284.71,277.101C283.157,277.101 281.992,275.968 281.992,274.392C281.992,272.816 283.157,271.682 284.71,271.682C286.264,271.682 287.429,272.816 287.429,274.392Z" style="fill:rgb(0,79,129);fill-rule:nonzero;"/>
            </g>
        </g>
        <g transform="matrix(1,0,0,1,10800,9546.75)">
            <g transform="matrix(1,0,0,-1,131.325,354.422)">
                <path d="M294.52,278.263L297.904,278.263C300.419,278.263 302.13,276.724 302.13,274.401C302.13,272.079 300.419,270.54 297.904,270.54L294.52,270.54L294.52,278.263ZM297.839,271.756C299.569,271.756 300.678,272.807 300.678,274.401C300.678,275.996 299.559,277.046 297.839,277.046L295.962,277.046L295.962,271.756L297.839,271.756Z" style="fill:rgb(0,79,129);fill-rule:nonzero;"/>
            </g>
        </g>
        <g transform="matrix(1,0,0,1,10800,9546.75)">
            <g transform="matrix(1,0,0,-1,130.678,354.422)">
                <path d="M309.221,272.328L305.347,272.328L304.579,270.54L303.1,270.54L306.586,278.263L308.001,278.263L311.496,270.54L309.989,270.54L309.212,272.328L309.221,272.328ZM308.75,273.452L307.289,276.825L305.837,273.452L308.75,273.452Z" style="fill:rgb(0,79,129);fill-rule:nonzero;"/>
            </g>
        </g>
        <g transform="matrix(1,0,0,1,10800,9546.75)">
            <g transform="matrix(1,0,0,-1,129.663,354.422)">
                <path d="M323.449,278.263L323.449,270.54L322.266,270.54L317.994,275.765L317.994,270.54L316.57,270.54L316.57,278.263L317.754,278.263L322.025,273.037L322.025,278.263L323.449,278.263Z" style="fill:rgb(0,79,129);fill-rule:nonzero;"/>
            </g>
        </g>
        <g transform="matrix(1,0,0,1,10800,9546.75)">
            <g transform="matrix(1,0,0,-1,128.978,354.413)">
                <path d="M325.66,274.392C325.66,276.677 327.426,278.364 329.83,278.364C332.234,278.364 334,276.686 334,274.392C334,272.097 332.234,270.42 329.83,270.42C327.426,270.42 325.66,272.106 325.66,274.392ZM332.549,274.392C332.549,275.968 331.384,277.101 329.83,277.101C328.277,277.101 327.112,275.968 327.112,274.392C327.112,272.816 328.277,271.682 329.83,271.682C331.384,271.682 332.549,272.816 332.549,274.392Z" style="fill:rgb(0,79,129);fill-rule:nonzero;"/>
            </g>
        </g>
        <g transform="matrix(1,0,0,1,10800,9546.75)">
            <g transform="matrix(1,0,0,-1,128.282,354.422)">
                <path d="M343.064,278.263L339.689,270.54L338.274,270.54L334.89,278.263L336.453,278.263L339.032,272.309L341.631,278.263L343.064,278.263Z" style="fill:rgb(0,79,129);fill-rule:nonzero;"/>
            </g>
        </g>
        <g transform="matrix(1,0,0,1,10800,9546.75)">
            <g transform="matrix(1,0,0,-1,127.658,354.422)">
                <path d="M349.291,272.328L345.417,272.328L344.649,270.54L343.17,270.54L346.656,278.263L348.071,278.263L351.566,270.54L350.059,270.54L349.282,272.328L349.291,272.328ZM348.82,273.452L347.359,276.825L345.907,273.452L348.82,273.452Z" style="fill:rgb(0,79,129);fill-rule:nonzero;"/>
            </g>
        </g>
        <g transform="matrix(1,0,0,1,10800,9546.75)">
            <g transform="matrix(1,0,0,-1,126.645,354.422)">
                <path d="M363.111,275.516C363.111,273.821 361.853,272.77 359.81,272.77L358.062,272.77L358.062,270.54L356.62,270.54L356.62,278.263L359.81,278.263C361.844,278.263 363.111,277.221 363.111,275.516L363.111,275.516ZM361.659,275.516C361.659,276.484 361.003,277.046 359.745,277.046L358.062,277.046L358.062,273.977L359.745,273.977C361.003,273.977 361.659,274.54 361.659,275.507L361.659,275.516Z" style="fill:rgb(0,79,129);fill-rule:nonzero;"/>
            </g>
        </g>
        <g transform="matrix(1,0,0,1,10800,9546.75)">
            <g transform="matrix(1,0,0,-1,125.998,354.403)">
                <path d="M371.007,271.737L371.007,270.53L365.2,270.53L365.2,278.253L370.85,278.253L370.85,277.055L366.633,277.055L366.633,275.046L370.369,275.046L370.369,273.866L366.633,273.866L366.633,271.737L371.007,271.737Z" style="fill:rgb(0,79,129);fill-rule:nonzero;"/>
            </g>
        </g>
        <g transform="matrix(1,0,0,1,10800,9546.75)">
            <g transform="matrix(1,0,0,-1,125.447,354.413)">
                <path d="M372.519,271.351L373.019,272.466C373.638,271.968 374.627,271.618 375.571,271.618C376.773,271.618 377.281,272.051 377.281,272.622C377.281,274.29 372.676,273.194 372.676,276.06C372.676,277.304 373.675,278.364 375.792,278.364C376.726,278.364 377.697,278.124 378.372,277.682L377.919,276.567C377.226,276.972 376.458,277.175 375.783,277.175C374.59,277.175 374.1,276.714 374.1,276.124C374.1,274.484 378.696,275.553 378.696,272.715C378.696,271.48 377.688,270.42 375.561,270.42C374.359,270.42 373.148,270.798 372.51,271.351L372.519,271.351Z" style="fill:rgb(0,79,129);fill-rule:nonzero;"/>
            </g>
        </g>
        <g transform="matrix(1,0,0,1,10800,9546.75)">
            <g transform="matrix(1,0,0,-1,124.88,354.413)">
                <path d="M380.049,271.351L380.549,272.466C381.168,271.968 382.148,271.618 383.101,271.618C384.303,271.618 384.811,272.051 384.811,272.622C384.811,274.29 380.206,273.194 380.206,276.06C380.206,277.304 381.205,278.364 383.322,278.364C384.256,278.364 385.227,278.124 385.902,277.682L385.449,276.567C384.756,276.972 383.988,277.175 383.313,277.175C382.12,277.175 381.63,276.714 381.63,276.124C381.63,274.484 386.226,275.553 386.226,272.715C386.226,271.48 385.218,270.42 383.091,270.42C381.889,270.42 380.678,270.798 380.04,271.351L380.049,271.351Z" style="fill:rgb(0,79,129);fill-rule:nonzero;"/>
            </g>
        </g>
        <g transform="matrix(1,0,0,1,10800,9546.75)">
            <g transform="matrix(1,0,0,-1,124.304,354.413)">
                <path d="M387.68,274.392C387.68,276.677 389.446,278.364 391.85,278.364C394.254,278.364 396.02,276.686 396.02,274.392C396.02,272.097 394.254,270.42 391.85,270.42C389.446,270.42 387.68,272.106 387.68,274.392ZM394.569,274.392C394.569,275.968 393.403,277.101 391.85,277.101C390.297,277.101 389.132,275.968 389.132,274.392C389.132,272.816 390.297,271.682 391.85,271.682C393.403,271.682 394.569,272.816 394.569,274.392Z" style="fill:rgb(0,79,129);fill-rule:nonzero;"/>
            </g>
        </g>
        <g transform="matrix(1,0,0,1,10800,9546.75)">
            <g transform="matrix(1,0,0,-1,123.598,354.422)">
                <path d="M403.171,272.328L399.297,272.328L398.529,270.54L397.05,270.54L400.536,278.263L401.951,278.263L405.446,270.54L403.939,270.54L403.162,272.328L403.171,272.328ZM402.7,273.452L401.239,276.825L399.787,273.452L402.7,273.452Z" style="fill:rgb(0,79,129);fill-rule:nonzero;"/>
            </g>
        </g>
        <g transform="matrix(1,0,0,1,10800,9546.75)">
            <g transform="matrix(1,0,0,-1,122.629,354.404)">
                <path d="M409.909,274.383C409.909,276.686 411.675,278.354 414.061,278.354C415.318,278.354 416.409,277.903 417.121,277.064L416.188,276.198C415.624,276.806 414.93,277.101 414.116,277.101C412.508,277.101 411.352,275.977 411.352,274.392C411.352,272.807 412.517,271.683 414.116,271.683C414.921,271.683 415.624,271.977 416.188,272.595L417.121,271.71C416.4,270.872 415.318,270.42 414.042,270.42C411.675,270.42 409.9,272.088 409.9,274.392L409.909,274.383Z" style="fill:rgb(0,79,129);fill-rule:nonzero;"/>
            </g>
        </g>
        <g transform="matrix(1,0,0,1,10800,9546.75)">
            <g transform="matrix(1,0,0,-1,121.986,354.413)">
                <path d="M418.44,274.392C418.44,276.677 420.206,278.364 422.61,278.364C425.014,278.364 426.78,276.686 426.78,274.392C426.78,272.097 425.014,270.42 422.61,270.42C420.206,270.42 418.44,272.106 418.44,274.392ZM425.329,274.392C425.329,275.968 424.164,277.101 422.61,277.101C421.057,277.101 419.892,275.968 419.892,274.392C419.892,272.816 421.057,271.682 422.61,271.682C424.164,271.682 425.329,272.816 425.329,274.392Z" style="fill:rgb(0,79,129);fill-rule:nonzero;"/>
            </g>
        </g>
        <g transform="matrix(1,0,0,1,10800,9546.75)">
            <g transform="matrix(1,0,0,-1,121.181,354.422)">
                <path d="M429.11,278.263L430.552,278.263L430.552,271.756L434.602,271.756L434.602,270.54L429.119,270.54L429.119,278.263L429.11,278.263Z" style="fill:rgb(0,79,129);fill-rule:nonzero;"/>
            </g>
        </g>
        <g transform="matrix(1,0,0,1,10800,9546.75)">
            <g transform="matrix(1,0,0,-1,120.726,354.422)">
                <path d="M441.281,272.328L437.407,272.328L436.639,270.54L435.16,270.54L438.646,278.263L440.061,278.263L443.556,270.54L442.049,270.54L441.272,272.328L441.281,272.328ZM440.81,273.452L439.349,276.825L437.897,273.452L440.81,273.452Z" style="fill:rgb(0,79,129);fill-rule:nonzero;"/>
            </g>
        </g>
        <g transform="matrix(1,0,0,1,10800,9546.75)">
            <g transform="matrix(1,0,0,-1,119.961,354.403)">
                <path d="M452.189,272.622C452.189,271.295 451.154,270.53 449.156,270.53L445.31,270.53L445.31,278.253L448.944,278.253C450.802,278.253 451.801,277.469 451.801,276.244C451.801,275.451 451.403,274.861 450.802,274.548C451.635,274.281 452.198,273.636 452.198,272.631L452.189,272.622ZM446.743,277.119L446.743,274.99L448.777,274.99C449.776,274.99 450.34,275.34 450.34,276.05C450.34,276.76 449.776,277.119 448.777,277.119L446.743,277.119ZM450.738,272.76C450.738,273.534 450.155,273.875 449.064,273.875L446.743,273.875L446.743,271.645L449.064,271.645C450.146,271.645 450.738,271.986 450.738,272.76Z" style="fill:rgb(0,79,129);fill-rule:nonzero;"/>
            </g>
        </g>
        <g transform="matrix(1,0,0,1,10800,9546.75)">
            <g transform="matrix(1,0,0,-1,119.319,354.413)">
                <path d="M453.82,274.392C453.82,276.677 455.586,278.364 457.99,278.364C460.394,278.364 462.16,276.686 462.16,274.392C462.16,272.097 460.394,270.42 457.99,270.42C455.586,270.42 453.82,272.106 453.82,274.392ZM460.709,274.392C460.709,275.968 459.544,277.101 457.99,277.101C456.437,277.101 455.272,275.968 455.272,274.392C455.272,272.816 456.437,271.682 457.99,271.682C459.544,271.682 460.709,272.816 460.709,274.392Z" style="fill:rgb(0,79,129);fill-rule:nonzero;"/>
            </g>
        </g>
        <g transform="matrix(1,0,0,1,10800,9546.75)">
            <g transform="matrix(1,0,0,-1,118.514,354.422)">
                <path d="M469.567,270.54L467.986,272.798C467.884,272.789 467.782,272.789 467.69,272.789L465.942,272.789L465.942,270.54L464.5,270.54L464.5,278.263L467.69,278.263C469.724,278.263 470.991,277.221 470.991,275.516C470.991,274.346 470.39,273.489 469.345,273.083L471.13,270.549L469.576,270.549L469.567,270.54ZM467.616,277.046L465.933,277.046L465.933,273.968L467.616,273.968C468.874,273.968 469.53,274.539 469.53,275.516C469.53,276.493 468.874,277.046 467.616,277.046Z" style="fill:rgb(0,79,129);fill-rule:nonzero;"/>
            </g>
        </g>
        <g transform="matrix(1,0,0,1,10800,9546.75)">
            <g transform="matrix(1,0,0,-1,117.945,354.422)">
                <path d="M478.181,272.328L474.307,272.328L473.539,270.54L472.06,270.54L475.546,278.263L476.961,278.263L480.456,270.54L478.949,270.54L478.172,272.328L478.181,272.328ZM477.71,273.452L476.249,276.825L474.797,273.452L477.71,273.452Z" style="fill:rgb(0,79,129);fill-rule:nonzero;"/>
            </g>
        </g>
        <g transform="matrix(1,0,0,1,10800,9546.75)">
            <g transform="matrix(1,0,0,-1,117.179,354.422)">
                <path d="M482.22,278.263L485.604,278.263C488.119,278.263 489.83,276.724 489.83,274.401C489.83,272.079 488.119,270.54 485.604,270.54L482.22,270.54L482.22,278.263ZM485.539,271.756C487.268,271.756 488.378,272.807 488.378,274.401C488.378,275.996 487.259,277.046 485.539,277.046L483.662,277.046L483.662,271.756L485.539,271.756Z" style="fill:rgb(0,79,129);fill-rule:nonzero;"/>
            </g>
        </g>
        <g transform="matrix(1,0,0,1,10800,9546.75)">
            <g transform="matrix(1,0,0,-1,116.479,354.413)">
                <path d="M491.51,274.392C491.51,276.677 493.276,278.364 495.68,278.364C498.084,278.364 499.85,276.686 499.85,274.392C499.85,272.097 498.084,270.42 495.68,270.42C493.276,270.42 491.51,272.106 491.51,274.392ZM498.399,274.392C498.399,275.968 497.234,277.101 495.68,277.101C494.127,277.101 492.962,275.968 492.962,274.392C492.962,272.816 494.127,271.682 495.68,271.682C497.234,271.682 498.399,272.816 498.399,274.392Z" style="fill:rgb(0,79,129);fill-rule:nonzero;"/>
            </g>
        </g>
        <g transform="matrix(1,0,0,1,10800,9546.75)">
            <g transform="matrix(1,0,0,-1,115.675,354.422)">
                <path d="M507.247,270.54L505.666,272.798C505.564,272.789 505.462,272.789 505.37,272.789L503.622,272.789L503.622,270.54L502.18,270.54L502.18,278.263L505.37,278.263C507.404,278.263 508.671,277.221 508.671,275.516C508.671,274.346 508.07,273.489 507.025,273.083L508.81,270.549L507.256,270.549L507.247,270.54ZM505.296,277.046L503.613,277.046L503.613,273.968L505.296,273.968C506.554,273.968 507.21,274.539 507.21,275.516C507.21,276.493 506.554,277.046 505.296,277.046Z" style="fill:rgb(0,79,129);fill-rule:nonzero;"/>
            </g>
        </g>
        <g transform="matrix(1,0,0,1,10800,9546.75)">
            <g transform="matrix(1,0,0,-1,115.104,354.422)">
                <path d="M515.871,272.328L511.997,272.328L511.229,270.54L509.75,270.54L513.236,278.263L514.651,278.263L518.146,270.54L516.639,270.54L515.862,272.328L515.871,272.328ZM515.4,273.452L513.939,276.825L512.487,273.452L515.4,273.452Z" style="fill:rgb(0,79,129);fill-rule:nonzero;"/>
            </g>
        </g>
    </g>
</svg>
