<svg id="Layer_2" data-name="Layer 2" xmlns="http://www.w3.org/2000/svg" width="180.859" height="177.933" viewBox="0 0 180.859 177.933">
  <g id="Group_4496" data-name="Group 4496">
    <rect id="Rectangle_2740" data-name="Rectangle 2740" width="180.859" height="177.933" fill="#fff" opacity="0"/>
    <g id="Group_4494" data-name="Group 4494" transform="translate(50.845 23.575)">
      <g id="Group_4493" data-name="Group 4493">
        <rect id="Rectangle_2741" data-name="Rectangle 2741" width="37.666" height="9.396" fill="#fff"/>
        <rect id="Rectangle_2742" data-name="Rectangle 2742" width="37.666" height="9.396" transform="translate(42.343)" fill="#fff"/>
        <path id="Path_8000" data-name="Path 8000" d="M479.75,186.922V121.37h9.4v75.161Z" transform="translate(-437.407 -121.37)" fill="#fff"/>
        <path id="Path_8001" data-name="Path 8001" d="M416.7,186.922V121.37H407.31v75.161Z" transform="translate(-379.038 -121.37)" fill="#fff"/>
        <rect id="Rectangle_2743" data-name="Rectangle 2743" width="23.575" height="9.396" transform="translate(0 23.575) rotate(-90)" fill="#fff"/>
        <rect id="Rectangle_2744" data-name="Rectangle 2744" width="23.575" height="9.396" transform="translate(70.615 23.575) rotate(-90)" fill="#fff"/>
        <rect id="Rectangle_2745" data-name="Rectangle 2745" width="80.009" height="9.396" transform="translate(0 14.18)" fill="#fff"/>
      </g>
      <path id="Path_8002" data-name="Path 8002" d="M479.75,242.74v4.537l9.277-4.537Z" transform="translate(-437.407 -219.165)" fill="#fff" opacity="0.4"/>
      <path id="Path_8003" data-name="Path 8003" d="M387.789,203.647H383.25l4.539-9.277Z" transform="translate(-359.651 -180.19)" fill="#fff" opacity="0.4"/>
    </g>
    <path id="Path_8004" data-name="Path 8004" d="M133.211,542.18H121.37v4.891h3.475v31.66h4.891v-31.66h3.475Z" transform="translate(-97.795 -436.865)" fill="#fff"/>
    <rect id="Rectangle_2746" data-name="Rectangle 2746" width="36.551" height="4.891" transform="translate(70.952 141.866) rotate(-90)" fill="#fff"/>
    <path id="Path_8005" data-name="Path 8005" d="M454.311,573.84V542.18H449.42v36.551h7.95V573.84Z" transform="translate(-362.123 -436.865)" fill="#fff"/>
    <path id="Path_8006" data-name="Path 8006" d="M540.67,542.18v16.346h-2.659V542.18H533.12v36.551h4.891V563.415h2.659v15.316h4.891V542.18Z" transform="translate(-429.565 -436.865)" fill="#fff"/>
    <path id="Path_8007" data-name="Path 8007" d="M655.2,578.731h4.891l-4.075-36.551h-5.3l-4.075,36.551h4.891l.375-6.692h2.919l.375,6.692Zm-3.063-11.4,1.1-19.487h.26l1.068,19.487Z" transform="translate(-521.034 -436.865)" fill="#fff"/>
    <path id="Path_8008" data-name="Path 8008" d="M255.185,570.172a21.8,21.8,0,0,0-2.03-7.836,9.368,9.368,0,0,0-1.7-2.426c1.705-1.432,3.277-3.881,3.277-8.042,0-9.094-7.508-9.838-7.508-9.838v.029H242.33V578.61h4.891v-15.9c1.158.458,1.873,2.288,2.817,5.462s.936,10.439.936,10.439h5.012s-.571-6.664-.8-8.438Zm-7.494-12.288V547.207c1.261.794,2.583,2.337,2.583,5.311A5.95,5.95,0,0,1,247.691,557.884Z" transform="translate(-195.259 -436.744)" fill="#fff"/>
    <path id="Path_8009" data-name="Path 8009" d="M769.115,540.868s-4.161-2.1-7.206.859-2.7,8.58-2.187,11.711,2.446,6.907,3.261,9.31,2.23,7.036.472,8.622-4.071.258-4.071.258v4.934s3.343,1.715,5.874.214,4.2-4.347,3.862-8.823-1.931-8.18-2.918-11.068-3.347-8.809-1.03-10.868,3.992-.3,3.992-.3l-.045-4.848Z" transform="translate(-611.876 -435.225)" fill="#fff"/>
    <g id="Group_4495" data-name="Group 4495" transform="translate(24.127 148.416)">
      <path id="Path_8010" data-name="Path 8010" d="M128.92,767.551a3.115,3.115,0,0,1-.332,1.443,2.561,2.561,0,0,1-.882,1,2.68,2.68,0,0,1-.851.357,5.583,5.583,0,0,1-1.237.111H124.21V764.63H125.6a5.359,5.359,0,0,1,1.3.124,2.772,2.772,0,0,1,.814.34,2.579,2.579,0,0,1,.888.993,3.188,3.188,0,0,1,.319,1.47Zm-.775-.012a2.614,2.614,0,0,0-.229-1.156,1.707,1.707,0,0,0-.682-.74,2.246,2.246,0,0,0-.7-.272,4.488,4.488,0,0,0-.888-.076h-.7v4.5h.7a4.7,4.7,0,0,0,.934-.082,2.065,2.065,0,0,0,.732-.3,1.729,1.729,0,0,0,.624-.732,2.744,2.744,0,0,0,.208-1.136Z" transform="translate(-124.21 -764.521)" fill="#fff"/>
      <path id="Path_8011" data-name="Path 8011" d="M161.868,770.447H158.78V764.61h3.089v.69H159.52v1.6h2.348v.69H159.52v2.168h2.348v.689Z" transform="translate(-152.065 -764.505)" fill="#fff"/>
      <path id="Path_8012" data-name="Path 8012" d="M205.585,770.447h-.791l-.546-1.628h-2.411l-.546,1.628h-.752l2.028-5.837h.989Zm-1.564-2.292-.977-2.865-.981,2.865Z" transform="translate(-185.713 -764.505)" fill="#fff"/>
      <path id="Path_8013" data-name="Path 8013" d="M240.648,766.384a1.969,1.969,0,0,1-.128.719,1.72,1.72,0,0,1-.361.575,1.84,1.84,0,0,1-.682.453,2.785,2.785,0,0,1-.993.152h-.742v2.176H237V764.62h1.513a3.53,3.53,0,0,1,.849.087,1.9,1.9,0,0,1,.618.276,1.537,1.537,0,0,1,.491.557,1.8,1.8,0,0,1,.175.843Zm-.771.019a1.26,1.26,0,0,0-.1-.526.874.874,0,0,0-.307-.365,1.2,1.2,0,0,0-.41-.175,2.684,2.684,0,0,0-.583-.052h-.734v2.333h.625a2.614,2.614,0,0,0,.73-.083,1.018,1.018,0,0,0,.456-.268,1.153,1.153,0,0,0,.249-.4A1.4,1.4,0,0,0,239.877,766.4Z" transform="translate(-215.091 -764.513)" fill="#fff"/>
      <path id="Path_8014" data-name="Path 8014" d="M271.165,770.447H270.2l-1.476-2.321h-1.045v2.321h-.742V764.61h1.173a6.935,6.935,0,0,1,1.037.068,1.745,1.745,0,0,1,.606.245,1.464,1.464,0,0,1,.474.5,1.565,1.565,0,0,1,.171.769,1.774,1.774,0,0,1-.3,1.057,2.489,2.489,0,0,1-1.029.641l2.1,2.552Zm-1.538-4.194a1.109,1.109,0,0,0-.084-.445.766.766,0,0,0-.28-.328,1.017,1.017,0,0,0-.383-.159,4.991,4.991,0,0,0-.715-.045h-.484v2.2h.359a2.6,2.6,0,0,0,.614-.064.965.965,0,0,0,.445-.241c.113-.111.39-.235.443-.379a1.541,1.541,0,0,0,.08-.542Z" transform="translate(-239.216 -764.505)" fill="#fff"/>
      <path id="Path_8015" data-name="Path 8015" d="M300.629,770.447H297.54V764.61h3.089v.69H298.28v1.6h2.154v.69H298.28v2.168h2.348v.689Z" transform="translate(-263.872 -764.505)" fill="#fff"/>
      <path id="Path_8016" data-name="Path 8016" d="M330.289,770.447h-.917l-3.03-4.833v4.833h-.691V764.61h.956l2.993,4.767V764.61h.692v5.837Z" transform="translate(-286.521 -764.505)" fill="#fff"/>
      <path id="Path_8017" data-name="Path 8017" d="M368,767.551a3.115,3.115,0,0,1-.332,1.443,2.561,2.561,0,0,1-.882,1,2.681,2.681,0,0,1-.851.357,5.583,5.583,0,0,1-1.237.111H363.29V764.63h1.393a5.359,5.359,0,0,1,1.3.124,2.773,2.773,0,0,1,.814.34,2.579,2.579,0,0,1,.888.993,3.188,3.188,0,0,1,.319,1.47Zm-.775-.012a2.614,2.614,0,0,0-.229-1.156,1.706,1.706,0,0,0-.682-.74,2.246,2.246,0,0,0-.7-.272,4.489,4.489,0,0,0-.888-.076h-.7v4.5h.7a4.705,4.705,0,0,0,.934-.082,2.065,2.065,0,0,0,.732-.3,1.728,1.728,0,0,0,.624-.732,2.744,2.744,0,0,0,.208-1.136Z" transform="translate(-316.85 -764.521)" fill="#fff"/>
      <path id="Path_8018" data-name="Path 8018" d="M397.452,770.439H395.64v-.6h.536V765.2h-.536v-.6h1.812v.6h-.536v4.646h.536Z" transform="translate(-342.916 -764.497)" fill="#fff"/>
      <path id="Path_8019" data-name="Path 8019" d="M415.217,770.447H410.31L413.9,765.3h-2.9v-.69h4.3l-3.607,5.147h3.533Z" transform="translate(-354.737 -764.505)" fill="#fff"/>
      <path id="Path_8020" data-name="Path 8020" d="M447.485,770.447h-.791l-.546-1.628h-2.411l-.546,1.628h-.752l2.028-5.837h.989Zm-1.566-2.292-.977-2.865-.981,2.865Z" transform="translate(-380.626 -764.505)" fill="#fff"/>
      <path id="Path_8021" data-name="Path 8021" d="M480.229,769.581a6.984,6.984,0,0,1-1,.383,3.663,3.663,0,0,1-2.242-.025,2.425,2.425,0,0,1-.925-.565,2.553,2.553,0,0,1-.594-.95,3.864,3.864,0,0,1-.21-1.334,3.048,3.048,0,0,1,.781-2.209,2.837,2.837,0,0,1,2.142-.81,4.14,4.14,0,0,1,.971.121,5.081,5.081,0,0,1,1.068.406v.921h-.068c-.078-.062-.19-.146-.336-.247a3.2,3.2,0,0,0-.435-.255,3.146,3.146,0,0,0-.587-.2,3.1,3.1,0,0,0-.744-.08,1.857,1.857,0,0,0-1.48.629,2.976,2.976,0,0,0,.025,3.465,1.983,1.983,0,0,0,1.55.629,3.585,3.585,0,0,0,.717-.074,3.064,3.064,0,0,0,.627-.192v-1.626h-1.3v-.682h2.034v2.7Z" transform="translate(-407.071 -764.07)" fill="#fff"/>
      <path id="Path_8022" data-name="Path 8022" d="M516.739,770.447H513.65V764.61h3.089v.69H514.39v1.6h1.96v.69h-1.96v2.168h2.348v.689Z" transform="translate(-438.004 -764.505)" fill="#fff"/>
      <path id="Path_8023" data-name="Path 8023" d="M605.2,770.447H602.11V764.61H605.2v.69H602.85v1.6h1.96v.69h-1.96v2.168H605.2v.689Z" transform="translate(-509.281 -764.505)" fill="#fff"/>
      <path id="Path_8024" data-name="Path 8024" d="M546.676,770.447h-.742v-5.029l-2.036,5.029h-.429l-2.036-5.029v5.029h-.693V764.61h1.01l1.933,4.619,1.962-4.619h1.029v5.837Z" transform="translate(-459.832 -764.505)" fill="#fff"/>
      <path id="Path_8025" data-name="Path 8025" d="M627.862,770.439H626.05v-.6h.536V765.2h-.536v-.6h1.812v.6h-.536v4.646h.536Z" transform="translate(-528.571 -764.497)" fill="#fff"/>
      <path id="Path_8026" data-name="Path 8026" d="M650.661,770.447h-.917l-3.03-5.221v5.221h-.693V764.61h1.15l2.8,4.767V764.61h.692Z" transform="translate(-544.662 -764.505)" fill="#fff"/>
      <path id="Path_8027" data-name="Path 8027" d="M788.041,770.447h-.917l-3.03-5.221v5.221H783.4V764.61h1.15l2.8,4.767V764.61h.692Z" transform="translate(-655.356 -764.505)" fill="#fff"/>
      <path id="Path_8028" data-name="Path 8028" d="M685.593,768.347a1.9,1.9,0,0,1-.126.674,1.649,1.649,0,0,1-.355.565,1.855,1.855,0,0,1-.585.392,2.045,2.045,0,0,1-.806.142,3.192,3.192,0,0,1-.909-.118,4.09,4.09,0,0,1-.822-.349v-.971h.045a2.519,2.519,0,0,0,.82.569,2.2,2.2,0,0,0,.872.2,1.355,1.355,0,0,0,.9-.27,1.039,1.039,0,0,0,.171-1.294.983.983,0,0,0-.462-.285,3.913,3.913,0,0,0-.511-.13c-.185-.035-.377-.078-.583-.13a1.622,1.622,0,0,1-.921-.563,1.677,1.677,0,0,1-.3-1.037,1.582,1.582,0,0,1,.5-1.2,1.757,1.757,0,0,1,1.259-.468,3.224,3.224,0,0,1,.9.119,3.571,3.571,0,0,1,.728.289v.917h-.045a2.079,2.079,0,0,0-.7-.468,2.236,2.236,0,0,0-.89-.187,1.193,1.193,0,0,0-.8.258.836.836,0,0,0-.3.666.8.8,0,0,0,.682.89q.2.055.571.134a6.179,6.179,0,0,1,.627.161,1.563,1.563,0,0,1,.785.521,1.583,1.583,0,0,1,.264.977Z" transform="translate(-573.645 -764.07)" fill="#fff"/>
      <path id="Path_8029" data-name="Path 8029" d="M712.9,765.31h-1.6v5.147h-.742V765.31h-1.6v-.69H712.9Z" transform="translate(-595.368 -764.513)" fill="#fff"/>
      <path id="Path_8030" data-name="Path 8030" d="M742.358,770.447H739.27V764.61h3.089v.69H740.01v1.6h2.154v.69H740.01v2.168h2.348v.689Z" transform="translate(-619.798 -764.505)" fill="#fff"/>
      <path id="Path_8031" data-name="Path 8031" d="M765.972,770.439H764.16v-.6h.536V765.2h-.536v-.6h1.812v.6h-.536v4.646h.536Z" transform="translate(-639.854 -764.497)" fill="#fff"/>
      <path id="Path_8032" data-name="Path 8032" d="M277.387,779.64l1.908,2.918H278.7l-1.671-2.5Z" transform="translate(-247.346 -776.616)" fill="#fff"/>
    </g>
  </g>
</svg>
