<svg width="135" height="132" viewBox="0 0 135 132" fill="none" xmlns="http://www.w3.org/2000/svg">
<path d="M65.511 0.574951H27.845V9.97095H65.511V0.574951Z" fill="black"/>
<path d="M107.854 0.574951H70.188V9.97095H107.854V0.574951Z" fill="black"/>
<path d="M70.188 66.1269V0.574951H79.588V75.736L70.188 66.1269Z" fill="black"/>
<path d="M65.507 66.1269V0.574951H56.1169V75.736L65.507 66.1269Z" fill="black"/>
<path d="M27.845 0.574902V24.1499H37.241V0.574902H27.845Z" fill="black"/>
<path d="M98.46 0.574902V24.1499H107.856V0.574902H98.46Z" fill="black"/>
<path d="M107.854 14.755H27.845V24.151H107.854V14.755Z" fill="black"/>
<path opacity="0.4" d="M70.188 24.1499V28.6869L79.465 24.1499H70.188Z" fill="black"/>
<path opacity="0.4" d="M55.983 24.032H51.444L55.983 14.755V24.032Z" fill="black"/>
<path d="M12.4159 82.3149H0.574951V87.2059H4.04995V118.866H8.94094V87.2059H12.4159V82.3149Z" fill="black"/>
<path d="M47.952 82.315V118.866H52.843V82.315H47.952Z" fill="black"/>
<path d="M69.188 113.975V82.3149H64.297V118.866H72.247V113.975H69.188Z" fill="black"/>
<path d="M88.1049 82.3149V98.6609H85.4459V82.3149H80.5549V118.866H85.4459V103.55H88.1049V118.866H92.9959V82.3149H88.1049Z" fill="black"/>
<path d="M111.166 118.866H116.057L111.982 82.3149H106.682L102.607 118.866H107.498L107.873 112.174H110.792L111.166 118.866ZM108.103 107.466L109.203 87.9789H109.463L110.531 107.466H108.103Z" fill="black"/>
<path d="M36.926 110.428C36.7445 107.712 36.056 105.054 34.896 102.592C34.4616 101.698 33.8878 100.879 33.196 100.166C34.901 98.734 36.473 96.285 36.473 92.124C36.473 83.03 28.965 82.286 28.965 82.286V82.315H24.071V118.866H28.962V102.966C30.12 103.424 30.835 105.254 31.779 108.428C32.723 111.602 32.715 118.867 32.715 118.867H37.727C37.727 118.867 37.156 112.203 36.927 110.429L36.926 110.428ZM29.432 98.14V87.463C30.693 88.257 32.015 89.8 32.015 92.774C32.0939 93.8165 31.8966 94.8614 31.4432 95.8034C30.9897 96.7454 30.2961 97.5513 29.432 98.14Z" fill="black"/>
<path d="M134.239 82.643C134.239 82.643 130.078 80.543 127.033 83.502C123.988 86.461 124.333 92.082 124.846 95.213C125.359 98.344 127.292 102.12 128.107 104.523C128.922 106.926 130.337 111.559 128.579 113.145C126.821 114.731 124.508 113.403 124.508 113.403V118.337C124.508 118.337 127.851 120.052 130.382 118.551C132.913 117.05 134.582 114.204 134.244 109.728C133.906 105.252 132.313 101.548 131.326 98.66C130.339 95.772 127.979 89.851 130.296 87.792C132.613 85.733 134.288 87.492 134.288 87.492L134.243 82.644L134.239 82.643Z" fill="black"/>
<path d="M5.83695 128.446C5.84388 128.947 5.72999 129.442 5.50495 129.889C5.30441 130.294 5.0001 130.639 4.62296 130.889C4.36207 131.056 4.07413 131.177 3.77196 131.246C3.36504 131.329 2.95013 131.366 2.53495 131.357H1.12695V125.525H2.51695C2.95372 125.513 3.3903 125.555 3.81696 125.649C4.1047 125.718 4.37951 125.833 4.63095 125.989C5.0088 126.237 5.31503 126.579 5.51896 126.982C5.74102 127.44 5.8504 127.944 5.83796 128.452L5.83695 128.446ZM5.06196 128.434C5.07461 128.036 4.99628 127.641 4.83295 127.278C4.68515 126.968 4.44749 126.711 4.15096 126.538C3.93454 126.409 3.6979 126.317 3.45095 126.266C3.15821 126.211 2.86075 126.186 2.56296 126.19H1.86295V130.69H2.56296C2.87625 130.694 3.18913 130.666 3.49696 130.608C3.75801 130.556 4.00656 130.454 4.22895 130.308C4.502 130.128 4.71837 129.874 4.85295 129.576C5.00209 129.216 5.07299 128.829 5.06095 128.44L5.06196 128.434Z" fill="black"/>
<path d="M10.9299 131.358H7.84192V125.521H10.9309V126.211H8.58192V127.811H10.9299V128.501H8.58192V130.669H10.9299V131.358Z" fill="black"/>
<path d="M20.999 131.358H20.208L19.662 129.73H17.251L16.705 131.358H15.953L17.981 125.521H18.97L20.999 131.358ZM19.435 129.066L18.458 126.201L17.477 129.066H19.435Z" fill="black"/>
<path d="M26.684 127.287C26.6865 127.533 26.6431 127.776 26.556 128.006C26.4751 128.22 26.3523 128.415 26.195 128.581C26.0046 128.781 25.7715 128.936 25.513 129.034C25.194 129.144 24.8575 129.196 24.52 129.186H23.778V131.362H23.036V125.523H24.549C24.8345 125.518 25.1196 125.547 25.398 125.61C25.6189 125.664 25.8282 125.758 26.016 125.886C26.2227 126.029 26.3913 126.22 26.507 126.443C26.6327 126.706 26.6927 126.995 26.682 127.286L26.684 127.287ZM25.913 127.306C25.9177 127.126 25.8836 126.946 25.813 126.78C25.7465 126.632 25.6402 126.506 25.506 126.415C25.3815 126.332 25.2424 126.272 25.096 126.24C24.9042 126.201 24.7087 126.184 24.513 126.188H23.779V128.521H24.404C24.65 128.528 24.8958 128.5 25.134 128.438C25.307 128.39 25.4643 128.298 25.59 128.17C25.6997 128.055 25.7844 127.919 25.839 127.77C25.89 127.62 25.915 127.462 25.913 127.303V127.306Z" fill="black"/>
<path d="M33.076 131.358H32.111L30.635 129.037H29.59V131.358H28.848V125.521H30.021C30.3679 125.518 30.7145 125.54 31.058 125.589C31.2736 125.632 31.4792 125.715 31.664 125.834C31.8595 125.961 32.022 126.132 32.138 126.334C32.2596 126.571 32.3185 126.836 32.309 127.103C32.3234 127.478 32.2183 127.848 32.009 128.16C31.7241 128.455 31.3706 128.675 30.98 128.801L33.08 131.353L33.076 131.358ZM31.538 127.164C31.5409 127.011 31.5123 126.86 31.454 126.719C31.394 126.585 31.2968 126.471 31.174 126.391C31.0586 126.312 30.9282 126.258 30.791 126.232C30.5541 126.2 30.3151 126.185 30.076 126.187H29.592V128.387H29.951C30.1575 128.39 30.3636 128.369 30.565 128.323C30.7321 128.284 30.8858 128.2 31.01 128.082C31.123 127.971 31.4 127.847 31.453 127.703C31.5118 127.529 31.5389 127.345 31.533 127.161L31.538 127.164Z" fill="black"/>
<path d="M37.8839 131.358H34.7949V125.521H37.8839V126.211H35.5349V127.811H37.6889V128.501H35.5349V130.669H37.8829V131.358H37.8839Z" fill="black"/>
<path d="M44.895 131.358H43.978L40.948 126.525V131.358H40.257V125.521H41.213L44.206 130.288V125.521H44.8979V131.358H44.895Z" fill="black"/>
<path d="M52.277 128.446C52.2839 128.947 52.17 129.442 51.945 129.889C51.7445 130.294 51.4402 130.639 51.063 130.889C50.8021 131.056 50.5142 131.177 50.212 131.246C49.8051 131.329 49.3902 131.366 48.975 131.357H47.567V125.525H48.96C49.3968 125.513 49.8334 125.555 50.26 125.649C50.5477 125.718 50.8226 125.833 51.074 125.989C51.4519 126.237 51.7581 126.579 51.962 126.982C52.1841 127.44 52.2934 127.944 52.281 128.452L52.277 128.446ZM51.502 128.434C51.5147 128.036 51.4363 127.641 51.273 127.278C51.1253 126.968 50.8876 126.711 50.591 126.538C50.3746 126.409 50.138 126.317 49.891 126.266C49.5983 126.211 49.3008 126.186 49.003 126.19H48.303V130.69H49.003C49.3163 130.694 49.6292 130.666 49.937 130.608C50.1981 130.556 50.4466 130.454 50.669 130.308C50.9421 130.128 51.1585 129.874 51.293 129.576C51.4421 129.216 51.513 128.829 51.501 128.44L51.502 128.434Z" fill="black"/>
<path d="M55.6629 131.358H53.851V130.758H54.3869V126.119H53.851V125.519H55.6629V126.119H55.1269V130.765H55.6629V131.358Z" fill="black"/>
<path d="M61.607 131.358H56.7L60.2899 126.211H57.39V125.521H61.6899L58.0829 130.668H61.616L61.607 131.358Z" fill="black"/>
<path d="M67.9859 131.358H67.1949L66.649 129.73H64.2379L63.692 131.358H62.9399L64.968 125.521H65.9569L67.9859 131.358ZM66.42 129.066L65.4429 126.201L64.4619 129.066H66.42Z" fill="black"/>
<path d="M74.285 130.927C73.962 131.08 73.6277 131.208 73.285 131.31C72.5534 131.536 71.7694 131.527 71.043 131.285C70.696 131.169 70.3798 130.976 70.118 130.72C69.8521 130.451 69.6492 130.127 69.524 129.77C69.3762 129.341 69.3052 128.89 69.314 128.436C69.292 128.034 69.3497 127.633 69.4838 127.253C69.6178 126.874 69.8255 126.525 70.095 126.227C70.3762 125.951 70.7118 125.736 71.0806 125.596C71.4494 125.457 71.8433 125.396 72.237 125.417C72.5643 125.419 72.8903 125.459 73.208 125.538C73.5781 125.633 73.9364 125.769 74.276 125.944V126.865H74.208C74.13 126.803 74.018 126.719 73.872 126.618C73.7339 126.522 73.5885 126.436 73.437 126.363C73.2484 126.277 73.0518 126.21 72.85 126.163C72.6062 126.106 72.3563 126.08 72.106 126.083C71.8279 126.07 71.5506 126.12 71.2944 126.229C71.0382 126.338 70.8098 126.503 70.626 126.712C70.2679 127.22 70.0777 127.827 70.0822 128.449C70.0867 129.07 70.2856 129.674 70.651 130.177C70.8479 130.388 71.0887 130.554 71.3564 130.663C71.6242 130.772 71.9124 130.82 72.201 130.806C72.4419 130.805 72.6821 130.781 72.918 130.732C73.1333 130.691 73.3435 130.626 73.545 130.54V128.914H72.245V128.232H74.279V130.932L74.285 130.927Z" fill="black"/>
<path d="M79.8619 131.358H76.7729V125.521H79.8619V126.211H77.5129V127.811H79.4729V128.501H77.5129V130.669H79.8609V131.358H79.8619Z" fill="black"/>
<path d="M97.046 131.358H93.9559V125.521H97.046V126.211H94.6959V127.811H96.6559V128.501H94.6959V130.669H97.046V131.358Z" fill="black"/>
<path d="M87.9709 131.358H87.2289V126.329L85.1929 131.358H84.7639L82.7279 126.329V131.358H82.0349V125.521H83.0449L84.9779 130.14L86.9399 125.521H87.9689V131.358H87.9709Z" fill="black"/>
<path d="M100.418 131.358H98.606V130.758H99.142V126.119H98.606V125.519H100.418V126.119H99.882V130.765H100.418V131.358Z" fill="black"/>
<path d="M107.126 131.358H106.209L103.179 126.137V131.358H102.486V125.521H103.636L106.436 130.288V125.521H107.128L107.126 131.358Z" fill="black"/>
<path d="M133.812 131.358H132.895L129.865 126.137V131.358H129.171V125.521H130.321L133.121 130.288V125.521H133.813L133.812 131.358Z" fill="black"/>
<path d="M113.075 129.693C113.074 129.923 113.031 130.152 112.949 130.367C112.87 130.578 112.75 130.77 112.594 130.932C112.426 131.099 112.227 131.232 112.009 131.324C111.753 131.425 111.478 131.473 111.203 131.466C110.896 131.471 110.59 131.431 110.294 131.348C110.008 131.262 109.732 131.145 109.472 130.999V130.028H109.517C109.75 130.27 110.028 130.464 110.337 130.597C110.611 130.723 110.908 130.791 111.209 130.797C111.532 130.817 111.851 130.722 112.109 130.527C112.281 130.363 112.392 130.146 112.423 129.91C112.454 129.675 112.404 129.436 112.28 129.233C112.156 129.097 111.996 128.998 111.818 128.948C111.651 128.893 111.48 128.85 111.307 128.818C111.122 128.783 110.93 128.74 110.724 128.688C110.362 128.611 110.037 128.412 109.803 128.125C109.591 127.822 109.486 127.457 109.503 127.088C109.497 126.864 109.538 126.641 109.624 126.434C109.71 126.227 109.839 126.041 110.003 125.888C110.344 125.571 110.797 125.403 111.262 125.42C111.566 125.417 111.869 125.457 112.162 125.539C112.414 125.608 112.659 125.705 112.89 125.828V126.745H112.845C112.646 126.543 112.408 126.384 112.145 126.277C111.864 126.154 111.561 126.091 111.255 126.09C110.966 126.076 110.681 126.168 110.455 126.348C110.358 126.429 110.28 126.531 110.228 126.646C110.176 126.762 110.151 126.888 110.155 127.014C110.129 127.222 110.186 127.432 110.314 127.599C110.441 127.765 110.629 127.875 110.837 127.904C110.97 127.941 111.161 127.985 111.408 128.038C111.62 128.081 111.829 128.134 112.035 128.199C112.344 128.288 112.618 128.47 112.82 128.72C113.012 129.008 113.105 129.351 113.084 129.697L113.075 129.693Z" fill="black"/>
<path d="M118.659 126.213H117.059V131.36H116.317V126.213H114.717V125.523H118.659V126.213Z" fill="black"/>
<path d="M123.687 131.358H120.599V125.521H123.688V126.211H121.339V127.811H123.493V128.501H121.339V130.669H123.687V131.358Z" fill="black"/>
<path d="M127.245 131.358H125.433V130.758H125.969V126.119H125.433V125.519H127.245V126.119H126.709V130.765H127.245V131.358Z" fill="black"/>
<path d="M31.1679 128.44L33.076 131.358H32.481L30.8099 128.858L31.1679 128.44Z" fill="black"/>
</svg>
