<?xml version="1.0" encoding="UTF-8" standalone="no"?>
<!DOCTYPE svg PUBLIC "-//W3C//DTD SVG 1.1//EN" "http://www.w3.org/Graphics/SVG/1.1/DTD/svg11.dtd">
<svg width="100%" height="100%" viewBox="0 0 395 395" version="1.1" xmlns="http://www.w3.org/2000/svg" xmlns:xlink="http://www.w3.org/1999/xlink" xml:space="preserve" xmlns:serif="http://www.serif.com/" style="fill-rule:evenodd;clip-rule:evenodd;stroke-linejoin:round;stroke-miterlimit:2;">
    <g transform="matrix(1,0,0,1,-11909.2,-20199.4)">
        <g transform="matrix(7.02867,0,0,-7.02867,11902.2,20601.3)">
            <path d="M29.09,23.472C37.33,23.472 42.199,34.334 42.199,44.072C42.199,51.375 37.143,57.18 29.09,57.18C21.038,57.18 15.981,51.375 15.981,44.072C15.981,34.146 20.85,23.472 29.09,23.472ZM51.562,17.854C47.817,19.727 42.574,21.6 37.143,22.536C34.896,20.663 32.087,19.727 29.09,19.727C26.094,19.727 23.285,20.85 21.038,22.536C15.607,21.6 10.363,19.727 6.618,17.854C1.375,15.42 1,6.805 1,4.745C1,2.873 2.498,1 4.745,1L53.435,1C55.682,1 57.18,2.873 57.18,4.745C57.18,6.805 56.806,15.42 51.562,17.854Z" style="fill:rgb(179,185,191);fill-rule:nonzero;"/>
        </g>
    </g>
</svg>
