<?xml version="1.0" encoding="UTF-8" standalone="no"?>
<!DOCTYPE svg PUBLIC "-//W3C//DTD SVG 1.1//EN" "http://www.w3.org/Graphics/SVG/1.1/DTD/svg11.dtd">
<svg width="100%" height="100%" viewBox="0 0 182 264" version="1.1" xmlns="http://www.w3.org/2000/svg" xmlns:xlink="http://www.w3.org/1999/xlink" xml:space="preserve" xmlns:serif="http://www.serif.com/" style="fill-rule:evenodd;clip-rule:evenodd;stroke-linejoin:round;stroke-miterlimit:2;">
    <g transform="matrix(1,0,0,1,-5945.29,-155.762)">
        <g transform="matrix(1,0,0,1,4320,0)">
            <g transform="matrix(1,0,0,-1,746.6,948.229)">
                <path d="M969.393,788.725C982.435,788.725 988.427,756.4 1001.99,733.378C1015.55,710.356 1029.11,692.695 1037.15,680.869C1045.19,669.043 1061.91,641.606 1058.6,617.48C1055.29,593.354 1051.5,570.805 1023.12,548.572C994.734,526.338 951.371,523.5 920.465,545.576C889.559,567.652 878.363,598.558 879.625,621.737C880.886,644.917 889.401,664.47 907.692,690.015C925.984,715.56 938.125,734.639 944.591,751.354C951.056,768.069 956.35,788.725 969.393,788.725Z" style="fill:white;fill-rule:nonzero;"/>
            </g>
        </g>
        <g transform="matrix(1,0,0,1,4320,0)">
            <g transform="matrix(1,0,0,-1,1625.29,419.289)">
                <path d="M181.396,91.669C181.396,40.98 140.813,0 90.697,0C40.581,0 0,40.97 0,91.669C0,148.851 51.533,170.933 75.65,252.136C77.969,259.795 84.308,263.527 90.234,263.527C97.191,263.527 103.734,259.666 105.797,252.136C130.017,170.572 181.396,149.212 181.396,91.669M164.904,91.669C164.904,116.683 153.052,133.566 136.759,156.931C121.684,178.395 103.004,205.041 90.697,244.997C78.38,205.16 59.779,178.55 44.782,156.985C28.344,133.513 16.49,116.579 16.49,91.669C16.49,50.182 49.791,16.472 90.697,16.472C131.614,16.472 164.904,50.182 164.904,91.669M98.942,41.176C98.942,36.608 95.271,32.941 90.697,32.941C58.875,32.941 32.981,58.341 32.981,90.124C32.981,94.692 36.653,98.359 41.228,98.359C45.8,98.359 49.471,94.692 49.471,90.124C49.471,67.875 67.957,49.411 90.697,49.411C95.283,49.411 98.942,45.744 98.942,41.176" style="fill:rgb(0,79,129);fill-rule:nonzero;"/>
            </g>
        </g>
    </g>
</svg>
