<?xml version="1.0" encoding="UTF-8" standalone="no"?>
<!DOCTYPE svg PUBLIC "-//W3C//DTD SVG 1.1//EN" "http://www.w3.org/Graphics/SVG/1.1/DTD/svg11.dtd">
<svg width="100%" height="100%" viewBox="0 0 158 123" version="1.1" xmlns="http://www.w3.org/2000/svg" xmlns:xlink="http://www.w3.org/1999/xlink" xml:space="preserve" xmlns:serif="http://www.serif.com/" style="fill-rule:evenodd;clip-rule:evenodd;stroke-linecap:round;stroke-linejoin:round;stroke-miterlimit:10;">
    <g transform="matrix(1,0,0,1,-10109.5,-17041.8)">
        <g transform="matrix(1,0,0,1,8640,15606)">
            <g transform="matrix(1,0,0,-1,1462.54,1570.46)">
                <path d="M151.65,19C154.725,19 157.228,21.502 157.228,24.578L157.228,122.059C157.228,125.135 154.725,127.638 151.65,127.638L19.578,127.638C16.502,127.638 14,125.135 14,122.059L14,24.578C14,21.502 16.502,19 19.578,19L151.65,19M151.65,12L19.578,12C12.66,12 7,17.66 7,24.578L7,122.059C7,128.978 12.66,134.638 19.578,134.638L151.65,134.638C158.568,134.638 164.228,128.978 164.228,122.059L164.228,24.578C164.228,17.66 158.568,12 151.65,12Z" style="fill:white;"/>
            </g>
            <g transform="matrix(1,0,0,-1,1482.12,1455.32)">
                <path d="M3.145,4.717C3.353,4.717 3.554,4.677 3.746,4.597C3.939,4.517 4.109,4.404 4.256,4.256C4.404,4.109 4.517,3.939 4.597,3.746C4.677,3.554 4.717,3.353 4.717,3.145C4.717,2.936 4.677,2.735 4.597,2.543C4.517,2.35 4.404,2.18 4.256,2.033C4.109,1.885 3.939,1.772 3.746,1.692C3.554,1.612 3.353,1.572 3.145,1.572C2.936,1.572 2.735,1.612 2.543,1.692C2.35,1.772 2.18,1.885 2.033,2.033C1.885,2.18 1.772,2.35 1.692,2.543C1.612,2.735 1.572,2.936 1.572,3.145C1.572,3.353 1.612,3.554 1.692,3.746C1.772,3.939 1.885,4.109 2.033,4.256C2.18,4.404 2.35,4.517 2.543,4.597C2.735,4.677 2.936,4.717 3.145,4.717Z" style="fill:none;stroke:white;stroke-width:3.14px;"/>
            </g>
            <g transform="matrix(1,0,0,-1,1500.99,1455.32)">
                <path d="M3.145,4.717C3.353,4.717 3.554,4.677 3.746,4.597C3.939,4.517 4.109,4.404 4.256,4.256C4.404,4.109 4.517,3.939 4.597,3.746C4.677,3.554 4.717,3.353 4.717,3.145C4.717,2.936 4.677,2.735 4.597,2.543C4.517,2.35 4.404,2.18 4.256,2.033C4.109,1.885 3.939,1.772 3.746,1.692C3.554,1.612 3.353,1.572 3.145,1.572C2.936,1.572 2.735,1.612 2.543,1.692C2.35,1.772 2.18,1.885 2.033,2.033C1.885,2.18 1.772,2.35 1.692,2.543C1.612,2.735 1.572,2.936 1.572,3.145C1.572,3.353 1.612,3.554 1.692,3.746C1.772,3.939 1.885,4.109 2.033,4.256C2.18,4.404 2.35,4.517 2.543,4.597C2.735,4.677 2.936,4.717 3.145,4.717Z" style="fill:none;stroke:white;stroke-width:3.14px;"/>
            </g>
            <g transform="matrix(1,0,0,-1,1519.86,1455.32)">
                <path d="M3.145,4.717C3.353,4.717 3.554,4.677 3.746,4.597C3.939,4.517 4.109,4.404 4.256,4.256C4.404,4.109 4.517,3.939 4.597,3.746C4.677,3.554 4.717,3.353 4.717,3.145C4.717,2.936 4.677,2.735 4.597,2.543C4.517,2.35 4.404,2.18 4.256,2.033C4.109,1.885 3.939,1.772 3.746,1.692C3.554,1.612 3.353,1.572 3.145,1.572C2.936,1.572 2.735,1.612 2.543,1.692C2.35,1.772 2.18,1.885 2.033,2.033C1.885,2.18 1.772,2.35 1.692,2.543C1.612,2.735 1.572,2.936 1.572,3.145C1.572,3.353 1.612,3.554 1.692,3.746C1.772,3.939 1.885,4.109 2.033,4.256C2.18,4.404 2.35,4.517 2.543,4.597C2.735,4.677 2.936,4.717 3.145,4.717Z" style="fill:none;stroke:white;stroke-width:3.14px;"/>
            </g>
            <g transform="matrix(1,0,0,-1,1475.5,1466.98)">
                <path d="M0,0L147,0" style="fill:none;stroke:white;stroke-width:3px;"/>
            </g>
            <g transform="matrix(-0.707108,0.707106,-0.707106,-0.707108,1534.37,1506)">
                <path d="M-1.197,2.89L6.977,2.89" style="fill:none;stroke:white;stroke-width:4px;stroke-miterlimit:4;"/>
            </g>
            <g transform="matrix(-0.707105,0.707108,-0.707108,-0.707105,1554.61,1485.76)">
                <path d="M-1.197,2.89L6.977,2.89" style="fill:none;stroke:white;stroke-width:4px;stroke-miterlimit:4;"/>
            </g>
            <g transform="matrix(0.707107,0.707107,-0.707107,0.707107,1530.29,1481.68)">
                <path d="M-1.197,2.89L6.977,2.89" style="fill:none;stroke:white;stroke-width:4px;stroke-miterlimit:4;"/>
            </g>
            <g transform="matrix(-1,0,0,-1,1529.85,1495.88)">
                <path d="M0,0L7.852,0" style="fill:none;stroke:white;stroke-width:4px;stroke-miterlimit:4;"/>
            </g>
            <g transform="matrix(1.25e-06,1,-1,1.25e-06,1544,1481.48)">
                <path d="M-4,4L4,4" style="fill:none;stroke:white;stroke-width:4px;stroke-miterlimit:4;"/>
            </g>
            <g transform="matrix(1,0,0,-1,1525.32,1552.68)">
                <path d="M15.001,56.878L29.489,19.209L35.284,30.799L51.084,14.999L56.88,20.794L41.079,36.594L52.669,42.389L15.001,56.878Z" style="fill:none;stroke:white;stroke-width:4px;stroke-miterlimit:4;"/>
            </g>
        </g>
    </g>
</svg>
