<?xml version="1.0" encoding="UTF-8" standalone="no"?>
<!DOCTYPE svg PUBLIC "-//W3C//DTD SVG 1.1//EN" "http://www.w3.org/Graphics/SVG/1.1/DTD/svg11.dtd">
<svg width="100%" height="100%" viewBox="0 0 38 30" version="1.1" xmlns="http://www.w3.org/2000/svg" xmlns:xlink="http://www.w3.org/1999/xlink" xml:space="preserve" xmlns:serif="http://www.serif.com/" style="fill-rule:evenodd;clip-rule:evenodd;stroke-linejoin:round;stroke-miterlimit:2;">
    <g transform="matrix(1.90961,0,0,1,-1781.66,-1537.9)">
        <g>
            <g>
                <path d="M942.819,1556.58C943.719,1556.54 944.465,1555.95 945.059,1554.82C945.652,1553.65 945.959,1552.2 945.979,1550.48C945.959,1548.76 945.652,1547.32 945.059,1546.15C944.445,1545.01 943.698,1544.43 942.819,1544.39C941.919,1544.43 941.172,1545.01 940.579,1546.15C939.986,1547.32 939.679,1548.76 939.658,1550.48C939.658,1552.2 939.955,1553.65 940.548,1554.82C941.162,1555.95 941.919,1556.54 942.819,1556.58ZM942.819,1547.2C943.31,1547.24 943.709,1547.55 944.015,1548.14C944.343,1548.76 944.517,1549.55 944.537,1550.48C944.517,1551.42 944.343,1552.2 944.015,1552.83C943.709,1553.41 943.31,1553.73 942.819,1553.76C942.328,1553.73 941.919,1553.41 941.591,1552.83C941.285,1552.2 941.121,1551.42 941.1,1550.48C941.121,1549.55 941.285,1548.76 941.591,1548.14C941.919,1547.55 942.328,1547.24 942.819,1547.2ZM948.71,1547.2C949.406,1547.16 949.989,1546.71 950.459,1545.85C950.909,1544.95 951.144,1543.84 951.165,1542.51C951.144,1541.19 950.909,1540.07 950.459,1539.17C949.989,1538.31 949.406,1537.87 948.71,1537.83C948.015,1537.87 947.432,1538.31 946.961,1539.17C946.511,1540.07 946.276,1541.19 946.255,1542.51C946.276,1543.84 946.511,1544.95 946.961,1545.85C947.432,1546.71 948.015,1547.16 948.71,1547.2ZM944.353,1558.45L941.285,1558.45C940.057,1558.49 939.034,1559.25 938.216,1560.74C937.398,1562.22 936.968,1564.06 936.928,1566.24C936.928,1566.71 937.009,1567.08 937.173,1567.36C937.337,1567.67 937.541,1567.83 937.787,1567.83L947.851,1567.83C948.096,1567.83 948.301,1567.67 948.465,1567.36C948.628,1567.08 948.71,1566.71 948.71,1566.24C948.669,1564.06 948.24,1562.22 947.421,1560.74C946.603,1559.25 945.58,1558.49 944.353,1558.45ZM938.462,1565.01C938.646,1563.92 938.983,1563.02 939.474,1562.32C939.986,1561.65 940.579,1561.3 941.254,1561.26L944.353,1561.26C945.028,1561.3 945.621,1561.65 946.133,1562.32C946.644,1563.02 946.982,1563.92 947.145,1565.01L938.462,1565.01ZM949.937,1549.08L948.035,1549.08C947.646,1549.08 947.278,1549.23 946.93,1549.55C946.93,1549.66 946.941,1549.76 946.961,1549.84C946.982,1550.03 946.992,1550.25 946.992,1550.48C946.971,1552.48 946.634,1554.19 945.979,1555.64L952.085,1555.64C952.413,1555.56 952.597,1555.19 952.638,1554.53C952.617,1553 952.351,1551.71 951.84,1550.66C951.328,1549.64 950.694,1549.12 949.937,1549.08ZM938.646,1550.48C938.646,1550.25 938.656,1550.01 938.676,1549.78C938.676,1549.7 938.687,1549.62 938.707,1549.55C938.359,1549.23 937.991,1549.08 937.603,1549.08L935.7,1549.08C934.943,1549.12 934.309,1549.64 933.798,1550.66C933.286,1551.71 933.02,1553 933,1554.53C933.041,1555.19 933.225,1555.56 933.552,1555.64L939.658,1555.64C939.004,1554.19 938.666,1552.48 938.646,1550.48ZM936.928,1547.2C937.623,1547.16 938.206,1546.71 938.676,1545.85C939.127,1544.95 939.362,1543.84 939.382,1542.51C939.362,1541.19 939.127,1540.07 938.676,1539.17C938.206,1538.31 937.623,1537.87 936.928,1537.83C936.232,1537.87 935.649,1538.31 935.179,1539.17C934.729,1540.07 934.493,1541.19 934.473,1542.51C934.493,1543.84 934.729,1544.95 935.179,1545.85C935.649,1546.71 936.232,1547.16 936.928,1547.2Z" style="fill:rgb(0,164,225);fill-rule:nonzero;"/>
            </g>
        </g>
    </g>
</svg>
