<svg xmlns="http://www.w3.org/2000/svg" width="616" height="351.252" viewBox="0 0 616 351.252">
  <g id="Grupo_5558" data-name="Grupo 5558" transform="translate(-1003 -5973.748)">
    <text id="_Relação_entre_a_soma_dos_pacientes_internados_no_final_de_cada_dia_e_o_total_de_leitos-dia." data-name="*Relação entre a soma dos pacientes internados no final de cada dia e o total de leitos-dia." transform="translate(1003 6275)" fill="#202224" font-size="16" font-family="Montserrat-Italic, Montserrat" font-style="italic"><tspan x="0" y="15">*Relação entre a soma dos pacientes internados no final de cada dia e o </tspan><tspan x="0" y="34">total de leitos-dia.</tspan></text>
    <g id="Layer_1" data-name="Layer 1" transform="translate(1003.008 5973.748)">
      <g id="Grupo_1005" data-name="Grupo 1005" transform="translate(0 0)">
        <text id="T" transform="translate(-0.008 15.252)" fill="#20819e" font-size="16" font-family="Montserrat-ExtraBold, Montserrat" font-weight="800"><tspan x="0" y="0">T</tspan></text>
        <text id="A" transform="translate(9.404 15)" fill="#20819e" font-size="16" font-family="Montserrat-ExtraBold, Montserrat" font-weight="800"><tspan x="0" y="0">A</tspan></text>
        <text id="X" transform="translate(21.131 15)" fill="#20819e" font-size="15" font-family="Montserrat-ExtraBold, Montserrat" font-weight="800"><tspan x="0" y="0">X</tspan></text>
        <text id="A_DE_O" data-name="A DE O" transform="translate(32.074 15)" fill="#20819e" font-size="15" font-family="Montserrat-ExtraBold, Montserrat" font-weight="800"><tspan x="0" y="0">A DE O</tspan></text>
        <text id="C" transform="translate(90.171 15)" fill="#20819e" font-size="15" font-family="Montserrat-ExtraBold, Montserrat" font-weight="800"><tspan x="0" y="0">C</tspan></text>
        <text id="U" transform="translate(101.61 14)" fill="#20819e" font-size="14" font-family="Montserrat-ExtraBold, Montserrat" font-weight="800"><tspan x="0" y="0">U</tspan></text>
        <text id="P" transform="translate(113.923 15)" fill="#20819e" font-size="15" font-family="Montserrat-ExtraBold, Montserrat" font-weight="800"><tspan x="0" y="0">P</tspan></text>
        <text id="A-2" data-name="A" transform="translate(124.749 15)" fill="#20819e" font-size="16" font-family="Montserrat-ExtraBold, Montserrat" font-weight="800"><tspan x="0" y="0">A</tspan></text>
        <text id="Ç" transform="translate(136.906 15)" fill="#20819e" font-size="15" font-family="Montserrat-ExtraBold, Montserrat" font-weight="800"><tspan x="0" y="0">Ç</tspan></text>
        <text id="Ã" transform="translate(148.28 15)" fill="#20819e" font-size="16" font-family="Montserrat-ExtraBold, Montserrat" font-weight="800"><tspan x="0" y="0">Ã</tspan></text>
        <text id="O" transform="translate(159.992 15.252)" fill="#20819e" font-size="15" font-family="Montserrat-ExtraBold, Montserrat" font-weight="800"><tspan x="0" y="0">O</tspan></text>
        <text id="_77_3_" data-name="77,3%" transform="translate(243.251 114.701)" fill="#00b093" font-size="32" font-family="Montserrat-Bold, Montserrat" font-weight="700"><tspan x="0" y="0">77,3%</tspan></text>
        <text id="_89_2_" data-name="89,2%" transform="translate(243.251 229.133)" fill="#00b093" font-size="32" font-family="Montserrat-Bold, Montserrat" font-weight="700"><tspan x="0" y="0">89,2%</tspan></text>
        <text id="HOS" transform="translate(242.52 67.053)" fill="#00b093" font-size="10" font-family="Montserrat-ExtraBold, Montserrat" font-weight="800"><tspan x="0" y="0">HOS</tspan></text>
        <text id="P-2" data-name="P" transform="translate(266.52 67.053)" fill="#00b093" font-size="10" font-family="Montserrat-ExtraBold, Montserrat" font-weight="800"><tspan x="0" y="0">P</tspan></text>
        <text id="I" transform="translate(274.099 67.053)" fill="#00b093" font-size="10" font-family="Montserrat-ExtraBold, Montserrat" font-weight="800"><tspan x="0" y="0">I</tspan></text>
        <text id="T-2" data-name="T" transform="translate(277.634 67.053)" fill="#00b093" font-size="10" font-family="Montserrat-ExtraBold, Montserrat" font-weight="800"><tspan x="0" y="0">T</tspan></text>
        <text id="AL_MUNICI" data-name="AL MUNICI" transform="translate(283.908 67.053)" fill="#00b093" font-size="10" font-family="Montserrat-ExtraBold, Montserrat" font-weight="800"><tspan x="0" y="0">AL MUNICI</tspan></text>
        <text id="P-3" data-name="P" transform="translate(342.852 67.053)" fill="#00b093" font-size="10" font-family="Montserrat-ExtraBold, Montserrat" font-weight="800"><tspan x="0" y="0">P</tspan></text>
        <text id="AL" transform="translate(350.078 67.053)" fill="#00b093" font-size="10" font-family="Montserrat-ExtraBold, Montserrat" font-weight="800"><tspan x="0" y="0">AL</tspan></text>
        <text id="V" transform="translate(367.687 66.053)" fill="#00b093" font-size="9" font-family="Montserrat-ExtraBold, Montserrat" font-weight="800"><tspan x="0" y="0">V</tspan></text>
        <text id="I-2" data-name="I" transform="translate(375.526 67.053)" fill="#00b093" font-size="10" font-family="Montserrat-ExtraBold, Montserrat" font-weight="800"><tspan x="0" y="0">I</tspan></text>
        <text id="L" transform="translate(379.061 67.053)" fill="#00b093" font-size="10" font-family="Montserrat-ExtraBold, Montserrat" font-weight="800"><tspan x="0" y="0">L</tspan></text>
        <text id="A_SAN" data-name="A SAN" transform="translate(385.517 67.053)" fill="#00b093" font-size="10" font-family="Montserrat-ExtraBold, Montserrat" font-weight="800"><tspan x="0" y="0">A SAN</tspan></text>
        <text id="T-3" data-name="T" transform="translate(420.122 67.053)" fill="#00b093" font-size="10" font-family="Montserrat-ExtraBold, Montserrat" font-weight="800"><tspan x="0" y="0">T</tspan></text>
        <text id="A-3" data-name="A" transform="translate(426.383 66.053)" fill="#00b093" font-size="9" font-family="Montserrat-ExtraBold, Montserrat" font-weight="800"><tspan x="0" y="0">A</tspan></text>
        <text id="C-2" data-name="C" transform="translate(437.614 67.053)" fill="#00b093" font-size="10" font-family="Montserrat-ExtraBold, Montserrat" font-weight="800"><tspan x="0" y="0">C</tspan></text>
        <text id="A-4" data-name="A" transform="translate(445.205 66.053)" fill="#00b093" font-size="9" font-family="Montserrat-ExtraBold, Montserrat" font-weight="800"><tspan x="0" y="0">A</tspan></text>
        <text id="T-4" data-name="T" transform="translate(453.044 67.053)" fill="#00b093" font-size="10" font-family="Montserrat-ExtraBold, Montserrat" font-weight="800"><tspan x="0" y="0">T</tspan></text>
        <text id="ARINA" transform="translate(459.305 67.053)" fill="#00b093" font-size="10" font-family="Montserrat-ExtraBold, Montserrat" font-weight="800"><tspan x="0" y="0">ARINA</tspan></text>
        <text id="_DR._GI" data-name="– DR. GI" transform="translate(242.52 79.575)" fill="#00b093" font-size="10" font-family="Montserrat-ExtraBold, Montserrat" font-weight="800"><tspan x="0" y="0">– DR. GI</tspan></text>
        <text id="L-2" data-name="L" transform="translate(284.677 79.575)" fill="#00b093" font-size="10" font-family="Montserrat-ExtraBold, Montserrat" font-weight="800"><tspan x="0" y="0">L</tspan></text>
        <text id="SON_DE" data-name="SON DE" transform="translate(291.029 79.575)" fill="#00b093" font-size="10" font-family="Montserrat-ExtraBold, Montserrat" font-weight="800"><tspan x="0" y="0">SON DE</tspan></text>
        <text id="C-3" data-name="C" transform="translate(336.721 79.575)" fill="#00b093" font-size="10" font-family="Montserrat-ExtraBold, Montserrat" font-weight="800"><tspan x="0" y="0">C</tspan></text>
        <text id="ÁSSIA_MARQUES_DE" data-name="ÁSSIA MARQUES DE" transform="translate(344.3 79.575)" fill="#00b093" font-size="10" font-family="Montserrat-ExtraBold, Montserrat" font-weight="800"><tspan x="0" y="0">ÁSSIA MARQUES DE</tspan></text>
        <text id="C-4" data-name="C" transform="translate(459.149 79.575)" fill="#00b093" font-size="10" font-family="Montserrat-ExtraBold, Montserrat" font-weight="800"><tspan x="0" y="0">C</tspan></text>
        <text id="AR" transform="translate(466.727 79.575)" fill="#00b093" font-size="10" font-family="Montserrat-ExtraBold, Montserrat" font-weight="800"><tspan x="0" y="0">AR</tspan></text>
        <text id="V-2" data-name="V" transform="translate(482.653 78.575)" fill="#00b093" font-size="9" font-family="Montserrat-ExtraBold, Montserrat" font-weight="800"><tspan x="0" y="0">V</tspan></text>
        <text id="ALHO_" data-name="ALHO " transform="translate(490.245 79.575)" fill="#00b093" font-size="10" font-family="Montserrat-ExtraBold, Montserrat" font-weight="800"><tspan x="0" y="0">ALHO </tspan></text>
        <text id="HOS-2" data-name="HOS" transform="translate(242.52 171.976)" fill="#00b093" font-size="10" font-family="Montserrat-ExtraBold, Montserrat" font-weight="800"><tspan x="0" y="0">HOS</tspan></text>
        <text id="P-4" data-name="P" transform="translate(266.52 171.976)" fill="#00b093" font-size="10" font-family="Montserrat-ExtraBold, Montserrat" font-weight="800"><tspan x="0" y="0">P</tspan></text>
        <text id="I-3" data-name="I" transform="translate(274.099 171.976)" fill="#00b093" font-size="10" font-family="Montserrat-ExtraBold, Montserrat" font-weight="800"><tspan x="0" y="0">I</tspan></text>
        <text id="T-5" data-name="T" transform="translate(277.634 171.976)" fill="#00b093" font-size="10" font-family="Montserrat-ExtraBold, Montserrat" font-weight="800"><tspan x="0" y="0">T</tspan></text>
        <text id="AL_MUNICI-2" data-name="AL MUNICI" transform="translate(283.908 171.976)" fill="#00b093" font-size="10" font-family="Montserrat-ExtraBold, Montserrat" font-weight="800"><tspan x="0" y="0">AL MUNICI</tspan></text>
        <text id="P-5" data-name="P" transform="translate(342.852 171.976)" fill="#00b093" font-size="10" font-family="Montserrat-ExtraBold, Montserrat" font-weight="800"><tspan x="0" y="0">P</tspan></text>
        <text id="AL-2" data-name="AL" transform="translate(350.078 171.976)" fill="#00b093" font-size="10" font-family="Montserrat-ExtraBold, Montserrat" font-weight="800"><tspan x="0" y="0">AL</tspan></text>
        <text id="M_BOI_MIRIM" data-name="M’BOI MIRIM" transform="translate(242.52 184.498)" fill="#00b093" font-size="10" font-family="Montserrat-ExtraBold, Montserrat" font-weight="800"><tspan x="0" y="0">M’BOI MIRIM</tspan></text>
        <text id="_DR._M" data-name="– DR. M" transform="translate(242.52 197.02)" fill="#00b093" font-size="10" font-family="Montserrat-ExtraBold, Montserrat" font-weight="800"><tspan x="0" y="0">– DR. M</tspan></text>
        <text id="O-2" data-name="O" transform="translate(283.06 197.02)" fill="#00b093" font-size="10" font-family="Montserrat-ExtraBold, Montserrat" font-weight="800"><tspan x="0" y="0">O</tspan></text>
        <text id="Y" transform="translate(291.59 197.02)" fill="#00b093" font-size="10" font-family="Montserrat-ExtraBold, Montserrat" font-weight="800"><tspan x="0" y="0">Y</tspan></text>
        <text id="SÉS_DE" data-name="SÉS DE" transform="translate(298.673 197.02)" fill="#00b093" font-size="10" font-family="Montserrat-ExtraBold, Montserrat" font-weight="800"><tspan x="0" y="0">SÉS DE</tspan></text>
        <text id="U-2" data-name="U" transform="translate(337.856 196.02)" fill="#00b093" font-size="9" font-family="Montserrat-ExtraBold, Montserrat" font-weight="800"><tspan x="0" y="0">U</tspan></text>
        <text id="T-6" data-name="T" transform="translate(345.943 197.02)" fill="#00b093" font-size="10" font-family="Montserrat-ExtraBold, Montserrat" font-weight="800"><tspan x="0" y="0">T</tspan></text>
        <text id="SCH_" data-name="SCH " transform="translate(352.556 197.02)" fill="#00b093" font-size="10" font-family="Montserrat-ExtraBold, Montserrat" font-weight="800"><tspan x="0" y="0">SCH </tspan></text>
        <text id="_56_4_" data-name="56,4%" transform="translate(473.888 229.146)" fill="#00b093" font-size="32" font-family="Montserrat-Bold, Montserrat" font-weight="700"><tspan x="0" y="0">56,4%</tspan></text>
        <text id="HOSPITAL_MUNICIPAL" data-name="HOSPITAL MUNICIPAL" transform="translate(474.031 171.976)" fill="#00b093" font-size="10" font-family="Montserrat-ExtraBold, Montserrat" font-weight="800"><tspan x="0" y="0">HOSPITAL MUNICIPAL</tspan></text>
        <text id="APARECIDA" transform="translate(474.031 184.498)" fill="#00b093" font-size="10" font-family="Montserrat-ExtraBold, Montserrat" font-weight="800"><tspan x="0" y="0">APARECIDA</tspan></text>
        <path id="Caminho_7248" data-name="Caminho 7248" d="M363.98,145.308h3.457c2.413,0,4.083,1.409,4.083,3.652s-1.657,3.652-4.083,3.652H363.98Zm3.365,5.661a2.01,2.01,0,1,0,0-4.017h-1.3v4h1.3Zm11.113.052v1.591H372.6v-7.3h5.726V146.9H374.65v1.226H377.9v1.539H374.65V151h3.822Zm9.078-2.217h1.826v3.026a5.5,5.5,0,0,1-3.065.926,3.8,3.8,0,1,1,.039-7.591,4.023,4.023,0,0,1,3.2,1.33l-1.317,1.187a2.275,2.275,0,0,0-1.774-.809,2.087,2.087,0,0,0-.026,4.174,2.791,2.791,0,0,0,1.122-.235V148.8Zm2.765.157a4.066,4.066,0,1,1,4.057,3.8A3.817,3.817,0,0,1,390.3,148.961Zm6.026,0a1.973,1.973,0,1,0-1.97,2.087A1.951,1.951,0,0,0,396.328,148.961Zm3.183-3.652h2.061v7.3h-2.061Zm8.426,5.883h-3.091l-.574,1.422h-2.113l3.222-7.3h2.035l3.235,7.3H408.5l-.574-1.422Zm-2.426-6.47h-1.317l1.357-1.591h1.709l1.357,1.591H407.3l-.9-.8-.9.8Zm1.826,4.957-.939-2.335-.939,2.335Zm10.852-4.37v7.3h-1.7l-3.222-3.887v3.887H411.25v-7.3h1.7l3.222,3.887v-3.887Zm1.474,0h2.061v7.3h-2.061Zm8.426,5.883H425l-.574,1.422h-2.113l3.222-7.3h2.035l3.235,7.3H428.65l-.574-1.422Zm-.613-1.513-.939-2.335-.939,2.335Zm6.952-.626a8.667,8.667,0,0,1,1.344-4.878h1.9a9.775,9.775,0,0,0,0,9.757h-1.9A8.667,8.667,0,0,1,434.429,149.052Zm11.009-3.744v7.3h-2.061v-2.844h-2.817v2.844H438.5v-7.3h2.061v2.739h2.817v-2.739Zm8.061,7.3-.026-3.874-1.878,3.144h-.913l-1.865-3.039v3.77h-1.9v-7.3h1.7l2.57,4.213,2.5-4.213h1.7l.026,7.3Zm8.257-1.422h-3.091l-.574,1.422h-2.113l3.222-7.3h2.035l3.235,7.3h-2.152l-.574-1.422Zm-.613-1.513-.939-2.335-.939,2.335Zm10.5-1.657c0,1.657-1.252,2.687-3.248,2.687h-1.278v1.9h-2.061v-7.3h3.339c2,0,3.248,1.03,3.248,2.7Zm-2.087,0c0-.678-.43-1.07-1.278-1.07h-1.148v2.139h1.148c.861,0,1.278-.391,1.278-1.07Zm2.544,5.922a9.775,9.775,0,0,0,0-9.757H474a9.529,9.529,0,0,1,0,9.757Z" transform="translate(110.782 44.842)" fill="#00b093"/>
        <text id="_8" data-name="8" transform="translate(56.348 119.04)" fill="#0c9cd8" font-size="33" font-family="Montserrat-Bold, Montserrat" font-weight="700"><tspan x="0" y="0">8</tspan></text>
        <text id="_7" data-name="7" transform="translate(78.757 119.04)" fill="#0c9cd8" font-size="33" font-family="Montserrat-Bold, Montserrat" font-weight="700"><tspan x="0" y="0">7</tspan></text>
        <text id="_9_" data-name=",9%" transform="translate(98.14 119.04)" fill="#0c9cd8" font-size="33" font-family="Montserrat-Bold, Montserrat" font-weight="700"><tspan x="0" y="0">,9%</tspan></text>
        <text id="_56_0_" data-name="56,0%" transform="translate(57.431 230.224)" fill="#0c9cd8" font-size="33" font-family="Montserrat-Bold, Montserrat" font-weight="700"><tspan x="0" y="0">56,0%</tspan></text>
        <text id="MORUMBI" transform="translate(56.205 79.575)" fill="#0c9cd8" font-size="10" font-family="Montserrat-ExtraBold, Montserrat" font-weight="800"><tspan x="0" y="0">MORUMBI</tspan></text>
        <text id="GOIÂNIA" transform="translate(57.288 197.02)" fill="#0c9cd8" font-size="10" font-family="Montserrat-ExtraBold, Montserrat" font-weight="800"><tspan x="0" y="0">GOIÂNIA</tspan></text>
        <path id="Caminho_7249" data-name="Caminho 7249" d="M22.965,103.317l.417.026c.574-1.057,1.174-2.113,1.735-3.183C30.491,89.817,35.97,79.512,39.7,68.412c1.33-3.965,2.322-7.931,1.357-12.144-2.739-12.1-17.3-18.378-27.992-11.191C6.687,49.368,3.23,57.312,5.682,64.955a137.187,137.187,0,0,0,5.491,14.283c2.883,6.4,6.117,12.665,9.209,18.978.835,1.709,1.722,3.4,2.583,5.1m.209,3.665c-.626-.952-1.213-1.709-1.67-2.53A245.519,245.519,0,0,1,9.752,81.208C7.665,76.264,5.578,71.321,3.843,66.26c-3.7-10.813,2.9-21.822,12.965-25.252A20.314,20.314,0,0,1,41.618,51.534a26.3,26.3,0,0,1,1.643,6.391c1.083,6.065-1.487,11.426-3.783,16.7C36.074,82.46,32.239,90.1,28.509,97.8c-1.317,2.7-2.87,5.3-4.33,7.917A10.451,10.451,0,0,1,23.161,107" transform="translate(0.852 13.437)" fill="#0c9cd8"/>
        <path id="Caminho_7250" data-name="Caminho 7250" d="M22.965,103.317l.417.026c.574-1.057,1.174-2.113,1.735-3.183C30.491,89.817,35.97,79.512,39.7,68.412c1.33-3.965,2.322-7.931,1.357-12.144-2.739-12.1-17.3-18.378-27.992-11.191C6.687,49.368,3.23,57.312,5.682,64.955a137.187,137.187,0,0,0,5.491,14.283c2.883,6.4,6.117,12.665,9.209,18.978.835,1.709,1.722,3.4,2.583,5.1m.209,3.665c-.626-.952-1.213-1.709-1.67-2.53A245.519,245.519,0,0,1,9.752,81.208C7.665,76.264,5.578,71.321,3.843,66.26c-3.7-10.813,2.9-21.822,12.965-25.252A20.314,20.314,0,0,1,41.618,51.534a26.3,26.3,0,0,1,1.643,6.391c1.083,6.065-1.487,11.426-3.783,16.7C36.074,82.46,32.239,90.1,28.509,97.8c-1.317,2.7-2.87,5.3-4.33,7.917A10.451,10.451,0,0,1,23.161,107" transform="translate(0.852 13.437)" fill="none" stroke="#0c9cd8" stroke-width="1"/>
        <path id="Caminho_7251" data-name="Caminho 7251" d="M19.7,51.354v5.53H14.327v4.2h5.452V66.55c1.109,0,2.074-.039,3.039,0,.874.052,1.148-.326,1.135-1.148-.039-1.422,0-2.857,0-4.422H29.21c0-1.226-.026-2.322,0-3.4.026-.874-.443-.991-1.174-.939-1.33.1-2.648.17-4.135.248V51.328H19.714ZM35.51,59.089c1.017,7.7-6.744,14.139-13.8,13.944C13.649,72.8,8.144,67.294,7.688,60A13.907,13.907,0,0,1,21.723,44.78c6.509.065,14.4,4.748,13.787,14.322" transform="translate(2.33 14.907)" fill="#0c9cd8"/>
        <path id="Caminho_7252" data-name="Caminho 7252" d="M18.147,49.82h4.187v5.557c1.487-.091,2.817-.143,4.148-.248.717-.065,1.2.052,1.174.939-.026,1.083,0,2.178,0,3.4h-5.27c0,1.565-.026,3,0,4.422.026.835-.248,1.2-1.135,1.148-.952-.052-1.917-.013-3.039-.013V59.551H12.76v-4.2h5.374V49.82Z" transform="translate(3.884 16.442)" fill="#fff"/>
        <path id="Caminho_7253" data-name="Caminho 7253" d="M183.254,57.959l-.117-.626a23.737,23.737,0,0,0-1.578-5.935,21.069,21.069,0,0,0-25.618-10.865,21.614,21.614,0,0,0-12.378,10.878,19.709,19.709,0,0,0-.991,15.209c1.722,5.022,3.822,9.991,5.844,14.8l.078.2a248.448,248.448,0,0,0,11.778,23.3,16.233,16.233,0,0,0,1.1,1.7c.2.274.391.574.6.874l.5.743.561-.691a5.286,5.286,0,0,1,.4-.47,5.427,5.427,0,0,0,.678-.9l1.174-2.074c1.083-1.9,2.2-3.874,3.183-5.883l2.087-4.265c3.013-6.157,6.117-12.535,8.9-18.926l.417-.939c2.191-5.022,4.474-10.226,3.417-16.135M178.4,68.355c-3.5,10.4-8.622,20.27-13.578,29.8l-.965,1.852c-.365.7-.757,1.409-1.135,2.1l-.2.365-.47-.913c-.6-1.161-1.187-2.322-1.761-3.5q-1.291-2.641-2.609-5.27c-2.217-4.461-4.513-9.078-6.587-13.683a138.209,138.209,0,0,1-5.465-14.2c-2.257-7.07.6-14.765,7.122-19.148a17.033,17.033,0,0,1,9.574-2.948,17.961,17.961,0,0,1,6.613,1.291A17.667,17.667,0,0,1,179.759,56.55c.874,3.861.091,7.513-1.343,11.791" transform="translate(43.066 13.285)" fill="#00b093"/>
        <path id="Caminho_7254" data-name="Caminho 7254" d="M160.913,44.773a13.921,13.921,0,0,0-14.035,15.222c.443,7.291,5.961,12.809,14.022,13.031,7.057.2,14.818-6.248,13.8-13.944.613-9.574-7.278-14.257-13.787-14.322M168.387,61H163.13c0,1.565-.026,3,0,4.422.026.835-.248,1.2-1.135,1.148-.952-.052-1.917-.013-3.039-.013V61.091H153.5v-4.2h5.374V51.36h4.187v5.557c1.487-.091,2.817-.143,4.135-.248.73-.065,1.2.052,1.174.939-.039,1.083,0,2.178,0,3.4" transform="translate(44.694 14.902)" fill="#00b093"/>
        <path id="Caminho_7255" data-name="Caminho 7255" d="M183.254,143.489l-.117-.626a23.737,23.737,0,0,0-1.578-5.935,21.069,21.069,0,0,0-25.618-10.865,21.614,21.614,0,0,0-12.378,10.878,19.709,19.709,0,0,0-.991,15.209c1.722,5.022,3.822,9.991,5.844,14.8l.078.2a248.446,248.446,0,0,0,11.778,23.3,16.233,16.233,0,0,0,1.1,1.7c.2.274.391.574.6.874l.5.743.561-.691a5.288,5.288,0,0,1,.4-.47,5.427,5.427,0,0,0,.678-.9l1.174-2.074c1.083-1.9,2.2-3.874,3.183-5.883l2.087-4.265c3.013-6.157,6.117-12.535,8.9-18.926l.417-.939c2.191-5.035,4.474-10.226,3.417-16.135M178.4,153.9c-3.5,10.4-8.622,20.27-13.578,29.8l-.965,1.852c-.365.7-.757,1.409-1.135,2.1l-.2.365-.47-.913c-.6-1.161-1.187-2.322-1.761-3.5q-1.291-2.641-2.609-5.27c-2.217-4.461-4.513-9.078-6.587-13.683a138.211,138.211,0,0,1-5.465-14.2c-2.257-7.07.6-14.765,7.122-19.148a17.033,17.033,0,0,1,9.574-2.948,17.961,17.961,0,0,1,6.613,1.291,17.667,17.667,0,0,1,10.813,12.444c.874,3.861.091,7.513-1.343,11.791" transform="translate(43.066 39.317)" fill="#00b093"/>
        <path id="Caminho_7256" data-name="Caminho 7256" d="M160.913,130.313a13.921,13.921,0,0,0-14.035,15.222c.443,7.291,5.961,12.809,14.022,13.031,7.057.2,14.818-6.248,13.8-13.944.613-9.574-7.278-14.257-13.787-14.322m7.474,16.239H163.13c0,1.565-.026,3,0,4.422.026.835-.248,1.2-1.135,1.148-.952-.052-1.917-.013-3.039-.013v-5.465H153.5v-4.2h5.374V136.9h4.187v5.557c1.487-.091,2.817-.143,4.135-.248.73-.065,1.2.052,1.174.939-.039,1.083,0,2.178,0,3.4" transform="translate(44.694 40.937)" fill="#00b093"/>
        <path id="Caminho_7257" data-name="Caminho 7257" d="M363.951,143.489l-.1-.626a23.736,23.736,0,0,0-1.578-5.935,21.075,21.075,0,0,0-25.618-10.865,21.614,21.614,0,0,0-12.378,10.878,19.709,19.709,0,0,0-.991,15.209c1.722,5.022,3.822,9.991,5.844,14.8l.078.2a248.442,248.442,0,0,0,11.778,23.3,16.23,16.23,0,0,0,1.1,1.7c.2.274.391.574.6.874l.5.743.561-.691a5.283,5.283,0,0,1,.4-.47,5.424,5.424,0,0,0,.678-.9l1.174-2.074c1.083-1.9,2.2-3.874,3.183-5.883l2.087-4.265c3.013-6.157,6.117-12.535,8.9-18.926l.417-.939c2.191-5.035,4.474-10.226,3.417-16.135M359.1,153.9c-3.5,10.4-8.622,20.27-13.578,29.8l-.965,1.852c-.365.7-.757,1.409-1.135,2.1l-.2.365-.47-.913c-.6-1.161-1.187-2.322-1.761-3.5q-1.291-2.641-2.609-5.27c-2.217-4.461-4.513-9.078-6.587-13.683a138.218,138.218,0,0,1-5.465-14.2c-2.257-7.07.6-14.765,7.122-19.148a17.064,17.064,0,0,1,9.574-2.948,17.961,17.961,0,0,1,6.613,1.291,17.667,17.667,0,0,1,10.813,12.444c.874,3.861.091,7.513-1.344,11.791" transform="translate(98.067 39.317)" fill="#00b093"/>
        <path id="Caminho_7258" data-name="Caminho 7258" d="M341.613,130.313a13.921,13.921,0,0,0-14.035,15.222c.443,7.291,5.961,12.809,14.022,13.031,7.057.2,14.818-6.248,13.8-13.944.613-9.574-7.278-14.257-13.787-14.322m7.474,16.239H343.83c0,1.565-.026,3,0,4.422.026.835-.248,1.2-1.135,1.148-.952-.052-1.917-.013-3.039-.013v-5.465H334.2v-4.2h5.374V136.9h4.187v5.557c1.487-.091,2.817-.143,4.135-.248.73-.065,1.2.052,1.174.939-.039,1.083,0,2.178,0,3.4" transform="translate(99.692 40.937)" fill="#00b093"/>
        <path id="Caminho_7259" data-name="Caminho 7259" d="M22.965,189.7l.417.026c.574-1.057,1.174-2.113,1.735-3.183C30.491,176.2,35.97,165.892,39.7,154.792c1.33-3.965,2.322-7.931,1.357-12.144-2.739-12.1-17.3-18.378-27.992-11.191-6.378,4.291-9.835,12.235-7.383,19.878a137.185,137.185,0,0,0,5.491,14.283c2.883,6.4,6.117,12.665,9.209,18.978.835,1.709,1.722,3.4,2.583,5.1m.209,3.665c-.626-.952-1.213-1.709-1.67-2.53A245.518,245.518,0,0,1,9.752,167.588c-2.087-4.944-4.174-9.887-5.909-14.948-3.7-10.813,2.9-21.822,12.965-25.252a20.314,20.314,0,0,1,24.809,10.526,26.3,26.3,0,0,1,1.643,6.391c1.083,6.065-1.487,11.426-3.783,16.7-3.4,7.839-7.239,15.483-10.97,23.179-1.317,2.7-2.87,5.3-4.33,7.917a10.45,10.45,0,0,1-1.017,1.278" transform="translate(0.852 39.728)" fill="#0c9cd8"/>
        <path id="Caminho_7260" data-name="Caminho 7260" d="M22.965,189.7l.417.026c.574-1.057,1.174-2.113,1.735-3.183C30.491,176.2,35.97,165.892,39.7,154.792c1.33-3.965,2.322-7.931,1.357-12.144-2.739-12.1-17.3-18.378-27.992-11.191-6.378,4.291-9.835,12.235-7.383,19.878a137.185,137.185,0,0,0,5.491,14.283c2.883,6.4,6.117,12.665,9.209,18.978.835,1.709,1.722,3.4,2.583,5.1m.209,3.665c-.626-.952-1.213-1.709-1.67-2.53A245.518,245.518,0,0,1,9.752,167.588c-2.087-4.944-4.174-9.887-5.909-14.948-3.7-10.813,2.9-21.822,12.965-25.252a20.314,20.314,0,0,1,24.809,10.526,26.3,26.3,0,0,1,1.643,6.391c1.083,6.065-1.487,11.426-3.783,16.7-3.4,7.839-7.239,15.483-10.97,23.179-1.317,2.7-2.87,5.3-4.33,7.917a10.45,10.45,0,0,1-1.017,1.278" transform="translate(0.852 39.728)" fill="none" stroke="#0c9cd8" stroke-width="1"/>
        <path id="Caminho_7261" data-name="Caminho 7261" d="M19.7,137.734v5.531H14.327v4.2h5.452v5.465c1.109,0,2.074-.039,3.039,0,.874.052,1.148-.326,1.135-1.148-.039-1.422,0-2.857,0-4.422H29.21c0-1.226-.026-2.322,0-3.4.026-.874-.443-.991-1.174-.939-1.33.1-2.648.17-4.135.248v-5.557H19.714Zm15.809,7.735c1.017,7.7-6.744,14.139-13.8,13.944-8.061-.235-13.565-5.739-14.022-13.031A13.907,13.907,0,0,1,21.723,131.16c6.509.065,14.4,4.748,13.787,14.322" transform="translate(2.33 41.198)" fill="#0c9cd8"/>
        <path id="Caminho_7262" data-name="Caminho 7262" d="M18.147,136.2h4.187v5.557c1.487-.091,2.817-.143,4.148-.248.717-.065,1.2.052,1.174.939-.026,1.083,0,2.178,0,3.4h-5.27c0,1.565-.026,3,0,4.422.026.835-.248,1.2-1.135,1.148-.952-.052-1.917-.013-3.039-.013v-5.478H12.76v-4.2h5.374V136.2Z" transform="translate(3.884 42.732)" fill="#fff"/>
      </g>
    </g>
  </g>
</svg>
