<svg xmlns="http://www.w3.org/2000/svg" width="107.014" height="107.011" viewBox="0 0 107.014 107.011">
  <g id="family_x2C__parents_x2C__group_x2C__marriage_x2C__people_1_" transform="translate(0.5 0.5)">
    <g id="Grupo_766" data-name="Grupo 766" transform="translate(1.5 1.5)">
      <path id="Caminho_6295" data-name="Caminho 6295" d="M40.04,27.083a10.624,10.624,0,0,0-6.994-7.928L24.915,16.38A3.553,3.553,0,0,1,22.5,13.006V7.5" transform="translate(52.094 13.813)" fill="none" stroke="#db4f5f" stroke-linecap="round" stroke-linejoin="round" stroke-miterlimit="10" stroke-width="4"/>
      <path id="Caminho_6296" data-name="Caminho 6296" d="M25.5,22" transform="translate(59.75 50.818)" fill="none" stroke="#db4f5f" stroke-linecap="round" stroke-linejoin="round" stroke-miterlimit="10" stroke-width="4"/>
      <path id="Caminho_6297" data-name="Caminho 6297" d="M30.362,7.5v5.577a3.534,3.534,0,0,1-2.415,3.335l-8.134,2.806a10.745,10.745,0,0,0-4.568,3.062" transform="translate(33.576 13.813)" fill="none" stroke="#db4f5f" stroke-linecap="round" stroke-linejoin="round" stroke-miterlimit="10" stroke-width="4"/>
      <path id="Caminho_6298" data-name="Caminho 6298" d="M22.034,22.8a8.869,8.869,0,0,1-3.534-7.09V8.6a7.125,7.125,0,0,1,7.1-7.1h3.552a7.125,7.125,0,0,1,7.1,7.1v7.1" transform="translate(41.886 -1.5)" fill="none" stroke="#db4f5f" stroke-linecap="round" stroke-linejoin="round" stroke-miterlimit="10" stroke-width="4"/>
      <path id="XMLID_226_" d="M28.594,5.5a8.88,8.88,0,0,1-7.09,8.7" transform="translate(49.552 8.708)" fill="none" stroke="#db4f5f" stroke-linecap="round" stroke-linejoin="round" stroke-miterlimit="10" stroke-width="4"/>
      <path id="Caminho_6299" data-name="Caminho 6299" d="M6,38.021l.924-3.659a108.93,108.93,0,0,0,3.09-21.416v-.678A10.2,10.2,0,0,1,20.208,2.5a10.2,10.2,0,0,1,10.159,9.768l.036.675A108.788,108.788,0,0,0,32.783,31.3" transform="translate(9.984 1.052)" fill="none" stroke="#db4f5f" stroke-linecap="round" stroke-linejoin="round" stroke-miterlimit="10" stroke-width="4"/>
      <path id="Caminho_6300" data-name="Caminho 6300" d="M6.5,22.8" transform="translate(11.26 52.86)" fill="none" stroke="#db4f5f" stroke-linecap="round" stroke-linejoin="round" stroke-miterlimit="10" stroke-width="4"/>
      <path id="Caminho_6301" data-name="Caminho 6301" d="M17.134,10.613a3.585,3.585,0,0,1-2.167,3.293l-3.449,1.485a14.166,14.166,0,0,0-6.4,5.47" transform="translate(7.731 21.757)" fill="none" stroke="#db4f5f" stroke-linecap="round" stroke-linejoin="round" stroke-miterlimit="10" stroke-width="4"/>
      <path id="Caminho_6302" data-name="Caminho 6302" d="M8.5,19.128a8.882,8.882,0,0,0,14.215-7.1V9.722a1.683,1.683,0,0,0-1.769-1.673A13.982,13.982,0,0,1,12.057,5.03" transform="translate(16.36 7.509)" fill="none" stroke="#db4f5f" stroke-linecap="round" stroke-linejoin="round" stroke-miterlimit="10" stroke-width="4"/>
      <path id="Caminho_6303" data-name="Caminho 6303" d="M27.335,27.606a10.594,10.594,0,0,0-3.222-2.3l-3.3-1.527a3.619,3.619,0,0,1-2.06-3.232V18.2" transform="translate(42.524 41.12)" fill="none" stroke="#db4f5f" stroke-linecap="round" stroke-linejoin="round" stroke-miterlimit="10" stroke-width="4"/>
      <path id="Caminho_6304" data-name="Caminho 6304" d="M24.465,18.2v2.344a3.615,3.615,0,0,1-2.06,3.232L19.1,25.3a10.645,10.645,0,0,0-6.071,8.124" transform="translate(27.928 41.12)" fill="none" stroke="#db4f5f" stroke-linecap="round" stroke-linejoin="round" stroke-miterlimit="10" stroke-width="4"/>
      <path id="Caminho_6305" data-name="Caminho 6305" d="M18.2,29.715a8.105,8.105,0,0,1-.6-.551,6.945,6.945,0,0,1-2.1-5.008V20.6a7.125,7.125,0,0,1,7.1-7.1,7.156,7.156,0,0,1,7.1,7.1v3.552A7.13,7.13,0,0,1,23.5,31.2" transform="translate(34.229 29.125)" fill="none" stroke="#db4f5f" stroke-linecap="round" stroke-linejoin="round" stroke-miterlimit="10" stroke-width="4"/>
      <path id="Caminho_6306" data-name="Caminho 6306" d="M22.22,23.219A14.183,14.183,0,0,0,17.141,19.5l-3.509-1.517A3.535,3.535,0,0,1,11.5,14.744V9" transform="translate(24.021 17.641)" fill="none" stroke="#db4f5f" stroke-linecap="round" stroke-linejoin="round" stroke-miterlimit="10" stroke-width="4"/>
      <g id="XMLID_189_" transform="translate(0 45.519)">
        <path id="XMLID_217_" d="M26.365,71.807V68.12L13.712,58.2a14.681,14.681,0,0,1-3.751-4.685L1.5,33.845V16.728c0-2.145,7.467-5.36,9.608,3.211a40.044,40.044,0,0,1,1,7.467" transform="translate(-1.5 -14.315)" fill="none" stroke="#db4f5f" stroke-linecap="round" stroke-linejoin="round" stroke-miterlimit="10" stroke-width="4"/>
        <path id="XMLID_216_" d="M10.583,23.084A18.3,18.3,0,0,1,24.5,40.678v8.749" transform="translate(21.681 8.066)" fill="none" stroke="#db4f5f" stroke-linecap="round" stroke-linejoin="round" stroke-miterlimit="10" stroke-width="4"/>
        <path id="XMLID_215_" d="M19.958,38.137,4.375,22.579c1.073-1.073,6.436-6.433,14,1.137l8.01,7.992" transform="translate(5.837 -0.477)" fill="none" stroke="#db4f5f" stroke-linecap="round" stroke-linejoin="round" stroke-miterlimit="10" stroke-width="4"/>
        <g id="XMLID_199_" transform="translate(56.834 0.004)">
          <path id="XMLID_214_" d="M23.5,71.8V68.117L36.156,58.2a14.681,14.681,0,0,0,3.751-4.685l8.461-19.668V16.729c0-2.145-7.466-5.36-9.608,3.211a40.045,40.045,0,0,0-1,7.466" transform="translate(-2.187 -14.316)" fill="none" stroke="#db4f5f" stroke-linecap="round" stroke-linejoin="round" stroke-miterlimit="10" stroke-width="4"/>
          <path id="XMLID_201_" d="M31.414,23.084A18.3,18.3,0,0,0,17.5,40.678v8.749" transform="translate(-17.5 8.062)" fill="none" stroke="#db4f5f" stroke-linecap="round" stroke-linejoin="round" stroke-miterlimit="10" stroke-width="4"/>
          <path id="XMLID_200_" d="M27.857,38.137,43.44,22.579c-1.073-1.073-6.436-6.433-14,1.137l-8.01,7.992" transform="translate(-7.475 -0.48)" fill="none" stroke="#db4f5f" stroke-linecap="round" stroke-linejoin="round" stroke-miterlimit="10" stroke-width="4"/>
        </g>
        <path id="XMLID_197_" d="M27.857,38.137,43.44,22.579c-1.073-1.073-6.436-6.433-14,1.137l-8.01,7.992" transform="translate(49.358 -0.477)" fill="none" stroke="#db4f5f" stroke-linecap="round" stroke-linejoin="round" stroke-miterlimit="10" stroke-width="4"/>
      </g>
    </g>
  </g>
</svg>
