<svg xmlns="http://www.w3.org/2000/svg" width="104.4" height="104.4" viewBox="0 0 104.4 104.4">
  <g id="Grupo_763" data-name="Grupo 763" transform="translate(-1 -1)">
    <path id="Caminho_6275" data-name="Caminho 6275" d="M104.972,103.429V12.286A8.31,8.31,0,0,0,96.686,4h-46.4A8.31,8.31,0,0,0,42,12.286v91.143Z" transform="translate(-7.028 -0.514)" fill="#fff"/>
    <path id="Caminho_6276" data-name="Caminho 6276" d="M102.915,100.429h-2.486V11.771A10.75,10.75,0,0,0,89.657,1h-46.4A10.75,10.75,0,0,0,32.486,11.771V54.857H16.743A10.75,10.75,0,0,0,5.971,65.629v34.8H3.486a2.486,2.486,0,1,0,0,4.971h99.429a2.486,2.486,0,1,0,0-4.971Zm-30.657,0h-11.6V84.686h11.6Zm23.2,0H77.229V82.2a2.441,2.441,0,0,0-2.486-2.486H58.172A2.441,2.441,0,0,0,55.686,82.2v18.229H37.457V11.771a5.764,5.764,0,0,1,5.8-5.8h46.4a5.764,5.764,0,0,1,5.8,5.8Z" fill="#1f4e8b"/>
    <path id="Caminho_6277" data-name="Caminho 6277" d="M86.057,24.286h-5.8v-5.8a2.486,2.486,0,0,0-4.971,0v5.8h-5.8a2.486,2.486,0,1,0,0,4.971h5.8v5.8a2.486,2.486,0,0,0,4.971,0v-5.8h5.8a2.486,2.486,0,1,0,0-4.971Z" transform="translate(-11.314 -2.571)" fill="#1f4e8b"/>
    <path id="Caminho_6278" data-name="Caminho 6278" d="M95.914,55.971H54.486a2.486,2.486,0,0,1,0-4.971H95.914a2.486,2.486,0,1,1,0,4.971Z" transform="translate(-8.743 -8.571)" fill="#1f4e8b"/>
    <path id="Caminho_6279" data-name="Caminho 6279" d="M95.914,70.971H54.486a2.486,2.486,0,0,1,0-4.971H95.914a2.486,2.486,0,0,1,0,4.971Z" transform="translate(-8.743 -11.143)" fill="#1f4e8b"/>
    <path id="Caminho_6280" data-name="Caminho 6280" d="M30.6,85.971H21.486a2.486,2.486,0,1,1,0-4.971H30.6a2.486,2.486,0,1,1,0,4.971Z" transform="translate(-3.086 -13.714)" fill="#fff"/>
    <path id="Caminho_6281" data-name="Caminho 6281" d="M95.914,85.971H54.486a2.486,2.486,0,1,1,0-4.971H95.914a2.486,2.486,0,1,1,0,4.971Z" transform="translate(-8.743 -13.714)" fill="#1f4e8b"/>
    <path id="Caminho_6282" data-name="Caminho 6282" d="M30.6,100.971H21.486a2.486,2.486,0,0,1,0-4.971H30.6a2.486,2.486,0,1,1,0,4.971Z" transform="translate(-3.086 -16.285)" fill="#fff"/>
  </g>
</svg>
