<svg xmlns="http://www.w3.org/2000/svg" width="135.12" height="104.4" viewBox="0 0 135.12 104.4">
  <g id="Grupo_764" data-name="Grupo 764" transform="translate(0 -4.975)">
    <path id="Caminho_6290" data-name="Caminho 6290" d="M128.634,26.286,75.088,6.591a26.313,26.313,0,0,0-18.157,0L6.77,25.978a10.324,10.324,0,0,0,0,19.387l53.546,19.7A28.591,28.591,0,0,0,69.241,66.6a19.659,19.659,0,0,0,8.617-1.846l12.31-4.616a3.116,3.116,0,1,0-2.154-5.847L75.7,58.906a19.522,19.522,0,0,1-13.233,0L8.924,39.519a4.054,4.054,0,0,1-2.77-3.693,4.381,4.381,0,0,1,2.77-4l50.161-19.08a19.514,19.514,0,0,1,13.848,0l53.546,19.7a3.1,3.1,0,0,1,2.77,3.385,4.249,4.249,0,0,1-3.077,4l-21.542,8.309L72.011,34.9c-.923-1.231-3.077-2.154-5.847-2.154h0c-3.385,0-6.155,1.539-6.155,3.077s2.462,2.77,5.539,3.077l36.005,14.464V91.526a8.964,8.964,0,0,0-6.155,8.617,9.232,9.232,0,1,0,18.464,0,8.871,8.871,0,0,0-4.924-8,64.467,64.467,0,0,0,6.77-4.924,3.324,3.324,0,0,0,.923-2.154V60.445a3.077,3.077,0,1,0-6.155,0v23.08a11.053,11.053,0,0,1-3.077,2.154v-32l20.618-7.693a10.542,10.542,0,0,0,7.078-9.848A9.732,9.732,0,0,0,128.634,26.286Zm-24,77.242a3.077,3.077,0,1,1,3.077-3.077A2.907,2.907,0,0,1,104.631,103.528Z" fill="#388043"/>
    <path id="Caminho_6291" data-name="Caminho 6291" d="M73.087,59.852a74.3,74.3,0,0,1-17.849,2.154c-15.387,0-33.543-5.847-43.083-13.848V25.077A2.907,2.907,0,0,0,9.077,22,2.907,2.907,0,0,0,6,25.077V49.7a2.4,2.4,0,0,0,.923,2.154c12,10.771,33.236,16.31,48.315,16.31A85.428,85.428,0,0,0,74.318,65.7a2.921,2.921,0,0,0,2.154-3.693A2.629,2.629,0,0,0,73.087,59.852Z" transform="translate(12.464 35.367)" fill="#388043"/>
  </g>
</svg>
