<svg xmlns="http://www.w3.org/2000/svg" width="436" height="438" viewBox="0 0 436 438">
  <g id="Grupo_5536" data-name="Grupo 5536" transform="translate(-542 -2353)">
    <g id="Grupo_5531" data-name="Grupo 5531">
      <g id="Retângulo_2675" data-name="Retângulo 2675" transform="translate(542 2791) rotate(-90)" fill="none" stroke="#0065bd" stroke-width="7">
        <path d="M76,0H228A208,208,0,0,1,436,208V360a76,76,0,0,1-76,76H208A208,208,0,0,1,0,228V76A76,76,0,0,1,76,0Z" stroke="none"/>
        <path d="M76,3.5H228A204.5,204.5,0,0,1,432.5,208V360A72.5,72.5,0,0,1,360,432.5H208A204.5,204.5,0,0,1,3.5,228V76A72.5,72.5,0,0,1,76,3.5Z" fill="none"/>
      </g>
      <text id="Tsedaká" transform="translate(751 2567)" fill="#004f81" font-size="62" font-family="Montserrat-Bold, Montserrat" font-weight="700"><tspan x="-128.061" y="0">Tsedaká</tspan></text>
      <text id="JUSTIÇA_SOCIAL" data-name="JUSTIÇA SOCIAL" transform="translate(750 2609)" fill="#0065bd" font-size="27" font-family="Montserrat-Regular, Montserrat"><tspan x="-113.98" y="0">JUSTIÇA SOCIAL</tspan></text>
      <path id="Retângulo_2681" data-name="Retângulo 2681" d="M5,0H17A15,15,0,0,1,32,15V27a5,5,0,0,1-5,5H15A15,15,0,0,1,0,17V5A5,5,0,0,1,5,0Z" transform="translate(566 2387) rotate(-90)" fill="#0065bd"/>
    </g>
    <rect id="Retângulo_3283" data-name="Retângulo 3283" width="436" height="436" transform="translate(542 2353)" fill="none"/>
  </g>
</svg>
