<svg xmlns="http://www.w3.org/2000/svg" width="286" height="258" viewBox="0 0 286 258">
  <g id="Grupo_5575" data-name="Grupo 5575" transform="translate(-817 -1101)">
    <g id="Grupo_745" data-name="Grupo 745" transform="translate(9.148 582.246)">
      <path id="CONTORNO" d="M144.765,137.153c0,40.453-32.388,73.157-72.383,73.157S0,177.614,0,137.153C0,91.518,41.127,73.9,60.374,9.091A12.218,12.218,0,0,1,72.012,0c5.552,0,10.774,3.081,12.42,9.091,19.329,65.093,60.333,82.139,60.333,128.062m-13.162,0c0-19.963-9.459-33.436-22.462-52.083-12.031-17.13-26.939-38.4-36.76-70.282C62.552,46.58,47.707,67.817,35.739,85.027,22.621,103.759,13.16,117.274,13.16,137.153c0,33.109,26.576,60.012,59.222,60.012s59.222-26.9,59.222-60.012m-52.641,40.3a6.556,6.556,0,0,1-6.58,6.572,45.774,45.774,0,0,1-46.061-45.636,6.58,6.58,0,0,1,13.16,0c0,17.757,14.753,32.492,32.9,32.492a6.55,6.55,0,0,1,6.58,6.572" transform="translate(878.47 518.754)" fill="#fff"/>
      <circle id="Elipse_145" data-name="Elipse 145" cx="6.987" cy="6.987" r="6.987" transform="translate(926.725 623.909)" fill="#fff"/>
      <circle id="Elipse_146" data-name="Elipse 146" cx="6.987" cy="6.987" r="6.987" transform="translate(957.47 623.909)" fill="#fff"/>
    </g>
    <g id="Retângulo_2666" data-name="Retângulo 2666" transform="translate(817 1107)" fill="#62c9ce" stroke="#707070" stroke-width="1">
      <rect width="14" height="198" rx="7" stroke="none"/>
      <rect x="0.5" y="0.5" width="13" height="197" rx="6.5" fill="none"/>
    </g>
    <g id="Retângulo_2667" data-name="Retângulo 2667" transform="translate(1089 1107)" fill="#62c9ce" stroke="#707070" stroke-width="1">
      <rect width="14" height="198" rx="7" stroke="none"/>
      <rect x="0.5" y="0.5" width="13" height="197" rx="6.5" fill="none"/>
    </g>
    <g id="Retângulo_2668" data-name="Retângulo 2668" transform="translate(860 1359) rotate(-90)" fill="#62c9ce" stroke="#707070" stroke-width="1">
      <rect width="14" height="198" rx="7" stroke="none"/>
      <rect x="0.5" y="0.5" width="13" height="197" rx="6.5" fill="none"/>
    </g>
  </g>
</svg>
