<?xml version="1.0" encoding="utf-8"?>
<!-- Generator: Adobe Illustrator 28.0.0, SVG Export Plug-In . SVG Version: 6.00 Build 0)  -->
<svg version="1.1" id="Camada_1" xmlns="http://www.w3.org/2000/svg" xmlns:xlink="http://www.w3.org/1999/xlink" x="0px" y="0px"
	 viewBox="0 0 708 158" style="enable-background:new 0 0 708 158;" xml:space="preserve">
<style type="text/css">
	.st0{enable-background:new    ;}
	.st1{fill:#FFFFFF;}
	.st2{filter:url(#A_EXPERIÊNCIA_DO_COLABORADOR_);}
</style>
<filter  id="A_EXPERIÊNCIA_DO_COLABORADOR_">
	<feOffset  dy="3" input="SourceAlpha"></feOffset>
	<feGaussianBlur  result="blur" stdDeviation="1.5"></feGaussianBlur>
	<feFlood  flood-opacity="0.161" result="color"></feFlood>
	<feComposite  in="SourceGraphic" in2="blur" operator="out"></feComposite>
	<feComposite  in="color" operator="in"></feComposite>
	<feComposite  in2="SourceGraphic" operator="in"></feComposite>
</filter>
<g>
	<g class="st0">
		<path class="st1" d="M39,63l-4.2-9.8h-19L11.5,63H0.7l19.6-45.4h9.8L49.8,63H39z M25.2,31.1l-5.7,13.2h11.4L25.2,31.1z"/>
		<path class="st1" d="M104.9,17.6v9H82.3V36h20.3v8.6H82.3V54h23.3v9H72.2V17.6H104.9z"/>
		<path class="st1" d="M140.2,17.6h12.2l-14.2,21.9L153.6,63h-12.4l-9.7-15L122,63h-12.2L125,39.7l-14.2-22.2h12.2l8.6,13.5
			L140.2,17.6z"/>
		<path class="st1" d="M191.2,21.6c3.2,2.7,4.8,6.9,4.8,12.5c0,5.6-1.6,9.7-4.9,12.3c-3.3,2.6-8.3,3.9-15,3.9h-6V63h-10.1V17.6h16.1
			C182.9,17.6,188,18.9,191.2,21.6z M183.7,39.5c1.2-1.4,1.8-3.4,1.8-6c0-2.6-0.8-4.5-2.4-5.6c-1.6-1.1-4-1.7-7.4-1.7H170v15.3h6.8
			C180.2,41.5,182.5,40.9,183.7,39.5z"/>
		<path class="st1" d="M236.6,17.6v9H214V36h20.3v8.6H214V54h23.3v9h-33.5V17.6H236.6z"/>
		<path class="st1" d="M283.2,32.6c0,7.3-2.9,12-8.6,14.1L286.1,63h-12.5l-10.1-14.5h-7V63h-10.1V17.6h17.2c7.1,0,12.1,1.2,15.1,3.6
			C281.7,23.5,283.2,27.4,283.2,32.6z M271,38c1.3-1.1,1.9-2.9,1.9-5.4s-0.6-4.1-1.9-5c-1.3-0.9-3.6-1.4-6.8-1.4h-7.6v13.5h7.4
			C267.4,39.7,269.7,39.2,271,38z"/>
		<path class="st1" d="M293.6,17.6h10.1V63h-10.1V17.6z"/>
		<path class="st1" d="M347.7,17.6v9h-22.6V36h20.3v8.6h-20.3V54h23.3v9h-33.5V17.6H347.7z M324.9,13h-8l7.3-10.3h12.2l7.3,10.3h-8
			l-5.5-5.3L324.9,13z"/>
		<path class="st1" d="M389.2,17.6h10.1V63h-10.1l-21.6-28.5V63h-10.1V17.6h9.5l22.3,29.2V17.6z"/>
		<path class="st1" d="M431.4,54c5,0,9.1-2,12.2-5.9l6.5,6.7c-5.2,5.8-11.2,8.7-18.2,8.7c-7,0-12.8-2.2-17.3-6.6
			c-4.5-4.4-6.8-10-6.8-16.7c0-6.7,2.3-12.4,6.9-16.9c4.6-4.5,10.3-6.8,16.9-6.8c7.5,0,13.7,2.8,18.7,8.5l-6.3,7.2
			c-3.2-4-7.2-6-12-6c-3.8,0-7.1,1.2-9.8,3.7c-2.7,2.5-4.1,5.9-4.1,10.1s1.3,7.6,3.8,10.2C424.7,52.8,427.8,54,431.4,54z"/>
		<path class="st1" d="M458.1,17.6h10.1V63h-10.1V17.6z"/>
		<path class="st1" d="M511.8,63l-4.2-9.8h-19l-4.2,9.8h-10.8l19.6-45.4h9.8L522.6,63H511.8z M498.1,31.1l-5.7,13.2h11.4L498.1,31.1
			z"/>
		<path class="st1" d="M579.8,23.5c4.3,4,6.5,9.5,6.5,16.5c0,7.1-2.1,12.7-6.3,16.8c-4.2,4.1-10.7,6.2-19.3,6.2H545V17.6h16.1
			C569.2,17.6,575.4,19.5,579.8,23.5z M572.3,50.5c2.5-2.3,3.7-5.7,3.7-10.2s-1.2-7.9-3.7-10.3s-6.3-3.6-11.5-3.6h-5.7V54h6.4
			C566.3,54,569.8,52.9,572.3,50.5z"/>
		<path class="st1" d="M633.2,56.7c-4.6,4.5-10.2,6.7-17,6.7s-12.4-2.2-17-6.7c-4.6-4.5-6.9-10.1-6.9-16.7c0-6.7,2.3-12.3,6.9-16.7
			c4.6-4.5,10.2-6.7,17-6.7s12.4,2.2,17,6.7c4.6,4.5,6.9,10.1,6.9,16.7C640.1,46.7,637.8,52.2,633.2,56.7z M629.8,40
			c0-4.1-1.3-7.5-3.9-10.4c-2.6-2.9-5.8-4.3-9.6-4.3c-3.8,0-7,1.4-9.6,4.3c-2.6,2.9-3.9,6.3-3.9,10.4c0,4.1,1.3,7.5,3.9,10.3
			c2.6,2.8,5.8,4.3,9.6,4.3c3.8,0,7-1.4,9.6-4.3C628.5,47.5,629.8,44.1,629.8,40z"/>
	</g>
	<g class="st0">
		<path class="st1" d="M27.5,133c5,0,9.1-2,12.2-5.9l6.5,6.7c-5.2,5.8-11.2,8.7-18.2,8.7c-7,0-12.8-2.2-17.3-6.6
			c-4.5-4.4-6.8-10-6.8-16.7c0-6.7,2.3-12.4,6.9-16.9c4.6-4.5,10.3-6.8,16.9-6.8c7.5,0,13.7,2.8,18.7,8.5l-6.3,7.2
			c-3.2-4-7.2-6-12-6c-3.8,0-7.1,1.2-9.8,3.7c-2.7,2.5-4.1,5.9-4.1,10.1s1.3,7.6,3.8,10.2C20.7,131.8,23.8,133,27.5,133z"/>
		<path class="st1" d="M91.4,135.7c-4.6,4.5-10.2,6.7-17,6.7c-6.7,0-12.4-2.2-17-6.7c-4.6-4.5-6.9-10.1-6.9-16.7
			c0-6.7,2.3-12.3,6.9-16.7c4.6-4.5,10.2-6.7,17-6.7c6.7,0,12.4,2.2,17,6.7c4.6,4.5,6.9,10.1,6.9,16.7
			C98.3,125.7,96,131.2,91.4,135.7z M88,119c0-4.1-1.3-7.5-3.9-10.4c-2.6-2.9-5.8-4.3-9.6-4.3c-3.8,0-7,1.4-9.6,4.3
			C62.3,111.5,61,115,61,119c0,4.1,1.3,7.5,3.9,10.3c2.6,2.8,5.8,4.3,9.6,4.3c3.8,0,7-1.4,9.6-4.3C86.7,126.5,88,123.1,88,119z"/>
		<path class="st1" d="M106.9,142V96.6H117V133h19.4v9H106.9z"/>
		<path class="st1" d="M176.2,142l-4.2-9.8h-19l-4.2,9.8h-10.8l19.6-45.4h9.8L187,142H176.2z M162.5,110.1l-5.7,13.2h11.4
			L162.5,110.1z"/>
		<path class="st1" d="M212.1,142h-19.9V96.6h17.7c3.1,0,5.7,0.4,8,1.1c2.2,0.7,3.9,1.7,5,3c2,2.3,3.1,5,3.1,7.9
			c0,3.6-1.1,6.2-3.4,7.9c-0.8,0.6-1.3,1-1.6,1.1c-0.3,0.2-0.8,0.4-1.6,0.7c2.8,0.6,5.1,1.9,6.7,3.8c1.7,1.9,2.5,4.3,2.5,7.2
			c0,3.2-1.1,6-3.2,8.4C222.7,140.6,218.4,142,212.1,142z M202.4,115h4.8c2.8,0,4.9-0.3,6.3-0.9c1.4-0.6,2-1.9,2-3.9
			c0-2-0.6-3.3-1.9-4c-1.3-0.7-3.4-1-6.4-1h-4.9V115z M202.4,133.4h7c2.9,0,5.1-0.4,6.5-1.1c1.5-0.7,2.2-2.1,2.2-4.2
			c0-2.1-0.8-3.5-2.3-4.2c-1.5-0.7-4-1-7.4-1h-6V133.4z"/>
		<path class="st1" d="M275.2,135.7c-4.6,4.5-10.2,6.7-17,6.7c-6.7,0-12.4-2.2-17-6.7c-4.6-4.5-6.9-10.1-6.9-16.7
			c0-6.7,2.3-12.3,6.9-16.7c4.6-4.5,10.2-6.7,17-6.7c6.7,0,12.4,2.2,17,6.7c4.6,4.5,6.9,10.1,6.9,16.7
			C282.1,125.7,279.8,131.2,275.2,135.7z M271.8,119c0-4.1-1.3-7.5-3.9-10.4c-2.6-2.9-5.8-4.3-9.6-4.3c-3.8,0-7,1.4-9.6,4.3
			c-2.6,2.9-3.9,6.3-3.9,10.4c0,4.1,1.3,7.5,3.9,10.3c2.6,2.8,5.8,4.3,9.6,4.3c3.8,0,7-1.4,9.6-4.3
			C270.5,126.5,271.8,123.1,271.8,119z"/>
		<path class="st1" d="M327.6,111.6c0,7.3-2.9,12-8.6,14.1l11.5,16.2h-12.5l-10.1-14.5h-7V142h-10.1V96.6h17.2
			c7.1,0,12.1,1.2,15.1,3.6C326.1,102.5,327.6,106.4,327.6,111.6z M315.3,117c1.3-1.1,1.9-2.9,1.9-5.4s-0.6-4.1-1.9-5
			c-1.3-0.9-3.6-1.4-6.8-1.4h-7.6v13.5h7.4C311.7,118.7,314.1,118.2,315.3,117z"/>
		<path class="st1" d="M370.3,142l-4.2-9.8h-19l-4.2,9.8H332l19.6-45.4h9.8l19.6,45.4H370.3z M356.6,110.1l-5.7,13.2h11.4
			L356.6,110.1z"/>
		<path class="st1" d="M421.1,102.5c4.3,4,6.5,9.5,6.5,16.5c0,7.1-2.1,12.7-6.3,16.8c-4.2,4.1-10.7,6.2-19.3,6.2h-15.5V96.6h16.1
			C410.5,96.6,416.8,98.5,421.1,102.5z M413.6,129.5c2.5-2.3,3.7-5.7,3.7-10.2s-1.2-7.9-3.7-10.3c-2.5-2.4-6.3-3.6-11.5-3.6h-5.7
			V133h6.4C407.6,133,411.2,131.9,413.6,129.5z"/>
		<path class="st1" d="M474.6,135.7c-4.6,4.5-10.2,6.7-17,6.7c-6.7,0-12.4-2.2-17-6.7c-4.6-4.5-6.9-10.1-6.9-16.7
			c0-6.7,2.3-12.3,6.9-16.7c4.6-4.5,10.2-6.7,17-6.7c6.7,0,12.4,2.2,17,6.7c4.6,4.5,6.9,10.1,6.9,16.7
			C481.5,125.7,479.2,131.2,474.6,135.7z M471.1,119c0-4.1-1.3-7.5-3.9-10.4c-2.6-2.9-5.8-4.3-9.6-4.3s-7,1.4-9.6,4.3
			c-2.6,2.9-3.9,6.3-3.9,10.4c0,4.1,1.3,7.5,3.9,10.3c2.6,2.8,5.8,4.3,9.6,4.3s7-1.4,9.6-4.3C469.8,126.5,471.1,123.1,471.1,119z"/>
		<path class="st1" d="M526.9,111.6c0,7.3-2.9,12-8.6,14.1l11.5,16.2h-12.5l-10.1-14.5h-7V142h-10.1V96.6h17.2
			c7.1,0,12.1,1.2,15.1,3.6C525.4,102.5,526.9,106.4,526.9,111.6z M514.7,117c1.3-1.1,1.9-2.9,1.9-5.4s-0.6-4.1-2-5
			c-1.3-0.9-3.6-1.4-6.8-1.4h-7.6v13.5h7.4C511.1,118.7,513.4,118.2,514.7,117z"/>
	</g>
	<g transform="matrix(1, 0, 0, 1, 0, 0)" class="st2">
		<g class="st0">
			<path class="st1" d="M39,63l-4.2-9.8h-19L11.5,63H0.7l19.6-45.4h9.8L49.8,63H39z M25.2,31.1l-5.7,13.2h11.4L25.2,31.1z"/>
			<path class="st1" d="M104.9,17.6v9H82.3V36h20.3v8.6H82.3V54h23.3v9H72.2V17.6H104.9z"/>
			<path class="st1" d="M140.2,17.6h12.2l-14.2,21.9L153.6,63h-12.4l-9.7-15L122,63h-12.2L125,39.7l-14.2-22.2h12.2l8.6,13.5
				L140.2,17.6z"/>
			<path class="st1" d="M191.2,21.6c3.2,2.7,4.8,6.9,4.8,12.5c0,5.6-1.6,9.7-4.9,12.3c-3.3,2.6-8.3,3.9-15,3.9h-6V63h-10.1V17.6
				h16.1C182.9,17.6,188,18.9,191.2,21.6z M183.7,39.5c1.2-1.4,1.8-3.4,1.8-6c0-2.6-0.8-4.5-2.4-5.6c-1.6-1.1-4-1.7-7.4-1.7H170
				v15.3h6.8C180.2,41.5,182.5,40.9,183.7,39.5z"/>
			<path class="st1" d="M236.6,17.6v9H214V36h20.3v8.6H214V54h23.3v9h-33.5V17.6H236.6z"/>
			<path class="st1" d="M283.2,32.6c0,7.3-2.9,12-8.6,14.1L286.1,63h-12.5l-10.1-14.5h-7V63h-10.1V17.6h17.2
				c7.1,0,12.1,1.2,15.1,3.6C281.7,23.5,283.2,27.4,283.2,32.6z M271,38c1.3-1.1,1.9-2.9,1.9-5.4s-0.6-4.1-1.9-5
				c-1.3-0.9-3.6-1.4-6.8-1.4h-7.6v13.5h7.4C267.4,39.7,269.7,39.2,271,38z"/>
			<path class="st1" d="M293.6,17.6h10.1V63h-10.1V17.6z"/>
			<path class="st1" d="M347.7,17.6v9h-22.6V36h20.3v8.6h-20.3V54h23.3v9h-33.5V17.6H347.7z M324.9,13h-8l7.3-10.3h12.2l7.3,10.3h-8
				l-5.5-5.3L324.9,13z"/>
			<path class="st1" d="M389.2,17.6h10.1V63h-10.1l-21.6-28.5V63h-10.1V17.6h9.5l22.3,29.2V17.6z"/>
			<path class="st1" d="M431.4,54c5,0,9.1-2,12.2-5.9l6.5,6.7c-5.2,5.8-11.2,8.7-18.2,8.7c-7,0-12.8-2.2-17.3-6.6
				c-4.5-4.4-6.8-10-6.8-16.7c0-6.7,2.3-12.4,6.9-16.9c4.6-4.5,10.3-6.8,16.9-6.8c7.5,0,13.7,2.8,18.7,8.5l-6.3,7.2
				c-3.2-4-7.2-6-12-6c-3.8,0-7.1,1.2-9.8,3.7c-2.7,2.5-4.1,5.9-4.1,10.1s1.3,7.6,3.8,10.2C424.7,52.8,427.8,54,431.4,54z"/>
			<path class="st1" d="M458.1,17.6h10.1V63h-10.1V17.6z"/>
			<path class="st1" d="M511.8,63l-4.2-9.8h-19l-4.2,9.8h-10.8l19.6-45.4h9.8L522.6,63H511.8z M498.1,31.1l-5.7,13.2h11.4
				L498.1,31.1z"/>
			<path class="st1" d="M579.8,23.5c4.3,4,6.5,9.5,6.5,16.5c0,7.1-2.1,12.7-6.3,16.8c-4.2,4.1-10.7,6.2-19.3,6.2H545V17.6h16.1
				C569.2,17.6,575.4,19.5,579.8,23.5z M572.3,50.5c2.5-2.3,3.7-5.7,3.7-10.2s-1.2-7.9-3.7-10.3s-6.3-3.6-11.5-3.6h-5.7V54h6.4
				C566.3,54,569.8,52.9,572.3,50.5z"/>
			<path class="st1" d="M633.2,56.7c-4.6,4.5-10.2,6.7-17,6.7s-12.4-2.2-17-6.7c-4.6-4.5-6.9-10.1-6.9-16.7c0-6.7,2.3-12.3,6.9-16.7
				c4.6-4.5,10.2-6.7,17-6.7s12.4,2.2,17,6.7c4.6,4.5,6.9,10.1,6.9,16.7C640.1,46.7,637.8,52.2,633.2,56.7z M629.8,40
				c0-4.1-1.3-7.5-3.9-10.4c-2.6-2.9-5.8-4.3-9.6-4.3c-3.8,0-7,1.4-9.6,4.3c-2.6,2.9-3.9,6.3-3.9,10.4c0,4.1,1.3,7.5,3.9,10.3
				c2.6,2.8,5.8,4.3,9.6,4.3c3.8,0,7-1.4,9.6-4.3C628.5,47.5,629.8,44.1,629.8,40z"/>
		</g>
		<g class="st0">
			<path class="st1" d="M27.5,133c5,0,9.1-2,12.2-5.9l6.5,6.7c-5.2,5.8-11.2,8.7-18.2,8.7c-7,0-12.8-2.2-17.3-6.6
				c-4.5-4.4-6.8-10-6.8-16.7c0-6.7,2.3-12.4,6.9-16.9c4.6-4.5,10.3-6.8,16.9-6.8c7.5,0,13.7,2.8,18.7,8.5l-6.3,7.2
				c-3.2-4-7.2-6-12-6c-3.8,0-7.1,1.2-9.8,3.7c-2.7,2.5-4.1,5.9-4.1,10.1s1.3,7.6,3.8,10.2C20.7,131.8,23.8,133,27.5,133z"/>
			<path class="st1" d="M91.4,135.7c-4.6,4.5-10.2,6.7-17,6.7c-6.7,0-12.4-2.2-17-6.7c-4.6-4.5-6.9-10.1-6.9-16.7
				c0-6.7,2.3-12.3,6.9-16.7c4.6-4.5,10.2-6.7,17-6.7c6.7,0,12.4,2.2,17,6.7c4.6,4.5,6.9,10.1,6.9,16.7
				C98.3,125.7,96,131.2,91.4,135.7z M88,119c0-4.1-1.3-7.5-3.9-10.4c-2.6-2.9-5.8-4.3-9.6-4.3c-3.8,0-7,1.4-9.6,4.3
				C62.3,111.5,61,115,61,119c0,4.1,1.3,7.5,3.9,10.3c2.6,2.8,5.8,4.3,9.6,4.3c3.8,0,7-1.4,9.6-4.3C86.7,126.5,88,123.1,88,119z"/>
			<path class="st1" d="M106.9,142V96.6H117V133h19.4v9H106.9z"/>
			<path class="st1" d="M176.2,142l-4.2-9.8h-19l-4.2,9.8h-10.8l19.6-45.4h9.8L187,142H176.2z M162.5,110.1l-5.7,13.2h11.4
				L162.5,110.1z"/>
			<path class="st1" d="M212.1,142h-19.9V96.6h17.7c3.1,0,5.7,0.4,8,1.1c2.2,0.7,3.9,1.7,5,3c2,2.3,3.1,5,3.1,7.9
				c0,3.6-1.1,6.2-3.4,7.9c-0.8,0.6-1.3,1-1.6,1.1c-0.3,0.2-0.8,0.4-1.6,0.7c2.8,0.6,5.1,1.9,6.7,3.8c1.7,1.9,2.5,4.3,2.5,7.2
				c0,3.2-1.1,6-3.2,8.4C222.7,140.6,218.4,142,212.1,142z M202.4,115h4.8c2.8,0,4.9-0.3,6.3-0.9c1.4-0.6,2-1.9,2-3.9
				c0-2-0.6-3.3-1.9-4c-1.3-0.7-3.4-1-6.4-1h-4.9V115z M202.4,133.4h7c2.9,0,5.1-0.4,6.5-1.1c1.5-0.7,2.2-2.1,2.2-4.2
				c0-2.1-0.8-3.5-2.3-4.2c-1.5-0.7-4-1-7.4-1h-6V133.4z"/>
			<path class="st1" d="M275.2,135.7c-4.6,4.5-10.2,6.7-17,6.7c-6.7,0-12.4-2.2-17-6.7c-4.6-4.5-6.9-10.1-6.9-16.7
				c0-6.7,2.3-12.3,6.9-16.7c4.6-4.5,10.2-6.7,17-6.7c6.7,0,12.4,2.2,17,6.7c4.6,4.5,6.9,10.1,6.9,16.7
				C282.1,125.7,279.8,131.2,275.2,135.7z M271.8,119c0-4.1-1.3-7.5-3.9-10.4c-2.6-2.9-5.8-4.3-9.6-4.3c-3.8,0-7,1.4-9.6,4.3
				c-2.6,2.9-3.9,6.3-3.9,10.4c0,4.1,1.3,7.5,3.9,10.3c2.6,2.8,5.8,4.3,9.6,4.3c3.8,0,7-1.4,9.6-4.3
				C270.5,126.5,271.8,123.1,271.8,119z"/>
			<path class="st1" d="M327.6,111.6c0,7.3-2.9,12-8.6,14.1l11.5,16.2h-12.5l-10.1-14.5h-7V142h-10.1V96.6h17.2
				c7.1,0,12.1,1.2,15.1,3.6C326.1,102.5,327.6,106.4,327.6,111.6z M315.3,117c1.3-1.1,1.9-2.9,1.9-5.4s-0.6-4.1-1.9-5
				c-1.3-0.9-3.6-1.4-6.8-1.4h-7.6v13.5h7.4C311.7,118.7,314.1,118.2,315.3,117z"/>
			<path class="st1" d="M370.3,142l-4.2-9.8h-19l-4.2,9.8H332l19.6-45.4h9.8l19.6,45.4H370.3z M356.6,110.1l-5.7,13.2h11.4
				L356.6,110.1z"/>
			<path class="st1" d="M421.1,102.5c4.3,4,6.5,9.5,6.5,16.5c0,7.1-2.1,12.7-6.3,16.8c-4.2,4.1-10.7,6.2-19.3,6.2h-15.5V96.6h16.1
				C410.5,96.6,416.8,98.5,421.1,102.5z M413.6,129.5c2.5-2.3,3.7-5.7,3.7-10.2s-1.2-7.9-3.7-10.3c-2.5-2.4-6.3-3.6-11.5-3.6h-5.7
				V133h6.4C407.6,133,411.2,131.9,413.6,129.5z"/>
			<path class="st1" d="M474.6,135.7c-4.6,4.5-10.2,6.7-17,6.7c-6.7,0-12.4-2.2-17-6.7c-4.6-4.5-6.9-10.1-6.9-16.7
				c0-6.7,2.3-12.3,6.9-16.7c4.6-4.5,10.2-6.7,17-6.7c6.7,0,12.4,2.2,17,6.7c4.6,4.5,6.9,10.1,6.9,16.7
				C481.5,125.7,479.2,131.2,474.6,135.7z M471.1,119c0-4.1-1.3-7.5-3.9-10.4c-2.6-2.9-5.8-4.3-9.6-4.3s-7,1.4-9.6,4.3
				c-2.6,2.9-3.9,6.3-3.9,10.4c0,4.1,1.3,7.5,3.9,10.3c2.6,2.8,5.8,4.3,9.6,4.3s7-1.4,9.6-4.3C469.8,126.5,471.1,123.1,471.1,119z"
				/>
			<path class="st1" d="M526.9,111.6c0,7.3-2.9,12-8.6,14.1l11.5,16.2h-12.5l-10.1-14.5h-7V142h-10.1V96.6h17.2
				c7.1,0,12.1,1.2,15.1,3.6C525.4,102.5,526.9,106.4,526.9,111.6z M514.7,117c1.3-1.1,1.9-2.9,1.9-5.4s-0.6-4.1-2-5
				c-1.3-0.9-3.6-1.4-6.8-1.4h-7.6v13.5h7.4C511.1,118.7,513.4,118.2,514.7,117z"/>
		</g>
	</g>
</g>
</svg>
