<svg xmlns="http://www.w3.org/2000/svg" width="116" height="116" viewBox="0 0 116 116">
  <g id="Grupo_5813" data-name="Grupo 5813" transform="translate(1 1)">
    <circle id="Elipse_228" data-name="Elipse 228" cx="5.5" cy="5.5" r="5.5" transform="translate(51.5 7.5)" fill="none" stroke="#00a4e1" stroke-linecap="round" stroke-linejoin="round" stroke-width="3"/>
    <path id="Caminho_12039" data-name="Caminho 12039" d="M45.952,22.371V13.258a12.758,12.758,0,0,0-25.516,0v9.113H9.5V36.952H56.887V22.371Z" transform="translate(23.806 0)" fill="none" stroke="#00a4e1" stroke-linecap="round" stroke-linejoin="round" stroke-width="3"/>
    <path id="Caminho_12040" data-name="Caminho 12040" d="M80.694,8.5H106.21a7.29,7.29,0,0,1,7.29,7.29V85.048a7.29,7.29,0,0,1-7.29,7.29H7.79A7.29,7.29,0,0,1,.5,85.048V15.79A7.29,7.29,0,0,1,7.79,8.5H33.306" transform="translate(0 21.161)" fill="none" stroke="#00a4e1" stroke-linecap="round" stroke-linejoin="round" stroke-width="3"/>
    <path id="Caminho_12041" data-name="Caminho 12041" d="M20.726,10.5H2.5V79.758h98.419V10.5H82.694" transform="translate(5.29 26.452)" fill="none" stroke="#00a4e1" stroke-linecap="round" stroke-linejoin="round" stroke-width="3"/>
    <ellipse id="Elipse_229" data-name="Elipse 229" cx="7" cy="7.5" rx="7" ry="7.5" transform="translate(22.5 80.5)" fill="none" stroke="#00a4e1" stroke-linecap="round" stroke-linejoin="round" stroke-width="3"/>
    <path id="Caminho_12042" data-name="Caminho 12042" d="M10.5,43.016H36.016A18.226,18.226,0,0,0,54.242,24.79V17.5" transform="translate(26.452 44.968)" fill="none" stroke="#00a4e1" stroke-linecap="round" stroke-linejoin="round" stroke-width="3"/>
    <path id="Caminho_12043" data-name="Caminho 12043" d="M20.5,24.79l7.29-7.29,7.29,7.29" transform="translate(52.903 44.968)" fill="none" stroke="#00a4e1" stroke-linecap="round" stroke-linejoin="round" stroke-width="3"/>
    <line id="Linha_213" data-name="Linha 213" x1="11" y2="11" transform="translate(22.5 58.5)" fill="none" stroke="#00a4e1" stroke-linecap="round" stroke-linejoin="round" stroke-width="3"/>
    <line id="Linha_214" data-name="Linha 214" x1="11" y1="11" transform="translate(22.5 58.5)" fill="none" stroke="#00a4e1" stroke-linecap="round" stroke-linejoin="round" stroke-width="3"/>
    <line id="Linha_215" data-name="Linha 215" x1="11" y2="11" transform="translate(51.5 47.5)" fill="none" stroke="#00a4e1" stroke-linecap="round" stroke-linejoin="round" stroke-width="3"/>
    <line id="Linha_216" data-name="Linha 216" x1="11" y1="11" transform="translate(51.5 47.5)" fill="none" stroke="#00a4e1" stroke-linecap="round" stroke-linejoin="round" stroke-width="3"/>
    <line id="Linha_217" data-name="Linha 217" x1="11" y2="11" transform="translate(87.5 87.5)" fill="none" stroke="#00a4e1" stroke-linecap="round" stroke-linejoin="round" stroke-width="3"/>
    <line id="Linha_218" data-name="Linha 218" x1="11" y1="11" transform="translate(87.5 87.5)" fill="none" stroke="#00a4e1" stroke-linecap="round" stroke-linejoin="round" stroke-width="3"/>
  </g>
</svg>
