<svg xmlns="http://www.w3.org/2000/svg" width="115.601" height="123.972" viewBox="0 0 115.601 123.972">
  <g id="Grupo_5812" data-name="Grupo 5812" transform="translate(-14.049 -8.414)">
    <g id="Grupo_5766" data-name="Grupo 5766" transform="translate(14.049 8.414)">
      <g id="Grupo_5765" data-name="Grupo 5765">
        <path id="Caminho_12037" data-name="Caminho 12037" d="M121.829,66.232a7.822,7.822,0,0,0,0-15.643h-4.645a55,55,0,0,0-22.5-19,1.873,1.873,0,1,0-1.561,3.4,51.208,51.208,0,0,1,19.443,15.6H50.6a9.98,9.98,0,0,0-14.091,0H21.87a7.817,7.817,0,0,0-2.605,15.188,55.18,55.18,0,0,0-2.273,15.7,54.485,54.485,0,0,0,26.551,47,1.873,1.873,0,1,0,1.935-3.207A50.763,50.763,0,0,1,20.737,81.481a51.4,51.4,0,0,1,2.306-15.248H38.328a9.965,9.965,0,0,0,10.454,0h3.7v45.121a9.948,9.948,0,0,0,0,13.5v10.891a7.721,7.721,0,0,0,15.442,0V124.03a9.958,9.958,0,0,0,0-11.853V101.238h7.852v34.505a7.722,7.722,0,0,0,15.443,0V132.82a53.394,53.394,0,0,0,25.36-19.258,54.88,54.88,0,0,0,10.13-32.083,52.579,52.579,0,0,0-.419-6.676,1.872,1.872,0,1,0-3.714.476,48.435,48.435,0,0,1,.389,6.2c0,21.39-12.385,39.725-31.745,47.343V87.36a10,10,0,0,0,0-18.53v-2.6h30.611ZM21.87,62.488a4.076,4.076,0,0,1,0-8.153H34.122c-.045.125-.079.256-.12.384s-.089.271-.126.41-.069.3-.1.458c-.027.129-.061.255-.083.384-.032.178-.051.358-.073.538-.012.107-.032.213-.04.32-.026.288-.038.578-.038.869a10.294,10.294,0,0,0,.077,1.235c.018.14.054.276.078.414.044.265.085.529.15.789.042.163.1.321.15.483.07.227.135.455.221.676.065.167.146.327.219.491.093.205.181.413.287.613.016.03.027.061.043.092H21.87Zm18.089.34A6.286,6.286,0,0,1,37.283,57.7c0-.183.008-.368.024-.549a6.272,6.272,0,1,1,10.442,5.207,6.048,6.048,0,0,1-.6.475A6.342,6.342,0,0,1,39.959,62.828Zm21.249,49.149a6.272,6.272,0,1,1-5.588,10.739,6.27,6.27,0,0,1,5.588-10.739Zm2.968,23.767a3.976,3.976,0,0,1-7.951,0v-8.307c.015.006.031.009.044.015.3.115.6.215.912.3l.068.016a9.755,9.755,0,0,0,5,.054c.032-.007.063-.019.1-.027.282-.073.562-.151.837-.248.149-.052.291-.116.44-.174.164-.067.331-.129.491-.2.022-.01.046-.018.067-.027v8.6Zm23.3,0a3.976,3.976,0,0,1-7.952,0V99.366a1.872,1.872,0,0,0-1.873-1.872H66.05a1.873,1.873,0,0,0-1.874,1.872v9.7c-.021-.01-.045-.018-.067-.028-.157-.074-.32-.135-.482-.2s-.3-.126-.451-.179c-.27-.095-.544-.172-.822-.244-.037-.01-.074-.023-.111-.032a10.011,10.011,0,0,0-2.384-.3,9.9,9.9,0,0,0-2.617.356l-.059.013c-.313.088-.618.187-.92.3-.012.005-.026.008-.039.013V64.359a1.872,1.872,0,0,0-1.873-1.872h-2c.016-.031.027-.062.043-.092.107-.2.2-.408.289-.615.073-.163.154-.322.219-.489.086-.221.151-.449.219-.679.05-.161.109-.317.151-.48.064-.26.105-.525.151-.789.022-.138.059-.273.076-.414a9.983,9.983,0,0,0,.078-1.235c0-.291-.013-.581-.038-.869-.01-.11-.03-.218-.043-.327-.022-.177-.04-.355-.071-.53-.023-.132-.058-.262-.086-.394-.033-.148-.06-.3-.1-.447s-.086-.278-.13-.418-.071-.253-.116-.376h68.838a4.076,4.076,0,0,1,0,8.153H89.345a1.872,1.872,0,0,0-1.872,1.872v3.719h-.037a10.017,10.017,0,1,0,0,20.035h.037v47.632ZM93.708,78.1a6.273,6.273,0,1,1-6.273-6.273,6.17,6.17,0,0,1,1.472.183A6.245,6.245,0,0,1,93.708,78.1Z" transform="translate(-14.049 -19.493)" fill="#00a4e1"/>
        <path id="Caminho_12038" data-name="Caminho 12038" d="M59.957,30.84a1.868,1.868,0,0,0,1.167-.409,50.376,50.376,0,0,1,16.3-8.711c-.045.467-.072.939-.072,1.417a14.738,14.738,0,1,0,1.119-5.617A54.1,54.1,0,0,0,58.786,27.5a1.872,1.872,0,0,0,1.17,3.336ZM92.076,12.161A10.977,10.977,0,1,1,81.1,23.137,10.989,10.989,0,0,1,92.076,12.161Z" transform="translate(-35.258 -8.414)" fill="#00a4e1"/>
      </g>
    </g>
  </g>
</svg>
