<svg xmlns="http://www.w3.org/2000/svg" width="730.25" height="400.125" viewBox="0 0 730.25 400.125">
  <g id="Grupo_5766" data-name="Grupo 5766" transform="translate(-11149.75 19426)">
    <path id="Caminho_12037" data-name="Caminho 12037" d="M43.92,39V13.4l2.8,2.8h-8.4V11H50.4V39Zm23.36.48a11.38,11.38,0,0,1-6.16-1.7,11.557,11.557,0,0,1-4.28-4.94A17.948,17.948,0,0,1,55.28,25a17.948,17.948,0,0,1,1.56-7.84,11.557,11.557,0,0,1,4.28-4.94,12.047,12.047,0,0,1,12.34,0,11.605,11.605,0,0,1,4.26,4.94A17.948,17.948,0,0,1,79.28,25a17.948,17.948,0,0,1-1.56,7.84,11.605,11.605,0,0,1-4.26,4.94A11.352,11.352,0,0,1,67.28,39.48Zm0-5.48a4.617,4.617,0,0,0,2.86-.92,6.025,6.025,0,0,0,1.92-2.92,15.9,15.9,0,0,0,.7-5.16,15.9,15.9,0,0,0-.7-5.16,6.025,6.025,0,0,0-1.92-2.92A4.617,4.617,0,0,0,67.28,16a4.556,4.556,0,0,0-2.82.92,6.025,6.025,0,0,0-1.92,2.92,15.9,15.9,0,0,0-.7,5.16,15.9,15.9,0,0,0,.7,5.16,6.025,6.025,0,0,0,1.92,2.92A4.556,4.556,0,0,0,67.28,34Zm19.2,5L105.6,11h4.76L91.24,39Zm2.44-12.88a6.838,6.838,0,0,1-3.6-.94,6.568,6.568,0,0,1-2.46-2.68,8.812,8.812,0,0,1-.9-4.1,8.689,8.689,0,0,1,.9-4.08,6.977,6.977,0,0,1,9.66-2.68,6.6,6.6,0,0,1,2.44,2.68,8.854,8.854,0,0,1,.88,4.08,8.978,8.978,0,0,1-.88,4.1,6.435,6.435,0,0,1-2.44,2.68A6.838,6.838,0,0,1,88.92,26.12Zm0-3.28a2.5,2.5,0,0,0,2.12-1.1,5.685,5.685,0,0,0,.8-3.34,5.685,5.685,0,0,0-.8-3.34,2.574,2.574,0,0,0-4.22,0A5.578,5.578,0,0,0,86,18.4a5.592,5.592,0,0,0,.82,3.32A2.5,2.5,0,0,0,88.92,22.84Zm19,16.48a6.867,6.867,0,0,1-3.58-.94,6.393,6.393,0,0,1-2.46-2.68,8.978,8.978,0,0,1-.88-4.1,8.854,8.854,0,0,1,.88-4.08,6.554,6.554,0,0,1,2.46-2.68,7.267,7.267,0,0,1,7.22,0A6.6,6.6,0,0,1,114,27.52a8.854,8.854,0,0,1,.88,4.08,8.978,8.978,0,0,1-.88,4.1,6.435,6.435,0,0,1-2.44,2.68A6.915,6.915,0,0,1,107.92,39.32Zm0-3.28a2.5,2.5,0,0,0,2.12-1.1,5.685,5.685,0,0,0,.8-3.34,5.7,5.7,0,0,0-.8-3.32,2.485,2.485,0,0,0-2.12-1.12,2.513,2.513,0,0,0-2.1,1.1A5.578,5.578,0,0,0,105,31.6a5.578,5.578,0,0,0,.82,3.34A2.513,2.513,0,0,0,107.92,36.04ZM40.275,73V55.5h1.85V71.4h9.8V73ZM60,73.125a7.282,7.282,0,0,1-3.6-.863,6.267,6.267,0,0,1-2.425-2.375,6.788,6.788,0,0,1-.875-3.462,6.957,6.957,0,0,1,.837-3.45,6.2,6.2,0,0,1,2.3-2.362,6.783,6.783,0,0,1,6.575-.025,5.964,5.964,0,0,1,2.263,2.35,7.167,7.167,0,0,1,.825,3.488q0,.125-.013.262t-.012.287H54.45V65.65H64.925l-.7.525a5.174,5.174,0,0,0-.612-2.538A4.508,4.508,0,0,0,61.95,61.9a4.65,4.65,0,0,0-2.425-.625A4.735,4.735,0,0,0,57.1,61.9a4.345,4.345,0,0,0-1.675,1.75,5.387,5.387,0,0,0-.6,2.575V66.5a5.145,5.145,0,0,0,.663,2.637,4.628,4.628,0,0,0,1.85,1.775,5.645,5.645,0,0,0,2.713.638,5.845,5.845,0,0,0,2.237-.425,4.649,4.649,0,0,0,1.787-1.3l1,1.15a5.631,5.631,0,0,1-2.188,1.6A7.4,7.4,0,0,1,60,73.125ZM76.225,59.75a6.158,6.158,0,0,1,2.813.612,4.4,4.4,0,0,1,1.9,1.862,6.48,6.48,0,0,1,.688,3.15V73H79.85V65.55a4.318,4.318,0,0,0-1.038-3.138A3.884,3.884,0,0,0,75.9,61.35a5.039,5.039,0,0,0-2.437.563,3.859,3.859,0,0,0-1.6,1.625A5.413,5.413,0,0,0,71.3,66.1V73H69.525V59.875h1.7v3.6L70.95,62.8a4.776,4.776,0,0,1,2-2.237A6.323,6.323,0,0,1,76.225,59.75ZM91.65,73.125a6.655,6.655,0,0,1-3.362-.85,6.123,6.123,0,0,1-2.338-2.363,7.605,7.605,0,0,1,0-6.987,6.059,6.059,0,0,1,2.338-2.337,6.734,6.734,0,0,1,3.362-.838,6.133,6.133,0,0,1,3.088.775,5.641,5.641,0,0,1,2.175,2.262,7.5,7.5,0,0,1,.813,3.638,7.612,7.612,0,0,1-.8,3.625,5.626,5.626,0,0,1-2.162,2.287A6.106,6.106,0,0,1,91.65,73.125Zm.125-1.575a4.962,4.962,0,0,0,2.513-.638,4.548,4.548,0,0,0,1.75-1.8,6.01,6.01,0,0,0,0-5.388,4.57,4.57,0,0,0-1.75-1.787,4.962,4.962,0,0,0-2.513-.638,4.845,4.845,0,0,0-2.475.638,4.685,4.685,0,0,0-1.75,1.787,5.907,5.907,0,0,0,0,5.388,4.662,4.662,0,0,0,1.75,1.8A4.845,4.845,0,0,0,91.775,71.55ZM96.725,73V69.05L96.9,66.4l-.25-2.65v-9.3h1.775V73Zm12,.125a6.765,6.765,0,0,1-3.413-.863,6.342,6.342,0,0,1-2.387-2.375,7.313,7.313,0,0,1,0-6.937A6.3,6.3,0,0,1,105.3,60.6a6.825,6.825,0,0,1,3.425-.85,6.945,6.945,0,0,1,3.462.85,6.187,6.187,0,0,1,2.375,2.35,7.406,7.406,0,0,1,0,6.937,6.226,6.226,0,0,1-2.387,2.375A6.884,6.884,0,0,1,108.725,73.125Zm0-1.575a4.943,4.943,0,0,0,2.525-.638,4.574,4.574,0,0,0,1.738-1.8,6.01,6.01,0,0,0,0-5.388,4.6,4.6,0,0,0-1.738-1.787,5.221,5.221,0,0,0-5,0,4.685,4.685,0,0,0-1.75,1.787,5.907,5.907,0,0,0,0,5.388,4.662,4.662,0,0,0,1.75,1.8A4.845,4.845,0,0,0,108.725,71.55Z" transform="translate(11143 -19330.25)" fill="#004f81"/>
    <path id="Caminho_12038" data-name="Caminho 12038" d="M39.92,39,51.2,13.48l1.68,2.8H37.8l2.88-3.04v7.6H34.92V11H57.36v4.2L46.96,39Zm31.52.48a11.38,11.38,0,0,1-6.16-1.7A11.557,11.557,0,0,1,61,32.84,17.948,17.948,0,0,1,59.44,25,17.948,17.948,0,0,1,61,17.16a11.557,11.557,0,0,1,4.28-4.94,12.047,12.047,0,0,1,12.34,0,11.605,11.605,0,0,1,4.26,4.94A17.948,17.948,0,0,1,83.44,25a17.948,17.948,0,0,1-1.56,7.84,11.605,11.605,0,0,1-4.26,4.94A11.352,11.352,0,0,1,71.44,39.48Zm0-5.48a4.617,4.617,0,0,0,2.86-.92,6.025,6.025,0,0,0,1.92-2.92,15.9,15.9,0,0,0,.7-5.16,15.9,15.9,0,0,0-.7-5.16,6.025,6.025,0,0,0-1.92-2.92A4.617,4.617,0,0,0,71.44,16a4.556,4.556,0,0,0-2.82.92,6.025,6.025,0,0,0-1.92,2.92A15.9,15.9,0,0,0,66,25a15.9,15.9,0,0,0,.7,5.16,6.025,6.025,0,0,0,1.92,2.92A4.556,4.556,0,0,0,71.44,34Zm19.2,5,19.12-28h4.76L95.4,39Zm2.44-12.88a6.838,6.838,0,0,1-3.6-.94,6.568,6.568,0,0,1-2.46-2.68,8.812,8.812,0,0,1-.9-4.1,8.689,8.689,0,0,1,.9-4.08,6.977,6.977,0,0,1,9.66-2.68,6.6,6.6,0,0,1,2.44,2.68A8.854,8.854,0,0,1,100,18.4a8.978,8.978,0,0,1-.88,4.1,6.435,6.435,0,0,1-2.44,2.68A6.838,6.838,0,0,1,93.08,26.12Zm0-3.28a2.5,2.5,0,0,0,2.12-1.1A5.685,5.685,0,0,0,96,18.4a5.685,5.685,0,0,0-.8-3.34,2.574,2.574,0,0,0-4.22,0,5.578,5.578,0,0,0-.82,3.34,5.592,5.592,0,0,0,.82,3.32A2.5,2.5,0,0,0,93.08,22.84Zm19,16.48a6.867,6.867,0,0,1-3.58-.94,6.393,6.393,0,0,1-2.46-2.68,8.978,8.978,0,0,1-.88-4.1,8.854,8.854,0,0,1,.88-4.08,6.554,6.554,0,0,1,2.46-2.68,7.267,7.267,0,0,1,7.22,0,6.6,6.6,0,0,1,2.44,2.68,8.854,8.854,0,0,1,.88,4.08,8.978,8.978,0,0,1-.88,4.1,6.435,6.435,0,0,1-2.44,2.68A6.915,6.915,0,0,1,112.08,39.32Zm0-3.28a2.5,2.5,0,0,0,2.12-1.1,5.685,5.685,0,0,0,.8-3.34,5.7,5.7,0,0,0-.8-3.32,2.485,2.485,0,0,0-2.12-1.12,2.513,2.513,0,0,0-2.1,1.1,5.578,5.578,0,0,0-.82,3.34,5.578,5.578,0,0,0,.82,3.34A2.513,2.513,0,0,0,112.08,36.04ZM11.425,73V55.5H18.55a10.393,10.393,0,0,1,4.913,1.112A8.163,8.163,0,0,1,26.75,59.7a9.4,9.4,0,0,1,0,9.1,8.163,8.163,0,0,1-3.288,3.087A10.393,10.393,0,0,1,18.55,73Zm1.85-1.6H18.45a8.467,8.467,0,0,0,4.038-.912,6.648,6.648,0,0,0,2.663-2.525,7.753,7.753,0,0,0,0-7.437,6.675,6.675,0,0,0-2.663-2.513A8.467,8.467,0,0,0,18.45,57.1H13.275ZM31.7,73V59.875h1.775V73Zm.9-16.025a1.257,1.257,0,0,1-.925-.375,1.227,1.227,0,0,1-.375-.9,1.187,1.187,0,0,1,.375-.887,1.28,1.28,0,0,1,.925-.363,1.3,1.3,0,0,1,.925.35,1.147,1.147,0,0,1,.375.875,1.28,1.28,0,0,1-.362.925A1.246,1.246,0,0,1,32.6,56.975Zm9.35,16.15a10.06,10.06,0,0,1-3.075-.463A6.593,6.593,0,0,1,36.6,71.5l.8-1.4a7.586,7.586,0,0,0,2.05,1.037,7.888,7.888,0,0,0,2.625.438,4.766,4.766,0,0,0,2.7-.587,1.828,1.828,0,0,0,.825-1.562,1.446,1.446,0,0,0-.463-1.138,3.034,3.034,0,0,0-1.213-.625A14.949,14.949,0,0,0,42.25,67.3q-.925-.15-1.837-.35a6.756,6.756,0,0,1-1.663-.587A3.254,3.254,0,0,1,37.537,65.3a3.132,3.132,0,0,1-.463-1.8,3.257,3.257,0,0,1,.6-1.925,3.961,3.961,0,0,1,1.763-1.338,7.339,7.339,0,0,1,2.838-.487,9.929,9.929,0,0,1,2.55.338,7.016,7.016,0,0,1,2.1.887L46.15,62.4a5.979,5.979,0,0,0-1.875-.863,7.849,7.849,0,0,0-2-.262,4.456,4.456,0,0,0-2.612.612,1.862,1.862,0,0,0-.838,1.563,1.516,1.516,0,0,0,.463,1.175,3.179,3.179,0,0,0,1.225.662,12.411,12.411,0,0,0,1.675.388q.913.15,1.825.362a8.247,8.247,0,0,1,1.675.575,3.071,3.071,0,0,1,1.225,1.025,2.975,2.975,0,0,1,.462,1.738,3.187,3.187,0,0,1-.638,1.988,4.078,4.078,0,0,1-1.85,1.3A8.264,8.264,0,0,1,41.95,73.125Zm14.125,0a7,7,0,0,1-3.487-.863,6.291,6.291,0,0,1-2.412-2.375,7.313,7.313,0,0,1,0-6.937,6.228,6.228,0,0,1,2.412-2.35,7.086,7.086,0,0,1,3.487-.85,6.884,6.884,0,0,1,3.025.65,4.9,4.9,0,0,1,2.125,1.95l-1.325.9a4.165,4.165,0,0,0-1.675-1.475,5.272,5.272,0,0,0-4.7.162,4.632,4.632,0,0,0-1.775,1.787,5.933,5.933,0,0,0,0,5.4,4.632,4.632,0,0,0,1.775,1.787,5.272,5.272,0,0,0,4.7.162,4.227,4.227,0,0,0,1.675-1.45l1.325.9A5.027,5.027,0,0,1,59.1,72.463,6.774,6.774,0,0,1,56.075,73.125Zm14.05,0A6.464,6.464,0,0,1,67.2,72.5a4.43,4.43,0,0,1-1.937-1.875,6.422,6.422,0,0,1-.687-3.125V59.875H66.35V67.3a4.356,4.356,0,0,0,1.037,3.162A3.884,3.884,0,0,0,70.3,71.525a4.839,4.839,0,0,0,2.387-.562,3.732,3.732,0,0,0,1.55-1.638,5.7,5.7,0,0,0,.537-2.575V59.875H76.55V73h-1.7V69.4l.275.65a4.852,4.852,0,0,1-1.937,2.262A5.7,5.7,0,0,1,70.125,73.125Zm15.525,0A3.483,3.483,0,0,1,81.8,69.3V56.975h1.775V69.2a2.493,2.493,0,0,0,.587,1.775,2.2,2.2,0,0,0,1.688.625,2.862,2.862,0,0,0,1.95-.675l.625,1.275a3.278,3.278,0,0,1-1.262.7A5.155,5.155,0,0,1,85.65,73.125ZM79.45,61.35V59.875h8.125V61.35ZM91.65,73V59.875h1.775V73Zm.9-16.025a1.257,1.257,0,0,1-.925-.375,1.227,1.227,0,0,1-.375-.9,1.187,1.187,0,0,1,.375-.887,1.28,1.28,0,0,1,.925-.363,1.3,1.3,0,0,1,.925.35,1.147,1.147,0,0,1,.375.875,1.279,1.279,0,0,1-.363.925A1.246,1.246,0,0,1,92.55,56.975Zm12.525,2.775a6.158,6.158,0,0,1,2.813.612,4.4,4.4,0,0,1,1.9,1.862,6.48,6.48,0,0,1,.687,3.15V73H108.7V65.55a4.318,4.318,0,0,0-1.037-3.138,3.884,3.884,0,0,0-2.913-1.062,5.039,5.039,0,0,0-2.437.563,3.859,3.859,0,0,0-1.6,1.625,5.413,5.413,0,0,0-.562,2.563V73H98.375V59.875h1.7v3.6L99.8,62.8a4.776,4.776,0,0,1,2-2.237A6.323,6.323,0,0,1,105.075,59.75ZM120.5,73.125a6.655,6.655,0,0,1-3.362-.85,6.123,6.123,0,0,1-2.338-2.363,7.605,7.605,0,0,1,0-6.987,6.059,6.059,0,0,1,2.338-2.337,6.734,6.734,0,0,1,3.362-.838,6.133,6.133,0,0,1,3.088.775,5.641,5.641,0,0,1,2.175,2.262,7.5,7.5,0,0,1,.813,3.638,7.612,7.612,0,0,1-.8,3.625,5.626,5.626,0,0,1-2.162,2.287A6.106,6.106,0,0,1,120.5,73.125Zm.125-1.575a4.962,4.962,0,0,0,2.513-.638,4.548,4.548,0,0,0,1.75-1.8,6.01,6.01,0,0,0,0-5.388,4.57,4.57,0,0,0-1.75-1.787,4.962,4.962,0,0,0-2.513-.638,4.845,4.845,0,0,0-2.475.638,4.685,4.685,0,0,0-1.75,1.787,5.907,5.907,0,0,0,0,5.388,4.662,4.662,0,0,0,1.75,1.8A4.845,4.845,0,0,0,120.625,71.55Zm4.95,1.45V69.05l.175-2.65-.25-2.65v-9.3h1.775V73Zm12,.125a6.765,6.765,0,0,1-3.412-.863,6.342,6.342,0,0,1-2.388-2.375,7.313,7.313,0,0,1,0-6.937,6.3,6.3,0,0,1,2.375-2.35,6.825,6.825,0,0,1,3.425-.85,6.945,6.945,0,0,1,3.463.85,6.187,6.187,0,0,1,2.375,2.35,7.407,7.407,0,0,1,0,6.937,6.226,6.226,0,0,1-2.388,2.375A6.884,6.884,0,0,1,137.575,73.125Zm0-1.575a4.943,4.943,0,0,0,2.525-.638,4.574,4.574,0,0,0,1.737-1.8,6.01,6.01,0,0,0,0-5.388,4.6,4.6,0,0,0-1.737-1.787,5.221,5.221,0,0,0-5,0,4.685,4.685,0,0,0-1.75,1.787,5.907,5.907,0,0,0,0,5.388,4.662,4.662,0,0,0,1.75,1.8A4.845,4.845,0,0,0,137.575,71.55ZM13.525,103.125a7,7,0,0,1-3.488-.863,6.291,6.291,0,0,1-2.412-2.375,7.313,7.313,0,0,1,0-6.937,6.228,6.228,0,0,1,2.412-2.35,7.086,7.086,0,0,1,3.488-.85,6.884,6.884,0,0,1,3.025.65,4.9,4.9,0,0,1,2.125,1.95l-1.325.9a4.165,4.165,0,0,0-1.675-1.475,5.272,5.272,0,0,0-4.7.162A4.632,4.632,0,0,0,9.2,93.725a5.933,5.933,0,0,0,0,5.4,4.632,4.632,0,0,0,1.775,1.787,5.272,5.272,0,0,0,4.7.162,4.227,4.227,0,0,0,1.675-1.45l1.325.9a5.027,5.027,0,0,1-2.125,1.938A6.775,6.775,0,0,1,13.525,103.125Zm13.75,0a6.765,6.765,0,0,1-3.413-.863,6.342,6.342,0,0,1-2.388-2.375,7.313,7.313,0,0,1,0-6.937A6.3,6.3,0,0,1,23.85,90.6a6.825,6.825,0,0,1,3.425-.85,6.945,6.945,0,0,1,3.462.85,6.187,6.187,0,0,1,2.375,2.35,7.406,7.406,0,0,1,0,6.938,6.226,6.226,0,0,1-2.388,2.375A6.884,6.884,0,0,1,27.275,103.125Zm0-1.575a4.943,4.943,0,0,0,2.525-.638,4.574,4.574,0,0,0,1.737-1.8,6.01,6.01,0,0,0,0-5.388A4.6,4.6,0,0,0,29.8,91.938a5.221,5.221,0,0,0-5,0,4.685,4.685,0,0,0-1.75,1.787,5.907,5.907,0,0,0,0,5.388,4.662,4.662,0,0,0,1.75,1.8A4.845,4.845,0,0,0,27.275,101.55ZM54,89.75a6,6,0,0,1,2.787.613,4.3,4.3,0,0,1,1.85,1.862,6.683,6.683,0,0,1,.663,3.15V103H57.525V95.55a4.456,4.456,0,0,0-.988-3.138A3.618,3.618,0,0,0,53.75,91.35a4.645,4.645,0,0,0-2.338.563,3.788,3.788,0,0,0-1.525,1.625A5.623,5.623,0,0,0,49.35,96.1V103H47.575V95.55a4.42,4.42,0,0,0-1-3.138,3.658,3.658,0,0,0-2.8-1.062,4.663,4.663,0,0,0-2.325.563,3.767,3.767,0,0,0-1.538,1.625,5.623,5.623,0,0,0-.537,2.563V103H37.6V89.875h1.7v3.55l-.275-.625a4.69,4.69,0,0,1,1.938-2.238,5.973,5.973,0,0,1,3.162-.812,5.494,5.494,0,0,1,3.275.963A4.5,4.5,0,0,1,49.15,93.6l-.7-.275a5.173,5.173,0,0,1,2.038-2.587A6.128,6.128,0,0,1,54,89.75Zm22.025,13.375a6.765,6.765,0,0,1-3.412-.863,6.342,6.342,0,0,1-2.387-2.375,7.313,7.313,0,0,1,0-6.937A6.3,6.3,0,0,1,72.6,90.6a6.825,6.825,0,0,1,3.425-.85,6.945,6.945,0,0,1,3.463.85,6.187,6.187,0,0,1,2.375,2.35,7.406,7.406,0,0,1,0,6.938,6.226,6.226,0,0,1-2.387,2.375A6.884,6.884,0,0,1,76.025,103.125Zm0-1.575a4.943,4.943,0,0,0,2.525-.638,4.574,4.574,0,0,0,1.738-1.8,6.01,6.01,0,0,0,0-5.388,4.6,4.6,0,0,0-1.738-1.787,5.221,5.221,0,0,0-5,0,4.685,4.685,0,0,0-1.75,1.787,5.907,5.907,0,0,0,0,5.388,4.662,4.662,0,0,0,1.75,1.8A4.845,4.845,0,0,0,76.025,101.55Zm15.75,1.575a6.464,6.464,0,0,1-2.925-.625,4.43,4.43,0,0,1-1.937-1.875,6.422,6.422,0,0,1-.687-3.125V89.875H88V97.3a4.356,4.356,0,0,0,1.037,3.162,3.884,3.884,0,0,0,2.912,1.063,4.839,4.839,0,0,0,2.388-.562,3.732,3.732,0,0,0,1.55-1.638,5.7,5.7,0,0,0,.538-2.575V89.875H98.2V103H96.5V99.4l.275.65a4.852,4.852,0,0,1-1.937,2.262A5.7,5.7,0,0,1,91.775,103.125Zm15.525,0a3.483,3.483,0,0,1-3.85-3.825V86.975h1.775V99.2a2.493,2.493,0,0,0,.587,1.775,2.2,2.2,0,0,0,1.688.625,2.862,2.862,0,0,0,1.95-.675l.625,1.275a3.278,3.278,0,0,1-1.263.7A5.155,5.155,0,0,1,107.3,103.125ZM101.1,91.35V89.875h8.125V91.35ZM113.3,103V89.875H115V93.45l-.175-.625a4.325,4.325,0,0,1,1.85-2.287,6.124,6.124,0,0,1,3.225-.787v1.725a1.611,1.611,0,0,1-.2-.012,1.61,1.61,0,0,0-.2-.013,4.222,4.222,0,0,0-3.25,1.263,5.071,5.071,0,0,0-1.175,3.588V103Zm15.05.125a6.765,6.765,0,0,1-3.413-.863,6.342,6.342,0,0,1-2.387-2.375,7.313,7.313,0,0,1,0-6.937,6.3,6.3,0,0,1,2.375-2.35,6.825,6.825,0,0,1,3.425-.85,6.945,6.945,0,0,1,3.462.85,6.187,6.187,0,0,1,2.375,2.35,7.406,7.406,0,0,1,0,6.938,6.226,6.226,0,0,1-2.387,2.375A6.884,6.884,0,0,1,128.35,103.125Zm0-1.575a4.943,4.943,0,0,0,2.525-.638,4.574,4.574,0,0,0,1.738-1.8,6.01,6.01,0,0,0,0-5.388,4.6,4.6,0,0,0-1.738-1.787,5.221,5.221,0,0,0-5,0,4.685,4.685,0,0,0-1.75,1.787,5.907,5.907,0,0,0,0,5.388,4.662,4.662,0,0,0,1.75,1.8A4.845,4.845,0,0,0,128.35,101.55Zm13.85,1.575a10.059,10.059,0,0,1-3.075-.463,6.594,6.594,0,0,1-2.275-1.162l.8-1.4a7.586,7.586,0,0,0,2.05,1.037,7.888,7.888,0,0,0,2.625.438,4.766,4.766,0,0,0,2.7-.587,1.828,1.828,0,0,0,.825-1.562,1.446,1.446,0,0,0-.462-1.138,3.034,3.034,0,0,0-1.212-.625A14.949,14.949,0,0,0,142.5,97.3q-.925-.15-1.838-.35A6.756,6.756,0,0,1,139,96.363a3.254,3.254,0,0,1-1.213-1.062,3.132,3.132,0,0,1-.462-1.8,3.257,3.257,0,0,1,.6-1.925,3.961,3.961,0,0,1,1.762-1.337,7.339,7.339,0,0,1,2.837-.488,9.929,9.929,0,0,1,2.55.338,7.017,7.017,0,0,1,2.1.887L146.4,92.4a5.979,5.979,0,0,0-1.875-.863,7.849,7.849,0,0,0-2-.262,4.456,4.456,0,0,0-2.613.612,1.862,1.862,0,0,0-.837,1.563,1.516,1.516,0,0,0,.462,1.175,3.179,3.179,0,0,0,1.225.662,12.411,12.411,0,0,0,1.675.388q.912.15,1.825.362a8.246,8.246,0,0,1,1.675.575,3.071,3.071,0,0,1,1.225,1.025,2.975,2.975,0,0,1,.463,1.738,3.187,3.187,0,0,1-.637,1.988,4.078,4.078,0,0,1-1.85,1.3A8.264,8.264,0,0,1,142.2,103.125Z" transform="translate(11143 -19129)" fill="#004f81"/>
    <path id="Caminho_12039" data-name="Caminho 12039" d="M35.4,39V34.8L46.2,24.6a11.338,11.338,0,0,0,1.88-2.08,6.431,6.431,0,0,0,.82-1.68,5.064,5.064,0,0,0,.22-1.4,3.094,3.094,0,0,0-1.14-2.58,5.3,5.3,0,0,0-3.34-.9,7.8,7.8,0,0,0-3.26.68,6.339,6.339,0,0,0-2.54,2.12l-4.72-3.04a11.039,11.039,0,0,1,4.48-3.8,15.009,15.009,0,0,1,6.64-1.4,13.569,13.569,0,0,1,5.46,1.02,8.475,8.475,0,0,1,3.64,2.86,7.428,7.428,0,0,1,1.3,4.4,10.938,10.938,0,0,1-.34,2.7,8.913,8.913,0,0,1-1.36,2.82,21.518,21.518,0,0,1-2.98,3.32L42,36.08l-1.24-2.36h15.8V39Zm35.84.48a11.38,11.38,0,0,1-6.16-1.7,11.557,11.557,0,0,1-4.28-4.94A17.948,17.948,0,0,1,59.24,25a17.948,17.948,0,0,1,1.56-7.84,11.557,11.557,0,0,1,4.28-4.94,12.047,12.047,0,0,1,12.34,0,11.605,11.605,0,0,1,4.26,4.94A17.948,17.948,0,0,1,83.24,25a17.948,17.948,0,0,1-1.56,7.84,11.605,11.605,0,0,1-4.26,4.94A11.352,11.352,0,0,1,71.24,39.48Zm0-5.48a4.617,4.617,0,0,0,2.86-.92,6.025,6.025,0,0,0,1.92-2.92,15.9,15.9,0,0,0,.7-5.16,15.9,15.9,0,0,0-.7-5.16,6.025,6.025,0,0,0-1.92-2.92A4.617,4.617,0,0,0,71.24,16a4.556,4.556,0,0,0-2.82.92,6.025,6.025,0,0,0-1.92,2.92A15.9,15.9,0,0,0,65.8,25a15.9,15.9,0,0,0,.7,5.16,6.025,6.025,0,0,0,1.92,2.92A4.556,4.556,0,0,0,71.24,34Zm19.2,5,19.12-28h4.76L95.2,39Zm2.44-12.88a6.838,6.838,0,0,1-3.6-.94,6.568,6.568,0,0,1-2.46-2.68,8.812,8.812,0,0,1-.9-4.1,8.689,8.689,0,0,1,.9-4.08,6.977,6.977,0,0,1,9.66-2.68,6.6,6.6,0,0,1,2.44,2.68,8.854,8.854,0,0,1,.88,4.08,8.978,8.978,0,0,1-.88,4.1,6.435,6.435,0,0,1-2.44,2.68A6.838,6.838,0,0,1,92.88,26.12Zm0-3.28A2.5,2.5,0,0,0,95,21.74a5.685,5.685,0,0,0,.8-3.34,5.685,5.685,0,0,0-.8-3.34,2.574,2.574,0,0,0-4.22,0,5.578,5.578,0,0,0-.82,3.34,5.592,5.592,0,0,0,.82,3.32A2.5,2.5,0,0,0,92.88,22.84Zm19,16.48a6.867,6.867,0,0,1-3.58-.94,6.393,6.393,0,0,1-2.46-2.68,8.978,8.978,0,0,1-.88-4.1,8.854,8.854,0,0,1,.88-4.08,6.554,6.554,0,0,1,2.46-2.68,7.267,7.267,0,0,1,7.22,0,6.6,6.6,0,0,1,2.44,2.68,8.854,8.854,0,0,1,.88,4.08,8.978,8.978,0,0,1-.88,4.1,6.435,6.435,0,0,1-2.44,2.68A6.915,6.915,0,0,1,111.88,39.32Zm0-3.28a2.5,2.5,0,0,0,2.12-1.1,5.685,5.685,0,0,0,.8-3.34,5.7,5.7,0,0,0-.8-3.32,2.485,2.485,0,0,0-2.12-1.12,2.513,2.513,0,0,0-2.1,1.1,5.578,5.578,0,0,0-.82,3.34,5.578,5.578,0,0,0,.82,3.34A2.513,2.513,0,0,0,111.88,36.04ZM33.713,73.15a9.934,9.934,0,0,1-3.662-.662,8.618,8.618,0,0,1-4.85-4.7,9.445,9.445,0,0,1,0-7.075,8.646,8.646,0,0,1,4.838-4.7,10.455,10.455,0,0,1,7.325,0,8.764,8.764,0,0,1,2.912,1.863A8.508,8.508,0,0,1,42.2,60.7a9.509,9.509,0,0,1,0,7.1,8.508,8.508,0,0,1-1.925,2.825,8.764,8.764,0,0,1-2.912,1.863A9.837,9.837,0,0,1,33.713,73.15Zm0-1.65a7.739,7.739,0,0,0,2.913-.537,6.873,6.873,0,0,0,2.325-1.525,7.1,7.1,0,0,0,1.537-2.3,7.855,7.855,0,0,0,0-5.775,7.1,7.1,0,0,0-1.537-2.3,6.873,6.873,0,0,0-2.325-1.525A7.739,7.739,0,0,0,33.713,57a7.836,7.836,0,0,0-2.925.537,6.845,6.845,0,0,0-2.338,1.525,7.373,7.373,0,0,0,0,10.375,6.845,6.845,0,0,0,2.338,1.525A7.836,7.836,0,0,0,33.713,71.5Zm18.375,1.625a6.464,6.464,0,0,1-2.925-.625,4.43,4.43,0,0,1-1.937-1.875,6.422,6.422,0,0,1-.687-3.125V59.875h1.775V67.3a4.356,4.356,0,0,0,1.037,3.162,3.884,3.884,0,0,0,2.913,1.063,4.839,4.839,0,0,0,2.388-.562,3.732,3.732,0,0,0,1.55-1.638,5.7,5.7,0,0,0,.538-2.575V59.875h1.775V73h-1.7V69.4l.275.65a4.852,4.852,0,0,1-1.937,2.262A5.7,5.7,0,0,1,52.088,73.125ZM66.838,73,61.013,59.875h1.85l5.35,12.175h-.875l5.425-12.175h1.75L68.663,73Zm10.175,0V59.875h1.775V73Zm.9-16.025a1.257,1.257,0,0,1-.925-.375,1.227,1.227,0,0,1-.375-.9,1.187,1.187,0,0,1,.375-.887,1.28,1.28,0,0,1,.925-.363,1.3,1.3,0,0,1,.925.35,1.147,1.147,0,0,1,.375.875,1.279,1.279,0,0,1-.363.925A1.246,1.246,0,0,1,77.913,56.975ZM90.438,59.75a6.158,6.158,0,0,1,2.813.612,4.4,4.4,0,0,1,1.9,1.862,6.48,6.48,0,0,1,.688,3.15V73H94.063V65.55a4.318,4.318,0,0,0-1.038-3.138,3.884,3.884,0,0,0-2.912-1.062,5.039,5.039,0,0,0-2.437.563,3.859,3.859,0,0,0-1.6,1.625,5.413,5.413,0,0,0-.562,2.563V73H83.737V59.875h1.7v3.6l-.275-.675a4.776,4.776,0,0,1,2-2.237A6.323,6.323,0,0,1,90.438,59.75Zm15.425,13.375a6.655,6.655,0,0,1-3.363-.85,6.123,6.123,0,0,1-2.338-2.363,7.605,7.605,0,0,1,0-6.987,6.059,6.059,0,0,1,2.338-2.337,6.734,6.734,0,0,1,3.363-.838,6.133,6.133,0,0,1,3.087.775,5.641,5.641,0,0,1,2.175,2.262,7.5,7.5,0,0,1,.813,3.638,7.612,7.612,0,0,1-.8,3.625,5.626,5.626,0,0,1-2.162,2.287A6.106,6.106,0,0,1,105.863,73.125Zm.125-1.575a4.962,4.962,0,0,0,2.512-.638,4.548,4.548,0,0,0,1.75-1.8,6.01,6.01,0,0,0,0-5.388,4.57,4.57,0,0,0-1.75-1.787,4.962,4.962,0,0,0-2.512-.638,4.845,4.845,0,0,0-2.475.638,4.685,4.685,0,0,0-1.75,1.787,5.907,5.907,0,0,0,0,5.388,4.662,4.662,0,0,0,1.75,1.8A4.845,4.845,0,0,0,105.988,71.55Zm4.95,1.45V69.05l.175-2.65-.25-2.65v-9.3h1.775V73Zm12,.125a6.765,6.765,0,0,1-3.413-.863,6.342,6.342,0,0,1-2.387-2.375,7.313,7.313,0,0,1,0-6.937,6.3,6.3,0,0,1,2.375-2.35,6.825,6.825,0,0,1,3.425-.85,6.945,6.945,0,0,1,3.462.85,6.187,6.187,0,0,1,2.375,2.35,7.406,7.406,0,0,1,0,6.937,6.226,6.226,0,0,1-2.387,2.375A6.884,6.884,0,0,1,122.938,73.125Zm0-1.575a4.943,4.943,0,0,0,2.525-.638,4.574,4.574,0,0,0,1.738-1.8,6.01,6.01,0,0,0,0-5.388,4.6,4.6,0,0,0-1.738-1.787,5.221,5.221,0,0,0-5,0,4.685,4.685,0,0,0-1.75,1.787,5.907,5.907,0,0,0,0,5.388,4.662,4.662,0,0,0,1.75,1.8A4.845,4.845,0,0,0,122.938,71.55Z" transform="translate(11341 -19330.25)" fill="#004f81"/>
    <path id="Caminho_12040" data-name="Caminho 12040" d="M45.84,39.48a16.463,16.463,0,0,1-6.16-1.06,9.474,9.474,0,0,1-4.12-3,7.273,7.273,0,0,1-1.48-4.54,6.841,6.841,0,0,1,1.46-4.42,8.947,8.947,0,0,1,4.1-2.76,18.488,18.488,0,0,1,6.2-.94,18.8,18.8,0,0,1,6.26.94,8.942,8.942,0,0,1,4.12,2.76,6.841,6.841,0,0,1,1.46,4.42,7.273,7.273,0,0,1-1.48,4.54,9.462,9.462,0,0,1-4.14,3A16.74,16.74,0,0,1,45.84,39.48Zm0-4.76a6.231,6.231,0,0,0,3.86-1.08,3.516,3.516,0,0,0,1.42-2.96,3.463,3.463,0,0,0-1.42-2.94,6.316,6.316,0,0,0-3.86-1.06,6.153,6.153,0,0,0-3.8,1.06,3.48,3.48,0,0,0-1.4,2.94,3.534,3.534,0,0,0,1.4,2.96A6.07,6.07,0,0,0,45.84,34.72Zm0-8.68a16.547,16.547,0,0,1-5.66-.88,8.221,8.221,0,0,1-3.76-2.58,6.36,6.36,0,0,1-1.34-4.06,6.812,6.812,0,0,1,1.36-4.26,8.748,8.748,0,0,1,3.8-2.76,14.937,14.937,0,0,1,5.6-.98,15.016,15.016,0,0,1,5.66.98,8.908,8.908,0,0,1,3.8,2.76,6.746,6.746,0,0,1,1.38,4.26,6.36,6.36,0,0,1-1.34,4.06,8.216,8.216,0,0,1-3.78,2.58A16.853,16.853,0,0,1,45.84,26.04Zm0-3.8a5.108,5.108,0,0,0,3.22-.92,3.021,3.021,0,0,0,1.18-2.52,3.066,3.066,0,0,0-1.22-2.6,5.143,5.143,0,0,0-3.18-.92,4.987,4.987,0,0,0-3.12.92,3.085,3.085,0,0,0-1.2,2.6,3.042,3.042,0,0,0,1.16,2.52A4.952,4.952,0,0,0,45.84,22.24Zm26.8,17.24a11.38,11.38,0,0,1-6.16-1.7,11.557,11.557,0,0,1-4.28-4.94A17.948,17.948,0,0,1,60.64,25a17.948,17.948,0,0,1,1.56-7.84,11.557,11.557,0,0,1,4.28-4.94,12.047,12.047,0,0,1,12.34,0,11.605,11.605,0,0,1,4.26,4.94A17.948,17.948,0,0,1,84.64,25a17.948,17.948,0,0,1-1.56,7.84,11.605,11.605,0,0,1-4.26,4.94A11.352,11.352,0,0,1,72.64,39.48Zm0-5.48a4.617,4.617,0,0,0,2.86-.92,6.025,6.025,0,0,0,1.92-2.92,15.9,15.9,0,0,0,.7-5.16,15.9,15.9,0,0,0-.7-5.16,6.025,6.025,0,0,0-1.92-2.92A4.617,4.617,0,0,0,72.64,16a4.556,4.556,0,0,0-2.82.92,6.025,6.025,0,0,0-1.92,2.92A15.9,15.9,0,0,0,67.2,25a15.9,15.9,0,0,0,.7,5.16,6.025,6.025,0,0,0,1.92,2.92A4.556,4.556,0,0,0,72.64,34Zm19.2,5,19.12-28h4.76L96.6,39Zm2.44-12.88a6.838,6.838,0,0,1-3.6-.94,6.568,6.568,0,0,1-2.46-2.68,8.812,8.812,0,0,1-.9-4.1,8.689,8.689,0,0,1,.9-4.08,6.977,6.977,0,0,1,9.66-2.68,6.6,6.6,0,0,1,2.44,2.68,8.854,8.854,0,0,1,.88,4.08,8.978,8.978,0,0,1-.88,4.1,6.435,6.435,0,0,1-2.44,2.68A6.838,6.838,0,0,1,94.28,26.12Zm0-3.28a2.5,2.5,0,0,0,2.12-1.1,5.685,5.685,0,0,0,.8-3.34,5.685,5.685,0,0,0-.8-3.34,2.574,2.574,0,0,0-4.22,0,5.578,5.578,0,0,0-.82,3.34,5.592,5.592,0,0,0,.82,3.32A2.5,2.5,0,0,0,94.28,22.84Zm19,16.48a6.867,6.867,0,0,1-3.58-.94,6.393,6.393,0,0,1-2.46-2.68,8.978,8.978,0,0,1-.88-4.1,8.854,8.854,0,0,1,.88-4.08,6.554,6.554,0,0,1,2.46-2.68,7.267,7.267,0,0,1,7.22,0,6.6,6.6,0,0,1,2.44,2.68,8.854,8.854,0,0,1,.88,4.08,8.978,8.978,0,0,1-.88,4.1,6.435,6.435,0,0,1-2.44,2.68A6.915,6.915,0,0,1,113.28,39.32Zm0-3.28a2.5,2.5,0,0,0,2.12-1.1,5.685,5.685,0,0,0,.8-3.34,5.7,5.7,0,0,0-.8-3.32,2.485,2.485,0,0,0-2.12-1.12,2.513,2.513,0,0,0-2.1,1.1,5.578,5.578,0,0,0-.82,3.34,5.578,5.578,0,0,0,.82,3.34A2.513,2.513,0,0,0,113.28,36.04ZM27.887,63.975h9.25v1.6h-9.25Zm.2,9.025h-1.85V55.5h12v1.6H28.087Zm21.3,0V70.1l-.075-.475v-4.85a3.4,3.4,0,0,0-.937-2.575,3.88,3.88,0,0,0-2.787-.9,6.939,6.939,0,0,0-2.425.425,6.178,6.178,0,0,0-1.95,1.125l-.8-1.325a7.094,7.094,0,0,1,2.4-1.312,9.343,9.343,0,0,1,2.95-.463A5.646,5.646,0,0,1,49.7,61.013a4.936,4.936,0,0,1,1.388,3.837V73Zm-4.525.125a6.221,6.221,0,0,1-2.562-.488,3.805,3.805,0,0,1-1.662-1.35,3.5,3.5,0,0,1-.575-1.987,3.634,3.634,0,0,1,.487-1.863,3.432,3.432,0,0,1,1.6-1.35,7.239,7.239,0,0,1,2.987-.513h4.525V66.9H45.187a3.937,3.937,0,0,0-2.638.675,2.28,2.28,0,0,0,.138,3.475,3.929,3.929,0,0,0,2.45.675,4.741,4.741,0,0,0,2.588-.687,3.949,3.949,0,0,0,1.587-1.987l.4,1.225a4.17,4.17,0,0,1-1.737,2.075A5.766,5.766,0,0,1,44.862,73.125ZM54.487,73V71.825l8.75-11.075.375.6H54.637V59.875H65.012v1.15l-8.725,11.1-.45-.6h9.35V73Zm19.55.125a7.282,7.282,0,0,1-3.6-.863,6.267,6.267,0,0,1-2.425-2.375,6.788,6.788,0,0,1-.875-3.462,6.957,6.957,0,0,1,.838-3.45,6.2,6.2,0,0,1,2.3-2.362,6.783,6.783,0,0,1,6.575-.025,5.964,5.964,0,0,1,2.262,2.35,7.167,7.167,0,0,1,.825,3.488q0,.125-.013.262t-.012.287H68.487V65.65H78.962l-.7.525a5.174,5.174,0,0,0-.613-2.538A4.508,4.508,0,0,0,75.987,61.9a4.65,4.65,0,0,0-2.425-.625,4.735,4.735,0,0,0-2.425.625,4.345,4.345,0,0,0-1.675,1.75,5.387,5.387,0,0,0-.6,2.575V66.5a5.145,5.145,0,0,0,.662,2.637,4.628,4.628,0,0,0,1.85,1.775,5.645,5.645,0,0,0,2.713.638,5.845,5.845,0,0,0,2.238-.425,4.649,4.649,0,0,0,1.787-1.3l1,1.15a5.631,5.631,0,0,1-2.187,1.6A7.4,7.4,0,0,1,74.037,73.125ZM90.262,59.75a6.158,6.158,0,0,1,2.813.612,4.4,4.4,0,0,1,1.9,1.862,6.48,6.48,0,0,1,.688,3.15V73H93.887V65.55a4.318,4.318,0,0,0-1.038-3.138,3.884,3.884,0,0,0-2.912-1.062,5.039,5.039,0,0,0-2.437.563,3.859,3.859,0,0,0-1.6,1.625,5.413,5.413,0,0,0-.562,2.563V73H83.562V59.875h1.7v3.6l-.275-.675a4.776,4.776,0,0,1,2-2.237A6.323,6.323,0,0,1,90.262,59.75Zm15.425,13.375a6.655,6.655,0,0,1-3.363-.85,6.123,6.123,0,0,1-2.338-2.363,7.605,7.605,0,0,1,0-6.987,6.059,6.059,0,0,1,2.338-2.337,6.734,6.734,0,0,1,3.363-.838,6.133,6.133,0,0,1,3.087.775,5.641,5.641,0,0,1,2.175,2.262,7.5,7.5,0,0,1,.813,3.638,7.612,7.612,0,0,1-.8,3.625,5.626,5.626,0,0,1-2.162,2.287A6.106,6.106,0,0,1,105.688,73.125Zm.125-1.575a4.962,4.962,0,0,0,2.512-.638,4.548,4.548,0,0,0,1.75-1.8,6.01,6.01,0,0,0,0-5.388,4.57,4.57,0,0,0-1.75-1.787,4.962,4.962,0,0,0-2.512-.638,4.845,4.845,0,0,0-2.475.638,4.685,4.685,0,0,0-1.75,1.787,5.907,5.907,0,0,0,0,5.388,4.662,4.662,0,0,0,1.75,1.8A4.845,4.845,0,0,0,105.813,71.55Zm4.95,1.45V69.05l.175-2.65-.25-2.65v-9.3h1.775V73Zm12,.125a6.765,6.765,0,0,1-3.412-.863,6.342,6.342,0,0,1-2.387-2.375,7.313,7.313,0,0,1,0-6.937,6.3,6.3,0,0,1,2.375-2.35,6.825,6.825,0,0,1,3.425-.85,6.945,6.945,0,0,1,3.463.85,6.187,6.187,0,0,1,2.375,2.35,7.407,7.407,0,0,1,0,6.937,6.226,6.226,0,0,1-2.388,2.375A6.884,6.884,0,0,1,122.762,73.125Zm0-1.575a4.943,4.943,0,0,0,2.525-.638,4.574,4.574,0,0,0,1.738-1.8,6.01,6.01,0,0,0,0-5.388,4.6,4.6,0,0,0-1.738-1.787,5.221,5.221,0,0,0-5,0,4.685,4.685,0,0,0-1.75,1.787,5.907,5.907,0,0,0,0,5.388,4.662,4.662,0,0,0,1.75,1.8A4.845,4.845,0,0,0,122.762,71.55Z" transform="translate(11341 -19129)" fill="#004f81"/>
    <path id="Caminho_12041" data-name="Caminho 12041" d="M44.68,39.48a22.1,22.1,0,0,1-5.8-.78A14.975,14.975,0,0,1,34,36.48l2.52-4.96a13.1,13.1,0,0,0,3.72,1.84,13.937,13.937,0,0,0,4.28.68,6.706,6.706,0,0,0,3.84-.96,3.033,3.033,0,0,0,1.4-2.64,2.968,2.968,0,0,0-1.24-2.52,6.806,6.806,0,0,0-4-.92H41.56V22.72l7.8-8.84.72,2.32H35.4V11H55v4.2l-7.76,8.84-3.28-1.88h1.88q5.16,0,7.8,2.32a7.574,7.574,0,0,1,2.64,5.96,8.424,8.424,0,0,1-1.24,4.42,8.945,8.945,0,0,1-3.8,3.34A14.662,14.662,0,0,1,44.68,39.48Zm26.6,0a11.38,11.38,0,0,1-6.16-1.7,11.557,11.557,0,0,1-4.28-4.94A17.948,17.948,0,0,1,59.28,25a17.948,17.948,0,0,1,1.56-7.84,11.557,11.557,0,0,1,4.28-4.94,12.047,12.047,0,0,1,12.34,0,11.605,11.605,0,0,1,4.26,4.94A17.948,17.948,0,0,1,83.28,25a17.948,17.948,0,0,1-1.56,7.84,11.605,11.605,0,0,1-4.26,4.94A11.352,11.352,0,0,1,71.28,39.48Zm0-5.48a4.617,4.617,0,0,0,2.86-.92,6.025,6.025,0,0,0,1.92-2.92,15.9,15.9,0,0,0,.7-5.16,15.9,15.9,0,0,0-.7-5.16,6.025,6.025,0,0,0-1.92-2.92A4.617,4.617,0,0,0,71.28,16a4.556,4.556,0,0,0-2.82.92,6.025,6.025,0,0,0-1.92,2.92,15.9,15.9,0,0,0-.7,5.16,15.9,15.9,0,0,0,.7,5.16,6.025,6.025,0,0,0,1.92,2.92A4.556,4.556,0,0,0,71.28,34Zm19.2,5L109.6,11h4.76L95.24,39Zm2.44-12.88a6.838,6.838,0,0,1-3.6-.94,6.568,6.568,0,0,1-2.46-2.68,8.812,8.812,0,0,1-.9-4.1,8.689,8.689,0,0,1,.9-4.08,6.977,6.977,0,0,1,9.66-2.68,6.6,6.6,0,0,1,2.44,2.68,8.854,8.854,0,0,1,.88,4.08,8.978,8.978,0,0,1-.88,4.1,6.435,6.435,0,0,1-2.44,2.68A6.838,6.838,0,0,1,92.92,26.12Zm0-3.28a2.5,2.5,0,0,0,2.12-1.1,5.685,5.685,0,0,0,.8-3.34,5.685,5.685,0,0,0-.8-3.34,2.574,2.574,0,0,0-4.22,0A5.578,5.578,0,0,0,90,18.4a5.592,5.592,0,0,0,.82,3.32A2.5,2.5,0,0,0,92.92,22.84Zm19,16.48a6.867,6.867,0,0,1-3.58-.94,6.393,6.393,0,0,1-2.46-2.68,8.978,8.978,0,0,1-.88-4.1,8.854,8.854,0,0,1,.88-4.08,6.554,6.554,0,0,1,2.46-2.68,7.267,7.267,0,0,1,7.22,0A6.6,6.6,0,0,1,118,27.52a8.854,8.854,0,0,1,.88,4.08,8.978,8.978,0,0,1-.88,4.1,6.435,6.435,0,0,1-2.44,2.68A6.915,6.915,0,0,1,111.92,39.32Zm0-3.28a2.5,2.5,0,0,0,2.12-1.1,5.685,5.685,0,0,0,.8-3.34,5.7,5.7,0,0,0-.8-3.32,2.485,2.485,0,0,0-2.12-1.12,2.513,2.513,0,0,0-2.1,1.1A5.578,5.578,0,0,0,109,31.6a5.578,5.578,0,0,0,.82,3.34A2.513,2.513,0,0,0,111.92,36.04ZM10.975,73.15a9.934,9.934,0,0,1-3.662-.662,8.618,8.618,0,0,1-4.85-4.7,9.445,9.445,0,0,1,0-7.075,8.646,8.646,0,0,1,4.837-4.7,9.907,9.907,0,0,1,3.675-.662,9.837,9.837,0,0,1,3.65.662,8.764,8.764,0,0,1,2.912,1.863A8.508,8.508,0,0,1,19.462,60.7a9.509,9.509,0,0,1,0,7.1,8.508,8.508,0,0,1-1.925,2.825,8.764,8.764,0,0,1-2.912,1.863A9.837,9.837,0,0,1,10.975,73.15Zm0-1.65a7.739,7.739,0,0,0,2.913-.537,6.873,6.873,0,0,0,2.325-1.525,7.1,7.1,0,0,0,1.538-2.3,7.855,7.855,0,0,0,0-5.775,7.1,7.1,0,0,0-1.538-2.3,6.873,6.873,0,0,0-2.325-1.525A7.739,7.739,0,0,0,10.975,57a7.836,7.836,0,0,0-2.925.537,6.845,6.845,0,0,0-2.338,1.525,7.373,7.373,0,0,0,0,10.375A6.845,6.845,0,0,0,8.05,70.963,7.836,7.836,0,0,0,10.975,71.5ZM30.7,73.125a6.125,6.125,0,0,1-3.1-.787,5.6,5.6,0,0,1-2.175-2.287,7.612,7.612,0,0,1-.8-3.625,7.5,7.5,0,0,1,.813-3.638,5.615,5.615,0,0,1,2.188-2.262A6.153,6.153,0,0,1,30.7,59.75a6.734,6.734,0,0,1,3.363.838A6.059,6.059,0,0,1,36.4,62.925a7.605,7.605,0,0,1,0,6.987,6.123,6.123,0,0,1-2.338,2.363A6.655,6.655,0,0,1,30.7,73.125ZM23.925,73V54.45H25.7v9.3l-.25,2.65.175,2.65V73Zm6.65-1.45a4.894,4.894,0,0,0,2.5-.638,4.662,4.662,0,0,0,1.75-1.8,5.907,5.907,0,0,0,0-5.388,4.685,4.685,0,0,0-1.75-1.787,4.894,4.894,0,0,0-2.5-.638,4.962,4.962,0,0,0-2.512.638,4.57,4.57,0,0,0-1.75,1.787,6.01,6.01,0,0,0,0,5.388,4.548,4.548,0,0,0,1.75,1.8A4.962,4.962,0,0,0,30.575,71.55ZM44.4,73.125a10.06,10.06,0,0,1-3.075-.463A6.593,6.593,0,0,1,39.05,71.5l.8-1.4a7.586,7.586,0,0,0,2.05,1.037,7.888,7.888,0,0,0,2.625.438,4.766,4.766,0,0,0,2.7-.587,1.828,1.828,0,0,0,.825-1.562,1.446,1.446,0,0,0-.463-1.138,3.034,3.034,0,0,0-1.213-.625A14.949,14.949,0,0,0,44.7,67.3q-.925-.15-1.837-.35a6.756,6.756,0,0,1-1.663-.587A3.254,3.254,0,0,1,39.987,65.3a3.132,3.132,0,0,1-.463-1.8,3.257,3.257,0,0,1,.6-1.925,3.961,3.961,0,0,1,1.763-1.338,7.339,7.339,0,0,1,2.838-.487,9.929,9.929,0,0,1,2.55.338,7.016,7.016,0,0,1,2.1.887L48.6,62.4a5.979,5.979,0,0,0-1.875-.863,7.849,7.849,0,0,0-2-.262,4.456,4.456,0,0,0-2.612.612,1.862,1.862,0,0,0-.838,1.563,1.516,1.516,0,0,0,.463,1.175,3.179,3.179,0,0,0,1.225.662,12.411,12.411,0,0,0,1.675.388q.913.15,1.825.362a8.247,8.247,0,0,1,1.675.575,3.071,3.071,0,0,1,1.225,1.025,2.975,2.975,0,0,1,.462,1.738,3.187,3.187,0,0,1-.638,1.988,4.078,4.078,0,0,1-1.85,1.3A8.264,8.264,0,0,1,44.4,73.125Zm14.25,0a7.282,7.282,0,0,1-3.6-.863,6.267,6.267,0,0,1-2.425-2.375,6.788,6.788,0,0,1-.875-3.462,6.957,6.957,0,0,1,.837-3.45,6.2,6.2,0,0,1,2.3-2.362,6.783,6.783,0,0,1,6.575-.025,5.964,5.964,0,0,1,2.263,2.35,7.167,7.167,0,0,1,.825,3.488q0,.125-.013.262t-.012.287H53.1V65.65H63.575l-.7.525a5.174,5.174,0,0,0-.612-2.538A4.508,4.508,0,0,0,60.6,61.9a4.65,4.65,0,0,0-2.425-.625,4.735,4.735,0,0,0-2.425.625,4.345,4.345,0,0,0-1.675,1.75,5.387,5.387,0,0,0-.6,2.575V66.5a5.145,5.145,0,0,0,.663,2.637,4.628,4.628,0,0,0,1.85,1.775,5.645,5.645,0,0,0,2.713.638,5.845,5.845,0,0,0,2.237-.425,4.649,4.649,0,0,0,1.787-1.3l1,1.15a5.631,5.631,0,0,1-2.187,1.6A7.4,7.4,0,0,1,58.65,73.125ZM68.175,73V59.875h1.7V63.45l-.175-.625a4.325,4.325,0,0,1,1.85-2.288,6.125,6.125,0,0,1,3.225-.787v1.725a1.611,1.611,0,0,1-.2-.012,1.611,1.611,0,0,0-.2-.013,4.222,4.222,0,0,0-3.25,1.263A5.071,5.071,0,0,0,69.95,66.3V73ZM81.95,73,76.125,59.875h1.85l5.35,12.175H82.45l5.425-12.175h1.75L83.775,73Zm18,0V70.1l-.075-.475v-4.85a3.4,3.4,0,0,0-.937-2.575,3.88,3.88,0,0,0-2.787-.9,6.939,6.939,0,0,0-2.425.425,6.178,6.178,0,0,0-1.95,1.125l-.8-1.325a7.094,7.094,0,0,1,2.4-1.312,9.343,9.343,0,0,1,2.95-.463,5.646,5.646,0,0,1,3.938,1.263,4.936,4.936,0,0,1,1.388,3.837V73Zm-4.525.125a6.221,6.221,0,0,1-2.562-.488,3.805,3.805,0,0,1-1.663-1.35,3.5,3.5,0,0,1-.575-1.987,3.634,3.634,0,0,1,.488-1.863,3.432,3.432,0,0,1,1.6-1.35,7.239,7.239,0,0,1,2.987-.513h4.525V66.9H95.75a3.937,3.937,0,0,0-2.637.675,2.28,2.28,0,0,0,.137,3.475,3.929,3.929,0,0,0,2.45.675,4.741,4.741,0,0,0,2.588-.687,3.949,3.949,0,0,0,1.588-1.987l.4,1.225a4.17,4.17,0,0,1-1.738,2.075A5.766,5.766,0,0,1,95.425,73.125Zm17.75-13.375a6.158,6.158,0,0,1,2.813.612,4.4,4.4,0,0,1,1.9,1.862,6.48,6.48,0,0,1,.688,3.15V73H116.8V65.55a4.318,4.318,0,0,0-1.038-3.138,3.884,3.884,0,0,0-2.912-1.062,5.039,5.039,0,0,0-2.437.563,3.859,3.859,0,0,0-1.6,1.625,5.413,5.413,0,0,0-.562,2.563V73h-1.775V59.875h1.7v3.6L107.9,62.8a4.776,4.776,0,0,1,2-2.237A6.323,6.323,0,0,1,113.175,59.75ZM128.6,73.125a6.655,6.655,0,0,1-3.363-.85,6.123,6.123,0,0,1-2.338-2.363,7.605,7.605,0,0,1,0-6.987,6.059,6.059,0,0,1,2.338-2.337,6.734,6.734,0,0,1,3.363-.838,6.133,6.133,0,0,1,3.087.775,5.641,5.641,0,0,1,2.175,2.262,7.5,7.5,0,0,1,.813,3.638,7.612,7.612,0,0,1-.8,3.625,5.626,5.626,0,0,1-2.162,2.287A6.106,6.106,0,0,1,128.6,73.125Zm.125-1.575a4.962,4.962,0,0,0,2.512-.638,4.548,4.548,0,0,0,1.75-1.8,6.01,6.01,0,0,0,0-5.388,4.57,4.57,0,0,0-1.75-1.787,4.962,4.962,0,0,0-2.512-.638,4.845,4.845,0,0,0-2.475.638,4.685,4.685,0,0,0-1.75,1.787,5.907,5.907,0,0,0,0,5.388,4.662,4.662,0,0,0,1.75,1.8A4.845,4.845,0,0,0,128.725,71.55Zm4.95,1.45V69.05l.175-2.65-.25-2.65v-9.3h1.775V73Zm12,.125a6.765,6.765,0,0,1-3.412-.863,6.342,6.342,0,0,1-2.388-2.375,7.313,7.313,0,0,1,0-6.937,6.3,6.3,0,0,1,2.375-2.35,6.825,6.825,0,0,1,3.425-.85,6.945,6.945,0,0,1,3.463.85,6.187,6.187,0,0,1,2.375,2.35,7.407,7.407,0,0,1,0,6.937,6.226,6.226,0,0,1-2.388,2.375A6.884,6.884,0,0,1,145.675,73.125Zm0-1.575a4.943,4.943,0,0,0,2.525-.638,4.574,4.574,0,0,0,1.737-1.8,6.01,6.01,0,0,0,0-5.388,4.6,4.6,0,0,0-1.737-1.787,5.221,5.221,0,0,0-5,0,4.685,4.685,0,0,0-1.75,1.787,5.907,5.907,0,0,0,0,5.388,4.662,4.662,0,0,0,1.75,1.8A4.845,4.845,0,0,0,145.675,71.55Z" transform="translate(11538 -19330.25)" fill="#004f81"/>
    <path id="Caminho_12042" data-name="Caminho 12042" d="M46.42,10.52a13.247,13.247,0,0,1,6.68,1.6,10.693,10.693,0,0,1,4.32,4.66,17.05,17.05,0,0,1,1.52,7.62,17.017,17.017,0,0,1-1.82,8.2,12.471,12.471,0,0,1-5.02,5.12,15.192,15.192,0,0,1-7.44,1.76A18.453,18.453,0,0,1,40.42,39a11.08,11.08,0,0,1-3.52-1.44l2.4-4.76a7.116,7.116,0,0,0,2.48,1.1,12.419,12.419,0,0,0,2.76.3A7.64,7.64,0,0,0,50.28,32q2.14-2.2,2.14-6.52,0-.72-.04-1.6a13.173,13.173,0,0,0-.2-1.76l1.76,1.68a7.152,7.152,0,0,1-1.92,2.62,8.444,8.444,0,0,1-2.88,1.6,11.73,11.73,0,0,1-3.68.54,10.8,10.8,0,0,1-4.86-1.08,8.753,8.753,0,0,1-3.48-3.04,8.128,8.128,0,0,1-1.3-4.6,8.582,8.582,0,0,1,1.42-4.96,9.382,9.382,0,0,1,3.84-3.22A12.373,12.373,0,0,1,46.42,10.52Zm.4,4.84a5.575,5.575,0,0,0-2.44.5,3.913,3.913,0,0,0-1.64,1.44,4.037,4.037,0,0,0-.6,2.22,3.865,3.865,0,0,0,1.3,3.06,5.059,5.059,0,0,0,3.46,1.14,5.6,5.6,0,0,0,2.5-.54,4.059,4.059,0,0,0,1.7-1.5,4.008,4.008,0,0,0-1.64-5.78A5.859,5.859,0,0,0,46.82,15.36ZM71.58,39.48a21.875,21.875,0,0,1-5.78-.78,15.488,15.488,0,0,1-4.9-2.22l2.56-4.96a13.157,13.157,0,0,0,3.7,1.84,13.749,13.749,0,0,0,4.26.68,6.706,6.706,0,0,0,3.84-.96,3.069,3.069,0,0,0,1.4-2.68,3.381,3.381,0,0,0-.56-1.92,3.525,3.525,0,0,0-1.98-1.28,14.061,14.061,0,0,0-3.98-.44H62.98L64.42,11H81.5v5.2H66.74l3.36-2.96-1,11.24-3.36-2.96h5.92a16.55,16.55,0,0,1,6.7,1.14,7.858,7.858,0,0,1,3.7,3.1,8.551,8.551,0,0,1,1.16,4.44,8.846,8.846,0,0,1-1.24,4.58,8.953,8.953,0,0,1-3.82,3.4A14.6,14.6,0,0,1,71.58,39.48ZM89.5,39l19.12-28h4.76L94.26,39Zm2.44-12.88a6.838,6.838,0,0,1-3.6-.94,6.568,6.568,0,0,1-2.46-2.68,8.812,8.812,0,0,1-.9-4.1,8.689,8.689,0,0,1,.9-4.08,6.977,6.977,0,0,1,9.66-2.68,6.6,6.6,0,0,1,2.44,2.68,8.854,8.854,0,0,1,.88,4.08,8.978,8.978,0,0,1-.88,4.1,6.435,6.435,0,0,1-2.44,2.68A6.838,6.838,0,0,1,91.94,26.12Zm0-3.28a2.5,2.5,0,0,0,2.12-1.1,5.685,5.685,0,0,0,.8-3.34,5.685,5.685,0,0,0-.8-3.34,2.574,2.574,0,0,0-4.22,0,5.578,5.578,0,0,0-.82,3.34,5.592,5.592,0,0,0,.82,3.32A2.5,2.5,0,0,0,91.94,22.84Zm19,16.48a6.867,6.867,0,0,1-3.58-.94,6.393,6.393,0,0,1-2.46-2.68,8.978,8.978,0,0,1-.88-4.1,8.854,8.854,0,0,1,.88-4.08,6.554,6.554,0,0,1,2.46-2.68,7.267,7.267,0,0,1,7.22,0,6.6,6.6,0,0,1,2.44,2.68,8.854,8.854,0,0,1,.88,4.08,8.978,8.978,0,0,1-.88,4.1,6.435,6.435,0,0,1-2.44,2.68A6.915,6.915,0,0,1,110.94,39.32Zm0-3.28a2.5,2.5,0,0,0,2.12-1.1,5.685,5.685,0,0,0,.8-3.34,5.7,5.7,0,0,0-.8-3.32,2.485,2.485,0,0,0-2.12-1.12,2.513,2.513,0,0,0-2.1,1.1,5.578,5.578,0,0,0-.82,3.34,5.578,5.578,0,0,0,.82,3.34A2.513,2.513,0,0,0,110.94,36.04Zm-96.3,27.285h9.25V64.9h-9.25Zm.2,8.075H25.362V73H12.987V55.5h12v1.6H14.837Zm21.2-11.65a6.158,6.158,0,0,1,2.813.612,4.4,4.4,0,0,1,1.9,1.862,6.48,6.48,0,0,1,.687,3.15V73H39.662V65.55a4.318,4.318,0,0,0-1.037-3.138,3.884,3.884,0,0,0-2.913-1.062,5.039,5.039,0,0,0-2.437.563,3.859,3.859,0,0,0-1.6,1.625,5.413,5.413,0,0,0-.562,2.563V73H29.337V59.875h1.7v3.6l-.275-.675a4.776,4.776,0,0,1,2-2.237A6.323,6.323,0,0,1,36.037,59.75ZM49.762,73.125a10.06,10.06,0,0,1-3.075-.463A6.593,6.593,0,0,1,44.412,71.5l.8-1.4a7.586,7.586,0,0,0,2.05,1.037,7.888,7.888,0,0,0,2.625.438,4.766,4.766,0,0,0,2.7-.587,1.828,1.828,0,0,0,.825-1.562,1.446,1.446,0,0,0-.463-1.138,3.034,3.034,0,0,0-1.213-.625,14.949,14.949,0,0,0-1.675-.362q-.925-.15-1.837-.35a6.756,6.756,0,0,1-1.663-.587A3.254,3.254,0,0,1,45.35,65.3a3.132,3.132,0,0,1-.463-1.8,3.257,3.257,0,0,1,.6-1.925,3.961,3.961,0,0,1,1.763-1.338,7.339,7.339,0,0,1,2.838-.487,9.929,9.929,0,0,1,2.55.338,7.016,7.016,0,0,1,2.1.887L53.962,62.4a5.979,5.979,0,0,0-1.875-.863,7.849,7.849,0,0,0-2-.262,4.456,4.456,0,0,0-2.612.612,1.862,1.862,0,0,0-.838,1.563,1.516,1.516,0,0,0,.463,1.175,3.179,3.179,0,0,0,1.225.662A12.411,12.411,0,0,0,50,65.675q.913.15,1.825.362a8.247,8.247,0,0,1,1.675.575,3.071,3.071,0,0,1,1.225,1.025,2.975,2.975,0,0,1,.462,1.738,3.187,3.187,0,0,1-.638,1.988,4.078,4.078,0,0,1-1.85,1.3A8.264,8.264,0,0,1,49.762,73.125ZM58.437,73V59.875h1.775V73Zm.9-16.025a1.257,1.257,0,0,1-.925-.375,1.227,1.227,0,0,1-.375-.9,1.187,1.187,0,0,1,.375-.887,1.28,1.28,0,0,1,.925-.363,1.3,1.3,0,0,1,.925.35,1.147,1.147,0,0,1,.375.875,1.28,1.28,0,0,1-.362.925A1.246,1.246,0,0,1,59.337,56.975ZM71.862,59.75a6.158,6.158,0,0,1,2.813.612,4.4,4.4,0,0,1,1.9,1.862,6.48,6.48,0,0,1,.688,3.15V73H75.487V65.55a4.318,4.318,0,0,0-1.037-3.138,3.884,3.884,0,0,0-2.912-1.062,5.039,5.039,0,0,0-2.437.563,3.859,3.859,0,0,0-1.6,1.625,5.413,5.413,0,0,0-.562,2.563V73H65.162V59.875h1.7v3.6l-.275-.675a4.776,4.776,0,0,1,2-2.237A6.323,6.323,0,0,1,71.862,59.75ZM90.287,73V70.1l-.075-.475v-4.85a3.4,3.4,0,0,0-.937-2.575,3.88,3.88,0,0,0-2.787-.9,6.939,6.939,0,0,0-2.425.425,6.178,6.178,0,0,0-1.95,1.125l-.8-1.325a7.094,7.094,0,0,1,2.4-1.312,9.343,9.343,0,0,1,2.95-.463A5.646,5.646,0,0,1,90.6,61.013a4.936,4.936,0,0,1,1.388,3.837V73Zm-4.525.125a6.221,6.221,0,0,1-2.562-.488,3.805,3.805,0,0,1-1.663-1.35,3.5,3.5,0,0,1-.575-1.987,3.634,3.634,0,0,1,.488-1.863,3.432,3.432,0,0,1,1.6-1.35,7.239,7.239,0,0,1,2.987-.513h4.525V66.9H86.087a3.937,3.937,0,0,0-2.637.675,2.28,2.28,0,0,0,.137,3.475,3.929,3.929,0,0,0,2.45.675,4.741,4.741,0,0,0,2.588-.687,3.949,3.949,0,0,0,1.588-1.987l.4,1.225a4.17,4.17,0,0,1-1.738,2.075A5.766,5.766,0,0,1,85.762,73.125Zm17.75-13.375a6.158,6.158,0,0,1,2.813.612,4.4,4.4,0,0,1,1.9,1.862,6.48,6.48,0,0,1,.688,3.15V73h-1.775V65.55a4.318,4.318,0,0,0-1.038-3.138,3.884,3.884,0,0,0-2.912-1.062,5.039,5.039,0,0,0-2.437.563,3.859,3.859,0,0,0-1.6,1.625,5.413,5.413,0,0,0-.562,2.563V73H96.812V59.875h1.7v3.6l-.275-.675a4.776,4.776,0,0,1,2-2.237A6.323,6.323,0,0,1,103.512,59.75Zm15.425,13.375a6.655,6.655,0,0,1-3.363-.85,6.123,6.123,0,0,1-2.338-2.363,7.605,7.605,0,0,1,0-6.987,6.059,6.059,0,0,1,2.338-2.337,6.734,6.734,0,0,1,3.363-.838,6.133,6.133,0,0,1,3.087.775,5.641,5.641,0,0,1,2.175,2.262,7.5,7.5,0,0,1,.813,3.638,7.612,7.612,0,0,1-.8,3.625,5.626,5.626,0,0,1-2.162,2.287A6.106,6.106,0,0,1,118.938,73.125Zm.125-1.575a4.962,4.962,0,0,0,2.512-.638,4.548,4.548,0,0,0,1.75-1.8,6.01,6.01,0,0,0,0-5.388,4.57,4.57,0,0,0-1.75-1.787,4.962,4.962,0,0,0-2.512-.638,4.845,4.845,0,0,0-2.475.638,4.685,4.685,0,0,0-1.75,1.787,5.907,5.907,0,0,0,0,5.388,4.662,4.662,0,0,0,1.75,1.8A4.845,4.845,0,0,0,119.063,71.55Zm4.95,1.45V69.05l.175-2.65-.25-2.65v-9.3h1.775V73Zm12,.125a6.765,6.765,0,0,1-3.412-.863,6.342,6.342,0,0,1-2.388-2.375,7.313,7.313,0,0,1,0-6.937,6.3,6.3,0,0,1,2.375-2.35,6.825,6.825,0,0,1,3.425-.85,6.945,6.945,0,0,1,3.463.85,6.187,6.187,0,0,1,2.375,2.35,7.407,7.407,0,0,1,0,6.937,6.226,6.226,0,0,1-2.388,2.375A6.884,6.884,0,0,1,136.012,73.125Zm0-1.575a4.943,4.943,0,0,0,2.525-.638,4.574,4.574,0,0,0,1.737-1.8,6.01,6.01,0,0,0,0-5.388,4.6,4.6,0,0,0-1.737-1.787,5.221,5.221,0,0,0-5,0,4.685,4.685,0,0,0-1.75,1.787,5.907,5.907,0,0,0,0,5.388,4.662,4.662,0,0,0,1.75,1.8A4.845,4.845,0,0,0,136.012,71.55Z" transform="translate(11538 -19129)" fill="#004f81"/>
    <path id="Caminho_12043" data-name="Caminho 12043" d="M45.06,39.48a21.875,21.875,0,0,1-5.78-.78,15.488,15.488,0,0,1-4.9-2.22l2.56-4.96a13.157,13.157,0,0,0,3.7,1.84,13.749,13.749,0,0,0,4.26.68,6.706,6.706,0,0,0,3.84-.96,3.069,3.069,0,0,0,1.4-2.68,3.381,3.381,0,0,0-.56-1.92A3.525,3.525,0,0,0,47.6,27.2a14.061,14.061,0,0,0-3.98-.44H36.46L37.9,11H54.98v5.2H40.22l3.36-2.96-1,11.24-3.36-2.96h5.92a16.55,16.55,0,0,1,6.7,1.14,7.858,7.858,0,0,1,3.7,3.1A8.551,8.551,0,0,1,56.7,30.2a8.846,8.846,0,0,1-1.24,4.58,8.953,8.953,0,0,1-3.82,3.4A14.6,14.6,0,0,1,45.06,39.48Zm26.28,0a11.38,11.38,0,0,1-6.16-1.7,11.557,11.557,0,0,1-4.28-4.94A17.948,17.948,0,0,1,59.34,25a17.948,17.948,0,0,1,1.56-7.84,11.557,11.557,0,0,1,4.28-4.94,12.047,12.047,0,0,1,12.34,0,11.605,11.605,0,0,1,4.26,4.94A17.948,17.948,0,0,1,83.34,25a17.948,17.948,0,0,1-1.56,7.84,11.605,11.605,0,0,1-4.26,4.94A11.352,11.352,0,0,1,71.34,39.48Zm0-5.48a4.617,4.617,0,0,0,2.86-.92,6.025,6.025,0,0,0,1.92-2.92,15.9,15.9,0,0,0,.7-5.16,15.9,15.9,0,0,0-.7-5.16,6.025,6.025,0,0,0-1.92-2.92A4.617,4.617,0,0,0,71.34,16a4.556,4.556,0,0,0-2.82.92,6.025,6.025,0,0,0-1.92,2.92A15.9,15.9,0,0,0,65.9,25a15.9,15.9,0,0,0,.7,5.16,6.025,6.025,0,0,0,1.92,2.92A4.556,4.556,0,0,0,71.34,34Zm19.2,5,19.12-28h4.76L95.3,39Zm2.44-12.88a6.838,6.838,0,0,1-3.6-.94,6.568,6.568,0,0,1-2.46-2.68,8.812,8.812,0,0,1-.9-4.1,8.689,8.689,0,0,1,.9-4.08,6.977,6.977,0,0,1,9.66-2.68,6.6,6.6,0,0,1,2.44,2.68,8.854,8.854,0,0,1,.88,4.08,8.978,8.978,0,0,1-.88,4.1,6.435,6.435,0,0,1-2.44,2.68A6.838,6.838,0,0,1,92.98,26.12Zm0-3.28a2.5,2.5,0,0,0,2.12-1.1,5.685,5.685,0,0,0,.8-3.34,5.685,5.685,0,0,0-.8-3.34,2.574,2.574,0,0,0-4.22,0,5.578,5.578,0,0,0-.82,3.34,5.592,5.592,0,0,0,.82,3.32A2.5,2.5,0,0,0,92.98,22.84Zm19,16.48a6.867,6.867,0,0,1-3.58-.94,6.393,6.393,0,0,1-2.46-2.68,8.978,8.978,0,0,1-.88-4.1,8.854,8.854,0,0,1,.88-4.08,6.554,6.554,0,0,1,2.46-2.68,7.267,7.267,0,0,1,7.22,0,6.6,6.6,0,0,1,2.44,2.68,8.854,8.854,0,0,1,.88,4.08,8.978,8.978,0,0,1-.88,4.1,6.435,6.435,0,0,1-2.44,2.68A6.915,6.915,0,0,1,111.98,39.32Zm0-3.28a2.5,2.5,0,0,0,2.12-1.1,5.685,5.685,0,0,0,.8-3.34,5.7,5.7,0,0,0-.8-3.32,2.485,2.485,0,0,0-2.12-1.12,2.513,2.513,0,0,0-2.1,1.1,5.578,5.578,0,0,0-.82,3.34,5.578,5.578,0,0,0,.82,3.34A2.513,2.513,0,0,0,111.98,36.04ZM33.65,73,25.9,55.5h2l7.25,16.475h-1.1L41.35,55.5h1.875L35.475,73Zm16.3.125a7.282,7.282,0,0,1-3.6-.863,6.267,6.267,0,0,1-2.425-2.375,6.788,6.788,0,0,1-.875-3.462,6.957,6.957,0,0,1,.837-3.45,6.2,6.2,0,0,1,2.3-2.362,6.783,6.783,0,0,1,6.575-.025,5.964,5.964,0,0,1,2.263,2.35,7.167,7.167,0,0,1,.825,3.488q0,.125-.013.262t-.013.287H44.4V65.65H54.875l-.7.525a5.174,5.174,0,0,0-.612-2.538A4.508,4.508,0,0,0,51.9,61.9a4.65,4.65,0,0,0-2.425-.625,4.735,4.735,0,0,0-2.425.625,4.345,4.345,0,0,0-1.675,1.75,5.387,5.387,0,0,0-.6,2.575V66.5a5.145,5.145,0,0,0,.663,2.637,4.628,4.628,0,0,0,1.85,1.775A5.645,5.645,0,0,0,50,71.55a5.845,5.845,0,0,0,2.237-.425,4.649,4.649,0,0,0,1.787-1.3l1,1.15a5.631,5.631,0,0,1-2.187,1.6A7.4,7.4,0,0,1,49.95,73.125ZM66.175,59.75a6.158,6.158,0,0,1,2.813.612,4.4,4.4,0,0,1,1.9,1.862,6.48,6.48,0,0,1,.688,3.15V73H69.8V65.55a4.318,4.318,0,0,0-1.038-3.138A3.884,3.884,0,0,0,65.85,61.35a5.039,5.039,0,0,0-2.438.563,3.859,3.859,0,0,0-1.6,1.625A5.413,5.413,0,0,0,61.25,66.1V73H59.475V59.875h1.7v3.6L60.9,62.8a4.776,4.776,0,0,1,2-2.237A6.323,6.323,0,0,1,66.175,59.75ZM81.6,73.125a6.655,6.655,0,0,1-3.362-.85A6.123,6.123,0,0,1,75.9,69.912a7.605,7.605,0,0,1,0-6.987,6.059,6.059,0,0,1,2.338-2.337A6.734,6.734,0,0,1,81.6,59.75a6.133,6.133,0,0,1,3.088.775,5.641,5.641,0,0,1,2.175,2.262,7.5,7.5,0,0,1,.813,3.638,7.612,7.612,0,0,1-.8,3.625,5.626,5.626,0,0,1-2.162,2.287A6.106,6.106,0,0,1,81.6,73.125Zm.125-1.575a4.962,4.962,0,0,0,2.513-.638,4.548,4.548,0,0,0,1.75-1.8,6.01,6.01,0,0,0,0-5.388,4.57,4.57,0,0,0-1.75-1.787,4.962,4.962,0,0,0-2.513-.638,4.845,4.845,0,0,0-2.475.638,4.685,4.685,0,0,0-1.75,1.787,5.907,5.907,0,0,0,0,5.388,4.662,4.662,0,0,0,1.75,1.8A4.845,4.845,0,0,0,81.725,71.55ZM86.675,73V69.05l.175-2.65-.25-2.65v-9.3h1.775V73Zm12,.125a6.765,6.765,0,0,1-3.413-.863,6.342,6.342,0,0,1-2.387-2.375,7.313,7.313,0,0,1,0-6.937A6.3,6.3,0,0,1,95.25,60.6a6.825,6.825,0,0,1,3.425-.85,6.945,6.945,0,0,1,3.462.85,6.187,6.187,0,0,1,2.375,2.35,7.406,7.406,0,0,1,0,6.937,6.226,6.226,0,0,1-2.387,2.375A6.884,6.884,0,0,1,98.675,73.125Zm0-1.575a4.943,4.943,0,0,0,2.525-.638,4.574,4.574,0,0,0,1.738-1.8,6.01,6.01,0,0,0,0-5.388,4.6,4.6,0,0,0-1.738-1.787,5.221,5.221,0,0,0-5,0,4.685,4.685,0,0,0-1.75,1.787,5.907,5.907,0,0,0,0,5.388,4.662,4.662,0,0,0,1.75,1.8A4.845,4.845,0,0,0,98.675,71.55Zm22.45,1.575a7.282,7.282,0,0,1-3.6-.863,6.267,6.267,0,0,1-2.425-2.375,6.788,6.788,0,0,1-.875-3.462,6.957,6.957,0,0,1,.838-3.45,6.2,6.2,0,0,1,2.3-2.362,6.783,6.783,0,0,1,6.575-.025,5.964,5.964,0,0,1,2.262,2.35,7.167,7.167,0,0,1,.825,3.488q0,.125-.013.262t-.012.287H115.575V65.65H126.05l-.7.525a5.174,5.174,0,0,0-.613-2.538,4.508,4.508,0,0,0-1.662-1.738,4.65,4.65,0,0,0-2.425-.625,4.735,4.735,0,0,0-2.425.625,4.345,4.345,0,0,0-1.675,1.75,5.387,5.387,0,0,0-.6,2.575V66.5a5.145,5.145,0,0,0,.662,2.637,4.628,4.628,0,0,0,1.85,1.775,5.645,5.645,0,0,0,2.713.638,5.845,5.845,0,0,0,2.238-.425,4.649,4.649,0,0,0,1.787-1.3l1,1.15a5.631,5.631,0,0,1-2.187,1.6A7.4,7.4,0,0,1,121.125,73.125Zm-87.438,30a6.765,6.765,0,0,1-3.413-.863,6.342,6.342,0,0,1-2.388-2.375,7.313,7.313,0,0,1,0-6.937,6.3,6.3,0,0,1,2.375-2.35,6.825,6.825,0,0,1,3.425-.85,6.945,6.945,0,0,1,3.462.85,6.187,6.187,0,0,1,2.375,2.35,7.406,7.406,0,0,1,0,6.938,6.226,6.226,0,0,1-2.387,2.375A6.884,6.884,0,0,1,33.687,103.125Zm0-1.575a4.943,4.943,0,0,0,2.525-.638,4.574,4.574,0,0,0,1.738-1.8,6.01,6.01,0,0,0,0-5.388,4.6,4.6,0,0,0-1.738-1.787,5.221,5.221,0,0,0-5,0,4.685,4.685,0,0,0-1.75,1.787,5.907,5.907,0,0,0,0,5.388,4.662,4.662,0,0,0,1.75,1.8A4.845,4.845,0,0,0,33.687,101.55Zm15.75,1.575a6.463,6.463,0,0,1-2.925-.625,4.43,4.43,0,0,1-1.938-1.875,6.422,6.422,0,0,1-.687-3.125V89.875h1.775V97.3a4.356,4.356,0,0,0,1.038,3.162,3.884,3.884,0,0,0,2.912,1.063A4.839,4.839,0,0,0,52,100.963a3.732,3.732,0,0,0,1.55-1.638,5.7,5.7,0,0,0,.537-2.575V89.875h1.775V103h-1.7V99.4l.275.65a4.852,4.852,0,0,1-1.937,2.262A5.7,5.7,0,0,1,49.437,103.125ZM64.188,103,58.362,89.875h1.85l5.35,12.175h-.875l5.425-12.175h1.75L66.012,103Zm10.175,0V89.875h1.775V103Zm.9-16.025a1.257,1.257,0,0,1-.925-.375,1.227,1.227,0,0,1-.375-.9,1.187,1.187,0,0,1,.375-.887,1.28,1.28,0,0,1,.925-.363,1.3,1.3,0,0,1,.925.35,1.147,1.147,0,0,1,.375.875,1.279,1.279,0,0,1-.363.925A1.246,1.246,0,0,1,75.262,86.975ZM87.787,89.75a6.158,6.158,0,0,1,2.813.613,4.4,4.4,0,0,1,1.9,1.862,6.48,6.48,0,0,1,.687,3.15V103H91.412V95.55a4.318,4.318,0,0,0-1.037-3.138,3.884,3.884,0,0,0-2.913-1.062,5.038,5.038,0,0,0-2.437.563,3.859,3.859,0,0,0-1.6,1.625,5.413,5.413,0,0,0-.562,2.563V103H81.087V89.875h1.7v3.6l-.275-.675a4.776,4.776,0,0,1,2-2.238A6.323,6.323,0,0,1,87.787,89.75Zm15.425,13.375a6.655,6.655,0,0,1-3.362-.85,6.123,6.123,0,0,1-2.338-2.363,7.605,7.605,0,0,1,0-6.987,6.059,6.059,0,0,1,2.338-2.338,6.734,6.734,0,0,1,3.362-.838,6.133,6.133,0,0,1,3.088.775,5.641,5.641,0,0,1,2.175,2.262,7.5,7.5,0,0,1,.813,3.638,7.612,7.612,0,0,1-.8,3.625,5.626,5.626,0,0,1-2.162,2.287A6.106,6.106,0,0,1,103.212,103.125Zm.125-1.575a4.962,4.962,0,0,0,2.513-.638,4.548,4.548,0,0,0,1.75-1.8,6.01,6.01,0,0,0,0-5.388,4.57,4.57,0,0,0-1.75-1.787,4.962,4.962,0,0,0-2.513-.637,4.845,4.845,0,0,0-2.475.637,4.685,4.685,0,0,0-1.75,1.787,5.907,5.907,0,0,0,0,5.388,4.662,4.662,0,0,0,1.75,1.8A4.845,4.845,0,0,0,103.337,101.55Zm4.95,1.45V99.05l.175-2.65-.25-2.65v-9.3h1.775V103Zm12,.125a6.765,6.765,0,0,1-3.413-.863,6.342,6.342,0,0,1-2.387-2.375,7.313,7.313,0,0,1,0-6.937,6.3,6.3,0,0,1,2.375-2.35,6.825,6.825,0,0,1,3.425-.85,6.945,6.945,0,0,1,3.462.85,6.187,6.187,0,0,1,2.375,2.35,7.406,7.406,0,0,1,0,6.938,6.226,6.226,0,0,1-2.387,2.375A6.884,6.884,0,0,1,120.288,103.125Zm0-1.575a4.943,4.943,0,0,0,2.525-.638,4.574,4.574,0,0,0,1.738-1.8,6.01,6.01,0,0,0,0-5.388,4.6,4.6,0,0,0-1.738-1.787,5.221,5.221,0,0,0-5,0,4.685,4.685,0,0,0-1.75,1.787,5.907,5.907,0,0,0,0,5.388,4.662,4.662,0,0,0,1.75,1.8A4.845,4.845,0,0,0,120.288,101.55Z" transform="translate(11736 -19330.25)" fill="#004f81"/>
    <g id="study_programme" transform="translate(11178.75 -19423.75)">
      <path id="Caminho_11581" data-name="Caminho 11581" d="M6.342,25.783A1.342,1.342,0,0,1,5,24.442V8.342a1.342,1.342,0,1,1,2.683,0v16.1A1.342,1.342,0,0,1,6.342,25.783Z" transform="translate(6.733 10.1)" fill="#004f81"/>
      <path id="Caminho_11582" data-name="Caminho 11582" d="M22.406,19.784H6.362a1.343,1.343,0,0,1-.95-2.289l16.044-16.1a1.341,1.341,0,0,1,2.292.947v16.1A1.342,1.342,0,0,1,22.406,19.784ZM9.6,17.1H21.064V5.589Z" transform="translate(6.769 0)" fill="#004f81"/>
      <path id="Caminho_11583" data-name="Caminho 11583" d="M16.342,11.683h2.683a1.342,1.342,0,0,0,0-2.683H16.342a1.342,1.342,0,0,0,0,2.683Z" transform="translate(23.566 13.467)" fill="#004f81"/>
      <path id="Caminho_11584" data-name="Caminho 11584" d="M22.342,7.683H33.075a1.342,1.342,0,1,0,0-2.683H22.342a1.342,1.342,0,0,0,0,2.683Z" transform="translate(33.666 6.734)" fill="#004f81"/>
      <path id="Caminho_11585" data-name="Caminho 11585" d="M9.342,11.683h5.367a1.342,1.342,0,1,0,0-2.683H9.342a1.342,1.342,0,0,0,0,2.683Z" transform="translate(11.783 13.467)" fill="#004f81"/>
      <path id="Caminho_11586" data-name="Caminho 11586" d="M14.342,7.683h5.367a1.342,1.342,0,1,0,0-2.683H14.342a1.342,1.342,0,1,0,0,2.683Z" transform="translate(20.2 6.734)" fill="#004f81"/>
      <path id="Caminho_11587" data-name="Caminho 11587" d="M24.342,13.683h5.367a1.342,1.342,0,1,0,0-2.683H24.342a1.342,1.342,0,1,0,0,2.683Z" transform="translate(37.033 16.833)" fill="#004f81"/>
      <path id="Caminho_11588" data-name="Caminho 11588" d="M24.342,11.683h5.367a1.342,1.342,0,1,0,0-2.683H24.342a1.342,1.342,0,1,0,0,2.683Z" transform="translate(37.033 13.467)" fill="#004f81"/>
      <path id="Caminho_11589" data-name="Caminho 11589" d="M24.342,9.683h5.367a1.342,1.342,0,1,0,0-2.683H24.342a1.342,1.342,0,1,0,0,2.683Z" transform="translate(37.033 10.1)" fill="#004f81"/>
      <path id="Caminho_11590" data-name="Caminho 11590" d="M14.342,9.683h8.05a1.342,1.342,0,0,0,0-2.683h-8.05a1.342,1.342,0,1,0,0,2.683Z" transform="translate(20.2 10.1)" fill="#004f81"/>
      <path id="Caminho_11591" data-name="Caminho 11591" d="M18.342,7.683h2.683a1.342,1.342,0,1,0,0-2.683H18.342a1.342,1.342,0,1,0,0,2.683Z" transform="translate(26.933 6.734)" fill="#004f81"/>
      <path id="Caminho_11592" data-name="Caminho 11592" d="M9.342,13.683H30.808a1.342,1.342,0,0,0,0-2.683H9.342a1.342,1.342,0,0,0,0,2.683Z" transform="translate(11.783 16.833)" fill="#004f81"/>
      <path id="Caminho_11593" data-name="Caminho 11593" d="M13.342,11.683h2.683a1.342,1.342,0,0,0,0-2.683H13.342a1.342,1.342,0,0,0,0,2.683Z" transform="translate(18.516 13.467)" fill="#004f81"/>
      <path id="Caminho_11594" data-name="Caminho 11594" d="M9.342,15.683H20.075a1.342,1.342,0,1,0,0-2.683H9.342a1.342,1.342,0,1,0,0,2.683Z" transform="translate(11.783 20.2)" fill="#004f81"/>
      <g id="Grupo_5646" data-name="Grupo 5646" transform="translate(33.2 1)">
        <path id="Caminho_11595" data-name="Caminho 11595" d="M53.25,38.837a3.785,3.785,0,0,1,1.342-.271,3.98,3.98,0,0,1,1.342.247V2.342A1.342,1.342,0,0,0,54.591,1H14.342a1.342,1.342,0,1,0,0,2.683H53.25Z" transform="translate(-13 -1)" fill="#004f81"/>
      </g>
      <path id="Caminho_11596" data-name="Caminho 11596" d="M56.869,62.1a1.342,1.342,0,0,1-.451-2.605,2.686,2.686,0,0,0,1.792-2.514V34.175a2.683,2.683,0,1,0-5.367,0,1.342,1.342,0,1,1-2.683,0V31.492a2.683,2.683,0,0,0-5.367,0,1.342,1.342,0,1,1-2.683,0V30.15a2.683,2.683,0,1,0-5.367,0,1.342,1.342,0,0,1-2.683,0V11.367a2.683,2.683,0,1,0-5.367,0V42.225a1.343,1.343,0,0,1-2.555.58l-4.674-9.775a4.539,4.539,0,0,0-2.5-2.571,4,4,0,0,0-2.82.314l3.91,15.145c1.2,2.772,5.09,10.814,7.843,12.421a1.342,1.342,0,0,1-1.352,2.318c-4.009-2.343-8.522-12.7-9.024-13.875L13.284,30.41a1.341,1.341,0,0,1,.617-1.492,7.151,7.151,0,0,1,5.866-1.02,6.981,6.981,0,0,1,4.124,3.99l2.12,4.422V11.367a5.367,5.367,0,0,1,10.733,0V25.505a5.36,5.36,0,0,1,7.283,1.881,5.363,5.363,0,0,1,8.517,2.329,5.366,5.366,0,0,1,8.35,4.46V56.983a5.372,5.372,0,0,1-3.574,5.042A1.329,1.329,0,0,1,56.869,62.1Z" transform="translate(20.605 8.417)" fill="#004f81"/>
      <path id="Caminho_11597" data-name="Caminho 11597" d="M51.541,37.733A1.342,1.342,0,0,1,50.2,36.392V29.683H20.683v6.708a1.342,1.342,0,0,1-2.683,0v-8.05A1.342,1.342,0,0,1,19.342,27h32.2a1.342,1.342,0,0,1,1.342,1.342v8.05A1.342,1.342,0,0,1,51.541,37.733Z" transform="translate(28.616 43.767)" fill="#004f81"/>
      <path id="Caminho_11598" data-name="Caminho 11598" d="M27.492,15H14.1a1.346,1.346,0,0,0-1.055.51L5.115,25.578a8.971,8.971,0,0,0-1.124,3.188L2,45.346v3.2H4.675l0-3.035L6.653,29.09a6.69,6.69,0,0,1,.655-1.97l7.438-9.437h11.4v.1A4.05,4.05,0,0,1,22.2,21.808l-2.783.054a1.339,1.339,0,0,0-1.1.612l-3.9,6.011a1.349,1.349,0,0,0,.131,1.629c.035.04,3.553,4.06,3.553,11.721a25,25,0,0,1-.636,6.708H20.23a30.9,30.9,0,0,0,.553-6.708,22.011,22.011,0,0,0-3.6-12.687l2.995-4.615,2.069-.04a6.749,6.749,0,0,0,6.585-6.708V16.342A1.342,1.342,0,0,0,27.492,15Z" transform="translate(1.683 23.567)" fill="#004f81"/>
      <path id="Caminho_11599" data-name="Caminho 11599" d="M26.492,37.733a1.342,1.342,0,0,1-1.342-1.342V29.683H3.683v6.708a1.342,1.342,0,0,1-2.683,0v-8.05A1.342,1.342,0,0,1,2.342,27h24.15a1.342,1.342,0,0,1,1.342,1.342v8.05A1.342,1.342,0,0,1,26.492,37.733Z" transform="translate(0 43.767)" fill="#004f81"/>
    </g>
    <g id="Layer_2" data-name="Layer 2" transform="translate(11376 -19426)">
      <g id="Layer_1" data-name="Layer 1" transform="translate(2.013 2.15)">
        <path id="Caminho_11600" data-name="Caminho 11600" d="M16.184,81.812A13.639,13.639,0,0,1,2.54,68.184a1.5,1.5,0,0,1,3,0A10.629,10.629,0,0,0,26.526,70.57q.016-.069.038-.136c1.616-4.868,5.115-10.907,10.4-17.949,2.04-2.719,3.95-5.045,5.192-6.518.7-.835,1.274-1.491,1.629-1.894.2-.222.348-.394.451-.51l.12-.134.062-.066h0A24.488,24.488,0,1,0,2.075,26.6a1.5,1.5,0,0,1-3,0,27.49,27.49,0,1,1,47.539,18.8c-.18.2-3.531,3.922-7.272,8.91-4.982,6.643-8.407,12.519-9.909,17A13.623,13.623,0,0,1,16.184,81.812Z" transform="translate(-0.575 -0.614)" fill="#004f81"/>
        <path id="Caminho_11601" data-name="Caminho 11601" d="M3.5,47a1.5,1.5,0,0,1,0-3c2.116,0,4.371-1.521,6.187-4.173A15.789,15.789,0,0,0,12.5,31.56a12.409,12.409,0,0,0-5.828-9.489q-.041-.025-.081-.054a8.48,8.48,0,0,1-2.9-10.223q.015-.035.031-.069A17.251,17.251,0,0,1,36.5,19.251a1.5,1.5,0,1,1-3,0A14.252,14.252,0,0,0,6.441,13a5.515,5.515,0,0,0,1.851,6.547,15.441,15.441,0,0,1,5,5.038,15.439,15.439,0,0,1,2.205,6.8q0,.059,0,.118a16.387,16.387,0,0,1-.9,5.111,20.147,20.147,0,0,1-2.435,4.911,14.559,14.559,0,0,1-3.728,3.844A8.668,8.668,0,0,1,3.5,47Z" transform="translate(6.738 6.599)" fill="#004f81"/>
        <path id="Caminho_11602" data-name="Caminho 11602" d="M25.157,26.243A1.5,1.5,0,0,1,24.1,25.8a10.775,10.775,0,0,1,0-15.238,1.5,1.5,0,0,1,2.121,2.121,7.775,7.775,0,0,0,0,11,1.5,1.5,0,0,1-1.061,2.561Z" transform="translate(54.088 26.915)" fill="#004f81"/>
        <path id="Caminho_11603" data-name="Caminho 11603" d="M25.933,37.485a1.5,1.5,0,0,1-1.061-.439,20.034,20.034,0,0,1,0-28.354,1.5,1.5,0,0,1,2.121,2.121,17.069,17.069,0,0,0,0,24.112,1.5,1.5,0,0,1-1.061,2.561Z" transform="translate(49.238 22.231)" fill="#004f81"/>
        <path id="Caminho_11604" data-name="Caminho 11604" d="M26.649,48.728a1.5,1.5,0,0,1-1.061-.439,29.3,29.3,0,0,1,0-41.47A1.5,1.5,0,0,1,27.71,8.939a26.354,26.354,0,0,0,0,37.228,1.5,1.5,0,0,1-1.061,2.561Z" transform="translate(44.237 17.546)" fill="#004f81"/>
      </g>
      <g id="Layer_2-2" data-name="Layer 2">
        <rect id="Retngulo_3336" data-name="Retngulo 3336" width="84" height="84" fill="none"/>
      </g>
    </g>
    <g id="Media_files_icons_copy_1_" transform="translate(11560.647 -19421.5)">
      <g id="view" transform="translate(0 7)">
        <g id="Grupo_5647" data-name="Grupo 5647">
          <path id="Caminho_11605" data-name="Caminho 11605" d="M45.176,29.588a9.446,9.446,0,0,0-1.353.136A5.619,5.619,0,0,1,35.9,37.647a9.392,9.392,0,1,0,9.276-8.058Zm0-11.294A20.706,20.706,0,1,0,65.882,39,20.706,20.706,0,0,0,45.176,18.294Zm0,37.647A16.941,16.941,0,1,1,62.118,39,16.94,16.94,0,0,1,45.176,55.941ZM45.176,7C24.459,7,6.285,20.4,0,39,6.285,57.6,24.459,71,45.176,71S84.068,57.6,90.353,39C84.068,20.4,65.894,7,45.176,7Zm0,60.235C26.569,67.235,9.888,55.476,3.765,39c6.123-16.474,22.8-28.235,41.412-28.235S80.465,22.526,86.588,39C80.465,55.476,63.784,67.235,45.176,67.235Z" transform="translate(0 -7)" fill="#004f81"/>
        </g>
      </g>
    </g>
    <g id="Grupo_5648" data-name="Grupo 5648" transform="translate(10396 -22076)">
      <g id="Layer_2-3" data-name="Layer 2" transform="translate(1422.357 2663.066)">
        <g id="Layer_1-2" data-name="Layer 1" transform="translate(1.484 1.585)">
          <path id="Caminho_11600-2" data-name="Caminho 11600" d="M12.084,60.876A10.45,10.45,0,0,1,1.63,50.434a1.5,1.5,0,0,1,3,0,7.443,7.443,0,0,0,14.7,1.671q.016-.069.038-.136c1.2-3.63,3.8-8.12,7.727-13.346,1.51-2.012,2.923-3.733,3.842-4.823.521-.618.944-1.1,1.206-1.4.145-.165.258-.292.335-.378l.089-.1.051-.054h0A17.661,17.661,0,1,0,2.075,19.777a1.5,1.5,0,0,1-3,0,20.663,20.663,0,1,1,35.734,14.13c-.324.36-9.93,11.066-12.578,18.944A10.439,10.439,0,0,1,12.084,60.876Z" transform="translate(-0.575 -0.614)" fill="#004f81"/>
          <path id="Caminho_11601-2" data-name="Caminho 11601" d="M3.5,35.968a1.5,1.5,0,0,1,0-3c3.139,0,6.21-5,6.241-8.764a8.754,8.754,0,0,0-4.11-6.677q-.041-.025-.081-.053A6.646,6.646,0,0,1,3.28,9.461q.015-.035.031-.069a13.114,13.114,0,0,1,24.914,5.721,1.5,1.5,0,0,1-3,0,10.114,10.114,0,0,0-19.2-4.448A3.67,3.67,0,0,0,7.253,15a11.764,11.764,0,0,1,5.484,9.024q0,.059,0,.118a14.137,14.137,0,0,1-2.53,7.612C8.353,34.472,5.969,35.968,3.5,35.968Z" transform="translate(4.048 3.946)" fill="#004f81"/>
          <path id="Caminho_11602-2" data-name="Caminho 11602" d="M24.443,22.8a1.5,1.5,0,0,1-1.061-.439,8.338,8.338,0,0,1,0-11.792A1.5,1.5,0,0,1,25.5,12.687a5.338,5.338,0,0,0,0,7.549A1.5,1.5,0,0,1,24.443,22.8Z" transform="translate(33.985 16.791)" fill="#004f81"/>
          <path id="Caminho_11603-2" data-name="Caminho 11603" d="M24.506,30.594a1.5,1.5,0,0,1-1.061-.439,15.177,15.177,0,0,1,0-21.463,1.5,1.5,0,1,1,2.121,2.121,12.19,12.19,0,0,0,0,17.22,1.5,1.5,0,0,1-1.061,2.561Z" transform="translate(30.918 13.829)" fill="#004f81"/>
          <path id="Caminho_11604-2" data-name="Caminho 11604" d="M24.509,38.391a1.5,1.5,0,0,1-1.061-.439,22,22,0,0,1,0-31.134,1.5,1.5,0,1,1,2.121,2.121,19.036,19.036,0,0,0,0,26.891,1.5,1.5,0,0,1-1.061,2.561Z" transform="translate(27.757 10.867)" fill="#004f81"/>
        </g>
        <g id="Layer_2-4" data-name="Layer 2">
          <rect id="Retngulo_3336-2" data-name="Retngulo 3336" width="62" height="62" transform="translate(-0.357 -0.067)" fill="none"/>
        </g>
      </g>
      <g id="Media_files_icons_copy_1_2" data-name="Media_files_icons_copy_1_" transform="translate(1356 2671.545)">
        <g id="view-2" data-name="view" transform="translate(0)">
          <g id="Grupo_5647-2" data-name="Grupo 5647">
            <path id="Caminho_11605-2" data-name="Caminho 11605" d="M33.309,23.654a6.964,6.964,0,0,0-1,.1A4.143,4.143,0,0,1,26.469,29.6a6.924,6.924,0,1,0,6.839-5.941Zm0-8.327A15.267,15.267,0,1,0,48.575,30.594,15.267,15.267,0,0,0,33.309,15.327Zm0,27.757A12.491,12.491,0,1,1,45.8,30.594,12.49,12.49,0,0,1,33.309,43.085ZM33.309,7A35.277,35.277,0,0,0,0,30.594a35.309,35.309,0,0,0,66.618,0A35.277,35.277,0,0,0,33.309,7Zm0,44.412c-13.719,0-26.018-8.67-30.533-20.818C7.29,18.447,19.59,9.776,33.309,9.776s26.018,8.671,30.533,20.818C59.327,42.742,47.028,51.412,33.309,51.412Z" transform="translate(0 -7)" fill="#004f81"/>
          </g>
        </g>
      </g>
    </g>
    <g id="Grupo_5649" data-name="Grupo 5649" transform="translate(11118.3 -19287.932)">
      <path id="Caminho_11606" data-name="Caminho 11606" d="M135.5,97.437h-3.357V81.492A12.165,12.165,0,0,0,120,69.35H75.848A12.163,12.163,0,0,0,63.7,81.492v30.932a12.1,12.1,0,0,0,5.708,10.246v13.9a1.4,1.4,0,0,0,2.4.994L84.788,124.58H94.3v4.488a9.208,9.208,0,0,0,9.2,9.2H128.86l9.3,9.3a1.4,1.4,0,0,0,2.4-1V136.7a9.155,9.155,0,0,0,4.141-7.641V106.632a9.21,9.21,0,0,0-9.2-9.2ZM84.207,121.762a1.4,1.4,0,0,0-.994.421l-11,11V121.87a1.4,1.4,0,0,0-.739-1.238,9.309,9.309,0,0,1-4.977-8.207V81.492a9.351,9.351,0,0,1,9.347-9.33H120a9.349,9.349,0,0,1,9.336,9.33v30.932A9.349,9.349,0,0,1,120,121.762Zm57.692,7.3a6.369,6.369,0,0,1-3.4,5.6,1.4,1.4,0,0,0-.743,1.238v7.27l-7.314-7.314a1.4,1.4,0,0,0-.992-.421H103.49a6.392,6.392,0,0,1-6.386-6.386v-4.48H120a12.163,12.163,0,0,0,12.152-12.148V100.248h3.357a6.394,6.394,0,0,1,6.394,6.384Z" fill="#004f81"/>
      <path id="Caminho_11607" data-name="Caminho 11607" d="M176.049,152.78H143.4a1.4,1.4,0,0,0,0,2.81h32.644a1.4,1.4,0,0,0,0-2.81Z" transform="translate(-61.809 -65.859)" fill="#004f81"/>
      <path id="Caminho_11608" data-name="Caminho 11608" d="M176.245,202.71H143.6a1.407,1.407,0,0,0,0,2.812h32.644a1.407,1.407,0,0,0,0-2.812Z" transform="translate(-62.005 -105.273)" fill="#004f81"/>
      <path id="Caminho_11609" data-name="Caminho 11609" d="M164.13,252.64h-20.7a1.4,1.4,0,0,0,0,2.81h20.7a1.4,1.4,0,1,0,0-2.81Z" transform="translate(-61.825 -144.688)" fill="#004f81"/>
    </g>
    <g id="Grupo_5652" data-name="Grupo 5652" transform="translate(11362.953 -19222)">
      <g id="Grupo_5650" data-name="Grupo 5650" transform="translate(3 3)">
        <path id="Elipse_227" data-name="Elipse 227" d="M9.5-1.5a11,11,0,0,1,11,11,11,11,0,0,1-11,11,11,11,0,0,1-11-11,11,11,0,0,1,11-11Zm0,19a8,8,0,1,0-8-8A8.009,8.009,0,0,0,9.5,17.5Z" transform="translate(16 16)" fill="#004f81"/>
        <path id="Caminho_11610" data-name="Caminho 11610" d="M31.62,56.289H26.169a2.866,2.866,0,0,1-2.863-2.863v-3.31a21.76,21.76,0,0,1-5.465-2.269L15.5,50.194a2.857,2.857,0,0,1-4.043,0L7.6,46.337a2.862,2.862,0,0,1,0-4.043l2.346-2.346a21.492,21.492,0,0,1-2.268-5.465H4.363A2.866,2.866,0,0,1,1.5,31.62V26.169a2.866,2.866,0,0,1,2.863-2.863h3.31a21.76,21.76,0,0,1,2.269-5.465L7.6,15.5a2.862,2.862,0,0,1,0-4.043L11.452,7.6a2.857,2.857,0,0,1,4.043,0l2.346,2.346a21.492,21.492,0,0,1,5.465-2.268V4.363A2.866,2.866,0,0,1,26.169,1.5H31.62a2.866,2.866,0,0,1,2.863,2.863v3.31a21.761,21.761,0,0,1,5.465,2.269L42.294,7.6a2.857,2.857,0,0,1,4.043,0l3.857,3.857a2.862,2.862,0,0,1,0,4.043l-2.346,2.346a21.492,21.492,0,0,1,2.268,5.465h3.31a2.866,2.866,0,0,1,2.863,2.863V31.62a2.866,2.866,0,0,1-2.863,2.863h-3.31a21.76,21.76,0,0,1-2.269,5.465l2.346,2.346a2.862,2.862,0,0,1,0,4.043l-3.857,3.857a2.857,2.857,0,0,1-4.043,0l-2.346-2.346a21.492,21.492,0,0,1-5.465,2.268v3.31A2.866,2.866,0,0,1,31.62,56.289Zm-5.314-3h5.177V50.006a2.889,2.889,0,0,1,2.163-2.771l.013,0a18.493,18.493,0,0,0,4.827-2,2.913,2.913,0,0,1,1.493-.415,2.826,2.826,0,0,1,2.011.834l2.326,2.326,3.657-3.657L45.647,41.99a2.867,2.867,0,0,1-.42-3.5,18.76,18.76,0,0,0,2-4.829l0-.013a2.889,2.889,0,0,1,2.771-2.163h3.284V26.306H50.006a2.889,2.889,0,0,1-2.771-2.163l0-.013a18.493,18.493,0,0,0-2-4.826,2.867,2.867,0,0,1,.419-3.505l2.326-2.326L44.316,9.816,41.99,12.143a2.826,2.826,0,0,1-2.011.834,2.913,2.913,0,0,1-1.491-.414,18.761,18.761,0,0,0-4.829-2l-.013,0a2.889,2.889,0,0,1-2.163-2.771V4.5H26.306V7.784a2.889,2.889,0,0,1-2.163,2.771l-.013,0a18.493,18.493,0,0,0-4.826,2,2.913,2.913,0,0,1-1.494.416,2.826,2.826,0,0,1-2.011-.834L13.474,9.816,9.816,13.474,12.143,15.8a2.867,2.867,0,0,1,.42,3.5,18.761,18.761,0,0,0-2,4.829l0,.013a2.889,2.889,0,0,1-2.771,2.163H4.5v5.177H7.784a2.889,2.889,0,0,1,2.771,2.163l0,.013a18.493,18.493,0,0,0,2,4.826,2.867,2.867,0,0,1-.419,3.505L9.816,44.316l3.657,3.657L15.8,45.647a2.826,2.826,0,0,1,2.011-.834,2.913,2.913,0,0,1,1.491.414,18.76,18.76,0,0,0,4.829,2l.013,0a2.889,2.889,0,0,1,2.163,2.771Z" transform="translate(-3 -3)" fill="#004f81"/>
      </g>
      <g id="Grupo_5651" data-name="Grupo 5651" transform="translate(31.62 31.62)">
        <path id="Caminho_11611" data-name="Caminho 11611" d="M44.54,55.58A11.033,11.033,0,0,1,33.5,44.54a10.429,10.429,0,0,1,.161-1.88,1.5,1.5,0,1,1,2.95.543A7.433,7.433,0,0,0,36.5,44.54a8.04,8.04,0,1,0,8.04-8.04,7.267,7.267,0,0,0-1.309.111,1.5,1.5,0,1,1-.543-2.95A10.267,10.267,0,0,1,44.54,33.5a11.04,11.04,0,1,1,0,22.08Z" transform="translate(-20.008 -20.008)" fill="#004f81"/>
        <path id="Caminho_11612" data-name="Caminho 11612" d="M51.258,75.926H45.806a2.866,2.866,0,0,1-2.863-2.863v-3.31a21.76,21.76,0,0,1-5.465-2.269l-2.346,2.346a2.857,2.857,0,0,1-4.043,0l-3.857-3.857a2.862,2.862,0,0,1,0-4.043l2.346-2.346A21.492,21.492,0,0,1,27.31,54.12H24a1.5,1.5,0,0,1,0-3h3.421a2.889,2.889,0,0,1,2.771,2.163l0,.013a18.493,18.493,0,0,0,2,4.826,2.867,2.867,0,0,1-.419,3.505l-2.326,2.326,3.657,3.657,2.326-2.326a2.866,2.866,0,0,1,3.5-.42,18.759,18.759,0,0,0,4.828,2l.013,0a2.889,2.889,0,0,1,2.163,2.771v3.284H51.12V69.643a2.889,2.889,0,0,1,2.163-2.771l.013,0a18.493,18.493,0,0,0,4.826-2,2.866,2.866,0,0,1,3.505.419l2.326,2.326,3.657-3.657-2.326-2.326a2.866,2.866,0,0,1-.42-3.5,18.759,18.759,0,0,0,2-4.828l0-.013a2.889,2.889,0,0,1,2.771-2.163h3.284V45.943H69.643a2.889,2.889,0,0,1-2.771-2.163l0-.013a18.493,18.493,0,0,0-2-4.826,2.867,2.867,0,0,1,.419-3.505l2.326-2.326-3.657-3.657L61.627,31.78a2.866,2.866,0,0,1-3.5.42,18.759,18.759,0,0,0-4.828-2l-.013,0a2.889,2.889,0,0,1-2.163-2.771V24a1.5,1.5,0,0,1,3,0v3.31a21.76,21.76,0,0,1,5.465,2.269l2.346-2.346a2.862,2.862,0,0,1,4.043,0l3.857,3.857a2.857,2.857,0,0,1,0,4.043l-2.346,2.346a21.492,21.492,0,0,1,2.268,5.465h3.31a2.866,2.866,0,0,1,2.863,2.863v5.452a2.866,2.866,0,0,1-2.863,2.863h-3.31a21.76,21.76,0,0,1-2.269,5.465l2.346,2.346a2.862,2.862,0,0,1,0,4.043l-3.857,3.857a2.862,2.862,0,0,1-4.043,0l-2.346-2.346a21.492,21.492,0,0,1-5.465,2.268v3.31A2.866,2.866,0,0,1,51.258,75.926Z" transform="translate(-24 -24)" fill="#004f81"/>
      </g>
    </g>
    <g id="Grupo_5653" data-name="Grupo 5653" transform="translate(11559.015 -19227.207)">
      <path id="Caminho_11613" data-name="Caminho 11613" d="M23.13,34.927A13.836,13.836,0,1,0,9.29,21.087,13.851,13.851,0,0,0,23.13,34.927Zm0-25.322a11.483,11.483,0,1,1-11.486,11.48A11.493,11.493,0,0,1,23.13,9.6Z" transform="translate(13.083 0)" fill="#004f81"/>
      <path id="Caminho_11614" data-name="Caminho 11614" d="M108.455,9.769a1.178,1.178,0,0,0-1.663,0l-20.2,20.2a5.6,5.6,0,0,0-6.979.741L66.186,44.133l-15.22-7.99a11.106,11.106,0,0,0-7.2-2.661H28.5A11.183,11.183,0,0,0,18.45,39.655L4.673,54.561A5.556,5.556,0,0,0,4.6,62.08L21.24,80.737a5.59,5.59,0,0,0,8.4-7.372L41.717,61.685a1.186,1.186,0,0,0,.019-1.673L27.13,45.168a1.268,1.268,0,0,0-.854-.348,1.2,1.2,0,0,0-.847.373L13.881,57.621a1.176,1.176,0,0,0-.016,1.585L27.827,74.862a3.247,3.247,0,0,1-.257,4.576A3.34,3.34,0,0,1,23,79.174L6.358,60.511a3.22,3.22,0,0,1,.047-4.356L20.3,41.126a1.132,1.132,0,0,0,.2-.286A8.848,8.848,0,0,1,28.5,35.832H43.772a9.13,9.13,0,0,1,5.9,2.25l16.193,8.533a1.16,1.16,0,0,0,1.378-.207L81.277,32.371a3.245,3.245,0,0,1,4.576,0,3.228,3.228,0,0,1,0,4.576L69.518,53.281a3.3,3.3,0,0,1-3.8.584L54.4,47.9a1.181,1.181,0,0,0-1.729,1.042V80.389a1.177,1.177,0,0,0,2.354,0V50.9l9.6,5.056a5.7,5.7,0,0,0,6.559-1L87.513,38.625a5.582,5.582,0,0,0,.741-6.986l20.2-20.2A1.185,1.185,0,0,0,108.455,9.769ZM28.072,71.608,16.328,58.443,26.308,47.7,39.219,60.822Z" transform="translate(0 4.643)" fill="#004f81"/>
    </g>
  </g>
</svg>
