<svg xmlns="http://www.w3.org/2000/svg" xmlns:xlink="http://www.w3.org/1999/xlink" width="661" height="206.307" viewBox="0 0 661 206.307">
  <defs>
    <filter id="Caminho_12208" x="0" y="0" width="661" height="153" filterUnits="userSpaceOnUse">
      <feOffset dy="3" input="SourceAlpha"/>
      <feGaussianBlur stdDeviation="3" result="blur"/>
      <feFlood flood-opacity="0.161"/>
      <feComposite operator="in" in2="blur"/>
      <feComposite in="SourceGraphic"/>
    </filter>
  </defs>
  <g id="Grupo_5819" data-name="Grupo 5819" transform="translate(-11698 2062.152)">
    <g id="Grupo_5810" data-name="Grupo 5810" transform="translate(16511.676 15996.582)">
      <path id="Caminho_10714" data-name="Caminho 10714" d="M0,17.184,18.412,0,36.823,17.184l-4.91,4.91L18.412,9.82,4.91,22.094Z" transform="translate(-4464.764 -17876.947) rotate(180)" fill="#fff" opacity="0.45"/>
      <path id="Caminho_10715" data-name="Caminho 10715" d="M0,29.163,31.246,0,62.493,29.163,54.16,37.5,31.246,16.665,8.332,37.5Z" transform="translate(-4451.929 -17852.428) rotate(180)" fill="#fff"/>
    </g>
    <g transform="matrix(1, 0, 0, 1, 11698, -2062.15)" filter="url(#Caminho_12208)">
      <g id="Caminho_12208-2" data-name="Caminho 12208" transform="translate(9 6)" fill="none">
        <path d="M38,0H605a38,38,0,0,1,38,38V97a38,38,0,0,1-38,38H38A38,38,0,0,1,0,97V38A38,38,0,0,1,38,0Z" stroke="none"/>
        <path d="M 38 6 C 20.35516357421875 6 6 20.35517883300781 6 38 L 6 97 C 6 114.6448211669922 20.35516357421875 129 38 129 L 605 129 C 622.6448364257812 129 637 114.6448211669922 637 97 L 637 38 C 637 20.35517883300781 622.6448364257812 6 605 6 L 38 6 M 38 0 L 605 0 C 625.98681640625 0 643 17.01318359375 643 38 L 643 97 C 643 117.98681640625 625.98681640625 135 605 135 L 38 135 C 17.01318359375 135 0 117.98681640625 0 97 L 0 38 C 0 17.01318359375 17.01318359375 0 38 0 Z" stroke="none" fill="#fff"/>
      </g>
    </g>
    <path id="Caminho_12209" data-name="Caminho 12209" d="M78.83,19V5h1.22l6.4,10.92h-.64L92.15,5h1.22V19H91.95V7.22h.34l-5.84,10h-.7l-5.88-10h.38V19Zm23.26.1a5.826,5.826,0,0,1-2.88-.69,5.014,5.014,0,0,1-1.94-1.9,5.43,5.43,0,0,1-.7-2.77,5.566,5.566,0,0,1,.67-2.76,4.961,4.961,0,0,1,1.84-1.89,5.426,5.426,0,0,1,5.26-.02,4.771,4.771,0,0,1,1.81,1.88,5.733,5.733,0,0,1,.66,2.79q0,.1-.01.21t-.01.23H97.65V13.12h8.38l-.56.42a4.139,4.139,0,0,0-.49-2.03,3.607,3.607,0,0,0-1.33-1.39,3.72,3.72,0,0,0-1.94-.5,3.788,3.788,0,0,0-1.94.5,3.476,3.476,0,0,0-1.34,1.4,4.31,4.31,0,0,0-.48,2.06v.22a4.116,4.116,0,0,0,.53,2.11,3.7,3.7,0,0,0,1.48,1.42,4.516,4.516,0,0,0,2.17.51,4.676,4.676,0,0,0,1.79-.34,3.719,3.719,0,0,0,1.43-1.04l.8.92a4.5,4.5,0,0,1-1.75,1.28A5.919,5.919,0,0,1,102.09,19.1Zm10.94,0a3.085,3.085,0,0,1-2.28-.8,3.056,3.056,0,0,1-.8-2.26V6.18h1.42v9.78a1.994,1.994,0,0,0,.47,1.42,1.763,1.763,0,0,0,1.35.5,2.29,2.29,0,0,0,1.56-.54l.5,1.02a2.622,2.622,0,0,1-1.01.56A4.124,4.124,0,0,1,113.03,19.1Zm-4.96-9.42V8.5h6.5V9.68Zm13.66,9.42a5.412,5.412,0,0,1-2.73-.69,5.074,5.074,0,0,1-1.91-1.9,5.43,5.43,0,0,1-.7-2.77,5.416,5.416,0,0,1,.7-2.78,5.043,5.043,0,0,1,1.9-1.88,5.46,5.46,0,0,1,2.74-.68,5.556,5.556,0,0,1,2.77.68,4.95,4.95,0,0,1,1.9,1.88,5.478,5.478,0,0,1,.69,2.78,5.492,5.492,0,0,1-.69,2.77,4.981,4.981,0,0,1-1.91,1.9A5.507,5.507,0,0,1,121.73,19.1Zm0-1.26a3.955,3.955,0,0,0,2.02-.51,3.659,3.659,0,0,0,1.39-1.44,4.4,4.4,0,0,0,.51-2.15,4.385,4.385,0,0,0-.51-2.16,3.677,3.677,0,0,0-1.39-1.43,4.177,4.177,0,0,0-4,0,3.748,3.748,0,0,0-1.4,1.43,4.317,4.317,0,0,0-.52,2.16,4.331,4.331,0,0,0,.52,2.15,3.729,3.729,0,0,0,1.4,1.44A3.876,3.876,0,0,0,121.73,17.84Zm12.44,1.26a5.324,5.324,0,0,1-2.69-.68,4.9,4.9,0,0,1-1.87-1.89,5.6,5.6,0,0,1-.68-2.79,5.583,5.583,0,0,1,.68-2.8,4.847,4.847,0,0,1,1.87-1.87,5.387,5.387,0,0,1,2.69-.67,4.907,4.907,0,0,1,2.47.62,4.512,4.512,0,0,1,1.74,1.81,6,6,0,0,1,.65,2.91,6.09,6.09,0,0,1-.64,2.9,4.5,4.5,0,0,1-1.73,1.83A4.885,4.885,0,0,1,134.17,19.1Zm.1-1.26a3.97,3.97,0,0,0,2.01-.51,3.638,3.638,0,0,0,1.4-1.44,4.4,4.4,0,0,0,.51-2.15,4.385,4.385,0,0,0-.51-2.16,3.656,3.656,0,0,0-1.4-1.43,3.97,3.97,0,0,0-2.01-.51,3.876,3.876,0,0,0-1.98.51,3.748,3.748,0,0,0-1.4,1.43,4.317,4.317,0,0,0-.52,2.16,4.331,4.331,0,0,0,.52,2.15,3.729,3.729,0,0,0,1.4,1.44A3.876,3.876,0,0,0,134.27,17.84ZM138.23,19V15.84l.14-2.12-.2-2.12V4.16h1.42V19Zm9.6.1a5.412,5.412,0,0,1-2.73-.69,5.074,5.074,0,0,1-1.91-1.9,5.43,5.43,0,0,1-.7-2.77,5.416,5.416,0,0,1,.7-2.78,5.043,5.043,0,0,1,1.9-1.88,5.46,5.46,0,0,1,2.74-.68,5.556,5.556,0,0,1,2.77.68,4.949,4.949,0,0,1,1.9,1.88,5.478,5.478,0,0,1,.69,2.78,5.492,5.492,0,0,1-.69,2.77,4.981,4.981,0,0,1-1.91,1.9A5.507,5.507,0,0,1,147.83,19.1Zm0-1.26a3.955,3.955,0,0,0,2.02-.51,3.659,3.659,0,0,0,1.39-1.44,4.4,4.4,0,0,0,.51-2.15,4.385,4.385,0,0,0-.51-2.16,3.677,3.677,0,0,0-1.39-1.43,4.177,4.177,0,0,0-4,0,3.748,3.748,0,0,0-1.4,1.43,4.317,4.317,0,0,0-.52,2.16,4.331,4.331,0,0,0,.52,2.15,3.729,3.729,0,0,0,1.4,1.44A3.876,3.876,0,0,0,147.83,17.84ZM156.09,19V4.16h1.42V19Zm9.66.1a5.412,5.412,0,0,1-2.73-.69,5.074,5.074,0,0,1-1.91-1.9,5.43,5.43,0,0,1-.7-2.77,5.416,5.416,0,0,1,.7-2.78,5.043,5.043,0,0,1,1.9-1.88,5.46,5.46,0,0,1,2.74-.68,5.556,5.556,0,0,1,2.77.68,4.949,4.949,0,0,1,1.9,1.88,5.478,5.478,0,0,1,.69,2.78,5.492,5.492,0,0,1-.69,2.77,4.981,4.981,0,0,1-1.91,1.9A5.507,5.507,0,0,1,165.75,19.1Zm0-1.26a3.955,3.955,0,0,0,2.02-.51,3.659,3.659,0,0,0,1.39-1.44,4.4,4.4,0,0,0,.51-2.15,4.385,4.385,0,0,0-.51-2.16,3.677,3.677,0,0,0-1.39-1.43,4.177,4.177,0,0,0-4,0,3.748,3.748,0,0,0-1.4,1.43,4.317,4.317,0,0,0-.52,2.16,4.331,4.331,0,0,0,.52,2.15,3.729,3.729,0,0,0,1.4,1.44A3.876,3.876,0,0,0,165.75,17.84Zm12.74,5.14a9.048,9.048,0,0,1-2.76-.42,5.444,5.444,0,0,1-2.14-1.2l.72-1.08a5.493,5.493,0,0,0,1.83,1.05,6.805,6.805,0,0,0,2.31.39,4.041,4.041,0,0,0,2.94-.93,3.915,3.915,0,0,0,.94-2.89V15.28l.2-1.8-.14-1.8V8.5h1.36v9.22a5.3,5.3,0,0,1-1.33,3.99A5.485,5.485,0,0,1,178.49,22.98Zm-.26-4.38a5.576,5.576,0,0,1-2.7-.65,4.839,4.839,0,0,1-1.89-1.81,5.1,5.1,0,0,1-.69-2.66,5.05,5.05,0,0,1,.69-2.65,4.789,4.789,0,0,1,1.89-1.79,5.647,5.647,0,0,1,2.7-.64,5.4,5.4,0,0,1,2.52.58,4.331,4.331,0,0,1,1.78,1.72,5.465,5.465,0,0,1,.66,2.78,5.465,5.465,0,0,1-.66,2.78A4.466,4.466,0,0,1,180.75,18,5.251,5.251,0,0,1,178.23,18.6Zm.14-1.26a4.239,4.239,0,0,0,2.06-.49,3.665,3.665,0,0,0,1.42-1.36,3.842,3.842,0,0,0,.52-2.01,3.789,3.789,0,0,0-.52-2,3.688,3.688,0,0,0-1.42-1.35,4.554,4.554,0,0,0-4.11,0,3.6,3.6,0,0,0-1.42,1.35,3.847,3.847,0,0,0-.51,2,3.9,3.9,0,0,0,.51,2.01,3.576,3.576,0,0,0,1.42,1.36A4.254,4.254,0,0,0,178.37,17.34ZM187.71,19V8.5h1.42V19Zm.72-12.82a1,1,0,0,1-.74-.3.982.982,0,0,1-.3-.72.949.949,0,0,1,.3-.71,1.024,1.024,0,0,1,.74-.29,1.044,1.044,0,0,1,.74.28.918.918,0,0,1,.3.7,1.024,1.024,0,0,1-.29.74A1,1,0,0,1,188.43,6.18ZM199.67,19V16.68l-.06-.38V12.42a2.722,2.722,0,0,0-.75-2.06,3.1,3.1,0,0,0-2.23-.72,5.551,5.551,0,0,0-1.94.34,4.942,4.942,0,0,0-1.56.9l-.64-1.06a5.675,5.675,0,0,1,1.92-1.05,7.475,7.475,0,0,1,2.36-.37,4.517,4.517,0,0,1,3.15,1.01,3.949,3.949,0,0,1,1.11,3.07V19Zm-3.62.1a4.977,4.977,0,0,1-2.05-.39,3.044,3.044,0,0,1-1.33-1.08,2.8,2.8,0,0,1-.46-1.59,2.908,2.908,0,0,1,.39-1.49,2.746,2.746,0,0,1,1.28-1.08,5.792,5.792,0,0,1,2.39-.41h3.62v1.06h-3.58a3.149,3.149,0,0,0-2.11.54,1.824,1.824,0,0,0,.11,2.78,3.143,3.143,0,0,0,1.96.54,3.793,3.793,0,0,0,2.07-.55,3.159,3.159,0,0,0,1.27-1.59l.32.98a3.336,3.336,0,0,1-1.39,1.66A4.613,4.613,0,0,1,196.05,19.1Zm14.38-.1V5h6.04a6.077,6.077,0,0,1,3.63.94,3.1,3.1,0,0,1,1.29,2.66,3.183,3.183,0,0,1-1.97,3.1,4.891,4.891,0,0,1-1.99.4l.34-.48a5.912,5.912,0,0,1,2.31.41,3.312,3.312,0,0,1,1.51,1.22,3.545,3.545,0,0,1,.54,2.01,3.246,3.246,0,0,1-1.31,2.76,6.568,6.568,0,0,1-3.95.98Zm1.48-1.22h4.94a5.23,5.23,0,0,0,2.82-.63,2.213,2.213,0,0,0,.98-2.01,2.193,2.193,0,0,0-.98-1.99,5.23,5.23,0,0,0-2.82-.63h-5.1V11.3h4.62a4.563,4.563,0,0,0,2.61-.64,2.156,2.156,0,0,0,.93-1.9,2.151,2.151,0,0,0-.93-1.91,4.619,4.619,0,0,0-2.61-.63h-4.46ZM225.21,19V4.16h1.42V19Zm9.84.1a5.826,5.826,0,0,1-2.88-.69,5.014,5.014,0,0,1-1.94-1.9,5.43,5.43,0,0,1-.7-2.77,5.566,5.566,0,0,1,.67-2.76,4.961,4.961,0,0,1,1.84-1.89,5.426,5.426,0,0,1,5.26-.02,4.771,4.771,0,0,1,1.81,1.88,5.733,5.733,0,0,1,.66,2.79q0,.1-.01.21t-.01.23h-9.14V13.12h8.38l-.56.42a4.139,4.139,0,0,0-.49-2.03,3.607,3.607,0,0,0-1.33-1.39,3.72,3.72,0,0,0-1.94-.5,3.788,3.788,0,0,0-1.94.5,3.476,3.476,0,0,0-1.34,1.4,4.31,4.31,0,0,0-.48,2.06v.22a4.116,4.116,0,0,0,.53,2.11,3.7,3.7,0,0,0,1.48,1.42,4.516,4.516,0,0,0,2.17.51,4.676,4.676,0,0,0,1.79-.34,3.719,3.719,0,0,0,1.43-1.04l.8.92a4.5,4.5,0,0,1-1.75,1.28A5.919,5.919,0,0,1,235.05,19.1ZM248.03,8.4a4.926,4.926,0,0,1,2.25.49,3.523,3.523,0,0,1,1.52,1.49,5.184,5.184,0,0,1,.55,2.52V19h-1.42V13.04a3.454,3.454,0,0,0-.83-2.51,3.107,3.107,0,0,0-2.33-.85,4.031,4.031,0,0,0-1.95.45,3.087,3.087,0,0,0-1.28,1.3,4.33,4.33,0,0,0-.45,2.05V19h-1.42V8.5h1.36v2.88l-.22-.54a3.821,3.821,0,0,1,1.6-1.79A5.058,5.058,0,0,1,248.03,8.4Zm12.34,10.7a5.324,5.324,0,0,1-2.69-.68,4.9,4.9,0,0,1-1.87-1.89,5.6,5.6,0,0,1-.68-2.79,5.583,5.583,0,0,1,.68-2.8,4.847,4.847,0,0,1,1.87-1.87,5.387,5.387,0,0,1,2.69-.67,4.907,4.907,0,0,1,2.47.62,4.512,4.512,0,0,1,1.74,1.81,6,6,0,0,1,.65,2.91,6.09,6.09,0,0,1-.64,2.9,4.5,4.5,0,0,1-1.73,1.83A4.885,4.885,0,0,1,260.37,19.1Zm.1-1.26a3.97,3.97,0,0,0,2.01-.51,3.638,3.638,0,0,0,1.4-1.44,4.4,4.4,0,0,0,.51-2.15,4.385,4.385,0,0,0-.51-2.16,3.656,3.656,0,0,0-1.4-1.43,3.97,3.97,0,0,0-2.01-.51,3.876,3.876,0,0,0-1.98.51,3.748,3.748,0,0,0-1.4,1.43,4.317,4.317,0,0,0-.52,2.16,4.331,4.331,0,0,0,.52,2.15,3.729,3.729,0,0,0,1.4,1.44A3.876,3.876,0,0,0,260.47,17.84ZM264.43,19V15.84l.14-2.12-.2-2.12V4.16h1.42V19Zm9.78.1a5.826,5.826,0,0,1-2.88-.69,5.014,5.014,0,0,1-1.94-1.9,5.431,5.431,0,0,1-.7-2.77,5.566,5.566,0,0,1,.67-2.76,4.962,4.962,0,0,1,1.84-1.89,5.426,5.426,0,0,1,5.26-.02,4.771,4.771,0,0,1,1.81,1.88,5.733,5.733,0,0,1,.66,2.79q0,.1-.01.21t-.01.23h-9.14V13.12h8.38l-.56.42a4.139,4.139,0,0,0-.49-2.03,3.606,3.606,0,0,0-1.33-1.39,3.72,3.72,0,0,0-1.94-.5,3.788,3.788,0,0,0-1.94.5,3.476,3.476,0,0,0-1.34,1.4,4.31,4.31,0,0,0-.48,2.06v.22a4.116,4.116,0,0,0,.53,2.11,3.7,3.7,0,0,0,1.48,1.42,4.516,4.516,0,0,0,2.17.51,4.676,4.676,0,0,0,1.79-.34,3.719,3.719,0,0,0,1.43-1.04l.8.92a4.505,4.505,0,0,1-1.75,1.28A5.919,5.919,0,0,1,274.21,19.1Zm11.8,0a5.324,5.324,0,0,1-2.69-.68,4.9,4.9,0,0,1-1.87-1.89,5.6,5.6,0,0,1-.68-2.79,5.583,5.583,0,0,1,.68-2.8,4.847,4.847,0,0,1,1.87-1.87,5.387,5.387,0,0,1,2.69-.67,4.907,4.907,0,0,1,2.47.62,4.512,4.512,0,0,1,1.74,1.81,6,6,0,0,1,.65,2.91,6.09,6.09,0,0,1-.64,2.9,4.5,4.5,0,0,1-1.73,1.83A4.885,4.885,0,0,1,286.01,19.1Zm.1-1.26a3.97,3.97,0,0,0,2.01-.51,3.638,3.638,0,0,0,1.4-1.44,4.4,4.4,0,0,0,.51-2.15,4.385,4.385,0,0,0-.51-2.16,3.656,3.656,0,0,0-1.4-1.43,3.97,3.97,0,0,0-2.01-.51,3.876,3.876,0,0,0-1.98.51,3.748,3.748,0,0,0-1.4,1.43,4.317,4.317,0,0,0-.52,2.16,4.331,4.331,0,0,0,.52,2.15,3.729,3.729,0,0,0,1.4,1.44A3.876,3.876,0,0,0,286.11,17.84ZM290.07,19V15.84l.14-2.12-.2-2.12V4.16h1.42V19Zm5.46-8.42a1.006,1.006,0,0,1-.75-.32,1.079,1.079,0,0,1-.31-.78,1.06,1.06,0,1,1,2.12,0,1.079,1.079,0,0,1-.31.78A1.006,1.006,0,0,1,295.53,10.58Zm0,8.52a1.006,1.006,0,0,1-.75-.32,1.079,1.079,0,0,1-.31-.78,1.06,1.06,0,1,1,2.12,0,1.079,1.079,0,0,1-.31.78A1.006,1.006,0,0,1,295.53,19.1Zm10.96-7.84h7.4v1.26h-7.4Zm.16,6.46h8.42V19h-9.9V5h9.6V6.28h-8.12ZM316.31,19l6.4-14h1.46l6.4,14h-1.56L323.13,5.86h.6L317.85,19Zm2.52-3.74.44-1.2h8.14l.44,1.2ZM332.89,19V5h5.7a8.314,8.314,0,0,1,3.93.89,6.53,6.53,0,0,1,2.63,2.47,6.982,6.982,0,0,1,.94,3.64,6.982,6.982,0,0,1-.94,3.64,6.53,6.53,0,0,1-2.63,2.47,8.314,8.314,0,0,1-3.93.89Zm1.48-1.28h4.14a6.774,6.774,0,0,0,3.23-.73,5.319,5.319,0,0,0,2.13-2.02,5.741,5.741,0,0,0,.76-2.97,5.727,5.727,0,0,0-.76-2.98,5.34,5.34,0,0,0-2.13-2.01,6.774,6.774,0,0,0-3.23-.73h-4.14Zm24.44,1.38a5.826,5.826,0,0,1-2.88-.69,5.014,5.014,0,0,1-1.94-1.9,5.431,5.431,0,0,1-.7-2.77,5.566,5.566,0,0,1,.67-2.76,4.962,4.962,0,0,1,1.84-1.89,5.426,5.426,0,0,1,5.26-.02,4.771,4.771,0,0,1,1.81,1.88,5.733,5.733,0,0,1,.66,2.79q0,.1-.01.21t-.01.23h-9.14V13.12h8.38l-.56.42a4.139,4.139,0,0,0-.49-2.03,3.606,3.606,0,0,0-1.33-1.39,3.72,3.72,0,0,0-1.94-.5,3.788,3.788,0,0,0-1.94.5,3.476,3.476,0,0,0-1.34,1.4,4.31,4.31,0,0,0-.48,2.06v.22a4.116,4.116,0,0,0,.53,2.11,3.7,3.7,0,0,0,1.48,1.42,4.516,4.516,0,0,0,2.17.51,4.676,4.676,0,0,0,1.79-.34,3.719,3.719,0,0,0,1.43-1.04l.8.92a4.505,4.505,0,0,1-1.75,1.28A5.919,5.919,0,0,1,358.81,19.1Zm13.16-.1V5h5.24a7.484,7.484,0,0,1,3.06.57,4.405,4.405,0,0,1,1.97,1.64,4.678,4.678,0,0,1,.69,2.59,4.6,4.6,0,0,1-.69,2.55A4.467,4.467,0,0,1,380.27,14a7.371,7.371,0,0,1-3.06.58h-4.42l.66-.7V19Zm1.48-5-.66-.72h4.38a4.866,4.866,0,0,0,3.19-.91,3.162,3.162,0,0,0,1.09-2.57,3.215,3.215,0,0,0-1.09-2.6,4.829,4.829,0,0,0-3.19-.92h-4.38l.66-.7Zm12.12,5V8.5h1.36v2.86l-.14-.5a3.46,3.46,0,0,1,1.48-1.83,4.9,4.9,0,0,1,2.58-.63V9.78a1.288,1.288,0,0,1-.16-.01,1.289,1.289,0,0,0-.16-.01,3.377,3.377,0,0,0-2.6,1.01,4.057,4.057,0,0,0-.94,2.87V19Zm12.22.1a5.826,5.826,0,0,1-2.88-.69,5.014,5.014,0,0,1-1.94-1.9,5.431,5.431,0,0,1-.7-2.77,5.566,5.566,0,0,1,.67-2.76,4.962,4.962,0,0,1,1.84-1.89,5.426,5.426,0,0,1,5.26-.02,4.771,4.771,0,0,1,1.81,1.88,5.733,5.733,0,0,1,.66,2.79q0,.1-.01.21t-.01.23h-9.14V13.12h8.38l-.56.42a4.139,4.139,0,0,0-.49-2.03,3.606,3.606,0,0,0-1.33-1.39,3.72,3.72,0,0,0-1.94-.5,3.788,3.788,0,0,0-1.94.5,3.476,3.476,0,0,0-1.34,1.4,4.31,4.31,0,0,0-.48,2.06v.22a4.116,4.116,0,0,0,.53,2.11,3.7,3.7,0,0,0,1.48,1.42,4.516,4.516,0,0,0,2.17.51,4.676,4.676,0,0,0,1.79-.34,3.719,3.719,0,0,0,1.43-1.04l.8.92a4.505,4.505,0,0,1-1.75,1.28A5.919,5.919,0,0,1,397.79,19.1Zm10.44,0a8.048,8.048,0,0,1-2.46-.37,5.275,5.275,0,0,1-1.82-.93l.64-1.12a6.069,6.069,0,0,0,1.64.83,6.311,6.311,0,0,0,2.1.35,3.813,3.813,0,0,0,2.16-.47,1.462,1.462,0,0,0,.66-1.25,1.157,1.157,0,0,0-.37-.91,2.427,2.427,0,0,0-.97-.5,11.96,11.96,0,0,0-1.34-.29q-.74-.12-1.47-.28a5.4,5.4,0,0,1-1.33-.47,2.6,2.6,0,0,1-.97-.85,2.506,2.506,0,0,1-.37-1.44,2.606,2.606,0,0,1,.48-1.54,3.169,3.169,0,0,1,1.41-1.07,5.871,5.871,0,0,1,2.27-.39,7.943,7.943,0,0,1,2.04.27,5.613,5.613,0,0,1,1.68.71l-.62,1.14a4.784,4.784,0,0,0-1.5-.69,6.279,6.279,0,0,0-1.6-.21,3.565,3.565,0,0,0-2.09.49,1.489,1.489,0,0,0-.67,1.25,1.213,1.213,0,0,0,.37.94,2.543,2.543,0,0,0,.98.53,9.93,9.93,0,0,0,1.34.31q.73.12,1.46.29a6.6,6.6,0,0,1,1.34.46,2.457,2.457,0,0,1,.98.82,2.38,2.38,0,0,1,.37,1.39,2.55,2.55,0,0,1-.51,1.59,3.262,3.262,0,0,1-1.48,1.04A6.611,6.611,0,0,1,408.23,19.1Zm11.4,0a5.826,5.826,0,0,1-2.88-.69,5.014,5.014,0,0,1-1.94-1.9,5.431,5.431,0,0,1-.7-2.77,5.566,5.566,0,0,1,.67-2.76,4.962,4.962,0,0,1,1.84-1.89,5.426,5.426,0,0,1,5.26-.02,4.771,4.771,0,0,1,1.81,1.88,5.733,5.733,0,0,1,.66,2.79q0,.1-.01.21t-.01.23h-9.14V13.12h8.38l-.56.42a4.139,4.139,0,0,0-.49-2.03,3.606,3.606,0,0,0-1.33-1.39,3.72,3.72,0,0,0-1.94-.5,3.788,3.788,0,0,0-1.94.5,3.476,3.476,0,0,0-1.34,1.4,4.31,4.31,0,0,0-.48,2.06v.22a4.116,4.116,0,0,0,.53,2.11,3.7,3.7,0,0,0,1.48,1.42,4.516,4.516,0,0,0,2.17.51,4.676,4.676,0,0,0,1.79-.34,3.719,3.719,0,0,0,1.43-1.04l.8.92a4.505,4.505,0,0,1-1.75,1.28A5.919,5.919,0,0,1,419.63,19.1ZM432.61,8.4a4.926,4.926,0,0,1,2.25.49,3.523,3.523,0,0,1,1.52,1.49,5.184,5.184,0,0,1,.55,2.52V19h-1.42V13.04a3.454,3.454,0,0,0-.83-2.51,3.107,3.107,0,0,0-2.33-.85,4.031,4.031,0,0,0-1.95.45,3.087,3.087,0,0,0-1.28,1.3,4.33,4.33,0,0,0-.45,2.05V19h-1.42V8.5h1.36v2.88l-.22-.54a3.821,3.821,0,0,1,1.6-1.79A5.058,5.058,0,0,1,432.61,8.4Zm12.52,10.7a5.6,5.6,0,0,1-2.79-.69,5.033,5.033,0,0,1-1.93-1.9,5.431,5.431,0,0,1-.7-2.77,5.416,5.416,0,0,1,.7-2.78,4.983,4.983,0,0,1,1.93-1.88,5.669,5.669,0,0,1,2.79-.68,5.507,5.507,0,0,1,2.42.52,3.921,3.921,0,0,1,1.7,1.56l-1.06.72a3.332,3.332,0,0,0-1.34-1.18,4.218,4.218,0,0,0-3.76.13,3.705,3.705,0,0,0-1.42,1.43,4.317,4.317,0,0,0-.52,2.16,4.317,4.317,0,0,0,.52,2.16,3.705,3.705,0,0,0,1.42,1.43,4.218,4.218,0,0,0,3.76.13,3.381,3.381,0,0,0,1.34-1.16l1.06.72a4.022,4.022,0,0,1-1.7,1.55A5.42,5.42,0,0,1,445.13,19.1Zm6.74-.1V8.5h1.42V19Zm.72-12.82a1.006,1.006,0,0,1-.74-.3.982.982,0,0,1-.3-.72.949.949,0,0,1,.3-.71,1.024,1.024,0,0,1,.74-.29,1.044,1.044,0,0,1,.74.28.918.918,0,0,1,.3.7,1.024,1.024,0,0,1-.29.74A1,1,0,0,1,452.59,6.18ZM463.83,19V16.68l-.06-.38V12.42a2.722,2.722,0,0,0-.75-2.06,3.1,3.1,0,0,0-2.23-.72,5.551,5.551,0,0,0-1.94.34,4.942,4.942,0,0,0-1.56.9l-.64-1.06a5.675,5.675,0,0,1,1.92-1.05,7.475,7.475,0,0,1,2.36-.37,4.517,4.517,0,0,1,3.15,1.01,3.948,3.948,0,0,1,1.11,3.07V19Zm-3.62.1a4.977,4.977,0,0,1-2.05-.39,3.044,3.044,0,0,1-1.33-1.08,2.8,2.8,0,0,1-.46-1.59,2.908,2.908,0,0,1,.39-1.49,2.746,2.746,0,0,1,1.28-1.08,5.792,5.792,0,0,1,2.39-.41h3.62v1.06h-3.58a3.149,3.149,0,0,0-2.11.54,1.824,1.824,0,0,0,.11,2.78,3.143,3.143,0,0,0,1.96.54,3.793,3.793,0,0,0,2.07-.55,3.159,3.159,0,0,0,1.27-1.59l.32.98a3.336,3.336,0,0,1-1.39,1.66A4.613,4.613,0,0,1,460.21,19.1Zm8.84-.1V4.16h1.42V19Z" transform="translate(11746 -1976.152)" fill="#fff"/>
    <path id="Caminho_12210" data-name="Caminho 12210" d="M166.98,16.46h10.11v3.78H166.98Zm.36,8.64h11.43V29H162.51V8h15.87v3.9H167.34Zm15.3,3.9V8h4.02l12.39,15.12H197.1V8h4.8V29h-3.99L185.49,13.88h1.95V29Zm28.74-11.55h10.08v3.9H211.38ZM211.74,29h-4.86V8h15.87v3.9H211.74Zm18.78-12.54h10.11v3.78H230.52Zm.36,8.64h11.43V29H226.05V8h15.87v3.9H230.88Zm15.3,3.9V8h9.09a11.807,11.807,0,0,1,4.86.915,7.116,7.116,0,0,1,3.15,2.625,7.328,7.328,0,0,1,1.11,4.08,7.2,7.2,0,0,1-1.11,4.035,7.058,7.058,0,0,1-3.15,2.6,11.979,11.979,0,0,1-4.86.9h-6.39l2.16-2.13V29Zm13.35,0-5.25-7.62h5.19L264.78,29Zm-8.49-7.44-2.16-2.28H255a4.974,4.974,0,0,0,3.36-.975,3.388,3.388,0,0,0,1.11-2.685,3.378,3.378,0,0,0-1.11-2.7,5.028,5.028,0,0,0-3.36-.96h-6.12l2.16-2.31ZM268.23,29V8h4.02l8.94,14.82h-2.13L287.85,8h3.99l.06,21h-4.56l-.03-14.01h.84l-7.02,11.79h-2.19l-7.17-11.79h1.02V29Zm25.89,0,9.36-21h4.8l9.39,21h-5.1l-7.68-18.54h1.92L299.1,29Zm4.68-4.5,1.29-3.69h10.8l1.32,3.69Zm30.9,4.86a12.742,12.742,0,0,1-4.575-.8,10.768,10.768,0,0,1-3.63-2.265,10.4,10.4,0,0,1-2.4-3.45,10.858,10.858,0,0,1-.855-4.35,10.858,10.858,0,0,1,.855-4.35,10.3,10.3,0,0,1,2.415-3.45,10.9,10.9,0,0,1,3.66-2.265,13.935,13.935,0,0,1,9.645.135,9.951,9.951,0,0,1,3.765,2.7l-3.12,2.88a7.614,7.614,0,0,0-2.49-1.785,7.314,7.314,0,0,0-2.94-.585,7.78,7.78,0,0,0-2.79.48,6.143,6.143,0,0,0-3.585,3.51,7.251,7.251,0,0,0-.495,2.73,7.168,7.168,0,0,0,.495,2.7,6.352,6.352,0,0,0,1.41,2.145,6.14,6.14,0,0,0,2.16,1.4,7.571,7.571,0,0,0,2.745.48,8.641,8.641,0,0,0,2.8-.465,8.1,8.1,0,0,0,2.655-1.575l2.76,3.51a12.659,12.659,0,0,1-3.975,1.98A15.426,15.426,0,0,1,329.7,29.36Zm4.05-3.3V18.17h4.44v8.52Zm13.41-9.6h10.11v3.78H347.16Zm.36,8.64h11.43V29H342.69V8h15.87v3.9H347.52Zm15.3,3.9V8h4.02l8.94,14.82h-2.13L382.44,8h3.99l.06,21h-4.56l-.03-14.01h.84l-7.02,11.79h-2.19l-7.17-11.79h1.02V29Z" transform="translate(11754 -2034.152)" fill="#fff"/>
  </g>
</svg>
