<svg xmlns="http://www.w3.org/2000/svg" width="93.2" height="103.556" viewBox="0 0 93.2 103.556">
  <g id="Group_x2C__leader_x2C__leadership_x2C__people_x2C__team_x2C__teamwork_x2C__nation" transform="translate(-2 -1)">
    <g id="XMLID_5987_" transform="translate(53.778 1)">
      <g id="XMLID_6191_">
        <g id="XMLID_6192_">
          <g id="XMLID_6193_">
            <g id="Grupo_5769" data-name="Grupo 5769">
              <path id="Caminho_12044" data-name="Caminho 12044" d="M25.63,18.259a8.63,8.63,0,1,1,8.63-8.63A8.639,8.639,0,0,1,25.63,18.259Zm0-13.807A5.178,5.178,0,1,0,30.807,9.63,5.184,5.184,0,0,0,25.63,4.452Z" transform="translate(-17 -1)" fill="#00a4e1"/>
            </g>
          </g>
        </g>
      </g>
    </g>
    <g id="XMLID_6206_" transform="translate(26.163 1)">
      <g id="XMLID_6209_">
        <g id="XMLID_6210_">
          <g id="XMLID_6215_">
            <g id="Grupo_5770" data-name="Grupo 5770">
              <path id="Caminho_12045" data-name="Caminho 12045" d="M17.63,18.259a8.63,8.63,0,1,1,8.63-8.63A8.639,8.639,0,0,1,17.63,18.259Zm0-13.807A5.178,5.178,0,1,0,22.807,9.63,5.184,5.184,0,0,0,17.63,4.452Z" transform="translate(-9 -1)" fill="#00a4e1"/>
            </g>
          </g>
        </g>
      </g>
    </g>
    <g id="XMLID_5945_" transform="translate(65.859 21.711)">
      <g id="XMLID_5948_">
        <g id="XMLID_5958_" transform="translate(5.178 24.163)">
          <path id="Caminho_12046" data-name="Caminho 12046" d="M37.533,72.682a1.727,1.727,0,0,1-1.726-1.726V50.245a1.726,1.726,0,0,1,3.452,0,1.726,1.726,0,0,0,3.452,0V26.082c0-3.883-3.186-8.63-6.9-8.63H23.726a1.726,1.726,0,1,1,0-3.452H35.807c5.83,0,10.356,6.5,10.356,12.082V50.245a5.184,5.184,0,0,1-5.178,5.178,5.107,5.107,0,0,1-1.726-.3v15.83A1.727,1.727,0,0,1,37.533,72.682Z" transform="translate(-22 -14)" fill="#00a4e1"/>
        </g>
        <g id="XMLID_5953_">
          <path id="XMLID_5954_" d="M20.5,17.356A10.356,10.356,0,1,1,30.856,27.711,10.368,10.368,0,0,1,20.5,17.356Zm3.452,0a6.9,6.9,0,1,0,6.9-6.9A6.906,6.906,0,0,0,23.952,17.356Z" transform="translate(-20.5 -7)" fill="#00a4e1"/>
        </g>
        <g id="XMLID_5949_" transform="translate(8.63 37.97)">
          <path id="XMLID_5951_" d="M27.726,42.163a1.727,1.727,0,0,0,1.726-1.726V19.726a1.726,1.726,0,0,0-3.452,0V40.437A1.727,1.727,0,0,0,27.726,42.163Z" transform="translate(-15.644 -18)" fill="#00a4e1"/>
          <path id="XMLID_5950_" d="M24.726,43.259a1.727,1.727,0,0,0,1.726-1.726V27.726a1.726,1.726,0,0,0-3.452,0V41.533A1.727,1.727,0,0,0,24.726,43.259Z" transform="translate(-23 1.615)" fill="#00a4e1"/>
        </g>
      </g>
    </g>
    <g id="XMLID_6263_" transform="translate(2 21.711)">
      <g id="XMLID_6266_">
        <g id="XMLID_6390_" transform="translate(0 24.163)">
          <path id="Caminho_12047" data-name="Caminho 12047" d="M10.63,72.682A1.727,1.727,0,0,1,8.9,70.956V55.125a5.107,5.107,0,0,1-1.726.3A5.184,5.184,0,0,1,2,50.245V26.082C2,20.5,6.525,14,12.356,14H24.437a1.726,1.726,0,1,1,0,3.452H12.356c-3.718,0-6.9,4.746-6.9,8.63V50.245a1.726,1.726,0,0,0,3.452,0,1.726,1.726,0,0,1,3.452,0V70.956A1.727,1.727,0,0,1,10.63,72.682Z" transform="translate(-2 -14)" fill="#00a4e1"/>
        </g>
        <g id="XMLID_6379_" transform="translate(8.63)">
          <path id="XMLID_6380_" d="M14.856,27.711A10.356,10.356,0,1,1,25.211,17.356,10.368,10.368,0,0,1,14.856,27.711Zm0-17.259a6.9,6.9,0,1,0,6.9,6.9A6.908,6.908,0,0,0,14.856,10.452Z" transform="translate(-4.5 -7)" fill="#00a4e1"/>
        </g>
        <g id="XMLID_6267_" transform="translate(6.904 37.97)">
          <path id="XMLID_6202_" d="M5.726,42.163A1.727,1.727,0,0,1,4,40.437V19.726a1.726,1.726,0,0,1,3.452,0V40.437A1.727,1.727,0,0,1,5.726,42.163Z" transform="translate(-4 -18)" fill="#00a4e1"/>
          <path id="XMLID_6268_" d="M8.726,43.259A1.727,1.727,0,0,1,7,41.533V27.726a1.726,1.726,0,1,1,3.452,0V41.533A1.727,1.727,0,0,1,8.726,43.259Z" transform="translate(3.356 1.615)" fill="#00a4e1"/>
        </g>
      </g>
    </g>
    <g id="XMLID_6363_" transform="translate(29.615 18.259)">
      <g id="XMLID_6368_">
        <path id="Caminho_12048" data-name="Caminho 12048" d="M39.341,75.133a1.727,1.727,0,0,1-1.726-1.726V35.437a1.727,1.727,0,0,1,1.726-1.726,5.182,5.182,0,0,0,5.178-5.178V25.082a8.639,8.639,0,0,0-8.63-8.63H20.356a6.911,6.911,0,0,0-6.9,6.9v5.178a5.184,5.184,0,0,0,5.178,5.178,1.727,1.727,0,0,1,1.726,1.726v37.97a1.726,1.726,0,0,1-3.452,0V36.99A8.645,8.645,0,0,1,10,28.533V23.356A10.368,10.368,0,0,1,20.356,13H35.889A12.1,12.1,0,0,1,47.97,25.082v3.452a8.63,8.63,0,0,1-6.9,8.454V73.408A1.727,1.727,0,0,1,39.341,75.133Z" transform="translate(-10 11.163)" fill="#00a4e1"/>
        <path id="XMLID_6371_" d="M22.856,26.711A10.356,10.356,0,1,1,33.211,16.356,10.368,10.368,0,0,1,22.856,26.711Zm0-17.259a6.9,6.9,0,1,0,6.9,6.9A6.908,6.908,0,0,0,22.856,9.452Z" transform="translate(-3.87 -6)" fill="#00a4e1"/>
      </g>
      <path id="Caminho_12049" data-name="Caminho 12049" d="M34.437,25.073a1.727,1.727,0,0,1-1.726-1.726v-1.1a1.722,1.722,0,0,0-2.006-1.7L18.03,22.654A5.18,5.18,0,0,1,12,17.545a1.726,1.726,0,1,1,3.452,0,1.709,1.709,0,0,0,.611,1.319,1.686,1.686,0,0,0,1.4.383l12.672-2.109a5.174,5.174,0,0,1,6.027,5.109v1.1A1.727,1.727,0,0,1,34.437,25.073Z" transform="translate(-5.096 18.075)" fill="#00a4e1"/>
      <path id="Caminho_12050" data-name="Caminho 12050" d="M16.726,49.389A1.727,1.727,0,0,1,15,47.663V25.226a1.726,1.726,0,1,1,3.452,0V47.663A1.727,1.727,0,0,1,16.726,49.389Z" transform="translate(2.259 36.908)" fill="#00a4e1"/>
      <path id="Caminho_12051" data-name="Caminho 12051" d="M29.533,22.452H15.726a1.726,1.726,0,1,1,0-3.452H29.533a1.726,1.726,0,1,1,0,3.452Z" transform="translate(-0.193 25.874)" fill="#00a4e1"/>
    </g>
  </g>
</svg>
