<svg xmlns="http://www.w3.org/2000/svg" xmlns:xlink="http://www.w3.org/1999/xlink" width="647" height="206.307" viewBox="0 0 647 206.307">
  <defs>
    <filter id="Caminho_12232" x="0" y="0" width="647" height="153" filterUnits="userSpaceOnUse">
      <feOffset dy="3" input="SourceAlpha"/>
      <feGaussianBlur stdDeviation="3" result="blur"/>
      <feFlood flood-opacity="0.161"/>
      <feComposite operator="in" in2="blur"/>
      <feComposite in="SourceGraphic"/>
    </filter>
  </defs>
  <g id="Grupo_5853" data-name="Grupo 5853" transform="translate(-11719 1905)">
    <g id="Grupo_5852" data-name="Grupo 5852" transform="translate(16532.676 16153.734)">
      <path id="Caminho_10714" data-name="Caminho 10714" d="M0,17.184,18.412,0,36.823,17.184l-4.91,4.91L18.412,9.82,4.91,22.094Z" transform="translate(-4464.764 -17876.947) rotate(180)" fill="#fff" opacity="0.45"/>
      <path id="Caminho_10715" data-name="Caminho 10715" d="M0,29.163,31.246,0,62.493,29.163,54.16,37.5,31.246,16.665,8.332,37.5Z" transform="translate(-4451.929 -17852.428) rotate(180)" fill="#fff"/>
    </g>
    <g transform="matrix(1, 0, 0, 1, 11719, -1905)" filter="url(#Caminho_12232)">
      <g id="Caminho_12232-2" data-name="Caminho 12232" transform="translate(9 6)" fill="none">
        <path d="M38,0H591a38,38,0,0,1,38,38V97a38,38,0,0,1-38,38H38A38,38,0,0,1,0,97V38A38,38,0,0,1,38,0Z" stroke="none"/>
        <path d="M 38 6 C 20.35516357421875 6 6 20.35516357421875 6 38 L 6 97 C 6 114.6448364257812 20.35516357421875 129 38 129 L 591 129 C 608.6448364257812 129 623 114.6448364257812 623 97 L 623 38 C 623 20.35516357421875 608.6448364257812 6 591 6 L 38 6 M 38 0 L 591 0 C 611.98681640625 0 629 17.01316833496094 629 38 L 629 97 C 629 117.9868316650391 611.98681640625 135 591 135 L 38 135 C 17.01318359375 135 0 117.9868316650391 0 97 L 0 38 C 0 17.01316833496094 17.01318359375 0 38 0 Z" stroke="none" fill="#fff"/>
      </g>
    </g>
    <path id="Caminho_12231" data-name="Caminho 12231" d="M68.81,19V5h1.22l6.4,10.92h-.64L82.13,5h1.22V19H81.93V7.22h.34l-5.84,10h-.7l-5.88-10h.38V19Zm23.26.1a5.826,5.826,0,0,1-2.88-.69,5.014,5.014,0,0,1-1.94-1.9,5.43,5.43,0,0,1-.7-2.77,5.566,5.566,0,0,1,.67-2.76,4.961,4.961,0,0,1,1.84-1.89,5.426,5.426,0,0,1,5.26-.02,4.771,4.771,0,0,1,1.81,1.88,5.733,5.733,0,0,1,.66,2.79q0,.1-.01.21t-.01.23H87.63V13.12h8.38l-.56.42a4.139,4.139,0,0,0-.49-2.03,3.607,3.607,0,0,0-1.33-1.39,3.72,3.72,0,0,0-1.94-.5,3.788,3.788,0,0,0-1.94.5,3.476,3.476,0,0,0-1.34,1.4,4.31,4.31,0,0,0-.48,2.06v.22a4.116,4.116,0,0,0,.53,2.11,3.7,3.7,0,0,0,1.48,1.42,4.516,4.516,0,0,0,2.17.51,4.676,4.676,0,0,0,1.79-.34,3.719,3.719,0,0,0,1.43-1.04l.8.92a4.5,4.5,0,0,1-1.75,1.28A5.919,5.919,0,0,1,92.07,19.1Zm10.94,0a3.085,3.085,0,0,1-2.28-.8,3.056,3.056,0,0,1-.8-2.26V6.18h1.42v9.78a1.994,1.994,0,0,0,.47,1.42,1.763,1.763,0,0,0,1.35.5,2.29,2.29,0,0,0,1.56-.54l.5,1.02a2.622,2.622,0,0,1-1.01.56A4.124,4.124,0,0,1,103.01,19.1ZM98.05,9.68V8.5h6.5V9.68Zm13.66,9.42a5.412,5.412,0,0,1-2.73-.69,5.074,5.074,0,0,1-1.91-1.9,5.43,5.43,0,0,1-.7-2.77,5.416,5.416,0,0,1,.7-2.78,5.043,5.043,0,0,1,1.9-1.88,5.46,5.46,0,0,1,2.74-.68,5.556,5.556,0,0,1,2.77.68,4.95,4.95,0,0,1,1.9,1.88,5.478,5.478,0,0,1,.69,2.78,5.492,5.492,0,0,1-.69,2.77,4.981,4.981,0,0,1-1.91,1.9A5.507,5.507,0,0,1,111.71,19.1Zm0-1.26a3.955,3.955,0,0,0,2.02-.51,3.659,3.659,0,0,0,1.39-1.44,4.4,4.4,0,0,0,.51-2.15,4.385,4.385,0,0,0-.51-2.16,3.677,3.677,0,0,0-1.39-1.43,4.177,4.177,0,0,0-4,0,3.748,3.748,0,0,0-1.4,1.43,4.317,4.317,0,0,0-.52,2.16,4.331,4.331,0,0,0,.52,2.15,3.729,3.729,0,0,0,1.4,1.44A3.876,3.876,0,0,0,111.71,17.84Zm12.44,1.26a5.324,5.324,0,0,1-2.69-.68,4.9,4.9,0,0,1-1.87-1.89,5.6,5.6,0,0,1-.68-2.79,5.583,5.583,0,0,1,.68-2.8,4.847,4.847,0,0,1,1.87-1.87,5.387,5.387,0,0,1,2.69-.67,4.907,4.907,0,0,1,2.47.62,4.512,4.512,0,0,1,1.74,1.81,6,6,0,0,1,.65,2.91,6.09,6.09,0,0,1-.64,2.9,4.5,4.5,0,0,1-1.73,1.83A4.885,4.885,0,0,1,124.15,19.1Zm.1-1.26a3.97,3.97,0,0,0,2.01-.51,3.639,3.639,0,0,0,1.4-1.44,4.4,4.4,0,0,0,.51-2.15,4.385,4.385,0,0,0-.51-2.16,3.656,3.656,0,0,0-1.4-1.43,3.97,3.97,0,0,0-2.01-.51,3.876,3.876,0,0,0-1.98.51,3.748,3.748,0,0,0-1.4,1.43,4.317,4.317,0,0,0-.52,2.16,4.331,4.331,0,0,0,.52,2.15,3.729,3.729,0,0,0,1.4,1.44A3.876,3.876,0,0,0,124.25,17.84ZM128.21,19V15.84l.14-2.12-.2-2.12V4.16h1.42V19Zm9.6.1a5.412,5.412,0,0,1-2.73-.69,5.074,5.074,0,0,1-1.91-1.9,5.43,5.43,0,0,1-.7-2.77,5.416,5.416,0,0,1,.7-2.78,5.043,5.043,0,0,1,1.9-1.88,5.46,5.46,0,0,1,2.74-.68,5.556,5.556,0,0,1,2.77.68,4.949,4.949,0,0,1,1.9,1.88,5.478,5.478,0,0,1,.69,2.78,5.492,5.492,0,0,1-.69,2.77,4.981,4.981,0,0,1-1.91,1.9A5.507,5.507,0,0,1,137.81,19.1Zm0-1.26a3.955,3.955,0,0,0,2.02-.51,3.659,3.659,0,0,0,1.39-1.44,4.4,4.4,0,0,0,.51-2.15,4.385,4.385,0,0,0-.51-2.16,3.677,3.677,0,0,0-1.39-1.43,4.177,4.177,0,0,0-4,0,3.748,3.748,0,0,0-1.4,1.43,4.317,4.317,0,0,0-.52,2.16,4.331,4.331,0,0,0,.52,2.15,3.729,3.729,0,0,0,1.4,1.44A3.876,3.876,0,0,0,137.81,17.84ZM146.07,19V4.16h1.42V19Zm9.66.1a5.412,5.412,0,0,1-2.73-.69,5.074,5.074,0,0,1-1.91-1.9,5.43,5.43,0,0,1-.7-2.77,5.416,5.416,0,0,1,.7-2.78,5.043,5.043,0,0,1,1.9-1.88,5.46,5.46,0,0,1,2.74-.68,5.556,5.556,0,0,1,2.77.68,4.949,4.949,0,0,1,1.9,1.88,5.478,5.478,0,0,1,.69,2.78,5.492,5.492,0,0,1-.69,2.77,4.981,4.981,0,0,1-1.91,1.9A5.507,5.507,0,0,1,155.73,19.1Zm0-1.26a3.955,3.955,0,0,0,2.02-.51,3.659,3.659,0,0,0,1.39-1.44,4.4,4.4,0,0,0,.51-2.15,4.385,4.385,0,0,0-.51-2.16,3.677,3.677,0,0,0-1.39-1.43,4.177,4.177,0,0,0-4,0,3.748,3.748,0,0,0-1.4,1.43,4.317,4.317,0,0,0-.52,2.16,4.331,4.331,0,0,0,.52,2.15,3.729,3.729,0,0,0,1.4,1.44A3.876,3.876,0,0,0,155.73,17.84Zm12.74,5.14a9.048,9.048,0,0,1-2.76-.42,5.444,5.444,0,0,1-2.14-1.2l.72-1.08a5.493,5.493,0,0,0,1.83,1.05,6.805,6.805,0,0,0,2.31.39,4.041,4.041,0,0,0,2.94-.93,3.915,3.915,0,0,0,.94-2.89V15.28l.2-1.8-.14-1.8V8.5h1.36v9.22a5.3,5.3,0,0,1-1.33,3.99A5.485,5.485,0,0,1,168.47,22.98Zm-.26-4.38a5.576,5.576,0,0,1-2.7-.65,4.839,4.839,0,0,1-1.89-1.81,5.1,5.1,0,0,1-.69-2.66,5.05,5.05,0,0,1,.69-2.65,4.789,4.789,0,0,1,1.89-1.79,5.647,5.647,0,0,1,2.7-.64,5.4,5.4,0,0,1,2.52.58,4.331,4.331,0,0,1,1.78,1.72,5.465,5.465,0,0,1,.66,2.78,5.465,5.465,0,0,1-.66,2.78A4.466,4.466,0,0,1,170.73,18,5.251,5.251,0,0,1,168.21,18.6Zm.14-1.26a4.239,4.239,0,0,0,2.06-.49,3.665,3.665,0,0,0,1.42-1.36,3.842,3.842,0,0,0,.52-2.01,3.789,3.789,0,0,0-.52-2,3.688,3.688,0,0,0-1.42-1.35,4.554,4.554,0,0,0-4.11,0,3.6,3.6,0,0,0-1.42,1.35,3.847,3.847,0,0,0-.51,2,3.9,3.9,0,0,0,.51,2.01,3.576,3.576,0,0,0,1.42,1.36A4.254,4.254,0,0,0,168.35,17.34ZM177.69,19V8.5h1.42V19Zm.72-12.82a1,1,0,0,1-.74-.3.982.982,0,0,1-.3-.72.949.949,0,0,1,.3-.71,1.024,1.024,0,0,1,.74-.29,1.044,1.044,0,0,1,.74.28.918.918,0,0,1,.3.7,1.024,1.024,0,0,1-.29.74A1,1,0,0,1,178.41,6.18ZM189.65,19V16.68l-.06-.38V12.42a2.722,2.722,0,0,0-.75-2.06,3.1,3.1,0,0,0-2.23-.72,5.551,5.551,0,0,0-1.94.34,4.942,4.942,0,0,0-1.56.9l-.64-1.06a5.675,5.675,0,0,1,1.92-1.05,7.475,7.475,0,0,1,2.36-.37,4.517,4.517,0,0,1,3.15,1.01,3.949,3.949,0,0,1,1.11,3.07V19Zm-3.62.1a4.977,4.977,0,0,1-2.05-.39,3.044,3.044,0,0,1-1.33-1.08,2.8,2.8,0,0,1-.46-1.59,2.908,2.908,0,0,1,.39-1.49,2.746,2.746,0,0,1,1.28-1.08,5.792,5.792,0,0,1,2.39-.41h3.62v1.06h-3.58a3.149,3.149,0,0,0-2.11.54,1.824,1.824,0,0,0,.11,2.78,3.143,3.143,0,0,0,1.96.54,3.793,3.793,0,0,0,2.07-.55,3.159,3.159,0,0,0,1.27-1.59l.32.98a3.336,3.336,0,0,1-1.39,1.66A4.613,4.613,0,0,1,186.03,19.1Zm17.72,0a5.467,5.467,0,0,1-2.53-.55A4.01,4.01,0,0,1,199.56,17a4.56,4.56,0,0,1-.59-2.36,6.52,6.52,0,0,1,.78-3.21,5.76,5.76,0,0,1,2.16-2.22,6.086,6.086,0,0,1,3.14-.81,5.552,5.552,0,0,1,2.53.54,3.945,3.945,0,0,1,1.66,1.54,4.56,4.56,0,0,1,.59,2.36,6.52,6.52,0,0,1-.78,3.21,5.855,5.855,0,0,1-2.15,2.23A6.014,6.014,0,0,1,203.75,19.1Zm.1-1.26a4.343,4.343,0,0,0,3.97-2.38,5.367,5.367,0,0,0,.59-2.54,3.169,3.169,0,0,0-.91-2.42,3.566,3.566,0,0,0-2.55-.86,4.375,4.375,0,0,0-2.34.64,4.483,4.483,0,0,0-1.63,1.75,5.351,5.351,0,0,0-.59,2.55,3.143,3.143,0,0,0,.91,2.4A3.566,3.566,0,0,0,203.85,17.84ZM218.83,8.4a4.449,4.449,0,0,1,2.33.55,2.861,2.861,0,0,1,1.26,1.59,4.731,4.731,0,0,1,.05,2.48L221.27,19h-1.42l1.2-6a2.98,2.98,0,0,0-.33-2.44,2.67,2.67,0,0,0-2.29-.88,4.225,4.225,0,0,0-2.79.92,4.669,4.669,0,0,0-1.49,2.76L213.03,19h-1.42l2.08-10.5h1.36l-.6,3.02-.3-.52a4.738,4.738,0,0,1,1.97-1.98A5.856,5.856,0,0,1,218.83,8.4Zm6.3,10.6,2.96-14.84h1.42L226.55,19Zm5.38,0,2.08-10.5h1.42L231.93,19Zm3.4-12.82a.939.939,0,0,1-.96-.94,1.076,1.076,0,0,1,1.1-1.08.989.989,0,0,1,.7.26.861.861,0,0,1,.28.66,1.052,1.052,0,0,1-.32.79A1.1,1.1,0,0,1,233.91,6.18Zm9.2,2.22a4.449,4.449,0,0,1,2.33.55,2.862,2.862,0,0,1,1.26,1.59,4.731,4.731,0,0,1,.05,2.48L245.55,19h-1.42l1.2-6a2.98,2.98,0,0,0-.33-2.44,2.67,2.67,0,0,0-2.29-.88,4.225,4.225,0,0,0-2.79.92,4.669,4.669,0,0,0-1.49,2.76L237.31,19h-1.42l2.08-10.5h1.36l-.6,3.02-.3-.52a4.738,4.738,0,0,1,1.97-1.98A5.856,5.856,0,0,1,243.11,8.4Zm11.1,10.7a5.814,5.814,0,0,1-2.61-.55A3.959,3.959,0,0,1,249.9,17a4.6,4.6,0,0,1-.59-2.38,6.6,6.6,0,0,1,.76-3.2,5.772,5.772,0,0,1,2.08-2.21,5.583,5.583,0,0,1,2.98-.81,5.184,5.184,0,0,1,2.42.53,3.823,3.823,0,0,1,1.59,1.53,4.771,4.771,0,0,1,.57,2.4,5.4,5.4,0,0,1-.04.65q-.04.33-.1.63h-9.22l.18-1.06h8.38l-.58.4a3.752,3.752,0,0,0-.18-2.12,2.737,2.737,0,0,0-1.17-1.31,3.758,3.758,0,0,0-1.89-.45,4.187,4.187,0,0,0-2.28.63,4.294,4.294,0,0,0-1.56,1.74,5.679,5.679,0,0,0-.56,2.59,3.163,3.163,0,0,0,.91,2.43,3.872,3.872,0,0,0,2.73.85,5.362,5.362,0,0,0,1.96-.35,3.948,3.948,0,0,0,1.48-.97l.64,1.02a5.043,5.043,0,0,1-1.85,1.15A6.728,6.728,0,0,1,254.21,19.1Zm20.14-.1V16.68l-.06-.38V12.42a2.722,2.722,0,0,0-.75-2.06,3.1,3.1,0,0,0-2.23-.72,5.551,5.551,0,0,0-1.94.34,4.942,4.942,0,0,0-1.56.9l-.64-1.06a5.675,5.675,0,0,1,1.92-1.05,7.475,7.475,0,0,1,2.36-.37,4.517,4.517,0,0,1,3.15,1.01,3.948,3.948,0,0,1,1.11,3.07V19Zm-3.62.1a4.977,4.977,0,0,1-2.05-.39,3.044,3.044,0,0,1-1.33-1.08,2.8,2.8,0,0,1-.46-1.59,2.908,2.908,0,0,1,.39-1.49,2.746,2.746,0,0,1,1.28-1.08,5.792,5.792,0,0,1,2.39-.41h3.62v1.06h-3.58a3.149,3.149,0,0,0-2.11.54,1.824,1.824,0,0,0,.11,2.78,3.143,3.143,0,0,0,1.96.54,3.793,3.793,0,0,0,2.07-.55,3.159,3.159,0,0,0,1.27-1.59l.32.98a3.336,3.336,0,0,1-1.39,1.66A4.613,4.613,0,0,1,270.73,19.1Zm11.66,0a8.048,8.048,0,0,1-2.46-.37,5.275,5.275,0,0,1-1.82-.93l.64-1.12a6.069,6.069,0,0,0,1.64.83,6.311,6.311,0,0,0,2.1.35,3.813,3.813,0,0,0,2.16-.47,1.462,1.462,0,0,0,.66-1.25,1.157,1.157,0,0,0-.37-.91,2.427,2.427,0,0,0-.97-.5,11.96,11.96,0,0,0-1.34-.29q-.74-.12-1.47-.28a5.4,5.4,0,0,1-1.33-.47,2.6,2.6,0,0,1-.97-.85,2.506,2.506,0,0,1-.37-1.44,2.606,2.606,0,0,1,.48-1.54,3.169,3.169,0,0,1,1.41-1.07,5.871,5.871,0,0,1,2.27-.39,7.943,7.943,0,0,1,2.04.27,5.613,5.613,0,0,1,1.68.71l-.62,1.14a4.784,4.784,0,0,0-1.5-.69,6.279,6.279,0,0,0-1.6-.21,3.565,3.565,0,0,0-2.09.49,1.489,1.489,0,0,0-.67,1.25,1.213,1.213,0,0,0,.37.94,2.543,2.543,0,0,0,.98.53,9.93,9.93,0,0,0,1.34.31q.73.12,1.46.29a6.6,6.6,0,0,1,1.34.46,2.457,2.457,0,0,1,.98.82,2.38,2.38,0,0,1,.37,1.39,2.55,2.55,0,0,1-.51,1.59,3.262,3.262,0,0,1-1.48,1.04A6.611,6.611,0,0,1,282.39,19.1Zm9.76,0a8.048,8.048,0,0,1-2.46-.37,5.275,5.275,0,0,1-1.82-.93l.64-1.12a6.069,6.069,0,0,0,1.64.83,6.311,6.311,0,0,0,2.1.35,3.813,3.813,0,0,0,2.16-.47,1.462,1.462,0,0,0,.66-1.25,1.157,1.157,0,0,0-.37-.91,2.427,2.427,0,0,0-.97-.5,11.96,11.96,0,0,0-1.34-.29q-.74-.12-1.47-.28a5.4,5.4,0,0,1-1.33-.47,2.6,2.6,0,0,1-.97-.85,2.506,2.506,0,0,1-.37-1.44,2.606,2.606,0,0,1,.48-1.54,3.169,3.169,0,0,1,1.41-1.07,5.871,5.871,0,0,1,2.27-.39,7.943,7.943,0,0,1,2.04.27,5.613,5.613,0,0,1,1.68.71l-.62,1.14a4.784,4.784,0,0,0-1.5-.69,6.279,6.279,0,0,0-1.6-.21,3.565,3.565,0,0,0-2.09.49,1.489,1.489,0,0,0-.67,1.25,1.213,1.213,0,0,0,.37.94,2.543,2.543,0,0,0,.98.53,9.93,9.93,0,0,0,1.34.31q.73.12,1.46.29a6.6,6.6,0,0,1,1.34.46,2.457,2.457,0,0,1,.98.82,2.38,2.38,0,0,1,.37,1.39,2.55,2.55,0,0,1-.51,1.59,3.262,3.262,0,0,1-1.48,1.04A6.611,6.611,0,0,1,292.15,19.1Zm6.94-.1V8.5h1.42V19Zm-.58-12.14,2.74-2.48h1.9l-3.24,2.48ZM309.83,8.4a4.926,4.926,0,0,1,2.25.49,3.523,3.523,0,0,1,1.52,1.49,5.184,5.184,0,0,1,.55,2.52V19h-1.42V13.04a3.454,3.454,0,0,0-.83-2.51,3.107,3.107,0,0,0-2.33-.85,4.031,4.031,0,0,0-1.95.45,3.087,3.087,0,0,0-1.28,1.3,4.33,4.33,0,0,0-.45,2.05V19h-1.42V8.5h1.36v2.88l-.22-.54a3.821,3.821,0,0,1,1.6-1.79A5.058,5.058,0,0,1,309.83,8.4Zm12.52,10.7a5.6,5.6,0,0,1-2.79-.69,5.033,5.033,0,0,1-1.93-1.9,5.431,5.431,0,0,1-.7-2.77,5.416,5.416,0,0,1,.7-2.78,4.983,4.983,0,0,1,1.93-1.88,5.669,5.669,0,0,1,2.79-.68,5.507,5.507,0,0,1,2.42.52,3.921,3.921,0,0,1,1.7,1.56l-1.06.72a3.332,3.332,0,0,0-1.34-1.18,4.218,4.218,0,0,0-3.76.13,3.705,3.705,0,0,0-1.42,1.43,4.317,4.317,0,0,0-.52,2.16,4.317,4.317,0,0,0,.52,2.16,3.705,3.705,0,0,0,1.42,1.43,4.218,4.218,0,0,0,3.76.13,3.381,3.381,0,0,0,1.34-1.16l1.06.72a4.022,4.022,0,0,1-1.7,1.55A5.42,5.42,0,0,1,322.35,19.1Zm6.9-.1V8.5h1.36v2.86l-.14-.5a3.46,3.46,0,0,1,1.48-1.83,4.9,4.9,0,0,1,2.58-.63V9.78a1.288,1.288,0,0,1-.16-.01,1.289,1.289,0,0,0-.16-.01,3.377,3.377,0,0,0-2.6,1.01,4.057,4.057,0,0,0-.94,2.87V19Zm12.04.1a5.412,5.412,0,0,1-2.73-.69,5.074,5.074,0,0,1-1.91-1.9,5.431,5.431,0,0,1-.7-2.77,5.416,5.416,0,0,1,.7-2.78,5.043,5.043,0,0,1,1.9-1.88,5.46,5.46,0,0,1,2.74-.68,5.556,5.556,0,0,1,2.77.68,4.949,4.949,0,0,1,1.9,1.88,5.478,5.478,0,0,1,.69,2.78,5.492,5.492,0,0,1-.69,2.77,4.981,4.981,0,0,1-1.91,1.9A5.507,5.507,0,0,1,341.29,19.1Zm0-1.26a3.955,3.955,0,0,0,2.02-.51,3.659,3.659,0,0,0,1.39-1.44,4.4,4.4,0,0,0,.51-2.15,4.385,4.385,0,0,0-.51-2.16,3.677,3.677,0,0,0-1.39-1.43,4.177,4.177,0,0,0-4,0,3.748,3.748,0,0,0-1.4,1.43,4.317,4.317,0,0,0-.52,2.16,4.331,4.331,0,0,0,.52,2.15,3.729,3.729,0,0,0,1.4,1.44A3.876,3.876,0,0,0,341.29,17.84ZM354.91,8.4a4.926,4.926,0,0,1,2.25.49,3.523,3.523,0,0,1,1.52,1.49,5.184,5.184,0,0,1,.55,2.52V19h-1.42V13.04a3.454,3.454,0,0,0-.83-2.51,3.107,3.107,0,0,0-2.33-.85,4.031,4.031,0,0,0-1.95.45,3.087,3.087,0,0,0-1.28,1.3,4.33,4.33,0,0,0-.45,2.05V19h-1.42V8.5h1.36v2.88l-.22-.54a3.821,3.821,0,0,1,1.6-1.79A5.058,5.058,0,0,1,354.91,8.4Zm12.44,10.7a5.412,5.412,0,0,1-2.73-.69,5.074,5.074,0,0,1-1.91-1.9,5.431,5.431,0,0,1-.7-2.77,5.416,5.416,0,0,1,.7-2.78,5.043,5.043,0,0,1,1.9-1.88,5.46,5.46,0,0,1,2.74-.68,5.556,5.556,0,0,1,2.77.68,4.949,4.949,0,0,1,1.9,1.88,5.478,5.478,0,0,1,.69,2.78,5.492,5.492,0,0,1-.69,2.77,4.981,4.981,0,0,1-1.91,1.9A5.507,5.507,0,0,1,367.35,19.1Zm0-1.26a3.955,3.955,0,0,0,2.02-.51,3.659,3.659,0,0,0,1.39-1.44,4.4,4.4,0,0,0,.51-2.15,4.385,4.385,0,0,0-.51-2.16,3.677,3.677,0,0,0-1.39-1.43,4.177,4.177,0,0,0-4,0,3.748,3.748,0,0,0-1.4,1.43,4.317,4.317,0,0,0-.52,2.16,4.331,4.331,0,0,0,.52,2.15,3.729,3.729,0,0,0,1.4,1.44A3.876,3.876,0,0,0,367.35,17.84Zm17.96,1.26a5.826,5.826,0,0,1-2.88-.69,5.014,5.014,0,0,1-1.94-1.9,5.431,5.431,0,0,1-.7-2.77,5.566,5.566,0,0,1,.67-2.76,4.962,4.962,0,0,1,1.84-1.89,5.426,5.426,0,0,1,5.26-.02,4.771,4.771,0,0,1,1.81,1.88,5.733,5.733,0,0,1,.66,2.79q0,.1-.01.21t-.01.23h-9.14V13.12h8.38l-.56.42a4.139,4.139,0,0,0-.49-2.03,3.606,3.606,0,0,0-1.33-1.39,3.72,3.72,0,0,0-1.94-.5,3.788,3.788,0,0,0-1.94.5,3.476,3.476,0,0,0-1.34,1.4,4.31,4.31,0,0,0-.48,2.06v.22a4.116,4.116,0,0,0,.53,2.11,3.7,3.7,0,0,0,1.48,1.42,4.516,4.516,0,0,0,2.17.51,4.676,4.676,0,0,0,1.79-.34,3.719,3.719,0,0,0,1.43-1.04l.8.92a4.505,4.505,0,0,1-1.75,1.28A5.919,5.919,0,0,1,385.31,19.1Zm15.68,0a8.048,8.048,0,0,1-2.46-.37,5.275,5.275,0,0,1-1.82-.93l.64-1.12a6.069,6.069,0,0,0,1.64.83,6.311,6.311,0,0,0,2.1.35,3.813,3.813,0,0,0,2.16-.47,1.462,1.462,0,0,0,.66-1.25,1.157,1.157,0,0,0-.37-.91,2.427,2.427,0,0,0-.97-.5,11.96,11.96,0,0,0-1.34-.29q-.74-.12-1.47-.28a5.4,5.4,0,0,1-1.33-.47,2.6,2.6,0,0,1-.97-.85,2.506,2.506,0,0,1-.37-1.44,2.606,2.606,0,0,1,.48-1.54,3.169,3.169,0,0,1,1.41-1.07,5.871,5.871,0,0,1,2.27-.39,7.943,7.943,0,0,1,2.04.27,5.613,5.613,0,0,1,1.68.71l-.62,1.14a4.784,4.784,0,0,0-1.5-.69,6.279,6.279,0,0,0-1.6-.21,3.565,3.565,0,0,0-2.09.49,1.489,1.489,0,0,0-.67,1.25,1.213,1.213,0,0,0,.37.94,2.543,2.543,0,0,0,.98.53,9.93,9.93,0,0,0,1.34.31q.73.12,1.46.29a6.6,6.6,0,0,1,1.34.46,2.457,2.457,0,0,1,.98.82,2.38,2.38,0,0,1,.37,1.39,2.55,2.55,0,0,1-.51,1.59,3.262,3.262,0,0,1-1.48,1.04A6.611,6.611,0,0,1,400.99,19.1Zm6.94-.1V8.5h1.42V19Zm-.58-12.14,2.74-2.48h1.9l-3.24,2.48ZM418.67,8.4a4.926,4.926,0,0,1,2.25.49,3.523,3.523,0,0,1,1.52,1.49,5.184,5.184,0,0,1,.55,2.52V19h-1.42V13.04a3.454,3.454,0,0,0-.83-2.51,3.107,3.107,0,0,0-2.33-.85,4.031,4.031,0,0,0-1.95.45,3.087,3.087,0,0,0-1.28,1.3,4.33,4.33,0,0,0-.45,2.05V19h-1.42V8.5h1.36v2.88l-.22-.54a3.821,3.821,0,0,1,1.6-1.79A5.058,5.058,0,0,1,418.67,8.4Zm12.52,10.7a5.6,5.6,0,0,1-2.79-.69,5.033,5.033,0,0,1-1.93-1.9,5.431,5.431,0,0,1-.7-2.77,5.416,5.416,0,0,1,.7-2.78,4.983,4.983,0,0,1,1.93-1.88,5.669,5.669,0,0,1,2.79-.68,5.507,5.507,0,0,1,2.42.52,3.921,3.921,0,0,1,1.7,1.56l-1.06.72a3.332,3.332,0,0,0-1.34-1.18,4.218,4.218,0,0,0-3.76.13,3.705,3.705,0,0,0-1.42,1.43,4.317,4.317,0,0,0-.52,2.16,4.317,4.317,0,0,0,.52,2.16,3.705,3.705,0,0,0,1.42,1.43,4.218,4.218,0,0,0,3.76.13,3.381,3.381,0,0,0,1.34-1.16l1.06.72a4.022,4.022,0,0,1-1.7,1.55A5.42,5.42,0,0,1,431.19,19.1Zm6.9-.1V8.5h1.36v2.86l-.14-.5a3.46,3.46,0,0,1,1.48-1.83,4.9,4.9,0,0,1,2.58-.63V9.78a1.288,1.288,0,0,1-.16-.01,1.289,1.289,0,0,0-.16-.01,3.377,3.377,0,0,0-2.6,1.01,4.057,4.057,0,0,0-.94,2.87V19Zm12.04.1a5.412,5.412,0,0,1-2.73-.69,5.074,5.074,0,0,1-1.91-1.9,5.431,5.431,0,0,1-.7-2.77,5.416,5.416,0,0,1,.7-2.78,5.043,5.043,0,0,1,1.9-1.88,5.46,5.46,0,0,1,2.74-.68,5.556,5.556,0,0,1,2.77.68,4.949,4.949,0,0,1,1.9,1.88,5.478,5.478,0,0,1,.69,2.78,5.492,5.492,0,0,1-.69,2.77,4.981,4.981,0,0,1-1.91,1.9A5.507,5.507,0,0,1,450.13,19.1Zm0-1.26a3.955,3.955,0,0,0,2.02-.51,3.659,3.659,0,0,0,1.39-1.44,4.4,4.4,0,0,0,.51-2.15,4.385,4.385,0,0,0-.51-2.16,3.677,3.677,0,0,0-1.39-1.43,4.177,4.177,0,0,0-4,0,3.748,3.748,0,0,0-1.4,1.43,4.317,4.317,0,0,0-.52,2.16,4.331,4.331,0,0,0,.52,2.15,3.729,3.729,0,0,0,1.4,1.44A3.876,3.876,0,0,0,450.13,17.84ZM463.75,8.4a4.926,4.926,0,0,1,2.25.49,3.523,3.523,0,0,1,1.52,1.49,5.184,5.184,0,0,1,.55,2.52V19h-1.42V13.04a3.454,3.454,0,0,0-.83-2.51,3.107,3.107,0,0,0-2.33-.85,4.031,4.031,0,0,0-1.95.45,3.087,3.087,0,0,0-1.28,1.3,4.33,4.33,0,0,0-.45,2.05V19h-1.42V8.5h1.36v2.88l-.22-.54a3.821,3.821,0,0,1,1.6-1.79A5.058,5.058,0,0,1,463.75,8.4Zm12.44,10.7a5.412,5.412,0,0,1-2.73-.69,5.074,5.074,0,0,1-1.91-1.9,5.431,5.431,0,0,1-.7-2.77,5.416,5.416,0,0,1,.7-2.78,5.043,5.043,0,0,1,1.9-1.88,5.46,5.46,0,0,1,2.74-.68,5.556,5.556,0,0,1,2.77.68,4.949,4.949,0,0,1,1.9,1.88,5.478,5.478,0,0,1,.69,2.78,5.492,5.492,0,0,1-.69,2.77,4.981,4.981,0,0,1-1.91,1.9A5.507,5.507,0,0,1,476.19,19.1Zm0-1.26a3.955,3.955,0,0,0,2.02-.51,3.659,3.659,0,0,0,1.39-1.44,4.4,4.4,0,0,0,.51-2.15,4.385,4.385,0,0,0-.51-2.16,3.677,3.677,0,0,0-1.39-1.43,4.177,4.177,0,0,0-4,0,3.748,3.748,0,0,0-1.4,1.43,4.317,4.317,0,0,0-.52,2.16,4.331,4.331,0,0,0,.52,2.15,3.729,3.729,0,0,0,1.4,1.44A3.876,3.876,0,0,0,476.19,17.84Z" transform="translate(11767 -1819)" fill="#fff"/>
    <path id="Caminho_12230" data-name="Caminho 12230" d="M50.025,16.46h10.11v3.78H50.025Zm.36,8.64h11.43V29H45.555V8h15.87v3.9H50.385Zm25.47,4.26a12.685,12.685,0,0,1-4.575-.81,10.9,10.9,0,0,1-3.66-2.28,10.4,10.4,0,0,1-2.4-3.45,10.781,10.781,0,0,1-.855-4.32,10.781,10.781,0,0,1,.855-4.32,10.3,10.3,0,0,1,2.415-3.45,11.1,11.1,0,0,1,3.66-2.28,13.283,13.283,0,0,1,9.135,0,11.09,11.09,0,0,1,3.63,2.265,10.428,10.428,0,0,1,2.415,3.435,10.7,10.7,0,0,1,.87,4.35,10.726,10.726,0,0,1-.87,4.335,10.387,10.387,0,0,1-2.415,3.45,11.09,11.09,0,0,1-3.63,2.265A12.531,12.531,0,0,1,75.855,29.36Zm6.87,4.47a9.684,9.684,0,0,1-2.325-.27,8.58,8.58,0,0,1-2.16-.87,13.185,13.185,0,0,1-2.22-1.62,31.43,31.43,0,0,1-2.505-2.52l5.1-1.29a13.413,13.413,0,0,0,1.5,1.77,4.506,4.506,0,0,0,1.335.93,3.5,3.5,0,0,0,1.365.27,4.627,4.627,0,0,0,3.42-1.56l2.16,2.58A6.982,6.982,0,0,1,82.725,33.83Zm-6.87-8.61a6.849,6.849,0,0,0,2.595-.48,6.22,6.22,0,0,0,3.48-3.525,7.734,7.734,0,0,0,0-5.445,6.3,6.3,0,0,0-1.395-2.13,6.222,6.222,0,0,0-2.085-1.38,6.849,6.849,0,0,0-2.595-.48,6.964,6.964,0,0,0-2.61.48,6.029,6.029,0,0,0-2.085,1.38,6.418,6.418,0,0,0-1.38,2.13,7.734,7.734,0,0,0,0,5.445,6.383,6.383,0,0,0,1.38,2.145,6.029,6.029,0,0,0,2.085,1.38A6.964,6.964,0,0,0,75.855,25.22Zm24.48,4.14a9.513,9.513,0,0,1-6.99-2.49q-2.52-2.49-2.52-7.11V8h4.86V19.58a6.229,6.229,0,0,0,1.23,4.32,5.169,5.169,0,0,0,6.9,0,6.229,6.229,0,0,0,1.23-4.32V8h4.8V19.76q0,4.62-2.52,7.11A9.513,9.513,0,0,1,100.335,29.36Zm14.31-.36V8h4.86V29Zm9.84,0V8h9.09a11.807,11.807,0,0,1,4.86.915,7.117,7.117,0,0,1,3.15,2.625,7.328,7.328,0,0,1,1.11,4.08,7.273,7.273,0,0,1-1.11,4.05,7.117,7.117,0,0,1-3.15,2.625,11.807,11.807,0,0,1-4.86.915h-6.39l2.16-2.19V29Zm4.86-7.44-2.16-2.31h6.12a5.028,5.028,0,0,0,3.36-.96,3.342,3.342,0,0,0,1.11-2.67,3.378,3.378,0,0,0-1.11-2.7,5.028,5.028,0,0,0-3.36-.96h-6.12l2.16-2.31Zm21.27-5.1h10.11v3.78h-10.11Zm.36,8.64H162.4V29h-16.26V8h15.87v3.9h-11.04Zm23.79,3.9V8h4.02l8.94,14.82H185.6L194.385,8h3.99l.06,21h-4.56l-.03-14.01h.84l-7.02,11.79h-2.19L178.3,14.99h1.02V29Zm37.98.36a9.513,9.513,0,0,1-6.99-2.49q-2.52-2.49-2.52-7.11V8h4.86V19.58a6.229,6.229,0,0,0,1.23,4.32,5.169,5.169,0,0,0,6.9,0,6.229,6.229,0,0,0,1.23-4.32V8h4.8V19.76q0,4.62-2.52,7.11A9.513,9.513,0,0,1,212.745,29.36Zm14.31-.36V8h4.86V25.04h10.53V29Zm20.52,0V11.96h-6.72V8h18.3v3.96h-6.72V29Zm14.19,0V8h4.86V29Zm9.84,0V8h9.09a11.807,11.807,0,0,1,4.86.915,7.116,7.116,0,0,1,3.15,2.625,7.328,7.328,0,0,1,1.11,4.08,7.273,7.273,0,0,1-1.11,4.05,7.116,7.116,0,0,1-3.15,2.625,11.807,11.807,0,0,1-4.86.915H274.3l2.16-2.19V29Zm4.86-7.44-2.16-2.31h6.12a5.028,5.028,0,0,0,3.36-.96,3.342,3.342,0,0,0,1.11-2.67,3.378,3.378,0,0,0-1.11-2.7,5.028,5.028,0,0,0-3.36-.96H274.3l2.16-2.31Zm16.8,7.44V8h9.09a11.807,11.807,0,0,1,4.86.915,7.116,7.116,0,0,1,3.15,2.625,7.328,7.328,0,0,1,1.11,4.08,7.2,7.2,0,0,1-1.11,4.035,7.058,7.058,0,0,1-3.15,2.6,11.979,11.979,0,0,1-4.86.9h-6.39l2.16-2.13V29Zm13.35,0-5.25-7.62h5.19l5.31,7.62Zm-8.49-7.44-2.16-2.28h6.12a4.974,4.974,0,0,0,3.36-.975,3.388,3.388,0,0,0,1.11-2.685,3.378,3.378,0,0,0-1.11-2.7,5.028,5.028,0,0,0-3.36-.96h-6.12l2.16-2.31Zm27.39,7.8a12.771,12.771,0,0,1-4.605-.81,10.9,10.9,0,0,1-3.66-2.28,10.4,10.4,0,0,1-2.4-3.45,10.781,10.781,0,0,1-.855-4.32,10.781,10.781,0,0,1,.855-4.32,10.3,10.3,0,0,1,2.415-3.45,11.1,11.1,0,0,1,3.66-2.28,13.283,13.283,0,0,1,9.135,0,10.963,10.963,0,0,1,3.63,2.28,10.962,10.962,0,0,1,2.415,12.1,10.386,10.386,0,0,1-2.415,3.45,11.09,11.09,0,0,1-3.63,2.265A12.446,12.446,0,0,1,325.515,29.36Zm-.03-4.14a6.849,6.849,0,0,0,2.6-.48,6.222,6.222,0,0,0,2.085-1.38,6.3,6.3,0,0,0,1.4-2.13,7.251,7.251,0,0,0,.495-2.73,7.251,7.251,0,0,0-.495-2.73,6.418,6.418,0,0,0-1.38-2.13,6.029,6.029,0,0,0-2.085-1.38,6.964,6.964,0,0,0-2.61-.48,6.849,6.849,0,0,0-2.6.48,6.222,6.222,0,0,0-2.085,1.38,6.3,6.3,0,0,0-1.4,2.13,7.734,7.734,0,0,0,0,5.445,6.383,6.383,0,0,0,1.38,2.145,6.03,6.03,0,0,0,2.085,1.38A6.964,6.964,0,0,0,325.485,25.22Zm19.65-7.77h10.08v3.9h-10.08Zm.36,11.55h-4.86V8h15.87v3.9h-11.01Zm14.31,0V8h4.86V29Zm16.74.36a17.133,17.133,0,0,1-4.83-.675,11.3,11.3,0,0,1-3.72-1.755l1.65-3.66a12.055,12.055,0,0,0,3.2,1.575,11.742,11.742,0,0,0,3.735.615,7.779,7.779,0,0,0,2.325-.285,2.722,2.722,0,0,0,1.3-.8,1.788,1.788,0,0,0,.42-1.17,1.582,1.582,0,0,0-.66-1.335,5.419,5.419,0,0,0-1.74-.81q-1.08-.315-2.385-.6t-2.61-.705a11.039,11.039,0,0,1-2.385-1.08,5.307,5.307,0,0,1-1.755-1.74,5.13,5.13,0,0,1-.675-2.76,5.859,5.859,0,0,1,.975-3.285,6.67,6.67,0,0,1,2.94-2.37,12.038,12.038,0,0,1,4.935-.885,16.51,16.51,0,0,1,3.9.465,11.238,11.238,0,0,1,3.39,1.395l-1.5,3.69a12.765,12.765,0,0,0-2.94-1.245,10.815,10.815,0,0,0-2.88-.405,6.812,6.812,0,0,0-2.31.33,2.724,2.724,0,0,0-1.29.855,1.983,1.983,0,0,0-.39,1.215,1.554,1.554,0,0,0,.66,1.305,5.212,5.212,0,0,0,1.74.8q1.08.3,2.385.6t2.61.69a10.091,10.091,0,0,1,2.385,1.05,5.307,5.307,0,0,1,1.755,1.74,5.068,5.068,0,0,1,.675,2.73,5.677,5.677,0,0,1-.99,3.24,6.916,6.916,0,0,1-2.955,2.37A11.946,11.946,0,0,1,376.545,29.36Zm19.14,0a17.133,17.133,0,0,1-4.83-.675,11.3,11.3,0,0,1-3.72-1.755l1.65-3.66a12.055,12.055,0,0,0,3.2,1.575,11.742,11.742,0,0,0,3.735.615,7.779,7.779,0,0,0,2.325-.285,2.722,2.722,0,0,0,1.3-.8,1.788,1.788,0,0,0,.42-1.17,1.582,1.582,0,0,0-.66-1.335,5.419,5.419,0,0,0-1.74-.81q-1.08-.315-2.385-.6t-2.61-.705a11.039,11.039,0,0,1-2.385-1.08,5.307,5.307,0,0,1-1.755-1.74,5.13,5.13,0,0,1-.675-2.76,5.859,5.859,0,0,1,.975-3.285,6.67,6.67,0,0,1,2.94-2.37A12.038,12.038,0,0,1,396.4,7.64a16.51,16.51,0,0,1,3.9.465,11.238,11.238,0,0,1,3.39,1.395l-1.5,3.69a12.765,12.765,0,0,0-2.94-1.245,10.815,10.815,0,0,0-2.88-.405,6.812,6.812,0,0,0-2.31.33,2.724,2.724,0,0,0-1.29.855,1.983,1.983,0,0,0-.39,1.215,1.554,1.554,0,0,0,.66,1.305,5.212,5.212,0,0,0,1.74.8q1.08.3,2.385.6t2.61.69a10.091,10.091,0,0,1,2.385,1.05,5.307,5.307,0,0,1,1.755,1.74,5.068,5.068,0,0,1,.675,2.73,5.677,5.677,0,0,1-.99,3.24,6.916,6.916,0,0,1-2.955,2.37A11.946,11.946,0,0,1,395.685,29.36Zm12.24-.36V8h4.86V29Zm20.04.36a12.771,12.771,0,0,1-4.605-.81,10.9,10.9,0,0,1-3.66-2.28,10.4,10.4,0,0,1-2.4-3.45,10.781,10.781,0,0,1-.855-4.32,10.781,10.781,0,0,1,.855-4.32,10.3,10.3,0,0,1,2.415-3.45,11.1,11.1,0,0,1,3.66-2.28,13.283,13.283,0,0,1,9.135,0,10.963,10.963,0,0,1,3.63,2.28,10.962,10.962,0,0,1,2.415,12.1,10.386,10.386,0,0,1-2.415,3.45,11.09,11.09,0,0,1-3.63,2.265A12.446,12.446,0,0,1,427.965,29.36Zm-.03-4.14a6.849,6.849,0,0,0,2.6-.48,6.222,6.222,0,0,0,2.085-1.38,6.3,6.3,0,0,0,1.4-2.13,7.251,7.251,0,0,0,.495-2.73,7.251,7.251,0,0,0-.495-2.73,6.418,6.418,0,0,0-1.38-2.13,6.029,6.029,0,0,0-2.085-1.38,6.964,6.964,0,0,0-2.61-.48,6.849,6.849,0,0,0-2.6.48,6.222,6.222,0,0,0-2.085,1.38,6.3,6.3,0,0,0-1.4,2.13,7.734,7.734,0,0,0,0,5.445,6.383,6.383,0,0,0,1.38,2.145,6.03,6.03,0,0,0,2.085,1.38A6.964,6.964,0,0,0,427.935,25.22ZM443.085,29V8h4.02l12.39,15.12h-1.95V8h4.8V29h-3.99l-12.42-15.12h1.95V29Zm21.48,0,9.36-21h4.8l9.39,21h-5.1l-7.68-18.54h1.92L469.545,29Zm4.68-4.5,1.29-3.69h10.8l1.32,3.69ZM490.3,29V8h4.86V25.04H505.7V29Z" transform="translate(11771 -1877)" fill="#fff"/>
  </g>
</svg>
