<svg xmlns="http://www.w3.org/2000/svg" width="104.195" height="104.828" viewBox="0 0 104.195 104.828">
  <g id="Grupo_5814" data-name="Grupo 5814" transform="translate(-4.3 -4.3)">
    <path id="Caminho_12052" data-name="Caminho 12052" d="M79.074,36.013c0-4.28-.778-10.117-3.307-10.895S63.9,22.2,63.9,22.2h0L57.09,29.593l-7-7.393s-9.144,2.335-11.673,2.918C35.884,25.9,35.3,31.733,35.3,36.013" transform="translate(27.42 15.034)" fill="none" stroke="#00a4e1" stroke-linecap="round" stroke-linejoin="round" stroke-miterlimit="10" stroke-width="4"/>
    <path id="Caminho_12053" data-name="Caminho 12053" d="M60.321,12.915C59.154,7.273,53.707,6.3,50.983,6.3c-3.113,0-8.366.778-9.339,7.393-.584,5.253,1.751,11.868,3.5,14.2,1.946,2.529,3.7,3.7,6.226,3.7,2.335,0,3.891-1.167,5.837-4.086C59.349,24.782,61.489,17.584,60.321,12.915Z" transform="translate(33.333 0)" fill="none" stroke="#00a4e1" stroke-linecap="round" stroke-linejoin="round" stroke-miterlimit="10" stroke-width="4"/>
    <path id="Caminho_12054" data-name="Caminho 12054" d="M50.074,64.013c0-4.28-.778-10.117-3.307-10.895S34.9,50.2,34.9,50.2h0L28.09,57.593l-7-7.393s-9.144,2.335-11.673,2.918C6.884,53.9,6.3,59.733,6.3,64.013" transform="translate(0 41.509)" fill="none" stroke="#00a4e1" stroke-linecap="round" stroke-linejoin="round" stroke-miterlimit="10" stroke-width="4"/>
    <path id="Caminho_12055" data-name="Caminho 12055" d="M31.321,40.915c-1.167-5.642-6.615-6.615-9.339-6.615-3.113,0-8.366.778-9.339,7.393-.584,5.253,1.751,11.868,3.5,14.2,1.946,2.529,3.7,3.7,6.226,3.7,2.335,0,3.891-1.167,5.837-4.086C30.349,52.782,32.489,45.584,31.321,40.915Z" transform="translate(5.912 26.475)" fill="none" stroke="#00a4e1" stroke-linecap="round" stroke-linejoin="round" stroke-miterlimit="10" stroke-width="4"/>
    <path id="Caminho_12056" data-name="Caminho 12056" d="M12.8,48.343A37.779,37.779,0,0,1,50.543,10.6" transform="translate(6.146 4.066)" fill="none" stroke="#00a4e1" stroke-linecap="round" stroke-linejoin="round" stroke-miterlimit="10" stroke-width="4"/>
    <line id="Linha_219" data-name="Linha 219" x1="6.615" y1="6.42" transform="translate(50.074 8.246)" fill="none" stroke="#00a4e1" stroke-linecap="round" stroke-linejoin="round" stroke-miterlimit="10" stroke-width="4"/>
    <line id="Linha_220" data-name="Linha 220" x1="7.004" y2="7.198" transform="translate(49.685 14.666)" fill="none" stroke="#00a4e1" stroke-linecap="round" stroke-linejoin="round" stroke-miterlimit="10" stroke-width="4"/>
    <path id="Caminho_12057" data-name="Caminho 12057" d="M76.143,34.9A37.779,37.779,0,0,1,38.4,72.643" transform="translate(30.351 27.042)" fill="none" stroke="#00a4e1" stroke-linecap="round" stroke-linejoin="round" stroke-miterlimit="10" stroke-width="4"/>
    <line id="Linha_221" data-name="Linha 221" x2="6.615" y2="6.615" transform="translate(68.751 99.685)" fill="none" stroke="#00a4e1" stroke-linecap="round" stroke-linejoin="round" stroke-miterlimit="10" stroke-width="4"/>
    <line id="Linha_222" data-name="Linha 222" y1="7.004" x2="7.004" transform="translate(68.751 92.681)" fill="none" stroke="#00a4e1" stroke-linecap="round" stroke-linejoin="round" stroke-miterlimit="10" stroke-width="4"/>
  </g>
</svg>
