<svg xmlns="http://www.w3.org/2000/svg" xmlns:xlink="http://www.w3.org/1999/xlink" width="812" height="562" viewBox="0 0 812 562">
  <defs>
    <filter id="Retângulo_1347" x="525" y="28" width="245" height="162" filterUnits="userSpaceOnUse">
      <feOffset dy="3" input="SourceAlpha"/>
      <feGaussianBlur stdDeviation="3" result="blur"/>
      <feFlood flood-opacity="0.161"/>
      <feComposite operator="in" in2="blur"/>
      <feComposite in="SourceGraphic"/>
    </filter>
    <filter id="Polígono_3" x="486" y="69" width="52" height="58" filterUnits="userSpaceOnUse">
      <feOffset dx="-5" dy="-4" input="SourceAlpha"/>
      <feGaussianBlur stdDeviation="3" result="blur-2"/>
      <feFlood flood-opacity="0.161"/>
      <feComposite operator="in" in2="blur-2"/>
      <feComposite in="SourceGraphic"/>
    </filter>
    <filter id="Retângulo_1347-2" x="555" y="387" width="245" height="162" filterUnits="userSpaceOnUse">
      <feOffset dy="3" input="SourceAlpha"/>
      <feGaussianBlur stdDeviation="3" result="blur-3"/>
      <feFlood flood-opacity="0.161"/>
      <feComposite operator="in" in2="blur-3"/>
      <feComposite in="SourceGraphic"/>
    </filter>
    <filter id="Polígono_3-2" x="640" y="349" width="58" height="52" filterUnits="userSpaceOnUse">
      <feOffset dx="-5" dy="-4" input="SourceAlpha"/>
      <feGaussianBlur stdDeviation="3" result="blur-4"/>
      <feFlood flood-opacity="0.161"/>
      <feComposite operator="in" in2="blur-4"/>
      <feComposite in="SourceGraphic"/>
    </filter>
  </defs>
  <g id="Grupo_5849" data-name="Grupo 5849" transform="translate(-11448 2844)">
    <path id="Caminho_11973" data-name="Caminho 11973" d="M426.859,370.024H193.007V71.335H426.859" transform="translate(11394.53 -2807.511)" fill="none" stroke="#154a5a" stroke-width="3"/>
    <path id="Caminho_11974" data-name="Caminho 11974" d="M426.859,350.289H193.007V240.7H426.859" transform="translate(11394.53 -2882.324)" fill="none" stroke="#154a5a" stroke-width="3"/>
    <path id="Caminho_12214" data-name="Caminho 12214" d="M28.1,0H0" transform="translate(11559.437 -2588.076)" fill="none" stroke="#154a5a" stroke-width="3"/>
    <path id="Caminho_12215" data-name="Caminho 12215" d="M0,0H3.35" transform="translate(11833.185 -2432.029)" fill="none" stroke="#154a5a" stroke-width="2.13"/>
    <path id="Caminho_12216" data-name="Caminho 12216" d="M0,0H140.543" transform="translate(11843.071 -2432.029)" fill="none" stroke="#154a5a" stroke-width="2.13" stroke-dasharray="11.709 11.709"/>
    <path id="Caminho_11975" data-name="Caminho 11975" d="M908.344,613.495h3.35v-3.349" transform="translate(11078.54 -3045.524)" fill="none" stroke="#154a5a" stroke-width="2.13"/>
    <path id="Caminho_12223" data-name="Caminho 12223" d="M0,193.911V0" transform="translate(11990.232 -2635.863)" fill="none" stroke="#154a5a" stroke-width="2.13" stroke-dasharray="11.775 11.775"/>
    <path id="Caminho_11976" data-name="Caminho 11976" d="M911.693,242.485v-3.35h-3.35" transform="translate(11078.54 -2881.635)" fill="none" stroke="#154a5a" stroke-width="2.13"/>
    <path id="Caminho_12217" data-name="Caminho 12217" d="M140.543,0H0" transform="translate(11839.803 -2642.5)" fill="none" stroke="#154a5a" stroke-width="2.13" stroke-dasharray="11.709 11.709"/>
    <path id="Caminho_12218" data-name="Caminho 12218" d="M3.35,0H0" transform="translate(11833.185 -2642.5)" fill="none" stroke="#154a5a" stroke-width="2.13"/>
    <path id="Caminho_12224" data-name="Caminho 12224" d="M0,0H26.42" transform="translate(11990.232 -2538.509)" fill="none" stroke="#154a5a" stroke-width="2.13" stroke-dasharray="12 12"/>
    <path id="Caminho_11978" data-name="Caminho 11978" d="M240.844,79.648H569.3c12.96,0,23.466-7.5,23.466-16.748V0H264.311c-12.96,0-23.467,7.5-23.467,16.748Z" transform="translate(11373.399 -2776)" fill="#02a180"/>
    <path id="Caminho_12219" data-name="Caminho 12219" d="M1.743,0V-14.7H4.557L13.23-4.116H11.865V-14.7h3.36V0H12.432L3.738-10.584H5.1V0ZM25.851.252a8.94,8.94,0,0,1-3.224-.567,7.627,7.627,0,0,1-2.562-1.6,7.283,7.283,0,0,1-1.68-2.415,7.546,7.546,0,0,1-.6-3.024,7.546,7.546,0,0,1,.6-3.024,7.211,7.211,0,0,1,1.691-2.415,7.768,7.768,0,0,1,2.562-1.6,8.8,8.8,0,0,1,3.192-.567,8.772,8.772,0,0,1,3.2.567,7.674,7.674,0,0,1,2.541,1.6,7.447,7.447,0,0,1,1.69,2.4,7.413,7.413,0,0,1,.609,3.035,7.508,7.508,0,0,1-.609,3.035A7.271,7.271,0,0,1,31.574-1.9,7.763,7.763,0,0,1,29.033-.315,8.712,8.712,0,0,1,25.851.252Zm-.021-2.9a4.794,4.794,0,0,0,1.816-.336,4.356,4.356,0,0,0,1.459-.966,4.412,4.412,0,0,0,.976-1.491,5.076,5.076,0,0,0,.347-1.911,5.076,5.076,0,0,0-.347-1.911,4.493,4.493,0,0,0-.966-1.491,4.221,4.221,0,0,0-1.459-.966,4.875,4.875,0,0,0-1.827-.336,4.794,4.794,0,0,0-1.817.336,4.356,4.356,0,0,0-1.459.966,4.412,4.412,0,0,0-.977,1.491,5.076,5.076,0,0,0-.346,1.911,5.1,5.1,0,0,0,.346,1.9,4.468,4.468,0,0,0,.966,1.5A4.221,4.221,0,0,0,24-2.982,4.875,4.875,0,0,0,25.83-2.646ZM39.9,0,33.558-14.7h3.675L42.777-1.68H40.614L46.242-14.7h3.381L43.26,0ZM57.351.252a8.94,8.94,0,0,1-3.223-.567,7.627,7.627,0,0,1-2.562-1.6,7.283,7.283,0,0,1-1.68-2.415,7.547,7.547,0,0,1-.6-3.024,7.547,7.547,0,0,1,.6-3.024,7.211,7.211,0,0,1,1.691-2.415,7.768,7.768,0,0,1,2.562-1.6,8.8,8.8,0,0,1,3.192-.567,8.772,8.772,0,0,1,3.2.567,7.674,7.674,0,0,1,2.541,1.6,7.447,7.447,0,0,1,1.691,2.4,7.413,7.413,0,0,1,.609,3.035,7.508,7.508,0,0,1-.609,3.035A7.271,7.271,0,0,1,63.074-1.9,7.763,7.763,0,0,1,60.533-.315,8.712,8.712,0,0,1,57.351.252Zm-.021-2.9a4.794,4.794,0,0,0,1.817-.336,4.356,4.356,0,0,0,1.459-.966,4.412,4.412,0,0,0,.977-1.491,5.076,5.076,0,0,0,.346-1.911,5.076,5.076,0,0,0-.346-1.911,4.493,4.493,0,0,0-.966-1.491,4.221,4.221,0,0,0-1.459-.966,4.875,4.875,0,0,0-1.827-.336,4.794,4.794,0,0,0-1.816.336,4.356,4.356,0,0,0-1.46.966,4.412,4.412,0,0,0-.976,1.491,5.076,5.076,0,0,0-.347,1.911,5.1,5.1,0,0,0,.347,1.9,4.468,4.468,0,0,0,.966,1.5,4.221,4.221,0,0,0,1.459.966A4.875,4.875,0,0,0,57.33-2.646ZM80.913.252A8.8,8.8,0,0,1,77.753-.3,7.424,7.424,0,0,1,75.222-1.89a7.358,7.358,0,0,1-1.669-2.415,7.6,7.6,0,0,1-.6-3.045,7.6,7.6,0,0,1,.6-3.045,7.283,7.283,0,0,1,1.68-2.415,7.561,7.561,0,0,1,2.53-1.585,8.774,8.774,0,0,1,3.171-.557,8.686,8.686,0,0,1,3.454.661,6.73,6.73,0,0,1,2.593,1.943L84.8-10.332a5.111,5.111,0,0,0-1.68-1.291,4.714,4.714,0,0,0-2.016-.431,5.156,5.156,0,0,0-1.89.336,4.285,4.285,0,0,0-1.491.966,4.412,4.412,0,0,0-.977,1.491A5.076,5.076,0,0,0,76.4-7.35a5.076,5.076,0,0,0,.346,1.911,4.412,4.412,0,0,0,.977,1.491,4.284,4.284,0,0,0,1.491.966,5.156,5.156,0,0,0,1.89.336,4.714,4.714,0,0,0,2.016-.431A5,5,0,0,0,84.8-4.389l2.184,2.016A6.826,6.826,0,0,1,84.389-.42,8.622,8.622,0,0,1,80.913.252ZM95.8.252a8.94,8.94,0,0,1-3.224-.567,7.627,7.627,0,0,1-2.562-1.6,7.283,7.283,0,0,1-1.68-2.415,7.546,7.546,0,0,1-.6-3.024,7.546,7.546,0,0,1,.6-3.024,7.21,7.21,0,0,1,1.69-2.415,7.768,7.768,0,0,1,2.562-1.6,8.8,8.8,0,0,1,3.192-.567,8.772,8.772,0,0,1,3.2.567,7.674,7.674,0,0,1,2.541,1.6,7.447,7.447,0,0,1,1.691,2.4,7.413,7.413,0,0,1,.609,3.035,7.508,7.508,0,0,1-.609,3.035A7.271,7.271,0,0,1,101.525-1.9,7.763,7.763,0,0,1,98.984-.315,8.712,8.712,0,0,1,95.8.252Zm-.021-2.9A4.794,4.794,0,0,0,97.6-2.982a4.356,4.356,0,0,0,1.46-.966,4.412,4.412,0,0,0,.977-1.491,5.076,5.076,0,0,0,.346-1.911,5.076,5.076,0,0,0-.346-1.911,4.493,4.493,0,0,0-.966-1.491,4.221,4.221,0,0,0-1.459-.966,4.875,4.875,0,0,0-1.827-.336,4.794,4.794,0,0,0-1.816.336,4.356,4.356,0,0,0-1.46.966,4.412,4.412,0,0,0-.977,1.491,5.076,5.076,0,0,0-.346,1.911,5.1,5.1,0,0,0,.346,1.9,4.468,4.468,0,0,0,.966,1.5,4.221,4.221,0,0,0,1.46.966A4.875,4.875,0,0,0,95.781-2.646ZM106.386,0V-14.7h3.4V-2.772h7.371V0Zm10.9,0,6.552-14.7h3.36L133.77,0H130.2l-5.376-12.978h1.344L120.771,0Zm3.276-3.15.9-2.583h7.56l.924,2.583ZM135.3,0V-14.7h7.182a6.89,6.89,0,0,1,4.169,1.05,3.3,3.3,0,0,1,1.4,2.772,3.531,3.531,0,0,1-.567,2.005,3.713,3.713,0,0,1-1.554,1.313,5.293,5.293,0,0,1-2.268.462l.4-.861a6.278,6.278,0,0,1,2.457.451,3.693,3.693,0,0,1,1.669,1.334,3.763,3.763,0,0,1,.6,2.163,3.418,3.418,0,0,1-1.491,2.951A7.549,7.549,0,0,1,142.905,0Zm3.381-2.562h3.969a3.8,3.8,0,0,0,2.005-.431,1.505,1.505,0,0,0,.683-1.375,1.536,1.536,0,0,0-.683-1.376,3.651,3.651,0,0,0-2.005-.451h-4.221V-8.673h3.633a3.488,3.488,0,0,0,1.9-.431,1.458,1.458,0,0,0,.661-1.313,1.438,1.438,0,0,0-.661-1.292,3.488,3.488,0,0,0-1.9-.431h-3.381ZM158.508.252a8.94,8.94,0,0,1-3.223-.567,7.627,7.627,0,0,1-2.562-1.6,7.283,7.283,0,0,1-1.68-2.415,7.546,7.546,0,0,1-.6-3.024,7.546,7.546,0,0,1,.6-3.024,7.211,7.211,0,0,1,1.691-2.415,7.768,7.768,0,0,1,2.562-1.6,8.8,8.8,0,0,1,3.192-.567,8.772,8.772,0,0,1,3.2.567,7.674,7.674,0,0,1,2.541,1.6,7.447,7.447,0,0,1,1.691,2.4,7.413,7.413,0,0,1,.609,3.035,7.508,7.508,0,0,1-.609,3.035A7.271,7.271,0,0,1,164.231-1.9,7.763,7.763,0,0,1,161.69-.315,8.712,8.712,0,0,1,158.508.252Zm-.021-2.9a4.794,4.794,0,0,0,1.816-.336,4.356,4.356,0,0,0,1.46-.966,4.412,4.412,0,0,0,.977-1.491,5.076,5.076,0,0,0,.346-1.911,5.076,5.076,0,0,0-.346-1.911,4.492,4.492,0,0,0-.966-1.491,4.221,4.221,0,0,0-1.46-.966,4.875,4.875,0,0,0-1.827-.336,4.794,4.794,0,0,0-1.816.336,4.356,4.356,0,0,0-1.46.966,4.412,4.412,0,0,0-.977,1.491,5.076,5.076,0,0,0-.346,1.911,5.1,5.1,0,0,0,.346,1.9,4.468,4.468,0,0,0,.966,1.5,4.221,4.221,0,0,0,1.46.966A4.875,4.875,0,0,0,158.487-2.646ZM169.092,0V-14.7h6.363a8.265,8.265,0,0,1,3.4.641,4.981,4.981,0,0,1,2.205,1.838,5.13,5.13,0,0,1,.777,2.856,5.039,5.039,0,0,1-.777,2.825,4.94,4.94,0,0,1-2.205,1.816,8.385,8.385,0,0,1-3.4.63h-4.473l1.512-1.491V0Zm9.345,0-3.675-5.334H178.4L182.112,0Zm-5.943-5.208-1.512-1.6h4.284a3.482,3.482,0,0,0,2.352-.683,2.372,2.372,0,0,0,.777-1.879,2.365,2.365,0,0,0-.777-1.89,3.519,3.519,0,0,0-2.352-.672h-4.284l1.512-1.617ZM182.6,0l6.552-14.7h3.36L199.08,0h-3.57l-5.376-12.978h1.344L186.081,0Zm3.276-3.15.9-2.583h7.56l.924,2.583ZM200.613,0V-14.7h6.678a9.319,9.319,0,0,1,4.221.913,6.974,6.974,0,0,1,2.856,2.552A7.152,7.152,0,0,1,215.4-7.35a7.165,7.165,0,0,1-1.029,3.875,6.949,6.949,0,0,1-2.856,2.562A9.319,9.319,0,0,1,207.291,0Zm3.4-2.793h3.108a5.508,5.508,0,0,0,2.551-.557,4.036,4.036,0,0,0,1.68-1.586,4.718,4.718,0,0,0,.6-2.415,4.7,4.7,0,0,0-.6-2.425,4.056,4.056,0,0,0-1.68-1.575,5.508,5.508,0,0,0-2.551-.556h-3.108ZM225.1.252a8.94,8.94,0,0,1-3.223-.567,7.627,7.627,0,0,1-2.562-1.6,7.283,7.283,0,0,1-1.68-2.415,7.546,7.546,0,0,1-.6-3.024,7.546,7.546,0,0,1,.6-3.024,7.211,7.211,0,0,1,1.691-2.415,7.768,7.768,0,0,1,2.562-1.6,8.8,8.8,0,0,1,3.192-.567,8.772,8.772,0,0,1,3.2.567,7.674,7.674,0,0,1,2.541,1.6,7.447,7.447,0,0,1,1.691,2.4,7.413,7.413,0,0,1,.609,3.035,7.508,7.508,0,0,1-.609,3.035A7.271,7.271,0,0,1,230.822-1.9a7.763,7.763,0,0,1-2.541,1.586A8.712,8.712,0,0,1,225.1.252Zm-.021-2.9a4.794,4.794,0,0,0,1.816-.336,4.356,4.356,0,0,0,1.46-.966,4.412,4.412,0,0,0,.977-1.491,5.076,5.076,0,0,0,.346-1.911,5.076,5.076,0,0,0-.346-1.911,4.492,4.492,0,0,0-.966-1.491,4.221,4.221,0,0,0-1.46-.966,4.875,4.875,0,0,0-1.827-.336,4.794,4.794,0,0,0-1.816.336,4.356,4.356,0,0,0-1.46.966,4.412,4.412,0,0,0-.977,1.491,5.076,5.076,0,0,0-.346,1.911,5.1,5.1,0,0,0,.346,1.9,4.468,4.468,0,0,0,.966,1.5,4.221,4.221,0,0,0,1.46.966A4.875,4.875,0,0,0,225.078-2.646ZM235.683,0V-14.7h6.363a8.265,8.265,0,0,1,3.4.641,4.981,4.981,0,0,1,2.205,1.838,5.13,5.13,0,0,1,.777,2.856,5.039,5.039,0,0,1-.777,2.825,4.94,4.94,0,0,1-2.205,1.816,8.385,8.385,0,0,1-3.4.63h-4.473l1.512-1.491V0Zm9.345,0-3.675-5.334h3.633L248.7,0Zm-5.943-5.208-1.512-1.6h4.284a3.482,3.482,0,0,0,2.352-.683,2.372,2.372,0,0,0,.777-1.879,2.365,2.365,0,0,0-.777-1.89,3.519,3.519,0,0,0-2.352-.672h-4.284l1.512-1.617Z" transform="translate(11657.006 -2728.892)" fill="#fff"/>
    <path id="Caminho_11979" data-name="Caminho 11979" d="M79.648,376.781V30.357c0-13.67-7.5-24.751-16.748-24.751H0V352.03c0,13.67,7.5,24.751,16.748,24.751Z" transform="translate(11479.789 -2778.476)" fill="#02a180"/>
    <path id="Caminho_12213" data-name="Caminho 12213" d="M4.788,0V-11.928H.084V-14.7h12.81v2.772H8.19V0Zm9.933,0V-14.7h6.363a8.265,8.265,0,0,1,3.4.641,4.982,4.982,0,0,1,2.205,1.838,5.13,5.13,0,0,1,.777,2.856,5.039,5.039,0,0,1-.777,2.825,4.941,4.941,0,0,1-2.205,1.816,8.385,8.385,0,0,1-3.4.63H16.611l1.512-1.491V0Zm9.345,0L20.391-5.334h3.633L27.741,0ZM18.123-5.208,16.611-6.8H20.9a3.482,3.482,0,0,0,2.352-.683,2.372,2.372,0,0,0,.777-1.879,2.365,2.365,0,0,0-.777-1.89,3.519,3.519,0,0,0-2.352-.672H16.611l1.512-1.617ZM30.156,0V-14.7h3.4V0Zm6.888,0V-14.7h3.4V-2.772h7.371V0ZM59.808-14.7h3.4V0h-3.4ZM53.13,0h-3.4V-14.7h3.4Zm6.93-6.027H52.878V-8.9H60.06ZM64.764,0l6.552-14.7h3.36L81.249,0h-3.57L72.3-12.978h1.344L68.25,0ZM68.04-3.15l.9-2.583H76.5l.924,2.583ZM91.854-8.778h7.077v2.646H91.854Zm.252,6.048h8V0H88.725V-14.7H99.834v2.73H92.106ZM102.816,0V-14.7h2.814L114.3-4.116h-1.365V-14.7h3.36V0H113.5l-8.694-10.584h1.365V0Zm20.118-8.085h7.056v2.73h-7.056ZM123.186,0h-3.4V-14.7h11.109v2.73h-7.707Zm13.146-8.778h7.077v2.646h-7.077Zm.252,6.048h8V0H133.2V-14.7h11.109v2.73h-7.728ZM147.294,0V-14.7h6.363a8.265,8.265,0,0,1,3.4.641,4.981,4.981,0,0,1,2.205,1.838,5.13,5.13,0,0,1,.777,2.856,5.039,5.039,0,0,1-.777,2.825,4.94,4.94,0,0,1-2.205,1.816,8.385,8.385,0,0,1-3.4.63h-4.473L150.7-5.586V0Zm9.345,0-3.675-5.334H156.6L160.314,0ZM150.7-5.208l-1.512-1.6h4.284a3.482,3.482,0,0,0,2.352-.683,2.372,2.372,0,0,0,.777-1.879,2.365,2.365,0,0,0-.777-1.89,3.519,3.519,0,0,0-2.352-.672h-4.284l1.512-1.617ZM162.729,0V-14.7h2.814L171.8-4.326H170.31L176.463-14.7h2.793L179.3,0h-3.192l-.021-9.807h.588l-4.914,8.253h-1.533l-5.019-8.253h.714V0Zm18.123,0L187.4-14.7h3.36L197.337,0h-3.57l-5.376-12.978h1.344L184.338,0Zm3.276-3.15.9-2.583h7.56l.924,2.583Zm21.441,3.4a8.919,8.919,0,0,1-3.2-.557,7.537,7.537,0,0,1-2.541-1.586,7.283,7.283,0,0,1-1.68-2.415,7.6,7.6,0,0,1-.6-3.045,7.6,7.6,0,0,1,.6-3.045,7.211,7.211,0,0,1,1.691-2.415A7.63,7.63,0,0,1,202.4-14.4a9.066,9.066,0,0,1,3.234-.557,9.078,9.078,0,0,1,3.517.651,6.966,6.966,0,0,1,2.636,1.89L209.6-10.4a5.33,5.33,0,0,0-1.743-1.25,5.12,5.12,0,0,0-2.058-.409,5.446,5.446,0,0,0-1.953.336,4.351,4.351,0,0,0-1.523.966,4.336,4.336,0,0,0-.987,1.491,5.076,5.076,0,0,0-.346,1.911,5.017,5.017,0,0,0,.346,1.89,4.447,4.447,0,0,0,.987,1.5,4.3,4.3,0,0,0,1.512.977,5.3,5.3,0,0,0,1.921.336,6.049,6.049,0,0,0,1.964-.326,5.666,5.666,0,0,0,1.859-1.1l1.932,2.457A8.861,8.861,0,0,1,208.73-.231,10.8,10.8,0,0,1,205.569.252Zm2.835-2.31V-7.581h3.108v5.964Zm9.387-6.72h7.077v2.646h-7.077Zm.252,6.048h8V0H214.662V-14.7h11.109v2.73h-7.728ZM228.753,0V-14.7h2.814l6.258,10.374h-1.491L242.487-14.7h2.793L245.322,0H242.13l-.021-9.807h.588l-4.914,8.253H236.25l-5.019-8.253h.714V0Z" transform="translate(11526.124 -2456.618) rotate(-90)" fill="#fff"/>
    <path id="Caminho_11981" data-name="Caminho 11981" d="M240.844,255.584H569.3c12.96,0,23.466-7.5,23.466-16.748v-62.9H264.311c-12.96,0-23.467,7.5-23.467,16.748Z" transform="translate(11373.399 -2853.718)" fill="#02a180"/>
    <path id="Caminho_12220" data-name="Caminho 12220" d="M1.743,0V-14.7H8.106a8.265,8.265,0,0,1,3.4.641,4.982,4.982,0,0,1,2.205,1.838,5.13,5.13,0,0,1,.777,2.856,5.091,5.091,0,0,1-.777,2.835,4.982,4.982,0,0,1-2.205,1.838,8.265,8.265,0,0,1-3.4.641H3.633L5.145-5.586V0Zm3.4-5.208L3.633-6.825H7.917A3.519,3.519,0,0,0,10.269-7.5a2.34,2.34,0,0,0,.777-1.869,2.365,2.365,0,0,0-.777-1.89,3.519,3.519,0,0,0-2.352-.672H3.633l1.512-1.617ZM13.314,0l6.552-14.7h3.36L29.8,0h-3.57L20.853-12.978H22.2L16.8,0ZM16.59-3.15l.9-2.583h7.56l.924,2.583ZM37.968.252A8.8,8.8,0,0,1,34.807-.3a7.424,7.424,0,0,1-2.53-1.586,7.358,7.358,0,0,1-1.67-2.415,7.6,7.6,0,0,1-.6-3.045,7.6,7.6,0,0,1,.6-3.045,7.283,7.283,0,0,1,1.68-2.415A7.561,7.561,0,0,1,34.818-14.4a8.774,8.774,0,0,1,3.171-.557,8.686,8.686,0,0,1,3.455.661,6.73,6.73,0,0,1,2.593,1.943l-2.184,2.016a5.111,5.111,0,0,0-1.68-1.291,4.714,4.714,0,0,0-2.016-.431,5.156,5.156,0,0,0-1.89.336,4.284,4.284,0,0,0-1.491.966A4.412,4.412,0,0,0,33.8-9.261a5.076,5.076,0,0,0-.347,1.911A5.076,5.076,0,0,0,33.8-5.439a4.412,4.412,0,0,0,.976,1.491,4.284,4.284,0,0,0,1.491.966,5.156,5.156,0,0,0,1.89.336,4.714,4.714,0,0,0,2.016-.431,5,5,0,0,0,1.68-1.312l2.184,2.016A6.826,6.826,0,0,1,41.444-.42,8.622,8.622,0,0,1,37.968.252ZM46.326,0V-14.7h3.4V0ZM56.343-8.778H63.42v2.646H56.343ZM56.6-2.73h8V0H53.214V-14.7H64.323v2.73H56.6ZM67.3,0V-14.7h2.814L78.792-4.116H77.427V-14.7h3.36V0H77.994L69.3-10.584h1.365V0ZM87.318,0V-11.928h-4.7V-14.7h12.81v2.772h-4.7V0ZM100.38-8.778h7.077v2.646H100.38Zm.252,6.048h8V0H97.251V-14.7H108.36v2.73h-7.728ZM116.172.252a11.993,11.993,0,0,1-3.381-.473,7.911,7.911,0,0,1-2.6-1.229l1.155-2.562a8.439,8.439,0,0,0,2.237,1.1,8.219,8.219,0,0,0,2.615.431,5.445,5.445,0,0,0,1.627-.2,1.906,1.906,0,0,0,.914-.556,1.252,1.252,0,0,0,.294-.819,1.108,1.108,0,0,0-.462-.935,3.793,3.793,0,0,0-1.218-.567q-.756-.22-1.67-.42t-1.827-.494a7.727,7.727,0,0,1-1.67-.756,3.715,3.715,0,0,1-1.229-1.218,3.591,3.591,0,0,1-.472-1.932,4.1,4.1,0,0,1,.682-2.3,4.669,4.669,0,0,1,2.058-1.659,8.426,8.426,0,0,1,3.455-.62,11.557,11.557,0,0,1,2.73.326,7.867,7.867,0,0,1,2.373.976l-1.05,2.583a8.936,8.936,0,0,0-2.058-.872,7.57,7.57,0,0,0-2.016-.283,4.768,4.768,0,0,0-1.617.231,1.907,1.907,0,0,0-.9.6,1.388,1.388,0,0,0-.273.85,1.088,1.088,0,0,0,.462.913,3.648,3.648,0,0,0,1.218.557q.756.21,1.67.42t1.827.483a7.064,7.064,0,0,1,1.67.735,3.715,3.715,0,0,1,1.229,1.218,3.548,3.548,0,0,1,.472,1.911,3.974,3.974,0,0,1-.693,2.268,4.841,4.841,0,0,1-2.069,1.659A8.362,8.362,0,0,1,116.172.252ZM130.683,0V-14.7h3.4V0Zm6.888,0V-14.7h2.814l8.673,10.584h-1.365V-14.7h3.36V0H148.26l-8.694-10.584h1.365V0Zm20.013,0V-11.928h-4.7V-14.7h12.81v2.772h-4.7V0Zm13.062-8.778h7.077v2.646h-7.077ZM170.9-2.73h8V0H167.517V-14.7h11.109v2.73H170.9ZM181.608,0V-14.7h6.363a8.265,8.265,0,0,1,3.4.641,4.981,4.981,0,0,1,2.205,1.838,5.13,5.13,0,0,1,.777,2.856,5.039,5.039,0,0,1-.777,2.825,4.94,4.94,0,0,1-2.205,1.816,8.385,8.385,0,0,1-3.4.63H183.5l1.512-1.491V0Zm9.345,0-3.675-5.334h3.633L194.628,0ZM185.01-5.208,183.5-6.8h4.284a3.482,3.482,0,0,0,2.352-.683,2.372,2.372,0,0,0,.777-1.879,2.365,2.365,0,0,0-.777-1.89,3.519,3.519,0,0,0-2.352-.672H183.5l1.512-1.617ZM197.043,0V-14.7h2.814L208.53-4.116h-1.365V-14.7h3.36V0h-2.793l-8.694-10.584H200.4V0Zm15.036,0,6.552-14.7h3.36L228.564,0h-3.57l-5.376-12.978h1.344L215.565,0Zm3.276-3.15.9-2.583h7.56l.924,2.583ZM230.1,0V-14.7h6.678a9.319,9.319,0,0,1,4.221.913,6.974,6.974,0,0,1,2.856,2.552,7.152,7.152,0,0,1,1.029,3.885,7.165,7.165,0,0,1-1.029,3.875A6.949,6.949,0,0,1,241-.914,9.319,9.319,0,0,1,236.775,0Zm3.4-2.793h3.108a5.508,5.508,0,0,0,2.551-.557,4.036,4.036,0,0,0,1.68-1.586,4.718,4.718,0,0,0,.6-2.415,4.7,4.7,0,0,0-.6-2.425,4.056,4.056,0,0,0-1.68-1.575,5.508,5.508,0,0,0-2.551-.556H233.5ZM254.583.252a8.94,8.94,0,0,1-3.223-.567,7.627,7.627,0,0,1-2.562-1.6,7.283,7.283,0,0,1-1.68-2.415,7.546,7.546,0,0,1-.6-3.024,7.546,7.546,0,0,1,.6-3.024,7.211,7.211,0,0,1,1.691-2.415,7.768,7.768,0,0,1,2.562-1.6,8.8,8.8,0,0,1,3.192-.567,8.772,8.772,0,0,1,3.2.567,7.674,7.674,0,0,1,2.541,1.6,7.447,7.447,0,0,1,1.69,2.4,7.413,7.413,0,0,1,.609,3.035A7.508,7.508,0,0,1,262-4.316a7.27,7.27,0,0,1-1.69,2.415,7.763,7.763,0,0,1-2.541,1.586A8.712,8.712,0,0,1,254.583.252Zm-.021-2.9a4.794,4.794,0,0,0,1.816-.336,4.356,4.356,0,0,0,1.46-.966,4.411,4.411,0,0,0,.977-1.491,5.076,5.076,0,0,0,.346-1.911,5.076,5.076,0,0,0-.346-1.911,4.492,4.492,0,0,0-.966-1.491,4.221,4.221,0,0,0-1.46-.966,4.875,4.875,0,0,0-1.827-.336,4.794,4.794,0,0,0-1.816.336,4.356,4.356,0,0,0-1.46.966,4.412,4.412,0,0,0-.977,1.491,5.076,5.076,0,0,0-.346,1.911,5.1,5.1,0,0,0,.346,1.9,4.468,4.468,0,0,0,.966,1.5,4.221,4.221,0,0,0,1.46.966A4.875,4.875,0,0,0,254.562-2.646ZM270,.252a11.993,11.993,0,0,1-3.381-.473,7.911,7.911,0,0,1-2.6-1.229l1.155-2.562a8.438,8.438,0,0,0,2.236,1.1,8.219,8.219,0,0,0,2.615.431,5.445,5.445,0,0,0,1.628-.2,1.906,1.906,0,0,0,.914-.556,1.252,1.252,0,0,0,.294-.819,1.108,1.108,0,0,0-.462-.935,3.794,3.794,0,0,0-1.218-.567q-.756-.22-1.669-.42t-1.827-.494a7.727,7.727,0,0,1-1.669-.756,3.715,3.715,0,0,1-1.229-1.218,3.591,3.591,0,0,1-.473-1.932,4.1,4.1,0,0,1,.683-2.3,4.669,4.669,0,0,1,2.058-1.659,8.426,8.426,0,0,1,3.454-.62,11.557,11.557,0,0,1,2.73.326,7.867,7.867,0,0,1,2.373.976l-1.05,2.583a8.936,8.936,0,0,0-2.058-.872,7.57,7.57,0,0,0-2.016-.283,4.768,4.768,0,0,0-1.617.231,1.906,1.906,0,0,0-.9.6,1.388,1.388,0,0,0-.273.85,1.088,1.088,0,0,0,.462.913,3.649,3.649,0,0,0,1.218.557q.756.21,1.669.42t1.827.483a7.064,7.064,0,0,1,1.669.735,3.715,3.715,0,0,1,1.228,1.218,3.548,3.548,0,0,1,.473,1.911,3.974,3.974,0,0,1-.693,2.268,4.841,4.841,0,0,1-2.069,1.659A8.362,8.362,0,0,1,270,.252Z" transform="translate(11642.436 -2630.673)" fill="#fff"/>
    <path id="Caminho_11982" data-name="Caminho 11982" d="M240.844,431.521H569.3c12.96,0,23.466-7.5,23.466-16.748v-62.9H264.311c-12.96,0-23.467,7.5-23.467,16.748Z" transform="translate(11373.399 -2931.436)" fill="#02a180"/>
    <path id="Caminho_12221" data-name="Caminho 12221" d="M-.189,0,6.363-14.7h3.36L16.3,0h-3.57L7.35-12.978H8.694L3.3,0ZM3.087-3.15l.9-2.583h7.56l.924,2.583ZM17.829,0V-14.7h2.814L26.9-4.326H25.41L31.563-14.7h2.793L34.4,0H31.206l-.021-9.807h.588L26.859-1.554H25.326L20.307-9.807h.714V0ZM37.884,0V-14.7h7.182a6.89,6.89,0,0,1,4.169,1.05,3.3,3.3,0,0,1,1.4,2.772,3.531,3.531,0,0,1-.567,2.005A3.713,3.713,0,0,1,48.51-7.56a5.293,5.293,0,0,1-2.268.462l.4-.861a6.278,6.278,0,0,1,2.457.451,3.693,3.693,0,0,1,1.669,1.334,3.763,3.763,0,0,1,.6,2.163,3.418,3.418,0,0,1-1.491,2.951A7.549,7.549,0,0,1,45.486,0Zm3.381-2.562h3.969a3.8,3.8,0,0,0,2.005-.431,1.505,1.505,0,0,0,.683-1.375,1.536,1.536,0,0,0-.683-1.376A3.651,3.651,0,0,0,45.234-6.2H41.013V-8.673h3.633a3.488,3.488,0,0,0,1.9-.431,1.458,1.458,0,0,0,.661-1.313,1.438,1.438,0,0,0-.661-1.292,3.489,3.489,0,0,0-1.9-.431H41.265ZM60.48.252a6.659,6.659,0,0,1-4.893-1.743,6.687,6.687,0,0,1-1.764-4.977V-14.7h3.4v8.106a4.36,4.36,0,0,0,.861,3.024,3.139,3.139,0,0,0,2.415.924,3.139,3.139,0,0,0,2.415-.924,4.36,4.36,0,0,0,.861-3.024V-14.7h3.36v8.232a6.687,6.687,0,0,1-1.764,4.977A6.659,6.659,0,0,1,60.48.252ZM70.5,0V-14.7h3.4V-2.772H81.27V0Zm10.92,0,6.552-14.7h3.36L97.9,0h-3.57L88.956-12.978H90.3L84.9,0Zm3.276-3.15.9-2.583h7.56L94.08-3.15ZM101.031,0V-11.928h-4.7V-14.7h12.81v2.772h-4.7V0Zm16.653.252a8.94,8.94,0,0,1-3.224-.567,7.627,7.627,0,0,1-2.562-1.6,7.283,7.283,0,0,1-1.68-2.415,7.546,7.546,0,0,1-.6-3.024,7.546,7.546,0,0,1,.6-3.024,7.21,7.21,0,0,1,1.69-2.415,7.768,7.768,0,0,1,2.562-1.6,8.8,8.8,0,0,1,3.192-.567,8.772,8.772,0,0,1,3.2.567,7.674,7.674,0,0,1,2.541,1.6,7.447,7.447,0,0,1,1.691,2.4,7.413,7.413,0,0,1,.609,3.035,7.508,7.508,0,0,1-.609,3.035A7.271,7.271,0,0,1,123.406-1.9a7.763,7.763,0,0,1-2.541,1.586A8.712,8.712,0,0,1,117.684.252Zm-.021-2.9a4.794,4.794,0,0,0,1.816-.336,4.356,4.356,0,0,0,1.46-.966,4.412,4.412,0,0,0,.977-1.491,5.076,5.076,0,0,0,.346-1.911,5.076,5.076,0,0,0-.346-1.911,4.493,4.493,0,0,0-.966-1.491,4.221,4.221,0,0,0-1.459-.966,4.875,4.875,0,0,0-1.827-.336,4.794,4.794,0,0,0-1.816.336,4.356,4.356,0,0,0-1.46.966,4.412,4.412,0,0,0-.977,1.491,5.076,5.076,0,0,0-.346,1.911,5.1,5.1,0,0,0,.346,1.9,4.468,4.468,0,0,0,.966,1.5,4.221,4.221,0,0,0,1.46.966A4.875,4.875,0,0,0,117.663-2.646ZM128.268,0V-14.7h6.363a8.265,8.265,0,0,1,3.4.641,4.981,4.981,0,0,1,2.205,1.838,5.13,5.13,0,0,1,.777,2.856,5.039,5.039,0,0,1-.777,2.825,4.94,4.94,0,0,1-2.205,1.816,8.385,8.385,0,0,1-3.4.63h-4.473l1.512-1.491V0Zm9.345,0-3.675-5.334h3.633L141.288,0ZM131.67-5.208l-1.512-1.6h4.284a3.482,3.482,0,0,0,2.352-.683,2.372,2.372,0,0,0,.777-1.879,2.365,2.365,0,0,0-.777-1.89,3.519,3.519,0,0,0-2.352-.672h-4.284l1.512-1.617ZM143.7,0V-14.7h3.4V0Zm4.956,0,6.552-14.7h3.36L165.144,0h-3.57L156.2-12.978h1.344L152.145,0Zm3.276-3.15.9-2.583h7.56l.924,2.583ZM166.677,0V-14.7h3.4V-2.772h7.371V0Z" transform="translate(11695.325 -2532.455)" fill="#fff"/>
    <path id="Caminho_11985" data-name="Caminho 11985" d="M961.669,431.521h160.969c12.961,0,23.467-7.5,23.467-16.748v-62.9H985.135c-12.96,0-23.467,7.5-23.467,16.748Z" transform="translate(11054.983 -2931.436)" fill="#81c300"/>
    <path id="Caminho_12225" data-name="Caminho 12225" d="M4.935-2.5v-9.7H7.644v9.7ZM1.3-6.069V-8.631h10v2.562ZM21.609,0V-13.44l1.47,1.47h-4.41V-14.7h6.342V0Zm19.53,0V-2.205l-.21-.483V-6.636a2.112,2.112,0,0,0-.641-1.638,2.826,2.826,0,0,0-1.964-.588,5.7,5.7,0,0,0-1.774.283,4.7,4.7,0,0,0-1.48.767L33.894-10.1a7.084,7.084,0,0,1,2.226-1.008,9.962,9.962,0,0,1,2.646-.357,6,6,0,0,1,4.011,1.218,4.727,4.727,0,0,1,1.428,3.8V0ZM37.695.168a5.221,5.221,0,0,1-2.268-.452,3.446,3.446,0,0,1-1.449-1.229,3.134,3.134,0,0,1-.5-1.743,3.154,3.154,0,0,1,.493-1.764,3.231,3.231,0,0,1,1.564-1.187,7.6,7.6,0,0,1,2.793-.431h3v1.911H38.682a2.463,2.463,0,0,0-1.585.378,1.206,1.206,0,0,0-.431.945,1.178,1.178,0,0,0,.493,1,2.223,2.223,0,0,0,1.354.368,2.813,2.813,0,0,0,1.47-.388,2.226,2.226,0,0,0,.945-1.144l.5,1.512A2.925,2.925,0,0,1,40.131-.4,4.682,4.682,0,0,1,37.695.168ZM54.033-11.466a5.26,5.26,0,0,1,2.4.535,3.883,3.883,0,0,1,1.67,1.638,5.8,5.8,0,0,1,.609,2.825V0H55.44V-5.964a2.9,2.9,0,0,0-.6-2.016,2.181,2.181,0,0,0-1.69-.651,2.956,2.956,0,0,0-1.4.326,2.259,2.259,0,0,0-.966,1,3.749,3.749,0,0,0-.346,1.722V0H47.166V-11.3h3.129v3.129l-.588-.945a4.185,4.185,0,0,1,1.743-1.743A5.373,5.373,0,0,1,54.033-11.466ZM67.2.168A6.62,6.62,0,0,1,64-.588a5.756,5.756,0,0,1-2.205-2.069,5.589,5.589,0,0,1-.808-2.993,5.628,5.628,0,0,1,.808-3.013A5.678,5.678,0,0,1,64-10.72a6.7,6.7,0,0,1,3.2-.745,6.712,6.712,0,0,1,3.192.745A5.608,5.608,0,0,1,72.6-8.673a5.67,5.67,0,0,1,.8,3.024,5.645,5.645,0,0,1-.8,2.993A5.659,5.659,0,0,1,70.392-.588,6.636,6.636,0,0,1,67.2.168Zm0-2.688A2.873,2.873,0,0,0,68.67-2.9,2.692,2.692,0,0,0,69.7-3.98a3.479,3.479,0,0,0,.378-1.67,3.464,3.464,0,0,0-.378-1.68A2.709,2.709,0,0,0,68.67-8.4a2.873,2.873,0,0,0-1.47-.378,2.873,2.873,0,0,0-1.47.378,2.782,2.782,0,0,0-1.04,1.071,3.388,3.388,0,0,0-.388,1.68,3.4,3.4,0,0,0,.388,1.67A2.763,2.763,0,0,0,65.73-2.9,2.873,2.873,0,0,0,67.2-2.52Zm21.189-8.946a5.26,5.26,0,0,1,2.4.535,3.883,3.883,0,0,1,1.67,1.638,5.8,5.8,0,0,1,.609,2.825V0H89.8V-5.964a2.9,2.9,0,0,0-.6-2.016,2.181,2.181,0,0,0-1.69-.651,2.956,2.956,0,0,0-1.4.326,2.259,2.259,0,0,0-.966,1A3.749,3.749,0,0,0,84.8-5.586V0H81.522V-11.3h3.129v3.129l-.588-.945a4.185,4.185,0,0,1,1.743-1.743A5.373,5.373,0,0,1,88.389-11.466ZM101.577.168a6.62,6.62,0,0,1-3.2-.756A5.756,5.756,0,0,1,96.17-2.657a5.589,5.589,0,0,1-.809-2.993,5.628,5.628,0,0,1,.809-3.013,5.678,5.678,0,0,1,2.205-2.058,6.7,6.7,0,0,1,3.2-.745,6.712,6.712,0,0,1,3.192.745,5.608,5.608,0,0,1,2.205,2.047,5.67,5.67,0,0,1,.8,3.024,5.645,5.645,0,0,1-.8,2.993,5.659,5.659,0,0,1-2.205,2.069A6.637,6.637,0,0,1,101.577.168Zm0-2.688a2.873,2.873,0,0,0,1.47-.378,2.692,2.692,0,0,0,1.029-1.081,3.479,3.479,0,0,0,.378-1.67,3.464,3.464,0,0,0-.378-1.68A2.709,2.709,0,0,0,103.047-8.4a2.873,2.873,0,0,0-1.47-.378,2.873,2.873,0,0,0-1.47.378,2.782,2.782,0,0,0-1.039,1.071,3.388,3.388,0,0,0-.389,1.68,3.4,3.4,0,0,0,.389,1.67A2.763,2.763,0,0,0,100.107-2.9,2.873,2.873,0,0,0,101.577-2.52Z" transform="translate(12051.292 -2545.853)" fill="#fff"/>
    <path id="Caminho_12226" data-name="Caminho 12226" d="M6.972.168A6.929,6.929,0,0,1,3.717-.578,5.6,5.6,0,0,1,1.48-2.646a5.643,5.643,0,0,1-.808-3A5.628,5.628,0,0,1,1.48-8.663,5.624,5.624,0,0,1,3.717-10.72a6.929,6.929,0,0,1,3.255-.745,6.227,6.227,0,0,1,3.108.745,4.546,4.546,0,0,1,1.953,2.132L9.492-7.224A2.949,2.949,0,0,0,8.39-8.4a2.85,2.85,0,0,0-1.438-.378A3.03,3.03,0,0,0,5.439-8.4a2.737,2.737,0,0,0-1.06,1.071,3.388,3.388,0,0,0-.389,1.68,3.388,3.388,0,0,0,.389,1.68A2.737,2.737,0,0,0,5.439-2.9a3.03,3.03,0,0,0,1.512.378A2.913,2.913,0,0,0,8.39-2.888a2.848,2.848,0,0,0,1.1-1.187l2.541,1.386A4.564,4.564,0,0,1,10.08-.578,6.227,6.227,0,0,1,6.972.168ZM20.853,0V-2.205l-.21-.483V-6.636A2.112,2.112,0,0,0,20-8.274a2.826,2.826,0,0,0-1.963-.588,5.7,5.7,0,0,0-1.775.283,4.7,4.7,0,0,0-1.48.767L13.608-10.1a7.084,7.084,0,0,1,2.226-1.008,9.962,9.962,0,0,1,2.646-.357,6,6,0,0,1,4.011,1.218,4.727,4.727,0,0,1,1.428,3.8V0ZM17.409.168a5.221,5.221,0,0,1-2.268-.452,3.446,3.446,0,0,1-1.449-1.229,3.134,3.134,0,0,1-.5-1.743,3.154,3.154,0,0,1,.493-1.764,3.231,3.231,0,0,1,1.564-1.187,7.6,7.6,0,0,1,2.793-.431h3v1.911H18.4a2.463,2.463,0,0,0-1.585.378,1.206,1.206,0,0,0-.431.945,1.178,1.178,0,0,0,.493,1,2.223,2.223,0,0,0,1.354.368,2.813,2.813,0,0,0,1.47-.388,2.226,2.226,0,0,0,.945-1.144l.5,1.512A2.925,2.925,0,0,1,19.845-.4,4.682,4.682,0,0,1,17.409.168ZM26.88,0V-11.3h3.129v3.192l-.441-.924a3.63,3.63,0,0,1,1.617-1.817,5.5,5.5,0,0,1,2.709-.619v3.024q-.21-.021-.378-.031t-.357-.01a3.076,3.076,0,0,0-2.174.766,3.1,3.1,0,0,0-.83,2.384V0ZM40.887,4.242a12.071,12.071,0,0,1-3.076-.388,6.678,6.678,0,0,1-2.467-1.165l1.3-2.352a5.348,5.348,0,0,0,1.817.935,7.222,7.222,0,0,0,2.174.347A3.5,3.5,0,0,0,43.166.84a3.109,3.109,0,0,0,.788-2.31v-1.7l.21-2.835-.042-2.856V-11.3h3.108V-1.89a5.982,5.982,0,0,1-1.638,4.641A6.751,6.751,0,0,1,40.887,4.242Zm-.5-4.788a5.916,5.916,0,0,1-2.845-.683A5.342,5.342,0,0,1,35.5-3.14a5.3,5.3,0,0,1-.766-2.867A5.342,5.342,0,0,1,35.5-8.894a5.263,5.263,0,0,1,2.037-1.9,5.991,5.991,0,0,1,2.845-.672,5.311,5.311,0,0,1,2.52.577A3.972,3.972,0,0,1,44.6-9.1a6.873,6.873,0,0,1,.609,3.1A6.819,6.819,0,0,1,44.6-2.93a4.033,4.033,0,0,1-1.7,1.8A5.233,5.233,0,0,1,40.383-.546Zm.651-2.688a3.3,3.3,0,0,0,1.533-.346,2.572,2.572,0,0,0,1.05-.977A2.761,2.761,0,0,0,44-6.006a2.747,2.747,0,0,0-.378-1.459,2.6,2.6,0,0,0-1.05-.966,3.3,3.3,0,0,0-1.533-.346,3.3,3.3,0,0,0-1.533.346,2.669,2.669,0,0,0-1.06.966,2.69,2.69,0,0,0-.389,1.459,2.7,2.7,0,0,0,.389,1.449,2.644,2.644,0,0,0,1.06.977A3.3,3.3,0,0,0,41.034-3.234ZM55.65.168a6.62,6.62,0,0,1-3.2-.756,5.756,5.756,0,0,1-2.205-2.069,5.589,5.589,0,0,1-.808-2.993,5.628,5.628,0,0,1,.808-3.013,5.678,5.678,0,0,1,2.205-2.058,6.7,6.7,0,0,1,3.2-.745,6.712,6.712,0,0,1,3.192.745,5.608,5.608,0,0,1,2.2,2.047,5.67,5.67,0,0,1,.8,3.024,5.645,5.645,0,0,1-.8,2.993,5.659,5.659,0,0,1-2.2,2.069A6.637,6.637,0,0,1,55.65.168Zm0-2.688A2.873,2.873,0,0,0,57.12-2.9,2.692,2.692,0,0,0,58.149-3.98a3.479,3.479,0,0,0,.378-1.67,3.464,3.464,0,0,0-.378-1.68A2.709,2.709,0,0,0,57.12-8.4a2.873,2.873,0,0,0-1.47-.378,2.873,2.873,0,0,0-1.47.378,2.782,2.782,0,0,0-1.039,1.071,3.388,3.388,0,0,0-.389,1.68,3.4,3.4,0,0,0,.389,1.67A2.763,2.763,0,0,0,54.18-2.9,2.873,2.873,0,0,0,55.65-2.52Z" transform="translate(12075.543 -2519.056)" fill="#fff"/>
    <path id="Caminho_11986" data-name="Caminho 11986" d="M240.844,607.457H569.3c12.96,0,23.466-7.5,23.466-16.748v-62.9H264.311c-12.96,0-23.467,7.5-23.467,16.748Z" transform="translate(11373.399 -3009.153)" fill="#02a180"/>
    <path id="Caminho_12222" data-name="Caminho 12222" d="M1.743,0V-14.7H8.106a8.265,8.265,0,0,1,3.4.641,4.982,4.982,0,0,1,2.205,1.838,5.13,5.13,0,0,1,.777,2.856,5.091,5.091,0,0,1-.777,2.835,4.982,4.982,0,0,1-2.205,1.838,8.265,8.265,0,0,1-3.4.641H3.633L5.145-5.586V0Zm3.4-5.208L3.633-6.825H7.917A3.519,3.519,0,0,0,10.269-7.5a2.34,2.34,0,0,0,.777-1.869,2.365,2.365,0,0,0-.777-1.89,3.519,3.519,0,0,0-2.352-.672H3.633l1.512-1.617ZM13.314,0l6.552-14.7h3.36L29.8,0h-3.57L20.853-12.978H22.2L16.8,0ZM16.59-3.15l.9-2.583h7.56l.924,2.583ZM37.968.252A8.8,8.8,0,0,1,34.807-.3a7.424,7.424,0,0,1-2.53-1.586,7.358,7.358,0,0,1-1.67-2.415,7.6,7.6,0,0,1-.6-3.045,7.6,7.6,0,0,1,.6-3.045,7.283,7.283,0,0,1,1.68-2.415A7.561,7.561,0,0,1,34.818-14.4a8.774,8.774,0,0,1,3.171-.557,8.686,8.686,0,0,1,3.455.661,6.73,6.73,0,0,1,2.593,1.943l-2.184,2.016a5.111,5.111,0,0,0-1.68-1.291,4.714,4.714,0,0,0-2.016-.431,5.156,5.156,0,0,0-1.89.336,4.284,4.284,0,0,0-1.491.966A4.412,4.412,0,0,0,33.8-9.261a5.076,5.076,0,0,0-.347,1.911A5.076,5.076,0,0,0,33.8-5.439a4.412,4.412,0,0,0,.976,1.491,4.284,4.284,0,0,0,1.491.966,5.156,5.156,0,0,0,1.89.336,4.714,4.714,0,0,0,2.016-.431,5,5,0,0,0,1.68-1.312l2.184,2.016A6.826,6.826,0,0,1,41.444-.42,8.622,8.622,0,0,1,37.968.252ZM46.326,0V-14.7h3.4V0ZM56.343-8.778H63.42v2.646H56.343ZM56.6-2.73h8V0H53.214V-14.7H64.323v2.73H56.6ZM67.3,0V-14.7h2.814L78.792-4.116H77.427V-14.7h3.36V0H77.994L69.3-10.584h1.365V0ZM87.318,0V-11.928h-4.7V-14.7h12.81v2.772h-4.7V0ZM100.38-8.778h7.077v2.646H100.38Zm.252,6.048h8V0H97.251V-14.7H108.36v2.73h-7.728ZM124.32.252A8.8,8.8,0,0,1,121.16-.3a7.424,7.424,0,0,1-2.531-1.586,7.358,7.358,0,0,1-1.669-2.415,7.6,7.6,0,0,1-.6-3.045,7.6,7.6,0,0,1,.6-3.045,7.283,7.283,0,0,1,1.68-2.415,7.561,7.561,0,0,1,2.53-1.585,8.774,8.774,0,0,1,3.171-.557,8.686,8.686,0,0,1,3.454.661,6.73,6.73,0,0,1,2.594,1.943l-2.184,2.016a5.111,5.111,0,0,0-1.68-1.291,4.714,4.714,0,0,0-2.016-.431,5.156,5.156,0,0,0-1.89.336,4.285,4.285,0,0,0-1.491.966,4.412,4.412,0,0,0-.977,1.491,5.076,5.076,0,0,0-.346,1.911,5.076,5.076,0,0,0,.346,1.911,4.412,4.412,0,0,0,.977,1.491,4.284,4.284,0,0,0,1.491.966,5.156,5.156,0,0,0,1.89.336,4.714,4.714,0,0,0,2.016-.431,5,5,0,0,0,1.68-1.312l2.184,2.016A6.825,6.825,0,0,1,127.8-.42,8.622,8.622,0,0,1,124.32.252ZM132.678,0V-14.7h3.4V0Zm6.888,0V-14.7h6.363a8.265,8.265,0,0,1,3.4.641,4.981,4.981,0,0,1,2.205,1.838,5.13,5.13,0,0,1,.777,2.856,5.039,5.039,0,0,1-.777,2.825,4.94,4.94,0,0,1-2.205,1.816,8.385,8.385,0,0,1-3.4.63h-4.473l1.512-1.491V0Zm9.345,0-3.675-5.334h3.633L152.586,0Zm-5.943-5.208-1.512-1.6h4.284a3.482,3.482,0,0,0,2.352-.683,2.372,2.372,0,0,0,.777-1.879,2.365,2.365,0,0,0-.777-1.89,3.519,3.519,0,0,0-2.352-.672h-4.284l1.512-1.617ZM161.532.252a6.659,6.659,0,0,1-4.893-1.743,6.687,6.687,0,0,1-1.764-4.977V-14.7h3.4v8.106a4.36,4.36,0,0,0,.861,3.024,3.138,3.138,0,0,0,2.415.924,3.139,3.139,0,0,0,2.415-.924,4.36,4.36,0,0,0,.861-3.024V-14.7h3.36v8.232a6.687,6.687,0,0,1-1.764,4.977A6.659,6.659,0,0,1,161.532.252ZM159.642-15.9l2.835-3.024H166L162.2-15.9ZM171.549,0V-14.7h6.363a8.265,8.265,0,0,1,3.4.641,4.981,4.981,0,0,1,2.205,1.838,5.13,5.13,0,0,1,.777,2.856,5.039,5.039,0,0,1-.777,2.825,4.94,4.94,0,0,1-2.205,1.816,8.385,8.385,0,0,1-3.4.63h-4.473l1.512-1.491V0Zm9.345,0-3.675-5.334h3.633L184.569,0Zm-5.943-5.208-1.512-1.6h4.284a3.482,3.482,0,0,0,2.352-.683,2.372,2.372,0,0,0,.777-1.879,2.365,2.365,0,0,0-.777-1.89,3.519,3.519,0,0,0-2.352-.672h-4.284l1.512-1.617ZM194.082.252a8.919,8.919,0,0,1-3.2-.557,7.537,7.537,0,0,1-2.541-1.586,7.283,7.283,0,0,1-1.68-2.415,7.6,7.6,0,0,1-.6-3.045,7.6,7.6,0,0,1,.6-3.045,7.211,7.211,0,0,1,1.691-2.415,7.63,7.63,0,0,1,2.562-1.585,9.066,9.066,0,0,1,3.234-.557,9.078,9.078,0,0,1,3.518.651,6.966,6.966,0,0,1,2.635,1.89L198.114-10.4a5.33,5.33,0,0,0-1.743-1.25,5.12,5.12,0,0,0-2.058-.409,5.446,5.446,0,0,0-1.953.336,4.351,4.351,0,0,0-1.523.966,4.336,4.336,0,0,0-.987,1.491A5.076,5.076,0,0,0,189.5-7.35a5.017,5.017,0,0,0,.346,1.89,4.447,4.447,0,0,0,.987,1.5,4.3,4.3,0,0,0,1.512.977,5.3,5.3,0,0,0,1.921.336,6.049,6.049,0,0,0,1.964-.326,5.666,5.666,0,0,0,1.859-1.1l1.932,2.457a8.861,8.861,0,0,1-2.783,1.386A10.8,10.8,0,0,1,194.082.252Zm2.835-2.31V-7.581h3.108v5.964ZM203.175,0V-14.7h3.4V0ZM217.1.252a8.8,8.8,0,0,1-3.16-.557,7.424,7.424,0,0,1-2.531-1.586,7.358,7.358,0,0,1-1.67-2.415,7.6,7.6,0,0,1-.6-3.045,7.6,7.6,0,0,1,.6-3.045,7.283,7.283,0,0,1,1.68-2.415,7.56,7.56,0,0,1,2.531-1.585,8.774,8.774,0,0,1,3.171-.557,8.686,8.686,0,0,1,3.454.661,6.73,6.73,0,0,1,2.594,1.943l-2.184,2.016a5.111,5.111,0,0,0-1.68-1.291,4.714,4.714,0,0,0-2.016-.431,5.156,5.156,0,0,0-1.89.336,4.285,4.285,0,0,0-1.491.966,4.412,4.412,0,0,0-.977,1.491,5.076,5.076,0,0,0-.346,1.911,5.076,5.076,0,0,0,.346,1.911,4.412,4.412,0,0,0,.977,1.491,4.285,4.285,0,0,0,1.491.966,5.156,5.156,0,0,0,1.89.336,4.714,4.714,0,0,0,2.016-.431,5,5,0,0,0,1.68-1.312l2.184,2.016A6.825,6.825,0,0,1,220.573-.42,8.622,8.622,0,0,1,217.1.252Zm14.889,0a8.94,8.94,0,0,1-3.223-.567,7.627,7.627,0,0,1-2.562-1.6,7.283,7.283,0,0,1-1.68-2.415,7.546,7.546,0,0,1-.6-3.024,7.546,7.546,0,0,1,.6-3.024,7.211,7.211,0,0,1,1.691-2.415,7.768,7.768,0,0,1,2.562-1.6,8.8,8.8,0,0,1,3.192-.567,8.772,8.772,0,0,1,3.2.567,7.674,7.674,0,0,1,2.541,1.6,7.447,7.447,0,0,1,1.691,2.4,7.413,7.413,0,0,1,.609,3.035,7.508,7.508,0,0,1-.609,3.035A7.271,7.271,0,0,1,237.709-1.9a7.763,7.763,0,0,1-2.541,1.586A8.712,8.712,0,0,1,231.987.252Zm-.021-2.9a4.794,4.794,0,0,0,1.816-.336,4.356,4.356,0,0,0,1.46-.966,4.412,4.412,0,0,0,.977-1.491,5.076,5.076,0,0,0,.346-1.911,5.076,5.076,0,0,0-.346-1.911,4.492,4.492,0,0,0-.966-1.491,4.221,4.221,0,0,0-1.46-.966,4.875,4.875,0,0,0-1.827-.336,4.794,4.794,0,0,0-1.816.336,4.356,4.356,0,0,0-1.46.966,4.412,4.412,0,0,0-.977,1.491,5.076,5.076,0,0,0-.346,1.911,5.1,5.1,0,0,0,.346,1.9,4.468,4.468,0,0,0,.966,1.5,4.221,4.221,0,0,0,1.46.966A4.875,4.875,0,0,0,231.966-2.646Z" transform="translate(11661.417 -2434.236)" fill="#fff"/>
    <g id="Grupo_5846" data-name="Grupo 5846" transform="translate(11499 -2976)">
      <g transform="matrix(1, 0, 0, 1, -51, 132)" filter="url(#Retângulo_1347)">
        <rect id="Retângulo_1347-3" data-name="Retângulo 1347" width="227" height="144" rx="20" transform="translate(534 34)" fill="#fff"/>
      </g>
      <text id="Trilha_realizada_uma_única_vez_na_admissão_do_novo_colaborador." data-name="Trilha realizada uma única vez na admissão do novo colaborador." transform="translate(505 186)" fill="#202428" font-size="20" font-family="Montserrat-Regular, Montserrat"><tspan x="0" y="19">Trilha realizada </tspan><tspan x="0" y="43">uma única vez na </tspan><tspan x="0" y="67">admissão do novo </tspan><tspan x="0" y="91">colaborador.</tspan></text>
      <g transform="matrix(1, 0, 0, 1, -51, 132)" filter="url(#Polígono_3)">
        <path id="Polígono_3-3" data-name="Polígono 3" d="M20,0,40,34H0Z" transform="translate(500 122) rotate(-90)" fill="#fff"/>
      </g>
    </g>
    <g id="Grupo_5847" data-name="Grupo 5847" transform="translate(11529 -2617)">
      <g transform="matrix(1, 0, 0, 1, -81, -227)" filter="url(#Retângulo_1347-2)">
        <rect id="Retângulo_1347-4" data-name="Retângulo 1347" width="227" height="144" rx="20" transform="translate(564 393)" fill="#fff"/>
      </g>
      <text id="Trilha_realizada_anualmente_pela_equipe_de_enfermagem." data-name="Trilha realizada anualmente pela equipe de enfermagem." transform="translate(505 186)" fill="#202428" font-size="20" font-family="Montserrat-Regular, Montserrat"><tspan x="0" y="19">Trilha realizada </tspan><tspan x="0" y="43">anualmente pela </tspan><tspan x="0" y="67">equipe de </tspan><tspan x="0" y="91">enfermagem.</tspan></text>
      <g transform="matrix(1, 0, 0, 1, -81, -227)" filter="url(#Polígono_3-2)">
        <path id="Polígono_3-4" data-name="Polígono 3" d="M20,0,40,34H0Z" transform="translate(654 362)" fill="#fff"/>
      </g>
    </g>
    <path id="Caminho_12212" data-name="Caminho 12212" d="M0,0H812V562H0Z" transform="translate(11448 -2844)" fill="none"/>
  </g>
</svg>
