<svg xmlns="http://www.w3.org/2000/svg" xmlns:xlink="http://www.w3.org/1999/xlink" width="499.019" height="448.304" viewBox="0 0 499.019 448.304">
  <defs>
    <filter id="Caminho_12179" x="284.085" y="137" width="58" height="52" filterUnits="userSpaceOnUse">
      <feOffset dx="-5" dy="-4" input="SourceAlpha"/>
      <feGaussianBlur stdDeviation="3" result="blur"/>
      <feFlood flood-opacity="0.161"/>
      <feComposite operator="in" in2="blur"/>
      <feComposite in="SourceGraphic"/>
    </filter>
    <filter id="Caminho_12180" x="190.085" y="0" width="245" height="162" filterUnits="userSpaceOnUse">
      <feOffset dy="3" input="SourceAlpha"/>
      <feGaussianBlur stdDeviation="3" result="blur-2"/>
      <feFlood flood-opacity="0.161"/>
      <feComposite operator="in" in2="blur-2"/>
      <feComposite in="SourceGraphic"/>
    </filter>
  </defs>
  <g id="Grupo_5817" data-name="Grupo 5817" transform="translate(-12551.915 3112)">
    <path id="Caminho_11977" data-name="Caminho 11977" d="M1810.112,240.695H1653.064V347.8h157.048" transform="translate(11001.568 -3144.324)" fill="none" stroke="#154a5a" stroke-width="3"/>
    <path id="Caminho_12182" data-name="Caminho 12182" d="M26.42,0H0" transform="translate(12628.213 -2849.443)" fill="none" stroke="#154a5a" stroke-width="3"/>
    <path id="Caminho_11980" data-name="Caminho 11980" d="M1548.716,376.781V30.357c0-13.67-7.5-24.751-16.748-24.751h-62.9V352.03c0,13.67,7.5,24.751,16.748,24.751Z" transform="translate(11082.847 -3040.476)" fill="#2b7080"/>
    <path id="Caminho_12184" data-name="Caminho 12184" d="M4.788,0V-11.928H.084V-14.7h12.81v2.772H8.19V0Zm9.933,0V-14.7h6.363a8.265,8.265,0,0,1,3.4.641,4.982,4.982,0,0,1,2.205,1.838,5.13,5.13,0,0,1,.777,2.856,5.039,5.039,0,0,1-.777,2.825,4.941,4.941,0,0,1-2.205,1.816,8.385,8.385,0,0,1-3.4.63H16.611l1.512-1.491V0Zm9.345,0L20.391-5.334h3.633L27.741,0ZM18.123-5.208,16.611-6.8H20.9a3.482,3.482,0,0,0,2.352-.683,2.372,2.372,0,0,0,.777-1.879,2.365,2.365,0,0,0-.777-1.89,3.519,3.519,0,0,0-2.352-.672H16.611l1.512-1.617ZM30.156,0V-14.7h3.4V0Zm6.888,0V-14.7h3.4V-2.772h7.371V0ZM59.808-14.7h3.4V0h-3.4ZM53.13,0h-3.4V-14.7h3.4Zm6.93-6.027H52.878V-8.9H60.06ZM64.764,0l6.552-14.7h3.36L81.249,0h-3.57L72.3-12.978h1.344L68.25,0ZM68.04-3.15l.9-2.583H76.5l.924,2.583Z" transform="translate(12581.503 -2806.99) rotate(-90)" fill="#fff"/>
    <path id="Caminho_12183" data-name="Caminho 12183" d="M7.686,0V-14.7H10.5L16.758-4.326H15.267L21.42-14.7h2.793L24.255,0H21.063l-.021-9.807h.588L16.716-1.554H15.183L10.164-9.807h.714V0ZM34.272.252a6.659,6.659,0,0,1-4.893-1.743,6.687,6.687,0,0,1-1.764-4.977V-14.7h3.4v8.106a4.36,4.36,0,0,0,.861,3.024,3.139,3.139,0,0,0,2.415.924,3.139,3.139,0,0,0,2.415-.924,4.36,4.36,0,0,0,.861-3.024V-14.7h3.36v8.232a6.687,6.687,0,0,1-1.764,4.977A6.659,6.659,0,0,1,34.272.252ZM44.289,0V-14.7h3.4V-2.772h7.371V0Zm13.02,0V-11.928h-4.7V-14.7h12.81v2.772h-4.7V0Zm9.933,0V-14.7h3.4V0ZM74.13,0V-14.7h6.363a8.265,8.265,0,0,1,3.4.641A4.982,4.982,0,0,1,86.1-12.222a5.13,5.13,0,0,1,.777,2.856A5.091,5.091,0,0,1,86.1-6.531,4.982,4.982,0,0,1,83.9-4.694a8.265,8.265,0,0,1-3.4.641H76.02l1.512-1.533V0Zm3.4-5.208L76.02-6.825H80.3A3.519,3.519,0,0,0,82.656-7.5a2.34,2.34,0,0,0,.777-1.869,2.365,2.365,0,0,0-.777-1.89,3.519,3.519,0,0,0-2.352-.672H76.02l1.512-1.617ZM89.082,0V-14.7h6.363a8.265,8.265,0,0,1,3.4.641,4.982,4.982,0,0,1,2.2,1.838,5.13,5.13,0,0,1,.777,2.856,5.039,5.039,0,0,1-.777,2.825,4.941,4.941,0,0,1-2.2,1.816,8.385,8.385,0,0,1-3.4.63H90.972l1.512-1.491V0Zm9.345,0L94.752-5.334h3.633L102.1,0ZM92.484-5.208,90.972-6.8h4.284a3.482,3.482,0,0,0,2.352-.683,2.372,2.372,0,0,0,.777-1.879,2.365,2.365,0,0,0-.777-1.89,3.519,3.519,0,0,0-2.352-.672H90.972l1.512-1.617ZM111.657.252a8.94,8.94,0,0,1-3.224-.567,7.627,7.627,0,0,1-2.562-1.6,7.283,7.283,0,0,1-1.68-2.415,7.546,7.546,0,0,1-.6-3.024,7.546,7.546,0,0,1,.6-3.024,7.21,7.21,0,0,1,1.69-2.415,7.768,7.768,0,0,1,2.562-1.6,8.8,8.8,0,0,1,3.192-.567,8.772,8.772,0,0,1,3.2.567,7.674,7.674,0,0,1,2.541,1.6,7.447,7.447,0,0,1,1.691,2.4,7.413,7.413,0,0,1,.609,3.035,7.508,7.508,0,0,1-.609,3.035A7.271,7.271,0,0,1,117.38-1.9a7.763,7.763,0,0,1-2.541,1.586A8.712,8.712,0,0,1,111.657.252Zm-.021-2.9a4.794,4.794,0,0,0,1.816-.336,4.356,4.356,0,0,0,1.46-.966,4.412,4.412,0,0,0,.977-1.491,5.076,5.076,0,0,0,.346-1.911,5.076,5.076,0,0,0-.346-1.911,4.493,4.493,0,0,0-.966-1.491,4.221,4.221,0,0,0-1.459-.966,4.875,4.875,0,0,0-1.827-.336,4.794,4.794,0,0,0-1.816.336,4.356,4.356,0,0,0-1.46.966,4.412,4.412,0,0,0-.977,1.491,5.076,5.076,0,0,0-.346,1.911,5.1,5.1,0,0,0,.346,1.9,4.468,4.468,0,0,0,.966,1.5,4.221,4.221,0,0,0,1.46.966A4.875,4.875,0,0,0,111.636-2.646Zm13.755-5.439h7.056v2.73h-7.056ZM125.643,0h-3.4V-14.7H133.35v2.73h-7.707ZM135.66,0V-14.7h3.4V0Zm11.718.252A11.993,11.993,0,0,1,144-.221a7.911,7.911,0,0,1-2.6-1.229l1.155-2.562a8.438,8.438,0,0,0,2.237,1.1,8.219,8.219,0,0,0,2.614.431,5.445,5.445,0,0,0,1.628-.2,1.906,1.906,0,0,0,.913-.556,1.252,1.252,0,0,0,.294-.819,1.108,1.108,0,0,0-.462-.935,3.793,3.793,0,0,0-1.218-.567q-.756-.22-1.67-.42t-1.827-.494a7.728,7.728,0,0,1-1.67-.756,3.715,3.715,0,0,1-1.228-1.218,3.591,3.591,0,0,1-.473-1.932,4.1,4.1,0,0,1,.682-2.3,4.669,4.669,0,0,1,2.058-1.659,8.426,8.426,0,0,1,3.454-.62,11.557,11.557,0,0,1,2.73.326,7.867,7.867,0,0,1,2.373.976l-1.05,2.583a8.936,8.936,0,0,0-2.058-.872,7.57,7.57,0,0,0-2.016-.283,4.768,4.768,0,0,0-1.617.231,1.907,1.907,0,0,0-.9.6,1.388,1.388,0,0,0-.273.85,1.088,1.088,0,0,0,.462.913,3.648,3.648,0,0,0,1.218.557q.756.21,1.67.42t1.827.483a7.064,7.064,0,0,1,1.669.735,3.715,3.715,0,0,1,1.229,1.218,3.548,3.548,0,0,1,.473,1.911,3.974,3.974,0,0,1-.693,2.268,4.841,4.841,0,0,1-2.068,1.659A8.362,8.362,0,0,1,147.378.252Zm13.4,0A11.993,11.993,0,0,1,157.4-.221a7.911,7.911,0,0,1-2.6-1.229l1.155-2.562a8.438,8.438,0,0,0,2.237,1.1,8.219,8.219,0,0,0,2.614.431,5.445,5.445,0,0,0,1.628-.2,1.906,1.906,0,0,0,.913-.556,1.252,1.252,0,0,0,.294-.819,1.108,1.108,0,0,0-.462-.935,3.793,3.793,0,0,0-1.218-.567q-.756-.22-1.669-.42t-1.827-.494a7.727,7.727,0,0,1-1.669-.756,3.715,3.715,0,0,1-1.229-1.218,3.591,3.591,0,0,1-.473-1.932,4.1,4.1,0,0,1,.682-2.3,4.669,4.669,0,0,1,2.058-1.659,8.426,8.426,0,0,1,3.454-.62,11.557,11.557,0,0,1,2.73.326,7.867,7.867,0,0,1,2.373.976l-1.05,2.583a8.936,8.936,0,0,0-2.058-.872,7.57,7.57,0,0,0-2.016-.283,4.768,4.768,0,0,0-1.617.231,1.907,1.907,0,0,0-.9.6,1.388,1.388,0,0,0-.273.85,1.088,1.088,0,0,0,.462.913,3.648,3.648,0,0,0,1.218.557q.756.21,1.67.42t1.827.483a7.064,7.064,0,0,1,1.67.735,3.715,3.715,0,0,1,1.228,1.218,3.548,3.548,0,0,1,.473,1.911,3.974,3.974,0,0,1-.693,2.268,4.841,4.841,0,0,1-2.069,1.659A8.362,8.362,0,0,1,160.776.252ZM169.344,0V-14.7h3.4V0Zm14.028.252a8.94,8.94,0,0,1-3.223-.567,7.627,7.627,0,0,1-2.562-1.6,7.283,7.283,0,0,1-1.68-2.415,7.546,7.546,0,0,1-.6-3.024,7.546,7.546,0,0,1,.6-3.024,7.211,7.211,0,0,1,1.691-2.415,7.768,7.768,0,0,1,2.562-1.6,8.8,8.8,0,0,1,3.192-.567,8.772,8.772,0,0,1,3.2.567,7.674,7.674,0,0,1,2.541,1.6,7.447,7.447,0,0,1,1.691,2.4,7.413,7.413,0,0,1,.609,3.035,7.508,7.508,0,0,1-.609,3.035A7.271,7.271,0,0,1,189.094-1.9a7.763,7.763,0,0,1-2.541,1.586A8.712,8.712,0,0,1,183.372.252Zm-.021-2.9a4.794,4.794,0,0,0,1.816-.336,4.356,4.356,0,0,0,1.46-.966,4.412,4.412,0,0,0,.977-1.491,5.076,5.076,0,0,0,.346-1.911,5.076,5.076,0,0,0-.346-1.911,4.492,4.492,0,0,0-.966-1.491,4.221,4.221,0,0,0-1.46-.966,4.875,4.875,0,0,0-1.827-.336,4.794,4.794,0,0,0-1.816.336,4.356,4.356,0,0,0-1.46.966,4.412,4.412,0,0,0-.977,1.491,5.076,5.076,0,0,0-.346,1.911,5.1,5.1,0,0,0,.346,1.9,4.468,4.468,0,0,0,.966,1.5,4.221,4.221,0,0,0,1.46.966A4.875,4.875,0,0,0,183.351-2.646ZM193.956,0V-14.7h2.814l8.673,10.584h-1.365V-14.7h3.36V0h-2.793l-8.694-10.584h1.365V0Zm15.036,0,6.552-14.7h3.36L225.477,0h-3.57l-5.376-12.978h1.344L212.478,0Zm3.276-3.15.9-2.583h7.56l.924,2.583ZM227.01,0V-14.7h3.4V-2.772h7.371V0Z" transform="translate(12608.3 -2722.737) rotate(-90)" fill="#fff"/>
    <path id="Caminho_11983" data-name="Caminho 11983" d="M1732.554,255.584h328.458c12.96,0,23.467-7.5,23.467-16.748v-62.9H1756.021c-12.96,0-23.467,7.5-23.467,16.748Z" transform="translate(10966.455 -3115.718)" fill="#2b7080"/>
    <path id="Caminho_12177" data-name="Caminho 12177" d="M1.743,0V-14.7H4.557L13.23-4.116H11.865V-14.7h3.36V0H12.432L3.738-10.584H5.1V0ZM25.851.252a8.94,8.94,0,0,1-3.224-.567,7.627,7.627,0,0,1-2.562-1.6,7.283,7.283,0,0,1-1.68-2.415,7.546,7.546,0,0,1-.6-3.024,7.546,7.546,0,0,1,.6-3.024,7.211,7.211,0,0,1,1.691-2.415,7.768,7.768,0,0,1,2.562-1.6,8.8,8.8,0,0,1,3.192-.567,8.772,8.772,0,0,1,3.2.567,7.674,7.674,0,0,1,2.541,1.6,7.447,7.447,0,0,1,1.69,2.4,7.413,7.413,0,0,1,.609,3.035,7.508,7.508,0,0,1-.609,3.035A7.271,7.271,0,0,1,31.574-1.9,7.763,7.763,0,0,1,29.033-.315,8.712,8.712,0,0,1,25.851.252Zm-.021-2.9a4.794,4.794,0,0,0,1.816-.336,4.356,4.356,0,0,0,1.459-.966,4.412,4.412,0,0,0,.976-1.491,5.076,5.076,0,0,0,.347-1.911,5.076,5.076,0,0,0-.347-1.911,4.493,4.493,0,0,0-.966-1.491,4.221,4.221,0,0,0-1.459-.966,4.875,4.875,0,0,0-1.827-.336,4.794,4.794,0,0,0-1.817.336,4.356,4.356,0,0,0-1.459.966,4.412,4.412,0,0,0-.977,1.491,5.076,5.076,0,0,0-.346,1.911,5.1,5.1,0,0,0,.346,1.9,4.468,4.468,0,0,0,.966,1.5A4.221,4.221,0,0,0,24-2.982,4.875,4.875,0,0,0,25.83-2.646ZM39.879,0,33.537-14.7h3.675L42.756-1.68H40.593L46.221-14.7H49.6L43.239,0ZM57.33.252a8.94,8.94,0,0,1-3.223-.567,7.627,7.627,0,0,1-2.562-1.6,7.283,7.283,0,0,1-1.68-2.415,7.547,7.547,0,0,1-.6-3.024,7.547,7.547,0,0,1,.6-3.024,7.211,7.211,0,0,1,1.691-2.415,7.768,7.768,0,0,1,2.562-1.6,8.8,8.8,0,0,1,3.192-.567,8.772,8.772,0,0,1,3.2.567,7.674,7.674,0,0,1,2.541,1.6,7.447,7.447,0,0,1,1.69,2.4,7.413,7.413,0,0,1,.609,3.035,7.508,7.508,0,0,1-.609,3.035A7.271,7.271,0,0,1,63.052-1.9,7.763,7.763,0,0,1,60.511-.315,8.712,8.712,0,0,1,57.33.252Zm-.021-2.9a4.794,4.794,0,0,0,1.817-.336,4.356,4.356,0,0,0,1.459-.966,4.412,4.412,0,0,0,.977-1.491,5.076,5.076,0,0,0,.346-1.911,5.076,5.076,0,0,0-.346-1.911,4.493,4.493,0,0,0-.966-1.491,4.221,4.221,0,0,0-1.459-.966,4.875,4.875,0,0,0-1.827-.336,4.794,4.794,0,0,0-1.816.336,4.356,4.356,0,0,0-1.46.966,4.412,4.412,0,0,0-.976,1.491A5.076,5.076,0,0,0,52.71-7.35a5.1,5.1,0,0,0,.347,1.9,4.468,4.468,0,0,0,.966,1.5,4.221,4.221,0,0,0,1.459.966A4.875,4.875,0,0,0,57.309-2.646ZM80.892.252A8.8,8.8,0,0,1,77.731-.3,7.424,7.424,0,0,1,75.2-1.89a7.358,7.358,0,0,1-1.669-2.415,7.6,7.6,0,0,1-.6-3.045,7.6,7.6,0,0,1,.6-3.045,7.283,7.283,0,0,1,1.68-2.415,7.561,7.561,0,0,1,2.53-1.585,8.774,8.774,0,0,1,3.171-.557,8.686,8.686,0,0,1,3.454.661,6.73,6.73,0,0,1,2.593,1.943l-2.184,2.016a5.111,5.111,0,0,0-1.68-1.291,4.714,4.714,0,0,0-2.016-.431,5.156,5.156,0,0,0-1.89.336,4.285,4.285,0,0,0-1.491.966,4.412,4.412,0,0,0-.977,1.491,5.076,5.076,0,0,0-.346,1.911,5.076,5.076,0,0,0,.346,1.911A4.412,4.412,0,0,0,77.7-3.948a4.285,4.285,0,0,0,1.491.966,5.156,5.156,0,0,0,1.89.336A4.714,4.714,0,0,0,83.1-3.077a5,5,0,0,0,1.68-1.312l2.184,2.016A6.826,6.826,0,0,1,84.368-.42,8.622,8.622,0,0,1,80.892.252Zm14.889,0a8.94,8.94,0,0,1-3.224-.567A7.627,7.627,0,0,1,90-1.911a7.283,7.283,0,0,1-1.68-2.415,7.546,7.546,0,0,1-.6-3.024,7.546,7.546,0,0,1,.6-3.024,7.21,7.21,0,0,1,1.69-2.415,7.768,7.768,0,0,1,2.562-1.6,8.8,8.8,0,0,1,3.192-.567,8.772,8.772,0,0,1,3.2.567,7.674,7.674,0,0,1,2.541,1.6,7.447,7.447,0,0,1,1.691,2.4A7.413,7.413,0,0,1,103.8-7.35a7.508,7.508,0,0,1-.609,3.035A7.271,7.271,0,0,1,101.5-1.9,7.763,7.763,0,0,1,98.962-.315,8.712,8.712,0,0,1,95.781.252Zm-.021-2.9a4.794,4.794,0,0,0,1.816-.336,4.356,4.356,0,0,0,1.46-.966,4.412,4.412,0,0,0,.977-1.491,5.076,5.076,0,0,0,.346-1.911,5.076,5.076,0,0,0-.346-1.911,4.493,4.493,0,0,0-.966-1.491,4.221,4.221,0,0,0-1.459-.966,4.875,4.875,0,0,0-1.827-.336,4.794,4.794,0,0,0-1.816.336,4.356,4.356,0,0,0-1.46.966,4.412,4.412,0,0,0-.977,1.491,5.076,5.076,0,0,0-.346,1.911,5.1,5.1,0,0,0,.346,1.9,4.468,4.468,0,0,0,.966,1.5,4.221,4.221,0,0,0,1.46.966A4.875,4.875,0,0,0,95.76-2.646ZM106.365,0V-14.7h3.4V-2.772h7.371V0Zm10.9,0,6.552-14.7h3.36L133.749,0h-3.57L124.8-12.978h1.344L120.75,0Zm3.276-3.15.9-2.583H129l.924,2.583ZM135.282,0V-14.7h7.182a6.89,6.89,0,0,1,4.169,1.05,3.3,3.3,0,0,1,1.4,2.772,3.531,3.531,0,0,1-.567,2.005,3.713,3.713,0,0,1-1.554,1.313,5.293,5.293,0,0,1-2.268.462l.4-.861a6.278,6.278,0,0,1,2.457.451,3.693,3.693,0,0,1,1.669,1.334,3.763,3.763,0,0,1,.6,2.163,3.418,3.418,0,0,1-1.491,2.951A7.549,7.549,0,0,1,142.884,0Zm3.381-2.562h3.969a3.8,3.8,0,0,0,2.005-.431,1.505,1.505,0,0,0,.683-1.375,1.536,1.536,0,0,0-.683-1.376,3.651,3.651,0,0,0-2.005-.451h-4.221V-8.673h3.633a3.488,3.488,0,0,0,1.9-.431,1.458,1.458,0,0,0,.661-1.313,1.438,1.438,0,0,0-.661-1.292,3.488,3.488,0,0,0-1.9-.431h-3.381ZM158.487.252a8.94,8.94,0,0,1-3.223-.567,7.627,7.627,0,0,1-2.562-1.6,7.283,7.283,0,0,1-1.68-2.415,7.546,7.546,0,0,1-.6-3.024,7.546,7.546,0,0,1,.6-3.024,7.211,7.211,0,0,1,1.691-2.415,7.768,7.768,0,0,1,2.562-1.6,8.8,8.8,0,0,1,3.192-.567,8.772,8.772,0,0,1,3.2.567,7.674,7.674,0,0,1,2.541,1.6,7.447,7.447,0,0,1,1.691,2.4,7.413,7.413,0,0,1,.609,3.035,7.508,7.508,0,0,1-.609,3.035A7.271,7.271,0,0,1,164.21-1.9a7.763,7.763,0,0,1-2.541,1.586A8.712,8.712,0,0,1,158.487.252Zm-.021-2.9a4.794,4.794,0,0,0,1.816-.336,4.356,4.356,0,0,0,1.46-.966,4.412,4.412,0,0,0,.977-1.491,5.076,5.076,0,0,0,.346-1.911,5.076,5.076,0,0,0-.346-1.911,4.492,4.492,0,0,0-.966-1.491,4.221,4.221,0,0,0-1.46-.966,4.875,4.875,0,0,0-1.827-.336,4.794,4.794,0,0,0-1.816.336,4.356,4.356,0,0,0-1.46.966,4.412,4.412,0,0,0-.977,1.491,5.076,5.076,0,0,0-.346,1.911,5.1,5.1,0,0,0,.346,1.9,4.468,4.468,0,0,0,.966,1.5,4.221,4.221,0,0,0,1.46.966A4.875,4.875,0,0,0,158.466-2.646ZM169.071,0V-14.7h6.363a8.265,8.265,0,0,1,3.4.641,4.981,4.981,0,0,1,2.205,1.838,5.13,5.13,0,0,1,.777,2.856,5.039,5.039,0,0,1-.777,2.825,4.94,4.94,0,0,1-2.205,1.816,8.385,8.385,0,0,1-3.4.63h-4.473l1.512-1.491V0Zm9.345,0-3.675-5.334h3.633L182.091,0Zm-5.943-5.208-1.512-1.6h4.284a3.482,3.482,0,0,0,2.352-.683,2.372,2.372,0,0,0,.777-1.879,2.365,2.365,0,0,0-.777-1.89,3.519,3.519,0,0,0-2.352-.672h-4.284l1.512-1.617ZM182.574,0l6.552-14.7h3.36L199.059,0h-3.57l-5.376-12.978h1.344L186.06,0Zm3.276-3.15.9-2.583h7.56l.924,2.583ZM200.592,0V-14.7h6.678a9.319,9.319,0,0,1,4.221.913,6.974,6.974,0,0,1,2.856,2.552,7.152,7.152,0,0,1,1.029,3.885,7.165,7.165,0,0,1-1.029,3.875,6.949,6.949,0,0,1-2.856,2.562A9.319,9.319,0,0,1,207.27,0Zm3.4-2.793H207.1a5.508,5.508,0,0,0,2.551-.557,4.036,4.036,0,0,0,1.68-1.586,4.718,4.718,0,0,0,.6-2.415,4.7,4.7,0,0,0-.6-2.425,4.056,4.056,0,0,0-1.68-1.575,5.508,5.508,0,0,0-2.551-.556h-3.108ZM225.078.252a8.94,8.94,0,0,1-3.223-.567,7.627,7.627,0,0,1-2.562-1.6,7.283,7.283,0,0,1-1.68-2.415,7.546,7.546,0,0,1-.6-3.024,7.546,7.546,0,0,1,.6-3.024,7.211,7.211,0,0,1,1.691-2.415,7.768,7.768,0,0,1,2.562-1.6,8.8,8.8,0,0,1,3.192-.567,8.772,8.772,0,0,1,3.2.567,7.674,7.674,0,0,1,2.541,1.6,7.447,7.447,0,0,1,1.691,2.4A7.413,7.413,0,0,1,233.1-7.35a7.508,7.508,0,0,1-.609,3.035A7.271,7.271,0,0,1,230.8-1.9,7.763,7.763,0,0,1,228.26-.315,8.712,8.712,0,0,1,225.078.252Zm-.021-2.9a4.794,4.794,0,0,0,1.816-.336,4.356,4.356,0,0,0,1.46-.966,4.412,4.412,0,0,0,.977-1.491,5.076,5.076,0,0,0,.346-1.911,5.076,5.076,0,0,0-.346-1.911,4.492,4.492,0,0,0-.966-1.491,4.221,4.221,0,0,0-1.46-.966,4.875,4.875,0,0,0-1.827-.336,4.794,4.794,0,0,0-1.816.336,4.356,4.356,0,0,0-1.46.966,4.412,4.412,0,0,0-.977,1.491,5.076,5.076,0,0,0-.346,1.911,5.1,5.1,0,0,0,.346,1.9,4.468,4.468,0,0,0,.966,1.5,4.221,4.221,0,0,0,1.46.966A4.875,4.875,0,0,0,225.057-2.646ZM235.662,0V-14.7h6.363a8.265,8.265,0,0,1,3.4.641,4.981,4.981,0,0,1,2.205,1.838,5.13,5.13,0,0,1,.777,2.856,5.039,5.039,0,0,1-.777,2.825,4.94,4.94,0,0,1-2.205,1.816,8.385,8.385,0,0,1-3.4.63h-4.473l1.512-1.491V0Zm9.345,0-3.675-5.334h3.633L248.682,0Zm-5.943-5.208-1.512-1.6h4.284a3.482,3.482,0,0,0,2.352-.683,2.372,2.372,0,0,0,.777-1.879,2.365,2.365,0,0,0-.777-1.89,3.519,3.519,0,0,0-2.352-.672h-4.284l1.512-1.617Z" transform="translate(12741.771 -2892.673)" fill="#fff"/>
    <path id="Caminho_11984" data-name="Caminho 11984" d="M1732.554,431.521h328.458c12.96,0,23.467-7.5,23.467-16.748v-62.9H1756.021c-12.96,0-23.467,7.5-23.467,16.748Z" transform="translate(10966.455 -3193.436)" fill="#2b7080"/>
    <path id="Caminho_12178" data-name="Caminho 12178" d="M4.935-2.5v-9.7H7.644v9.7ZM1.3-6.069V-8.631h10v2.562ZM21.609,0V-13.44l1.47,1.47h-4.41V-14.7h6.342V0Zm10.9,0L39.06-14.7h3.36L48.993,0h-3.57L40.047-12.978h1.344L35.994,0Zm3.276-3.15.9-2.583h7.56l.924,2.583ZM50.526,0V-14.7H53.34L62.013-4.116H60.648V-14.7h3.36V0H61.215L52.521-10.584h1.365V0ZM74.634.252A8.94,8.94,0,0,1,71.41-.315a7.627,7.627,0,0,1-2.562-1.6,7.283,7.283,0,0,1-1.68-2.415,7.546,7.546,0,0,1-.6-3.024,7.546,7.546,0,0,1,.6-3.024,7.21,7.21,0,0,1,1.69-2.415,7.768,7.768,0,0,1,2.562-1.6,8.8,8.8,0,0,1,3.192-.567,8.772,8.772,0,0,1,3.2.567,7.674,7.674,0,0,1,2.541,1.6,7.447,7.447,0,0,1,1.69,2.4,7.413,7.413,0,0,1,.609,3.035,7.508,7.508,0,0,1-.609,3.035A7.271,7.271,0,0,1,80.356-1.9,7.763,7.763,0,0,1,77.815-.315,8.712,8.712,0,0,1,74.634.252Zm-.021-2.9a4.794,4.794,0,0,0,1.817-.336,4.356,4.356,0,0,0,1.459-.966,4.412,4.412,0,0,0,.977-1.491,5.076,5.076,0,0,0,.346-1.911,5.076,5.076,0,0,0-.346-1.911,4.493,4.493,0,0,0-.966-1.491,4.221,4.221,0,0,0-1.459-.966,4.875,4.875,0,0,0-1.827-.336,4.794,4.794,0,0,0-1.816.336,4.356,4.356,0,0,0-1.46.966,4.412,4.412,0,0,0-.977,1.491,5.076,5.076,0,0,0-.346,1.911,5.1,5.1,0,0,0,.346,1.9,4.468,4.468,0,0,0,.966,1.5,4.221,4.221,0,0,0,1.46.966A4.875,4.875,0,0,0,74.613-2.646ZM91.161,0V-14.7h2.814l8.673,10.584h-1.365V-14.7h3.36V0H101.85L93.156-10.584h1.365V0Zm24.108.252a8.94,8.94,0,0,1-3.224-.567,7.627,7.627,0,0,1-2.562-1.6,7.283,7.283,0,0,1-1.68-2.415,7.546,7.546,0,0,1-.6-3.024,7.546,7.546,0,0,1,.6-3.024,7.21,7.21,0,0,1,1.69-2.415,7.768,7.768,0,0,1,2.562-1.6,8.8,8.8,0,0,1,3.192-.567,8.772,8.772,0,0,1,3.2.567,7.674,7.674,0,0,1,2.541,1.6,7.447,7.447,0,0,1,1.691,2.4,7.413,7.413,0,0,1,.609,3.035,7.508,7.508,0,0,1-.609,3.035A7.271,7.271,0,0,1,120.992-1.9a7.763,7.763,0,0,1-2.541,1.586A8.712,8.712,0,0,1,115.269.252Zm-.021-2.9a4.794,4.794,0,0,0,1.816-.336,4.356,4.356,0,0,0,1.46-.966,4.412,4.412,0,0,0,.977-1.491,5.076,5.076,0,0,0,.346-1.911,5.076,5.076,0,0,0-.346-1.911,4.493,4.493,0,0,0-.966-1.491,4.221,4.221,0,0,0-1.459-.966,4.875,4.875,0,0,0-1.827-.336,4.794,4.794,0,0,0-1.816.336,4.356,4.356,0,0,0-1.46.966A4.412,4.412,0,0,0,111-9.261a5.076,5.076,0,0,0-.346,1.911A5.1,5.1,0,0,0,111-5.45a4.468,4.468,0,0,0,.966,1.5,4.221,4.221,0,0,0,1.46.966A4.875,4.875,0,0,0,115.248-2.646Zm23.583,2.9a8.8,8.8,0,0,1-3.16-.557A7.424,7.424,0,0,1,133.14-1.89a7.358,7.358,0,0,1-1.67-2.415,7.6,7.6,0,0,1-.6-3.045,7.6,7.6,0,0,1,.6-3.045,7.283,7.283,0,0,1,1.68-2.415,7.56,7.56,0,0,1,2.531-1.585,8.774,8.774,0,0,1,3.171-.557,8.686,8.686,0,0,1,3.454.661,6.73,6.73,0,0,1,2.594,1.943l-2.184,2.016a5.111,5.111,0,0,0-1.68-1.291,4.714,4.714,0,0,0-2.016-.431,5.156,5.156,0,0,0-1.89.336,4.285,4.285,0,0,0-1.491.966,4.412,4.412,0,0,0-.977,1.491,5.076,5.076,0,0,0-.346,1.911,5.076,5.076,0,0,0,.346,1.911,4.412,4.412,0,0,0,.977,1.491,4.285,4.285,0,0,0,1.491.966,5.156,5.156,0,0,0,1.89.336,4.714,4.714,0,0,0,2.016-.431,5,5,0,0,0,1.68-1.312L144.9-2.373A6.825,6.825,0,0,1,142.306-.42,8.622,8.622,0,0,1,138.831.252ZM144.69,0l6.552-14.7h3.36L161.175,0H157.6l-5.376-12.978h1.344L148.176,0Zm3.276-3.15.9-2.583h7.56l.924,2.583ZM162.708,0V-14.7h6.363a8.265,8.265,0,0,1,3.4.641,4.981,4.981,0,0,1,2.205,1.838,5.13,5.13,0,0,1,.777,2.856,5.039,5.039,0,0,1-.777,2.825,4.94,4.94,0,0,1-2.205,1.816,8.385,8.385,0,0,1-3.4.63H164.6l1.512-1.491V0Zm9.345,0-3.675-5.334h3.633L175.728,0ZM166.11-5.208,164.6-6.8h4.284a3.482,3.482,0,0,0,2.352-.683,2.372,2.372,0,0,0,.777-1.879,2.365,2.365,0,0,0-.777-1.89,3.519,3.519,0,0,0-2.352-.672H164.6l1.512-1.617ZM185.241.252a8.919,8.919,0,0,1-3.2-.557A7.537,7.537,0,0,1,179.5-1.89a7.283,7.283,0,0,1-1.68-2.415,7.6,7.6,0,0,1-.6-3.045,7.6,7.6,0,0,1,.6-3.045,7.211,7.211,0,0,1,1.691-2.415A7.63,7.63,0,0,1,182.07-14.4a9.066,9.066,0,0,1,3.234-.557,9.078,9.078,0,0,1,3.518.651,6.966,6.966,0,0,1,2.635,1.89L189.273-10.4a5.33,5.33,0,0,0-1.743-1.25,5.12,5.12,0,0,0-2.058-.409,5.446,5.446,0,0,0-1.953.336,4.351,4.351,0,0,0-1.523.966,4.336,4.336,0,0,0-.987,1.491,5.076,5.076,0,0,0-.346,1.911,5.017,5.017,0,0,0,.346,1.89,4.447,4.447,0,0,0,.987,1.5,4.3,4.3,0,0,0,1.512.977,5.3,5.3,0,0,0,1.921.336,6.049,6.049,0,0,0,1.964-.326,5.666,5.666,0,0,0,1.859-1.1l1.932,2.457A8.861,8.861,0,0,1,188.4-.231,10.8,10.8,0,0,1,185.241.252Zm2.835-2.31V-7.581h3.108v5.964Zm13.4,2.31a8.94,8.94,0,0,1-3.223-.567,7.627,7.627,0,0,1-2.562-1.6,7.283,7.283,0,0,1-1.68-2.415,7.546,7.546,0,0,1-.6-3.024,7.546,7.546,0,0,1,.6-3.024,7.211,7.211,0,0,1,1.691-2.415,7.768,7.768,0,0,1,2.562-1.6,8.8,8.8,0,0,1,3.192-.567,8.772,8.772,0,0,1,3.2.567,7.674,7.674,0,0,1,2.541,1.6,7.447,7.447,0,0,1,1.691,2.4A7.413,7.413,0,0,1,209.5-7.35a7.508,7.508,0,0,1-.609,3.035A7.271,7.271,0,0,1,207.2-1.9a7.763,7.763,0,0,1-2.541,1.586A8.712,8.712,0,0,1,201.474.252Zm-.021-2.9a4.794,4.794,0,0,0,1.816-.336,4.356,4.356,0,0,0,1.46-.966,4.412,4.412,0,0,0,.977-1.491,5.076,5.076,0,0,0,.346-1.911,5.076,5.076,0,0,0-.346-1.911,4.492,4.492,0,0,0-.966-1.491,4.221,4.221,0,0,0-1.46-.966,4.875,4.875,0,0,0-1.827-.336,4.794,4.794,0,0,0-1.816.336,4.356,4.356,0,0,0-1.46.966,4.412,4.412,0,0,0-.977,1.491,5.076,5.076,0,0,0-.346,1.911,5.1,5.1,0,0,0,.346,1.9,4.468,4.468,0,0,0,.966,1.5,4.221,4.221,0,0,0,1.46.966A4.875,4.875,0,0,0,201.453-2.646Z" transform="translate(12763.008 -2794.455)" fill="#fff"/>
    <g transform="matrix(1, 0, 0, 1, 12551.92, -3112)" filter="url(#Caminho_12179)">
      <path id="Caminho_12179-2" data-name="Caminho 12179" d="M20,0,40,34H0Z" transform="translate(338.08 184) rotate(180)" fill="#fff"/>
    </g>
    <g transform="matrix(1, 0, 0, 1, 12551.92, -3112)" filter="url(#Caminho_12180)">
      <path id="Caminho_12180-2" data-name="Caminho 12180" d="M20,0H207a20,20,0,0,1,20,20V124a20,20,0,0,1-20,20H20A20,20,0,0,1,0,124V20A20,20,0,0,1,20,0Z" transform="translate(199.08 6)" fill="#fff"/>
    </g>
    <path id="Caminho_12181" data-name="Caminho 12181" d="M5,19V6.28H.08V5H11.4V6.28H6.48V19Zm8.18,0V8.5h1.36v2.86l-.14-.5a3.46,3.46,0,0,1,1.48-1.83,4.9,4.9,0,0,1,2.58-.63V9.78a1.288,1.288,0,0,1-.16-.01,1.289,1.289,0,0,0-.16-.01,3.377,3.377,0,0,0-2.6,1.01,4.057,4.057,0,0,0-.94,2.87V19Zm7.86,0V8.5h1.42V19Zm.72-12.82a1,1,0,0,1-.74-.3.982.982,0,0,1-.3-.72.949.949,0,0,1,.3-.71,1.024,1.024,0,0,1,.74-.29,1.044,1.044,0,0,1,.74.28.918.918,0,0,1,.3.7,1.024,1.024,0,0,1-.29.74A1,1,0,0,1,21.76,6.18ZM26.42,19V4.16h1.42V19ZM37.16,8.4a4.926,4.926,0,0,1,2.25.49,3.523,3.523,0,0,1,1.52,1.49,5.184,5.184,0,0,1,.55,2.52V19H40.06V13.04a3.454,3.454,0,0,0-.83-2.51,3.107,3.107,0,0,0-2.33-.85,4.031,4.031,0,0,0-1.95.45,3.087,3.087,0,0,0-1.28,1.3,4.33,4.33,0,0,0-.45,2.05V19H31.8V4.16h1.42v7.22l-.28-.54a3.821,3.821,0,0,1,1.6-1.79A5.058,5.058,0,0,1,37.16,8.4ZM51.9,19V16.68l-.06-.38V12.42a2.722,2.722,0,0,0-.75-2.06,3.1,3.1,0,0,0-2.23-.72,5.551,5.551,0,0,0-1.94.34,4.942,4.942,0,0,0-1.56.9l-.64-1.06a5.675,5.675,0,0,1,1.92-1.05A7.475,7.475,0,0,1,49,8.4a4.517,4.517,0,0,1,3.15,1.01,3.949,3.949,0,0,1,1.11,3.07V19Zm-3.62.1a4.977,4.977,0,0,1-2.05-.39,3.044,3.044,0,0,1-1.33-1.08,2.8,2.8,0,0,1-.46-1.59,2.907,2.907,0,0,1,.39-1.49,2.746,2.746,0,0,1,1.28-1.08,5.792,5.792,0,0,1,2.39-.41h3.62v1.06H48.54a3.149,3.149,0,0,0-2.11.54,1.824,1.824,0,0,0,.11,2.78,3.143,3.143,0,0,0,1.96.54,3.793,3.793,0,0,0,2.07-.55,3.159,3.159,0,0,0,1.27-1.59l.32.98a3.336,3.336,0,0,1-1.39,1.66A4.613,4.613,0,0,1,48.28,19.1ZM62.36,19V8.5h1.36v2.86l-.14-.5a3.46,3.46,0,0,1,1.48-1.83,4.9,4.9,0,0,1,2.58-.63V9.78a1.289,1.289,0,0,1-.16-.01,1.289,1.289,0,0,0-.16-.01,3.377,3.377,0,0,0-2.6,1.01,4.057,4.057,0,0,0-.94,2.87V19Zm12.22.1a5.826,5.826,0,0,1-2.88-.69,5.014,5.014,0,0,1-1.94-1.9,5.43,5.43,0,0,1-.7-2.77,5.566,5.566,0,0,1,.67-2.76,4.961,4.961,0,0,1,1.84-1.89,5.426,5.426,0,0,1,5.26-.02,4.771,4.771,0,0,1,1.81,1.88,5.733,5.733,0,0,1,.66,2.79q0,.1-.01.21t-.01.23H70.14V13.12h8.38l-.56.42a4.139,4.139,0,0,0-.49-2.03,3.607,3.607,0,0,0-1.33-1.39,3.72,3.72,0,0,0-1.94-.5,3.788,3.788,0,0,0-1.94.5,3.476,3.476,0,0,0-1.34,1.4,4.31,4.31,0,0,0-.48,2.06v.22a4.116,4.116,0,0,0,.53,2.11,3.7,3.7,0,0,0,1.48,1.42,4.516,4.516,0,0,0,2.17.51,4.676,4.676,0,0,0,1.79-.34,3.719,3.719,0,0,0,1.43-1.04l.8.92a4.5,4.5,0,0,1-1.75,1.28A5.919,5.919,0,0,1,74.58,19.1Zm13.9-.1V16.68l-.06-.38V12.42a2.722,2.722,0,0,0-.75-2.06,3.1,3.1,0,0,0-2.23-.72,5.551,5.551,0,0,0-1.94.34,4.942,4.942,0,0,0-1.56.9L81.3,9.82a5.675,5.675,0,0,1,1.92-1.05,7.475,7.475,0,0,1,2.36-.37,4.517,4.517,0,0,1,3.15,1.01,3.949,3.949,0,0,1,1.11,3.07V19Zm-3.62.1a4.977,4.977,0,0,1-2.05-.39,3.044,3.044,0,0,1-1.33-1.08,2.8,2.8,0,0,1-.46-1.59,2.907,2.907,0,0,1,.39-1.49,2.746,2.746,0,0,1,1.28-1.08,5.792,5.792,0,0,1,2.39-.41H88.7v1.06H85.12a3.149,3.149,0,0,0-2.11.54,1.824,1.824,0,0,0,.11,2.78,3.143,3.143,0,0,0,1.96.54,3.793,3.793,0,0,0,2.07-.55,3.159,3.159,0,0,0,1.27-1.59l.32.98a3.336,3.336,0,0,1-1.39,1.66A4.613,4.613,0,0,1,84.86,19.1ZM93.7,19V4.16h1.42V19Zm5.38,0V8.5h1.42V19ZM99.8,6.18a1,1,0,0,1-.74-.3.982.982,0,0,1-.3-.72.949.949,0,0,1,.3-.71,1.024,1.024,0,0,1,.74-.29,1.044,1.044,0,0,1,.74.28.918.918,0,0,1,.3.7,1.024,1.024,0,0,1-.29.74A1,1,0,0,1,99.8,6.18ZM103.32,19v-.94l7-8.86.3.48h-7.18V8.5h8.3v.92l-6.98,8.88-.36-.48h7.48V19Zm17.94,0V16.68l-.06-.38V12.42a2.722,2.722,0,0,0-.75-2.06,3.1,3.1,0,0,0-2.23-.72,5.551,5.551,0,0,0-1.94.34,4.942,4.942,0,0,0-1.56.9l-.64-1.06A5.675,5.675,0,0,1,116,8.77a7.475,7.475,0,0,1,2.36-.37,4.517,4.517,0,0,1,3.15,1.01,3.949,3.949,0,0,1,1.11,3.07V19Zm-3.62.1a4.977,4.977,0,0,1-2.05-.39,3.044,3.044,0,0,1-1.33-1.08,2.8,2.8,0,0,1-.46-1.59,2.907,2.907,0,0,1,.39-1.49,2.746,2.746,0,0,1,1.28-1.08,5.792,5.792,0,0,1,2.39-.41h3.62v1.06H117.9a3.149,3.149,0,0,0-2.11.54,1.824,1.824,0,0,0,.11,2.78,3.143,3.143,0,0,0,1.96.54,3.793,3.793,0,0,0,2.07-.55,3.159,3.159,0,0,0,1.27-1.59l.32.98a3.336,3.336,0,0,1-1.39,1.66A4.613,4.613,0,0,1,117.64,19.1Zm13.02,0a5.324,5.324,0,0,1-2.69-.68,4.9,4.9,0,0,1-1.87-1.89,5.6,5.6,0,0,1-.68-2.79,5.583,5.583,0,0,1,.68-2.8,4.847,4.847,0,0,1,1.87-1.87,5.387,5.387,0,0,1,2.69-.67,4.907,4.907,0,0,1,2.47.62,4.512,4.512,0,0,1,1.74,1.81,6,6,0,0,1,.65,2.91,6.09,6.09,0,0,1-.64,2.9,4.5,4.5,0,0,1-1.73,1.83A4.885,4.885,0,0,1,130.66,19.1Zm.1-1.26a3.97,3.97,0,0,0,2.01-.51,3.638,3.638,0,0,0,1.4-1.44,4.4,4.4,0,0,0,.51-2.15,4.385,4.385,0,0,0-.51-2.16,3.656,3.656,0,0,0-1.4-1.43,3.97,3.97,0,0,0-2.01-.51,3.876,3.876,0,0,0-1.98.51,3.748,3.748,0,0,0-1.4,1.43,4.317,4.317,0,0,0-.52,2.16,4.331,4.331,0,0,0,.52,2.15,3.729,3.729,0,0,0,1.4,1.44A3.876,3.876,0,0,0,130.76,17.84ZM134.72,19V15.84l.14-2.12-.2-2.12V4.16h1.42V19Zm11.9,0V16.68l-.06-.38V12.42a2.722,2.722,0,0,0-.75-2.06,3.1,3.1,0,0,0-2.23-.72,5.551,5.551,0,0,0-1.94.34,4.942,4.942,0,0,0-1.56.9l-.64-1.06a5.675,5.675,0,0,1,1.92-1.05,7.475,7.475,0,0,1,2.36-.37,4.517,4.517,0,0,1,3.15,1.01,3.949,3.949,0,0,1,1.11,3.07V19Zm-3.62.1a4.977,4.977,0,0,1-2.05-.39,3.044,3.044,0,0,1-1.33-1.08,2.8,2.8,0,0,1-.46-1.59,2.908,2.908,0,0,1,.39-1.49,2.746,2.746,0,0,1,1.28-1.08,5.792,5.792,0,0,1,2.39-.41h3.62v1.06h-3.58a3.149,3.149,0,0,0-2.11.54,1.824,1.824,0,0,0,.11,2.78,3.143,3.143,0,0,0,1.96.54,3.793,3.793,0,0,0,2.07-.55,3.159,3.159,0,0,0,1.27-1.59l.32.98a3.336,3.336,0,0,1-1.39,1.66A4.613,4.613,0,0,1,143,19.1ZM6.32,43.1a5.171,5.171,0,0,1-2.34-.5,3.544,3.544,0,0,1-1.55-1.5,5.138,5.138,0,0,1-.55-2.5V32.5H3.3v5.94a3.485,3.485,0,0,0,.83,2.53,3.107,3.107,0,0,0,2.33.85,3.872,3.872,0,0,0,1.91-.45,2.986,2.986,0,0,0,1.24-1.31A4.562,4.562,0,0,0,10.04,38V32.5h1.42V43H10.1V40.12l.22.52a3.882,3.882,0,0,1-1.55,1.81A4.559,4.559,0,0,1,6.32,43.1ZM28.54,32.4a4.8,4.8,0,0,1,2.23.49,3.436,3.436,0,0,1,1.48,1.49,5.347,5.347,0,0,1,.53,2.52V43H31.36V37.04a3.565,3.565,0,0,0-.79-2.51,2.894,2.894,0,0,0-2.23-.85,3.716,3.716,0,0,0-1.87.45,3.03,3.03,0,0,0-1.22,1.3,4.5,4.5,0,0,0-.43,2.05V43H23.4V37.04a3.536,3.536,0,0,0-.8-2.51,2.927,2.927,0,0,0-2.24-.85,3.73,3.73,0,0,0-1.86.45,3.013,3.013,0,0,0-1.23,1.3,4.5,4.5,0,0,0-.43,2.05V43H15.42V32.5h1.36v2.84l-.22-.5a3.752,3.752,0,0,1,1.55-1.79,4.779,4.779,0,0,1,2.53-.65,4.4,4.4,0,0,1,2.62.77,3.6,3.6,0,0,1,1.4,2.31l-.56-.22a4.139,4.139,0,0,1,1.63-2.07A4.9,4.9,0,0,1,28.54,32.4ZM43.22,43V40.68l-.06-.38V36.42a2.722,2.722,0,0,0-.75-2.06,3.1,3.1,0,0,0-2.23-.72,5.551,5.551,0,0,0-1.94.34,4.942,4.942,0,0,0-1.56.9l-.64-1.06a5.675,5.675,0,0,1,1.92-1.05,7.475,7.475,0,0,1,2.36-.37,4.517,4.517,0,0,1,3.15,1.01,3.949,3.949,0,0,1,1.11,3.07V43Zm-3.62.1a4.977,4.977,0,0,1-2.05-.39,3.044,3.044,0,0,1-1.33-1.08,2.8,2.8,0,0,1-.46-1.59,2.907,2.907,0,0,1,.39-1.49,2.746,2.746,0,0,1,1.28-1.08,5.792,5.792,0,0,1,2.39-.41h3.62v1.06H39.86a3.149,3.149,0,0,0-2.11.54,1.824,1.824,0,0,0,.11,2.78,3.143,3.143,0,0,0,1.96.54,3.793,3.793,0,0,0,2.07-.55,3.159,3.159,0,0,0,1.27-1.59l.32.98a3.336,3.336,0,0,1-1.39,1.66A4.613,4.613,0,0,1,39.6,43.1Zm18.42,0a5.171,5.171,0,0,1-2.34-.5,3.544,3.544,0,0,1-1.55-1.5,5.138,5.138,0,0,1-.55-2.5V32.5H55v5.94a3.485,3.485,0,0,0,.83,2.53,3.107,3.107,0,0,0,2.33.85,3.872,3.872,0,0,0,1.91-.45,2.986,2.986,0,0,0,1.24-1.31A4.562,4.562,0,0,0,61.74,38V32.5h1.42V43H61.8V40.12l.22.52a3.882,3.882,0,0,1-1.55,1.81A4.559,4.559,0,0,1,58.02,43.1Zm-.94-12.24,2.74-2.48h1.9l-3.24,2.48Zm15.4,1.54a4.926,4.926,0,0,1,2.25.49,3.523,3.523,0,0,1,1.52,1.49,5.184,5.184,0,0,1,.55,2.52V43H75.38V37.04a3.454,3.454,0,0,0-.83-2.51,3.107,3.107,0,0,0-2.33-.85,4.031,4.031,0,0,0-1.95.45,3.087,3.087,0,0,0-1.28,1.3,4.33,4.33,0,0,0-.45,2.05V43H67.12V32.5h1.36v2.88l-.22-.54a3.821,3.821,0,0,1,1.6-1.79A5.058,5.058,0,0,1,72.48,32.4ZM80.64,43V32.5h1.42V43Zm.72-12.82a1,1,0,0,1-.74-.3.982.982,0,0,1-.3-.72.949.949,0,0,1,.3-.71,1.024,1.024,0,0,1,.74-.29,1.044,1.044,0,0,1,.74.28.918.918,0,0,1,.3.7,1.024,1.024,0,0,1-.29.74A1,1,0,0,1,81.36,30.18ZM90.38,43.1a5.6,5.6,0,0,1-2.79-.69,5.033,5.033,0,0,1-1.93-1.9,5.85,5.85,0,0,1,0-5.55,4.982,4.982,0,0,1,1.93-1.88,5.669,5.669,0,0,1,2.79-.68,5.507,5.507,0,0,1,2.42.52,3.921,3.921,0,0,1,1.7,1.56l-1.06.72a3.332,3.332,0,0,0-1.34-1.18,4.217,4.217,0,0,0-3.76.13,3.705,3.705,0,0,0-1.42,1.43,4.746,4.746,0,0,0,0,4.32,3.705,3.705,0,0,0,1.42,1.43,4.217,4.217,0,0,0,3.76.13,3.381,3.381,0,0,0,1.34-1.16l1.06.72a4.022,4.022,0,0,1-1.7,1.55A5.42,5.42,0,0,1,90.38,43.1Zm13.48-.1V40.68l-.06-.38V36.42a2.722,2.722,0,0,0-.75-2.06,3.1,3.1,0,0,0-2.23-.72,5.551,5.551,0,0,0-1.94.34,4.942,4.942,0,0,0-1.56.9l-.64-1.06a5.675,5.675,0,0,1,1.92-1.05,7.475,7.475,0,0,1,2.36-.37,4.517,4.517,0,0,1,3.15,1.01,3.949,3.949,0,0,1,1.11,3.07V43Zm-3.62.1a4.977,4.977,0,0,1-2.05-.39,3.044,3.044,0,0,1-1.33-1.08,2.8,2.8,0,0,1-.46-1.59,2.907,2.907,0,0,1,.39-1.49,2.746,2.746,0,0,1,1.28-1.08,5.792,5.792,0,0,1,2.39-.41h3.62v1.06H100.5a3.149,3.149,0,0,0-2.11.54,1.824,1.824,0,0,0,.11,2.78,3.143,3.143,0,0,0,1.96.54,3.793,3.793,0,0,0,2.07-.55,3.159,3.159,0,0,0,1.27-1.59l.32.98a3.336,3.336,0,0,1-1.39,1.66A4.613,4.613,0,0,1,100.24,43.1Zm16.78-.1-4.66-10.5h1.48l4.28,9.74h-.7l4.34-9.74h1.4L118.48,43Zm12.3.1a5.826,5.826,0,0,1-2.88-.69,5.014,5.014,0,0,1-1.94-1.9,5.43,5.43,0,0,1-.7-2.77,5.566,5.566,0,0,1,.67-2.76,4.961,4.961,0,0,1,1.84-1.89,5.426,5.426,0,0,1,5.26-.02,4.771,4.771,0,0,1,1.81,1.88,5.734,5.734,0,0,1,.66,2.79q0,.1-.01.21t-.01.23h-9.14V37.12h8.38l-.56.42a4.139,4.139,0,0,0-.49-2.03,3.606,3.606,0,0,0-1.33-1.39,3.72,3.72,0,0,0-1.94-.5,3.788,3.788,0,0,0-1.94.5,3.476,3.476,0,0,0-1.34,1.4,4.31,4.31,0,0,0-.48,2.06v.22a4.116,4.116,0,0,0,.53,2.11,3.7,3.7,0,0,0,1.48,1.42,4.516,4.516,0,0,0,2.17.51,4.676,4.676,0,0,0,1.79-.34,3.719,3.719,0,0,0,1.43-1.04l.8.92a4.5,4.5,0,0,1-1.75,1.28A5.919,5.919,0,0,1,129.32,43.1Zm6.38-.1v-.94l7-8.86.3.48h-7.18V32.5h8.3v.92l-6.98,8.88-.36-.48h7.48V43Zm21.96-10.6a4.926,4.926,0,0,1,2.25.49,3.523,3.523,0,0,1,1.52,1.49,5.184,5.184,0,0,1,.55,2.52V43h-1.42V37.04a3.454,3.454,0,0,0-.83-2.51,3.107,3.107,0,0,0-2.33-.85,4.031,4.031,0,0,0-1.95.45,3.087,3.087,0,0,0-1.28,1.3,4.33,4.33,0,0,0-.45,2.05V43H152.3V32.5h1.36v2.88l-.22-.54a3.821,3.821,0,0,1,1.6-1.79A5.059,5.059,0,0,1,157.66,32.4ZM172.4,43V40.68l-.06-.38V36.42a2.722,2.722,0,0,0-.75-2.06,3.1,3.1,0,0,0-2.23-.72,5.551,5.551,0,0,0-1.94.34,4.942,4.942,0,0,0-1.56.9l-.64-1.06a5.675,5.675,0,0,1,1.92-1.05,7.475,7.475,0,0,1,2.36-.37,4.517,4.517,0,0,1,3.15,1.01,3.949,3.949,0,0,1,1.11,3.07V43Zm-3.62.1a4.977,4.977,0,0,1-2.05-.39,3.044,3.044,0,0,1-1.33-1.08,2.8,2.8,0,0,1-.46-1.59,2.908,2.908,0,0,1,.39-1.49,2.746,2.746,0,0,1,1.28-1.08,5.792,5.792,0,0,1,2.39-.41h3.62v1.06h-3.58a3.149,3.149,0,0,0-2.11.54,1.824,1.824,0,0,0,.11,2.78,3.143,3.143,0,0,0,1.96.54,3.793,3.793,0,0,0,2.07-.55,3.159,3.159,0,0,0,1.27-1.59l.32.98a3.336,3.336,0,0,1-1.39,1.66A4.613,4.613,0,0,1,168.78,43.1ZM8.56,67V64.68L8.5,64.3V60.42a2.722,2.722,0,0,0-.75-2.06,3.1,3.1,0,0,0-2.23-.72,5.551,5.551,0,0,0-1.94.34,4.942,4.942,0,0,0-1.56.9l-.64-1.06A5.675,5.675,0,0,1,3.3,56.77a7.475,7.475,0,0,1,2.36-.37,4.517,4.517,0,0,1,3.15,1.01,3.949,3.949,0,0,1,1.11,3.07V67Zm-3.62.1a4.977,4.977,0,0,1-2.05-.39,3.044,3.044,0,0,1-1.33-1.08,2.8,2.8,0,0,1-.46-1.59,2.907,2.907,0,0,1,.39-1.49,2.746,2.746,0,0,1,1.28-1.08,5.792,5.792,0,0,1,2.39-.41H8.78v1.06H5.2a3.149,3.149,0,0,0-2.11.54,1.824,1.824,0,0,0,.11,2.78,3.143,3.143,0,0,0,1.96.54,3.793,3.793,0,0,0,2.07-.55A3.159,3.159,0,0,0,8.5,63.84l.32.98a3.336,3.336,0,0,1-1.39,1.66A4.613,4.613,0,0,1,4.94,67.1Zm13.02,0a5.324,5.324,0,0,1-2.69-.68,4.9,4.9,0,0,1-1.87-1.89,6.084,6.084,0,0,1,0-5.59,4.847,4.847,0,0,1,1.87-1.87,5.387,5.387,0,0,1,2.69-.67,4.907,4.907,0,0,1,2.47.62,4.512,4.512,0,0,1,1.74,1.81,6,6,0,0,1,.65,2.91,6.09,6.09,0,0,1-.64,2.9,4.5,4.5,0,0,1-1.73,1.83A4.885,4.885,0,0,1,17.96,67.1Zm.1-1.26a3.97,3.97,0,0,0,2.01-.51,3.639,3.639,0,0,0,1.4-1.44,4.808,4.808,0,0,0,0-4.31,3.656,3.656,0,0,0-1.4-1.43,3.97,3.97,0,0,0-2.01-.51,3.876,3.876,0,0,0-1.98.51,3.748,3.748,0,0,0-1.4,1.43,4.725,4.725,0,0,0,0,4.31,3.729,3.729,0,0,0,1.4,1.44A3.876,3.876,0,0,0,18.06,65.84ZM22.02,67V63.84l.14-2.12-.2-2.12V52.16h1.42V67ZM40.46,56.4a4.8,4.8,0,0,1,2.23.49,3.436,3.436,0,0,1,1.48,1.49,5.347,5.347,0,0,1,.53,2.52V67H43.28V61.04a3.565,3.565,0,0,0-.79-2.51,2.894,2.894,0,0,0-2.23-.85,3.716,3.716,0,0,0-1.87.45,3.03,3.03,0,0,0-1.22,1.3,4.5,4.5,0,0,0-.43,2.05V67H35.32V61.04a3.536,3.536,0,0,0-.8-2.51,2.927,2.927,0,0,0-2.24-.85,3.73,3.73,0,0,0-1.86.45,3.013,3.013,0,0,0-1.23,1.3,4.5,4.5,0,0,0-.43,2.05V67H27.34V56.5H28.7v2.84l-.22-.5a3.752,3.752,0,0,1,1.55-1.79,4.779,4.779,0,0,1,2.53-.65,4.4,4.4,0,0,1,2.62.77,3.6,3.6,0,0,1,1.4,2.31l-.56-.22a4.139,4.139,0,0,1,1.63-2.07A4.9,4.9,0,0,1,40.46,56.4ZM48.56,67V56.5h1.42V67Zm.72-12.82a1,1,0,0,1-.74-.3.982.982,0,0,1-.3-.72.949.949,0,0,1,.3-.71,1.024,1.024,0,0,1,.74-.29,1.044,1.044,0,0,1,.74.28.918.918,0,0,1,.3.7,1.024,1.024,0,0,1-.29.74A1,1,0,0,1,49.28,54.18ZM56.76,67.1a8.048,8.048,0,0,1-2.46-.37,5.275,5.275,0,0,1-1.82-.93l.64-1.12a6.069,6.069,0,0,0,1.64.83,6.311,6.311,0,0,0,2.1.35,3.813,3.813,0,0,0,2.16-.47,1.462,1.462,0,0,0,.66-1.25,1.157,1.157,0,0,0-.37-.91,2.427,2.427,0,0,0-.97-.5A11.961,11.961,0,0,0,57,62.44q-.74-.12-1.47-.28a5.4,5.4,0,0,1-1.33-.47,2.6,2.6,0,0,1-.97-.85,2.506,2.506,0,0,1-.37-1.44,2.606,2.606,0,0,1,.48-1.54,3.169,3.169,0,0,1,1.41-1.07,5.871,5.871,0,0,1,2.27-.39,7.943,7.943,0,0,1,2.04.27,5.613,5.613,0,0,1,1.68.71l-.62,1.14a4.784,4.784,0,0,0-1.5-.69,6.279,6.279,0,0,0-1.6-.21,3.565,3.565,0,0,0-2.09.49,1.489,1.489,0,0,0-.67,1.25,1.213,1.213,0,0,0,.37.94,2.543,2.543,0,0,0,.98.53,9.929,9.929,0,0,0,1.34.31q.73.12,1.46.29a6.6,6.6,0,0,1,1.34.46,2.457,2.457,0,0,1,.98.82,2.38,2.38,0,0,1,.37,1.39,2.55,2.55,0,0,1-.51,1.59,3.262,3.262,0,0,1-1.48,1.04A6.611,6.611,0,0,1,56.76,67.1Zm9.76,0a8.048,8.048,0,0,1-2.46-.37,5.275,5.275,0,0,1-1.82-.93l.64-1.12a6.069,6.069,0,0,0,1.64.83,6.311,6.311,0,0,0,2.1.35,3.813,3.813,0,0,0,2.16-.47,1.462,1.462,0,0,0,.66-1.25,1.157,1.157,0,0,0-.37-.91,2.427,2.427,0,0,0-.97-.5,11.961,11.961,0,0,0-1.34-.29q-.74-.12-1.47-.28a5.4,5.4,0,0,1-1.33-.47,2.6,2.6,0,0,1-.97-.85,2.506,2.506,0,0,1-.37-1.44,2.606,2.606,0,0,1,.48-1.54,3.169,3.169,0,0,1,1.41-1.07,5.871,5.871,0,0,1,2.27-.39,7.943,7.943,0,0,1,2.04.27,5.613,5.613,0,0,1,1.68.71l-.62,1.14a4.784,4.784,0,0,0-1.5-.69,6.279,6.279,0,0,0-1.6-.21,3.565,3.565,0,0,0-2.09.49,1.489,1.489,0,0,0-.67,1.25,1.213,1.213,0,0,0,.37.94,2.543,2.543,0,0,0,.98.53,9.929,9.929,0,0,0,1.34.31q.73.12,1.46.29a6.6,6.6,0,0,1,1.34.46,2.457,2.457,0,0,1,.98.82,2.38,2.38,0,0,1,.37,1.39,2.549,2.549,0,0,1-.51,1.59,3.262,3.262,0,0,1-1.48,1.04A6.611,6.611,0,0,1,66.52,67.1ZM80.04,67V64.68l-.06-.38V60.42a2.722,2.722,0,0,0-.75-2.06A3.1,3.1,0,0,0,77,57.64a5.551,5.551,0,0,0-1.94.34,4.942,4.942,0,0,0-1.56.9l-.64-1.06a5.675,5.675,0,0,1,1.92-1.05,7.475,7.475,0,0,1,2.36-.37,4.517,4.517,0,0,1,3.15,1.01,3.949,3.949,0,0,1,1.11,3.07V67Zm-3.62.1a4.977,4.977,0,0,1-2.05-.39,3.044,3.044,0,0,1-1.33-1.08,2.8,2.8,0,0,1-.46-1.59,2.907,2.907,0,0,1,.39-1.49,2.746,2.746,0,0,1,1.28-1.08,5.792,5.792,0,0,1,2.39-.41h3.62v1.06H76.68a3.149,3.149,0,0,0-2.11.54,1.824,1.824,0,0,0,.11,2.78,3.143,3.143,0,0,0,1.96.54,3.793,3.793,0,0,0,2.07-.55,3.159,3.159,0,0,0,1.27-1.59l.32.98a3.336,3.336,0,0,1-1.39,1.66A4.613,4.613,0,0,1,76.42,67.1Zm2.12-12.36a1.66,1.66,0,0,1-.82-.2,3.3,3.3,0,0,1-.65-.47,7.036,7.036,0,0,0-.57-.48.955.955,0,0,0-.58-.21.883.883,0,0,0-.73.34,1.659,1.659,0,0,0-.31.94h-.86a2.626,2.626,0,0,1,.53-1.6,1.564,1.564,0,0,1,1.27-.6,1.652,1.652,0,0,1,.83.21,3.5,3.5,0,0,1,.66.48,6.55,6.55,0,0,0,.56.47.942.942,0,0,0,.57.2.923.923,0,0,0,.74-.33,1.443,1.443,0,0,0,.3-.91h.86a2.439,2.439,0,0,1-.52,1.56A1.592,1.592,0,0,1,78.54,54.74Zm11,12.36a5.412,5.412,0,0,1-2.73-.69,5.074,5.074,0,0,1-1.91-1.9,5.85,5.85,0,0,1,0-5.55,5.043,5.043,0,0,1,1.9-1.88,5.46,5.46,0,0,1,2.74-.68,5.556,5.556,0,0,1,2.77.68,4.95,4.95,0,0,1,1.9,1.88,5.925,5.925,0,0,1,0,5.55,4.981,4.981,0,0,1-1.91,1.9A5.507,5.507,0,0,1,89.54,67.1Zm0-1.26a3.955,3.955,0,0,0,2.02-.51,3.659,3.659,0,0,0,1.39-1.44,4.808,4.808,0,0,0,0-4.31,3.677,3.677,0,0,0-1.39-1.43,4.177,4.177,0,0,0-4,0,3.748,3.748,0,0,0-1.4,1.43,4.725,4.725,0,0,0,0,4.31,3.729,3.729,0,0,0,1.4,1.44A3.876,3.876,0,0,0,89.54,65.84Zm17.68,1.26a5.324,5.324,0,0,1-2.69-.68,4.9,4.9,0,0,1-1.87-1.89,6.084,6.084,0,0,1,0-5.59,4.847,4.847,0,0,1,1.87-1.87,5.387,5.387,0,0,1,2.69-.67,4.907,4.907,0,0,1,2.47.62,4.512,4.512,0,0,1,1.74,1.81,6,6,0,0,1,.65,2.91,6.09,6.09,0,0,1-.64,2.9,4.5,4.5,0,0,1-1.73,1.83A4.885,4.885,0,0,1,107.22,67.1Zm.1-1.26a3.97,3.97,0,0,0,2.01-.51,3.639,3.639,0,0,0,1.4-1.44,4.808,4.808,0,0,0,0-4.31,3.656,3.656,0,0,0-1.4-1.43,3.97,3.97,0,0,0-2.01-.51,3.876,3.876,0,0,0-1.98.51,3.748,3.748,0,0,0-1.4,1.43,4.725,4.725,0,0,0,0,4.31,3.729,3.729,0,0,0,1.4,1.44A3.876,3.876,0,0,0,107.32,65.84ZM111.28,67V63.84l.14-2.12-.2-2.12V52.16h1.42V67Zm9.6.1a5.412,5.412,0,0,1-2.73-.69,5.074,5.074,0,0,1-1.91-1.9,5.85,5.85,0,0,1,0-5.55,5.043,5.043,0,0,1,1.9-1.88,5.46,5.46,0,0,1,2.74-.68,5.556,5.556,0,0,1,2.77.68,4.95,4.95,0,0,1,1.9,1.88,5.925,5.925,0,0,1,0,5.55,4.981,4.981,0,0,1-1.91,1.9A5.507,5.507,0,0,1,120.88,67.1Zm0-1.26a3.955,3.955,0,0,0,2.02-.51,3.659,3.659,0,0,0,1.39-1.44,4.808,4.808,0,0,0,0-4.31,3.677,3.677,0,0,0-1.39-1.43,4.177,4.177,0,0,0-4,0,3.748,3.748,0,0,0-1.4,1.43,4.725,4.725,0,0,0,0,4.31,3.729,3.729,0,0,0,1.4,1.44A3.876,3.876,0,0,0,120.88,65.84Zm18.86-9.44a4.926,4.926,0,0,1,2.25.49,3.523,3.523,0,0,1,1.52,1.49,5.184,5.184,0,0,1,.55,2.52V67h-1.42V61.04a3.454,3.454,0,0,0-.83-2.51,3.107,3.107,0,0,0-2.33-.85,4.031,4.031,0,0,0-1.95.45,3.087,3.087,0,0,0-1.28,1.3,4.33,4.33,0,0,0-.45,2.05V67h-1.42V56.5h1.36v2.88l-.22-.54a3.821,3.821,0,0,1,1.6-1.79A5.058,5.058,0,0,1,139.74,56.4Zm12.44,10.7a5.412,5.412,0,0,1-2.73-.69,5.074,5.074,0,0,1-1.91-1.9,5.85,5.85,0,0,1,0-5.55,5.043,5.043,0,0,1,1.9-1.88,5.46,5.46,0,0,1,2.74-.68,5.556,5.556,0,0,1,2.77.68,4.949,4.949,0,0,1,1.9,1.88,5.925,5.925,0,0,1,0,5.55,4.981,4.981,0,0,1-1.91,1.9A5.508,5.508,0,0,1,152.18,67.1Zm0-1.26a3.955,3.955,0,0,0,2.02-.51,3.659,3.659,0,0,0,1.39-1.44,4.808,4.808,0,0,0,0-4.31,3.677,3.677,0,0,0-1.39-1.43,4.177,4.177,0,0,0-4,0,3.748,3.748,0,0,0-1.4,1.43,4.725,4.725,0,0,0,0,4.31,3.729,3.729,0,0,0,1.4,1.44A3.876,3.876,0,0,0,152.18,65.84ZM162.84,67l-4.66-10.5h1.48l4.28,9.74h-.7l4.34-9.74h1.4L164.3,67Zm12.12.1a5.412,5.412,0,0,1-2.73-.69,5.074,5.074,0,0,1-1.91-1.9,5.85,5.85,0,0,1,0-5.55,5.043,5.043,0,0,1,1.9-1.88,5.46,5.46,0,0,1,2.74-.68,5.556,5.556,0,0,1,2.77.68,4.949,4.949,0,0,1,1.9,1.88,5.925,5.925,0,0,1,0,5.55,4.981,4.981,0,0,1-1.91,1.9A5.508,5.508,0,0,1,174.96,67.1Zm0-1.26a3.955,3.955,0,0,0,2.02-.51,3.659,3.659,0,0,0,1.39-1.44,4.808,4.808,0,0,0,0-4.31,3.677,3.677,0,0,0-1.39-1.43,4.177,4.177,0,0,0-4,0,3.748,3.748,0,0,0-1.4,1.43,4.725,4.725,0,0,0,0,4.31,3.729,3.729,0,0,0,1.4,1.44A3.876,3.876,0,0,0,174.96,65.84ZM6.34,91.1a5.6,5.6,0,0,1-2.79-.69,5.033,5.033,0,0,1-1.93-1.9,5.85,5.85,0,0,1,0-5.55,4.982,4.982,0,0,1,1.93-1.88,5.669,5.669,0,0,1,2.79-.68,5.507,5.507,0,0,1,2.42.52,3.921,3.921,0,0,1,1.7,1.56L9.4,83.2a3.332,3.332,0,0,0-1.34-1.18,4,4,0,0,0-1.74-.38,4.025,4.025,0,0,0-2.02.51,3.705,3.705,0,0,0-1.42,1.43,4.746,4.746,0,0,0,0,4.32A3.705,3.705,0,0,0,4.3,89.33a4.025,4.025,0,0,0,2.02.51,4,4,0,0,0,1.74-.38A3.381,3.381,0,0,0,9.4,88.3l1.06.72a4.022,4.022,0,0,1-1.7,1.55A5.42,5.42,0,0,1,6.34,91.1Zm11,0a5.412,5.412,0,0,1-2.73-.69,5.074,5.074,0,0,1-1.91-1.9,5.85,5.85,0,0,1,0-5.55,5.043,5.043,0,0,1,1.9-1.88,5.46,5.46,0,0,1,2.74-.68,5.556,5.556,0,0,1,2.77.68,4.95,4.95,0,0,1,1.9,1.88,5.925,5.925,0,0,1,0,5.55,4.981,4.981,0,0,1-1.91,1.9A5.507,5.507,0,0,1,17.34,91.1Zm0-1.26a3.955,3.955,0,0,0,2.02-.51,3.659,3.659,0,0,0,1.39-1.44,4.808,4.808,0,0,0,0-4.31,3.677,3.677,0,0,0-1.39-1.43,4.177,4.177,0,0,0-4,0,3.748,3.748,0,0,0-1.4,1.43,4.725,4.725,0,0,0,0,4.31,3.729,3.729,0,0,0,1.4,1.44A3.876,3.876,0,0,0,17.34,89.84ZM25.6,91V76.16h1.42V91Zm11.96,0V88.68l-.06-.38V84.42a2.722,2.722,0,0,0-.75-2.06,3.1,3.1,0,0,0-2.23-.72,5.551,5.551,0,0,0-1.94.34,4.942,4.942,0,0,0-1.56.9l-.64-1.06a5.675,5.675,0,0,1,1.92-1.05,7.475,7.475,0,0,1,2.36-.37,4.517,4.517,0,0,1,3.15,1.01,3.949,3.949,0,0,1,1.11,3.07V91Zm-3.62.1a4.977,4.977,0,0,1-2.05-.39,3.044,3.044,0,0,1-1.33-1.08,2.8,2.8,0,0,1-.46-1.59,2.907,2.907,0,0,1,.39-1.49,2.746,2.746,0,0,1,1.28-1.08,5.791,5.791,0,0,1,2.39-.41h3.62v1.06H34.2a3.149,3.149,0,0,0-2.11.54,1.824,1.824,0,0,0,.11,2.78,3.143,3.143,0,0,0,1.96.54,3.793,3.793,0,0,0,2.07-.55,3.159,3.159,0,0,0,1.27-1.59l.32.98a3.336,3.336,0,0,1-1.39,1.66A4.613,4.613,0,0,1,33.94,91.1Zm14.26,0a4.9,4.9,0,0,1-2.48-.63,4.48,4.48,0,0,1-1.74-1.83,6.09,6.09,0,0,1-.64-2.9,6,6,0,0,1,.65-2.91,4.492,4.492,0,0,1,1.75-1.81,4.922,4.922,0,0,1,2.46-.62,5.387,5.387,0,0,1,2.69.67,4.847,4.847,0,0,1,1.87,1.87,6.084,6.084,0,0,1,0,5.59,4.9,4.9,0,0,1-1.87,1.89A5.324,5.324,0,0,1,48.2,91.1ZM42.78,91V76.16H44.2V83.6L44,85.72l.14,2.12V91Zm5.32-1.16a3.915,3.915,0,0,0,2-.51,3.729,3.729,0,0,0,1.4-1.44,4.725,4.725,0,0,0,0-4.31,3.748,3.748,0,0,0-1.4-1.43,3.915,3.915,0,0,0-2-.51,3.97,3.97,0,0,0-2.01.51,3.656,3.656,0,0,0-1.4,1.43,4.808,4.808,0,0,0,0,4.31,3.638,3.638,0,0,0,1.4,1.44A3.97,3.97,0,0,0,48.1,89.84ZM60.62,91.1a5.412,5.412,0,0,1-2.73-.69,5.074,5.074,0,0,1-1.91-1.9,5.85,5.85,0,0,1,0-5.55,5.043,5.043,0,0,1,1.9-1.88,5.46,5.46,0,0,1,2.74-.68,5.556,5.556,0,0,1,2.77.68,4.95,4.95,0,0,1,1.9,1.88,5.925,5.925,0,0,1,0,5.55,4.981,4.981,0,0,1-1.91,1.9A5.507,5.507,0,0,1,60.62,91.1Zm0-1.26a3.955,3.955,0,0,0,2.02-.51,3.659,3.659,0,0,0,1.39-1.44,4.808,4.808,0,0,0,0-4.31,3.677,3.677,0,0,0-1.39-1.43,4.177,4.177,0,0,0-4,0,3.748,3.748,0,0,0-1.4,1.43,4.725,4.725,0,0,0,0,4.31,3.729,3.729,0,0,0,1.4,1.44A3.876,3.876,0,0,0,60.62,89.84ZM68.88,91V80.5h1.36v2.86l-.14-.5a3.46,3.46,0,0,1,1.48-1.83,4.9,4.9,0,0,1,2.58-.63v1.38a1.289,1.289,0,0,1-.16-.01,1.29,1.29,0,0,0-.16-.01,3.377,3.377,0,0,0-2.6,1.01,4.057,4.057,0,0,0-.94,2.87V91Zm13.66,0V88.68l-.06-.38V84.42a2.722,2.722,0,0,0-.75-2.06,3.1,3.1,0,0,0-2.23-.72,5.551,5.551,0,0,0-1.94.34,4.942,4.942,0,0,0-1.56.9l-.64-1.06a5.675,5.675,0,0,1,1.92-1.05,7.475,7.475,0,0,1,2.36-.37,4.517,4.517,0,0,1,3.15,1.01,3.949,3.949,0,0,1,1.11,3.07V91Zm-3.62.1a4.977,4.977,0,0,1-2.05-.39,3.044,3.044,0,0,1-1.33-1.08,2.8,2.8,0,0,1-.46-1.59,2.907,2.907,0,0,1,.39-1.49,2.746,2.746,0,0,1,1.28-1.08,5.791,5.791,0,0,1,2.39-.41h3.62v1.06H79.18a3.149,3.149,0,0,0-2.11.54,1.824,1.824,0,0,0,.11,2.78,3.143,3.143,0,0,0,1.96.54,3.793,3.793,0,0,0,2.07-.55,3.159,3.159,0,0,0,1.27-1.59l.32.98a3.336,3.336,0,0,1-1.39,1.66A4.613,4.613,0,0,1,78.92,91.1Zm13.02,0a5.324,5.324,0,0,1-2.69-.68,4.9,4.9,0,0,1-1.87-1.89,6.084,6.084,0,0,1,0-5.59,4.847,4.847,0,0,1,1.87-1.87,5.387,5.387,0,0,1,2.69-.67,4.907,4.907,0,0,1,2.47.62,4.513,4.513,0,0,1,1.74,1.81,6,6,0,0,1,.65,2.91,6.09,6.09,0,0,1-.64,2.9,4.5,4.5,0,0,1-1.73,1.83A4.885,4.885,0,0,1,91.94,91.1Zm.1-1.26a3.97,3.97,0,0,0,2.01-.51,3.639,3.639,0,0,0,1.4-1.44,4.808,4.808,0,0,0,0-4.31,3.656,3.656,0,0,0-1.4-1.43,3.97,3.97,0,0,0-2.01-.51,3.876,3.876,0,0,0-1.98.51,3.748,3.748,0,0,0-1.4,1.43,4.725,4.725,0,0,0,0,4.31,3.729,3.729,0,0,0,1.4,1.44A3.876,3.876,0,0,0,92.04,89.84ZM96,91V87.84l.14-2.12-.2-2.12V76.16h1.42V91Zm9.6.1a5.412,5.412,0,0,1-2.73-.69,5.074,5.074,0,0,1-1.91-1.9,5.85,5.85,0,0,1,0-5.55,5.043,5.043,0,0,1,1.9-1.88,5.46,5.46,0,0,1,2.74-.68,5.556,5.556,0,0,1,2.77.68,4.95,4.95,0,0,1,1.9,1.88,5.925,5.925,0,0,1,0,5.55,4.981,4.981,0,0,1-1.91,1.9A5.507,5.507,0,0,1,105.6,91.1Zm0-1.26a3.955,3.955,0,0,0,2.02-.51,3.659,3.659,0,0,0,1.39-1.44,4.808,4.808,0,0,0,0-4.31,3.677,3.677,0,0,0-1.39-1.43,4.177,4.177,0,0,0-4,0,3.748,3.748,0,0,0-1.4,1.43,4.725,4.725,0,0,0,0,4.31,3.729,3.729,0,0,0,1.4,1.44A3.876,3.876,0,0,0,105.6,89.84ZM113.86,91V80.5h1.36v2.86l-.14-.5a3.46,3.46,0,0,1,1.48-1.83,4.9,4.9,0,0,1,2.58-.63v1.38a1.289,1.289,0,0,1-.16-.01,1.29,1.29,0,0,0-.16-.01,3.377,3.377,0,0,0-2.6,1.01,4.057,4.057,0,0,0-.94,2.87V91Z" transform="translate(12773 -3086)" fill="#202428"/>
  </g>
</svg>
