<svg xmlns="http://www.w3.org/2000/svg" width="100.453" height="112.392" viewBox="0 0 100.453 112.392">
  <g id="XMLID_2110_" transform="translate(-102.8 -54.233)">
    <g id="XMLID_2103_" transform="translate(102.8 54.233)">
      <g id="XMLID_18_" transform="translate(0 0)">
        <path id="XMLID_22_" d="M154.272,166.258q6.224-3.959,12.46-7.906c1.878-1.191,3.781-2.369,5.61-3.646a71.761,71.761,0,0,0,26.982-35.637,74.658,74.658,0,0,0,3.928-24.576V78.155a2.509,2.509,0,0,0-1.8-2.369c-.54-.16-1.093-.319-1.633-.491-.516-.16-1.031-.344-1.534-.528-.258-.1-.5-.2-.749-.295a1.45,1.45,0,0,0-.331-.135c.282.123.344.147.172.074-.086-.037-.16-.074-.246-.11a31.848,31.848,0,0,1-5.7-3.241c-.2-.135-.381-.27-.565-.417-.025-.025-.491-.368-.172-.123.27.209-.037-.025-.1-.074q-.663-.516-1.289-1.068a31.3,31.3,0,0,1-2.332-2.271c-.356-.393-.712-.786-1.043-1.191-.172-.2-.344-.405-.5-.614a1.733,1.733,0,0,0-.221-.282l.11.147c-.049-.074-.11-.135-.16-.209-.638-.847-1.228-1.731-1.78-2.639a33.9,33.9,0,0,1-1.743-3.3l-.147-.331c-.037-.086-.074-.16-.11-.246-.074-.172-.049-.11.074.172a3.2,3.2,0,0,0-.331-.835c-.221-.565-.417-1.129-.6-1.706a2.524,2.524,0,0,0-2.369-1.8H134.091c-2.025,0-4.063-.074-6.089,0h-.086a2.524,2.524,0,0,0-2.369,1.8c-.147.454-.307.921-.466,1.363-.1.258-.2.5-.295.761a3,3,0,0,1-.172.417c.135-.27.123-.295,0-.012q-.663,1.51-1.473,2.946c-.54.945-1.129,1.878-1.755,2.762-.147.221-.307.43-.466.638a1.12,1.12,0,0,0-.209.282c.135-.344.2-.246.061-.074-.368.454-.737.908-1.129,1.35-.7.786-1.436,1.547-2.21,2.271-.393.356-.786.712-1.191,1.056-.2.172-.405.344-.614.5-.086.074-.184.147-.282.221l.147-.11c-.074.049-.135.11-.209.16a33.335,33.335,0,0,1-5.536,3.339c-.295.135-.589.27-.9.405-.147.061-.5.27.012,0-.135.074-.282.11-.417.172-.589.233-1.178.454-1.78.651-.687.221-1.375.43-2.062.638a2.524,2.524,0,0,0-1.8,2.369v14.8c0,2.6,0,5.2.184,7.807a71.789,71.789,0,0,0,16.879,41.382,69.588,69.588,0,0,0,10.582,10.152c2.382,1.854,4.873,3.523,7.415,5.131l13.589,8.618c.11.074.233.147.344.221a2.459,2.459,0,0,0,2.48-4.247q-6.169-3.9-12.337-7.82c-1.792-1.142-3.609-2.259-5.365-3.462-1.019-.7-2.05-1.4-3.008-2.185.491.405-.282-.221-.381-.295-.221-.172-.43-.344-.651-.528-.5-.405-.994-.822-1.485-1.24a66.688,66.688,0,0,1-5.291-5.082q-1.252-1.326-2.431-2.725c-.356-.417-.7-.835-1.043-1.264-.184-.233-.381-.479-.565-.712-.27-.344,0,.012.049.061-.135-.16-.258-.331-.381-.5a69.007,69.007,0,0,1-4.014-5.941,71.091,71.091,0,0,1-3.425-6.4c-.258-.552-.5-1.1-.749-1.657l-.147-.331c-.012-.025-.246-.577-.086-.209s-.074-.184-.086-.209c-.074-.172-.135-.331-.209-.5-.454-1.129-.884-2.259-1.277-3.413a69.44,69.44,0,0,1-2.013-7.022c-.27-1.191-.516-2.394-.724-3.6-.1-.54-.184-1.093-.27-1.633a7.36,7.36,0,0,0-.135-.908c.135.516.037.258.012.1-.025-.209-.049-.43-.074-.638a79.2,79.2,0,0,1-.491-9.5V78.191c-.6.786-1.2,1.584-1.8,2.369a37.618,37.618,0,0,0,11.343-5.315,35.348,35.348,0,0,0,9.71-10.484,34.91,34.91,0,0,0,3.3-7.341c-.786.6-1.584,1.2-2.369,1.8h44.058c2.026,0,4.063.086,6.089,0h.086c-.786-.6-1.584-1.2-2.369-1.8a34.9,34.9,0,0,0,18.131,20.832,45.247,45.247,0,0,0,6.236,2.308c-.6-.786-1.2-1.584-1.8-2.369V92.849c0,2.492.012,5-.16,7.488-.086,1.228-.2,2.467-.344,3.683-.012.135-.123,1.154-.049.442-.025.27-.074.552-.123.822-.1.638-.2,1.277-.307,1.9a70.673,70.673,0,0,1-1.657,7.132,66.222,66.222,0,0,1-2.357,6.788c-.1.258-.2.5-.307.761.27-.614-.11.27-.184.417-.258.577-.516,1.166-.786,1.731q-.755,1.6-1.584,3.167a67.877,67.877,0,0,1-3.756,6.212c-.675,1.007-1.387,1.989-2.111,2.958-.086.123-.184.246-.27.356-.233.307.368-.466,0,.012-.184.233-.381.479-.565.712-.381.479-.761.945-1.154,1.412a70.808,70.808,0,0,1-5.009,5.328q-1.326,1.271-2.725,2.467c-.417.356-.847.712-1.277,1.068-.233.2-.479.393-.724.577-.1.074-.2.147-.295.233s-.2.147-.295.233c.233-.172.27-.209.135-.1-2.185,1.669-4.468,3.167-6.789,4.64q-6.739,4.272-13.491,8.556c-.11.074-.233.147-.344.221a2.5,2.5,0,0,0-.884,3.364A2.56,2.56,0,0,0,154.272,166.258Z" transform="translate(-102.8 -54.233)" fill="#00a4e1"/>
      </g>
    </g>
    <g id="XMLID_2054_" transform="translate(129.045 89.964)">
      <g id="XMLID_12_" transform="translate(0 0)">
        <path id="XMLID_16_" d="M317.3,363.761l12.607,12.607,1.792,1.792a2.494,2.494,0,0,0,3.474,0l9.735-9.735,15.406-15.406,3.548-3.548A2.457,2.457,0,1,0,360.386,346l-9.735,9.735-15.406,15.406-3.548,3.548h3.474l-12.607-12.607-1.792-1.792a2.457,2.457,0,1,0-3.474,3.474Z" transform="translate(-316.598 -345.298)" fill="#00a4e1"/>
      </g>
    </g>
  </g>
</svg>
