<svg xmlns="http://www.w3.org/2000/svg" xmlns:xlink="http://www.w3.org/1999/xlink" width="566" height="568" viewBox="0 0 566 568">
  <defs>
    <filter id="Polígono_3" x="328" y="137" width="58" height="52" filterUnits="userSpaceOnUse">
      <feOffset dx="-5" dy="-4" input="SourceAlpha"/>
      <feGaussianBlur stdDeviation="3" result="blur"/>
      <feFlood flood-opacity="0.161"/>
      <feComposite operator="in" in2="blur"/>
      <feComposite in="SourceGraphic"/>
    </filter>
    <filter id="Retângulo_1347" x="234" y="0" width="245" height="162" filterUnits="userSpaceOnUse">
      <feOffset dy="3" input="SourceAlpha"/>
      <feGaussianBlur stdDeviation="3" result="blur-2"/>
      <feFlood flood-opacity="0.161"/>
      <feComposite operator="in" in2="blur-2"/>
      <feComposite in="SourceGraphic"/>
    </filter>
  </defs>
  <g id="Grupo_5850" data-name="Grupo 5850" transform="translate(-12328 2850)">
    <path id="Caminho_11977" data-name="Caminho 11977" d="M1810.112,240.695H1653.064V347.8h157.048" transform="translate(10821.568 -2882.324)" fill="none" stroke="#154a5a" stroke-width="3"/>
    <path id="Caminho_12209" data-name="Caminho 12209" d="M26.42,0H0" transform="translate(12448.213 -2587.443)" fill="none" stroke="#154a5a" stroke-width="3"/>
    <path id="Caminho_11980" data-name="Caminho 11980" d="M1548.716,376.781V30.357c0-13.67-7.5-24.751-16.748-24.751h-62.9V352.03c0,13.67,7.5,24.751,16.748,24.751Z" transform="translate(10902.847 -2778.476)" fill="#2b7080"/>
    <path id="Caminho_12211" data-name="Caminho 12211" d="M4.788,0V-11.928H.084V-14.7h12.81v2.772H8.19V0Zm9.933,0V-14.7h6.363a8.265,8.265,0,0,1,3.4.641,4.982,4.982,0,0,1,2.205,1.838,5.13,5.13,0,0,1,.777,2.856,5.039,5.039,0,0,1-.777,2.825,4.941,4.941,0,0,1-2.205,1.816,8.385,8.385,0,0,1-3.4.63H16.611l1.512-1.491V0Zm9.345,0L20.391-5.334h3.633L27.741,0ZM18.123-5.208,16.611-6.8H20.9a3.482,3.482,0,0,0,2.352-.683,2.372,2.372,0,0,0,.777-1.879,2.365,2.365,0,0,0-.777-1.89,3.519,3.519,0,0,0-2.352-.672H16.611l1.512-1.617ZM30.156,0V-14.7h3.4V0Zm6.888,0V-14.7h3.4V-2.772h7.371V0ZM59.808-14.7h3.4V0h-3.4ZM53.13,0h-3.4V-14.7h3.4Zm6.93-6.027H52.878V-8.9H60.06ZM64.764,0l6.552-14.7h3.36L81.249,0h-3.57L72.3-12.978h1.344L68.25,0ZM68.04-3.15l.9-2.583H76.5l.924,2.583Z" transform="translate(12401.503 -2544.99) rotate(-90)" fill="#fff"/>
    <path id="Caminho_12210" data-name="Caminho 12210" d="M7.686,0V-14.7H10.5L16.758-4.326H15.267L21.42-14.7h2.793L24.255,0H21.063l-.021-9.807h.588L16.716-1.554H15.183L10.164-9.807h.714V0ZM34.272.252a6.659,6.659,0,0,1-4.893-1.743,6.687,6.687,0,0,1-1.764-4.977V-14.7h3.4v8.106a4.36,4.36,0,0,0,.861,3.024,3.139,3.139,0,0,0,2.415.924,3.139,3.139,0,0,0,2.415-.924,4.36,4.36,0,0,0,.861-3.024V-14.7h3.36v8.232a6.687,6.687,0,0,1-1.764,4.977A6.659,6.659,0,0,1,34.272.252ZM44.289,0V-14.7h3.4V-2.772h7.371V0Zm13.02,0V-11.928h-4.7V-14.7h12.81v2.772h-4.7V0Zm9.933,0V-14.7h3.4V0ZM74.13,0V-14.7h6.363a8.265,8.265,0,0,1,3.4.641A4.982,4.982,0,0,1,86.1-12.222a5.13,5.13,0,0,1,.777,2.856A5.091,5.091,0,0,1,86.1-6.531,4.982,4.982,0,0,1,83.9-4.694a8.265,8.265,0,0,1-3.4.641H76.02l1.512-1.533V0Zm3.4-5.208L76.02-6.825H80.3A3.519,3.519,0,0,0,82.656-7.5a2.34,2.34,0,0,0,.777-1.869,2.365,2.365,0,0,0-.777-1.89,3.519,3.519,0,0,0-2.352-.672H76.02l1.512-1.617ZM89.082,0V-14.7h6.363a8.265,8.265,0,0,1,3.4.641,4.982,4.982,0,0,1,2.2,1.838,5.13,5.13,0,0,1,.777,2.856,5.039,5.039,0,0,1-.777,2.825,4.941,4.941,0,0,1-2.2,1.816,8.385,8.385,0,0,1-3.4.63H90.972l1.512-1.491V0Zm9.345,0L94.752-5.334h3.633L102.1,0ZM92.484-5.208,90.972-6.8h4.284a3.482,3.482,0,0,0,2.352-.683,2.372,2.372,0,0,0,.777-1.879,2.365,2.365,0,0,0-.777-1.89,3.519,3.519,0,0,0-2.352-.672H90.972l1.512-1.617ZM111.657.252a8.94,8.94,0,0,1-3.224-.567,7.627,7.627,0,0,1-2.562-1.6,7.283,7.283,0,0,1-1.68-2.415,7.546,7.546,0,0,1-.6-3.024,7.546,7.546,0,0,1,.6-3.024,7.21,7.21,0,0,1,1.69-2.415,7.768,7.768,0,0,1,2.562-1.6,8.8,8.8,0,0,1,3.192-.567,8.772,8.772,0,0,1,3.2.567,7.674,7.674,0,0,1,2.541,1.6,7.447,7.447,0,0,1,1.691,2.4,7.413,7.413,0,0,1,.609,3.035,7.508,7.508,0,0,1-.609,3.035A7.271,7.271,0,0,1,117.38-1.9a7.763,7.763,0,0,1-2.541,1.586A8.712,8.712,0,0,1,111.657.252Zm-.021-2.9a4.794,4.794,0,0,0,1.816-.336,4.356,4.356,0,0,0,1.46-.966,4.412,4.412,0,0,0,.977-1.491,5.076,5.076,0,0,0,.346-1.911,5.076,5.076,0,0,0-.346-1.911,4.493,4.493,0,0,0-.966-1.491,4.221,4.221,0,0,0-1.459-.966,4.875,4.875,0,0,0-1.827-.336,4.794,4.794,0,0,0-1.816.336,4.356,4.356,0,0,0-1.46.966,4.412,4.412,0,0,0-.977,1.491,5.076,5.076,0,0,0-.346,1.911,5.1,5.1,0,0,0,.346,1.9,4.468,4.468,0,0,0,.966,1.5,4.221,4.221,0,0,0,1.46.966A4.875,4.875,0,0,0,111.636-2.646Zm13.755-5.439h7.056v2.73h-7.056ZM125.643,0h-3.4V-14.7H133.35v2.73h-7.707ZM135.66,0V-14.7h3.4V0Zm11.718.252A11.993,11.993,0,0,1,144-.221a7.911,7.911,0,0,1-2.6-1.229l1.155-2.562a8.438,8.438,0,0,0,2.237,1.1,8.219,8.219,0,0,0,2.614.431,5.445,5.445,0,0,0,1.628-.2,1.906,1.906,0,0,0,.913-.556,1.252,1.252,0,0,0,.294-.819,1.108,1.108,0,0,0-.462-.935,3.793,3.793,0,0,0-1.218-.567q-.756-.22-1.67-.42t-1.827-.494a7.728,7.728,0,0,1-1.67-.756,3.715,3.715,0,0,1-1.228-1.218,3.591,3.591,0,0,1-.473-1.932,4.1,4.1,0,0,1,.682-2.3,4.669,4.669,0,0,1,2.058-1.659,8.426,8.426,0,0,1,3.454-.62,11.557,11.557,0,0,1,2.73.326,7.867,7.867,0,0,1,2.373.976l-1.05,2.583a8.936,8.936,0,0,0-2.058-.872,7.57,7.57,0,0,0-2.016-.283,4.768,4.768,0,0,0-1.617.231,1.907,1.907,0,0,0-.9.6,1.388,1.388,0,0,0-.273.85,1.088,1.088,0,0,0,.462.913,3.648,3.648,0,0,0,1.218.557q.756.21,1.67.42t1.827.483a7.064,7.064,0,0,1,1.669.735,3.715,3.715,0,0,1,1.229,1.218,3.548,3.548,0,0,1,.473,1.911,3.974,3.974,0,0,1-.693,2.268,4.841,4.841,0,0,1-2.068,1.659A8.362,8.362,0,0,1,147.378.252Zm13.4,0A11.993,11.993,0,0,1,157.4-.221a7.911,7.911,0,0,1-2.6-1.229l1.155-2.562a8.438,8.438,0,0,0,2.237,1.1,8.219,8.219,0,0,0,2.614.431,5.445,5.445,0,0,0,1.628-.2,1.906,1.906,0,0,0,.913-.556,1.252,1.252,0,0,0,.294-.819,1.108,1.108,0,0,0-.462-.935,3.793,3.793,0,0,0-1.218-.567q-.756-.22-1.669-.42t-1.827-.494a7.727,7.727,0,0,1-1.669-.756,3.715,3.715,0,0,1-1.229-1.218,3.591,3.591,0,0,1-.473-1.932,4.1,4.1,0,0,1,.682-2.3,4.669,4.669,0,0,1,2.058-1.659,8.426,8.426,0,0,1,3.454-.62,11.557,11.557,0,0,1,2.73.326,7.867,7.867,0,0,1,2.373.976l-1.05,2.583a8.936,8.936,0,0,0-2.058-.872,7.57,7.57,0,0,0-2.016-.283,4.768,4.768,0,0,0-1.617.231,1.907,1.907,0,0,0-.9.6,1.388,1.388,0,0,0-.273.85,1.088,1.088,0,0,0,.462.913,3.648,3.648,0,0,0,1.218.557q.756.21,1.67.42t1.827.483a7.064,7.064,0,0,1,1.67.735,3.715,3.715,0,0,1,1.228,1.218,3.548,3.548,0,0,1,.473,1.911,3.974,3.974,0,0,1-.693,2.268,4.841,4.841,0,0,1-2.069,1.659A8.362,8.362,0,0,1,160.776.252ZM169.344,0V-14.7h3.4V0Zm14.028.252a8.94,8.94,0,0,1-3.223-.567,7.627,7.627,0,0,1-2.562-1.6,7.283,7.283,0,0,1-1.68-2.415,7.546,7.546,0,0,1-.6-3.024,7.546,7.546,0,0,1,.6-3.024,7.211,7.211,0,0,1,1.691-2.415,7.768,7.768,0,0,1,2.562-1.6,8.8,8.8,0,0,1,3.192-.567,8.772,8.772,0,0,1,3.2.567,7.674,7.674,0,0,1,2.541,1.6,7.447,7.447,0,0,1,1.691,2.4,7.413,7.413,0,0,1,.609,3.035,7.508,7.508,0,0,1-.609,3.035A7.271,7.271,0,0,1,189.094-1.9a7.763,7.763,0,0,1-2.541,1.586A8.712,8.712,0,0,1,183.372.252Zm-.021-2.9a4.794,4.794,0,0,0,1.816-.336,4.356,4.356,0,0,0,1.46-.966,4.412,4.412,0,0,0,.977-1.491,5.076,5.076,0,0,0,.346-1.911,5.076,5.076,0,0,0-.346-1.911,4.492,4.492,0,0,0-.966-1.491,4.221,4.221,0,0,0-1.46-.966,4.875,4.875,0,0,0-1.827-.336,4.794,4.794,0,0,0-1.816.336,4.356,4.356,0,0,0-1.46.966,4.412,4.412,0,0,0-.977,1.491,5.076,5.076,0,0,0-.346,1.911,5.1,5.1,0,0,0,.346,1.9,4.468,4.468,0,0,0,.966,1.5,4.221,4.221,0,0,0,1.46.966A4.875,4.875,0,0,0,183.351-2.646ZM193.956,0V-14.7h2.814l8.673,10.584h-1.365V-14.7h3.36V0h-2.793l-8.694-10.584h1.365V0Zm15.036,0,6.552-14.7h3.36L225.477,0h-3.57l-5.376-12.978h1.344L212.478,0Zm3.276-3.15.9-2.583h7.56l.924,2.583ZM227.01,0V-14.7h3.4V-2.772h7.371V0Z" transform="translate(12428.3 -2460.737) rotate(-90)" fill="#fff"/>
    <path id="Caminho_11983" data-name="Caminho 11983" d="M1732.554,255.584h328.458c12.96,0,23.467-7.5,23.467-16.748v-62.9H1756.021c-12.96,0-23.467,7.5-23.467,16.748Z" transform="translate(10786.455 -2853.718)" fill="#2b7080"/>
    <path id="Caminho_12208" data-name="Caminho 12208" d="M1.743,0V-14.7H4.557L13.23-4.116H11.865V-14.7h3.36V0H12.432L3.738-10.584H5.1V0ZM25.851.252a8.94,8.94,0,0,1-3.224-.567,7.627,7.627,0,0,1-2.562-1.6,7.283,7.283,0,0,1-1.68-2.415,7.546,7.546,0,0,1-.6-3.024,7.546,7.546,0,0,1,.6-3.024,7.211,7.211,0,0,1,1.691-2.415,7.768,7.768,0,0,1,2.562-1.6,8.8,8.8,0,0,1,3.192-.567,8.772,8.772,0,0,1,3.2.567,7.674,7.674,0,0,1,2.541,1.6,7.447,7.447,0,0,1,1.69,2.4,7.413,7.413,0,0,1,.609,3.035,7.508,7.508,0,0,1-.609,3.035A7.271,7.271,0,0,1,31.574-1.9,7.763,7.763,0,0,1,29.033-.315,8.712,8.712,0,0,1,25.851.252Zm-.021-2.9a4.794,4.794,0,0,0,1.816-.336,4.356,4.356,0,0,0,1.459-.966,4.412,4.412,0,0,0,.976-1.491,5.076,5.076,0,0,0,.347-1.911,5.076,5.076,0,0,0-.347-1.911,4.493,4.493,0,0,0-.966-1.491,4.221,4.221,0,0,0-1.459-.966,4.875,4.875,0,0,0-1.827-.336,4.794,4.794,0,0,0-1.817.336,4.356,4.356,0,0,0-1.459.966,4.412,4.412,0,0,0-.977,1.491,5.076,5.076,0,0,0-.346,1.911,5.1,5.1,0,0,0,.346,1.9,4.468,4.468,0,0,0,.966,1.5A4.221,4.221,0,0,0,24-2.982,4.875,4.875,0,0,0,25.83-2.646ZM39.879,0,33.537-14.7h3.675L42.756-1.68H40.593L46.221-14.7H49.6L43.239,0ZM57.33.252a8.94,8.94,0,0,1-3.223-.567,7.627,7.627,0,0,1-2.562-1.6,7.283,7.283,0,0,1-1.68-2.415,7.547,7.547,0,0,1-.6-3.024,7.547,7.547,0,0,1,.6-3.024,7.211,7.211,0,0,1,1.691-2.415,7.768,7.768,0,0,1,2.562-1.6,8.8,8.8,0,0,1,3.192-.567,8.772,8.772,0,0,1,3.2.567,7.674,7.674,0,0,1,2.541,1.6,7.447,7.447,0,0,1,1.69,2.4,7.413,7.413,0,0,1,.609,3.035,7.508,7.508,0,0,1-.609,3.035A7.271,7.271,0,0,1,63.052-1.9,7.763,7.763,0,0,1,60.511-.315,8.712,8.712,0,0,1,57.33.252Zm-.021-2.9a4.794,4.794,0,0,0,1.817-.336,4.356,4.356,0,0,0,1.459-.966,4.412,4.412,0,0,0,.977-1.491,5.076,5.076,0,0,0,.346-1.911,5.076,5.076,0,0,0-.346-1.911,4.493,4.493,0,0,0-.966-1.491,4.221,4.221,0,0,0-1.459-.966,4.875,4.875,0,0,0-1.827-.336,4.794,4.794,0,0,0-1.816.336,4.356,4.356,0,0,0-1.46.966,4.412,4.412,0,0,0-.976,1.491A5.076,5.076,0,0,0,52.71-7.35a5.1,5.1,0,0,0,.347,1.9,4.468,4.468,0,0,0,.966,1.5,4.221,4.221,0,0,0,1.459.966A4.875,4.875,0,0,0,57.309-2.646ZM80.892.252A8.8,8.8,0,0,1,77.731-.3,7.424,7.424,0,0,1,75.2-1.89a7.358,7.358,0,0,1-1.669-2.415,7.6,7.6,0,0,1-.6-3.045,7.6,7.6,0,0,1,.6-3.045,7.283,7.283,0,0,1,1.68-2.415,7.561,7.561,0,0,1,2.53-1.585,8.774,8.774,0,0,1,3.171-.557,8.686,8.686,0,0,1,3.454.661,6.73,6.73,0,0,1,2.593,1.943l-2.184,2.016a5.111,5.111,0,0,0-1.68-1.291,4.714,4.714,0,0,0-2.016-.431,5.156,5.156,0,0,0-1.89.336,4.285,4.285,0,0,0-1.491.966,4.412,4.412,0,0,0-.977,1.491,5.076,5.076,0,0,0-.346,1.911,5.076,5.076,0,0,0,.346,1.911A4.412,4.412,0,0,0,77.7-3.948a4.285,4.285,0,0,0,1.491.966,5.156,5.156,0,0,0,1.89.336A4.714,4.714,0,0,0,83.1-3.077a5,5,0,0,0,1.68-1.312l2.184,2.016A6.826,6.826,0,0,1,84.368-.42,8.622,8.622,0,0,1,80.892.252Zm14.889,0a8.94,8.94,0,0,1-3.224-.567A7.627,7.627,0,0,1,90-1.911a7.283,7.283,0,0,1-1.68-2.415,7.546,7.546,0,0,1-.6-3.024,7.546,7.546,0,0,1,.6-3.024,7.21,7.21,0,0,1,1.69-2.415,7.768,7.768,0,0,1,2.562-1.6,8.8,8.8,0,0,1,3.192-.567,8.772,8.772,0,0,1,3.2.567,7.674,7.674,0,0,1,2.541,1.6,7.447,7.447,0,0,1,1.691,2.4A7.413,7.413,0,0,1,103.8-7.35a7.508,7.508,0,0,1-.609,3.035A7.271,7.271,0,0,1,101.5-1.9,7.763,7.763,0,0,1,98.962-.315,8.712,8.712,0,0,1,95.781.252Zm-.021-2.9a4.794,4.794,0,0,0,1.816-.336,4.356,4.356,0,0,0,1.46-.966,4.412,4.412,0,0,0,.977-1.491,5.076,5.076,0,0,0,.346-1.911,5.076,5.076,0,0,0-.346-1.911,4.493,4.493,0,0,0-.966-1.491,4.221,4.221,0,0,0-1.459-.966,4.875,4.875,0,0,0-1.827-.336,4.794,4.794,0,0,0-1.816.336,4.356,4.356,0,0,0-1.46.966,4.412,4.412,0,0,0-.977,1.491,5.076,5.076,0,0,0-.346,1.911,5.1,5.1,0,0,0,.346,1.9,4.468,4.468,0,0,0,.966,1.5,4.221,4.221,0,0,0,1.46.966A4.875,4.875,0,0,0,95.76-2.646ZM106.365,0V-14.7h3.4V-2.772h7.371V0Zm10.9,0,6.552-14.7h3.36L133.749,0h-3.57L124.8-12.978h1.344L120.75,0Zm3.276-3.15.9-2.583H129l.924,2.583ZM135.282,0V-14.7h7.182a6.89,6.89,0,0,1,4.169,1.05,3.3,3.3,0,0,1,1.4,2.772,3.531,3.531,0,0,1-.567,2.005,3.713,3.713,0,0,1-1.554,1.313,5.293,5.293,0,0,1-2.268.462l.4-.861a6.278,6.278,0,0,1,2.457.451,3.693,3.693,0,0,1,1.669,1.334,3.763,3.763,0,0,1,.6,2.163,3.418,3.418,0,0,1-1.491,2.951A7.549,7.549,0,0,1,142.884,0Zm3.381-2.562h3.969a3.8,3.8,0,0,0,2.005-.431,1.505,1.505,0,0,0,.683-1.375,1.536,1.536,0,0,0-.683-1.376,3.651,3.651,0,0,0-2.005-.451h-4.221V-8.673h3.633a3.488,3.488,0,0,0,1.9-.431,1.458,1.458,0,0,0,.661-1.313,1.438,1.438,0,0,0-.661-1.292,3.488,3.488,0,0,0-1.9-.431h-3.381ZM158.487.252a8.94,8.94,0,0,1-3.223-.567,7.627,7.627,0,0,1-2.562-1.6,7.283,7.283,0,0,1-1.68-2.415,7.546,7.546,0,0,1-.6-3.024,7.546,7.546,0,0,1,.6-3.024,7.211,7.211,0,0,1,1.691-2.415,7.768,7.768,0,0,1,2.562-1.6,8.8,8.8,0,0,1,3.192-.567,8.772,8.772,0,0,1,3.2.567,7.674,7.674,0,0,1,2.541,1.6,7.447,7.447,0,0,1,1.691,2.4,7.413,7.413,0,0,1,.609,3.035,7.508,7.508,0,0,1-.609,3.035A7.271,7.271,0,0,1,164.21-1.9a7.763,7.763,0,0,1-2.541,1.586A8.712,8.712,0,0,1,158.487.252Zm-.021-2.9a4.794,4.794,0,0,0,1.816-.336,4.356,4.356,0,0,0,1.46-.966,4.412,4.412,0,0,0,.977-1.491,5.076,5.076,0,0,0,.346-1.911,5.076,5.076,0,0,0-.346-1.911,4.492,4.492,0,0,0-.966-1.491,4.221,4.221,0,0,0-1.46-.966,4.875,4.875,0,0,0-1.827-.336,4.794,4.794,0,0,0-1.816.336,4.356,4.356,0,0,0-1.46.966,4.412,4.412,0,0,0-.977,1.491,5.076,5.076,0,0,0-.346,1.911,5.1,5.1,0,0,0,.346,1.9,4.468,4.468,0,0,0,.966,1.5,4.221,4.221,0,0,0,1.46.966A4.875,4.875,0,0,0,158.466-2.646ZM169.071,0V-14.7h6.363a8.265,8.265,0,0,1,3.4.641,4.981,4.981,0,0,1,2.205,1.838,5.13,5.13,0,0,1,.777,2.856,5.039,5.039,0,0,1-.777,2.825,4.94,4.94,0,0,1-2.205,1.816,8.385,8.385,0,0,1-3.4.63h-4.473l1.512-1.491V0Zm9.345,0-3.675-5.334h3.633L182.091,0Zm-5.943-5.208-1.512-1.6h4.284a3.482,3.482,0,0,0,2.352-.683,2.372,2.372,0,0,0,.777-1.879,2.365,2.365,0,0,0-.777-1.89,3.519,3.519,0,0,0-2.352-.672h-4.284l1.512-1.617ZM182.574,0l6.552-14.7h3.36L199.059,0h-3.57l-5.376-12.978h1.344L186.06,0Zm3.276-3.15.9-2.583h7.56l.924,2.583ZM200.592,0V-14.7h6.678a9.319,9.319,0,0,1,4.221.913,6.974,6.974,0,0,1,2.856,2.552,7.152,7.152,0,0,1,1.029,3.885,7.165,7.165,0,0,1-1.029,3.875,6.949,6.949,0,0,1-2.856,2.562A9.319,9.319,0,0,1,207.27,0Zm3.4-2.793H207.1a5.508,5.508,0,0,0,2.551-.557,4.036,4.036,0,0,0,1.68-1.586,4.718,4.718,0,0,0,.6-2.415,4.7,4.7,0,0,0-.6-2.425,4.056,4.056,0,0,0-1.68-1.575,5.508,5.508,0,0,0-2.551-.556h-3.108ZM225.078.252a8.94,8.94,0,0,1-3.223-.567,7.627,7.627,0,0,1-2.562-1.6,7.283,7.283,0,0,1-1.68-2.415,7.546,7.546,0,0,1-.6-3.024,7.546,7.546,0,0,1,.6-3.024,7.211,7.211,0,0,1,1.691-2.415,7.768,7.768,0,0,1,2.562-1.6,8.8,8.8,0,0,1,3.192-.567,8.772,8.772,0,0,1,3.2.567,7.674,7.674,0,0,1,2.541,1.6,7.447,7.447,0,0,1,1.691,2.4A7.413,7.413,0,0,1,233.1-7.35a7.508,7.508,0,0,1-.609,3.035A7.271,7.271,0,0,1,230.8-1.9,7.763,7.763,0,0,1,228.26-.315,8.712,8.712,0,0,1,225.078.252Zm-.021-2.9a4.794,4.794,0,0,0,1.816-.336,4.356,4.356,0,0,0,1.46-.966,4.412,4.412,0,0,0,.977-1.491,5.076,5.076,0,0,0,.346-1.911,5.076,5.076,0,0,0-.346-1.911,4.492,4.492,0,0,0-.966-1.491,4.221,4.221,0,0,0-1.46-.966,4.875,4.875,0,0,0-1.827-.336,4.794,4.794,0,0,0-1.816.336,4.356,4.356,0,0,0-1.46.966,4.412,4.412,0,0,0-.977,1.491,5.076,5.076,0,0,0-.346,1.911,5.1,5.1,0,0,0,.346,1.9,4.468,4.468,0,0,0,.966,1.5,4.221,4.221,0,0,0,1.46.966A4.875,4.875,0,0,0,225.057-2.646ZM235.662,0V-14.7h6.363a8.265,8.265,0,0,1,3.4.641,4.981,4.981,0,0,1,2.205,1.838,5.13,5.13,0,0,1,.777,2.856,5.039,5.039,0,0,1-.777,2.825,4.94,4.94,0,0,1-2.205,1.816,8.385,8.385,0,0,1-3.4.63h-4.473l1.512-1.491V0Zm9.345,0-3.675-5.334h3.633L248.682,0Zm-5.943-5.208-1.512-1.6h4.284a3.482,3.482,0,0,0,2.352-.683,2.372,2.372,0,0,0,.777-1.879,2.365,2.365,0,0,0-.777-1.89,3.519,3.519,0,0,0-2.352-.672h-4.284l1.512-1.617Z" transform="translate(12561.771 -2630.673)" fill="#fff"/>
    <path id="Caminho_11984" data-name="Caminho 11984" d="M1732.554,431.521h328.458c12.96,0,23.467-7.5,23.467-16.748v-62.9H1756.021c-12.96,0-23.467,7.5-23.467,16.748Z" transform="translate(10786.455 -2931.436)" fill="#2b7080"/>
    <path id="Caminho_12207" data-name="Caminho 12207" d="M4.935-2.5v-9.7H7.644v9.7ZM1.3-6.069V-8.631h10v2.562ZM21.609,0V-13.44l1.47,1.47h-4.41V-14.7h6.342V0Zm10.9,0L39.06-14.7h3.36L48.993,0h-3.57L40.047-12.978h1.344L35.994,0Zm3.276-3.15.9-2.583h7.56l.924,2.583ZM50.526,0V-14.7H53.34L62.013-4.116H60.648V-14.7h3.36V0H61.215L52.521-10.584h1.365V0ZM74.634.252A8.94,8.94,0,0,1,71.41-.315a7.627,7.627,0,0,1-2.562-1.6,7.283,7.283,0,0,1-1.68-2.415,7.546,7.546,0,0,1-.6-3.024,7.546,7.546,0,0,1,.6-3.024,7.21,7.21,0,0,1,1.69-2.415,7.768,7.768,0,0,1,2.562-1.6,8.8,8.8,0,0,1,3.192-.567,8.772,8.772,0,0,1,3.2.567,7.674,7.674,0,0,1,2.541,1.6,7.447,7.447,0,0,1,1.69,2.4,7.413,7.413,0,0,1,.609,3.035,7.508,7.508,0,0,1-.609,3.035A7.271,7.271,0,0,1,80.356-1.9,7.763,7.763,0,0,1,77.815-.315,8.712,8.712,0,0,1,74.634.252Zm-.021-2.9a4.794,4.794,0,0,0,1.817-.336,4.356,4.356,0,0,0,1.459-.966,4.412,4.412,0,0,0,.977-1.491,5.076,5.076,0,0,0,.346-1.911,5.076,5.076,0,0,0-.346-1.911,4.493,4.493,0,0,0-.966-1.491,4.221,4.221,0,0,0-1.459-.966,4.875,4.875,0,0,0-1.827-.336,4.794,4.794,0,0,0-1.816.336,4.356,4.356,0,0,0-1.46.966,4.412,4.412,0,0,0-.977,1.491,5.076,5.076,0,0,0-.346,1.911,5.1,5.1,0,0,0,.346,1.9,4.468,4.468,0,0,0,.966,1.5,4.221,4.221,0,0,0,1.46.966A4.875,4.875,0,0,0,74.613-2.646ZM91.161,0V-14.7h2.814l8.673,10.584h-1.365V-14.7h3.36V0H101.85L93.156-10.584h1.365V0Zm24.108.252a8.94,8.94,0,0,1-3.224-.567,7.627,7.627,0,0,1-2.562-1.6,7.283,7.283,0,0,1-1.68-2.415,7.546,7.546,0,0,1-.6-3.024,7.546,7.546,0,0,1,.6-3.024,7.21,7.21,0,0,1,1.69-2.415,7.768,7.768,0,0,1,2.562-1.6,8.8,8.8,0,0,1,3.192-.567,8.772,8.772,0,0,1,3.2.567,7.674,7.674,0,0,1,2.541,1.6,7.447,7.447,0,0,1,1.691,2.4,7.413,7.413,0,0,1,.609,3.035,7.508,7.508,0,0,1-.609,3.035A7.271,7.271,0,0,1,120.992-1.9a7.763,7.763,0,0,1-2.541,1.586A8.712,8.712,0,0,1,115.269.252Zm-.021-2.9a4.794,4.794,0,0,0,1.816-.336,4.356,4.356,0,0,0,1.46-.966,4.412,4.412,0,0,0,.977-1.491,5.076,5.076,0,0,0,.346-1.911,5.076,5.076,0,0,0-.346-1.911,4.493,4.493,0,0,0-.966-1.491,4.221,4.221,0,0,0-1.459-.966,4.875,4.875,0,0,0-1.827-.336,4.794,4.794,0,0,0-1.816.336,4.356,4.356,0,0,0-1.46.966A4.412,4.412,0,0,0,111-9.261a5.076,5.076,0,0,0-.346,1.911A5.1,5.1,0,0,0,111-5.45a4.468,4.468,0,0,0,.966,1.5,4.221,4.221,0,0,0,1.46.966A4.875,4.875,0,0,0,115.248-2.646Zm23.583,2.9a8.8,8.8,0,0,1-3.16-.557A7.424,7.424,0,0,1,133.14-1.89a7.358,7.358,0,0,1-1.67-2.415,7.6,7.6,0,0,1-.6-3.045,7.6,7.6,0,0,1,.6-3.045,7.283,7.283,0,0,1,1.68-2.415,7.56,7.56,0,0,1,2.531-1.585,8.774,8.774,0,0,1,3.171-.557,8.686,8.686,0,0,1,3.454.661,6.73,6.73,0,0,1,2.594,1.943l-2.184,2.016a5.111,5.111,0,0,0-1.68-1.291,4.714,4.714,0,0,0-2.016-.431,5.156,5.156,0,0,0-1.89.336,4.285,4.285,0,0,0-1.491.966,4.412,4.412,0,0,0-.977,1.491,5.076,5.076,0,0,0-.346,1.911,5.076,5.076,0,0,0,.346,1.911,4.412,4.412,0,0,0,.977,1.491,4.285,4.285,0,0,0,1.491.966,5.156,5.156,0,0,0,1.89.336,4.714,4.714,0,0,0,2.016-.431,5,5,0,0,0,1.68-1.312L144.9-2.373A6.825,6.825,0,0,1,142.306-.42,8.622,8.622,0,0,1,138.831.252ZM144.69,0l6.552-14.7h3.36L161.175,0H157.6l-5.376-12.978h1.344L148.176,0Zm3.276-3.15.9-2.583h7.56l.924,2.583ZM162.708,0V-14.7h6.363a8.265,8.265,0,0,1,3.4.641,4.981,4.981,0,0,1,2.205,1.838,5.13,5.13,0,0,1,.777,2.856,5.039,5.039,0,0,1-.777,2.825,4.94,4.94,0,0,1-2.205,1.816,8.385,8.385,0,0,1-3.4.63H164.6l1.512-1.491V0Zm9.345,0-3.675-5.334h3.633L175.728,0ZM166.11-5.208,164.6-6.8h4.284a3.482,3.482,0,0,0,2.352-.683,2.372,2.372,0,0,0,.777-1.879,2.365,2.365,0,0,0-.777-1.89,3.519,3.519,0,0,0-2.352-.672H164.6l1.512-1.617ZM185.241.252a8.919,8.919,0,0,1-3.2-.557A7.537,7.537,0,0,1,179.5-1.89a7.283,7.283,0,0,1-1.68-2.415,7.6,7.6,0,0,1-.6-3.045,7.6,7.6,0,0,1,.6-3.045,7.211,7.211,0,0,1,1.691-2.415A7.63,7.63,0,0,1,182.07-14.4a9.066,9.066,0,0,1,3.234-.557,9.078,9.078,0,0,1,3.518.651,6.966,6.966,0,0,1,2.635,1.89L189.273-10.4a5.33,5.33,0,0,0-1.743-1.25,5.12,5.12,0,0,0-2.058-.409,5.446,5.446,0,0,0-1.953.336,4.351,4.351,0,0,0-1.523.966,4.336,4.336,0,0,0-.987,1.491,5.076,5.076,0,0,0-.346,1.911,5.017,5.017,0,0,0,.346,1.89,4.447,4.447,0,0,0,.987,1.5,4.3,4.3,0,0,0,1.512.977,5.3,5.3,0,0,0,1.921.336,6.049,6.049,0,0,0,1.964-.326,5.666,5.666,0,0,0,1.859-1.1l1.932,2.457A8.861,8.861,0,0,1,188.4-.231,10.8,10.8,0,0,1,185.241.252Zm2.835-2.31V-7.581h3.108v5.964Zm13.4,2.31a8.94,8.94,0,0,1-3.223-.567,7.627,7.627,0,0,1-2.562-1.6,7.283,7.283,0,0,1-1.68-2.415,7.546,7.546,0,0,1-.6-3.024,7.546,7.546,0,0,1,.6-3.024,7.211,7.211,0,0,1,1.691-2.415,7.768,7.768,0,0,1,2.562-1.6,8.8,8.8,0,0,1,3.192-.567,8.772,8.772,0,0,1,3.2.567,7.674,7.674,0,0,1,2.541,1.6,7.447,7.447,0,0,1,1.691,2.4A7.413,7.413,0,0,1,209.5-7.35a7.508,7.508,0,0,1-.609,3.035A7.271,7.271,0,0,1,207.2-1.9a7.763,7.763,0,0,1-2.541,1.586A8.712,8.712,0,0,1,201.474.252Zm-.021-2.9a4.794,4.794,0,0,0,1.816-.336,4.356,4.356,0,0,0,1.46-.966,4.412,4.412,0,0,0,.977-1.491,5.076,5.076,0,0,0,.346-1.911,5.076,5.076,0,0,0-.346-1.911,4.492,4.492,0,0,0-.966-1.491,4.221,4.221,0,0,0-1.46-.966,4.875,4.875,0,0,0-1.827-.336,4.794,4.794,0,0,0-1.816.336,4.356,4.356,0,0,0-1.46.966,4.412,4.412,0,0,0-.977,1.491,5.076,5.076,0,0,0-.346,1.911,5.1,5.1,0,0,0,.346,1.9,4.468,4.468,0,0,0,.966,1.5,4.221,4.221,0,0,0,1.46.966A4.875,4.875,0,0,0,201.453-2.646Z" transform="translate(12583.008 -2532.455)" fill="#fff"/>
    <g id="Grupo_5848" data-name="Grupo 5848" transform="translate(12088 -3010)">
      <g transform="matrix(1, 0, 0, 1, 240, 160)" filter="url(#Polígono_3)">
        <path id="Polígono_3-2" data-name="Polígono 3" d="M20,0,40,34H0Z" transform="translate(382 184) rotate(180)" fill="#fff"/>
      </g>
      <g transform="matrix(1, 0, 0, 1, 240, 160)" filter="url(#Retângulo_1347)">
        <rect id="Retângulo_1347-2" data-name="Retângulo 1347" width="227" height="144" rx="20" transform="translate(243 6)" fill="#fff"/>
      </g>
      <text id="Trilha_realizada_uma_única_vez_na_admissão_do_novo_colaborador." data-name="Trilha realizada uma única vez na admissão do novo colaborador." transform="translate(505 186)" fill="#202428" font-size="20" font-family="Montserrat-Regular, Montserrat"><tspan x="0" y="19">Trilha realizada </tspan><tspan x="0" y="43">uma única vez na </tspan><tspan x="0" y="67">admissão do novo </tspan><tspan x="0" y="91">colaborador.</tspan></text>
    </g>
    <path id="Caminho_12206" data-name="Caminho 12206" d="M0,0H566V562H0Z" transform="translate(12328 -2844)" fill="none"/>
  </g>
</svg>
