<svg xmlns="http://www.w3.org/2000/svg" xmlns:xlink="http://www.w3.org/1999/xlink" width="768.211" height="521" viewBox="0 0 768.211 521">
  <defs>
    <filter id="Caminho_12201" x="493.211" y="0" width="245" height="162" filterUnits="userSpaceOnUse">
      <feOffset dy="3" input="SourceAlpha"/>
      <feGaussianBlur stdDeviation="3" result="blur"/>
      <feFlood flood-opacity="0.161"/>
      <feComposite operator="in" in2="blur"/>
      <feComposite in="SourceGraphic"/>
    </filter>
    <filter id="Caminho_12204" x="454.211" y="41" width="52" height="58" filterUnits="userSpaceOnUse">
      <feOffset dx="-5" dy="-4" input="SourceAlpha"/>
      <feGaussianBlur stdDeviation="3" result="blur-2"/>
      <feFlood flood-opacity="0.161"/>
      <feComposite operator="in" in2="blur-2"/>
      <feComposite in="SourceGraphic"/>
    </filter>
    <filter id="Caminho_12185" x="523.211" y="359" width="245" height="162" filterUnits="userSpaceOnUse">
      <feOffset dy="3" input="SourceAlpha"/>
      <feGaussianBlur stdDeviation="3" result="blur-3"/>
      <feFlood flood-opacity="0.161"/>
      <feComposite operator="in" in2="blur-3"/>
      <feComposite in="SourceGraphic"/>
    </filter>
    <filter id="Caminho_12196" x="608.211" y="321" width="58" height="52" filterUnits="userSpaceOnUse">
      <feOffset dx="-5" dy="-4" input="SourceAlpha"/>
      <feGaussianBlur stdDeviation="3" result="blur-4"/>
      <feFlood flood-opacity="0.161"/>
      <feComposite operator="in" in2="blur-4"/>
      <feComposite in="SourceGraphic"/>
    </filter>
  </defs>
  <g id="Grupo_5818" data-name="Grupo 5818" transform="translate(-11731.789 3078)">
    <path id="Caminho_11973" data-name="Caminho 11973" d="M426.859,370.024H193.007V71.335H426.859" transform="translate(11646.53 -3069.511)" fill="none" stroke="#154a5a" stroke-width="3"/>
    <path id="Caminho_11974" data-name="Caminho 11974" d="M426.859,350.289H193.007V240.7H426.859" transform="translate(11646.53 -3144.324)" fill="none" stroke="#154a5a" stroke-width="3"/>
    <path id="Caminho_12197" data-name="Caminho 12197" d="M28.1,0H0" transform="translate(11811.437 -2850.076)" fill="none" stroke="#154a5a" stroke-width="3"/>
    <path id="Caminho_12187" data-name="Caminho 12187" d="M0,0H3.35" transform="translate(12085.185 -2694.029)" fill="none" stroke="#154a5a" stroke-width="2.13"/>
    <path id="Caminho_12188" data-name="Caminho 12188" d="M0,0H140.543" transform="translate(12095.071 -2694.029)" fill="none" stroke="#154a5a" stroke-width="2.13" stroke-dasharray="11.709 11.709"/>
    <path id="Caminho_11975" data-name="Caminho 11975" d="M908.344,613.495h3.35v-3.349" transform="translate(11330.54 -3307.524)" fill="none" stroke="#154a5a" stroke-width="2.13"/>
    <path id="Caminho_12190" data-name="Caminho 12190" d="M0,193.911V0" transform="translate(12242.232 -2897.863)" fill="none" stroke="#154a5a" stroke-width="2.13" stroke-dasharray="11.775 11.775"/>
    <path id="Caminho_11976" data-name="Caminho 11976" d="M911.693,242.485v-3.35h-3.35" transform="translate(11330.54 -3143.635)" fill="none" stroke="#154a5a" stroke-width="2.13"/>
    <path id="Caminho_12199" data-name="Caminho 12199" d="M140.543,0H0" transform="translate(12091.803 -2904.5)" fill="none" stroke="#154a5a" stroke-width="2.13" stroke-dasharray="11.709 11.709"/>
    <path id="Caminho_12200" data-name="Caminho 12200" d="M3.35,0H0" transform="translate(12085.185 -2904.5)" fill="none" stroke="#154a5a" stroke-width="2.13"/>
    <path id="Caminho_12191" data-name="Caminho 12191" d="M0,0H26.42" transform="translate(12242.232 -2800.509)" fill="none" stroke="#154a5a" stroke-width="2.13" stroke-dasharray="12 12"/>
    <path id="Caminho_11978" data-name="Caminho 11978" d="M240.844,79.648H569.3c12.96,0,23.466-7.5,23.466-16.748V0H264.311c-12.96,0-23.467,7.5-23.467,16.748Z" transform="translate(11625.399 -3038)" fill="#02a180"/>
    <path id="Caminho_12203" data-name="Caminho 12203" d="M1.743,0V-14.7H4.557L13.23-4.116H11.865V-14.7h3.36V0H12.432L3.738-10.584H5.1V0ZM25.851.252a8.94,8.94,0,0,1-3.224-.567,7.627,7.627,0,0,1-2.562-1.6,7.283,7.283,0,0,1-1.68-2.415,7.546,7.546,0,0,1-.6-3.024,7.546,7.546,0,0,1,.6-3.024,7.211,7.211,0,0,1,1.691-2.415,7.768,7.768,0,0,1,2.562-1.6,8.8,8.8,0,0,1,3.192-.567,8.772,8.772,0,0,1,3.2.567,7.674,7.674,0,0,1,2.541,1.6,7.447,7.447,0,0,1,1.69,2.4,7.413,7.413,0,0,1,.609,3.035,7.508,7.508,0,0,1-.609,3.035A7.271,7.271,0,0,1,31.574-1.9,7.763,7.763,0,0,1,29.033-.315,8.712,8.712,0,0,1,25.851.252Zm-.021-2.9a4.794,4.794,0,0,0,1.816-.336,4.356,4.356,0,0,0,1.459-.966,4.412,4.412,0,0,0,.976-1.491,5.076,5.076,0,0,0,.347-1.911,5.076,5.076,0,0,0-.347-1.911,4.493,4.493,0,0,0-.966-1.491,4.221,4.221,0,0,0-1.459-.966,4.875,4.875,0,0,0-1.827-.336,4.794,4.794,0,0,0-1.817.336,4.356,4.356,0,0,0-1.459.966,4.412,4.412,0,0,0-.977,1.491,5.076,5.076,0,0,0-.346,1.911,5.1,5.1,0,0,0,.346,1.9,4.468,4.468,0,0,0,.966,1.5A4.221,4.221,0,0,0,24-2.982,4.875,4.875,0,0,0,25.83-2.646ZM39.9,0,33.558-14.7h3.675L42.777-1.68H40.614L46.242-14.7h3.381L43.26,0ZM57.351.252a8.94,8.94,0,0,1-3.223-.567,7.627,7.627,0,0,1-2.562-1.6,7.283,7.283,0,0,1-1.68-2.415,7.547,7.547,0,0,1-.6-3.024,7.547,7.547,0,0,1,.6-3.024,7.211,7.211,0,0,1,1.691-2.415,7.768,7.768,0,0,1,2.562-1.6,8.8,8.8,0,0,1,3.192-.567,8.772,8.772,0,0,1,3.2.567,7.674,7.674,0,0,1,2.541,1.6,7.447,7.447,0,0,1,1.691,2.4,7.413,7.413,0,0,1,.609,3.035,7.508,7.508,0,0,1-.609,3.035A7.271,7.271,0,0,1,63.074-1.9,7.763,7.763,0,0,1,60.533-.315,8.712,8.712,0,0,1,57.351.252Zm-.021-2.9a4.794,4.794,0,0,0,1.817-.336,4.356,4.356,0,0,0,1.459-.966,4.412,4.412,0,0,0,.977-1.491,5.076,5.076,0,0,0,.346-1.911,5.076,5.076,0,0,0-.346-1.911,4.493,4.493,0,0,0-.966-1.491,4.221,4.221,0,0,0-1.459-.966,4.875,4.875,0,0,0-1.827-.336,4.794,4.794,0,0,0-1.816.336,4.356,4.356,0,0,0-1.46.966,4.412,4.412,0,0,0-.976,1.491,5.076,5.076,0,0,0-.347,1.911,5.1,5.1,0,0,0,.347,1.9,4.468,4.468,0,0,0,.966,1.5,4.221,4.221,0,0,0,1.459.966A4.875,4.875,0,0,0,57.33-2.646ZM80.913.252A8.8,8.8,0,0,1,77.753-.3,7.424,7.424,0,0,1,75.222-1.89a7.358,7.358,0,0,1-1.669-2.415,7.6,7.6,0,0,1-.6-3.045,7.6,7.6,0,0,1,.6-3.045,7.283,7.283,0,0,1,1.68-2.415,7.561,7.561,0,0,1,2.53-1.585,8.774,8.774,0,0,1,3.171-.557,8.686,8.686,0,0,1,3.454.661,6.73,6.73,0,0,1,2.593,1.943L84.8-10.332a5.111,5.111,0,0,0-1.68-1.291,4.714,4.714,0,0,0-2.016-.431,5.156,5.156,0,0,0-1.89.336,4.285,4.285,0,0,0-1.491.966,4.412,4.412,0,0,0-.977,1.491A5.076,5.076,0,0,0,76.4-7.35a5.076,5.076,0,0,0,.346,1.911,4.412,4.412,0,0,0,.977,1.491,4.284,4.284,0,0,0,1.491.966,5.156,5.156,0,0,0,1.89.336,4.714,4.714,0,0,0,2.016-.431A5,5,0,0,0,84.8-4.389l2.184,2.016A6.826,6.826,0,0,1,84.389-.42,8.622,8.622,0,0,1,80.913.252ZM95.8.252a8.94,8.94,0,0,1-3.224-.567,7.627,7.627,0,0,1-2.562-1.6,7.283,7.283,0,0,1-1.68-2.415,7.546,7.546,0,0,1-.6-3.024,7.546,7.546,0,0,1,.6-3.024,7.21,7.21,0,0,1,1.69-2.415,7.768,7.768,0,0,1,2.562-1.6,8.8,8.8,0,0,1,3.192-.567,8.772,8.772,0,0,1,3.2.567,7.674,7.674,0,0,1,2.541,1.6,7.447,7.447,0,0,1,1.691,2.4,7.413,7.413,0,0,1,.609,3.035,7.508,7.508,0,0,1-.609,3.035A7.271,7.271,0,0,1,101.525-1.9,7.763,7.763,0,0,1,98.984-.315,8.712,8.712,0,0,1,95.8.252Zm-.021-2.9A4.794,4.794,0,0,0,97.6-2.982a4.356,4.356,0,0,0,1.46-.966,4.412,4.412,0,0,0,.977-1.491,5.076,5.076,0,0,0,.346-1.911,5.076,5.076,0,0,0-.346-1.911,4.493,4.493,0,0,0-.966-1.491,4.221,4.221,0,0,0-1.459-.966,4.875,4.875,0,0,0-1.827-.336,4.794,4.794,0,0,0-1.816.336,4.356,4.356,0,0,0-1.46.966,4.412,4.412,0,0,0-.977,1.491,5.076,5.076,0,0,0-.346,1.911,5.1,5.1,0,0,0,.346,1.9,4.468,4.468,0,0,0,.966,1.5,4.221,4.221,0,0,0,1.46.966A4.875,4.875,0,0,0,95.781-2.646ZM106.386,0V-14.7h3.4V-2.772h7.371V0Zm10.9,0,6.552-14.7h3.36L133.77,0H130.2l-5.376-12.978h1.344L120.771,0Zm3.276-3.15.9-2.583h7.56l.924,2.583ZM135.3,0V-14.7h7.182a6.89,6.89,0,0,1,4.169,1.05,3.3,3.3,0,0,1,1.4,2.772,3.531,3.531,0,0,1-.567,2.005,3.713,3.713,0,0,1-1.554,1.313,5.293,5.293,0,0,1-2.268.462l.4-.861a6.278,6.278,0,0,1,2.457.451,3.693,3.693,0,0,1,1.669,1.334,3.763,3.763,0,0,1,.6,2.163,3.418,3.418,0,0,1-1.491,2.951A7.549,7.549,0,0,1,142.905,0Zm3.381-2.562h3.969a3.8,3.8,0,0,0,2.005-.431,1.505,1.505,0,0,0,.683-1.375,1.536,1.536,0,0,0-.683-1.376,3.651,3.651,0,0,0-2.005-.451h-4.221V-8.673h3.633a3.488,3.488,0,0,0,1.9-.431,1.458,1.458,0,0,0,.661-1.313,1.438,1.438,0,0,0-.661-1.292,3.488,3.488,0,0,0-1.9-.431h-3.381ZM158.508.252a8.94,8.94,0,0,1-3.223-.567,7.627,7.627,0,0,1-2.562-1.6,7.283,7.283,0,0,1-1.68-2.415,7.546,7.546,0,0,1-.6-3.024,7.546,7.546,0,0,1,.6-3.024,7.211,7.211,0,0,1,1.691-2.415,7.768,7.768,0,0,1,2.562-1.6,8.8,8.8,0,0,1,3.192-.567,8.772,8.772,0,0,1,3.2.567,7.674,7.674,0,0,1,2.541,1.6,7.447,7.447,0,0,1,1.691,2.4,7.413,7.413,0,0,1,.609,3.035,7.508,7.508,0,0,1-.609,3.035A7.271,7.271,0,0,1,164.231-1.9,7.763,7.763,0,0,1,161.69-.315,8.712,8.712,0,0,1,158.508.252Zm-.021-2.9a4.794,4.794,0,0,0,1.816-.336,4.356,4.356,0,0,0,1.46-.966,4.412,4.412,0,0,0,.977-1.491,5.076,5.076,0,0,0,.346-1.911,5.076,5.076,0,0,0-.346-1.911,4.492,4.492,0,0,0-.966-1.491,4.221,4.221,0,0,0-1.46-.966,4.875,4.875,0,0,0-1.827-.336,4.794,4.794,0,0,0-1.816.336,4.356,4.356,0,0,0-1.46.966,4.412,4.412,0,0,0-.977,1.491,5.076,5.076,0,0,0-.346,1.911,5.1,5.1,0,0,0,.346,1.9,4.468,4.468,0,0,0,.966,1.5,4.221,4.221,0,0,0,1.46.966A4.875,4.875,0,0,0,158.487-2.646ZM169.092,0V-14.7h6.363a8.265,8.265,0,0,1,3.4.641,4.981,4.981,0,0,1,2.205,1.838,5.13,5.13,0,0,1,.777,2.856,5.039,5.039,0,0,1-.777,2.825,4.94,4.94,0,0,1-2.205,1.816,8.385,8.385,0,0,1-3.4.63h-4.473l1.512-1.491V0Zm9.345,0-3.675-5.334H178.4L182.112,0Zm-5.943-5.208-1.512-1.6h4.284a3.482,3.482,0,0,0,2.352-.683,2.372,2.372,0,0,0,.777-1.879,2.365,2.365,0,0,0-.777-1.89,3.519,3.519,0,0,0-2.352-.672h-4.284l1.512-1.617ZM182.6,0l6.552-14.7h3.36L199.08,0h-3.57l-5.376-12.978h1.344L186.081,0Zm3.276-3.15.9-2.583h7.56l.924,2.583ZM200.613,0V-14.7h6.678a9.319,9.319,0,0,1,4.221.913,6.974,6.974,0,0,1,2.856,2.552A7.152,7.152,0,0,1,215.4-7.35a7.165,7.165,0,0,1-1.029,3.875,6.949,6.949,0,0,1-2.856,2.562A9.319,9.319,0,0,1,207.291,0Zm3.4-2.793h3.108a5.508,5.508,0,0,0,2.551-.557,4.036,4.036,0,0,0,1.68-1.586,4.718,4.718,0,0,0,.6-2.415,4.7,4.7,0,0,0-.6-2.425,4.056,4.056,0,0,0-1.68-1.575,5.508,5.508,0,0,0-2.551-.556h-3.108ZM225.1.252a8.94,8.94,0,0,1-3.223-.567,7.627,7.627,0,0,1-2.562-1.6,7.283,7.283,0,0,1-1.68-2.415,7.546,7.546,0,0,1-.6-3.024,7.546,7.546,0,0,1,.6-3.024,7.211,7.211,0,0,1,1.691-2.415,7.768,7.768,0,0,1,2.562-1.6,8.8,8.8,0,0,1,3.192-.567,8.772,8.772,0,0,1,3.2.567,7.674,7.674,0,0,1,2.541,1.6,7.447,7.447,0,0,1,1.691,2.4,7.413,7.413,0,0,1,.609,3.035,7.508,7.508,0,0,1-.609,3.035A7.271,7.271,0,0,1,230.822-1.9a7.763,7.763,0,0,1-2.541,1.586A8.712,8.712,0,0,1,225.1.252Zm-.021-2.9a4.794,4.794,0,0,0,1.816-.336,4.356,4.356,0,0,0,1.46-.966,4.412,4.412,0,0,0,.977-1.491,5.076,5.076,0,0,0,.346-1.911,5.076,5.076,0,0,0-.346-1.911,4.492,4.492,0,0,0-.966-1.491,4.221,4.221,0,0,0-1.46-.966,4.875,4.875,0,0,0-1.827-.336,4.794,4.794,0,0,0-1.816.336,4.356,4.356,0,0,0-1.46.966,4.412,4.412,0,0,0-.977,1.491,5.076,5.076,0,0,0-.346,1.911,5.1,5.1,0,0,0,.346,1.9,4.468,4.468,0,0,0,.966,1.5,4.221,4.221,0,0,0,1.46.966A4.875,4.875,0,0,0,225.078-2.646ZM235.683,0V-14.7h6.363a8.265,8.265,0,0,1,3.4.641,4.981,4.981,0,0,1,2.205,1.838,5.13,5.13,0,0,1,.777,2.856,5.039,5.039,0,0,1-.777,2.825,4.94,4.94,0,0,1-2.205,1.816,8.385,8.385,0,0,1-3.4.63h-4.473l1.512-1.491V0Zm9.345,0-3.675-5.334h3.633L248.7,0Zm-5.943-5.208-1.512-1.6h4.284a3.482,3.482,0,0,0,2.352-.683,2.372,2.372,0,0,0,.777-1.879,2.365,2.365,0,0,0-.777-1.89,3.519,3.519,0,0,0-2.352-.672h-4.284l1.512-1.617Z" transform="translate(11909.006 -2990.892)" fill="#fff"/>
    <path id="Caminho_11979" data-name="Caminho 11979" d="M79.648,376.781V30.357c0-13.67-7.5-24.751-16.748-24.751H0V352.03c0,13.67,7.5,24.751,16.748,24.751Z" transform="translate(11731.789 -3040.476)" fill="#02a180"/>
    <path id="Caminho_12192" data-name="Caminho 12192" d="M4.788,0V-11.928H.084V-14.7h12.81v2.772H8.19V0Zm9.933,0V-14.7h6.363a8.265,8.265,0,0,1,3.4.641,4.982,4.982,0,0,1,2.205,1.838,5.13,5.13,0,0,1,.777,2.856,5.039,5.039,0,0,1-.777,2.825,4.941,4.941,0,0,1-2.205,1.816,8.385,8.385,0,0,1-3.4.63H16.611l1.512-1.491V0Zm9.345,0L20.391-5.334h3.633L27.741,0ZM18.123-5.208,16.611-6.8H20.9a3.482,3.482,0,0,0,2.352-.683,2.372,2.372,0,0,0,.777-1.879,2.365,2.365,0,0,0-.777-1.89,3.519,3.519,0,0,0-2.352-.672H16.611l1.512-1.617ZM30.156,0V-14.7h3.4V0Zm6.888,0V-14.7h3.4V-2.772h7.371V0ZM59.808-14.7h3.4V0h-3.4ZM53.13,0h-3.4V-14.7h3.4Zm6.93-6.027H52.878V-8.9H60.06ZM64.764,0l6.552-14.7h3.36L81.249,0h-3.57L72.3-12.978h1.344L68.25,0ZM68.04-3.15l.9-2.583H76.5l.924,2.583ZM91.854-8.778h7.077v2.646H91.854Zm.252,6.048h8V0H88.725V-14.7H99.834v2.73H92.106ZM102.816,0V-14.7h2.814L114.3-4.116h-1.365V-14.7h3.36V0H113.5l-8.694-10.584h1.365V0Zm20.118-8.085h7.056v2.73h-7.056ZM123.186,0h-3.4V-14.7h11.109v2.73h-7.707Zm13.146-8.778h7.077v2.646h-7.077Zm.252,6.048h8V0H133.2V-14.7h11.109v2.73h-7.728ZM147.294,0V-14.7h6.363a8.265,8.265,0,0,1,3.4.641,4.981,4.981,0,0,1,2.205,1.838,5.13,5.13,0,0,1,.777,2.856,5.039,5.039,0,0,1-.777,2.825,4.94,4.94,0,0,1-2.205,1.816,8.385,8.385,0,0,1-3.4.63h-4.473L150.7-5.586V0Zm9.345,0-3.675-5.334H156.6L160.314,0ZM150.7-5.208l-1.512-1.6h4.284a3.482,3.482,0,0,0,2.352-.683,2.372,2.372,0,0,0,.777-1.879,2.365,2.365,0,0,0-.777-1.89,3.519,3.519,0,0,0-2.352-.672h-4.284l1.512-1.617ZM162.729,0V-14.7h2.814L171.8-4.326H170.31L176.463-14.7h2.793L179.3,0h-3.192l-.021-9.807h.588l-4.914,8.253h-1.533l-5.019-8.253h.714V0Zm18.123,0L187.4-14.7h3.36L197.337,0h-3.57l-5.376-12.978h1.344L184.338,0Zm3.276-3.15.9-2.583h7.56l.924,2.583Zm21.441,3.4a8.919,8.919,0,0,1-3.2-.557,7.537,7.537,0,0,1-2.541-1.586,7.283,7.283,0,0,1-1.68-2.415,7.6,7.6,0,0,1-.6-3.045,7.6,7.6,0,0,1,.6-3.045,7.211,7.211,0,0,1,1.691-2.415A7.63,7.63,0,0,1,202.4-14.4a9.066,9.066,0,0,1,3.234-.557,9.078,9.078,0,0,1,3.517.651,6.966,6.966,0,0,1,2.636,1.89L209.6-10.4a5.33,5.33,0,0,0-1.743-1.25,5.12,5.12,0,0,0-2.058-.409,5.446,5.446,0,0,0-1.953.336,4.351,4.351,0,0,0-1.523.966,4.336,4.336,0,0,0-.987,1.491,5.076,5.076,0,0,0-.346,1.911,5.017,5.017,0,0,0,.346,1.89,4.447,4.447,0,0,0,.987,1.5,4.3,4.3,0,0,0,1.512.977,5.3,5.3,0,0,0,1.921.336,6.049,6.049,0,0,0,1.964-.326,5.666,5.666,0,0,0,1.859-1.1l1.932,2.457A8.861,8.861,0,0,1,208.73-.231,10.8,10.8,0,0,1,205.569.252Zm2.835-2.31V-7.581h3.108v5.964Zm9.387-6.72h7.077v2.646h-7.077Zm.252,6.048h8V0H214.662V-14.7h11.109v2.73h-7.728ZM228.753,0V-14.7h2.814l6.258,10.374h-1.491L242.487-14.7h2.793L245.322,0H242.13l-.021-9.807h.588l-4.914,8.253H236.25l-5.019-8.253h.714V0Z" transform="translate(11778.124 -2718.618) rotate(-90)" fill="#fff"/>
    <path id="Caminho_11981" data-name="Caminho 11981" d="M240.844,255.584H569.3c12.96,0,23.466-7.5,23.466-16.748v-62.9H264.311c-12.96,0-23.467,7.5-23.467,16.748Z" transform="translate(11625.399 -3115.718)" fill="#02a180"/>
    <path id="Caminho_12198" data-name="Caminho 12198" d="M1.743,0V-14.7H8.106a8.265,8.265,0,0,1,3.4.641,4.982,4.982,0,0,1,2.205,1.838,5.13,5.13,0,0,1,.777,2.856,5.091,5.091,0,0,1-.777,2.835,4.982,4.982,0,0,1-2.205,1.838,8.265,8.265,0,0,1-3.4.641H3.633L5.145-5.586V0Zm3.4-5.208L3.633-6.825H7.917A3.519,3.519,0,0,0,10.269-7.5a2.34,2.34,0,0,0,.777-1.869,2.365,2.365,0,0,0-.777-1.89,3.519,3.519,0,0,0-2.352-.672H3.633l1.512-1.617ZM13.314,0l6.552-14.7h3.36L29.8,0h-3.57L20.853-12.978H22.2L16.8,0ZM16.59-3.15l.9-2.583h7.56l.924,2.583ZM37.968.252A8.8,8.8,0,0,1,34.807-.3a7.424,7.424,0,0,1-2.53-1.586,7.358,7.358,0,0,1-1.67-2.415,7.6,7.6,0,0,1-.6-3.045,7.6,7.6,0,0,1,.6-3.045,7.283,7.283,0,0,1,1.68-2.415A7.561,7.561,0,0,1,34.818-14.4a8.774,8.774,0,0,1,3.171-.557,8.686,8.686,0,0,1,3.455.661,6.73,6.73,0,0,1,2.593,1.943l-2.184,2.016a5.111,5.111,0,0,0-1.68-1.291,4.714,4.714,0,0,0-2.016-.431,5.156,5.156,0,0,0-1.89.336,4.284,4.284,0,0,0-1.491.966A4.412,4.412,0,0,0,33.8-9.261a5.076,5.076,0,0,0-.347,1.911A5.076,5.076,0,0,0,33.8-5.439a4.412,4.412,0,0,0,.976,1.491,4.284,4.284,0,0,0,1.491.966,5.156,5.156,0,0,0,1.89.336,4.714,4.714,0,0,0,2.016-.431,5,5,0,0,0,1.68-1.312l2.184,2.016A6.826,6.826,0,0,1,41.444-.42,8.622,8.622,0,0,1,37.968.252ZM46.326,0V-14.7h3.4V0ZM56.343-8.778H63.42v2.646H56.343ZM56.6-2.73h8V0H53.214V-14.7H64.323v2.73H56.6ZM67.3,0V-14.7h2.814L78.792-4.116H77.427V-14.7h3.36V0H77.994L69.3-10.584h1.365V0ZM87.318,0V-11.928h-4.7V-14.7h12.81v2.772h-4.7V0ZM100.38-8.778h7.077v2.646H100.38Zm.252,6.048h8V0H97.251V-14.7H108.36v2.73h-7.728ZM116.172.252a11.993,11.993,0,0,1-3.381-.473,7.911,7.911,0,0,1-2.6-1.229l1.155-2.562a8.439,8.439,0,0,0,2.237,1.1,8.219,8.219,0,0,0,2.615.431,5.445,5.445,0,0,0,1.627-.2,1.906,1.906,0,0,0,.914-.556,1.252,1.252,0,0,0,.294-.819,1.108,1.108,0,0,0-.462-.935,3.793,3.793,0,0,0-1.218-.567q-.756-.22-1.67-.42t-1.827-.494a7.727,7.727,0,0,1-1.67-.756,3.715,3.715,0,0,1-1.229-1.218,3.591,3.591,0,0,1-.472-1.932,4.1,4.1,0,0,1,.682-2.3,4.669,4.669,0,0,1,2.058-1.659,8.426,8.426,0,0,1,3.455-.62,11.557,11.557,0,0,1,2.73.326,7.867,7.867,0,0,1,2.373.976l-1.05,2.583a8.936,8.936,0,0,0-2.058-.872,7.57,7.57,0,0,0-2.016-.283,4.768,4.768,0,0,0-1.617.231,1.907,1.907,0,0,0-.9.6,1.388,1.388,0,0,0-.273.85,1.088,1.088,0,0,0,.462.913,3.648,3.648,0,0,0,1.218.557q.756.21,1.67.42t1.827.483a7.064,7.064,0,0,1,1.67.735,3.715,3.715,0,0,1,1.229,1.218,3.548,3.548,0,0,1,.472,1.911,3.974,3.974,0,0,1-.693,2.268,4.841,4.841,0,0,1-2.069,1.659A8.362,8.362,0,0,1,116.172.252ZM130.683,0V-14.7h3.4V0Zm6.888,0V-14.7h2.814l8.673,10.584h-1.365V-14.7h3.36V0H148.26l-8.694-10.584h1.365V0Zm20.013,0V-11.928h-4.7V-14.7h12.81v2.772h-4.7V0Zm13.062-8.778h7.077v2.646h-7.077ZM170.9-2.73h8V0H167.517V-14.7h11.109v2.73H170.9ZM181.608,0V-14.7h6.363a8.265,8.265,0,0,1,3.4.641,4.981,4.981,0,0,1,2.205,1.838,5.13,5.13,0,0,1,.777,2.856,5.039,5.039,0,0,1-.777,2.825,4.94,4.94,0,0,1-2.205,1.816,8.385,8.385,0,0,1-3.4.63H183.5l1.512-1.491V0Zm9.345,0-3.675-5.334h3.633L194.628,0ZM185.01-5.208,183.5-6.8h4.284a3.482,3.482,0,0,0,2.352-.683,2.372,2.372,0,0,0,.777-1.879,2.365,2.365,0,0,0-.777-1.89,3.519,3.519,0,0,0-2.352-.672H183.5l1.512-1.617ZM197.043,0V-14.7h2.814L208.53-4.116h-1.365V-14.7h3.36V0h-2.793l-8.694-10.584H200.4V0Zm15.036,0,6.552-14.7h3.36L228.564,0h-3.57l-5.376-12.978h1.344L215.565,0Zm3.276-3.15.9-2.583h7.56l.924,2.583ZM230.1,0V-14.7h6.678a9.319,9.319,0,0,1,4.221.913,6.974,6.974,0,0,1,2.856,2.552,7.152,7.152,0,0,1,1.029,3.885,7.165,7.165,0,0,1-1.029,3.875A6.949,6.949,0,0,1,241-.914,9.319,9.319,0,0,1,236.775,0Zm3.4-2.793h3.108a5.508,5.508,0,0,0,2.551-.557,4.036,4.036,0,0,0,1.68-1.586,4.718,4.718,0,0,0,.6-2.415,4.7,4.7,0,0,0-.6-2.425,4.056,4.056,0,0,0-1.68-1.575,5.508,5.508,0,0,0-2.551-.556H233.5ZM254.583.252a8.94,8.94,0,0,1-3.223-.567,7.627,7.627,0,0,1-2.562-1.6,7.283,7.283,0,0,1-1.68-2.415,7.546,7.546,0,0,1-.6-3.024,7.546,7.546,0,0,1,.6-3.024,7.211,7.211,0,0,1,1.691-2.415,7.768,7.768,0,0,1,2.562-1.6,8.8,8.8,0,0,1,3.192-.567,8.772,8.772,0,0,1,3.2.567,7.674,7.674,0,0,1,2.541,1.6,7.447,7.447,0,0,1,1.69,2.4,7.413,7.413,0,0,1,.609,3.035A7.508,7.508,0,0,1,262-4.316a7.27,7.27,0,0,1-1.69,2.415,7.763,7.763,0,0,1-2.541,1.586A8.712,8.712,0,0,1,254.583.252Zm-.021-2.9a4.794,4.794,0,0,0,1.816-.336,4.356,4.356,0,0,0,1.46-.966,4.411,4.411,0,0,0,.977-1.491,5.076,5.076,0,0,0,.346-1.911,5.076,5.076,0,0,0-.346-1.911,4.492,4.492,0,0,0-.966-1.491,4.221,4.221,0,0,0-1.46-.966,4.875,4.875,0,0,0-1.827-.336,4.794,4.794,0,0,0-1.816.336,4.356,4.356,0,0,0-1.46.966,4.412,4.412,0,0,0-.977,1.491,5.076,5.076,0,0,0-.346,1.911,5.1,5.1,0,0,0,.346,1.9,4.468,4.468,0,0,0,.966,1.5,4.221,4.221,0,0,0,1.46.966A4.875,4.875,0,0,0,254.562-2.646ZM270,.252a11.993,11.993,0,0,1-3.381-.473,7.911,7.911,0,0,1-2.6-1.229l1.155-2.562a8.438,8.438,0,0,0,2.236,1.1,8.219,8.219,0,0,0,2.615.431,5.445,5.445,0,0,0,1.628-.2,1.906,1.906,0,0,0,.914-.556,1.252,1.252,0,0,0,.294-.819,1.108,1.108,0,0,0-.462-.935,3.794,3.794,0,0,0-1.218-.567q-.756-.22-1.669-.42t-1.827-.494a7.727,7.727,0,0,1-1.669-.756,3.715,3.715,0,0,1-1.229-1.218,3.591,3.591,0,0,1-.473-1.932,4.1,4.1,0,0,1,.683-2.3,4.669,4.669,0,0,1,2.058-1.659,8.426,8.426,0,0,1,3.454-.62,11.557,11.557,0,0,1,2.73.326,7.867,7.867,0,0,1,2.373.976l-1.05,2.583a8.936,8.936,0,0,0-2.058-.872,7.57,7.57,0,0,0-2.016-.283,4.768,4.768,0,0,0-1.617.231,1.906,1.906,0,0,0-.9.6,1.388,1.388,0,0,0-.273.85,1.088,1.088,0,0,0,.462.913,3.649,3.649,0,0,0,1.218.557q.756.21,1.669.42t1.827.483a7.064,7.064,0,0,1,1.669.735,3.715,3.715,0,0,1,1.228,1.218,3.548,3.548,0,0,1,.473,1.911,3.974,3.974,0,0,1-.693,2.268,4.841,4.841,0,0,1-2.069,1.659A8.362,8.362,0,0,1,270,.252Z" transform="translate(11894.436 -2892.673)" fill="#fff"/>
    <path id="Caminho_11982" data-name="Caminho 11982" d="M240.844,431.521H569.3c12.96,0,23.466-7.5,23.466-16.748v-62.9H264.311c-12.96,0-23.467,7.5-23.467,16.748Z" transform="translate(11625.399 -3193.436)" fill="#02a180"/>
    <path id="Caminho_12193" data-name="Caminho 12193" d="M-.189,0,6.363-14.7h3.36L16.3,0h-3.57L7.35-12.978H8.694L3.3,0ZM3.087-3.15l.9-2.583h7.56l.924,2.583ZM17.829,0V-14.7h2.814L26.9-4.326H25.41L31.563-14.7h2.793L34.4,0H31.206l-.021-9.807h.588L26.859-1.554H25.326L20.307-9.807h.714V0ZM37.884,0V-14.7h7.182a6.89,6.89,0,0,1,4.169,1.05,3.3,3.3,0,0,1,1.4,2.772,3.531,3.531,0,0,1-.567,2.005A3.713,3.713,0,0,1,48.51-7.56a5.293,5.293,0,0,1-2.268.462l.4-.861a6.278,6.278,0,0,1,2.457.451,3.693,3.693,0,0,1,1.669,1.334,3.763,3.763,0,0,1,.6,2.163,3.418,3.418,0,0,1-1.491,2.951A7.549,7.549,0,0,1,45.486,0Zm3.381-2.562h3.969a3.8,3.8,0,0,0,2.005-.431,1.505,1.505,0,0,0,.683-1.375,1.536,1.536,0,0,0-.683-1.376A3.651,3.651,0,0,0,45.234-6.2H41.013V-8.673h3.633a3.488,3.488,0,0,0,1.9-.431,1.458,1.458,0,0,0,.661-1.313,1.438,1.438,0,0,0-.661-1.292,3.489,3.489,0,0,0-1.9-.431H41.265ZM60.48.252a6.659,6.659,0,0,1-4.893-1.743,6.687,6.687,0,0,1-1.764-4.977V-14.7h3.4v8.106a4.36,4.36,0,0,0,.861,3.024,3.139,3.139,0,0,0,2.415.924,3.139,3.139,0,0,0,2.415-.924,4.36,4.36,0,0,0,.861-3.024V-14.7h3.36v8.232a6.687,6.687,0,0,1-1.764,4.977A6.659,6.659,0,0,1,60.48.252ZM70.5,0V-14.7h3.4V-2.772H81.27V0Zm10.92,0,6.552-14.7h3.36L97.9,0h-3.57L88.956-12.978H90.3L84.9,0Zm3.276-3.15.9-2.583h7.56L94.08-3.15ZM101.031,0V-11.928h-4.7V-14.7h12.81v2.772h-4.7V0Zm16.653.252a8.94,8.94,0,0,1-3.224-.567,7.627,7.627,0,0,1-2.562-1.6,7.283,7.283,0,0,1-1.68-2.415,7.546,7.546,0,0,1-.6-3.024,7.546,7.546,0,0,1,.6-3.024,7.21,7.21,0,0,1,1.69-2.415,7.768,7.768,0,0,1,2.562-1.6,8.8,8.8,0,0,1,3.192-.567,8.772,8.772,0,0,1,3.2.567,7.674,7.674,0,0,1,2.541,1.6,7.447,7.447,0,0,1,1.691,2.4,7.413,7.413,0,0,1,.609,3.035,7.508,7.508,0,0,1-.609,3.035A7.271,7.271,0,0,1,123.406-1.9a7.763,7.763,0,0,1-2.541,1.586A8.712,8.712,0,0,1,117.684.252Zm-.021-2.9a4.794,4.794,0,0,0,1.816-.336,4.356,4.356,0,0,0,1.46-.966,4.412,4.412,0,0,0,.977-1.491,5.076,5.076,0,0,0,.346-1.911,5.076,5.076,0,0,0-.346-1.911,4.493,4.493,0,0,0-.966-1.491,4.221,4.221,0,0,0-1.459-.966,4.875,4.875,0,0,0-1.827-.336,4.794,4.794,0,0,0-1.816.336,4.356,4.356,0,0,0-1.46.966,4.412,4.412,0,0,0-.977,1.491,5.076,5.076,0,0,0-.346,1.911,5.1,5.1,0,0,0,.346,1.9,4.468,4.468,0,0,0,.966,1.5,4.221,4.221,0,0,0,1.46.966A4.875,4.875,0,0,0,117.663-2.646ZM128.268,0V-14.7h6.363a8.265,8.265,0,0,1,3.4.641,4.981,4.981,0,0,1,2.205,1.838,5.13,5.13,0,0,1,.777,2.856,5.039,5.039,0,0,1-.777,2.825,4.94,4.94,0,0,1-2.205,1.816,8.385,8.385,0,0,1-3.4.63h-4.473l1.512-1.491V0Zm9.345,0-3.675-5.334h3.633L141.288,0ZM131.67-5.208l-1.512-1.6h4.284a3.482,3.482,0,0,0,2.352-.683,2.372,2.372,0,0,0,.777-1.879,2.365,2.365,0,0,0-.777-1.89,3.519,3.519,0,0,0-2.352-.672h-4.284l1.512-1.617ZM143.7,0V-14.7h3.4V0Zm4.956,0,6.552-14.7h3.36L165.144,0h-3.57L156.2-12.978h1.344L152.145,0Zm3.276-3.15.9-2.583h7.56l.924,2.583ZM166.677,0V-14.7h3.4V-2.772h7.371V0Z" transform="translate(11947.325 -2794.455)" fill="#fff"/>
    <path id="Caminho_11985" data-name="Caminho 11985" d="M961.669,431.521h160.969c12.961,0,23.467-7.5,23.467-16.748v-62.9H985.135c-12.96,0-23.467,7.5-23.467,16.748Z" transform="translate(11306.983 -3193.436)" fill="#81c300"/>
    <path id="Caminho_12194" data-name="Caminho 12194" d="M4.935-2.5v-9.7H7.644v9.7ZM1.3-6.069V-8.631h10v2.562ZM21.609,0V-13.44l1.47,1.47h-4.41V-14.7h6.342V0Zm19.53,0V-2.205l-.21-.483V-6.636a2.112,2.112,0,0,0-.641-1.638,2.826,2.826,0,0,0-1.964-.588,5.7,5.7,0,0,0-1.774.283,4.7,4.7,0,0,0-1.48.767L33.894-10.1a7.084,7.084,0,0,1,2.226-1.008,9.962,9.962,0,0,1,2.646-.357,6,6,0,0,1,4.011,1.218,4.727,4.727,0,0,1,1.428,3.8V0ZM37.695.168a5.221,5.221,0,0,1-2.268-.452,3.446,3.446,0,0,1-1.449-1.229,3.134,3.134,0,0,1-.5-1.743,3.154,3.154,0,0,1,.493-1.764,3.231,3.231,0,0,1,1.564-1.187,7.6,7.6,0,0,1,2.793-.431h3v1.911H38.682a2.463,2.463,0,0,0-1.585.378,1.206,1.206,0,0,0-.431.945,1.178,1.178,0,0,0,.493,1,2.223,2.223,0,0,0,1.354.368,2.813,2.813,0,0,0,1.47-.388,2.226,2.226,0,0,0,.945-1.144l.5,1.512A2.925,2.925,0,0,1,40.131-.4,4.682,4.682,0,0,1,37.695.168ZM54.033-11.466a5.26,5.26,0,0,1,2.4.535,3.883,3.883,0,0,1,1.67,1.638,5.8,5.8,0,0,1,.609,2.825V0H55.44V-5.964a2.9,2.9,0,0,0-.6-2.016,2.181,2.181,0,0,0-1.69-.651,2.956,2.956,0,0,0-1.4.326,2.259,2.259,0,0,0-.966,1,3.749,3.749,0,0,0-.346,1.722V0H47.166V-11.3h3.129v3.129l-.588-.945a4.185,4.185,0,0,1,1.743-1.743A5.373,5.373,0,0,1,54.033-11.466ZM67.2.168A6.62,6.62,0,0,1,64-.588a5.756,5.756,0,0,1-2.205-2.069,5.589,5.589,0,0,1-.808-2.993,5.628,5.628,0,0,1,.808-3.013A5.678,5.678,0,0,1,64-10.72a6.7,6.7,0,0,1,3.2-.745,6.712,6.712,0,0,1,3.192.745A5.608,5.608,0,0,1,72.6-8.673a5.67,5.67,0,0,1,.8,3.024,5.645,5.645,0,0,1-.8,2.993A5.659,5.659,0,0,1,70.392-.588,6.636,6.636,0,0,1,67.2.168Zm0-2.688A2.873,2.873,0,0,0,68.67-2.9,2.692,2.692,0,0,0,69.7-3.98a3.479,3.479,0,0,0,.378-1.67,3.464,3.464,0,0,0-.378-1.68A2.709,2.709,0,0,0,68.67-8.4a2.873,2.873,0,0,0-1.47-.378,2.873,2.873,0,0,0-1.47.378,2.782,2.782,0,0,0-1.04,1.071,3.388,3.388,0,0,0-.388,1.68,3.4,3.4,0,0,0,.388,1.67A2.763,2.763,0,0,0,65.73-2.9,2.873,2.873,0,0,0,67.2-2.52Zm21.189-8.946a5.26,5.26,0,0,1,2.4.535,3.883,3.883,0,0,1,1.67,1.638,5.8,5.8,0,0,1,.609,2.825V0H89.8V-5.964a2.9,2.9,0,0,0-.6-2.016,2.181,2.181,0,0,0-1.69-.651,2.956,2.956,0,0,0-1.4.326,2.259,2.259,0,0,0-.966,1A3.749,3.749,0,0,0,84.8-5.586V0H81.522V-11.3h3.129v3.129l-.588-.945a4.185,4.185,0,0,1,1.743-1.743A5.373,5.373,0,0,1,88.389-11.466ZM101.577.168a6.62,6.62,0,0,1-3.2-.756A5.756,5.756,0,0,1,96.17-2.657a5.589,5.589,0,0,1-.809-2.993,5.628,5.628,0,0,1,.809-3.013,5.678,5.678,0,0,1,2.205-2.058,6.7,6.7,0,0,1,3.2-.745,6.712,6.712,0,0,1,3.192.745,5.608,5.608,0,0,1,2.205,2.047,5.67,5.67,0,0,1,.8,3.024,5.645,5.645,0,0,1-.8,2.993,5.659,5.659,0,0,1-2.205,2.069A6.637,6.637,0,0,1,101.577.168Zm0-2.688a2.873,2.873,0,0,0,1.47-.378,2.692,2.692,0,0,0,1.029-1.081,3.479,3.479,0,0,0,.378-1.67,3.464,3.464,0,0,0-.378-1.68A2.709,2.709,0,0,0,103.047-8.4a2.873,2.873,0,0,0-1.47-.378,2.873,2.873,0,0,0-1.47.378,2.782,2.782,0,0,0-1.039,1.071,3.388,3.388,0,0,0-.389,1.68,3.4,3.4,0,0,0,.389,1.67A2.763,2.763,0,0,0,100.107-2.9,2.873,2.873,0,0,0,101.577-2.52Z" transform="translate(12303.292 -2807.853)" fill="#fff"/>
    <path id="Caminho_12195" data-name="Caminho 12195" d="M6.972.168A6.929,6.929,0,0,1,3.717-.578,5.6,5.6,0,0,1,1.48-2.646a5.643,5.643,0,0,1-.808-3A5.628,5.628,0,0,1,1.48-8.663,5.624,5.624,0,0,1,3.717-10.72a6.929,6.929,0,0,1,3.255-.745,6.227,6.227,0,0,1,3.108.745,4.546,4.546,0,0,1,1.953,2.132L9.492-7.224A2.949,2.949,0,0,0,8.39-8.4a2.85,2.85,0,0,0-1.438-.378A3.03,3.03,0,0,0,5.439-8.4a2.737,2.737,0,0,0-1.06,1.071,3.388,3.388,0,0,0-.389,1.68,3.388,3.388,0,0,0,.389,1.68A2.737,2.737,0,0,0,5.439-2.9a3.03,3.03,0,0,0,1.512.378A2.913,2.913,0,0,0,8.39-2.888a2.848,2.848,0,0,0,1.1-1.187l2.541,1.386A4.564,4.564,0,0,1,10.08-.578,6.227,6.227,0,0,1,6.972.168ZM20.853,0V-2.205l-.21-.483V-6.636A2.112,2.112,0,0,0,20-8.274a2.826,2.826,0,0,0-1.963-.588,5.7,5.7,0,0,0-1.775.283,4.7,4.7,0,0,0-1.48.767L13.608-10.1a7.084,7.084,0,0,1,2.226-1.008,9.962,9.962,0,0,1,2.646-.357,6,6,0,0,1,4.011,1.218,4.727,4.727,0,0,1,1.428,3.8V0ZM17.409.168a5.221,5.221,0,0,1-2.268-.452,3.446,3.446,0,0,1-1.449-1.229,3.134,3.134,0,0,1-.5-1.743,3.154,3.154,0,0,1,.493-1.764,3.231,3.231,0,0,1,1.564-1.187,7.6,7.6,0,0,1,2.793-.431h3v1.911H18.4a2.463,2.463,0,0,0-1.585.378,1.206,1.206,0,0,0-.431.945,1.178,1.178,0,0,0,.493,1,2.223,2.223,0,0,0,1.354.368,2.813,2.813,0,0,0,1.47-.388,2.226,2.226,0,0,0,.945-1.144l.5,1.512A2.925,2.925,0,0,1,19.845-.4,4.682,4.682,0,0,1,17.409.168ZM26.88,0V-11.3h3.129v3.192l-.441-.924a3.63,3.63,0,0,1,1.617-1.817,5.5,5.5,0,0,1,2.709-.619v3.024q-.21-.021-.378-.031t-.357-.01a3.076,3.076,0,0,0-2.174.766,3.1,3.1,0,0,0-.83,2.384V0ZM40.887,4.242a12.071,12.071,0,0,1-3.076-.388,6.678,6.678,0,0,1-2.467-1.165l1.3-2.352a5.348,5.348,0,0,0,1.817.935,7.222,7.222,0,0,0,2.174.347A3.5,3.5,0,0,0,43.166.84a3.109,3.109,0,0,0,.788-2.31v-1.7l.21-2.835-.042-2.856V-11.3h3.108V-1.89a5.982,5.982,0,0,1-1.638,4.641A6.751,6.751,0,0,1,40.887,4.242Zm-.5-4.788a5.916,5.916,0,0,1-2.845-.683A5.342,5.342,0,0,1,35.5-3.14a5.3,5.3,0,0,1-.766-2.867A5.342,5.342,0,0,1,35.5-8.894a5.263,5.263,0,0,1,2.037-1.9,5.991,5.991,0,0,1,2.845-.672,5.311,5.311,0,0,1,2.52.577A3.972,3.972,0,0,1,44.6-9.1a6.873,6.873,0,0,1,.609,3.1A6.819,6.819,0,0,1,44.6-2.93a4.033,4.033,0,0,1-1.7,1.8A5.233,5.233,0,0,1,40.383-.546Zm.651-2.688a3.3,3.3,0,0,0,1.533-.346,2.572,2.572,0,0,0,1.05-.977A2.761,2.761,0,0,0,44-6.006a2.747,2.747,0,0,0-.378-1.459,2.6,2.6,0,0,0-1.05-.966,3.3,3.3,0,0,0-1.533-.346,3.3,3.3,0,0,0-1.533.346,2.669,2.669,0,0,0-1.06.966,2.69,2.69,0,0,0-.389,1.459,2.7,2.7,0,0,0,.389,1.449,2.644,2.644,0,0,0,1.06.977A3.3,3.3,0,0,0,41.034-3.234ZM55.65.168a6.62,6.62,0,0,1-3.2-.756,5.756,5.756,0,0,1-2.205-2.069,5.589,5.589,0,0,1-.808-2.993,5.628,5.628,0,0,1,.808-3.013,5.678,5.678,0,0,1,2.205-2.058,6.7,6.7,0,0,1,3.2-.745,6.712,6.712,0,0,1,3.192.745,5.608,5.608,0,0,1,2.2,2.047,5.67,5.67,0,0,1,.8,3.024,5.645,5.645,0,0,1-.8,2.993,5.659,5.659,0,0,1-2.2,2.069A6.637,6.637,0,0,1,55.65.168Zm0-2.688A2.873,2.873,0,0,0,57.12-2.9,2.692,2.692,0,0,0,58.149-3.98a3.479,3.479,0,0,0,.378-1.67,3.464,3.464,0,0,0-.378-1.68A2.709,2.709,0,0,0,57.12-8.4a2.873,2.873,0,0,0-1.47-.378,2.873,2.873,0,0,0-1.47.378,2.782,2.782,0,0,0-1.039,1.071,3.388,3.388,0,0,0-.389,1.68,3.4,3.4,0,0,0,.389,1.67A2.763,2.763,0,0,0,54.18-2.9,2.873,2.873,0,0,0,55.65-2.52Z" transform="translate(12327.543 -2781.056)" fill="#fff"/>
    <path id="Caminho_11986" data-name="Caminho 11986" d="M240.844,607.457H569.3c12.96,0,23.466-7.5,23.466-16.748v-62.9H264.311c-12.96,0-23.467,7.5-23.467,16.748Z" transform="translate(11625.399 -3271.153)" fill="#02a180"/>
    <path id="Caminho_12189" data-name="Caminho 12189" d="M1.743,0V-14.7H8.106a8.265,8.265,0,0,1,3.4.641,4.982,4.982,0,0,1,2.205,1.838,5.13,5.13,0,0,1,.777,2.856,5.091,5.091,0,0,1-.777,2.835,4.982,4.982,0,0,1-2.205,1.838,8.265,8.265,0,0,1-3.4.641H3.633L5.145-5.586V0Zm3.4-5.208L3.633-6.825H7.917A3.519,3.519,0,0,0,10.269-7.5a2.34,2.34,0,0,0,.777-1.869,2.365,2.365,0,0,0-.777-1.89,3.519,3.519,0,0,0-2.352-.672H3.633l1.512-1.617ZM13.314,0l6.552-14.7h3.36L29.8,0h-3.57L20.853-12.978H22.2L16.8,0ZM16.59-3.15l.9-2.583h7.56l.924,2.583ZM37.968.252A8.8,8.8,0,0,1,34.807-.3a7.424,7.424,0,0,1-2.53-1.586,7.358,7.358,0,0,1-1.67-2.415,7.6,7.6,0,0,1-.6-3.045,7.6,7.6,0,0,1,.6-3.045,7.283,7.283,0,0,1,1.68-2.415A7.561,7.561,0,0,1,34.818-14.4a8.774,8.774,0,0,1,3.171-.557,8.686,8.686,0,0,1,3.455.661,6.73,6.73,0,0,1,2.593,1.943l-2.184,2.016a5.111,5.111,0,0,0-1.68-1.291,4.714,4.714,0,0,0-2.016-.431,5.156,5.156,0,0,0-1.89.336,4.284,4.284,0,0,0-1.491.966A4.412,4.412,0,0,0,33.8-9.261a5.076,5.076,0,0,0-.347,1.911A5.076,5.076,0,0,0,33.8-5.439a4.412,4.412,0,0,0,.976,1.491,4.284,4.284,0,0,0,1.491.966,5.156,5.156,0,0,0,1.89.336,4.714,4.714,0,0,0,2.016-.431,5,5,0,0,0,1.68-1.312l2.184,2.016A6.826,6.826,0,0,1,41.444-.42,8.622,8.622,0,0,1,37.968.252ZM46.326,0V-14.7h3.4V0ZM56.343-8.778H63.42v2.646H56.343ZM56.6-2.73h8V0H53.214V-14.7H64.323v2.73H56.6ZM67.3,0V-14.7h2.814L78.792-4.116H77.427V-14.7h3.36V0H77.994L69.3-10.584h1.365V0ZM87.318,0V-11.928h-4.7V-14.7h12.81v2.772h-4.7V0ZM100.38-8.778h7.077v2.646H100.38Zm.252,6.048h8V0H97.251V-14.7H108.36v2.73h-7.728ZM124.32.252A8.8,8.8,0,0,1,121.16-.3a7.424,7.424,0,0,1-2.531-1.586,7.358,7.358,0,0,1-1.669-2.415,7.6,7.6,0,0,1-.6-3.045,7.6,7.6,0,0,1,.6-3.045,7.283,7.283,0,0,1,1.68-2.415,7.561,7.561,0,0,1,2.53-1.585,8.774,8.774,0,0,1,3.171-.557,8.686,8.686,0,0,1,3.454.661,6.73,6.73,0,0,1,2.594,1.943l-2.184,2.016a5.111,5.111,0,0,0-1.68-1.291,4.714,4.714,0,0,0-2.016-.431,5.156,5.156,0,0,0-1.89.336,4.285,4.285,0,0,0-1.491.966,4.412,4.412,0,0,0-.977,1.491,5.076,5.076,0,0,0-.346,1.911,5.076,5.076,0,0,0,.346,1.911,4.412,4.412,0,0,0,.977,1.491,4.284,4.284,0,0,0,1.491.966,5.156,5.156,0,0,0,1.89.336,4.714,4.714,0,0,0,2.016-.431,5,5,0,0,0,1.68-1.312l2.184,2.016A6.825,6.825,0,0,1,127.8-.42,8.622,8.622,0,0,1,124.32.252ZM132.678,0V-14.7h3.4V0Zm6.888,0V-14.7h6.363a8.265,8.265,0,0,1,3.4.641,4.981,4.981,0,0,1,2.205,1.838,5.13,5.13,0,0,1,.777,2.856,5.039,5.039,0,0,1-.777,2.825,4.94,4.94,0,0,1-2.205,1.816,8.385,8.385,0,0,1-3.4.63h-4.473l1.512-1.491V0Zm9.345,0-3.675-5.334h3.633L152.586,0Zm-5.943-5.208-1.512-1.6h4.284a3.482,3.482,0,0,0,2.352-.683,2.372,2.372,0,0,0,.777-1.879,2.365,2.365,0,0,0-.777-1.89,3.519,3.519,0,0,0-2.352-.672h-4.284l1.512-1.617ZM161.532.252a6.659,6.659,0,0,1-4.893-1.743,6.687,6.687,0,0,1-1.764-4.977V-14.7h3.4v8.106a4.36,4.36,0,0,0,.861,3.024,3.138,3.138,0,0,0,2.415.924,3.139,3.139,0,0,0,2.415-.924,4.36,4.36,0,0,0,.861-3.024V-14.7h3.36v8.232a6.687,6.687,0,0,1-1.764,4.977A6.659,6.659,0,0,1,161.532.252ZM159.642-15.9l2.835-3.024H166L162.2-15.9ZM171.549,0V-14.7h6.363a8.265,8.265,0,0,1,3.4.641,4.981,4.981,0,0,1,2.205,1.838,5.13,5.13,0,0,1,.777,2.856,5.039,5.039,0,0,1-.777,2.825,4.94,4.94,0,0,1-2.205,1.816,8.385,8.385,0,0,1-3.4.63h-4.473l1.512-1.491V0Zm9.345,0-3.675-5.334h3.633L184.569,0Zm-5.943-5.208-1.512-1.6h4.284a3.482,3.482,0,0,0,2.352-.683,2.372,2.372,0,0,0,.777-1.879,2.365,2.365,0,0,0-.777-1.89,3.519,3.519,0,0,0-2.352-.672h-4.284l1.512-1.617ZM194.082.252a8.919,8.919,0,0,1-3.2-.557,7.537,7.537,0,0,1-2.541-1.586,7.283,7.283,0,0,1-1.68-2.415,7.6,7.6,0,0,1-.6-3.045,7.6,7.6,0,0,1,.6-3.045,7.211,7.211,0,0,1,1.691-2.415,7.63,7.63,0,0,1,2.562-1.585,9.066,9.066,0,0,1,3.234-.557,9.078,9.078,0,0,1,3.518.651,6.966,6.966,0,0,1,2.635,1.89L198.114-10.4a5.33,5.33,0,0,0-1.743-1.25,5.12,5.12,0,0,0-2.058-.409,5.446,5.446,0,0,0-1.953.336,4.351,4.351,0,0,0-1.523.966,4.336,4.336,0,0,0-.987,1.491A5.076,5.076,0,0,0,189.5-7.35a5.017,5.017,0,0,0,.346,1.89,4.447,4.447,0,0,0,.987,1.5,4.3,4.3,0,0,0,1.512.977,5.3,5.3,0,0,0,1.921.336,6.049,6.049,0,0,0,1.964-.326,5.666,5.666,0,0,0,1.859-1.1l1.932,2.457a8.861,8.861,0,0,1-2.783,1.386A10.8,10.8,0,0,1,194.082.252Zm2.835-2.31V-7.581h3.108v5.964ZM203.175,0V-14.7h3.4V0ZM217.1.252a8.8,8.8,0,0,1-3.16-.557,7.424,7.424,0,0,1-2.531-1.586,7.358,7.358,0,0,1-1.67-2.415,7.6,7.6,0,0,1-.6-3.045,7.6,7.6,0,0,1,.6-3.045,7.283,7.283,0,0,1,1.68-2.415,7.56,7.56,0,0,1,2.531-1.585,8.774,8.774,0,0,1,3.171-.557,8.686,8.686,0,0,1,3.454.661,6.73,6.73,0,0,1,2.594,1.943l-2.184,2.016a5.111,5.111,0,0,0-1.68-1.291,4.714,4.714,0,0,0-2.016-.431,5.156,5.156,0,0,0-1.89.336,4.285,4.285,0,0,0-1.491.966,4.412,4.412,0,0,0-.977,1.491,5.076,5.076,0,0,0-.346,1.911,5.076,5.076,0,0,0,.346,1.911,4.412,4.412,0,0,0,.977,1.491,4.285,4.285,0,0,0,1.491.966,5.156,5.156,0,0,0,1.89.336,4.714,4.714,0,0,0,2.016-.431,5,5,0,0,0,1.68-1.312l2.184,2.016A6.825,6.825,0,0,1,220.573-.42,8.622,8.622,0,0,1,217.1.252Zm14.889,0a8.94,8.94,0,0,1-3.223-.567,7.627,7.627,0,0,1-2.562-1.6,7.283,7.283,0,0,1-1.68-2.415,7.546,7.546,0,0,1-.6-3.024,7.546,7.546,0,0,1,.6-3.024,7.211,7.211,0,0,1,1.691-2.415,7.768,7.768,0,0,1,2.562-1.6,8.8,8.8,0,0,1,3.192-.567,8.772,8.772,0,0,1,3.2.567,7.674,7.674,0,0,1,2.541,1.6,7.447,7.447,0,0,1,1.691,2.4,7.413,7.413,0,0,1,.609,3.035,7.508,7.508,0,0,1-.609,3.035A7.271,7.271,0,0,1,237.709-1.9a7.763,7.763,0,0,1-2.541,1.586A8.712,8.712,0,0,1,231.987.252Zm-.021-2.9a4.794,4.794,0,0,0,1.816-.336,4.356,4.356,0,0,0,1.46-.966,4.412,4.412,0,0,0,.977-1.491,5.076,5.076,0,0,0,.346-1.911,5.076,5.076,0,0,0-.346-1.911,4.492,4.492,0,0,0-.966-1.491,4.221,4.221,0,0,0-1.46-.966,4.875,4.875,0,0,0-1.827-.336,4.794,4.794,0,0,0-1.816.336,4.356,4.356,0,0,0-1.46.966,4.412,4.412,0,0,0-.977,1.491,5.076,5.076,0,0,0-.346,1.911,5.1,5.1,0,0,0,.346,1.9,4.468,4.468,0,0,0,.966,1.5,4.221,4.221,0,0,0,1.46.966A4.875,4.875,0,0,0,231.966-2.646Z" transform="translate(11913.417 -2696.236)" fill="#fff"/>
    <g transform="matrix(1, 0, 0, 1, 11731.79, -3078)" filter="url(#Caminho_12201)">
      <path id="Caminho_12201-2" data-name="Caminho 12201" d="M20,0H207a20,20,0,0,1,20,20V124a20,20,0,0,1-20,20H20A20,20,0,0,1,0,124V20A20,20,0,0,1,20,0Z" transform="translate(502.21 6)" fill="#fff"/>
    </g>
    <path id="Caminho_12202" data-name="Caminho 12202" d="M5,19V6.28H.08V5H11.4V6.28H6.48V19Zm8.18,0V8.5h1.36v2.86l-.14-.5a3.46,3.46,0,0,1,1.48-1.83,4.9,4.9,0,0,1,2.58-.63V9.78a1.288,1.288,0,0,1-.16-.01,1.289,1.289,0,0,0-.16-.01,3.377,3.377,0,0,0-2.6,1.01,4.057,4.057,0,0,0-.94,2.87V19Zm7.86,0V8.5h1.42V19Zm.72-12.82a1,1,0,0,1-.74-.3.982.982,0,0,1-.3-.72.949.949,0,0,1,.3-.71,1.024,1.024,0,0,1,.74-.29,1.044,1.044,0,0,1,.74.28.918.918,0,0,1,.3.7,1.024,1.024,0,0,1-.29.74A1,1,0,0,1,21.76,6.18ZM26.42,19V4.16h1.42V19ZM37.16,8.4a4.926,4.926,0,0,1,2.25.49,3.523,3.523,0,0,1,1.52,1.49,5.184,5.184,0,0,1,.55,2.52V19H40.06V13.04a3.454,3.454,0,0,0-.83-2.51,3.107,3.107,0,0,0-2.33-.85,4.031,4.031,0,0,0-1.95.45,3.087,3.087,0,0,0-1.28,1.3,4.33,4.33,0,0,0-.45,2.05V19H31.8V4.16h1.42v7.22l-.28-.54a3.821,3.821,0,0,1,1.6-1.79A5.058,5.058,0,0,1,37.16,8.4ZM51.9,19V16.68l-.06-.38V12.42a2.722,2.722,0,0,0-.75-2.06,3.1,3.1,0,0,0-2.23-.72,5.551,5.551,0,0,0-1.94.34,4.942,4.942,0,0,0-1.56.9l-.64-1.06a5.675,5.675,0,0,1,1.92-1.05A7.475,7.475,0,0,1,49,8.4a4.517,4.517,0,0,1,3.15,1.01,3.949,3.949,0,0,1,1.11,3.07V19Zm-3.62.1a4.977,4.977,0,0,1-2.05-.39,3.044,3.044,0,0,1-1.33-1.08,2.8,2.8,0,0,1-.46-1.59,2.907,2.907,0,0,1,.39-1.49,2.746,2.746,0,0,1,1.28-1.08,5.792,5.792,0,0,1,2.39-.41h3.62v1.06H48.54a3.149,3.149,0,0,0-2.11.54,1.824,1.824,0,0,0,.11,2.78,3.143,3.143,0,0,0,1.96.54,3.793,3.793,0,0,0,2.07-.55,3.159,3.159,0,0,0,1.27-1.59l.32.98a3.336,3.336,0,0,1-1.39,1.66A4.613,4.613,0,0,1,48.28,19.1ZM62.36,19V8.5h1.36v2.86l-.14-.5a3.46,3.46,0,0,1,1.48-1.83,4.9,4.9,0,0,1,2.58-.63V9.78a1.289,1.289,0,0,1-.16-.01,1.289,1.289,0,0,0-.16-.01,3.377,3.377,0,0,0-2.6,1.01,4.057,4.057,0,0,0-.94,2.87V19Zm12.22.1a5.826,5.826,0,0,1-2.88-.69,5.014,5.014,0,0,1-1.94-1.9,5.43,5.43,0,0,1-.7-2.77,5.566,5.566,0,0,1,.67-2.76,4.961,4.961,0,0,1,1.84-1.89,5.426,5.426,0,0,1,5.26-.02,4.771,4.771,0,0,1,1.81,1.88,5.733,5.733,0,0,1,.66,2.79q0,.1-.01.21t-.01.23H70.14V13.12h8.38l-.56.42a4.139,4.139,0,0,0-.49-2.03,3.607,3.607,0,0,0-1.33-1.39,3.72,3.72,0,0,0-1.94-.5,3.788,3.788,0,0,0-1.94.5,3.476,3.476,0,0,0-1.34,1.4,4.31,4.31,0,0,0-.48,2.06v.22a4.116,4.116,0,0,0,.53,2.11,3.7,3.7,0,0,0,1.48,1.42,4.516,4.516,0,0,0,2.17.51,4.676,4.676,0,0,0,1.79-.34,3.719,3.719,0,0,0,1.43-1.04l.8.92a4.5,4.5,0,0,1-1.75,1.28A5.919,5.919,0,0,1,74.58,19.1Zm13.9-.1V16.68l-.06-.38V12.42a2.722,2.722,0,0,0-.75-2.06,3.1,3.1,0,0,0-2.23-.72,5.551,5.551,0,0,0-1.94.34,4.942,4.942,0,0,0-1.56.9L81.3,9.82a5.675,5.675,0,0,1,1.92-1.05,7.475,7.475,0,0,1,2.36-.37,4.517,4.517,0,0,1,3.15,1.01,3.949,3.949,0,0,1,1.11,3.07V19Zm-3.62.1a4.977,4.977,0,0,1-2.05-.39,3.044,3.044,0,0,1-1.33-1.08,2.8,2.8,0,0,1-.46-1.59,2.907,2.907,0,0,1,.39-1.49,2.746,2.746,0,0,1,1.28-1.08,5.792,5.792,0,0,1,2.39-.41H88.7v1.06H85.12a3.149,3.149,0,0,0-2.11.54,1.824,1.824,0,0,0,.11,2.78,3.143,3.143,0,0,0,1.96.54,3.793,3.793,0,0,0,2.07-.55,3.159,3.159,0,0,0,1.27-1.59l.32.98a3.336,3.336,0,0,1-1.39,1.66A4.613,4.613,0,0,1,84.86,19.1ZM93.7,19V4.16h1.42V19Zm5.38,0V8.5h1.42V19ZM99.8,6.18a1,1,0,0,1-.74-.3.982.982,0,0,1-.3-.72.949.949,0,0,1,.3-.71,1.024,1.024,0,0,1,.74-.29,1.044,1.044,0,0,1,.74.28.918.918,0,0,1,.3.7,1.024,1.024,0,0,1-.29.74A1,1,0,0,1,99.8,6.18ZM103.32,19v-.94l7-8.86.3.48h-7.18V8.5h8.3v.92l-6.98,8.88-.36-.48h7.48V19Zm17.94,0V16.68l-.06-.38V12.42a2.722,2.722,0,0,0-.75-2.06,3.1,3.1,0,0,0-2.23-.72,5.551,5.551,0,0,0-1.94.34,4.942,4.942,0,0,0-1.56.9l-.64-1.06A5.675,5.675,0,0,1,116,8.77a7.475,7.475,0,0,1,2.36-.37,4.517,4.517,0,0,1,3.15,1.01,3.949,3.949,0,0,1,1.11,3.07V19Zm-3.62.1a4.977,4.977,0,0,1-2.05-.39,3.044,3.044,0,0,1-1.33-1.08,2.8,2.8,0,0,1-.46-1.59,2.907,2.907,0,0,1,.39-1.49,2.746,2.746,0,0,1,1.28-1.08,5.792,5.792,0,0,1,2.39-.41h3.62v1.06H117.9a3.149,3.149,0,0,0-2.11.54,1.824,1.824,0,0,0,.11,2.78,3.143,3.143,0,0,0,1.96.54,3.793,3.793,0,0,0,2.07-.55,3.159,3.159,0,0,0,1.27-1.59l.32.98a3.336,3.336,0,0,1-1.39,1.66A4.613,4.613,0,0,1,117.64,19.1Zm13.02,0a5.324,5.324,0,0,1-2.69-.68,4.9,4.9,0,0,1-1.87-1.89,5.6,5.6,0,0,1-.68-2.79,5.583,5.583,0,0,1,.68-2.8,4.847,4.847,0,0,1,1.87-1.87,5.387,5.387,0,0,1,2.69-.67,4.907,4.907,0,0,1,2.47.62,4.512,4.512,0,0,1,1.74,1.81,6,6,0,0,1,.65,2.91,6.09,6.09,0,0,1-.64,2.9,4.5,4.5,0,0,1-1.73,1.83A4.885,4.885,0,0,1,130.66,19.1Zm.1-1.26a3.97,3.97,0,0,0,2.01-.51,3.638,3.638,0,0,0,1.4-1.44,4.4,4.4,0,0,0,.51-2.15,4.385,4.385,0,0,0-.51-2.16,3.656,3.656,0,0,0-1.4-1.43,3.97,3.97,0,0,0-2.01-.51,3.876,3.876,0,0,0-1.98.51,3.748,3.748,0,0,0-1.4,1.43,4.317,4.317,0,0,0-.52,2.16,4.331,4.331,0,0,0,.52,2.15,3.729,3.729,0,0,0,1.4,1.44A3.876,3.876,0,0,0,130.76,17.84ZM134.72,19V15.84l.14-2.12-.2-2.12V4.16h1.42V19Zm11.9,0V16.68l-.06-.38V12.42a2.722,2.722,0,0,0-.75-2.06,3.1,3.1,0,0,0-2.23-.72,5.551,5.551,0,0,0-1.94.34,4.942,4.942,0,0,0-1.56.9l-.64-1.06a5.675,5.675,0,0,1,1.92-1.05,7.475,7.475,0,0,1,2.36-.37,4.517,4.517,0,0,1,3.15,1.01,3.949,3.949,0,0,1,1.11,3.07V19Zm-3.62.1a4.977,4.977,0,0,1-2.05-.39,3.044,3.044,0,0,1-1.33-1.08,2.8,2.8,0,0,1-.46-1.59,2.908,2.908,0,0,1,.39-1.49,2.746,2.746,0,0,1,1.28-1.08,5.792,5.792,0,0,1,2.39-.41h3.62v1.06h-3.58a3.149,3.149,0,0,0-2.11.54,1.824,1.824,0,0,0,.11,2.78,3.143,3.143,0,0,0,1.96.54,3.793,3.793,0,0,0,2.07-.55,3.159,3.159,0,0,0,1.27-1.59l.32.98a3.336,3.336,0,0,1-1.39,1.66A4.613,4.613,0,0,1,143,19.1ZM6.32,43.1a5.171,5.171,0,0,1-2.34-.5,3.544,3.544,0,0,1-1.55-1.5,5.138,5.138,0,0,1-.55-2.5V32.5H3.3v5.94a3.485,3.485,0,0,0,.83,2.53,3.107,3.107,0,0,0,2.33.85,3.872,3.872,0,0,0,1.91-.45,2.986,2.986,0,0,0,1.24-1.31A4.562,4.562,0,0,0,10.04,38V32.5h1.42V43H10.1V40.12l.22.52a3.882,3.882,0,0,1-1.55,1.81A4.559,4.559,0,0,1,6.32,43.1ZM28.54,32.4a4.8,4.8,0,0,1,2.23.49,3.436,3.436,0,0,1,1.48,1.49,5.347,5.347,0,0,1,.53,2.52V43H31.36V37.04a3.565,3.565,0,0,0-.79-2.51,2.894,2.894,0,0,0-2.23-.85,3.716,3.716,0,0,0-1.87.45,3.03,3.03,0,0,0-1.22,1.3,4.5,4.5,0,0,0-.43,2.05V43H23.4V37.04a3.536,3.536,0,0,0-.8-2.51,2.927,2.927,0,0,0-2.24-.85,3.73,3.73,0,0,0-1.86.45,3.013,3.013,0,0,0-1.23,1.3,4.5,4.5,0,0,0-.43,2.05V43H15.42V32.5h1.36v2.84l-.22-.5a3.752,3.752,0,0,1,1.55-1.79,4.779,4.779,0,0,1,2.53-.65,4.4,4.4,0,0,1,2.62.77,3.6,3.6,0,0,1,1.4,2.31l-.56-.22a4.139,4.139,0,0,1,1.63-2.07A4.9,4.9,0,0,1,28.54,32.4ZM43.22,43V40.68l-.06-.38V36.42a2.722,2.722,0,0,0-.75-2.06,3.1,3.1,0,0,0-2.23-.72,5.551,5.551,0,0,0-1.94.34,4.942,4.942,0,0,0-1.56.9l-.64-1.06a5.675,5.675,0,0,1,1.92-1.05,7.475,7.475,0,0,1,2.36-.37,4.517,4.517,0,0,1,3.15,1.01,3.949,3.949,0,0,1,1.11,3.07V43Zm-3.62.1a4.977,4.977,0,0,1-2.05-.39,3.044,3.044,0,0,1-1.33-1.08,2.8,2.8,0,0,1-.46-1.59,2.907,2.907,0,0,1,.39-1.49,2.746,2.746,0,0,1,1.28-1.08,5.792,5.792,0,0,1,2.39-.41h3.62v1.06H39.86a3.149,3.149,0,0,0-2.11.54,1.824,1.824,0,0,0,.11,2.78,3.143,3.143,0,0,0,1.96.54,3.793,3.793,0,0,0,2.07-.55,3.159,3.159,0,0,0,1.27-1.59l.32.98a3.336,3.336,0,0,1-1.39,1.66A4.613,4.613,0,0,1,39.6,43.1Zm18.42,0a5.171,5.171,0,0,1-2.34-.5,3.544,3.544,0,0,1-1.55-1.5,5.138,5.138,0,0,1-.55-2.5V32.5H55v5.94a3.485,3.485,0,0,0,.83,2.53,3.107,3.107,0,0,0,2.33.85,3.872,3.872,0,0,0,1.91-.45,2.986,2.986,0,0,0,1.24-1.31A4.562,4.562,0,0,0,61.74,38V32.5h1.42V43H61.8V40.12l.22.52a3.882,3.882,0,0,1-1.55,1.81A4.559,4.559,0,0,1,58.02,43.1Zm-.94-12.24,2.74-2.48h1.9l-3.24,2.48Zm15.4,1.54a4.926,4.926,0,0,1,2.25.49,3.523,3.523,0,0,1,1.52,1.49,5.184,5.184,0,0,1,.55,2.52V43H75.38V37.04a3.454,3.454,0,0,0-.83-2.51,3.107,3.107,0,0,0-2.33-.85,4.031,4.031,0,0,0-1.95.45,3.087,3.087,0,0,0-1.28,1.3,4.33,4.33,0,0,0-.45,2.05V43H67.12V32.5h1.36v2.88l-.22-.54a3.821,3.821,0,0,1,1.6-1.79A5.058,5.058,0,0,1,72.48,32.4ZM80.64,43V32.5h1.42V43Zm.72-12.82a1,1,0,0,1-.74-.3.982.982,0,0,1-.3-.72.949.949,0,0,1,.3-.71,1.024,1.024,0,0,1,.74-.29,1.044,1.044,0,0,1,.74.28.918.918,0,0,1,.3.7,1.024,1.024,0,0,1-.29.74A1,1,0,0,1,81.36,30.18ZM90.38,43.1a5.6,5.6,0,0,1-2.79-.69,5.033,5.033,0,0,1-1.93-1.9,5.85,5.85,0,0,1,0-5.55,4.982,4.982,0,0,1,1.93-1.88,5.669,5.669,0,0,1,2.79-.68,5.507,5.507,0,0,1,2.42.52,3.921,3.921,0,0,1,1.7,1.56l-1.06.72a3.332,3.332,0,0,0-1.34-1.18,4.217,4.217,0,0,0-3.76.13,3.705,3.705,0,0,0-1.42,1.43,4.746,4.746,0,0,0,0,4.32,3.705,3.705,0,0,0,1.42,1.43,4.217,4.217,0,0,0,3.76.13,3.381,3.381,0,0,0,1.34-1.16l1.06.72a4.022,4.022,0,0,1-1.7,1.55A5.42,5.42,0,0,1,90.38,43.1Zm13.48-.1V40.68l-.06-.38V36.42a2.722,2.722,0,0,0-.75-2.06,3.1,3.1,0,0,0-2.23-.72,5.551,5.551,0,0,0-1.94.34,4.942,4.942,0,0,0-1.56.9l-.64-1.06a5.675,5.675,0,0,1,1.92-1.05,7.475,7.475,0,0,1,2.36-.37,4.517,4.517,0,0,1,3.15,1.01,3.949,3.949,0,0,1,1.11,3.07V43Zm-3.62.1a4.977,4.977,0,0,1-2.05-.39,3.044,3.044,0,0,1-1.33-1.08,2.8,2.8,0,0,1-.46-1.59,2.907,2.907,0,0,1,.39-1.49,2.746,2.746,0,0,1,1.28-1.08,5.792,5.792,0,0,1,2.39-.41h3.62v1.06H100.5a3.149,3.149,0,0,0-2.11.54,1.824,1.824,0,0,0,.11,2.78,3.143,3.143,0,0,0,1.96.54,3.793,3.793,0,0,0,2.07-.55,3.159,3.159,0,0,0,1.27-1.59l.32.98a3.336,3.336,0,0,1-1.39,1.66A4.613,4.613,0,0,1,100.24,43.1Zm16.78-.1-4.66-10.5h1.48l4.28,9.74h-.7l4.34-9.74h1.4L118.48,43Zm12.3.1a5.826,5.826,0,0,1-2.88-.69,5.014,5.014,0,0,1-1.94-1.9,5.43,5.43,0,0,1-.7-2.77,5.566,5.566,0,0,1,.67-2.76,4.961,4.961,0,0,1,1.84-1.89,5.426,5.426,0,0,1,5.26-.02,4.771,4.771,0,0,1,1.81,1.88,5.734,5.734,0,0,1,.66,2.79q0,.1-.01.21t-.01.23h-9.14V37.12h8.38l-.56.42a4.139,4.139,0,0,0-.49-2.03,3.606,3.606,0,0,0-1.33-1.39,3.72,3.72,0,0,0-1.94-.5,3.788,3.788,0,0,0-1.94.5,3.476,3.476,0,0,0-1.34,1.4,4.31,4.31,0,0,0-.48,2.06v.22a4.116,4.116,0,0,0,.53,2.11,3.7,3.7,0,0,0,1.48,1.42,4.516,4.516,0,0,0,2.17.51,4.676,4.676,0,0,0,1.79-.34,3.719,3.719,0,0,0,1.43-1.04l.8.92a4.5,4.5,0,0,1-1.75,1.28A5.919,5.919,0,0,1,129.32,43.1Zm6.38-.1v-.94l7-8.86.3.48h-7.18V32.5h8.3v.92l-6.98,8.88-.36-.48h7.48V43Zm21.96-10.6a4.926,4.926,0,0,1,2.25.49,3.523,3.523,0,0,1,1.52,1.49,5.184,5.184,0,0,1,.55,2.52V43h-1.42V37.04a3.454,3.454,0,0,0-.83-2.51,3.107,3.107,0,0,0-2.33-.85,4.031,4.031,0,0,0-1.95.45,3.087,3.087,0,0,0-1.28,1.3,4.33,4.33,0,0,0-.45,2.05V43H152.3V32.5h1.36v2.88l-.22-.54a3.821,3.821,0,0,1,1.6-1.79A5.059,5.059,0,0,1,157.66,32.4ZM172.4,43V40.68l-.06-.38V36.42a2.722,2.722,0,0,0-.75-2.06,3.1,3.1,0,0,0-2.23-.72,5.551,5.551,0,0,0-1.94.34,4.942,4.942,0,0,0-1.56.9l-.64-1.06a5.675,5.675,0,0,1,1.92-1.05,7.475,7.475,0,0,1,2.36-.37,4.517,4.517,0,0,1,3.15,1.01,3.949,3.949,0,0,1,1.11,3.07V43Zm-3.62.1a4.977,4.977,0,0,1-2.05-.39,3.044,3.044,0,0,1-1.33-1.08,2.8,2.8,0,0,1-.46-1.59,2.908,2.908,0,0,1,.39-1.49,2.746,2.746,0,0,1,1.28-1.08,5.792,5.792,0,0,1,2.39-.41h3.62v1.06h-3.58a3.149,3.149,0,0,0-2.11.54,1.824,1.824,0,0,0,.11,2.78,3.143,3.143,0,0,0,1.96.54,3.793,3.793,0,0,0,2.07-.55,3.159,3.159,0,0,0,1.27-1.59l.32.98a3.336,3.336,0,0,1-1.39,1.66A4.613,4.613,0,0,1,168.78,43.1ZM8.56,67V64.68L8.5,64.3V60.42a2.722,2.722,0,0,0-.75-2.06,3.1,3.1,0,0,0-2.23-.72,5.551,5.551,0,0,0-1.94.34,4.942,4.942,0,0,0-1.56.9l-.64-1.06A5.675,5.675,0,0,1,3.3,56.77a7.475,7.475,0,0,1,2.36-.37,4.517,4.517,0,0,1,3.15,1.01,3.949,3.949,0,0,1,1.11,3.07V67Zm-3.62.1a4.977,4.977,0,0,1-2.05-.39,3.044,3.044,0,0,1-1.33-1.08,2.8,2.8,0,0,1-.46-1.59,2.907,2.907,0,0,1,.39-1.49,2.746,2.746,0,0,1,1.28-1.08,5.792,5.792,0,0,1,2.39-.41H8.78v1.06H5.2a3.149,3.149,0,0,0-2.11.54,1.824,1.824,0,0,0,.11,2.78,3.143,3.143,0,0,0,1.96.54,3.793,3.793,0,0,0,2.07-.55A3.159,3.159,0,0,0,8.5,63.84l.32.98a3.336,3.336,0,0,1-1.39,1.66A4.613,4.613,0,0,1,4.94,67.1Zm13.02,0a5.324,5.324,0,0,1-2.69-.68,4.9,4.9,0,0,1-1.87-1.89,6.084,6.084,0,0,1,0-5.59,4.847,4.847,0,0,1,1.87-1.87,5.387,5.387,0,0,1,2.69-.67,4.907,4.907,0,0,1,2.47.62,4.512,4.512,0,0,1,1.74,1.81,6,6,0,0,1,.65,2.91,6.09,6.09,0,0,1-.64,2.9,4.5,4.5,0,0,1-1.73,1.83A4.885,4.885,0,0,1,17.96,67.1Zm.1-1.26a3.97,3.97,0,0,0,2.01-.51,3.639,3.639,0,0,0,1.4-1.44,4.808,4.808,0,0,0,0-4.31,3.656,3.656,0,0,0-1.4-1.43,3.97,3.97,0,0,0-2.01-.51,3.876,3.876,0,0,0-1.98.51,3.748,3.748,0,0,0-1.4,1.43,4.725,4.725,0,0,0,0,4.31,3.729,3.729,0,0,0,1.4,1.44A3.876,3.876,0,0,0,18.06,65.84ZM22.02,67V63.84l.14-2.12-.2-2.12V52.16h1.42V67ZM40.46,56.4a4.8,4.8,0,0,1,2.23.49,3.436,3.436,0,0,1,1.48,1.49,5.347,5.347,0,0,1,.53,2.52V67H43.28V61.04a3.565,3.565,0,0,0-.79-2.51,2.894,2.894,0,0,0-2.23-.85,3.716,3.716,0,0,0-1.87.45,3.03,3.03,0,0,0-1.22,1.3,4.5,4.5,0,0,0-.43,2.05V67H35.32V61.04a3.536,3.536,0,0,0-.8-2.51,2.927,2.927,0,0,0-2.24-.85,3.73,3.73,0,0,0-1.86.45,3.013,3.013,0,0,0-1.23,1.3,4.5,4.5,0,0,0-.43,2.05V67H27.34V56.5H28.7v2.84l-.22-.5a3.752,3.752,0,0,1,1.55-1.79,4.779,4.779,0,0,1,2.53-.65,4.4,4.4,0,0,1,2.62.77,3.6,3.6,0,0,1,1.4,2.31l-.56-.22a4.139,4.139,0,0,1,1.63-2.07A4.9,4.9,0,0,1,40.46,56.4ZM48.56,67V56.5h1.42V67Zm.72-12.82a1,1,0,0,1-.74-.3.982.982,0,0,1-.3-.72.949.949,0,0,1,.3-.71,1.024,1.024,0,0,1,.74-.29,1.044,1.044,0,0,1,.74.28.918.918,0,0,1,.3.7,1.024,1.024,0,0,1-.29.74A1,1,0,0,1,49.28,54.18ZM56.76,67.1a8.048,8.048,0,0,1-2.46-.37,5.275,5.275,0,0,1-1.82-.93l.64-1.12a6.069,6.069,0,0,0,1.64.83,6.311,6.311,0,0,0,2.1.35,3.813,3.813,0,0,0,2.16-.47,1.462,1.462,0,0,0,.66-1.25,1.157,1.157,0,0,0-.37-.91,2.427,2.427,0,0,0-.97-.5A11.961,11.961,0,0,0,57,62.44q-.74-.12-1.47-.28a5.4,5.4,0,0,1-1.33-.47,2.6,2.6,0,0,1-.97-.85,2.506,2.506,0,0,1-.37-1.44,2.606,2.606,0,0,1,.48-1.54,3.169,3.169,0,0,1,1.41-1.07,5.871,5.871,0,0,1,2.27-.39,7.943,7.943,0,0,1,2.04.27,5.613,5.613,0,0,1,1.68.71l-.62,1.14a4.784,4.784,0,0,0-1.5-.69,6.279,6.279,0,0,0-1.6-.21,3.565,3.565,0,0,0-2.09.49,1.489,1.489,0,0,0-.67,1.25,1.213,1.213,0,0,0,.37.94,2.543,2.543,0,0,0,.98.53,9.929,9.929,0,0,0,1.34.31q.73.12,1.46.29a6.6,6.6,0,0,1,1.34.46,2.457,2.457,0,0,1,.98.82,2.38,2.38,0,0,1,.37,1.39,2.55,2.55,0,0,1-.51,1.59,3.262,3.262,0,0,1-1.48,1.04A6.611,6.611,0,0,1,56.76,67.1Zm9.76,0a8.048,8.048,0,0,1-2.46-.37,5.275,5.275,0,0,1-1.82-.93l.64-1.12a6.069,6.069,0,0,0,1.64.83,6.311,6.311,0,0,0,2.1.35,3.813,3.813,0,0,0,2.16-.47,1.462,1.462,0,0,0,.66-1.25,1.157,1.157,0,0,0-.37-.91,2.427,2.427,0,0,0-.97-.5,11.961,11.961,0,0,0-1.34-.29q-.74-.12-1.47-.28a5.4,5.4,0,0,1-1.33-.47,2.6,2.6,0,0,1-.97-.85,2.506,2.506,0,0,1-.37-1.44,2.606,2.606,0,0,1,.48-1.54,3.169,3.169,0,0,1,1.41-1.07,5.871,5.871,0,0,1,2.27-.39,7.943,7.943,0,0,1,2.04.27,5.613,5.613,0,0,1,1.68.71l-.62,1.14a4.784,4.784,0,0,0-1.5-.69,6.279,6.279,0,0,0-1.6-.21,3.565,3.565,0,0,0-2.09.49,1.489,1.489,0,0,0-.67,1.25,1.213,1.213,0,0,0,.37.94,2.543,2.543,0,0,0,.98.53,9.929,9.929,0,0,0,1.34.31q.73.12,1.46.29a6.6,6.6,0,0,1,1.34.46,2.457,2.457,0,0,1,.98.82,2.38,2.38,0,0,1,.37,1.39,2.549,2.549,0,0,1-.51,1.59,3.262,3.262,0,0,1-1.48,1.04A6.611,6.611,0,0,1,66.52,67.1ZM80.04,67V64.68l-.06-.38V60.42a2.722,2.722,0,0,0-.75-2.06A3.1,3.1,0,0,0,77,57.64a5.551,5.551,0,0,0-1.94.34,4.942,4.942,0,0,0-1.56.9l-.64-1.06a5.675,5.675,0,0,1,1.92-1.05,7.475,7.475,0,0,1,2.36-.37,4.517,4.517,0,0,1,3.15,1.01,3.949,3.949,0,0,1,1.11,3.07V67Zm-3.62.1a4.977,4.977,0,0,1-2.05-.39,3.044,3.044,0,0,1-1.33-1.08,2.8,2.8,0,0,1-.46-1.59,2.907,2.907,0,0,1,.39-1.49,2.746,2.746,0,0,1,1.28-1.08,5.792,5.792,0,0,1,2.39-.41h3.62v1.06H76.68a3.149,3.149,0,0,0-2.11.54,1.824,1.824,0,0,0,.11,2.78,3.143,3.143,0,0,0,1.96.54,3.793,3.793,0,0,0,2.07-.55,3.159,3.159,0,0,0,1.27-1.59l.32.98a3.336,3.336,0,0,1-1.39,1.66A4.613,4.613,0,0,1,76.42,67.1Zm2.12-12.36a1.66,1.66,0,0,1-.82-.2,3.3,3.3,0,0,1-.65-.47,7.036,7.036,0,0,0-.57-.48.955.955,0,0,0-.58-.21.883.883,0,0,0-.73.34,1.659,1.659,0,0,0-.31.94h-.86a2.626,2.626,0,0,1,.53-1.6,1.564,1.564,0,0,1,1.27-.6,1.652,1.652,0,0,1,.83.21,3.5,3.5,0,0,1,.66.48,6.55,6.55,0,0,0,.56.47.942.942,0,0,0,.57.2.923.923,0,0,0,.74-.33,1.443,1.443,0,0,0,.3-.91h.86a2.439,2.439,0,0,1-.52,1.56A1.592,1.592,0,0,1,78.54,54.74Zm11,12.36a5.412,5.412,0,0,1-2.73-.69,5.074,5.074,0,0,1-1.91-1.9,5.85,5.85,0,0,1,0-5.55,5.043,5.043,0,0,1,1.9-1.88,5.46,5.46,0,0,1,2.74-.68,5.556,5.556,0,0,1,2.77.68,4.95,4.95,0,0,1,1.9,1.88,5.925,5.925,0,0,1,0,5.55,4.981,4.981,0,0,1-1.91,1.9A5.507,5.507,0,0,1,89.54,67.1Zm0-1.26a3.955,3.955,0,0,0,2.02-.51,3.659,3.659,0,0,0,1.39-1.44,4.808,4.808,0,0,0,0-4.31,3.677,3.677,0,0,0-1.39-1.43,4.177,4.177,0,0,0-4,0,3.748,3.748,0,0,0-1.4,1.43,4.725,4.725,0,0,0,0,4.31,3.729,3.729,0,0,0,1.4,1.44A3.876,3.876,0,0,0,89.54,65.84Zm17.68,1.26a5.324,5.324,0,0,1-2.69-.68,4.9,4.9,0,0,1-1.87-1.89,6.084,6.084,0,0,1,0-5.59,4.847,4.847,0,0,1,1.87-1.87,5.387,5.387,0,0,1,2.69-.67,4.907,4.907,0,0,1,2.47.62,4.512,4.512,0,0,1,1.74,1.81,6,6,0,0,1,.65,2.91,6.09,6.09,0,0,1-.64,2.9,4.5,4.5,0,0,1-1.73,1.83A4.885,4.885,0,0,1,107.22,67.1Zm.1-1.26a3.97,3.97,0,0,0,2.01-.51,3.639,3.639,0,0,0,1.4-1.44,4.808,4.808,0,0,0,0-4.31,3.656,3.656,0,0,0-1.4-1.43,3.97,3.97,0,0,0-2.01-.51,3.876,3.876,0,0,0-1.98.51,3.748,3.748,0,0,0-1.4,1.43,4.725,4.725,0,0,0,0,4.31,3.729,3.729,0,0,0,1.4,1.44A3.876,3.876,0,0,0,107.32,65.84ZM111.28,67V63.84l.14-2.12-.2-2.12V52.16h1.42V67Zm9.6.1a5.412,5.412,0,0,1-2.73-.69,5.074,5.074,0,0,1-1.91-1.9,5.85,5.85,0,0,1,0-5.55,5.043,5.043,0,0,1,1.9-1.88,5.46,5.46,0,0,1,2.74-.68,5.556,5.556,0,0,1,2.77.68,4.95,4.95,0,0,1,1.9,1.88,5.925,5.925,0,0,1,0,5.55,4.981,4.981,0,0,1-1.91,1.9A5.507,5.507,0,0,1,120.88,67.1Zm0-1.26a3.955,3.955,0,0,0,2.02-.51,3.659,3.659,0,0,0,1.39-1.44,4.808,4.808,0,0,0,0-4.31,3.677,3.677,0,0,0-1.39-1.43,4.177,4.177,0,0,0-4,0,3.748,3.748,0,0,0-1.4,1.43,4.725,4.725,0,0,0,0,4.31,3.729,3.729,0,0,0,1.4,1.44A3.876,3.876,0,0,0,120.88,65.84Zm18.86-9.44a4.926,4.926,0,0,1,2.25.49,3.523,3.523,0,0,1,1.52,1.49,5.184,5.184,0,0,1,.55,2.52V67h-1.42V61.04a3.454,3.454,0,0,0-.83-2.51,3.107,3.107,0,0,0-2.33-.85,4.031,4.031,0,0,0-1.95.45,3.087,3.087,0,0,0-1.28,1.3,4.33,4.33,0,0,0-.45,2.05V67h-1.42V56.5h1.36v2.88l-.22-.54a3.821,3.821,0,0,1,1.6-1.79A5.058,5.058,0,0,1,139.74,56.4Zm12.44,10.7a5.412,5.412,0,0,1-2.73-.69,5.074,5.074,0,0,1-1.91-1.9,5.85,5.85,0,0,1,0-5.55,5.043,5.043,0,0,1,1.9-1.88,5.46,5.46,0,0,1,2.74-.68,5.556,5.556,0,0,1,2.77.68,4.949,4.949,0,0,1,1.9,1.88,5.925,5.925,0,0,1,0,5.55,4.981,4.981,0,0,1-1.91,1.9A5.508,5.508,0,0,1,152.18,67.1Zm0-1.26a3.955,3.955,0,0,0,2.02-.51,3.659,3.659,0,0,0,1.39-1.44,4.808,4.808,0,0,0,0-4.31,3.677,3.677,0,0,0-1.39-1.43,4.177,4.177,0,0,0-4,0,3.748,3.748,0,0,0-1.4,1.43,4.725,4.725,0,0,0,0,4.31,3.729,3.729,0,0,0,1.4,1.44A3.876,3.876,0,0,0,152.18,65.84ZM162.84,67l-4.66-10.5h1.48l4.28,9.74h-.7l4.34-9.74h1.4L164.3,67Zm12.12.1a5.412,5.412,0,0,1-2.73-.69,5.074,5.074,0,0,1-1.91-1.9,5.85,5.85,0,0,1,0-5.55,5.043,5.043,0,0,1,1.9-1.88,5.46,5.46,0,0,1,2.74-.68,5.556,5.556,0,0,1,2.77.68,4.949,4.949,0,0,1,1.9,1.88,5.925,5.925,0,0,1,0,5.55,4.981,4.981,0,0,1-1.91,1.9A5.508,5.508,0,0,1,174.96,67.1Zm0-1.26a3.955,3.955,0,0,0,2.02-.51,3.659,3.659,0,0,0,1.39-1.44,4.808,4.808,0,0,0,0-4.31,3.677,3.677,0,0,0-1.39-1.43,4.177,4.177,0,0,0-4,0,3.748,3.748,0,0,0-1.4,1.43,4.725,4.725,0,0,0,0,4.31,3.729,3.729,0,0,0,1.4,1.44A3.876,3.876,0,0,0,174.96,65.84ZM6.34,91.1a5.6,5.6,0,0,1-2.79-.69,5.033,5.033,0,0,1-1.93-1.9,5.85,5.85,0,0,1,0-5.55,4.982,4.982,0,0,1,1.93-1.88,5.669,5.669,0,0,1,2.79-.68,5.507,5.507,0,0,1,2.42.52,3.921,3.921,0,0,1,1.7,1.56L9.4,83.2a3.332,3.332,0,0,0-1.34-1.18,4,4,0,0,0-1.74-.38,4.025,4.025,0,0,0-2.02.51,3.705,3.705,0,0,0-1.42,1.43,4.746,4.746,0,0,0,0,4.32A3.705,3.705,0,0,0,4.3,89.33a4.025,4.025,0,0,0,2.02.51,4,4,0,0,0,1.74-.38A3.381,3.381,0,0,0,9.4,88.3l1.06.72a4.022,4.022,0,0,1-1.7,1.55A5.42,5.42,0,0,1,6.34,91.1Zm11,0a5.412,5.412,0,0,1-2.73-.69,5.074,5.074,0,0,1-1.91-1.9,5.85,5.85,0,0,1,0-5.55,5.043,5.043,0,0,1,1.9-1.88,5.46,5.46,0,0,1,2.74-.68,5.556,5.556,0,0,1,2.77.68,4.95,4.95,0,0,1,1.9,1.88,5.925,5.925,0,0,1,0,5.55,4.981,4.981,0,0,1-1.91,1.9A5.507,5.507,0,0,1,17.34,91.1Zm0-1.26a3.955,3.955,0,0,0,2.02-.51,3.659,3.659,0,0,0,1.39-1.44,4.808,4.808,0,0,0,0-4.31,3.677,3.677,0,0,0-1.39-1.43,4.177,4.177,0,0,0-4,0,3.748,3.748,0,0,0-1.4,1.43,4.725,4.725,0,0,0,0,4.31,3.729,3.729,0,0,0,1.4,1.44A3.876,3.876,0,0,0,17.34,89.84ZM25.6,91V76.16h1.42V91Zm11.96,0V88.68l-.06-.38V84.42a2.722,2.722,0,0,0-.75-2.06,3.1,3.1,0,0,0-2.23-.72,5.551,5.551,0,0,0-1.94.34,4.942,4.942,0,0,0-1.56.9l-.64-1.06a5.675,5.675,0,0,1,1.92-1.05,7.475,7.475,0,0,1,2.36-.37,4.517,4.517,0,0,1,3.15,1.01,3.949,3.949,0,0,1,1.11,3.07V91Zm-3.62.1a4.977,4.977,0,0,1-2.05-.39,3.044,3.044,0,0,1-1.33-1.08,2.8,2.8,0,0,1-.46-1.59,2.907,2.907,0,0,1,.39-1.49,2.746,2.746,0,0,1,1.28-1.08,5.791,5.791,0,0,1,2.39-.41h3.62v1.06H34.2a3.149,3.149,0,0,0-2.11.54,1.824,1.824,0,0,0,.11,2.78,3.143,3.143,0,0,0,1.96.54,3.793,3.793,0,0,0,2.07-.55,3.159,3.159,0,0,0,1.27-1.59l.32.98a3.336,3.336,0,0,1-1.39,1.66A4.613,4.613,0,0,1,33.94,91.1Zm14.26,0a4.9,4.9,0,0,1-2.48-.63,4.48,4.48,0,0,1-1.74-1.83,6.09,6.09,0,0,1-.64-2.9,6,6,0,0,1,.65-2.91,4.492,4.492,0,0,1,1.75-1.81,4.922,4.922,0,0,1,2.46-.62,5.387,5.387,0,0,1,2.69.67,4.847,4.847,0,0,1,1.87,1.87,6.084,6.084,0,0,1,0,5.59,4.9,4.9,0,0,1-1.87,1.89A5.324,5.324,0,0,1,48.2,91.1ZM42.78,91V76.16H44.2V83.6L44,85.72l.14,2.12V91Zm5.32-1.16a3.915,3.915,0,0,0,2-.51,3.729,3.729,0,0,0,1.4-1.44,4.725,4.725,0,0,0,0-4.31,3.748,3.748,0,0,0-1.4-1.43,3.915,3.915,0,0,0-2-.51,3.97,3.97,0,0,0-2.01.51,3.656,3.656,0,0,0-1.4,1.43,4.808,4.808,0,0,0,0,4.31,3.638,3.638,0,0,0,1.4,1.44A3.97,3.97,0,0,0,48.1,89.84ZM60.62,91.1a5.412,5.412,0,0,1-2.73-.69,5.074,5.074,0,0,1-1.91-1.9,5.85,5.85,0,0,1,0-5.55,5.043,5.043,0,0,1,1.9-1.88,5.46,5.46,0,0,1,2.74-.68,5.556,5.556,0,0,1,2.77.68,4.95,4.95,0,0,1,1.9,1.88,5.925,5.925,0,0,1,0,5.55,4.981,4.981,0,0,1-1.91,1.9A5.507,5.507,0,0,1,60.62,91.1Zm0-1.26a3.955,3.955,0,0,0,2.02-.51,3.659,3.659,0,0,0,1.39-1.44,4.808,4.808,0,0,0,0-4.31,3.677,3.677,0,0,0-1.39-1.43,4.177,4.177,0,0,0-4,0,3.748,3.748,0,0,0-1.4,1.43,4.725,4.725,0,0,0,0,4.31,3.729,3.729,0,0,0,1.4,1.44A3.876,3.876,0,0,0,60.62,89.84ZM68.88,91V80.5h1.36v2.86l-.14-.5a3.46,3.46,0,0,1,1.48-1.83,4.9,4.9,0,0,1,2.58-.63v1.38a1.289,1.289,0,0,1-.16-.01,1.29,1.29,0,0,0-.16-.01,3.377,3.377,0,0,0-2.6,1.01,4.057,4.057,0,0,0-.94,2.87V91Zm13.66,0V88.68l-.06-.38V84.42a2.722,2.722,0,0,0-.75-2.06,3.1,3.1,0,0,0-2.23-.72,5.551,5.551,0,0,0-1.94.34,4.942,4.942,0,0,0-1.56.9l-.64-1.06a5.675,5.675,0,0,1,1.92-1.05,7.475,7.475,0,0,1,2.36-.37,4.517,4.517,0,0,1,3.15,1.01,3.949,3.949,0,0,1,1.11,3.07V91Zm-3.62.1a4.977,4.977,0,0,1-2.05-.39,3.044,3.044,0,0,1-1.33-1.08,2.8,2.8,0,0,1-.46-1.59,2.907,2.907,0,0,1,.39-1.49,2.746,2.746,0,0,1,1.28-1.08,5.791,5.791,0,0,1,2.39-.41h3.62v1.06H79.18a3.149,3.149,0,0,0-2.11.54,1.824,1.824,0,0,0,.11,2.78,3.143,3.143,0,0,0,1.96.54,3.793,3.793,0,0,0,2.07-.55,3.159,3.159,0,0,0,1.27-1.59l.32.98a3.336,3.336,0,0,1-1.39,1.66A4.613,4.613,0,0,1,78.92,91.1Zm13.02,0a5.324,5.324,0,0,1-2.69-.68,4.9,4.9,0,0,1-1.87-1.89,6.084,6.084,0,0,1,0-5.59,4.847,4.847,0,0,1,1.87-1.87,5.387,5.387,0,0,1,2.69-.67,4.907,4.907,0,0,1,2.47.62,4.513,4.513,0,0,1,1.74,1.81,6,6,0,0,1,.65,2.91,6.09,6.09,0,0,1-.64,2.9,4.5,4.5,0,0,1-1.73,1.83A4.885,4.885,0,0,1,91.94,91.1Zm.1-1.26a3.97,3.97,0,0,0,2.01-.51,3.639,3.639,0,0,0,1.4-1.44,4.808,4.808,0,0,0,0-4.31,3.656,3.656,0,0,0-1.4-1.43,3.97,3.97,0,0,0-2.01-.51,3.876,3.876,0,0,0-1.98.51,3.748,3.748,0,0,0-1.4,1.43,4.725,4.725,0,0,0,0,4.31,3.729,3.729,0,0,0,1.4,1.44A3.876,3.876,0,0,0,92.04,89.84ZM96,91V87.84l.14-2.12-.2-2.12V76.16h1.42V91Zm9.6.1a5.412,5.412,0,0,1-2.73-.69,5.074,5.074,0,0,1-1.91-1.9,5.85,5.85,0,0,1,0-5.55,5.043,5.043,0,0,1,1.9-1.88,5.46,5.46,0,0,1,2.74-.68,5.556,5.556,0,0,1,2.77.68,4.95,4.95,0,0,1,1.9,1.88,5.925,5.925,0,0,1,0,5.55,4.981,4.981,0,0,1-1.91,1.9A5.507,5.507,0,0,1,105.6,91.1Zm0-1.26a3.955,3.955,0,0,0,2.02-.51,3.659,3.659,0,0,0,1.39-1.44,4.808,4.808,0,0,0,0-4.31,3.677,3.677,0,0,0-1.39-1.43,4.177,4.177,0,0,0-4,0,3.748,3.748,0,0,0-1.4,1.43,4.725,4.725,0,0,0,0,4.31,3.729,3.729,0,0,0,1.4,1.44A3.876,3.876,0,0,0,105.6,89.84ZM113.86,91V80.5h1.36v2.86l-.14-.5a3.46,3.46,0,0,1,1.48-1.83,4.9,4.9,0,0,1,2.58-.63v1.38a1.289,1.289,0,0,1-.16-.01,1.29,1.29,0,0,0-.16-.01,3.377,3.377,0,0,0-2.6,1.01,4.057,4.057,0,0,0-.94,2.87V91Z" transform="translate(12256 -3052)" fill="#202428"/>
    <g transform="matrix(1, 0, 0, 1, 11731.79, -3078)" filter="url(#Caminho_12204)">
      <path id="Caminho_12204-2" data-name="Caminho 12204" d="M20,0,40,34H0Z" transform="translate(468.21 94) rotate(-90)" fill="#fff"/>
    </g>
    <g transform="matrix(1, 0, 0, 1, 11731.79, -3078)" filter="url(#Caminho_12185)">
      <path id="Caminho_12185-2" data-name="Caminho 12185" d="M20,0H207a20,20,0,0,1,20,20V124a20,20,0,0,1-20,20H20A20,20,0,0,1,0,124V20A20,20,0,0,1,20,0Z" transform="translate(532.21 365)" fill="#fff"/>
    </g>
    <path id="Caminho_12186" data-name="Caminho 12186" d="M5,19V6.28H.08V5H11.4V6.28H6.48V19Zm8.18,0V8.5h1.36v2.86l-.14-.5a3.46,3.46,0,0,1,1.48-1.83,4.9,4.9,0,0,1,2.58-.63V9.78a1.288,1.288,0,0,1-.16-.01,1.289,1.289,0,0,0-.16-.01,3.377,3.377,0,0,0-2.6,1.01,4.057,4.057,0,0,0-.94,2.87V19Zm7.86,0V8.5h1.42V19Zm.72-12.82a1,1,0,0,1-.74-.3.982.982,0,0,1-.3-.72.949.949,0,0,1,.3-.71,1.024,1.024,0,0,1,.74-.29,1.044,1.044,0,0,1,.74.28.918.918,0,0,1,.3.7,1.024,1.024,0,0,1-.29.74A1,1,0,0,1,21.76,6.18ZM26.42,19V4.16h1.42V19ZM37.16,8.4a4.926,4.926,0,0,1,2.25.49,3.523,3.523,0,0,1,1.52,1.49,5.184,5.184,0,0,1,.55,2.52V19H40.06V13.04a3.454,3.454,0,0,0-.83-2.51,3.107,3.107,0,0,0-2.33-.85,4.031,4.031,0,0,0-1.95.45,3.087,3.087,0,0,0-1.28,1.3,4.33,4.33,0,0,0-.45,2.05V19H31.8V4.16h1.42v7.22l-.28-.54a3.821,3.821,0,0,1,1.6-1.79A5.058,5.058,0,0,1,37.16,8.4ZM51.9,19V16.68l-.06-.38V12.42a2.722,2.722,0,0,0-.75-2.06,3.1,3.1,0,0,0-2.23-.72,5.551,5.551,0,0,0-1.94.34,4.942,4.942,0,0,0-1.56.9l-.64-1.06a5.675,5.675,0,0,1,1.92-1.05A7.475,7.475,0,0,1,49,8.4a4.517,4.517,0,0,1,3.15,1.01,3.949,3.949,0,0,1,1.11,3.07V19Zm-3.62.1a4.977,4.977,0,0,1-2.05-.39,3.044,3.044,0,0,1-1.33-1.08,2.8,2.8,0,0,1-.46-1.59,2.907,2.907,0,0,1,.39-1.49,2.746,2.746,0,0,1,1.28-1.08,5.792,5.792,0,0,1,2.39-.41h3.62v1.06H48.54a3.149,3.149,0,0,0-2.11.54,1.824,1.824,0,0,0,.11,2.78,3.143,3.143,0,0,0,1.96.54,3.793,3.793,0,0,0,2.07-.55,3.159,3.159,0,0,0,1.27-1.59l.32.98a3.336,3.336,0,0,1-1.39,1.66A4.613,4.613,0,0,1,48.28,19.1ZM62.36,19V8.5h1.36v2.86l-.14-.5a3.46,3.46,0,0,1,1.48-1.83,4.9,4.9,0,0,1,2.58-.63V9.78a1.289,1.289,0,0,1-.16-.01,1.289,1.289,0,0,0-.16-.01,3.377,3.377,0,0,0-2.6,1.01,4.057,4.057,0,0,0-.94,2.87V19Zm12.22.1a5.826,5.826,0,0,1-2.88-.69,5.014,5.014,0,0,1-1.94-1.9,5.43,5.43,0,0,1-.7-2.77,5.566,5.566,0,0,1,.67-2.76,4.961,4.961,0,0,1,1.84-1.89,5.426,5.426,0,0,1,5.26-.02,4.771,4.771,0,0,1,1.81,1.88,5.733,5.733,0,0,1,.66,2.79q0,.1-.01.21t-.01.23H70.14V13.12h8.38l-.56.42a4.139,4.139,0,0,0-.49-2.03,3.607,3.607,0,0,0-1.33-1.39,3.72,3.72,0,0,0-1.94-.5,3.788,3.788,0,0,0-1.94.5,3.476,3.476,0,0,0-1.34,1.4,4.31,4.31,0,0,0-.48,2.06v.22a4.116,4.116,0,0,0,.53,2.11,3.7,3.7,0,0,0,1.48,1.42,4.516,4.516,0,0,0,2.17.51,4.676,4.676,0,0,0,1.79-.34,3.719,3.719,0,0,0,1.43-1.04l.8.92a4.5,4.5,0,0,1-1.75,1.28A5.919,5.919,0,0,1,74.58,19.1Zm13.9-.1V16.68l-.06-.38V12.42a2.722,2.722,0,0,0-.75-2.06,3.1,3.1,0,0,0-2.23-.72,5.551,5.551,0,0,0-1.94.34,4.942,4.942,0,0,0-1.56.9L81.3,9.82a5.675,5.675,0,0,1,1.92-1.05,7.475,7.475,0,0,1,2.36-.37,4.517,4.517,0,0,1,3.15,1.01,3.949,3.949,0,0,1,1.11,3.07V19Zm-3.62.1a4.977,4.977,0,0,1-2.05-.39,3.044,3.044,0,0,1-1.33-1.08,2.8,2.8,0,0,1-.46-1.59,2.907,2.907,0,0,1,.39-1.49,2.746,2.746,0,0,1,1.28-1.08,5.792,5.792,0,0,1,2.39-.41H88.7v1.06H85.12a3.149,3.149,0,0,0-2.11.54,1.824,1.824,0,0,0,.11,2.78,3.143,3.143,0,0,0,1.96.54,3.793,3.793,0,0,0,2.07-.55,3.159,3.159,0,0,0,1.27-1.59l.32.98a3.336,3.336,0,0,1-1.39,1.66A4.613,4.613,0,0,1,84.86,19.1ZM93.7,19V4.16h1.42V19Zm5.38,0V8.5h1.42V19ZM99.8,6.18a1,1,0,0,1-.74-.3.982.982,0,0,1-.3-.72.949.949,0,0,1,.3-.71,1.024,1.024,0,0,1,.74-.29,1.044,1.044,0,0,1,.74.28.918.918,0,0,1,.3.7,1.024,1.024,0,0,1-.29.74A1,1,0,0,1,99.8,6.18ZM103.32,19v-.94l7-8.86.3.48h-7.18V8.5h8.3v.92l-6.98,8.88-.36-.48h7.48V19Zm17.94,0V16.68l-.06-.38V12.42a2.722,2.722,0,0,0-.75-2.06,3.1,3.1,0,0,0-2.23-.72,5.551,5.551,0,0,0-1.94.34,4.942,4.942,0,0,0-1.56.9l-.64-1.06A5.675,5.675,0,0,1,116,8.77a7.475,7.475,0,0,1,2.36-.37,4.517,4.517,0,0,1,3.15,1.01,3.949,3.949,0,0,1,1.11,3.07V19Zm-3.62.1a4.977,4.977,0,0,1-2.05-.39,3.044,3.044,0,0,1-1.33-1.08,2.8,2.8,0,0,1-.46-1.59,2.907,2.907,0,0,1,.39-1.49,2.746,2.746,0,0,1,1.28-1.08,5.792,5.792,0,0,1,2.39-.41h3.62v1.06H117.9a3.149,3.149,0,0,0-2.11.54,1.824,1.824,0,0,0,.11,2.78,3.143,3.143,0,0,0,1.96.54,3.793,3.793,0,0,0,2.07-.55,3.159,3.159,0,0,0,1.27-1.59l.32.98a3.336,3.336,0,0,1-1.39,1.66A4.613,4.613,0,0,1,117.64,19.1Zm13.02,0a5.324,5.324,0,0,1-2.69-.68,4.9,4.9,0,0,1-1.87-1.89,5.6,5.6,0,0,1-.68-2.79,5.583,5.583,0,0,1,.68-2.8,4.847,4.847,0,0,1,1.87-1.87,5.387,5.387,0,0,1,2.69-.67,4.907,4.907,0,0,1,2.47.62,4.512,4.512,0,0,1,1.74,1.81,6,6,0,0,1,.65,2.91,6.09,6.09,0,0,1-.64,2.9,4.5,4.5,0,0,1-1.73,1.83A4.885,4.885,0,0,1,130.66,19.1Zm.1-1.26a3.97,3.97,0,0,0,2.01-.51,3.638,3.638,0,0,0,1.4-1.44,4.4,4.4,0,0,0,.51-2.15,4.385,4.385,0,0,0-.51-2.16,3.656,3.656,0,0,0-1.4-1.43,3.97,3.97,0,0,0-2.01-.51,3.876,3.876,0,0,0-1.98.51,3.748,3.748,0,0,0-1.4,1.43,4.317,4.317,0,0,0-.52,2.16,4.331,4.331,0,0,0,.52,2.15,3.729,3.729,0,0,0,1.4,1.44A3.876,3.876,0,0,0,130.76,17.84ZM134.72,19V15.84l.14-2.12-.2-2.12V4.16h1.42V19Zm11.9,0V16.68l-.06-.38V12.42a2.722,2.722,0,0,0-.75-2.06,3.1,3.1,0,0,0-2.23-.72,5.551,5.551,0,0,0-1.94.34,4.942,4.942,0,0,0-1.56.9l-.64-1.06a5.675,5.675,0,0,1,1.92-1.05,7.475,7.475,0,0,1,2.36-.37,4.517,4.517,0,0,1,3.15,1.01,3.949,3.949,0,0,1,1.11,3.07V19Zm-3.62.1a4.977,4.977,0,0,1-2.05-.39,3.044,3.044,0,0,1-1.33-1.08,2.8,2.8,0,0,1-.46-1.59,2.908,2.908,0,0,1,.39-1.49,2.746,2.746,0,0,1,1.28-1.08,5.792,5.792,0,0,1,2.39-.41h3.62v1.06h-3.58a3.149,3.149,0,0,0-2.11.54,1.824,1.824,0,0,0,.11,2.78,3.143,3.143,0,0,0,1.96.54,3.793,3.793,0,0,0,2.07-.55,3.159,3.159,0,0,0,1.27-1.59l.32.98a3.336,3.336,0,0,1-1.39,1.66A4.613,4.613,0,0,1,143,19.1ZM8.56,43V40.68L8.5,40.3V36.42a2.722,2.722,0,0,0-.75-2.06,3.1,3.1,0,0,0-2.23-.72,5.551,5.551,0,0,0-1.94.34,4.942,4.942,0,0,0-1.56.9l-.64-1.06A5.675,5.675,0,0,1,3.3,32.77a7.475,7.475,0,0,1,2.36-.37,4.517,4.517,0,0,1,3.15,1.01,3.949,3.949,0,0,1,1.11,3.07V43Zm-3.62.1a4.977,4.977,0,0,1-2.05-.39,3.044,3.044,0,0,1-1.33-1.08,2.8,2.8,0,0,1-.46-1.59,2.907,2.907,0,0,1,.39-1.49,2.746,2.746,0,0,1,1.28-1.08,5.792,5.792,0,0,1,2.39-.41H8.78v1.06H5.2a3.149,3.149,0,0,0-2.11.54,1.824,1.824,0,0,0,.11,2.78,3.143,3.143,0,0,0,1.96.54,3.793,3.793,0,0,0,2.07-.55A3.159,3.159,0,0,0,8.5,39.84l.32.98a3.336,3.336,0,0,1-1.39,1.66A4.613,4.613,0,0,1,4.94,43.1Zm14.2-10.7a4.926,4.926,0,0,1,2.25.49,3.523,3.523,0,0,1,1.52,1.49,5.184,5.184,0,0,1,.55,2.52V43H22.04V37.04a3.454,3.454,0,0,0-.83-2.51,3.107,3.107,0,0,0-2.33-.85,4.031,4.031,0,0,0-1.95.45,3.087,3.087,0,0,0-1.28,1.3,4.33,4.33,0,0,0-.45,2.05V43H13.78V32.5h1.36v2.88l-.22-.54a3.821,3.821,0,0,1,1.6-1.79A5.058,5.058,0,0,1,19.14,32.4Zm12.5,10.7a5.171,5.171,0,0,1-2.34-.5,3.544,3.544,0,0,1-1.55-1.5,5.138,5.138,0,0,1-.55-2.5V32.5h1.42v5.94a3.485,3.485,0,0,0,.83,2.53,3.107,3.107,0,0,0,2.33.85,3.872,3.872,0,0,0,1.91-.45,2.986,2.986,0,0,0,1.24-1.31A4.562,4.562,0,0,0,35.36,38V32.5h1.42V43H35.42V40.12l.22.52a3.882,3.882,0,0,1-1.55,1.81A4.559,4.559,0,0,1,31.64,43.1ZM47.32,43V40.68l-.06-.38V36.42a2.722,2.722,0,0,0-.75-2.06,3.1,3.1,0,0,0-2.23-.72,5.551,5.551,0,0,0-1.94.34,4.942,4.942,0,0,0-1.56.9l-.64-1.06a5.675,5.675,0,0,1,1.92-1.05,7.475,7.475,0,0,1,2.36-.37,4.517,4.517,0,0,1,3.15,1.01,3.949,3.949,0,0,1,1.11,3.07V43Zm-3.62.1a4.977,4.977,0,0,1-2.05-.39,3.044,3.044,0,0,1-1.33-1.08,2.8,2.8,0,0,1-.46-1.59,2.907,2.907,0,0,1,.39-1.49,2.746,2.746,0,0,1,1.28-1.08,5.792,5.792,0,0,1,2.39-.41h3.62v1.06H43.96a3.149,3.149,0,0,0-2.11.54,1.824,1.824,0,0,0,.11,2.78,3.143,3.143,0,0,0,1.96.54,3.793,3.793,0,0,0,2.07-.55,3.159,3.159,0,0,0,1.27-1.59l.32.98a3.336,3.336,0,0,1-1.39,1.66A4.613,4.613,0,0,1,43.7,43.1Zm8.84-.1V28.16h1.42V43Zm18.5-10.6a4.8,4.8,0,0,1,2.23.49,3.436,3.436,0,0,1,1.48,1.49,5.347,5.347,0,0,1,.53,2.52V43H73.86V37.04a3.565,3.565,0,0,0-.79-2.51,2.894,2.894,0,0,0-2.23-.85,3.716,3.716,0,0,0-1.87.45,3.03,3.03,0,0,0-1.22,1.3,4.5,4.5,0,0,0-.43,2.05V43H65.9V37.04a3.536,3.536,0,0,0-.8-2.51,2.927,2.927,0,0,0-2.24-.85,3.73,3.73,0,0,0-1.86.45,3.013,3.013,0,0,0-1.23,1.3,4.5,4.5,0,0,0-.43,2.05V43H57.92V32.5h1.36v2.84l-.22-.5a3.752,3.752,0,0,1,1.55-1.79,4.779,4.779,0,0,1,2.53-.65,4.4,4.4,0,0,1,2.62.77,3.6,3.6,0,0,1,1.4,2.31l-.56-.22a4.139,4.139,0,0,1,1.63-2.07A4.9,4.9,0,0,1,71.04,32.4ZM83.6,43.1a5.826,5.826,0,0,1-2.88-.69,5.014,5.014,0,0,1-1.94-1.9,5.43,5.43,0,0,1-.7-2.77,5.566,5.566,0,0,1,.67-2.76,4.961,4.961,0,0,1,1.84-1.89,5.426,5.426,0,0,1,5.26-.02,4.771,4.771,0,0,1,1.81,1.88,5.733,5.733,0,0,1,.66,2.79q0,.1-.01.21t-.01.23H79.16V37.12h8.38l-.56.42a4.139,4.139,0,0,0-.49-2.03,3.606,3.606,0,0,0-1.33-1.39,3.72,3.72,0,0,0-1.94-.5,3.788,3.788,0,0,0-1.94.5,3.476,3.476,0,0,0-1.34,1.4,4.31,4.31,0,0,0-.48,2.06v.22a4.116,4.116,0,0,0,.53,2.11,3.7,3.7,0,0,0,1.48,1.42,4.516,4.516,0,0,0,2.17.51,4.676,4.676,0,0,0,1.79-.34,3.719,3.719,0,0,0,1.43-1.04l.8.92a4.5,4.5,0,0,1-1.75,1.28A5.919,5.919,0,0,1,83.6,43.1ZM96.58,32.4a4.926,4.926,0,0,1,2.25.49,3.523,3.523,0,0,1,1.52,1.49,5.184,5.184,0,0,1,.55,2.52V43H99.48V37.04a3.454,3.454,0,0,0-.83-2.51,3.107,3.107,0,0,0-2.33-.85,4.031,4.031,0,0,0-1.95.45,3.087,3.087,0,0,0-1.28,1.3,4.33,4.33,0,0,0-.45,2.05V43H91.22V32.5h1.36v2.88l-.22-.54a3.821,3.821,0,0,1,1.6-1.79A5.058,5.058,0,0,1,96.58,32.4Zm11.48,10.7a2.787,2.787,0,0,1-3.08-3.06V30.18h1.42v9.78a1.994,1.994,0,0,0,.47,1.42,1.763,1.763,0,0,0,1.35.5,2.29,2.29,0,0,0,1.56-.54l.5,1.02a2.622,2.622,0,0,1-1.01.56A4.124,4.124,0,0,1,108.06,43.1Zm-4.96-9.42V32.5h6.5v1.18Zm13.84,9.42a5.826,5.826,0,0,1-2.88-.69,5.014,5.014,0,0,1-1.94-1.9,5.43,5.43,0,0,1-.7-2.77,5.566,5.566,0,0,1,.67-2.76,4.961,4.961,0,0,1,1.84-1.89,5.426,5.426,0,0,1,5.26-.02A4.771,4.771,0,0,1,121,34.95a5.733,5.733,0,0,1,.66,2.79q0,.1-.01.21t-.01.23H112.5V37.12h8.38l-.56.42a4.139,4.139,0,0,0-.49-2.03,3.606,3.606,0,0,0-1.33-1.39,3.72,3.72,0,0,0-1.94-.5,3.788,3.788,0,0,0-1.94.5,3.476,3.476,0,0,0-1.34,1.4,4.31,4.31,0,0,0-.48,2.06v.22a4.116,4.116,0,0,0,.53,2.11,3.7,3.7,0,0,0,1.48,1.42,4.516,4.516,0,0,0,2.17.51,4.676,4.676,0,0,0,1.79-.34,3.719,3.719,0,0,0,1.43-1.04l.8.92a4.5,4.5,0,0,1-1.75,1.28A5.919,5.919,0,0,1,116.94,43.1Zm18.28,0a4.861,4.861,0,0,1-2.46-.63,4.561,4.561,0,0,1-1.75-1.82,6,6,0,0,1-.65-2.91,6.076,6.076,0,0,1,.64-2.91,4.427,4.427,0,0,1,1.74-1.81,4.962,4.962,0,0,1,2.48-.62,5.387,5.387,0,0,1,2.69.67,4.828,4.828,0,0,1,1.87,1.88,6.084,6.084,0,0,1,0,5.59,4.918,4.918,0,0,1-1.87,1.88A5.324,5.324,0,0,1,135.22,43.1Zm-5.42,3.78V32.5h1.36v3.16l-.14,2.1.2,2.12v7Zm5.32-5.04a3.915,3.915,0,0,0,2-.51,3.729,3.729,0,0,0,1.4-1.44,4.331,4.331,0,0,0,.52-2.15,4.275,4.275,0,0,0-.52-2.14,3.784,3.784,0,0,0-3.4-1.96,3.91,3.91,0,0,0-2.01.52,3.727,3.727,0,0,0-1.4,1.44,4.342,4.342,0,0,0-.51,2.14,4.4,4.4,0,0,0,.51,2.15,3.638,3.638,0,0,0,1.4,1.44A3.97,3.97,0,0,0,135.12,41.84Zm12.7,1.26a5.826,5.826,0,0,1-2.88-.69,5.014,5.014,0,0,1-1.94-1.9,5.43,5.43,0,0,1-.7-2.77,5.566,5.566,0,0,1,.67-2.76,4.961,4.961,0,0,1,1.84-1.89,5.426,5.426,0,0,1,5.26-.02,4.771,4.771,0,0,1,1.81,1.88,5.733,5.733,0,0,1,.66,2.79q0,.1-.01.21t-.01.23h-9.14V37.12h8.38l-.56.42a4.139,4.139,0,0,0-.49-2.03,3.607,3.607,0,0,0-1.33-1.39,3.72,3.72,0,0,0-1.94-.5,3.788,3.788,0,0,0-1.94.5,3.476,3.476,0,0,0-1.34,1.4,4.31,4.31,0,0,0-.48,2.06v.22a4.116,4.116,0,0,0,.53,2.11,3.7,3.7,0,0,0,1.48,1.42,4.516,4.516,0,0,0,2.17.51,4.676,4.676,0,0,0,1.79-.34,3.719,3.719,0,0,0,1.43-1.04l.8.92a4.5,4.5,0,0,1-1.75,1.28A5.919,5.919,0,0,1,147.82,43.1Zm7.62-.1V28.16h1.42V43Zm11.96,0V40.68l-.06-.38V36.42a2.722,2.722,0,0,0-.75-2.06,3.1,3.1,0,0,0-2.23-.72,5.551,5.551,0,0,0-1.94.34,4.942,4.942,0,0,0-1.56.9l-.64-1.06a5.675,5.675,0,0,1,1.92-1.05,7.475,7.475,0,0,1,2.36-.37,4.517,4.517,0,0,1,3.15,1.01,3.949,3.949,0,0,1,1.11,3.07V43Zm-3.62.1a4.977,4.977,0,0,1-2.05-.39,3.044,3.044,0,0,1-1.33-1.08,2.8,2.8,0,0,1-.46-1.59,2.908,2.908,0,0,1,.39-1.49,2.746,2.746,0,0,1,1.28-1.08,5.792,5.792,0,0,1,2.39-.41h3.62v1.06h-3.58a3.149,3.149,0,0,0-2.11.54,1.824,1.824,0,0,0,.11,2.78,3.143,3.143,0,0,0,1.96.54,3.793,3.793,0,0,0,2.07-.55,3.159,3.159,0,0,0,1.27-1.59l.32.98a3.336,3.336,0,0,1-1.39,1.66A4.613,4.613,0,0,1,163.78,43.1ZM6.44,67.1a5.826,5.826,0,0,1-2.88-.69,5.014,5.014,0,0,1-1.94-1.9,5.43,5.43,0,0,1-.7-2.77,5.566,5.566,0,0,1,.67-2.76,4.961,4.961,0,0,1,1.84-1.89,5.079,5.079,0,0,1,2.63-.69,5.127,5.127,0,0,1,2.63.67,4.771,4.771,0,0,1,1.81,1.88,5.733,5.733,0,0,1,.66,2.79q0,.1-.01.21t-.01.23H2V61.12h8.38l-.56.42a4.139,4.139,0,0,0-.49-2.03A3.607,3.607,0,0,0,8,58.12a3.72,3.72,0,0,0-1.94-.5,3.788,3.788,0,0,0-1.94.5,3.476,3.476,0,0,0-1.34,1.4,4.31,4.31,0,0,0-.48,2.06v.22a4.116,4.116,0,0,0,.53,2.11,3.7,3.7,0,0,0,1.48,1.42,4.516,4.516,0,0,0,2.17.51,4.676,4.676,0,0,0,1.79-.34A3.719,3.719,0,0,0,9.7,64.46l.8.92a4.5,4.5,0,0,1-1.75,1.28A5.919,5.919,0,0,1,6.44,67.1Zm11.8,0a5.324,5.324,0,0,1-2.69-.68,4.918,4.918,0,0,1-1.87-1.88,6.084,6.084,0,0,1,0-5.59,4.828,4.828,0,0,1,1.87-1.88,5.387,5.387,0,0,1,2.69-.67,4.947,4.947,0,0,1,2.49.62,4.447,4.447,0,0,1,1.73,1.81,6.076,6.076,0,0,1,.64,2.91,6,6,0,0,1-.65,2.91,4.583,4.583,0,0,1-1.74,1.82A4.845,4.845,0,0,1,18.24,67.1Zm.1-1.26a3.97,3.97,0,0,0,2.01-.51,3.638,3.638,0,0,0,1.4-1.44,4.4,4.4,0,0,0,.51-2.15,4.342,4.342,0,0,0-.51-2.14,3.727,3.727,0,0,0-1.4-1.44,3.91,3.91,0,0,0-2.01-.52,3.783,3.783,0,0,0-3.38,1.96,4.275,4.275,0,0,0-.52,2.14,4.331,4.331,0,0,0,.52,2.15,3.729,3.729,0,0,0,1.4,1.44A3.876,3.876,0,0,0,18.34,65.84Zm3.9,5.04v-7l.2-2.12-.14-2.1V56.5h1.36V70.88Zm9.72-3.78a5.171,5.171,0,0,1-2.34-.5,3.544,3.544,0,0,1-1.55-1.5,5.138,5.138,0,0,1-.55-2.5V56.5h1.42v5.94a3.484,3.484,0,0,0,.83,2.53,3.107,3.107,0,0,0,2.33.85,3.872,3.872,0,0,0,1.91-.45,2.986,2.986,0,0,0,1.24-1.31A4.562,4.562,0,0,0,35.68,62V56.5H37.1V67H35.74V64.12l.22.52a3.882,3.882,0,0,1-1.55,1.81A4.559,4.559,0,0,1,31.96,67.1Zm9.1-.1V56.5h1.42V67Zm.72-12.82a1,1,0,0,1-.74-.3.982.982,0,0,1-.3-.72.949.949,0,0,1,.3-.71,1.024,1.024,0,0,1,.74-.29,1.044,1.044,0,0,1,.74.28.918.918,0,0,1,.3.7,1.024,1.024,0,0,1-.29.74A1,1,0,0,1,41.78,54.18ZM51.86,67.1a4.861,4.861,0,0,1-2.46-.63,4.561,4.561,0,0,1-1.75-1.82A6,6,0,0,1,47,61.74a6.076,6.076,0,0,1,.64-2.91,4.427,4.427,0,0,1,1.74-1.81,4.962,4.962,0,0,1,2.48-.62,5.387,5.387,0,0,1,2.69.67,4.828,4.828,0,0,1,1.87,1.88,6.084,6.084,0,0,1,0,5.59,4.918,4.918,0,0,1-1.87,1.88A5.324,5.324,0,0,1,51.86,67.1Zm-5.42,3.78V56.5H47.8v3.16l-.14,2.1.2,2.12v7Zm5.32-5.04a3.915,3.915,0,0,0,2-.51,3.729,3.729,0,0,0,1.4-1.44,4.331,4.331,0,0,0,.52-2.15,4.275,4.275,0,0,0-.52-2.14,3.784,3.784,0,0,0-3.4-1.96,3.91,3.91,0,0,0-2.01.52,3.727,3.727,0,0,0-1.4,1.44,4.342,4.342,0,0,0-.51,2.14,4.4,4.4,0,0,0,.51,2.15,3.638,3.638,0,0,0,1.4,1.44A3.97,3.97,0,0,0,51.76,65.84Zm12.7,1.26a5.826,5.826,0,0,1-2.88-.69,5.014,5.014,0,0,1-1.94-1.9,5.43,5.43,0,0,1-.7-2.77,5.566,5.566,0,0,1,.67-2.76,4.961,4.961,0,0,1,1.84-1.89,5.426,5.426,0,0,1,5.26-.02,4.771,4.771,0,0,1,1.81,1.88,5.733,5.733,0,0,1,.66,2.79q0,.1-.01.21t-.01.23H60.02V61.12H68.4l-.56.42a4.139,4.139,0,0,0-.49-2.03,3.606,3.606,0,0,0-1.33-1.39,3.72,3.72,0,0,0-1.94-.5,3.788,3.788,0,0,0-1.94.5,3.476,3.476,0,0,0-1.34,1.4,4.31,4.31,0,0,0-.48,2.06v.22a4.116,4.116,0,0,0,.53,2.11,3.7,3.7,0,0,0,1.48,1.42,4.516,4.516,0,0,0,2.17.51,4.676,4.676,0,0,0,1.79-.34,3.719,3.719,0,0,0,1.43-1.04l.8.92a4.5,4.5,0,0,1-1.75,1.28A5.919,5.919,0,0,1,64.46,67.1Zm17.04,0a5.324,5.324,0,0,1-2.69-.68,4.9,4.9,0,0,1-1.87-1.89,6.084,6.084,0,0,1,0-5.59,4.847,4.847,0,0,1,1.87-1.87,5.387,5.387,0,0,1,2.69-.67,4.907,4.907,0,0,1,2.47.62,4.512,4.512,0,0,1,1.74,1.81,6,6,0,0,1,.65,2.91,6.09,6.09,0,0,1-.64,2.9,4.5,4.5,0,0,1-1.73,1.83A4.885,4.885,0,0,1,81.5,67.1Zm.1-1.26a3.97,3.97,0,0,0,2.01-.51,3.638,3.638,0,0,0,1.4-1.44,4.808,4.808,0,0,0,0-4.31,3.656,3.656,0,0,0-1.4-1.43,3.97,3.97,0,0,0-2.01-.51,3.876,3.876,0,0,0-1.98.51,3.748,3.748,0,0,0-1.4,1.43,4.725,4.725,0,0,0,0,4.31,3.729,3.729,0,0,0,1.4,1.44A3.876,3.876,0,0,0,81.6,65.84ZM85.56,67V63.84l.14-2.12-.2-2.12V52.16h1.42V67Zm9.78.1a5.826,5.826,0,0,1-2.88-.69,5.014,5.014,0,0,1-1.94-1.9,5.43,5.43,0,0,1-.7-2.77,5.566,5.566,0,0,1,.67-2.76,4.961,4.961,0,0,1,1.84-1.89,5.426,5.426,0,0,1,5.26-.02,4.771,4.771,0,0,1,1.81,1.88,5.733,5.733,0,0,1,.66,2.79q0,.1-.01.21t-.01.23H90.9V61.12h8.38l-.56.42a4.139,4.139,0,0,0-.49-2.03,3.607,3.607,0,0,0-1.33-1.39,3.72,3.72,0,0,0-1.94-.5,3.788,3.788,0,0,0-1.94.5,3.476,3.476,0,0,0-1.34,1.4,4.31,4.31,0,0,0-.48,2.06v.22a4.116,4.116,0,0,0,.53,2.11,3.7,3.7,0,0,0,1.48,1.42,4.516,4.516,0,0,0,2.17.51,4.676,4.676,0,0,0,1.79-.34,3.719,3.719,0,0,0,1.43-1.04l.8.92a4.5,4.5,0,0,1-1.75,1.28A5.919,5.919,0,0,1,95.34,67.1Zm-88.9,24a5.826,5.826,0,0,1-2.88-.69,5.014,5.014,0,0,1-1.94-1.9,5.43,5.43,0,0,1-.7-2.77,5.566,5.566,0,0,1,.67-2.76,4.961,4.961,0,0,1,1.84-1.89,5.079,5.079,0,0,1,2.63-.69,5.127,5.127,0,0,1,2.63.67,4.771,4.771,0,0,1,1.81,1.88,5.733,5.733,0,0,1,.66,2.79q0,.1-.01.21t-.01.23H2V85.12h8.38l-.56.42a4.139,4.139,0,0,0-.49-2.03A3.607,3.607,0,0,0,8,82.12a3.72,3.72,0,0,0-1.94-.5,3.788,3.788,0,0,0-1.94.5,3.476,3.476,0,0,0-1.34,1.4,4.31,4.31,0,0,0-.48,2.06v.22a4.116,4.116,0,0,0,.53,2.11,3.7,3.7,0,0,0,1.48,1.42,4.516,4.516,0,0,0,2.17.51,4.676,4.676,0,0,0,1.79-.34A3.719,3.719,0,0,0,9.7,88.46l.8.92a4.5,4.5,0,0,1-1.75,1.28A5.919,5.919,0,0,1,6.44,91.1ZM19.42,80.4a4.926,4.926,0,0,1,2.25.49,3.523,3.523,0,0,1,1.52,1.49,5.184,5.184,0,0,1,.55,2.52V91H22.32V85.04a3.454,3.454,0,0,0-.83-2.51,3.107,3.107,0,0,0-2.33-.85,4.031,4.031,0,0,0-1.95.45,3.087,3.087,0,0,0-1.28,1.3,4.33,4.33,0,0,0-.45,2.05V91H14.06V80.5h1.36v2.88l-.22-.54a3.821,3.821,0,0,1,1.6-1.79A5.058,5.058,0,0,1,19.42,80.4ZM27.82,91V79.18a3.139,3.139,0,0,1,.82-2.26A3.107,3.107,0,0,1,31,76.06a4.2,4.2,0,0,1,1.16.16,2.356,2.356,0,0,1,.94.5l-.48,1.06a2,2,0,0,0-.7-.39,2.767,2.767,0,0,0-.86-.13,1.824,1.824,0,0,0-1.38.5,2.059,2.059,0,0,0-.48,1.48v1.6l.04.66V91Zm-1.88-9.32V80.5h6.5v1.18Zm12.7,9.42a5.826,5.826,0,0,1-2.88-.69,5.014,5.014,0,0,1-1.94-1.9,5.43,5.43,0,0,1-.7-2.77,5.566,5.566,0,0,1,.67-2.76,4.961,4.961,0,0,1,1.84-1.89,5.426,5.426,0,0,1,5.26-.02,4.771,4.771,0,0,1,1.81,1.88,5.733,5.733,0,0,1,.66,2.79q0,.1-.01.21t-.01.23H34.2V85.12h8.38l-.56.42a4.139,4.139,0,0,0-.49-2.03,3.607,3.607,0,0,0-1.33-1.39,3.72,3.72,0,0,0-1.94-.5,3.788,3.788,0,0,0-1.94.5,3.476,3.476,0,0,0-1.34,1.4,4.31,4.31,0,0,0-.48,2.06v.22a4.116,4.116,0,0,0,.53,2.11,3.7,3.7,0,0,0,1.48,1.42,4.516,4.516,0,0,0,2.17.51,4.676,4.676,0,0,0,1.79-.34,3.719,3.719,0,0,0,1.43-1.04l.8.92a4.5,4.5,0,0,1-1.75,1.28A5.919,5.919,0,0,1,38.64,91.1Zm7.62-.1V80.5h1.36v2.86l-.14-.5a3.46,3.46,0,0,1,1.48-1.83,4.9,4.9,0,0,1,2.58-.63v1.38a1.289,1.289,0,0,1-.16-.01,1.29,1.29,0,0,0-.16-.01,3.377,3.377,0,0,0-2.6,1.01,4.057,4.057,0,0,0-.94,2.87V91ZM67.24,80.4a4.8,4.8,0,0,1,2.23.49,3.436,3.436,0,0,1,1.48,1.49,5.346,5.346,0,0,1,.53,2.52V91H70.06V85.04a3.565,3.565,0,0,0-.79-2.51,2.894,2.894,0,0,0-2.23-.85,3.716,3.716,0,0,0-1.87.45,3.03,3.03,0,0,0-1.22,1.3,4.5,4.5,0,0,0-.43,2.05V91H62.1V85.04a3.536,3.536,0,0,0-.8-2.51,2.927,2.927,0,0,0-2.24-.85,3.73,3.73,0,0,0-1.86.45,3.013,3.013,0,0,0-1.23,1.3,4.5,4.5,0,0,0-.43,2.05V91H54.12V80.5h1.36v2.84l-.22-.5a3.752,3.752,0,0,1,1.55-1.79,4.779,4.779,0,0,1,2.53-.65,4.4,4.4,0,0,1,2.62.77,3.6,3.6,0,0,1,1.4,2.31l-.56-.22a4.139,4.139,0,0,1,1.63-2.07A4.9,4.9,0,0,1,67.24,80.4ZM81.92,91V88.68l-.06-.38V84.42a2.722,2.722,0,0,0-.75-2.06,3.1,3.1,0,0,0-2.23-.72,5.551,5.551,0,0,0-1.94.34,4.942,4.942,0,0,0-1.56.9l-.64-1.06a5.675,5.675,0,0,1,1.92-1.05,7.475,7.475,0,0,1,2.36-.37,4.517,4.517,0,0,1,3.15,1.01,3.949,3.949,0,0,1,1.11,3.07V91Zm-3.62.1a4.977,4.977,0,0,1-2.05-.39,3.044,3.044,0,0,1-1.33-1.08,2.8,2.8,0,0,1-.46-1.59,2.907,2.907,0,0,1,.39-1.49,2.746,2.746,0,0,1,1.28-1.08,5.792,5.792,0,0,1,2.39-.41h3.62v1.06H78.56a3.149,3.149,0,0,0-2.11.54,1.824,1.824,0,0,0,.11,2.78,3.143,3.143,0,0,0,1.96.54,3.793,3.793,0,0,0,2.07-.55,3.159,3.159,0,0,0,1.27-1.59l.32.98a3.336,3.336,0,0,1-1.39,1.66A4.613,4.613,0,0,1,78.3,91.1Zm13.32,3.88a9.047,9.047,0,0,1-2.76-.42,5.444,5.444,0,0,1-2.14-1.2l.72-1.08a5.493,5.493,0,0,0,1.83,1.05,6.805,6.805,0,0,0,2.31.39,4.041,4.041,0,0,0,2.94-.93,3.915,3.915,0,0,0,.94-2.89V87.28l.2-1.8-.14-1.8V80.5h1.36v9.22a5.3,5.3,0,0,1-1.33,3.99A5.485,5.485,0,0,1,91.62,94.98Zm-.26-4.38a5.576,5.576,0,0,1-2.7-.65,4.839,4.839,0,0,1-1.89-1.81,5.1,5.1,0,0,1-.69-2.66,5.05,5.05,0,0,1,.69-2.65,4.789,4.789,0,0,1,1.89-1.79,5.647,5.647,0,0,1,2.7-.64,5.4,5.4,0,0,1,2.52.58,4.331,4.331,0,0,1,1.78,1.72,6.185,6.185,0,0,1,0,5.56A4.466,4.466,0,0,1,93.88,90,5.251,5.251,0,0,1,91.36,90.6Zm.14-1.26a4.239,4.239,0,0,0,2.06-.49,3.665,3.665,0,0,0,1.42-1.36,3.842,3.842,0,0,0,.52-2.01,3.789,3.789,0,0,0-.52-2,3.688,3.688,0,0,0-1.42-1.35,4.554,4.554,0,0,0-4.11,0,3.6,3.6,0,0,0-1.42,1.35,3.847,3.847,0,0,0-.51,2,3.9,3.9,0,0,0,.51,2.01,3.576,3.576,0,0,0,1.42,1.36A4.254,4.254,0,0,0,91.5,89.34Zm13.8,1.76a5.826,5.826,0,0,1-2.88-.69,5.014,5.014,0,0,1-1.94-1.9,5.43,5.43,0,0,1-.7-2.77,5.566,5.566,0,0,1,.67-2.76,4.961,4.961,0,0,1,1.84-1.89,5.426,5.426,0,0,1,5.26-.02,4.771,4.771,0,0,1,1.81,1.88,5.733,5.733,0,0,1,.66,2.79q0,.1-.01.21t-.01.23h-9.14V85.12h8.38l-.56.42a4.139,4.139,0,0,0-.49-2.03,3.607,3.607,0,0,0-1.33-1.39,3.72,3.72,0,0,0-1.94-.5,3.788,3.788,0,0,0-1.94.5,3.476,3.476,0,0,0-1.34,1.4,4.31,4.31,0,0,0-.48,2.06v.22a4.116,4.116,0,0,0,.53,2.11,3.7,3.7,0,0,0,1.48,1.42,4.516,4.516,0,0,0,2.17.51,4.676,4.676,0,0,0,1.79-.34,3.719,3.719,0,0,0,1.43-1.04l.8.92a4.5,4.5,0,0,1-1.75,1.28A5.919,5.919,0,0,1,105.3,91.1Zm20.74-10.7a4.8,4.8,0,0,1,2.23.49,3.436,3.436,0,0,1,1.48,1.49,5.347,5.347,0,0,1,.53,2.52V91h-1.42V85.04a3.565,3.565,0,0,0-.79-2.51,2.894,2.894,0,0,0-2.23-.85,3.716,3.716,0,0,0-1.87.45,3.03,3.03,0,0,0-1.22,1.3,4.5,4.5,0,0,0-.43,2.05V91H120.9V85.04a3.536,3.536,0,0,0-.8-2.51,2.927,2.927,0,0,0-2.24-.85,3.73,3.73,0,0,0-1.86.45,3.013,3.013,0,0,0-1.23,1.3,4.5,4.5,0,0,0-.43,2.05V91h-1.42V80.5h1.36v2.84l-.22-.5a3.752,3.752,0,0,1,1.55-1.79,4.779,4.779,0,0,1,2.53-.65,4.4,4.4,0,0,1,2.62.77,3.6,3.6,0,0,1,1.4,2.31l-.56-.22a4.139,4.139,0,0,1,1.63-2.07A4.9,4.9,0,0,1,126.04,80.4Z" transform="translate(12286 -2693)" fill="#202428"/>
    <g transform="matrix(1, 0, 0, 1, 11731.79, -3078)" filter="url(#Caminho_12196)">
      <path id="Caminho_12196-2" data-name="Caminho 12196" d="M20,0,40,34H0Z" transform="translate(622.21 334)" fill="#fff"/>
    </g>
  </g>
</svg>
