<svg xmlns="http://www.w3.org/2000/svg" width="98.438" height="60.092" viewBox="0 0 98.438 60.092">
  <path id="Caminho_12237" data-name="Caminho 12237" d="M74.806,81a23.615,23.615,0,0,1-12.782-3.528,23.98,23.98,0,0,1-8.881-10.25A37.241,37.241,0,0,1,49.906,50.95a37.241,37.241,0,0,1,3.237-16.268,23.98,23.98,0,0,1,8.881-10.251A23.615,23.615,0,0,1,74.806,20.9a23.556,23.556,0,0,1,12.824,3.527,24.081,24.081,0,0,1,8.84,10.251A37.241,37.241,0,0,1,99.706,50.95a37.241,37.241,0,0,1-3.237,16.268,24.081,24.081,0,0,1-8.84,10.25A23.556,23.556,0,0,1,74.806,81Zm0-11.371a9.58,9.58,0,0,0,5.935-1.909,12.5,12.5,0,0,0,3.984-6.059A33,33,0,0,0,86.176,50.95a33,33,0,0,0-1.452-10.707,12.5,12.5,0,0,0-3.984-6.059,9.58,9.58,0,0,0-5.935-1.909,9.454,9.454,0,0,0-5.852,1.909,12.5,12.5,0,0,0-3.984,6.059A33,33,0,0,0,63.518,50.95,33,33,0,0,0,64.97,61.657a12.5,12.5,0,0,0,3.984,6.059A9.454,9.454,0,0,0,74.806,69.625ZM124.273,81a45.85,45.85,0,0,1-12.035-1.618,31.074,31.074,0,0,1-10.126-4.607l5.229-10.292A27.19,27.19,0,0,0,115.06,68.3a28.919,28.919,0,0,0,8.881,1.411q5.063,0,7.968-1.992a6.294,6.294,0,0,0,2.9-5.478,6.158,6.158,0,0,0-2.573-5.229q-2.573-1.909-8.3-1.909H117.8V46.219l16.185-18.343,1.494,4.814H105.017V21.9h40.67v8.715l-16.1,18.343-6.806-3.9h3.9q10.707,0,16.185,4.814a15.715,15.715,0,0,1,5.478,12.367,17.48,17.48,0,0,1-2.573,9.172,18.562,18.562,0,0,1-7.885,6.93Q132.573,81,124.273,81Z" transform="translate(-49.905 -20.904)" fill="#00a4e1"/>
</svg>
