<svg xmlns="http://www.w3.org/2000/svg" width="99.435" height="60.092" viewBox="0 0 99.435 60.092">
  <path id="Caminho_12236" data-name="Caminho 12236" d="M74.64,81a23.615,23.615,0,0,1-12.782-3.528,23.98,23.98,0,0,1-8.881-10.25A37.241,37.241,0,0,1,49.74,50.95a37.241,37.241,0,0,1,3.237-16.268,23.98,23.98,0,0,1,8.881-10.251A23.615,23.615,0,0,1,74.64,20.9a23.556,23.556,0,0,1,12.824,3.527A24.081,24.081,0,0,1,96.3,34.682,37.241,37.241,0,0,1,99.54,50.95,37.241,37.241,0,0,1,96.3,67.218a24.081,24.081,0,0,1-8.84,10.25A23.556,23.556,0,0,1,74.64,81Zm0-11.371a9.58,9.58,0,0,0,5.935-1.909,12.5,12.5,0,0,0,3.984-6.059A33,33,0,0,0,86.01,50.95a33,33,0,0,0-1.452-10.707,12.5,12.5,0,0,0-3.984-6.059,9.58,9.58,0,0,0-5.935-1.909,9.454,9.454,0,0,0-5.852,1.909A12.5,12.5,0,0,0,64.8,40.243,33,33,0,0,0,63.352,50.95,33,33,0,0,0,64.8,61.657a12.5,12.5,0,0,0,3.984,6.059A9.454,9.454,0,0,0,74.64,69.625ZM105.266,80V71.285l22.41-21.165a23.528,23.528,0,0,0,3.9-4.316,13.343,13.343,0,0,0,1.7-3.486,10.508,10.508,0,0,0,.457-2.9,6.42,6.42,0,0,0-2.366-5.353q-2.365-1.868-6.93-1.868a16.19,16.19,0,0,0-6.765,1.411A13.154,13.154,0,0,0,112.4,38l-9.794-6.308a22.906,22.906,0,0,1,9.3-7.885,31.144,31.144,0,0,1,13.778-2.9,28.156,28.156,0,0,1,11.329,2.117,17.586,17.586,0,0,1,7.553,5.934,15.413,15.413,0,0,1,2.7,9.13,22.7,22.7,0,0,1-.705,5.6,18.5,18.5,0,0,1-2.822,5.852,44.649,44.649,0,0,1-6.184,6.889L118.962,73.941l-2.573-4.9h32.785V80Z" transform="translate(-49.739 -20.904)" fill="#00a4e1"/>
</svg>
