<svg xmlns="http://www.w3.org/2000/svg" width="78.436" height="60.092" viewBox="0 0 78.436 60.092">
  <path id="Caminho_12235" data-name="Caminho 12235" d="M82.857,81a23.615,23.615,0,0,1-12.782-3.528,23.98,23.98,0,0,1-8.881-10.25A37.241,37.241,0,0,1,57.957,50.95a37.241,37.241,0,0,1,3.237-16.268,23.98,23.98,0,0,1,8.881-10.251,25,25,0,0,1,25.606,0,24.081,24.081,0,0,1,8.839,10.251,37.241,37.241,0,0,1,3.237,16.268,37.241,37.241,0,0,1-3.237,16.268,24.081,24.081,0,0,1-8.839,10.25A23.556,23.556,0,0,1,82.857,81Zm0-11.371a9.58,9.58,0,0,0,5.934-1.909,12.5,12.5,0,0,0,3.984-6.059A33,33,0,0,0,94.228,50.95a33,33,0,0,0-1.452-10.707,12.5,12.5,0,0,0-3.984-6.059,9.58,9.58,0,0,0-5.934-1.909,9.454,9.454,0,0,0-5.852,1.909,12.5,12.5,0,0,0-3.984,6.059A33,33,0,0,0,71.569,50.95a33,33,0,0,0,1.452,10.707,12.5,12.5,0,0,0,3.984,6.059A9.454,9.454,0,0,0,82.857,69.625ZM122.945,80V26.88l5.81,5.81h-17.43V21.9h25.066V80Z" transform="translate(-57.956 -20.904)" fill="#00a4e1"/>
</svg>
