<svg xmlns="http://www.w3.org/2000/svg" width="100.264" height="60.092" viewBox="0 0 100.264 60.092">
  <path id="Caminho_12239" data-name="Caminho 12239" d="M74.266,81a23.615,23.615,0,0,1-12.782-3.528A23.98,23.98,0,0,1,52.6,67.218,37.241,37.241,0,0,1,49.366,50.95,37.241,37.241,0,0,1,52.6,34.682a23.98,23.98,0,0,1,8.881-10.251A23.615,23.615,0,0,1,74.266,20.9,23.556,23.556,0,0,1,87.09,24.431a24.081,24.081,0,0,1,8.839,10.251A37.241,37.241,0,0,1,99.166,50.95a37.241,37.241,0,0,1-3.237,16.268,24.081,24.081,0,0,1-8.839,10.25A23.556,23.556,0,0,1,74.266,81Zm0-11.371A9.58,9.58,0,0,0,80.2,67.716a12.5,12.5,0,0,0,3.984-6.059A33,33,0,0,0,85.637,50.95a33,33,0,0,0-1.452-10.707A12.5,12.5,0,0,0,80.2,34.184a9.58,9.58,0,0,0-5.934-1.909,9.454,9.454,0,0,0-5.852,1.909,12.5,12.5,0,0,0-3.984,6.059A33,33,0,0,0,62.978,50.95a33,33,0,0,0,1.452,10.707,12.5,12.5,0,0,0,3.984,6.059A9.454,9.454,0,0,0,74.266,69.625ZM125.477,81a45.39,45.39,0,0,1-11.994-1.618,32.137,32.137,0,0,1-10.167-4.607l5.312-10.292a27.3,27.3,0,0,0,7.677,3.818,28.53,28.53,0,0,0,8.84,1.411q5.063,0,7.968-1.992a6.368,6.368,0,0,0,2.9-5.561,7.016,7.016,0,0,0-1.162-3.984,7.314,7.314,0,0,0-4.109-2.656,29.177,29.177,0,0,0-8.258-.913H107.632l2.988-32.7h35.441V32.69H115.434l6.972-6.142-2.075,23.323-6.972-6.142h12.284q8.632,0,13.9,2.365a16.305,16.305,0,0,1,7.678,6.432,17.743,17.743,0,0,1,2.407,9.213,18.356,18.356,0,0,1-2.573,9.5A18.578,18.578,0,0,1,139.13,78.3Q133.777,81,125.477,81Z" transform="translate(-49.366 -20.904)" fill="#00a4e1"/>
</svg>
