<svg xmlns="http://www.w3.org/2000/svg" width="109.561" height="60.092" viewBox="0 0 109.561 60.092">
  <path id="Caminho_12238" data-name="Caminho 12238" d="M70.365,81a23.615,23.615,0,0,1-12.782-3.528A23.98,23.98,0,0,1,48.7,67.218,37.241,37.241,0,0,1,45.465,50.95,37.241,37.241,0,0,1,48.7,34.682a23.98,23.98,0,0,1,8.881-10.251A23.615,23.615,0,0,1,70.365,20.9a23.556,23.556,0,0,1,12.824,3.527,24.081,24.081,0,0,1,8.84,10.251A37.241,37.241,0,0,1,95.265,50.95a37.241,37.241,0,0,1-3.237,16.268,24.081,24.081,0,0,1-8.84,10.25A23.556,23.556,0,0,1,70.365,81Zm0-11.371A9.58,9.58,0,0,0,76.3,67.716a12.5,12.5,0,0,0,3.984-6.059A33,33,0,0,0,81.736,50.95a33,33,0,0,0-1.452-10.707A12.5,12.5,0,0,0,76.3,34.184a9.58,9.58,0,0,0-5.935-1.909,9.454,9.454,0,0,0-5.852,1.909,12.5,12.5,0,0,0-3.984,6.059A33,33,0,0,0,59.077,50.95,33,33,0,0,0,60.53,61.657a12.5,12.5,0,0,0,3.984,6.059A9.454,9.454,0,0,0,70.365,69.625ZM101.158,67.8V58.752L128.548,21.9h14.11L115.849,58.752l-6.557-1.909h45.733V67.8ZM132.449,80V67.8l.415-10.956V45.97h12.7V80Z" transform="translate(-45.465 -20.904)" fill="#00a4e1"/>
</svg>
