<svg xmlns="http://www.w3.org/2000/svg" width="92.225" height="103.011" viewBox="0 0 92.225 103.011">
  <g id="Ebene_1" transform="translate(-9.617 -7)">
    <g id="Grupo_765" data-name="Grupo 765" transform="translate(9.617 7)">
      <path id="Caminho_6292" data-name="Caminho 6292" d="M94.93,62.121c-.921-1.205-1.939-2.408-3.01-3.609,8.626-9.718,12.151-19.284,8.416-25.759-2.567-4.448-8.06-6.8-15.88-6.8A53.2,53.2,0,0,0,73.844,27.2C69.74,14.851,63.213,7,55.73,7s-14,7.839-18.1,20.174A53.514,53.514,0,0,0,27,25.954c-7.821,0-13.311,2.351-15.88,6.8-3.737,6.475-.212,16.039,8.414,25.757-1.069,1.2-2.089,2.4-3.008,3.609-6.681,8.746-8.6,16.607-5.406,22.141,2.567,4.446,8.06,6.8,15.88,6.8a53.215,53.215,0,0,0,10.614-1.244c4.1,12.347,10.629,20.2,18.111,20.2s14-7.839,18.1-20.172a53.638,53.638,0,0,0,10.62,1.218c7.821,0,13.313-2.351,15.88-6.8C103.529,78.724,101.611,70.863,94.93,62.121ZM84.456,30.074c4.368,0,10.05.822,12.312,4.738,2.569,4.45-.212,12.217-7.664,20.7a96.2,96.2,0,0,0-11.377-9.673,95.225,95.225,0,0,0-2.7-14.7A48.583,48.583,0,0,1,84.456,30.074ZM65,74.563c-3.068,1.77-6.177,3.358-9.271,4.784-3.094-1.426-6.2-3.014-9.271-4.784-3.154-1.821-6.088-3.7-8.812-5.618-.295-3.313-.459-6.795-.459-10.439s.163-7.106.455-10.412c2.787-1.965,5.725-3.863,8.814-5.645,3.068-1.772,6.177-3.356,9.271-4.784,3.094,1.428,6.2,3.012,9.271,4.784,3.088,1.784,6.028,3.682,8.816,5.647.3,3.307.457,6.778.457,10.41s-.163,7.124-.459,10.439C71.091,70.858,68.155,72.741,65,74.563Zm8.181-.214a86.879,86.879,0,0,1-2.155,10.6A89.091,89.091,0,0,1,60.741,81.5c2.118-1.057,4.232-2.165,6.321-3.373C69.179,76.909,71.219,75.642,73.182,74.348ZM50.705,81.51a89.59,89.59,0,0,1-10.27,3.441,86.411,86.411,0,0,1-2.155-10.6q2.945,1.941,6.119,3.783C46.5,79.342,48.6,80.453,50.705,81.51ZM33.284,65.7a86.672,86.672,0,0,1-8.113-7.178,87.855,87.855,0,0,1,8.113-7.167c-.138,2.336-.216,4.72-.216,7.155S33.146,63.351,33.284,65.7Zm4.992-23.006A86.777,86.777,0,0,1,40.435,32.06a89.3,89.3,0,0,1,10.283,3.447c-2.116,1.057-4.23,2.165-6.319,3.373C42.289,40.1,40.26,41.381,38.276,42.689ZM60.753,35.5A89.087,89.087,0,0,1,71.025,32.06a86.813,86.813,0,0,1,2.159,10.631c-1.984-1.31-4.013-2.592-6.125-3.811S62.857,36.558,60.753,35.5ZM78.178,51.352a87.82,87.82,0,0,1,8.111,7.167A86.962,86.962,0,0,1,78.176,65.7c.14-2.345.216-4.743.216-7.19S78.316,53.689,78.178,51.352ZM55.73,11.12c5.142,0,10.482,6.3,14.108,17.015a97.526,97.526,0,0,0-14.077,5A95.478,95.478,0,0,0,41.636,28.1C45.258,17.408,50.594,11.12,55.73,11.12ZM14.695,34.813c2.26-3.914,7.942-4.736,12.312-4.736a48.406,48.406,0,0,1,9.43,1.067,95.451,95.451,0,0,0-2.7,14.7,95.894,95.894,0,0,0-11.379,9.673C14.905,47.028,12.124,39.261,14.695,34.813ZM27,86.936c-4.368,0-10.05-.822-12.31-4.738-2.274-3.941-.414-10.346,5.109-17.576.791-1.036,1.652-2.073,2.563-3.107A95.132,95.132,0,0,0,33.74,71.2a95.235,95.235,0,0,0,2.695,14.665A48.435,48.435,0,0,1,27,86.936ZM55.73,105.89c-5.142,0-10.482-6.3-14.106-17.015a97.841,97.841,0,0,0,14.075-5,95.264,95.264,0,0,0,14.127,5.033C66.2,99.6,60.866,105.89,55.73,105.89ZM96.766,82.2C95,85.253,90.628,86.936,84.454,86.936a48.386,48.386,0,0,1-9.428-1.067,95.6,95.6,0,0,0,2.7-14.667A95.125,95.125,0,0,0,89.1,61.517c.909,1.032,1.77,2.068,2.561,3.1C97.18,71.851,99.042,78.257,96.766,82.2Z" transform="translate(-9.617 -7)" fill="#f0b266"/>
      <path id="Caminho_6293" data-name="Caminho 6293" d="M37.3,27A10.3,10.3,0,1,0,47.6,37.3,10.313,10.313,0,0,0,37.3,27Zm0,16.482A6.181,6.181,0,1,1,43.482,37.3,6.188,6.188,0,0,1,37.3,43.482Z" transform="translate(8.812 14.204)" fill="#f0b266"/>
    </g>
  </g>
</svg>
