<svg xmlns="http://www.w3.org/2000/svg" width="99.046" height="103.011" viewBox="0 0 99.046 103.011">
  <g id="Page-2" transform="translate(-3.793 -1.869)">
    <g id="idea" transform="translate(3.793 1.869)">
      <path id="Caminho_6294" data-name="Caminho 6294" d="M60.064,104.573a2.153,2.153,0,0,1,.292,4.287l-.292.02H54.322a2.153,2.153,0,0,1-.292-4.287l.292-.02Zm5.742-5.742a2.153,2.153,0,0,1,.292,4.287l-.292.02H48.58a2.153,2.153,0,0,1-.292-4.287l.292-.02Zm2.871-5.742a2.153,2.153,0,0,1,.292,4.287l-.292.02H45.709a2.153,2.153,0,0,1-.292-4.287l.292-.02ZM57.193,27.059A27.991,27.991,0,0,1,85.184,55.05c0,6.6-3.935,13.734-11.641,21.489A9.331,9.331,0,0,0,70.852,82.5l-.02.614v4.954a3.59,3.59,0,0,1-3.222,3.568l-.367.019h-20.1a3.589,3.589,0,0,1-3.57-3.222l-.018-.367V83.116a9.33,9.33,0,0,0-2.712-6.577C33.137,68.785,29.2,61.651,29.2,55.05A27.991,27.991,0,0,1,57.193,27.059ZM31.433,78.4a2.154,2.154,0,0,1,.193,2.825l-.193.22-6.09,6.09A2.153,2.153,0,0,1,22.1,84.714l.193-.22,6.09-6.09A2.153,2.153,0,0,1,31.433,78.4Zm54.59-.193.22.193,6.09,6.09a2.153,2.153,0,0,1-2.824,3.238l-.22-.193-6.09-6.09a2.153,2.153,0,0,1,2.825-3.238ZM57.193,31.366A23.685,23.685,0,0,0,33.508,55.05c0,5.249,3.409,11.429,10.39,18.453A13.638,13.638,0,0,1,47.844,82.4l.019.718,0,4.232H66.523l0-4.236a13.638,13.638,0,0,1,3.009-8.541L70,74.026l.493-.522C77.47,66.479,80.878,60.3,80.878,55.05A23.685,23.685,0,0,0,57.193,31.366Zm-38.634,19a2.153,2.153,0,0,1,.292,4.287l-.292.02H9.946a2.153,2.153,0,0,1-.292-4.287l.292-.02Zm86.127,0a2.153,2.153,0,0,1,.292,4.287l-.292.02H96.073a2.153,2.153,0,0,1-.292-4.287l.292-.02Zm-44.621-14.7A16.508,16.508,0,0,1,76.571,52.18a2.153,2.153,0,1,1-4.306,0,12.2,12.2,0,0,0-12.2-12.2,2.153,2.153,0,1,1,0-4.306ZM25.122,17.31l.22.193,6.09,6.09a2.153,2.153,0,0,1-2.824,3.238l-.22-.193-6.09-6.09a2.153,2.153,0,0,1,2.825-3.238Zm67.211.193a2.154,2.154,0,0,1,.193,2.825l-.193.22-6.09,6.09a2.153,2.153,0,0,1-3.238-2.825l.193-.22,6.09-6.09A2.153,2.153,0,0,1,92.334,17.5ZM57.316,5.869A2.154,2.154,0,0,1,59.449,7.73l.02.292v8.613a2.153,2.153,0,0,1-4.287.292l-.02-.292V8.022A2.153,2.153,0,0,1,57.316,5.869Z" transform="translate(-7.793 -5.869)" fill="#e7915c"/>
    </g>
  </g>
</svg>
