<svg xmlns="http://www.w3.org/2000/svg" width="331.811" height="619.856" viewBox="0 0 331.811 619.856">
  <g id="Layer_1" data-name="Layer 1" transform="translate(0.769)">
    <g id="Grupo_1003" data-name="Grupo 1003" transform="translate(0 0)">
      <text id="PACIENTES_DIA" data-name="PACIENTES DIA" transform="translate(0.009 15)" fill="#20819e" font-size="15" font-family="Montserrat-ExtraBold, Montserrat" font-weight="800"><tspan x="0" y="0">PACIENTES DIA</tspan></text>
      <text id="ATENDIMENTOS_NO" data-name="ATENDIMENTOS NO" transform="translate(0.231 363.421)" fill="#20819e" font-size="15" font-family="Montserrat-ExtraBold, Montserrat" font-weight="800" letter-spacing="-0.01em"><tspan x="0" y="0">ATENDIMENTOS NO</tspan></text>
      <path id="Caminho_7227" data-name="Caminho 7227" d="M11.254,287.428c0,2.491-1.878,4.031-4.865,4.031h-1.9v2.857H1.38V283.359H6.389c2.987,0,4.865,1.552,4.865,4.057Zm-3.13,0c0-1.017-.639-1.617-1.93-1.617H4.471v3.209H6.193C7.471,289.02,8.124,288.42,8.124,287.428Zm9.365,3.991h-1.7v2.909H12.7V283.372h5.009c2.987,0,4.865,1.552,4.865,4.057a3.626,3.626,0,0,1-2.139,3.457l2.361,3.444H19.485L17.5,291.42Zm.026-5.6H15.793v3.209h1.722c1.278,0,1.93-.6,1.93-1.591S18.806,285.824,17.515,285.824ZM23.5,288.85c0-3.287,2.583-5.7,6.091-5.7s6.091,2.413,6.091,5.7-2.583,5.7-6.091,5.7S23.5,292.137,23.5,288.85Zm9.039,0a2.965,2.965,0,1,0-2.961,3.13A2.939,2.939,0,0,0,32.541,288.85ZM47.5,283.385v10.957H44.959l-4.839-5.831v5.831H37.08V283.385h2.544l4.839,5.831v-5.831H47.5Zm4.317,2.452H48.454v-2.452h9.809v2.452H54.911v8.491H51.82v-8.491Zm6.822,3.013c0-3.287,2.583-5.7,6.091-5.7s6.091,2.413,6.091,5.7-2.583,5.7-6.091,5.7S58.642,292.137,58.642,288.85Zm9.039,0a2.965,2.965,0,1,0-2.961,3.13A2.939,2.939,0,0,0,67.681,288.85Zm4.357-1.213H76.6v2.283H72.037Zm13.7,4.565H81.1l-.861,2.126H77.085l4.839-10.957h3.052l4.852,10.957H86.607l-.861-2.126Zm-.913-2.283-1.409-3.509L82,289.92Zm7.983-4.083H89.438v-2.452h9.809v2.452H95.894v8.491H92.8v-8.491Zm16.187,6.1v2.387H100.2V283.372h8.583v2.387h-5.517v1.852h4.865v2.322h-4.865v2.009Zm11.922-8.557v10.957h-2.544l-4.839-5.831v5.831H110.49V283.385h2.544l4.839,5.831v-5.831Zm1.983,0h5.178c3.626,0,6.117,2.113,6.117,5.478s-2.491,5.478-6.117,5.478h-5.178V283.385Zm5.048,8.478a3,3,0,1,0,0-6h-1.957v6.013h1.957Zm7.657-8.478h3.091v10.957H135.6Zm14.974,10.944-.026-5.8-2.817,4.722h-1.383l-2.8-4.565v5.648h-2.857V283.372h2.544l3.848,6.326,3.757-6.326h2.544l.026,10.957H150.56Zm13.618-2.387v2.387H155.4V283.372h8.583v2.387h-5.517v1.852h4.865v2.322h-4.865v2.009Zm11.935-8.557v10.957h-2.544l-4.839-5.831v5.831H165.7V283.385h2.544l4.839,5.831v-5.831Zm4.3,2.452h-3.365v-2.452h9.809v2.452h-3.352v8.491H180.43Zm6.822,3.013c0-3.287,2.583-5.7,6.091-5.7s6.091,2.413,6.091,5.7-2.583,5.7-6.091,5.7S187.252,292.137,187.252,288.85Zm9.039,0a2.966,2.966,0,1,0-2.961,3.13A2.939,2.939,0,0,0,196.291,288.85Z" transform="translate(-0.053 88.528)" fill="#20819e"/>
      <text id="ATENDIMENTOS_EM_TELEMEDICINA" data-name="ATENDIMENTOS EM TELEMEDICINA" transform="translate(0.231 516.11)" fill="#20819e" font-size="15" font-family="Montserrat-ExtraBold, Montserrat" font-weight="800"><tspan x="0" y="0" letter-spacing="-0.01em">ATENDIMENTOS EM TELEMEDICIN</tspan><tspan y="0">A</tspan></text>
      <text id="_351_7" data-name="351,7" transform="translate(72.532 438.035)" fill="#0c9cd8" font-size="33" font-family="Montserrat-Bold, Montserrat" font-weight="700" letter-spacing="-0.02em"><tspan x="0" y="0">351</tspan><tspan y="0" letter-spacing="-0.03em">,</tspan><tspan y="0">7</tspan></text>
      <text id="mil" transform="translate(72.532 473.24)" fill="#0c9cd8" font-size="33" font-family="Montserrat-Bold, Montserrat" font-weight="700"><tspan x="0" y="0" letter-spacing="-0.03em">m</tspan><tspan y="0" letter-spacing="-0.02em">i</tspan><tspan y="0">l</tspan></text>
      <text id="_836_8" data-name="836,8" transform="translate(241.042 438.035)" fill="#00b093" font-size="33" font-family="Montserrat-Bold, Montserrat" font-weight="700" letter-spacing="-0.02em"><tspan x="0" y="0">8</tspan><tspan y="0" letter-spacing="-0.03em">3</tspan><tspan y="0">6,8</tspan></text>
      <text id="mil-2" data-name="mil" transform="translate(241.042 473.24)" fill="#00b093" font-size="33" font-family="Montserrat-Bold, Montserrat" font-weight="700"><tspan x="0" y="0" letter-spacing="-0.03em">m</tspan><tspan y="0" letter-spacing="-0.02em">i</tspan><tspan y="0">l</tspan></text>
      <path id="Caminho_7228" data-name="Caminho 7228" d="M178.862,374.318a2.022,2.022,0,0,0,2.2-2.178,2.682,2.682,0,0,0-2.387-2.5,2.843,2.843,0,0,0-2.387,2.257,2.634,2.634,0,0,0,2.57,2.426m-9.926-22.957c-.013-.078-.065-.43-.13-.77-.391-1.93-.483-1.97-2.074-.783a6.879,6.879,0,0,1-3.744,1.409,6.445,6.445,0,0,1-5.374-1.891c-.3-.313-.848-1.03-1.161-.091a5.267,5.267,0,0,0-.17,3.978,28.492,28.492,0,0,0,5.283,7.461,1.109,1.109,0,0,0,1.865,0,25.681,25.681,0,0,0,5.074-7.135,4.529,4.529,0,0,0,.443-2.165m4.265-21.052a2.385,2.385,0,0,0-.639-1.943,16.133,16.133,0,0,1-2.9-4.37q-1.03-2.074-2.648-.5c-.157.157-.339.274-.509.417-3.965,3.339-8.739,4.735-13.7,5.57-1.109.2-1.239.6-1.1,1.565a49.681,49.681,0,0,0,2.361,9.131,18.25,18.25,0,0,0,4.109,7.265c2.726,2.648,5.4,2.765,8.283.326a8.381,8.381,0,0,0,1.552-1.774c3.2-4.748,4.174-10.239,5.178-15.7M162.649,313.5h-.991c-7.578,0-11.426,2.557-14.4,9.561-2.857,6.757-2.635,13.761-1.526,20.8.457,2.935,1.3,5.8,1.839,8.726.209,1.122.574,1.109,1.343.587a12.421,12.421,0,0,1,3.652-2.048,3.386,3.386,0,0,0,2.178-5.152,32.677,32.677,0,0,1-3.378-8.387,39.345,39.345,0,0,1-1.487-8.244c-.039-1.017.313-1.435,1.357-1.422a16.087,16.087,0,0,0,2.739-.248c5.5-.978,10.4-3.1,13.944-7.644.913-1.174,1.409-1.122,1.957.261a18.537,18.537,0,0,0,4.291,7.148,2.494,2.494,0,0,1,.874,2.2,40.3,40.3,0,0,1-4.774,15.848,4.95,4.95,0,0,0-.052,4.526c.143.365.313.757.783.822a11,11,0,0,1,4.578,2.2c1.4.952,1.8.809,2.191-.887a62.383,62.383,0,0,0,1.761-20.57,26.7,26.7,0,0,0-5.283-13.644,10.153,10.153,0,0,0-3.965-3.17,16.724,16.724,0,0,0-7.644-1.291m18.783,23.726a46.72,46.72,0,0,1-2.048,15.131c-.509,1.657-.209,2.074,1.709,2.661a12.426,12.426,0,0,1,8.335,7.617,20.309,20.309,0,0,1,1.383,6.131c.17,2.583.313,5.152.587,7.735.026.222,0,.443.013.665.065.613-.17,1.109-.809,1.135-.613.026-.743-.587-.8-1.043-.157-1.265-.143-2.544-.326-3.8a82.978,82.978,0,0,0-1.174-8.57,10.327,10.327,0,0,0-6.326-7.526,12.41,12.41,0,0,1-3.809-2.009.416.416,0,0,0-.587-.065c-.209.183-.117.378,0,.587,1.735,3.209,1.839,6.7,1.761,10.226a2.738,2.738,0,0,0,1.539,2.765,3.882,3.882,0,0,1,1.1,5.635,3.952,3.952,0,0,1-5.465.978,4.053,4.053,0,0,1-1.043-5.791,1.856,1.856,0,0,1,.7-.574c1.643-.574,1.93-1.774,1.761-3.326-.313-2.739-.391-5.478-1.343-8.126a4.734,4.734,0,0,0-3.509-3.365,6.633,6.633,0,0,1-1.122-.365c-1.043-.47-1.657-.17-2.178.887a24.742,24.742,0,0,1-5.87,7.526c-1.017.9-1.7.913-2.765,0a22.394,22.394,0,0,1-6.091-7.657,1.353,1.353,0,0,0-1.591-.835,6.794,6.794,0,0,0-6.287,6.3c-.052.522-.248,1.122.639,1.3,3.274.691,4.944,2.922,5.661,6.026a21.721,21.721,0,0,1,.2,6.026c-.065,1.148.078,2.27.078,3.4,0,.952-.4,1.383-1.3,1.422-.574.013-1.148.026-1.709,0a.755.755,0,0,1-.8-.848c.026-.535.326-.861.848-.783,1.344.222,1.4-.561,1.33-1.539-.143-2.322.17-4.644-.235-6.965-.587-3.352-2.883-5.348-6.039-5.165-2.87.157-5.048,2.5-5.244,5.726-.143,2.361.117,4.735-.156,7.109-.078.743.483.822,1.043.861s1.161.209,1.161.822c0,.77-.73.757-1.278.809-2.126.2-2.478-.1-2.426-2.23.065-2.935-.313-5.883.222-8.8a6.921,6.921,0,0,1,5.165-5.726,1.635,1.635,0,0,0,1.422-1.7,8.7,8.7,0,0,1,.743-2.909c.13-.287.457-.626.078-.939-.261-.209-.587-.1-.887-.026a12.669,12.669,0,0,0-9.639,11.791c-.261,3.222-.665,6.444-.991,9.665-.039.4-.039.874-.613.8-.43-.065-.874-.248-.835-.835.287-4.983.313-9.991,2-14.778a11.649,11.649,0,0,1,6.822-6.9c.639-.274,1.291-.548,1.944-.8,2.217-.835,2.257-.848,1.539-3.052a52.563,52.563,0,0,1-2.361-13.252,39.046,39.046,0,0,1,.9-12.378,25.168,25.168,0,0,1,5.165-9.952,11.79,11.79,0,0,1,7.487-4.044,34.581,34.581,0,0,1,10.878-.013c4.97.835,7.944,4.239,10.187,8.387,2.778,5.126,3.47,10.7,3.261,16.6" transform="translate(40.189 97.262)" fill="#00b093"/>
      <path id="Caminho_7229" data-name="Caminho 7229" d="M178.862,374.318a2.022,2.022,0,0,0,2.2-2.178,2.682,2.682,0,0,0-2.387-2.5,2.843,2.843,0,0,0-2.387,2.257,2.634,2.634,0,0,0,2.57,2.426Zm-9.926-22.957c-.013-.078-.065-.43-.13-.77-.391-1.93-.483-1.97-2.074-.783a6.879,6.879,0,0,1-3.744,1.409,6.445,6.445,0,0,1-5.374-1.891c-.3-.313-.848-1.03-1.161-.091a5.267,5.267,0,0,0-.17,3.978,28.492,28.492,0,0,0,5.283,7.461,1.109,1.109,0,0,0,1.865,0,25.681,25.681,0,0,0,5.074-7.135,4.529,4.529,0,0,0,.443-2.165Zm4.278-21.039a2.385,2.385,0,0,0-.639-1.943,16.133,16.133,0,0,1-2.9-4.37q-1.03-2.074-2.648-.5c-.157.157-.339.274-.509.417-3.965,3.339-8.739,4.735-13.7,5.57-1.109.2-1.239.6-1.1,1.565a49.681,49.681,0,0,0,2.361,9.131,18.25,18.25,0,0,0,4.109,7.265c2.726,2.648,5.4,2.765,8.283.326a8.381,8.381,0,0,0,1.552-1.774c3.2-4.748,4.174-10.239,5.178-15.7ZM162.649,313.5h-.991c-7.578,0-11.426,2.557-14.4,9.561-2.857,6.757-2.635,13.761-1.526,20.8.457,2.935,1.3,5.8,1.839,8.726.209,1.122.574,1.109,1.343.587a12.421,12.421,0,0,1,3.652-2.048,3.386,3.386,0,0,0,2.178-5.152,32.677,32.677,0,0,1-3.378-8.387,39.345,39.345,0,0,1-1.487-8.244c-.039-1.017.313-1.435,1.357-1.422a16.087,16.087,0,0,0,2.739-.248c5.5-.978,10.4-3.1,13.944-7.644.913-1.174,1.409-1.122,1.957.261a18.537,18.537,0,0,0,4.291,7.148,2.494,2.494,0,0,1,.874,2.2,40.3,40.3,0,0,1-4.774,15.848,4.95,4.95,0,0,0-.052,4.526c.143.365.313.757.783.822a11,11,0,0,1,4.578,2.2c1.4.952,1.8.809,2.191-.887a62.383,62.383,0,0,0,1.761-20.57,26.7,26.7,0,0,0-5.283-13.644,10.153,10.153,0,0,0-3.965-3.17,16.724,16.724,0,0,0-7.644-1.291Zm18.77,23.713a46.72,46.72,0,0,1-2.048,15.131c-.509,1.657-.209,2.074,1.709,2.661a12.426,12.426,0,0,1,8.335,7.617,20.309,20.309,0,0,1,1.383,6.131c.17,2.583.313,5.152.587,7.735.026.222,0,.443.013.665.065.613-.17,1.109-.809,1.135-.613.026-.743-.587-.8-1.043-.157-1.265-.143-2.544-.326-3.8a82.978,82.978,0,0,0-1.174-8.57,10.327,10.327,0,0,0-6.326-7.526,12.41,12.41,0,0,1-3.809-2.009.416.416,0,0,0-.587-.065c-.209.183-.117.378,0,.587,1.735,3.209,1.839,6.7,1.761,10.226a2.738,2.738,0,0,0,1.539,2.765,3.882,3.882,0,0,1,1.1,5.635,3.952,3.952,0,0,1-5.465.978,4.053,4.053,0,0,1-1.043-5.791,1.856,1.856,0,0,1,.7-.574c1.643-.574,1.93-1.774,1.761-3.326-.313-2.739-.391-5.478-1.343-8.126a4.734,4.734,0,0,0-3.509-3.365,6.633,6.633,0,0,1-1.122-.365c-1.043-.47-1.657-.17-2.178.887a24.742,24.742,0,0,1-5.87,7.526c-1.017.9-1.7.913-2.765,0a22.394,22.394,0,0,1-6.091-7.657,1.353,1.353,0,0,0-1.591-.835,6.794,6.794,0,0,0-6.287,6.3c-.052.522-.248,1.122.639,1.3,3.274.691,4.944,2.922,5.661,6.026a21.721,21.721,0,0,1,.2,6.026c-.065,1.148.078,2.27.078,3.4,0,.952-.4,1.383-1.3,1.422-.574.013-1.148.026-1.709,0a.755.755,0,0,1-.8-.848c.026-.535.326-.861.848-.783,1.344.222,1.4-.561,1.33-1.539-.143-2.322.17-4.644-.235-6.965-.587-3.352-2.883-5.348-6.039-5.165-2.87.157-5.048,2.5-5.244,5.726-.143,2.361.117,4.735-.156,7.109-.078.743.483.822,1.043.861s1.161.209,1.161.822c0,.77-.73.757-1.278.809-2.126.2-2.478-.1-2.426-2.23.065-2.935-.313-5.883.222-8.8a6.921,6.921,0,0,1,5.165-5.726,1.635,1.635,0,0,0,1.422-1.7,8.7,8.7,0,0,1,.743-2.909c.13-.287.457-.626.078-.939-.261-.209-.587-.1-.887-.026a12.669,12.669,0,0,0-9.639,11.791c-.261,3.222-.665,6.444-.991,9.665-.039.4-.039.874-.613.8-.43-.065-.874-.248-.835-.835.287-4.983.313-9.991,2-14.778a11.649,11.649,0,0,1,6.822-6.9c.639-.274,1.291-.548,1.944-.8,2.217-.835,2.257-.848,1.539-3.052a52.563,52.563,0,0,1-2.361-13.252,39.046,39.046,0,0,1,.9-12.378,25.168,25.168,0,0,1,5.165-9.952,11.79,11.79,0,0,1,7.487-4.044,34.581,34.581,0,0,1,10.878-.013c4.97.835,7.944,4.239,10.187,8.387,2.778,5.126,3.47,10.7,3.261,16.6Z" transform="translate(40.189 97.262)" fill="none" stroke="#00b093" stroke-miterlimit="10" stroke-width="0.75"/>
      <path id="Caminho_7230" data-name="Caminho 7230" d="M48.759,368.577a2.406,2.406,0,1,0,.391,4.787,2.293,2.293,0,0,0,2.152-2.257,2.692,2.692,0,0,0-2.544-2.531m-23.9-19.252v2.2a1.356,1.356,0,0,0,.809,1.383,48.772,48.772,0,0,1,5.113,2.674,1.462,1.462,0,0,0,1.6,0,25.518,25.518,0,0,1,3.783-2.074c1.774-.626,2.152-1.97,2.374-3.522.157-1.017-.391-1.943-.339-2.961.026-.535-.509-.326-.8-.156-2.9,1.787-6.091,1.161-9.209,1.174a4.709,4.709,0,0,1-1-.248c-.8-.183-1.526-1.33-2.165-.861s.013,1.63-.17,2.374M44.82,325.363h.052c-.1-1.043-.209-2.087-.3-3.13a10.452,10.452,0,0,0-10.578-9.77c-2.778-.065-5.322.77-7.983,1.265a8.324,8.324,0,0,0-5.935,4.265c-1.6,2.687-1.735,5.635-1.761,8.622,0,.443-.339,1.044.2,1.317.5.248,1.017-.039,1.487-.313,2.309-1.3,3.365-3.457,4.044-5.883.443-1.591.77-1.67,2.087-.652.235.183.5.352.757.522,3.209,2,6.835,2.57,10.487,2.974,2.217.248,4.748-.248,5.7,2.687a.785.785,0,0,0,.274.274c.313.235.613.574,1.043.43.47-.156.391-.626.4-1.017.013-.522,0-1.043,0-1.578M31.477,346.52c3,.2,5.217-.535,6.744-2.922,1.4-2.165,3.144-4.109,4.1-6.548a2.508,2.508,0,0,1,.848-1.148c1.591-1.07,1.8-2.674,1.917-4.37a1.871,1.871,0,0,0-1.291-2.139,4.4,4.4,0,0,1-2.557-2.152c-.326-.7-.8-.783-1.448-.822-4.617-.3-9.274-.5-13.409-3-.587-.352-1.135-.352-1.422.5a8.1,8.1,0,0,1-6,5.661,1.067,1.067,0,0,0-.939,1.187c0,1.852.274,3.574,1.839,4.826a3.818,3.818,0,0,1,1.07,1.487,41.761,41.761,0,0,0,3.144,5.439c1.8,2.922,4.213,4.5,7.409,4M21.668,371.8c0,1.357-.052,2.713.013,4.07.039.848-.313,1.252-1.083,1.33a14.18,14.18,0,0,1-1.97.013c-.483-.013-.913-.209-.9-.756a.81.81,0,0,1,.939-.874c1.513.209,1.487-.7,1.409-1.748-.183-2.361.2-4.735-.261-7.083a5.925,5.925,0,0,0-4.891-4.826c-3.8-.548-6.274,2.752-6.365,5.765-.078,2.361.143,4.735-.157,7.1-.065.522.13.861.717.822a3.921,3.921,0,0,1,.783,0c.43.1.913.339.939.809.026.561-.548.639-.952.717a4.7,4.7,0,0,1-2.087-.026c-.5-.13-.913-.352-.887-.965.143-3.274-.274-6.574.222-9.835a7.184,7.184,0,0,1,5.27-5.948,2.475,2.475,0,0,0,1.317-3.078.593.593,0,0,0-.9-.209c-2.178,1.2-4.513,2.113-6.626,3.457-2.544,1.6-3.339,3.939-3.457,6.77-.13,3.052-.5,6.1-.743,9.157-.039.43-.091.835-.652.743a1.032,1.032,0,0,1-.965-1.187c.091-1.526.157-3.065.274-4.591.13-1.657.443-3.313.43-4.957-.039-3.587,1.826-5.883,4.722-7.631a46.736,46.736,0,0,1,7.357-3.47,11.458,11.458,0,0,0,3.6-2.087,8.67,8.67,0,0,1,5.557-2.4c.665-.013.952-.274.939-.952-.026-1.539,0-3.065-.013-4.6a3.632,3.632,0,0,0-.978-2.257,17.928,17.928,0,0,1-2.413-4.057,6.419,6.419,0,0,0-1.317-2.1,7.11,7.11,0,0,1-2.087-6.261c.313-2.752.078-5.517.47-8.257.574-4.03,2.1-7.683,5.987-9.274,5.257-2.152,10.813-3.561,16.422-1.187,4.33,1.839,6.548,5.361,6.874,10.057.209,3.013.078,6.026.443,9.039a6.268,6.268,0,0,1-1.813,5.544,9.655,9.655,0,0,0-1.852,2.7,6.345,6.345,0,0,1-.835,1.487c-2.309,2.5-2.517,5.531-2.309,8.7.052.861.183,1.344,1.213,1.448a8.622,8.622,0,0,1,5.009,2.4,7.8,7.8,0,0,0,3.183,1.748,36.384,36.384,0,0,1,8.674,4.017c2.765,1.709,3.874,4.252,4.083,7.37.2,3.052.483,6.1.73,9.157a2.679,2.679,0,0,1-.013.913.964.964,0,0,1-1.03.652c-.417,0-.522-.391-.561-.77-.157-2.009-.313-4-.5-6.013-.17-1.917-.274-3.848-.574-5.739-.352-2.217-2.126-3.391-3.861-4.4-1.957-1.148-4.057-2.074-6.091-3.065a4.673,4.673,0,0,0-1.135-.287c-.457-.091-.757.091-.522.561,1.226,2.465.9,5.139,1.057,7.748a2.878,2.878,0,0,0,1.578,2.622,3.954,3.954,0,0,1,.939,5.674,4.24,4.24,0,0,1-5.557.77c-1.761-1.33-2.27-4.057-.939-5.6a8.628,8.628,0,0,1,1.93-1.344c.378-.248.743-.47.691-1.017a52.473,52.473,0,0,0-1.161-8.3,3.652,3.652,0,0,0-3.144-3.065.9.9,0,0,1-.378-.091c-3.117-1.813-5.857-.678-8.531,1.1a10.58,10.58,0,0,0-1.591.926c-1.37,1.317-2.635.965-4.057.039-1.5-.978-3.144-1.735-4.7-2.635a3.048,3.048,0,0,0-2.765-.183c-1.278.47-2.583.835-3.848,1.317a4.177,4.177,0,0,0-2.844,4.044c0,.5.1.809.691.913a7.487,7.487,0,0,1,5.765,7.5v3.939h.091" transform="translate(-0.358 96.911)" fill="#0c9cd8"/>
      <path id="Caminho_7231" data-name="Caminho 7231" d="M48.759,368.577a2.406,2.406,0,1,0,.391,4.787,2.293,2.293,0,0,0,2.152-2.257A2.692,2.692,0,0,0,48.759,368.577Zm-23.9-19.252v2.2a1.356,1.356,0,0,0,.809,1.383,48.772,48.772,0,0,1,5.113,2.674,1.462,1.462,0,0,0,1.6,0,25.518,25.518,0,0,1,3.783-2.074c1.774-.626,2.152-1.97,2.374-3.522.157-1.017-.391-1.943-.339-2.961.026-.535-.509-.326-.8-.156-2.9,1.787-6.091,1.161-9.209,1.174a4.709,4.709,0,0,1-1-.248c-.8-.183-1.526-1.33-2.165-.861s.013,1.63-.17,2.374ZM44.82,325.363h.052c-.1-1.043-.209-2.087-.3-3.13a10.452,10.452,0,0,0-10.578-9.77c-2.778-.065-5.322.77-7.983,1.265a8.324,8.324,0,0,0-5.935,4.265c-1.6,2.687-1.735,5.635-1.761,8.622,0,.443-.339,1.044.2,1.317.5.248,1.017-.039,1.487-.313,2.309-1.3,3.365-3.457,4.044-5.883.443-1.591.77-1.67,2.087-.652.235.183.5.352.757.522,3.209,2,6.835,2.57,10.487,2.974,2.217.248,4.748-.248,5.7,2.687a.785.785,0,0,0,.274.274c.313.235.613.574,1.043.43.47-.156.391-.626.4-1.017.013-.522,0-1.043,0-1.578ZM31.477,346.52c3,.2,5.217-.535,6.744-2.922,1.4-2.165,3.144-4.109,4.1-6.548a2.508,2.508,0,0,1,.848-1.148c1.591-1.07,1.8-2.674,1.917-4.37a1.871,1.871,0,0,0-1.291-2.139,4.4,4.4,0,0,1-2.557-2.152c-.326-.7-.8-.783-1.448-.822-4.617-.3-9.274-.5-13.409-3-.587-.352-1.135-.352-1.422.5a8.1,8.1,0,0,1-6,5.661,1.067,1.067,0,0,0-.939,1.187c0,1.852.274,3.574,1.839,4.826a3.818,3.818,0,0,1,1.07,1.487,41.761,41.761,0,0,0,3.144,5.439c1.8,2.922,4.213,4.5,7.409,4ZM21.668,371.8c0,1.357-.052,2.713.013,4.07.039.848-.313,1.252-1.083,1.33a14.18,14.18,0,0,1-1.97.013c-.483-.013-.913-.209-.9-.756a.81.81,0,0,1,.939-.874c1.513.209,1.487-.7,1.409-1.748-.183-2.361.2-4.735-.261-7.083a5.925,5.925,0,0,0-4.891-4.826c-3.8-.548-6.274,2.752-6.365,5.765-.078,2.361.143,4.735-.157,7.1-.065.522.13.861.717.822a3.921,3.921,0,0,1,.783,0c.43.1.913.339.939.809.026.561-.548.639-.952.717a4.7,4.7,0,0,1-2.087-.026c-.5-.13-.913-.352-.887-.965.143-3.274-.274-6.574.222-9.835a7.184,7.184,0,0,1,5.27-5.948,2.475,2.475,0,0,0,1.317-3.078.593.593,0,0,0-.9-.209c-2.178,1.2-4.513,2.113-6.626,3.457-2.544,1.6-3.339,3.939-3.457,6.77-.13,3.052-.5,6.1-.743,9.157-.039.43-.091.835-.652.743a1.032,1.032,0,0,1-.965-1.187c.091-1.526.157-3.065.274-4.591.13-1.657.443-3.313.43-4.957-.039-3.587,1.826-5.883,4.722-7.631a46.736,46.736,0,0,1,7.357-3.47,11.458,11.458,0,0,0,3.6-2.087,8.67,8.67,0,0,1,5.557-2.4c.665-.013.952-.274.939-.952-.026-1.539,0-3.065-.013-4.6a3.632,3.632,0,0,0-.978-2.257,17.928,17.928,0,0,1-2.413-4.057,6.419,6.419,0,0,0-1.317-2.1,7.11,7.11,0,0,1-2.087-6.261c.313-2.752.078-5.517.47-8.257.574-4.03,2.1-7.683,5.987-9.274,5.257-2.152,10.813-3.561,16.422-1.187,4.33,1.839,6.548,5.361,6.874,10.057.209,3.013.078,6.026.443,9.039a6.268,6.268,0,0,1-1.813,5.544,9.655,9.655,0,0,0-1.852,2.7,6.345,6.345,0,0,1-.835,1.487c-2.309,2.5-2.517,5.531-2.309,8.7.052.861.183,1.344,1.213,1.448a8.622,8.622,0,0,1,5.009,2.4,7.8,7.8,0,0,0,3.183,1.748,36.384,36.384,0,0,1,8.674,4.017c2.765,1.709,3.874,4.252,4.083,7.37.2,3.052.483,6.1.73,9.157a2.679,2.679,0,0,1-.013.913.964.964,0,0,1-1.03.652c-.417,0-.522-.391-.561-.77-.157-2.009-.313-4-.5-6.013-.17-1.917-.274-3.848-.574-5.739-.352-2.217-2.126-3.391-3.861-4.4-1.957-1.148-4.057-2.074-6.091-3.065a4.673,4.673,0,0,0-1.135-.287c-.457-.091-.757.091-.522.561,1.226,2.465.9,5.139,1.057,7.748a2.878,2.878,0,0,0,1.578,2.622,3.954,3.954,0,0,1,.939,5.674,4.24,4.24,0,0,1-5.557.77c-1.761-1.33-2.27-4.057-.939-5.6a8.628,8.628,0,0,1,1.93-1.344c.378-.248.743-.47.691-1.017a52.473,52.473,0,0,0-1.161-8.3,3.652,3.652,0,0,0-3.144-3.065.9.9,0,0,1-.378-.091c-3.117-1.813-5.857-.678-8.531,1.1a10.58,10.58,0,0,0-1.591.926c-1.37,1.317-2.635.965-4.057.039-1.5-.978-3.144-1.735-4.7-2.635a3.048,3.048,0,0,0-2.765-.183c-1.278.47-2.583.835-3.848,1.317a4.177,4.177,0,0,0-2.844,4.044c0,.5.1.809.691.913a7.487,7.487,0,0,1,5.765,7.5v3.939h.091Z" transform="translate(-0.358 96.911)" fill="none" stroke="#0c9cd8" stroke-miterlimit="10" stroke-width="0.75"/>
      <line id="Linha_120" data-name="Linha 120" x1="308.43" transform="translate(0.231 330.199)" fill="none" stroke="#8a8c8e" stroke-width="1"/>
      <text id="PACIENTES_CIRÚRGICOS" data-name="PACIENTES CIRÚRGICOS" transform="translate(0.022 179.389)" fill="#20819e" font-size="15" font-family="Montserrat-ExtraBold, Montserrat" font-weight="800"><tspan x="0" y="0">PACIENTES CIRÚRGICOS</tspan></text>
      <text id="_246_0" data-name="246,0" transform="translate(221.49 100.375)" fill="#00b093" font-size="33" font-family="Montserrat-Bold, Montserrat" font-weight="700"><tspan x="0" y="0" letter-spacing="-0.02em">2</tspan><tspan y="0" letter-spacing="-0.03em">4</tspan><tspan y="0" letter-spacing="-0.02em">6</tspan><tspan y="0" letter-spacing="-0.03em">,</tspan><tspan y="0">0</tspan></text>
      <text id="mil-3" data-name="mil" transform="translate(221.49 135.579)" fill="#00b093" font-size="33" font-family="Montserrat-Bold, Montserrat" font-weight="700"><tspan x="0" y="0" letter-spacing="-0.03em">m</tspan><tspan y="0" letter-spacing="-0.02em">i</tspan><tspan y="0">l</tspan></text>
      <path id="Caminho_7232" data-name="Caminho 7232" d="M159.291,92.418V93.9q0,13.774,0,27.535a6.109,6.109,0,0,1-11.909,1.852,8.893,8.893,0,0,1-.352-2.622c-.026-9.991-.013-19.983-.013-29.974V89.222h-3.483v32.022a6.137,6.137,0,0,1-9.339,5.309,6.045,6.045,0,0,1-2.935-5.57V92.535a15.265,15.265,0,0,1-2.687-.026,5.057,5.057,0,0,1-4.252-5.074c-.052-6.965-.026-13.944-.013-20.909a1.768,1.768,0,0,1,1.787-2c1.03.026,1.683.783,1.683,2.074V86.47c0,1.8.535,2.635,1.709,2.674,1.2.039,1.774-.822,1.774-2.687V60.435a6.944,6.944,0,0,1,.052-1.278,1.6,1.6,0,0,1,1.8-1.448,1.573,1.573,0,0,1,1.6,1.643c.026.43.013.848.013,1.278v59.714a9.472,9.472,0,0,0,.078,1.5,2.63,2.63,0,0,0,5.2-.248c.039-.417.026-.848.026-1.278V88.257c0-2.113.5-2.609,2.583-2.609h5.57c1.722,0,2.3.561,2.3,2.3v32.531a5.871,5.871,0,0,0,.2,1.722,2.566,2.566,0,0,0,2.791,1.774,2.626,2.626,0,0,0,2.309-2.387c.039-.43.013-.848.013-1.278V60.357c0-1.878.548-2.7,1.787-2.674,1.187.026,1.7.835,1.7,2.648V86.939c0,1.343.443,2.009,1.435,2.178a1.717,1.717,0,0,0,2.048-1.9c.013-2.791,0-5.57,0-8.361V59.913c0-3.744-2.087-5.857-5.791-5.857H133.5c-3.365,0-5.348,1.761-5.765,5.087-.157,1.265-.887,1.97-1.9,1.865s-1.63-.965-1.552-2.2a8.676,8.676,0,0,1,8.622-8.217q12.365-.059,24.744,0a8.592,8.592,0,0,1,8.583,8.6q.078,14.107,0,28.226c0,3.613-2.817,5.648-6.965,5.022" transform="translate(37.351 17.736)" fill="#00b093"/>
      <path id="Caminho_7233" data-name="Caminho 7233" d="M143.241,29.18a12.2,12.2,0,1,1-12.261,12.1,12.256,12.256,0,0,1,12.261-12.1M134.463,41.3a8.64,8.64,0,1,0,0-.013" transform="translate(39.392 11.229)" fill="#00b093"/>
      <text id="_229_7" data-name="229,7" transform="translate(60.323 100.375)" fill="#0c9cd8" font-size="33" font-family="Montserrat-Bold, Montserrat" font-weight="700"><tspan x="0" y="0" letter-spacing="-0.02em">229,</tspan><tspan y="0">7</tspan></text>
      <text id="mil-4" data-name="mil" transform="translate(60.323 135.579)" fill="#0c9cd8" font-size="33" font-family="Montserrat-Bold, Montserrat" font-weight="700"><tspan x="0" y="0" letter-spacing="-0.03em">m</tspan><tspan y="0" letter-spacing="-0.02em">i</tspan><tspan y="0">l</tspan></text>
      <path id="Caminho_7234" data-name="Caminho 7234" d="M35.411,92.418V93.9q0,13.774,0,27.535A6.109,6.109,0,0,1,23.5,123.292a8.893,8.893,0,0,1-.352-2.622c-.026-9.991-.013-19.983-.013-29.974V89.222H19.654v32.022a5.887,5.887,0,0,1-3.157,5.439,5.841,5.841,0,0,1-6.183-.13,6.045,6.045,0,0,1-2.935-5.57V92.535a15.265,15.265,0,0,1-2.687-.026A5.057,5.057,0,0,1,.441,87.435C.389,80.47.415,73.491.428,66.526a1.768,1.768,0,0,1,1.787-2c1.03.026,1.683.783,1.683,2.074V86.47c0,1.8.535,2.635,1.709,2.674,1.2.039,1.774-.822,1.774-2.687V60.435a6.944,6.944,0,0,1,.052-1.278,1.6,1.6,0,0,1,1.8-1.448,1.573,1.573,0,0,1,1.6,1.643c.026.43.013.848.013,1.278v59.714a9.472,9.472,0,0,0,.078,1.5,2.63,2.63,0,0,0,5.2-.248c.039-.417.026-.848.026-1.278V88.257c0-2.113.5-2.609,2.583-2.609h5.57c1.722,0,2.3.561,2.3,2.3v32.531a5.871,5.871,0,0,0,.2,1.722,2.566,2.566,0,0,0,2.791,1.774,2.626,2.626,0,0,0,2.309-2.387c.039-.43.013-.848.013-1.278V60.357c0-1.878.548-2.7,1.787-2.674,1.187.026,1.7.835,1.7,2.648V86.939c0,1.343.443,2.009,1.435,2.178a1.717,1.717,0,0,0,2.048-1.9c.013-2.791,0-5.57,0-8.361V59.913c0-3.744-2.087-5.857-5.791-5.857H9.623c-3.365,0-5.348,1.761-5.765,5.087-.157,1.265-.887,1.97-1.9,1.865S.323,60.043.4,58.8a8.676,8.676,0,0,1,8.622-8.217q12.365-.059,24.744,0a8.592,8.592,0,0,1,8.583,8.6q.078,14.107,0,28.226c0,3.613-2.817,5.648-6.965,5.022" transform="translate(-0.353 17.736)" fill="#0c9cd8"/>
      <path id="Caminho_7235" data-name="Caminho 7235" d="M19.361,29.18A12.2,12.2,0,1,1,7.1,41.285a12.256,12.256,0,0,1,12.261-12.1M10.583,41.3a8.63,8.63,0,1,0,0-.013" transform="translate(1.688 11.229)" fill="#0c9cd8"/>
      <text id="_13_0" data-name="13,0" transform="translate(221.49 264.764)" fill="#00b093" font-size="33" font-family="Montserrat-Bold, Montserrat" font-weight="700"><tspan x="0" y="0" letter-spacing="-0.02em">13</tspan><tspan y="0" letter-spacing="-0.03em">,</tspan><tspan y="0">0</tspan></text>
      <text id="mil-5" data-name="mil" transform="translate(221.49 299.981)" fill="#00b093" font-size="33" font-family="Montserrat-Bold, Montserrat" font-weight="700"><tspan x="0" y="0" letter-spacing="-0.03em">m</tspan><tspan y="0" letter-spacing="-0.02em">i</tspan><tspan y="0">l</tspan></text>
      <text id="_41_9" data-name="41,9" transform="translate(60.323 264.764)" fill="#0c9cd8" font-size="33" font-family="Montserrat-Bold, Montserrat" font-weight="700"><tspan x="0" y="0" letter-spacing="-0.03em">4</tspan><tspan y="0" letter-spacing="-0.02em">1,</tspan><tspan y="0">9</tspan></text>
      <text id="mil-6" data-name="mil" transform="translate(60.323 299.981)" fill="#0c9cd8" font-size="33" font-family="Montserrat-Bold, Montserrat" font-weight="700"><tspan x="0" y="0" letter-spacing="-0.03em">m</tspan><tspan y="0" letter-spacing="-0.02em">i</tspan><tspan y="0">l</tspan></text>
      <path id="Caminho_7236" data-name="Caminho 7236" d="M35.411,218.445v1.487q0,13.774,0,27.535A6.109,6.109,0,0,1,23.5,249.319a8.893,8.893,0,0,1-.352-2.622c-.026-9.991-.013-19.983-.013-29.974v-1.474H19.654v32.022A5.887,5.887,0,0,1,16.5,252.71a5.841,5.841,0,0,1-6.183-.13,6.045,6.045,0,0,1-2.935-5.57V218.562a15.264,15.264,0,0,1-2.687-.026,5.057,5.057,0,0,1-4.252-5.074C.389,206.5.415,199.518.428,192.553a1.768,1.768,0,0,1,1.787-2c1.03.026,1.683.783,1.683,2.074V212.5c0,1.8.535,2.635,1.709,2.674,1.2.039,1.774-.822,1.774-2.687V186.462a6.944,6.944,0,0,1,.052-1.278,1.6,1.6,0,0,1,1.8-1.448,1.573,1.573,0,0,1,1.6,1.643c.026.43.013.848.013,1.278v59.714a9.472,9.472,0,0,0,.078,1.5,2.63,2.63,0,0,0,5.2-.248c.039-.417.026-.848.026-1.278V214.284c0-2.113.5-2.609,2.583-2.609h5.57c1.722,0,2.3.561,2.3,2.3V246.5a5.871,5.871,0,0,0,.2,1.722A2.566,2.566,0,0,0,29.593,250,2.626,2.626,0,0,0,31.9,247.61c.039-.43.013-.848.013-1.278V186.383c0-1.878.548-2.7,1.787-2.674,1.187.026,1.7.835,1.7,2.648v26.609c0,1.343.443,2.009,1.435,2.178a1.714,1.714,0,0,0,2.048-1.891c.013-2.791,0-5.57,0-8.361V185.953c0-3.744-2.087-5.857-5.791-5.857H9.623c-3.365,0-5.348,1.761-5.765,5.087-.157,1.265-.887,1.97-1.9,1.865s-1.63-.965-1.552-2.2a8.666,8.666,0,0,1,8.622-8.217q12.365-.059,24.744,0a8.592,8.592,0,0,1,8.583,8.6q.078,14.107,0,28.226c0,3.613-2.817,5.648-6.965,5.022" transform="translate(-0.353 56.098)" fill="#0c9cd8"/>
      <path id="Caminho_7237" data-name="Caminho 7237" d="M19.361,155.21A12.2,12.2,0,1,1,7.1,167.315a12.256,12.256,0,0,1,12.261-12.1m-8.778,12.118a8.63,8.63,0,1,0,0-.013" transform="translate(1.688 49.588)" fill="#0c9cd8"/>
      <path id="Caminho_7238" data-name="Caminho 7238" d="M159.291,218.445v1.487q0,13.774,0,27.535a6.109,6.109,0,0,1-11.909,1.852,8.893,8.893,0,0,1-.352-2.622c-.026-9.991-.013-19.983-.013-29.974v-1.474h-3.483v32.022a6.137,6.137,0,0,1-9.339,5.309,6.045,6.045,0,0,1-2.935-5.57V218.562a15.264,15.264,0,0,1-2.687-.026,5.057,5.057,0,0,1-4.252-5.074c-.052-6.965-.026-13.944-.013-20.909a1.768,1.768,0,0,1,1.787-2c1.03.026,1.683.783,1.683,2.074V212.5c0,1.8.535,2.635,1.709,2.674,1.2.039,1.774-.822,1.774-2.687V186.462a6.944,6.944,0,0,1,.052-1.278,1.6,1.6,0,0,1,1.8-1.448,1.573,1.573,0,0,1,1.6,1.643c.026.43.013.848.013,1.278v59.714a9.472,9.472,0,0,0,.078,1.5,2.63,2.63,0,0,0,5.2-.248c.039-.417.026-.848.026-1.278V214.284c0-2.113.5-2.609,2.583-2.609h5.57c1.722,0,2.3.561,2.3,2.3V246.5a5.871,5.871,0,0,0,.2,1.722A2.566,2.566,0,0,0,153.473,250a2.626,2.626,0,0,0,2.309-2.387c.039-.43.013-.848.013-1.278V186.383c0-1.878.548-2.7,1.787-2.674,1.187.026,1.7.835,1.7,2.648v26.609c0,1.343.443,2.009,1.435,2.178a1.714,1.714,0,0,0,2.048-1.891c.013-2.791,0-5.57,0-8.361V185.953c0-3.744-2.087-5.857-5.791-5.857H133.5c-3.365,0-5.348,1.761-5.765,5.087-.157,1.265-.887,1.97-1.9,1.865s-1.63-.965-1.552-2.2a8.666,8.666,0,0,1,8.622-8.217q12.365-.059,24.744,0a8.592,8.592,0,0,1,8.583,8.6q.078,14.107,0,28.226c0,3.613-2.817,5.648-6.965,5.022" transform="translate(37.351 56.098)" fill="#00b093"/>
      <path id="Caminho_7239" data-name="Caminho 7239" d="M143.241,155.21a12.2,12.2,0,1,1-12.261,12.1,12.256,12.256,0,0,1,12.261-12.1m-8.778,12.118a8.64,8.64,0,1,0,0-.013" transform="translate(39.392 49.588)" fill="#00b093"/>
      <text id="_464_6" data-name="464,6" transform="translate(67.066 575.984)" fill="#0c9cd8" font-size="33" font-family="Montserrat-Bold, Montserrat" font-weight="700" letter-spacing="-0.03em"><tspan x="0" y="0">4</tspan><tspan y="0" letter-spacing="-0.02em">6</tspan><tspan y="0">4</tspan><tspan y="0" letter-spacing="-0.02em">,6</tspan></text>
      <text id="mil-7" data-name="mil" transform="translate(67.066 611.189)" fill="#0c9cd8" font-size="33" font-family="Montserrat-Bold, Montserrat" font-weight="700"><tspan x="0" y="0" letter-spacing="-0.03em">m</tspan><tspan y="0" letter-spacing="-0.02em">i</tspan><tspan y="0">l</tspan></text>
      <text id="_86_6" data-name="86,6" transform="translate(253.695 573.911)" fill="#00b093" font-size="33" font-family="Montserrat-Bold, Montserrat" font-weight="700" letter-spacing="-0.02em"><tspan x="0" y="0">8</tspan><tspan y="0" letter-spacing="-0.03em">6</tspan><tspan y="0">,6</tspan></text>
      <text id="mil-8" data-name="mil" transform="translate(253.695 609.115)" fill="#00b093" font-size="33" font-family="Montserrat-Bold, Montserrat" font-weight="700"><tspan x="0" y="0" letter-spacing="-0.03em">m</tspan><tspan y="0" letter-spacing="-0.02em">i</tspan><tspan y="0">l</tspan></text>
      <path id="Caminho_7240" data-name="Caminho 7240" d="M58.26,462.476c0-1.97-.157-3.391-.965-3.913a1.968,1.968,0,0,1-.235-.117,5.769,5.769,0,0,0,.822-.378c.7-.483.978-1.7.978-4.344s-.274-3.861-1.017-4.37a5.1,5.1,0,0,0-.665-.313h0c.665-.457.926-1.591.926-4.057s-.261-3.613-.965-4.083a4.753,4.753,0,0,0-2.426-.665,4.3,4.3,0,0,0-1.813.391V417.254a3.883,3.883,0,0,0-3.874-3.874H18.907a3.883,3.883,0,0,0-3.874,3.874V436.9a55.35,55.35,0,0,0-8.739,13.709c-4.5,9.6.561,23.413,1.409,25.6L.437,490.376a.64.64,0,0,0,.287.874.774.774,0,0,0,.3.065.67.67,0,0,0,.587-.352l7.383-14.426a.668.668,0,0,0,.026-.548c-.065-.143-6.1-15.144-1.552-24.848,4.422-9.418,8.974-13.983,10.422-15.287a7.182,7.182,0,0,1,1.226,6.052,18.305,18.305,0,0,1-3.73,7.526.61.61,0,0,0-.17.443v9.144a.616.616,0,0,0,.326.561c.117.065,10.983,6.535,10.983,26.152a.663.663,0,0,0,.652.652.654.654,0,0,0,.652-.652c0-.574,0-1.148-.026-1.709h3.678L28.52,490.39a.659.659,0,0,0,.326.861.7.7,0,0,0,.274.065.671.671,0,0,0,.587-.378l3.209-6.913H49.064a3.874,3.874,0,0,0,3.874-3.874V474.7a4.481,4.481,0,0,0,1.474.261,4.925,4.925,0,0,0,2.439-.652c.783-.509.939-1.93.939-3.887s-.157-3.261-.887-3.835c.157-.065.3-.143.457-.222.757-.522.913-1.93.913-3.913h0Zm-1.083-5.517a3.862,3.862,0,0,1-1.944.535c-2.361,0-3.183-2.022-3.183-3.77s.835-3.77,3.183-3.77a3.931,3.931,0,0,1,1.891.5c.091.091.417.574.417,3.261s-.313,3.17-.365,3.235m-.743-14.961c.091.091.378.561.378,3s-.287,2.909-.313,2.961a3.626,3.626,0,0,1-1.774.483c-2.152,0-2.909-1.865-2.909-3.444s.77-3.444,2.909-3.444a3.4,3.4,0,0,1,1.722.457m-36.079.222a8.469,8.469,0,0,0-1.943-7.735.653.653,0,0,0-.848-.052,15.649,15.649,0,0,0-1.239,1.1V417.241a2.566,2.566,0,0,1,2.57-2.57H49.038a2.566,2.566,0,0,1,2.57,2.57v24.379a5.112,5.112,0,0,0-1.1,3.365,4.543,4.543,0,0,0,2.387,4.344,3.9,3.9,0,0,0-.991.861c-3.183-1.943-10.083-3.6-11.244-3.861l-.887-.757v-2.087a.609.609,0,0,0-.039-.222,14.629,14.629,0,0,0,3.444-6.013,2.941,2.941,0,0,0,1.852-3.078,4.169,4.169,0,0,0-.4-1.774,9.214,9.214,0,0,0,.9-3.822A8.995,8.995,0,0,0,42.5,421.7c-3.6-3.17-7.774-3.861-12.391-2.035a5.06,5.06,0,0,0-4.252.965,8.55,8.55,0,0,0-3.691,7.578,11.223,11.223,0,0,0,.848,3.965,4.156,4.156,0,0,0-.509,2,2.941,2.941,0,0,0,1.852,3.078,14.629,14.629,0,0,0,3.444,6.013.609.609,0,0,0-.039.222v2.087l-.887.756a51.141,51.141,0,0,0-9.835,3.117,20.126,20.126,0,0,0,3.339-7.213M33.764,455.85a125,125,0,0,1,1.813,19.657H31.951a126.811,126.811,0,0,1,1.813-19.657m0-2.517-1.513-2.583a7.257,7.257,0,0,1,1.513-1,7.257,7.257,0,0,1,1.513,1ZM23.472,428.211A7.333,7.333,0,0,1,26.6,421.7a3.644,3.644,0,0,1,3.261-.77.58.58,0,0,0,.509,0c4.213-1.722,8.009-1.148,11.27,1.722A7.7,7.7,0,0,1,43.7,431.2a1.488,1.488,0,0,0-.626-.274h-.065a.7.7,0,0,0-.326.065,6.2,6.2,0,0,0-5.517-5.661,6.542,6.542,0,0,0-5.5,1.448c-1.448,1-2.83,1.943-6.2,1.135a.679.679,0,0,0-.548.117.618.618,0,0,0-.248.5,19.612,19.612,0,0,0,.091,2.439h-.026a.538.538,0,0,0-.287-.013,1.624,1.624,0,0,0-.457.17,9.4,9.4,0,0,1-.535-2.9m1.135,4.044c.939.235,1.226-.013,1.357-.117a.793.793,0,0,0,.235-.73A12.59,12.59,0,0,1,26,429.358a7.378,7.378,0,0,0,6.431-1.5A5.406,5.406,0,0,1,37,426.619a5.047,5.047,0,0,1,4.474,5.374.654.654,0,0,0,.287.587.674.674,0,0,0,.665.039l.613-.313a2.57,2.57,0,0,1,.717,1.852c0,1.683-1.017,1.865-1.083,1.878a.642.642,0,0,0-.626.483c-1.07,4.083-4.252,8.2-8.244,8.2s-7.174-4.135-8.244-8.2a.6.6,0,0,0-.587-.483c-.117-.013-1.122-.2-1.122-1.878a2.419,2.419,0,0,1,.757-1.891m13.865,13.2c-.143.143-.313.287-.483.457-1.109,1.043-2.622,2.478-4.213,2.478s-3.1-1.435-4.213-2.478c-.17-.17-.326-.313-.483-.457v-1.109a7.393,7.393,0,0,0,9.391,0v1.109Zm-10,1.213c.065.065.13.117.2.183A11.983,11.983,0,0,0,32,449.315a15.424,15.424,0,0,0-2.739,2.726,14.61,14.61,0,0,1-1.422-4.839l.626-.522Zm7.083,2.622a12.18,12.18,0,0,0,3.339-2.452c.065-.065.13-.117.2-.183l.626.522a14.4,14.4,0,0,1-1.422,4.839,14.594,14.594,0,0,0-2.739-2.726M25.52,461.133a1.8,1.8,0,0,1-3.6,0,1.8,1.8,0,1,1,3.6,0m-9.026-2.491V451.22a26.147,26.147,0,0,1,6.561-2.6v9.5a3.1,3.1,0,1,0,1.3,0v-9.848c.9-.235,1.683-.43,2.217-.561a18.171,18.171,0,0,0,2.009,5.87.632.632,0,0,0,.535.326h.026a.623.623,0,0,0,.535-.287,17.634,17.634,0,0,1,1.591-1.957l1.461,2.491a127.133,127.133,0,0,0-2.1,21.326H26.707c-2.5-11.165-8.7-15.848-10.226-16.852h0ZM49.025,482.72H27.712a45.719,45.719,0,0,0-.717-5.922H51.608v3.339a2.577,2.577,0,0,1-2.583,2.57m2.583-7.2H36.881a127.175,127.175,0,0,0-2.1-21.339l1.461-2.491a17.633,17.633,0,0,1,1.591,1.957.64.64,0,0,0,.535.287h.026a.643.643,0,0,0,.535-.326,17.972,17.972,0,0,0,2.009-5.87c.574.143,1.448.365,2.452.639l-.183,4.957c-4.93,2.309-5.478,5.752-5.648,10.344a.806.806,0,0,0,.091.561c.235.4.757.6,1.748.665a.945.945,0,0,0,.639.5h.13a.667.667,0,0,0,.639-.522.642.642,0,0,0-.261-.652.661.661,0,0,0,.3-.678.644.644,0,0,0-.757-.522,1.079,1.079,0,0,0-.7.561,2.888,2.888,0,0,1-.522-.065c.17-4.3.678-7.109,5.022-9.078,4.187,2.257,4.5,5.087,4.344,9.4a3.873,3.873,0,0,1-.522.039,1.051,1.051,0,0,0-.665-.613.63.63,0,0,0-.783.47.929.929,0,0,1-.065,1.33.646.646,0,0,0,.639.561h.091a1.048,1.048,0,0,0,.678-.457h.078c.939,0,1.461-.17,1.722-.548a.89.89,0,0,0,.143-.548c.17-4.63-.143-8.139-5.022-10.787l.17-4.552a30.2,30.2,0,0,1,6.535,2.57,6.158,6.158,0,0,0-.483,2.439,4.891,4.891,0,0,0,2.387,4.552,4.293,4.293,0,0,0-2.439,4.187,4.47,4.47,0,0,0,1.787,3.835A4.32,4.32,0,0,0,50.2,470.42a4.587,4.587,0,0,0,1.409,3.522v1.578h.013Zm4.539-2.309a3.575,3.575,0,0,1-1.774.47c-2.126,0-2.883-1.748-2.883-3.235s.757-3.235,2.883-3.235a3.7,3.7,0,0,1,1.722.43c.091.078.352.522.352,2.817,0,2.27-.274,2.726-.3,2.765m.509-7.957a3.575,3.575,0,0,1-1.774.47c-2.126,0-2.883-1.748-2.883-3.235s.757-3.235,2.883-3.235a3.7,3.7,0,0,1,1.722.43c.091.078.352.522.352,2.817s-.274,2.713-.3,2.765" transform="translate(-0.363 128.165)" fill="#0c9cd8"/>
      <path id="Caminho_7241" data-name="Caminho 7241" d="M58.26,462.476c0-1.97-.157-3.391-.965-3.913a1.968,1.968,0,0,1-.235-.117,5.769,5.769,0,0,0,.822-.378c.7-.483.978-1.7.978-4.344s-.274-3.861-1.017-4.37a5.1,5.1,0,0,0-.665-.313h0c.665-.457.926-1.591.926-4.057s-.261-3.613-.965-4.083a4.753,4.753,0,0,0-2.426-.665,4.3,4.3,0,0,0-1.813.391V417.254a3.883,3.883,0,0,0-3.874-3.874H18.907a3.883,3.883,0,0,0-3.874,3.874V436.9a55.35,55.35,0,0,0-8.739,13.709c-4.5,9.6.561,23.413,1.409,25.6L.437,490.376a.64.64,0,0,0,.287.874.774.774,0,0,0,.3.065.67.67,0,0,0,.587-.352l7.383-14.426a.668.668,0,0,0,.026-.548c-.065-.143-6.1-15.144-1.552-24.848,4.422-9.418,8.974-13.983,10.422-15.287a7.182,7.182,0,0,1,1.226,6.052,18.305,18.305,0,0,1-3.73,7.526.61.61,0,0,0-.17.443v9.144a.616.616,0,0,0,.326.561c.117.065,10.983,6.535,10.983,26.152a.663.663,0,0,0,.652.652.654.654,0,0,0,.652-.652c0-.574,0-1.148-.026-1.709h3.678L28.52,490.39a.659.659,0,0,0,.326.861.7.7,0,0,0,.274.065.671.671,0,0,0,.587-.378l3.209-6.913H49.064a3.874,3.874,0,0,0,3.874-3.874V474.7a4.481,4.481,0,0,0,1.474.261,4.925,4.925,0,0,0,2.439-.652c.783-.509.939-1.93.939-3.887s-.157-3.261-.887-3.835c.157-.065.3-.143.457-.222.757-.522.913-1.93.913-3.913h0Zm-1.083-5.517a3.862,3.862,0,0,1-1.944.535c-2.361,0-3.183-2.022-3.183-3.77s.835-3.77,3.183-3.77a3.931,3.931,0,0,1,1.891.5c.091.091.417.574.417,3.261s-.313,3.17-.365,3.235Zm-.743-14.974c.091.091.378.561.378,3s-.287,2.909-.313,2.961a3.626,3.626,0,0,1-1.774.483c-2.152,0-2.909-1.865-2.909-3.444s.77-3.444,2.909-3.444a3.4,3.4,0,0,1,1.722.457Zm-36.066.235a8.469,8.469,0,0,0-1.943-7.735.653.653,0,0,0-.848-.052,15.649,15.649,0,0,0-1.239,1.1V417.241a2.566,2.566,0,0,1,2.57-2.57H49.038a2.566,2.566,0,0,1,2.57,2.57v24.379a5.112,5.112,0,0,0-1.1,3.365,4.543,4.543,0,0,0,2.387,4.344,3.9,3.9,0,0,0-.991.861c-3.183-1.943-10.083-3.6-11.244-3.861l-.887-.757v-2.087a.609.609,0,0,0-.039-.222,14.629,14.629,0,0,0,3.444-6.013,2.941,2.941,0,0,0,1.852-3.078,4.169,4.169,0,0,0-.4-1.774,9.214,9.214,0,0,0,.9-3.822A8.995,8.995,0,0,0,42.5,421.7c-3.6-3.17-7.774-3.861-12.391-2.035a5.06,5.06,0,0,0-4.252.965,8.55,8.55,0,0,0-3.691,7.578,11.223,11.223,0,0,0,.848,3.965,4.156,4.156,0,0,0-.509,2,2.941,2.941,0,0,0,1.852,3.078,14.629,14.629,0,0,0,3.444,6.013.609.609,0,0,0-.039.222v2.087l-.887.756a51.141,51.141,0,0,0-9.835,3.117,20.126,20.126,0,0,0,3.339-7.213Zm13.4,13.631a125,125,0,0,1,1.813,19.657H31.951a126.811,126.811,0,0,1,1.813-19.657Zm0-2.517-1.513-2.583a7.257,7.257,0,0,1,1.513-1,7.257,7.257,0,0,1,1.513,1ZM23.472,428.211A7.333,7.333,0,0,1,26.6,421.7a3.644,3.644,0,0,1,3.261-.77.58.58,0,0,0,.509,0c4.213-1.722,8.009-1.148,11.27,1.722A7.7,7.7,0,0,1,43.7,431.2a1.488,1.488,0,0,0-.626-.274h-.065a.7.7,0,0,0-.326.065,6.2,6.2,0,0,0-5.517-5.661,6.542,6.542,0,0,0-5.5,1.448c-1.448,1-2.83,1.943-6.2,1.135a.679.679,0,0,0-.548.117.618.618,0,0,0-.248.5,19.612,19.612,0,0,0,.091,2.439h-.026a.538.538,0,0,0-.287-.013,1.624,1.624,0,0,0-.457.17,9.4,9.4,0,0,1-.535-2.9Zm1.122,4.057c.939.235,1.226-.013,1.357-.117a.793.793,0,0,0,.235-.73A12.59,12.59,0,0,1,26,429.358a7.378,7.378,0,0,0,6.431-1.5A5.406,5.406,0,0,1,37,426.619a5.047,5.047,0,0,1,4.474,5.374.654.654,0,0,0,.287.587.674.674,0,0,0,.665.039l.613-.313a2.57,2.57,0,0,1,.717,1.852c0,1.683-1.017,1.865-1.083,1.878a.642.642,0,0,0-.626.483c-1.07,4.083-4.252,8.2-8.244,8.2s-7.174-4.135-8.244-8.2a.6.6,0,0,0-.587-.483c-.117-.013-1.122-.2-1.122-1.878a2.419,2.419,0,0,1,.757-1.891Zm13.878,13.2c-.143.143-.313.287-.483.457-1.109,1.043-2.622,2.478-4.213,2.478s-3.1-1.435-4.213-2.478c-.17-.17-.326-.313-.483-.457v-1.109a7.393,7.393,0,0,0,9.391,0v1.109Zm-10,1.213c.065.065.13.117.2.183A11.983,11.983,0,0,0,32,449.315a15.424,15.424,0,0,0-2.739,2.726,14.61,14.61,0,0,1-1.422-4.839l.626-.522Zm7.083,2.622a12.18,12.18,0,0,0,3.339-2.452c.065-.065.13-.117.2-.183l.626.522a14.4,14.4,0,0,1-1.422,4.839,14.594,14.594,0,0,0-2.739-2.726ZM25.52,461.133a1.8,1.8,0,0,1-3.6,0,1.8,1.8,0,1,1,3.6,0Zm-9.026-2.491V451.22a26.147,26.147,0,0,1,6.561-2.6v9.5a3.1,3.1,0,1,0,1.3,0v-9.848c.9-.235,1.683-.43,2.217-.561a18.171,18.171,0,0,0,2.009,5.87.632.632,0,0,0,.535.326h.026a.623.623,0,0,0,.535-.287,17.634,17.634,0,0,1,1.591-1.957l1.461,2.491a127.133,127.133,0,0,0-2.1,21.326H26.707c-2.5-11.165-8.7-15.848-10.226-16.852h0ZM49.025,482.72H27.712a45.719,45.719,0,0,0-.717-5.922H51.608v3.339a2.577,2.577,0,0,1-2.583,2.57Zm2.583-7.213H36.881a127.175,127.175,0,0,0-2.1-21.339l1.461-2.491a17.633,17.633,0,0,1,1.591,1.957.64.64,0,0,0,.535.287h.026a.643.643,0,0,0,.535-.326,17.972,17.972,0,0,0,2.009-5.87c.574.143,1.448.365,2.452.639l-.183,4.957c-4.93,2.309-5.478,5.752-5.648,10.344a.806.806,0,0,0,.091.561c.235.4.757.6,1.748.665a.945.945,0,0,0,.639.5h.13a.667.667,0,0,0,.639-.522.642.642,0,0,0-.261-.652.661.661,0,0,0,.3-.678.644.644,0,0,0-.757-.522,1.079,1.079,0,0,0-.7.561,2.888,2.888,0,0,1-.522-.065c.17-4.3.678-7.109,5.022-9.078,4.187,2.257,4.5,5.087,4.344,9.4a3.873,3.873,0,0,1-.522.039,1.051,1.051,0,0,0-.665-.613.63.63,0,0,0-.783.47.929.929,0,0,1-.065,1.33.646.646,0,0,0,.639.561h.091a1.048,1.048,0,0,0,.678-.457h.078c.939,0,1.461-.17,1.722-.548a.89.89,0,0,0,.143-.548c.17-4.63-.143-8.139-5.022-10.787l.17-4.552a30.2,30.2,0,0,1,6.535,2.57,6.158,6.158,0,0,0-.483,2.439,4.891,4.891,0,0,0,2.387,4.552,4.293,4.293,0,0,0-2.439,4.187,4.47,4.47,0,0,0,1.787,3.835A4.32,4.32,0,0,0,50.2,470.42a4.587,4.587,0,0,0,1.409,3.522v1.578h.013Zm4.539-2.309a3.575,3.575,0,0,1-1.774.47c-2.126,0-2.883-1.748-2.883-3.235s.757-3.235,2.883-3.235a3.7,3.7,0,0,1,1.722.43c.091.078.352.522.352,2.817,0,2.27-.274,2.726-.3,2.765Zm.509-7.944a3.575,3.575,0,0,1-1.774.47c-2.126,0-2.883-1.748-2.883-3.235s.757-3.235,2.883-3.235a3.7,3.7,0,0,1,1.722.43c.091.078.352.522.352,2.817s-.274,2.713-.3,2.765Z" transform="translate(-0.363 128.165)" fill="none" stroke="#0c9cd8" stroke-linecap="round" stroke-linejoin="round" stroke-width="0.75"/>
      <path id="Caminho_7242" data-name="Caminho 7242" d="M199.557,462.476c0-1.97-.157-3.391-.965-3.913a1.966,1.966,0,0,1-.235-.117,5.768,5.768,0,0,0,.822-.378c.7-.483.978-1.7.978-4.344s-.274-3.861-1.017-4.37a4.951,4.951,0,0,0-.652-.313h0c.665-.457.926-1.591.926-4.057s-.261-3.613-.965-4.083a4.753,4.753,0,0,0-2.426-.665,4.3,4.3,0,0,0-1.813.391V417.254a3.883,3.883,0,0,0-3.874-3.874H160.2a3.883,3.883,0,0,0-3.874,3.874V436.9a55.35,55.35,0,0,0-8.739,13.709c-4.5,9.6.561,23.413,1.409,25.6l-7.252,14.165a.64.64,0,0,0,.287.874.774.774,0,0,0,.3.065.67.67,0,0,0,.587-.352l7.383-14.426a.668.668,0,0,0,.026-.548c-.065-.143-6.1-15.144-1.552-24.848,4.422-9.418,8.974-13.983,10.422-15.287a7.182,7.182,0,0,1,1.226,6.052,18.305,18.305,0,0,1-3.73,7.526.61.61,0,0,0-.17.443v9.144a.616.616,0,0,0,.326.561c.117.065,10.983,6.535,10.983,26.152a.663.663,0,0,0,.652.652.654.654,0,0,0,.652-.652c0-.574,0-1.148-.026-1.709h3.678l-2.961,6.365a.659.659,0,0,0,.326.861.7.7,0,0,0,.274.065.671.671,0,0,0,.587-.378l3.209-6.913h16.148a3.874,3.874,0,0,0,3.874-3.874V474.7a4.481,4.481,0,0,0,1.474.261,4.925,4.925,0,0,0,2.439-.652c.783-.509.939-1.93.939-3.887s-.157-3.261-.887-3.835c.157-.065.3-.143.457-.222.757-.522.913-1.93.913-3.913h0Zm-1.07-5.517a3.862,3.862,0,0,1-1.944.535c-2.361,0-3.183-2.022-3.183-3.77s.835-3.77,3.183-3.77a3.931,3.931,0,0,1,1.891.5c.091.091.417.574.417,3.261s-.313,3.17-.365,3.235m-.757-14.961c.091.091.378.561.378,3s-.287,2.909-.313,2.961a3.626,3.626,0,0,1-1.774.483c-2.152,0-2.909-1.865-2.909-3.444s.77-3.444,2.909-3.444a3.4,3.4,0,0,1,1.722.457m-36.079.222a8.469,8.469,0,0,0-1.944-7.735.653.653,0,0,0-.848-.052,15.645,15.645,0,0,0-1.239,1.1V417.241a2.566,2.566,0,0,1,2.57-2.57h30.131a2.566,2.566,0,0,1,2.57,2.57v24.379a5.112,5.112,0,0,0-1.1,3.365,4.543,4.543,0,0,0,2.387,4.344,3.9,3.9,0,0,0-.991.861c-3.183-1.943-10.083-3.6-11.244-3.861l-.887-.757v-2.087a.609.609,0,0,0-.039-.222,14.63,14.63,0,0,0,3.444-6.013,2.941,2.941,0,0,0,1.852-3.078,4.169,4.169,0,0,0-.4-1.774,9.214,9.214,0,0,0,.9-3.822A8.995,8.995,0,0,0,183.8,421.7c-3.6-3.17-7.774-3.861-12.391-2.035a5.06,5.06,0,0,0-4.252.965,8.55,8.55,0,0,0-3.691,7.578,11.223,11.223,0,0,0,.848,3.965,4.156,4.156,0,0,0-.509,2,2.941,2.941,0,0,0,1.852,3.078,14.629,14.629,0,0,0,3.444,6.013.609.609,0,0,0-.039.222v2.087l-.887.756a51.14,51.14,0,0,0-9.835,3.117,20.126,20.126,0,0,0,3.339-7.213m13.4,13.617a125.005,125.005,0,0,1,1.813,19.657h-3.626a126.808,126.808,0,0,1,1.813-19.657m0-2.517-1.513-2.583a7.256,7.256,0,0,1,1.513-1,7.257,7.257,0,0,1,1.513,1Zm-10.3-25.122a7.333,7.333,0,0,1,3.13-6.509,3.644,3.644,0,0,1,3.261-.77.58.58,0,0,0,.509,0c4.213-1.722,8.009-1.148,11.27,1.722A7.7,7.7,0,0,1,185,431.2a1.488,1.488,0,0,0-.626-.274h-.065a.7.7,0,0,0-.326.065,6.2,6.2,0,0,0-5.517-5.661,6.542,6.542,0,0,0-5.5,1.448c-1.448,1-2.83,1.943-6.2,1.135a.679.679,0,0,0-.548.117.618.618,0,0,0-.248.5,19.61,19.61,0,0,0,.091,2.439h-.026a.538.538,0,0,0-.287-.013,1.624,1.624,0,0,0-.457.17,9.4,9.4,0,0,1-.535-2.9m1.135,4.044c.939.235,1.226-.013,1.357-.117a.793.793,0,0,0,.235-.73,12.59,12.59,0,0,1-.183-2.061,7.378,7.378,0,0,0,6.43-1.5,5.406,5.406,0,0,1,4.565-1.239,5.047,5.047,0,0,1,4.474,5.374.654.654,0,0,0,.287.587.674.674,0,0,0,.665.039l.613-.313a2.571,2.571,0,0,1,.717,1.852c0,1.683-1.017,1.865-1.083,1.878a.642.642,0,0,0-.626.483c-1.07,4.083-4.252,8.2-8.244,8.2s-7.174-4.135-8.244-8.2a.6.6,0,0,0-.587-.483c-.117-.013-1.122-.2-1.122-1.878a2.419,2.419,0,0,1,.757-1.891m13.865,13.2c-.143.143-.313.287-.483.457-1.109,1.043-2.622,2.478-4.213,2.478s-3.1-1.435-4.213-2.478c-.17-.17-.326-.313-.483-.457v-1.109a7.393,7.393,0,0,0,9.391,0v1.109h0Zm-10,1.213c.065.065.13.117.2.183a11.983,11.983,0,0,0,3.339,2.452,15.424,15.424,0,0,0-2.739,2.726,14.61,14.61,0,0,1-1.422-4.839l.626-.522Zm7.083,2.622a12.18,12.18,0,0,0,3.339-2.452c.065-.065.13-.117.2-.183l.626.522a14.4,14.4,0,0,1-1.422,4.839,14.594,14.594,0,0,0-2.739-2.726m-10.031,11.831a1.8,1.8,0,0,1-3.6,0,1.8,1.8,0,1,1,3.6,0m-9.013-2.491V451.22a26.147,26.147,0,0,1,6.561-2.6v9.5a3.1,3.1,0,1,0,1.3,0v-9.848c.9-.235,1.683-.43,2.217-.561a18.171,18.171,0,0,0,2.009,5.87.632.632,0,0,0,.535.326h.026a.623.623,0,0,0,.535-.287,17.634,17.634,0,0,1,1.591-1.957l1.461,2.491a127.134,127.134,0,0,0-2.1,21.326h-3.926c-2.5-11.165-8.7-15.848-10.226-16.852h0Zm32.531,24.079H169.022a45.714,45.714,0,0,0-.717-5.922h24.613v3.339a2.577,2.577,0,0,1-2.583,2.57m2.583-7.2H178.191a127.173,127.173,0,0,0-2.1-21.339l1.461-2.491a17.636,17.636,0,0,1,1.591,1.957.64.64,0,0,0,.535.287h.026a.643.643,0,0,0,.535-.326,17.971,17.971,0,0,0,2.009-5.87c.574.143,1.448.365,2.452.639l-.183,4.957c-4.93,2.309-5.478,5.752-5.648,10.344a.806.806,0,0,0,.091.561c.235.4.757.6,1.748.665a.945.945,0,0,0,.639.5h.13a.667.667,0,0,0,.639-.522.642.642,0,0,0-.261-.652.661.661,0,0,0,.3-.678.644.644,0,0,0-.757-.522,1.079,1.079,0,0,0-.7.561,2.888,2.888,0,0,1-.522-.065c.17-4.3.678-7.109,5.022-9.078,4.187,2.257,4.5,5.087,4.344,9.4a3.873,3.873,0,0,1-.522.039,1.051,1.051,0,0,0-.665-.613.63.63,0,0,0-.783.47.929.929,0,0,1-.065,1.33.646.646,0,0,0,.639.561h.091a1.048,1.048,0,0,0,.678-.457h.078c.939,0,1.461-.17,1.722-.548a.89.89,0,0,0,.143-.548c.157-4.63-.143-8.139-5.022-10.787l.17-4.552a30.2,30.2,0,0,1,6.535,2.57,6.158,6.158,0,0,0-.483,2.439,4.891,4.891,0,0,0,2.387,4.552A4.293,4.293,0,0,0,192,462.476a4.47,4.47,0,0,0,1.787,3.835,4.32,4.32,0,0,0-2.283,4.109,4.587,4.587,0,0,0,1.409,3.522v1.578h.013Zm4.539-2.309a3.575,3.575,0,0,1-1.774.47c-2.126,0-2.883-1.748-2.883-3.235s.757-3.235,2.883-3.235a3.7,3.7,0,0,1,1.722.43c.091.078.352.522.352,2.817,0,2.27-.274,2.726-.3,2.765m.5-7.957a3.575,3.575,0,0,1-1.774.47c-2.126,0-2.883-1.748-2.883-3.235s.757-3.235,2.883-3.235a3.7,3.7,0,0,1,1.722.43c.091.078.352.522.352,2.817s-.274,2.713-.3,2.765" transform="translate(42.647 128.165)" fill="#00b093"/>
      <path id="Caminho_7243" data-name="Caminho 7243" d="M199.557,462.476c0-1.97-.157-3.391-.965-3.913a1.966,1.966,0,0,1-.235-.117,5.768,5.768,0,0,0,.822-.378c.7-.483.978-1.7.978-4.344s-.274-3.861-1.017-4.37a4.951,4.951,0,0,0-.652-.313h0c.665-.457.926-1.591.926-4.057s-.261-3.613-.965-4.083a4.753,4.753,0,0,0-2.426-.665,4.3,4.3,0,0,0-1.813.391V417.254a3.883,3.883,0,0,0-3.874-3.874H160.2a3.883,3.883,0,0,0-3.874,3.874V436.9a55.35,55.35,0,0,0-8.739,13.709c-4.5,9.6.561,23.413,1.409,25.6l-7.252,14.165a.64.64,0,0,0,.287.874.774.774,0,0,0,.3.065.67.67,0,0,0,.587-.352l7.383-14.426a.668.668,0,0,0,.026-.548c-.065-.143-6.1-15.144-1.552-24.848,4.422-9.418,8.974-13.983,10.422-15.287a7.182,7.182,0,0,1,1.226,6.052,18.305,18.305,0,0,1-3.73,7.526.61.61,0,0,0-.17.443v9.144a.616.616,0,0,0,.326.561c.117.065,10.983,6.535,10.983,26.152a.663.663,0,0,0,.652.652.654.654,0,0,0,.652-.652c0-.574,0-1.148-.026-1.709h3.678l-2.961,6.365a.659.659,0,0,0,.326.861.7.7,0,0,0,.274.065.671.671,0,0,0,.587-.378l3.209-6.913h16.148a3.874,3.874,0,0,0,3.874-3.874V474.7a4.481,4.481,0,0,0,1.474.261,4.925,4.925,0,0,0,2.439-.652c.783-.509.939-1.93.939-3.887s-.157-3.261-.887-3.835c.157-.065.3-.143.457-.222.757-.522.913-1.93.913-3.913h0Zm-1.07-5.517a3.862,3.862,0,0,1-1.944.535c-2.361,0-3.183-2.022-3.183-3.77s.835-3.77,3.183-3.77a3.931,3.931,0,0,1,1.891.5c.091.091.417.574.417,3.261s-.313,3.17-.365,3.235Zm-.757-14.974c.091.091.378.561.378,3s-.287,2.909-.313,2.961a3.626,3.626,0,0,1-1.774.483c-2.152,0-2.909-1.865-2.909-3.444s.77-3.444,2.909-3.444a3.4,3.4,0,0,1,1.722.457Zm-36.066.235a8.469,8.469,0,0,0-1.944-7.735.653.653,0,0,0-.848-.052,15.645,15.645,0,0,0-1.239,1.1V417.241a2.566,2.566,0,0,1,2.57-2.57h30.131a2.566,2.566,0,0,1,2.57,2.57v24.379a5.112,5.112,0,0,0-1.1,3.365,4.543,4.543,0,0,0,2.387,4.344,3.9,3.9,0,0,0-.991.861c-3.183-1.943-10.083-3.6-11.244-3.861l-.887-.757v-2.087a.609.609,0,0,0-.039-.222,14.63,14.63,0,0,0,3.444-6.013,2.941,2.941,0,0,0,1.852-3.078,4.169,4.169,0,0,0-.4-1.774,9.214,9.214,0,0,0,.9-3.822A8.995,8.995,0,0,0,183.8,421.7c-3.6-3.17-7.774-3.861-12.391-2.035a5.06,5.06,0,0,0-4.252.965,8.55,8.55,0,0,0-3.691,7.578,11.223,11.223,0,0,0,.848,3.965,4.156,4.156,0,0,0-.509,2,2.941,2.941,0,0,0,1.852,3.078,14.629,14.629,0,0,0,3.444,6.013.609.609,0,0,0-.039.222v2.087l-.887.756a51.14,51.14,0,0,0-9.835,3.117,20.126,20.126,0,0,0,3.339-7.213Zm13.409,13.631a125.005,125.005,0,0,1,1.813,19.657h-3.626A126.808,126.808,0,0,1,175.074,455.85Zm0-2.517-1.513-2.583a7.256,7.256,0,0,1,1.513-1,7.257,7.257,0,0,1,1.513,1Zm-10.3-25.122a7.333,7.333,0,0,1,3.13-6.509,3.644,3.644,0,0,1,3.261-.77.58.58,0,0,0,.509,0c4.213-1.722,8.009-1.148,11.27,1.722A7.7,7.7,0,0,1,185,431.2a1.488,1.488,0,0,0-.626-.274h-.065a.7.7,0,0,0-.326.065,6.2,6.2,0,0,0-5.517-5.661,6.542,6.542,0,0,0-5.5,1.448c-1.448,1-2.83,1.943-6.2,1.135a.679.679,0,0,0-.548.117.618.618,0,0,0-.248.5,19.61,19.61,0,0,0,.091,2.439h-.026a.538.538,0,0,0-.287-.013,1.624,1.624,0,0,0-.457.17,9.4,9.4,0,0,1-.535-2.9Zm1.122,4.057c.939.235,1.226-.013,1.357-.117a.793.793,0,0,0,.235-.73,12.59,12.59,0,0,1-.183-2.061,7.378,7.378,0,0,0,6.43-1.5,5.406,5.406,0,0,1,4.565-1.239,5.047,5.047,0,0,1,4.474,5.374.654.654,0,0,0,.287.587.674.674,0,0,0,.665.039l.613-.313a2.571,2.571,0,0,1,.717,1.852c0,1.683-1.017,1.865-1.083,1.878a.642.642,0,0,0-.626.483c-1.07,4.083-4.252,8.2-8.244,8.2s-7.174-4.135-8.244-8.2a.6.6,0,0,0-.587-.483c-.117-.013-1.122-.2-1.122-1.878a2.419,2.419,0,0,1,.757-1.891Zm13.878,13.2c-.143.143-.313.287-.483.457-1.109,1.043-2.622,2.478-4.213,2.478s-3.1-1.435-4.213-2.478c-.17-.17-.326-.313-.483-.457v-1.109a7.393,7.393,0,0,0,9.391,0v1.109h0Zm-10,1.213c.065.065.13.117.2.183a11.983,11.983,0,0,0,3.339,2.452,15.424,15.424,0,0,0-2.739,2.726,14.61,14.61,0,0,1-1.422-4.839l.626-.522Zm7.083,2.622a12.18,12.18,0,0,0,3.339-2.452c.065-.065.13-.117.2-.183l.626.522a14.4,14.4,0,0,1-1.422,4.839,14.594,14.594,0,0,0-2.739-2.726Zm-10.031,11.831a1.8,1.8,0,0,1-3.6,0,1.8,1.8,0,1,1,3.6,0Zm-9.013-2.491V451.22a26.147,26.147,0,0,1,6.561-2.6v9.5a3.1,3.1,0,1,0,1.3,0v-9.848c.9-.235,1.683-.43,2.217-.561a18.171,18.171,0,0,0,2.009,5.87.632.632,0,0,0,.535.326h.026a.623.623,0,0,0,.535-.287,17.634,17.634,0,0,1,1.591-1.957l1.461,2.491a127.134,127.134,0,0,0-2.1,21.326h-3.926c-2.5-11.165-8.7-15.848-10.226-16.852h0Zm32.531,24.079H169.022a45.714,45.714,0,0,0-.717-5.922h24.613v3.339a2.577,2.577,0,0,1-2.583,2.57Zm2.583-7.213H178.191a127.173,127.173,0,0,0-2.1-21.339l1.461-2.491a17.636,17.636,0,0,1,1.591,1.957.64.64,0,0,0,.535.287h.026a.643.643,0,0,0,.535-.326,17.971,17.971,0,0,0,2.009-5.87c.574.143,1.448.365,2.452.639l-.183,4.957c-4.93,2.309-5.478,5.752-5.648,10.344a.806.806,0,0,0,.091.561c.235.4.757.6,1.748.665a.945.945,0,0,0,.639.5h.13a.667.667,0,0,0,.639-.522.642.642,0,0,0-.261-.652.661.661,0,0,0,.3-.678.644.644,0,0,0-.757-.522,1.079,1.079,0,0,0-.7.561,2.888,2.888,0,0,1-.522-.065c.17-4.3.678-7.109,5.022-9.078,4.187,2.257,4.5,5.087,4.344,9.4a3.873,3.873,0,0,1-.522.039,1.051,1.051,0,0,0-.665-.613.63.63,0,0,0-.783.47.929.929,0,0,1-.065,1.33.646.646,0,0,0,.639.561h.091a1.048,1.048,0,0,0,.678-.457h.078c.939,0,1.461-.17,1.722-.548a.89.89,0,0,0,.143-.548c.157-4.63-.143-8.139-5.022-10.787l.17-4.552a30.2,30.2,0,0,1,6.535,2.57,6.158,6.158,0,0,0-.483,2.439,4.891,4.891,0,0,0,2.387,4.552A4.293,4.293,0,0,0,192,462.476a4.47,4.47,0,0,0,1.787,3.835,4.32,4.32,0,0,0-2.283,4.109,4.587,4.587,0,0,0,1.409,3.522v1.578h.013Zm4.539-2.309a3.575,3.575,0,0,1-1.774.47c-2.126,0-2.883-1.748-2.883-3.235s.757-3.235,2.883-3.235a3.7,3.7,0,0,1,1.722.43c.091.078.352.522.352,2.817,0,2.27-.274,2.726-.3,2.765Zm.5-7.944a3.575,3.575,0,0,1-1.774.47c-2.126,0-2.883-1.748-2.883-3.235s.757-3.235,2.883-3.235a3.7,3.7,0,0,1,1.722.43c.091.078.352.522.352,2.817s-.274,2.713-.3,2.765Z" transform="translate(42.647 128.165)" fill="none" stroke="#00b093" stroke-miterlimit="10" stroke-width="0.75"/>
    </g>
  </g>
</svg>
