<svg xmlns="http://www.w3.org/2000/svg" width="602.063" height="366.681" viewBox="0 0 602.063 366.681">
  <g id="Grupo_5559" data-name="Grupo 5559" transform="translate(-312 -6563.319)">
    <text id="_O_fator_de_impacto_representa_a_média_de_citações_em_trabalhos_ou_artigos_cientificos_de_conteúdos_publicados_por_um_periódico._O_cálculo_é_feito_anualmente_com_base_nas_publicações_dos_dois_anos_anteriores_seguindo_a_fórmula:_total_de_citações_obtidas" data-name="*O fator de impacto representa a média de citações, em trabalhos ou artigos cientificos, de conteúdos publicados por um periódico. O cálculo é feito anualmente com base nas publicações dos dois anos anteriores, seguindo a fórmula: total de citações obtidas" transform="translate(313 6835)" fill="#202224" font-size="16" font-family="Montserrat-Italic, Montserrat" font-style="italic"><tspan x="0" y="15">*O fator de impacto representa a média de citações, em trabalhos ou </tspan><tspan x="0" y="34">artigos cientificos, de conteúdos publicados por um periódico. O cálculo </tspan><tspan x="0" y="53">é feito anualmente com base nas publicações dos dois anos anteriores, </tspan><tspan x="0" y="72">seguindo a fórmula: total de citações obtidas no ano dividido pelo total </tspan><tspan x="0" y="91">de trabalhos publicados pelo periódico nos dois anos anteriores.</tspan></text>
    <g id="Layer_1" data-name="Layer 1" transform="translate(313 6563.319)">
      <g id="Grupo_1006" data-name="Grupo 1006">
        <text id="_606" data-name="606" transform="translate(89.518 61.839)" fill="#0c9cd8" font-size="40" font-family="Montserrat-Bold, Montserrat" font-weight="700"><tspan x="0" y="0">606</tspan></text>
        <text id="_1.013" data-name="1.013" transform="translate(0 161.001)" fill="#0c9cd8" font-size="33" font-family="Montserrat-Bold, Montserrat" font-weight="700"><tspan x="0" y="0" letter-spacing="-0.02em">1</tspan><tspan y="0" letter-spacing="-0.03em">.</tspan><tspan y="0" letter-spacing="-0.02em">01</tspan><tspan y="0">3</tspan></text>
        <text id="_6.991" data-name="6.991" transform="translate(0.235 234.881)" fill="#0c9cd8" font-size="33" font-family="Montserrat-Bold, Montserrat" font-weight="700"><tspan x="0" y="0" letter-spacing="-0.02em">6</tspan><tspan y="0" letter-spacing="-0.03em">.</tspan><tspan y="0" letter-spacing="-0.02em">99</tspan><tspan y="0">1</tspan></text>
        <text id="_1.102" data-name="1.102" transform="translate(512.315 60.918)" fill="#0c9cd8" font-size="33" font-family="Montserrat-Bold, Montserrat" font-weight="700"><tspan x="0" y="0" letter-spacing="-0.02em">1.10</tspan><tspan y="0">2</tspan></text>
        <text id="PUBLICAÇÕES_EM_PERIÓDICOS" data-name="PUBLICAÇÕES EM PERIÓDICOS" transform="translate(89.518 83.67)" fill="#0c9cd8" font-size="13" font-family="Montserrat-ExtraBold, Montserrat" font-weight="800"><tspan x="0" y="0">PUBLICAÇÕES EM PERIÓDICOS</tspan></text>
        <text id="COM_FATOR_DE_IMPACTO_ACIMA_DE_1_" data-name="COM FATOR DE IMPACTO* ACIMA DE 1 " transform="translate(89.518 99.323)" fill="#0c9cd8" font-size="13" font-family="Montserrat-ExtraBold, Montserrat" font-weight="800"><tspan x="0" y="0">COM FATOR DE IMPACTO* ACIMA DE 1 </tspan></text>
        <text id="EM_PERIÓDICOS_INDEXADOS" data-name="EM PERIÓDICOS INDEXADOS" transform="translate(87.158 161.567)" fill="#0c9cd8" font-size="13" font-family="Montserrat-ExtraBold, Montserrat" font-weight="800"><tspan x="0" y="0">EM PERIÓDICOS INDEXADOS</tspan></text>
        <text id="CITAÇÕES_A_ARTIGOS_CIENTÍFICOS" data-name="CITAÇÕES A ARTIGOS CIENTÍFICOS" transform="translate(91.097 219.794)" fill="#0c9cd8" font-size="13" font-family="Montserrat-ExtraBold, Montserrat" font-weight="800"><tspan x="0" y="0">CITAÇÕES A ARTIGOS CIENTÍFICOS</tspan></text>
        <text id="DE_PESQUISADORES_DO_EINSTEIN_" data-name="DE PESQUISADORES DO EINSTEIN " transform="translate(91.097 235.446)" fill="#0c9cd8" font-size="13" font-family="Montserrat-ExtraBold, Montserrat" font-weight="800"><tspan x="0" y="0">DE PESQUISADORES DO EINSTEIN </tspan></text>
        <text id="_571" data-name="571" transform="translate(426.501 167.671)" fill="#0c9cd8" font-size="23" font-family="Montserrat-Bold, Montserrat" font-weight="700"><tspan x="0" y="0">571</tspan></text>
        <text id="EM_ANDAMENTO" data-name="EM ANDAMENTO" transform="translate(478.466 167.632)" fill="#0c9cd8" font-size="10" font-family="Montserrat-ExtraBold, Montserrat" font-weight="800"><tspan x="0" y="0">EM ANDAMENTO</tspan></text>
        <text id="_iniciados_em_anos" data-name="(iniciados em anos" transform="translate(478.466 178.372)" fill="#0c9cd8" font-size="9" font-family="Montserrat-Regular, Montserrat"><tspan x="0" y="0">(iniciados em anos</tspan></text>
        <text id="anteriores_e_ainda" data-name="anteriores e ainda" transform="translate(478.466 188.806)" fill="#0c9cd8" font-size="9" font-family="Montserrat-Regular, Montserrat"><tspan x="0" y="0">anteriores e ainda</tspan></text>
        <text id="em_desenvolvimento_" data-name="em desenvolvimento) " transform="translate(478.466 201.328)" fill="#0c9cd8" font-size="9" font-family="Montserrat-Regular, Montserrat"><tspan x="0" y="0">em desenvolvimento) </tspan></text>
        <text id="_" data-name="      " transform="translate(583.063 201.024)" fill="#0c9cd8" font-size="10" font-family="Montserrat-ExtraBold, Montserrat" font-weight="800"><tspan x="0" y="0" xml:space="preserve">      </tspan></text>
        <text id="_220" data-name="220" transform="translate(426.501 231.402)" fill="#0c9cd8" font-size="23" font-family="Montserrat-Bold, Montserrat" font-weight="700"><tspan x="0" y="0">220</tspan></text>
        <text id="CONCLUÍDOS" transform="translate(478.466 231.142)" fill="#0c9cd8" font-size="10" font-family="Montserrat-ExtraBold, Montserrat" font-weight="800"><tspan x="0" y="0">CONCLUÍDOS</tspan></text>
        <text id="PROJETOS" transform="translate(512.536 83.318)" fill="#0c9cd8" font-size="13" font-family="Montserrat-ExtraBold, Montserrat" font-weight="800"><tspan x="0" y="0">PROJETOS</tspan></text>
        <text id="_311" data-name="311" transform="translate(426.527 128.371)" fill="#0c9cd8" font-size="23" font-family="Montserrat-Bold, Montserrat" font-weight="700"><tspan x="0" y="0">311</tspan></text>
        <text id="INICIADOS" transform="translate(478.466 127.093)" fill="#0c9cd8" font-size="10" font-family="Montserrat-ExtraBold, Montserrat" font-weight="800"><tspan x="0" y="0">INICIADOS</tspan></text>
        <line id="Linha_121" data-name="Linha 121" y2="244.646" transform="translate(392.678)" fill="none" stroke="#8a8c8e" stroke-width="1"/>
        <path id="Caminho_7263" data-name="Caminho 7263" d="M4.81,93.408H61.575v-77.3H4.81v77.3ZM63.154,96.63H3.218a1.589,1.589,0,0,1-1.578-1.6V14.494a1.589,1.589,0,0,1,1.578-1.6H63.141a1.589,1.589,0,0,1,1.578,1.6V95.026a1.589,1.589,0,0,1-1.578,1.6" transform="translate(0.499 3.923)" fill="#0c9cd8"/>
        <path id="Caminho_7264" data-name="Caminho 7264" d="M12.369,41.316a1.581,1.581,0,0,1-1.122-.47L7.66,37.194l2.23-2.283,2.465,2.5,7.983-8.126,2.23,2.283-9.1,9.261a1.581,1.581,0,0,1-1.122.47" transform="translate(2.331 8.915)" fill="#0c9cd8"/>
        <path id="Caminho_7265" data-name="Caminho 7265" d="M12.369,56.74a1.581,1.581,0,0,1-1.122-.47L7.66,52.618l2.23-2.27,2.465,2.5,7.983-8.113,2.23,2.27-9.1,9.261a1.581,1.581,0,0,1-1.122.47" transform="translate(2.331 13.617)" fill="#0c9cd8"/>
        <path id="Caminho_7266" data-name="Caminho 7266" d="M12.369,72.186a1.581,1.581,0,0,1-1.122-.47L7.66,68.064l2.23-2.283,2.465,2.5,7.983-8.126,2.23,2.283-9.1,9.261a1.581,1.581,0,0,1-1.122.47" transform="translate(2.331 18.31)" fill="#0c9cd8"/>
        <rect id="Retângulo_2963" data-name="Retângulo 2963" width="24.261" height="3.222" transform="translate(31.448 40.227)" fill="#0c9cd8"/>
        <rect id="Retângulo_2964" data-name="Retângulo 2964" width="24.261" height="3.222" transform="translate(31.448 47.009)" fill="#0c9cd8"/>
        <rect id="Retângulo_2965" data-name="Retângulo 2965" width="24.261" height="3.222" transform="translate(31.448 60.366)" fill="#0c9cd8"/>
        <rect id="Retângulo_2966" data-name="Retângulo 2966" width="24.261" height="3.222" transform="translate(31.448 67.136)" fill="#0c9cd8"/>
        <rect id="Retângulo_2967" data-name="Retângulo 2967" width="24.261" height="3.222" transform="translate(31.448 80.492)" fill="#0c9cd8"/>
        <rect id="Retângulo_2968" data-name="Retângulo 2968" width="24.261" height="3.222" transform="translate(31.448 87.275)" fill="#0c9cd8"/>
        <rect id="Retângulo_2969" data-name="Retângulo 2969" width="44.048" height="3.222" transform="translate(11.661 28.018)" fill="#0c9cd8"/>
        <path id="Caminho_7267" data-name="Caminho 7267" d="M368.217,25.977a2.093,2.093,0,0,0-2.087-2.087H343.617a2.087,2.087,0,0,0,0,4.174H366.13a2.093,2.093,0,0,0,2.087-2.087" transform="translate(103.949 7.271)" fill="#0c9cd8"/>
        <path id="Caminho_7268" data-name="Caminho 7268" d="M343.617,22.894H366.13a2.087,2.087,0,0,0,0-4.174H343.617a2.087,2.087,0,1,0,0,4.174" transform="translate(103.949 5.698)" fill="#0c9cd8"/>
        <path id="Caminho_7269" data-name="Caminho 7269" d="M350.078,61.251a2.088,2.088,0,0,0,1.291,1.93,2.175,2.175,0,0,0,.809.157,2.085,2.085,0,0,0,1.474-.613l4.148-4.148,4.148,4.148a2.144,2.144,0,0,0,2.283.457,2.088,2.088,0,0,0,1.291-1.93V48.964a11.1,11.1,0,1,0-15.444,0V61.251Zm.809-20.244a6.913,6.913,0,1,1,6.913,6.9,6.914,6.914,0,0,1-6.913-6.9m10.448,10.5v4.7l-2.061-2.048a2.078,2.078,0,0,0-2.948,0l-2.061,2.061v-4.7a11.483,11.483,0,0,0,7.07,0" transform="translate(105.523 9.107)" fill="#0c9cd8"/>
        <path id="Caminho_7270" data-name="Caminho 7270" d="M355.7,37.557a2.413,2.413,0,0,1,2.413,2.4,2.087,2.087,0,1,0,4.174,0A6.594,6.594,0,0,0,355.7,33.37a2.087,2.087,0,1,0,0,4.174" transform="translate(107.626 10.157)" fill="#0c9cd8"/>
        <path id="Caminho_7271" data-name="Caminho 7271" d="M395.283,72.192h-1.291V40.548a5.472,5.472,0,0,0-5.465-5.465h-5.791V13.574a4.35,4.35,0,0,0-4.344-4.344H342.378a4.342,4.342,0,0,0-4.344,4.344V35.1h-5.791a5.472,5.472,0,0,0-5.465,5.465V72.2h-1.291a2.093,2.093,0,0,0-2.087,2.087,8.848,8.848,0,0,0,8.844,8.831h56.283a8.848,8.848,0,0,0,8.844-8.831,2.093,2.093,0,0,0-2.087-2.087m-43.892,6.417H369.4a2.093,2.093,0,0,0,2.087-2.087v-.157H392.7a4.686,4.686,0,0,1-4.161,2.557H332.257a4.686,4.686,0,0,1-4.161-2.557H349.3v.157a2.093,2.093,0,0,0,2.087,2.087m-9.013-17.987h12.378a2.087,2.087,0,0,0,0-4.174H342.378a.151.151,0,0,1-.156-.157V13.574a.151.151,0,0,1,.156-.157h36.013a.151.151,0,0,1,.157.157V56.291a.151.151,0,0,1-.157.157h-3.378a2.087,2.087,0,0,0,0,4.174h3.378a4.342,4.342,0,0,0,4.344-4.344V39.256h5.791a1.292,1.292,0,0,1,1.291,1.278V72.179H369.392a2.093,2.093,0,0,0-2.087,2.087v.157H353.479v-.157a2.093,2.093,0,0,0-2.087-2.087H330.978V40.535a1.28,1.28,0,0,1,1.278-1.278h5.791V56.278a4.35,4.35,0,0,0,4.344,4.344" transform="translate(98.431 2.809)" fill="#0c9cd8"/>
        <path id="Caminho_7272" data-name="Caminho 7272" d="M356.747,45.494a2.087,2.087,0,0,0,0-4.174,2.416,2.416,0,0,1-2.413-2.413,2.087,2.087,0,0,0-4.174,0,6.6,6.6,0,0,0,6.6,6.587" transform="translate(106.576 11.207)" fill="#0c9cd8"/>
      </g>
    </g>
  </g>
</svg>
