<?xml version="1.0" encoding="UTF-8" standalone="no"?>
<!DOCTYPE svg PUBLIC "-//W3C//DTD SVG 1.1//EN" "http://www.w3.org/Graphics/SVG/1.1/DTD/svg11.dtd">
<svg width="100%" height="100%" viewBox="0 0 104 151" version="1.1" xmlns="http://www.w3.org/2000/svg" xmlns:xlink="http://www.w3.org/1999/xlink" xml:space="preserve" xmlns:serif="http://www.serif.com/" style="fill-rule:evenodd;clip-rule:evenodd;stroke-linejoin:round;stroke-miterlimit:2;">
    <g transform="matrix(1,0,0,1,-15783.5,-14499.9)">
        <g transform="matrix(1,0,0,1,15120,14320.1)">
            <g transform="matrix(1,0,0,-1,663.47,330.246)">
                <path d="M103.59,52.349C103.59,23.403 80.414,0 51.794,0C23.175,0 0,23.397 0,52.349C0,85.004 29.429,97.615 43.202,143.987C44.526,148.361 48.146,150.492 51.53,150.492C55.503,150.492 59.24,148.287 60.417,143.987C74.249,97.408 103.59,85.21 103.59,52.349M94.172,52.349C94.172,66.634 87.403,76.275 78.099,89.618C69.49,101.876 58.822,117.093 51.794,139.91C44.76,117.161 34.138,101.965 25.574,89.649C16.187,76.245 9.417,66.575 9.417,52.349C9.417,28.658 28.434,9.407 51.794,9.407C75.161,9.407 94.172,28.658 94.172,52.349M56.503,23.514C56.503,20.906 54.406,18.811 51.794,18.811C33.622,18.811 18.834,33.317 18.834,51.467C18.834,54.076 20.931,56.17 23.544,56.17C26.155,56.17 28.252,54.076 28.252,51.467C28.252,38.761 38.808,28.217 51.794,28.217C54.413,28.217 56.503,26.123 56.503,23.514" style="fill:rgb(0,79,129);fill-rule:nonzero;"/>
            </g>
            <g transform="matrix(1,0,0,-1,698,265)">
                <path d="M5,10C5.328,10 5.653,9.968 5.975,9.904C6.297,9.84 6.61,9.745 6.913,9.619C7.217,9.494 7.505,9.34 7.778,9.157C8.051,8.975 8.303,8.768 8.536,8.536C8.768,8.303 8.975,8.051 9.157,7.778C9.34,7.505 9.494,7.217 9.619,6.913C9.745,6.61 9.84,6.297 9.904,5.975C9.968,5.653 10,5.328 10,5C10,4.672 9.968,4.347 9.904,4.025C9.84,3.703 9.745,3.39 9.619,3.087C9.494,2.783 9.34,2.495 9.157,2.222C8.975,1.949 8.768,1.697 8.536,1.464C8.303,1.232 8.051,1.025 7.778,0.843C7.505,0.66 7.217,0.506 6.913,0.381C6.61,0.255 6.297,0.16 5.975,0.096C5.653,0.032 5.328,0 5,0C4.672,0 4.347,0.032 4.025,0.096C3.703,0.16 3.39,0.255 3.087,0.381C2.783,0.506 2.495,0.66 2.222,0.843C1.949,1.025 1.697,1.232 1.464,1.464C1.232,1.697 1.025,1.949 0.843,2.222C0.66,2.495 0.506,2.783 0.381,3.087C0.255,3.39 0.16,3.703 0.096,4.025C0.032,4.347 0,4.672 0,5C0,5.328 0.032,5.653 0.096,5.975C0.16,6.297 0.255,6.61 0.381,6.913C0.506,7.217 0.66,7.505 0.843,7.778C1.025,8.051 1.232,8.303 1.464,8.536C1.697,8.768 1.949,8.975 2.222,9.157C2.495,9.34 2.783,9.494 3.087,9.619C3.39,9.745 3.703,9.84 4.025,9.904C4.347,9.968 4.672,10 5,10Z" style="fill:rgb(0,79,129);fill-rule:nonzero;"/>
            </g>
            <g transform="matrix(1,0,0,-1,720,265)">
                <path d="M5,10C5.328,10 5.653,9.968 5.975,9.904C6.297,9.84 6.61,9.745 6.913,9.619C7.217,9.494 7.505,9.34 7.778,9.157C8.051,8.975 8.303,8.768 8.536,8.536C8.768,8.303 8.975,8.051 9.157,7.778C9.34,7.505 9.494,7.217 9.619,6.913C9.745,6.61 9.84,6.297 9.904,5.975C9.968,5.653 10,5.328 10,5C10,4.672 9.968,4.347 9.904,4.025C9.84,3.703 9.745,3.39 9.619,3.087C9.494,2.783 9.34,2.495 9.157,2.222C8.975,1.949 8.768,1.697 8.536,1.464C8.303,1.232 8.051,1.025 7.778,0.843C7.505,0.66 7.217,0.506 6.913,0.381C6.61,0.255 6.297,0.16 5.975,0.096C5.653,0.032 5.328,0 5,0C4.672,0 4.347,0.032 4.025,0.096C3.703,0.16 3.39,0.255 3.087,0.381C2.783,0.506 2.495,0.66 2.222,0.843C1.949,1.025 1.697,1.232 1.464,1.464C1.232,1.697 1.025,1.949 0.843,2.222C0.66,2.495 0.506,2.783 0.381,3.087C0.255,3.39 0.16,3.703 0.096,4.025C0.032,4.347 0,4.672 0,5C0,5.328 0.032,5.653 0.096,5.975C0.16,6.297 0.255,6.61 0.381,6.913C0.506,7.217 0.66,7.505 0.843,7.778C1.025,8.051 1.232,8.303 1.464,8.536C1.697,8.768 1.949,8.975 2.222,9.157C2.495,9.34 2.783,9.494 3.087,9.619C3.39,9.745 3.703,9.84 4.025,9.904C4.347,9.968 4.672,10 5,10Z" style="fill:rgb(0,79,129);fill-rule:nonzero;"/>
            </g>
        </g>
    </g>
</svg>
