<?xml version="1.0" encoding="utf-8"?>
<!-- Generator: Adobe Illustrator 28.0.0, SVG Export Plug-In . SVG Version: 6.00 Build 0)  -->
<svg version="1.1" id="Camada_1" xmlns="http://www.w3.org/2000/svg" xmlns:xlink="http://www.w3.org/1999/xlink" x="0px" y="0px"
	 viewBox="0 0 574 158" style="enable-background:new 0 0 574 158;" xml:space="preserve">
<style type="text/css">
	.st0{enable-background:new    ;}
	.st1{fill:#FFFFFF;}
	.st2{filter:url(#Presença_Einstein_);}
</style>
<filter  id="Presença_Einstein_">
	<feOffset  dy="3" input="SourceAlpha"></feOffset>
	<feGaussianBlur  result="blur" stdDeviation="1.5"></feGaussianBlur>
	<feFlood  flood-opacity="0.161" result="color"></feFlood>
	<feComposite  in="SourceGraphic" in2="blur" operator="out"></feComposite>
	<feComposite  in="color" operator="in"></feComposite>
	<feComposite  in2="SourceGraphic" operator="in"></feComposite>
</filter>
<g>
	<g class="st0">
		<path class="st1" d="M36.9,21.6c3.2,2.7,4.8,6.9,4.8,12.5c0,5.6-1.6,9.7-4.9,12.3c-3.3,2.6-8.3,3.9-15,3.9h-6V63H5.6V17.6h16.1
			C28.6,17.6,33.7,18.9,36.9,21.6z M29.4,39.5c1.2-1.4,1.8-3.4,1.8-6c0-2.6-0.8-4.5-2.4-5.6c-1.6-1.1-4-1.7-7.4-1.7h-5.8v15.3h6.8
			C25.9,41.5,28.2,40.9,29.4,39.5z"/>
		<path class="st1" d="M86.4,32.6c0,7.3-2.9,12-8.6,14.1L89.3,63H76.8L66.8,48.5h-7V63H49.6V17.6h17.2c7.1,0,12.1,1.2,15.1,3.6
			C84.9,23.5,86.4,27.4,86.4,32.6z M74.2,38c1.3-1.1,1.9-2.9,1.9-5.4s-0.6-4.1-1.9-5c-1.3-0.9-3.6-1.4-6.8-1.4h-7.6v13.5h7.4
			C70.6,39.7,73,39.2,74.2,38z"/>
		<path class="st1" d="M129.6,17.6v9H107V36h20.3v8.6H107V54h23.3v9H96.8V17.6H129.6z"/>
		<path class="st1" d="M150,26.6c-1,0.8-1.5,1.9-1.5,3.2c0,1.3,0.6,2.4,1.8,3.2c1.2,0.8,3.9,1.7,8.3,2.8c4.3,1.1,7.7,2.7,10,4.8
			c2.4,2.1,3.6,5.2,3.6,9.3c0,4.1-1.5,7.4-4.6,9.9s-7.1,3.8-12.1,3.8c-7.2,0-13.7-2.7-19.4-8l6-7.4c4.9,4.3,9.4,6.4,13.6,6.4
			c1.9,0,3.3-0.4,4.4-1.2c1.1-0.8,1.6-1.9,1.6-3.2s-0.6-2.4-1.7-3.2c-1.1-0.8-3.4-1.6-6.7-2.4c-5.3-1.3-9.2-2.9-11.6-4.9
			c-2.4-2-3.7-5.2-3.7-9.5c0-4.3,1.5-7.6,4.6-10c3.1-2.3,7-3.5,11.6-3.5c3,0,6.1,0.5,9.1,1.6c3,1,5.7,2.5,7.9,4.4l-5.1,7.4
			c-3.9-3-8-4.5-12.2-4.5C152.3,25.4,151,25.8,150,26.6z"/>
		<path class="st1" d="M213.6,17.6v9H191V36h20.3v8.6H191V54h23.3v9h-33.5V17.6H213.6z"/>
		<path class="st1" d="M255.1,17.6h10.1V63h-10.1l-21.6-28.5V63h-10.1V17.6h9.5l22.3,29.2V17.6z"/>
		<path class="st1" d="M297.3,54c5,0,9.1-2,12.2-5.9l6.5,6.7c-4.4,4.9-9.6,7.8-15.7,8.5l-1.7,3.1c2.8,1,4.2,2.6,4.2,4.9
			c0,1.9-0.8,3.5-2.3,4.9c-1.5,1.4-3.5,2.1-5.8,2.1s-4.6-0.7-6.8-2.1l2.5-5.6c1,0.8,1.8,1.2,2.5,1.2c0.7,0,1.3-0.2,1.7-0.6
			c0.4-0.4,0.6-0.9,0.6-1.5s-0.3-1.1-0.8-1.6c-0.5-0.5-1.1-0.7-1.9-0.7c-0.7,0-1.5,0.2-2.3,0.6l2.7-5.1c-5.6-1-10.2-3.5-13.8-7.8
			c-3.6-4.2-5.4-9.5-5.4-15.8c0-6.3,2.3-11.7,6.9-16.2c4.6-4.5,10.3-6.8,16.9-6.8c7.5,0,13.7,2.8,18.7,8.5l-6.3,7.2
			c-3.2-4-7.2-6-12-6c-3.8,0-7.1,1.2-9.8,3.7c-2.7,2.5-4.1,5.9-4.1,10.1s1.3,7.6,3.8,10.2C290.6,52.8,293.7,54,297.3,54z"/>
		<path class="st1" d="M356.4,63l-4.2-9.8h-19l-4.2,9.8h-10.8l19.6-45.4h9.8L367.2,63H356.4z M342.7,31.1L337,44.3h11.4L342.7,31.1z
			"/>
	</g>
	<g class="st0">
		<path class="st1" d="M38.4,96.6v9H15.7v9.4h20.3v8.6H15.7v9.4h23.3v9H5.6V96.6H38.4z"/>
		<path class="st1" d="M48.1,96.6h10.1V142H48.1V96.6z"/>
		<path class="st1" d="M101.2,96.6h10.1V142h-10.1l-21.6-28.5V142H69.4V96.6h9.5l22.3,29.2V96.6z"/>
		<path class="st1" d="M133.1,105.6c-1,0.8-1.5,1.9-1.5,3.2c0,1.3,0.6,2.4,1.8,3.2c1.2,0.8,3.9,1.7,8.3,2.8c4.3,1.1,7.7,2.7,10,4.8
			c2.4,2.1,3.6,5.2,3.6,9.3c0,4.1-1.5,7.4-4.6,9.9s-7.1,3.8-12.1,3.8c-7.2,0-13.7-2.7-19.4-8l6-7.4c4.9,4.3,9.4,6.4,13.6,6.4
			c1.9,0,3.3-0.4,4.4-1.2c1.1-0.8,1.6-1.9,1.6-3.2s-0.6-2.4-1.7-3.2c-1.1-0.8-3.4-1.6-6.7-2.4c-5.3-1.3-9.2-2.9-11.6-4.9
			c-2.4-2-3.7-5.2-3.7-9.5c0-4.3,1.5-7.6,4.6-10c3.1-2.3,7-3.5,11.6-3.5c3,0,6.1,0.5,9.1,1.6c3,1,5.7,2.5,7.9,4.4l-5.1,7.4
			c-3.9-3-8-4.5-12.2-4.5C135.5,104.4,134.1,104.8,133.1,105.6z"/>
		<path class="st1" d="M182.8,105.3V142h-10.1v-36.7h-12.9v-8.8h35.9v8.8H182.8z"/>
		<path class="st1" d="M235.9,96.6v9h-22.6v9.4h20.3v8.6h-20.3v9.4h23.3v9h-33.5V96.6H235.9z"/>
		<path class="st1" d="M245.6,96.6h10.1V142h-10.1V96.6z"/>
		<path class="st1" d="M298.7,96.6h10.1V142h-10.1l-21.6-28.5V142h-10.1V96.6h9.5l22.3,29.2V96.6z"/>
	</g>
	<g transform="matrix(1, 0, 0, 1, 0, 0)" class="st2">
		<g class="st0">
			<path class="st1" d="M36.9,21.6c3.2,2.7,4.8,6.9,4.8,12.5c0,5.6-1.6,9.7-4.9,12.3c-3.3,2.6-8.3,3.9-15,3.9h-6V63H5.6V17.6h16.1
				C28.6,17.6,33.7,18.9,36.9,21.6z M29.4,39.5c1.2-1.4,1.8-3.4,1.8-6c0-2.6-0.8-4.5-2.4-5.6c-1.6-1.1-4-1.7-7.4-1.7h-5.8v15.3h6.8
				C25.9,41.5,28.2,40.9,29.4,39.5z"/>
			<path class="st1" d="M86.4,32.6c0,7.3-2.9,12-8.6,14.1L89.3,63H76.8L66.8,48.5h-7V63H49.6V17.6h17.2c7.1,0,12.1,1.2,15.1,3.6
				C84.9,23.5,86.4,27.4,86.4,32.6z M74.2,38c1.3-1.1,1.9-2.9,1.9-5.4s-0.6-4.1-1.9-5c-1.3-0.9-3.6-1.4-6.8-1.4h-7.6v13.5h7.4
				C70.6,39.7,73,39.2,74.2,38z"/>
			<path class="st1" d="M129.6,17.6v9H107V36h20.3v8.6H107V54h23.3v9H96.8V17.6H129.6z"/>
			<path class="st1" d="M150,26.6c-1,0.8-1.5,1.9-1.5,3.2c0,1.3,0.6,2.4,1.8,3.2c1.2,0.8,3.9,1.7,8.3,2.8c4.3,1.1,7.7,2.7,10,4.8
				c2.4,2.1,3.6,5.2,3.6,9.3c0,4.1-1.5,7.4-4.6,9.9s-7.1,3.8-12.1,3.8c-7.2,0-13.7-2.7-19.4-8l6-7.4c4.9,4.3,9.4,6.4,13.6,6.4
				c1.9,0,3.3-0.4,4.4-1.2c1.1-0.8,1.6-1.9,1.6-3.2s-0.6-2.4-1.7-3.2c-1.1-0.8-3.4-1.6-6.7-2.4c-5.3-1.3-9.2-2.9-11.6-4.9
				c-2.4-2-3.7-5.2-3.7-9.5c0-4.3,1.5-7.6,4.6-10c3.1-2.3,7-3.5,11.6-3.5c3,0,6.1,0.5,9.1,1.6c3,1,5.7,2.5,7.9,4.4l-5.1,7.4
				c-3.9-3-8-4.5-12.2-4.5C152.3,25.4,151,25.8,150,26.6z"/>
			<path class="st1" d="M213.6,17.6v9H191V36h20.3v8.6H191V54h23.3v9h-33.5V17.6H213.6z"/>
			<path class="st1" d="M255.1,17.6h10.1V63h-10.1l-21.6-28.5V63h-10.1V17.6h9.5l22.3,29.2V17.6z"/>
			<path class="st1" d="M297.3,54c5,0,9.1-2,12.2-5.9l6.5,6.7c-4.4,4.9-9.6,7.8-15.7,8.5l-1.7,3.1c2.8,1,4.2,2.6,4.2,4.9
				c0,1.9-0.8,3.5-2.3,4.9c-1.5,1.4-3.5,2.1-5.8,2.1s-4.6-0.7-6.8-2.1l2.5-5.6c1,0.8,1.8,1.2,2.5,1.2c0.7,0,1.3-0.2,1.7-0.6
				c0.4-0.4,0.6-0.9,0.6-1.5s-0.3-1.1-0.8-1.6c-0.5-0.5-1.1-0.7-1.9-0.7c-0.7,0-1.5,0.2-2.3,0.6l2.7-5.1c-5.6-1-10.2-3.5-13.8-7.8
				c-3.6-4.2-5.4-9.5-5.4-15.8c0-6.3,2.3-11.7,6.9-16.2c4.6-4.5,10.3-6.8,16.9-6.8c7.5,0,13.7,2.8,18.7,8.5l-6.3,7.2
				c-3.2-4-7.2-6-12-6c-3.8,0-7.1,1.2-9.8,3.7c-2.7,2.5-4.1,5.9-4.1,10.1s1.3,7.6,3.8,10.2C290.6,52.8,293.7,54,297.3,54z"/>
			<path class="st1" d="M356.4,63l-4.2-9.8h-19l-4.2,9.8h-10.8l19.6-45.4h9.8L367.2,63H356.4z M342.7,31.1L337,44.3h11.4L342.7,31.1
				z"/>
		</g>
		<g class="st0">
			<path class="st1" d="M38.4,96.6v9H15.7v9.4h20.3v8.6H15.7v9.4h23.3v9H5.6V96.6H38.4z"/>
			<path class="st1" d="M48.1,96.6h10.1V142H48.1V96.6z"/>
			<path class="st1" d="M101.2,96.6h10.1V142h-10.1l-21.6-28.5V142H69.4V96.6h9.5l22.3,29.2V96.6z"/>
			<path class="st1" d="M133.1,105.6c-1,0.8-1.5,1.9-1.5,3.2c0,1.3,0.6,2.4,1.8,3.2c1.2,0.8,3.9,1.7,8.3,2.8c4.3,1.1,7.7,2.7,10,4.8
				c2.4,2.1,3.6,5.2,3.6,9.3c0,4.1-1.5,7.4-4.6,9.9s-7.1,3.8-12.1,3.8c-7.2,0-13.7-2.7-19.4-8l6-7.4c4.9,4.3,9.4,6.4,13.6,6.4
				c1.9,0,3.3-0.4,4.4-1.2c1.1-0.8,1.6-1.9,1.6-3.2s-0.6-2.4-1.7-3.2c-1.1-0.8-3.4-1.6-6.7-2.4c-5.3-1.3-9.2-2.9-11.6-4.9
				c-2.4-2-3.7-5.2-3.7-9.5c0-4.3,1.5-7.6,4.6-10c3.1-2.3,7-3.5,11.6-3.5c3,0,6.1,0.5,9.1,1.6c3,1,5.7,2.5,7.9,4.4l-5.1,7.4
				c-3.9-3-8-4.5-12.2-4.5C135.5,104.4,134.1,104.8,133.1,105.6z"/>
			<path class="st1" d="M182.8,105.3V142h-10.1v-36.7h-12.9v-8.8h35.9v8.8H182.8z"/>
			<path class="st1" d="M235.9,96.6v9h-22.6v9.4h20.3v8.6h-20.3v9.4h23.3v9h-33.5V96.6H235.9z"/>
			<path class="st1" d="M245.6,96.6h10.1V142h-10.1V96.6z"/>
			<path class="st1" d="M298.7,96.6h10.1V142h-10.1l-21.6-28.5V142h-10.1V96.6h9.5l22.3,29.2V96.6z"/>
		</g>
	</g>
</g>
</svg>
