<svg xmlns="http://www.w3.org/2000/svg" width="1446" height="1256" viewBox="0 0 1446 1256">
  <g id="VIDEO" transform="translate(-237 -2438)">
    <rect id="Retângulo_2658" data-name="Retângulo 2658" width="1446" height="1256" transform="translate(237 2438)" fill="#414548"/>
    <g id="ICONES" transform="translate(17.4 -33.117)">
      <g id="Expanded" transform="translate(1408 2550.233)" opacity="0.02">
        <g id="Grupo_726" data-name="Grupo 726" transform="translate(0 6)">
          <g id="Grupo_718" data-name="Grupo 718" transform="translate(9.633 48.167)">
            <path id="Caminho_6140" data-name="Caminho 6140" d="M151.317,131.6H16.45A14.468,14.468,0,0,1,2,117.15V30.45A14.468,14.468,0,0,1,16.45,16H151.317a14.468,14.468,0,0,1,14.45,14.45v86.7A14.468,14.468,0,0,1,151.317,131.6ZM16.45,25.633a4.822,4.822,0,0,0-4.817,4.817v86.7a4.822,4.822,0,0,0,4.817,4.817H151.317a4.822,4.822,0,0,0,4.817-4.817V30.45a4.822,4.822,0,0,0-4.817-4.817Z" transform="translate(-2 -16)" fill="#fff"/>
          </g>
          <g id="Grupo_719" data-name="Grupo 719" transform="translate(38.533 91.517)">
            <path id="Caminho_6141" data-name="Caminho 6141" d="M27.267,63.533A19.267,19.267,0,1,1,46.533,44.267,19.286,19.286,0,0,1,27.267,63.533Zm0-28.9A9.633,9.633,0,1,0,36.9,44.267,9.643,9.643,0,0,0,27.267,34.633Z" transform="translate(-8 -25)" fill="#fff"/>
          </g>
          <g id="Grupo_720" data-name="Grupo 720" transform="translate(105.967 91.517)">
            <path id="Caminho_6142" data-name="Caminho 6142" d="M41.267,63.533A19.267,19.267,0,1,1,60.533,44.267,19.286,19.286,0,0,1,41.267,63.533Zm0-28.9A9.633,9.633,0,1,0,50.9,44.267,9.643,9.643,0,0,0,41.267,34.633Z" transform="translate(-22 -25)" fill="#fff"/>
          </g>
          <g id="Grupo_721" data-name="Grupo 721" transform="translate(52.983 91.517)">
            <path id="Caminho_6143" data-name="Caminho 6143" d="M83.25,34.633H15.817a4.817,4.817,0,1,1,0-9.633H83.25a4.817,4.817,0,0,1,0,9.633Z" transform="translate(-11 -25)" fill="#fff"/>
          </g>
          <g id="Grupo_722" data-name="Grupo 722" transform="translate(0 19.267)">
            <path id="Caminho_6144" data-name="Caminho 6144" d="M110.783,48.533a4.815,4.815,0,0,1-4.817-4.817V24.45a4.822,4.822,0,0,0-4.817-4.817H4.817a4.817,4.817,0,1,1,0-9.633H101.15A14.468,14.468,0,0,1,115.6,24.45V43.717A4.815,4.815,0,0,1,110.783,48.533Z" transform="translate(0 -10)" fill="#fff"/>
          </g>
          <g id="Grupo_723" data-name="Grupo 723" transform="translate(144.5 9.633)">
            <path id="Caminho_6145" data-name="Caminho 6145" d="M34.817,56.167A4.815,4.815,0,0,1,30,51.35V22.45A14.468,14.468,0,0,1,44.45,8H63.717a4.817,4.817,0,0,1,0,9.633H44.45a4.822,4.822,0,0,0-4.817,4.817v28.9A4.815,4.815,0,0,1,34.817,56.167Z" transform="translate(-30 -8)" fill="#fff"/>
          </g>
          <g id="Grupo_724" data-name="Grupo 724" transform="translate(173.4)">
            <path id="Caminho_6146" data-name="Caminho 6146" d="M79.35,34.9H50.45a14.45,14.45,0,0,1,0-28.9h28.9a14.45,14.45,0,0,1,0,28.9ZM50.45,15.633a4.817,4.817,0,0,0,0,9.633h28.9a4.817,4.817,0,1,0,0-9.633Z" transform="translate(-36 -6)" fill="#fff"/>
          </g>
          <g id="Grupo_725" data-name="Grupo 725" transform="translate(163.764 70.019)">
            <path id="Caminho_6147" data-name="Caminho 6147" d="M91.431,102.06a9.993,9.993,0,0,1-3.844-.771L36.964,80.2a4.817,4.817,0,0,1,3.709-8.892L91.291,92.4l.511-.342V30.547l-2.365-4.788L91.291,30.2,40.673,51.3a4.817,4.817,0,0,1-3.709-8.892L87.583,21.313a10,10,0,0,1,13.853,9.234V92.055a10,10,0,0,1-10,10Z" transform="translate(-33.999 -20.537)" fill="#fff"/>
          </g>
        </g>
      </g>
      <g id="Expanded-2" data-name="Expanded" transform="translate(446 3472.233)" opacity="0.02">
        <g id="Grupo_726-2" data-name="Grupo 726" transform="translate(0 6)">
          <g id="Grupo_718-2" data-name="Grupo 718" transform="translate(9.633 48.167)">
            <path id="Caminho_6140-2" data-name="Caminho 6140" d="M151.317,131.6H16.45A14.468,14.468,0,0,1,2,117.15V30.45A14.468,14.468,0,0,1,16.45,16H151.317a14.468,14.468,0,0,1,14.45,14.45v86.7A14.468,14.468,0,0,1,151.317,131.6ZM16.45,25.633a4.822,4.822,0,0,0-4.817,4.817v86.7a4.822,4.822,0,0,0,4.817,4.817H151.317a4.822,4.822,0,0,0,4.817-4.817V30.45a4.822,4.822,0,0,0-4.817-4.817Z" transform="translate(-2 -16)" fill="#fff"/>
          </g>
          <g id="Grupo_719-2" data-name="Grupo 719" transform="translate(38.533 91.517)">
            <path id="Caminho_6141-2" data-name="Caminho 6141" d="M27.267,63.533A19.267,19.267,0,1,1,46.533,44.267,19.286,19.286,0,0,1,27.267,63.533Zm0-28.9A9.633,9.633,0,1,0,36.9,44.267,9.643,9.643,0,0,0,27.267,34.633Z" transform="translate(-8 -25)" fill="#fff"/>
          </g>
          <g id="Grupo_720-2" data-name="Grupo 720" transform="translate(105.967 91.517)">
            <path id="Caminho_6142-2" data-name="Caminho 6142" d="M41.267,63.533A19.267,19.267,0,1,1,60.533,44.267,19.286,19.286,0,0,1,41.267,63.533Zm0-28.9A9.633,9.633,0,1,0,50.9,44.267,9.643,9.643,0,0,0,41.267,34.633Z" transform="translate(-22 -25)" fill="#fff"/>
          </g>
          <g id="Grupo_721-2" data-name="Grupo 721" transform="translate(52.983 91.517)">
            <path id="Caminho_6143-2" data-name="Caminho 6143" d="M83.25,34.633H15.817a4.817,4.817,0,1,1,0-9.633H83.25a4.817,4.817,0,0,1,0,9.633Z" transform="translate(-11 -25)" fill="#fff"/>
          </g>
          <g id="Grupo_722-2" data-name="Grupo 722" transform="translate(0 19.267)">
            <path id="Caminho_6144-2" data-name="Caminho 6144" d="M110.783,48.533a4.815,4.815,0,0,1-4.817-4.817V24.45a4.822,4.822,0,0,0-4.817-4.817H4.817a4.817,4.817,0,1,1,0-9.633H101.15A14.468,14.468,0,0,1,115.6,24.45V43.717A4.815,4.815,0,0,1,110.783,48.533Z" transform="translate(0 -10)" fill="#fff"/>
          </g>
          <g id="Grupo_723-2" data-name="Grupo 723" transform="translate(144.5 9.633)">
            <path id="Caminho_6145-2" data-name="Caminho 6145" d="M34.817,56.167A4.815,4.815,0,0,1,30,51.35V22.45A14.468,14.468,0,0,1,44.45,8H63.717a4.817,4.817,0,0,1,0,9.633H44.45a4.822,4.822,0,0,0-4.817,4.817v28.9A4.815,4.815,0,0,1,34.817,56.167Z" transform="translate(-30 -8)" fill="#fff"/>
          </g>
          <g id="Grupo_724-2" data-name="Grupo 724" transform="translate(173.4)">
            <path id="Caminho_6146-2" data-name="Caminho 6146" d="M79.35,34.9H50.45a14.45,14.45,0,0,1,0-28.9h28.9a14.45,14.45,0,0,1,0,28.9ZM50.45,15.633a4.817,4.817,0,0,0,0,9.633h28.9a4.817,4.817,0,1,0,0-9.633Z" transform="translate(-36 -6)" fill="#fff"/>
          </g>
          <g id="Grupo_725-2" data-name="Grupo 725" transform="translate(163.764 70.019)">
            <path id="Caminho_6147-2" data-name="Caminho 6147" d="M91.431,102.06a9.993,9.993,0,0,1-3.844-.771L36.964,80.2a4.817,4.817,0,0,1,3.709-8.892L91.291,92.4l.511-.342V30.547l-2.365-4.788L91.291,30.2,40.673,51.3a4.817,4.817,0,0,1-3.709-8.892L87.583,21.313a10,10,0,0,1,13.853,9.234V92.055a10,10,0,0,1-10,10Z" transform="translate(-33.999 -20.537)" fill="#fff"/>
          </g>
        </g>
      </g>
      <g id="Expanded-3" data-name="Expanded" transform="translate(1308.4 3418.067)" opacity="0.02">
        <g id="Grupo_726-3" data-name="Grupo 726" transform="translate(0 6)">
          <g id="Grupo_718-3" data-name="Grupo 718" transform="translate(9.633 48.167)">
            <path id="Caminho_6140-3" data-name="Caminho 6140" d="M151.317,131.6H16.45A14.468,14.468,0,0,1,2,117.15V30.45A14.468,14.468,0,0,1,16.45,16H151.317a14.468,14.468,0,0,1,14.45,14.45v86.7A14.468,14.468,0,0,1,151.317,131.6ZM16.45,25.633a4.822,4.822,0,0,0-4.817,4.817v86.7a4.822,4.822,0,0,0,4.817,4.817H151.317a4.822,4.822,0,0,0,4.817-4.817V30.45a4.822,4.822,0,0,0-4.817-4.817Z" transform="translate(-2 -16)" fill="#fff"/>
          </g>
          <g id="Grupo_719-3" data-name="Grupo 719" transform="translate(38.533 91.517)">
            <path id="Caminho_6141-3" data-name="Caminho 6141" d="M27.267,63.533A19.267,19.267,0,1,1,46.533,44.267,19.286,19.286,0,0,1,27.267,63.533Zm0-28.9A9.633,9.633,0,1,0,36.9,44.267,9.643,9.643,0,0,0,27.267,34.633Z" transform="translate(-8 -25)" fill="#fff"/>
          </g>
          <g id="Grupo_720-3" data-name="Grupo 720" transform="translate(105.967 91.517)">
            <path id="Caminho_6142-3" data-name="Caminho 6142" d="M41.267,63.533A19.267,19.267,0,1,1,60.533,44.267,19.286,19.286,0,0,1,41.267,63.533Zm0-28.9A9.633,9.633,0,1,0,50.9,44.267,9.643,9.643,0,0,0,41.267,34.633Z" transform="translate(-22 -25)" fill="#fff"/>
          </g>
          <g id="Grupo_721-3" data-name="Grupo 721" transform="translate(52.983 91.517)">
            <path id="Caminho_6143-3" data-name="Caminho 6143" d="M83.25,34.633H15.817a4.817,4.817,0,1,1,0-9.633H83.25a4.817,4.817,0,0,1,0,9.633Z" transform="translate(-11 -25)" fill="#fff"/>
          </g>
          <g id="Grupo_722-3" data-name="Grupo 722" transform="translate(0 19.267)">
            <path id="Caminho_6144-3" data-name="Caminho 6144" d="M110.783,48.533a4.815,4.815,0,0,1-4.817-4.817V24.45a4.822,4.822,0,0,0-4.817-4.817H4.817a4.817,4.817,0,1,1,0-9.633H101.15A14.468,14.468,0,0,1,115.6,24.45V43.717A4.815,4.815,0,0,1,110.783,48.533Z" transform="translate(0 -10)" fill="#fff"/>
          </g>
          <g id="Grupo_723-3" data-name="Grupo 723" transform="translate(144.5 9.633)">
            <path id="Caminho_6145-3" data-name="Caminho 6145" d="M34.817,56.167A4.815,4.815,0,0,1,30,51.35V22.45A14.468,14.468,0,0,1,44.45,8H63.717a4.817,4.817,0,0,1,0,9.633H44.45a4.822,4.822,0,0,0-4.817,4.817v28.9A4.815,4.815,0,0,1,34.817,56.167Z" transform="translate(-30 -8)" fill="#fff"/>
          </g>
          <g id="Grupo_724-3" data-name="Grupo 724" transform="translate(173.4)">
            <path id="Caminho_6146-3" data-name="Caminho 6146" d="M79.35,34.9H50.45a14.45,14.45,0,0,1,0-28.9h28.9a14.45,14.45,0,0,1,0,28.9ZM50.45,15.633a4.817,4.817,0,0,0,0,9.633h28.9a4.817,4.817,0,1,0,0-9.633Z" transform="translate(-36 -6)" fill="#fff"/>
          </g>
          <g id="Grupo_725-3" data-name="Grupo 725" transform="translate(163.764 70.019)">
            <path id="Caminho_6147-3" data-name="Caminho 6147" d="M91.431,102.06a9.993,9.993,0,0,1-3.844-.771L36.964,80.2a4.817,4.817,0,0,1,3.709-8.892L91.291,92.4l.511-.342V30.547l-2.365-4.788L91.291,30.2,40.673,51.3a4.817,4.817,0,0,1-3.709-8.892L87.583,21.313a10,10,0,0,1,13.853,9.234V92.055a10,10,0,0,1-10,10Z" transform="translate(-33.999 -20.537)" fill="#fff"/>
          </g>
        </g>
      </g>
      <g id="Expanded-4" data-name="Expanded" transform="translate(474.4 2896.233)" opacity="0.02">
        <g id="Grupo_726-4" data-name="Grupo 726" transform="translate(0 6)">
          <g id="Grupo_718-4" data-name="Grupo 718" transform="translate(9.633 48.167)">
            <path id="Caminho_6140-4" data-name="Caminho 6140" d="M151.317,131.6H16.45A14.468,14.468,0,0,1,2,117.15V30.45A14.468,14.468,0,0,1,16.45,16H151.317a14.468,14.468,0,0,1,14.45,14.45v86.7A14.468,14.468,0,0,1,151.317,131.6ZM16.45,25.633a4.822,4.822,0,0,0-4.817,4.817v86.7a4.822,4.822,0,0,0,4.817,4.817H151.317a4.822,4.822,0,0,0,4.817-4.817V30.45a4.822,4.822,0,0,0-4.817-4.817Z" transform="translate(-2 -16)" fill="#fff"/>
          </g>
          <g id="Grupo_719-4" data-name="Grupo 719" transform="translate(38.533 91.517)">
            <path id="Caminho_6141-4" data-name="Caminho 6141" d="M27.267,63.533A19.267,19.267,0,1,1,46.533,44.267,19.286,19.286,0,0,1,27.267,63.533Zm0-28.9A9.633,9.633,0,1,0,36.9,44.267,9.643,9.643,0,0,0,27.267,34.633Z" transform="translate(-8 -25)" fill="#fff"/>
          </g>
          <g id="Grupo_720-4" data-name="Grupo 720" transform="translate(105.967 91.517)">
            <path id="Caminho_6142-4" data-name="Caminho 6142" d="M41.267,63.533A19.267,19.267,0,1,1,60.533,44.267,19.286,19.286,0,0,1,41.267,63.533Zm0-28.9A9.633,9.633,0,1,0,50.9,44.267,9.643,9.643,0,0,0,41.267,34.633Z" transform="translate(-22 -25)" fill="#fff"/>
          </g>
          <g id="Grupo_721-4" data-name="Grupo 721" transform="translate(52.983 91.517)">
            <path id="Caminho_6143-4" data-name="Caminho 6143" d="M83.25,34.633H15.817a4.817,4.817,0,1,1,0-9.633H83.25a4.817,4.817,0,0,1,0,9.633Z" transform="translate(-11 -25)" fill="#fff"/>
          </g>
          <g id="Grupo_722-4" data-name="Grupo 722" transform="translate(0 19.267)">
            <path id="Caminho_6144-4" data-name="Caminho 6144" d="M110.783,48.533a4.815,4.815,0,0,1-4.817-4.817V24.45a4.822,4.822,0,0,0-4.817-4.817H4.817a4.817,4.817,0,1,1,0-9.633H101.15A14.468,14.468,0,0,1,115.6,24.45V43.717A4.815,4.815,0,0,1,110.783,48.533Z" transform="translate(0 -10)" fill="#fff"/>
          </g>
          <g id="Grupo_723-4" data-name="Grupo 723" transform="translate(144.5 9.633)">
            <path id="Caminho_6145-4" data-name="Caminho 6145" d="M34.817,56.167A4.815,4.815,0,0,1,30,51.35V22.45A14.468,14.468,0,0,1,44.45,8H63.717a4.817,4.817,0,0,1,0,9.633H44.45a4.822,4.822,0,0,0-4.817,4.817v28.9A4.815,4.815,0,0,1,34.817,56.167Z" transform="translate(-30 -8)" fill="#fff"/>
          </g>
          <g id="Grupo_724-4" data-name="Grupo 724" transform="translate(173.4)">
            <path id="Caminho_6146-4" data-name="Caminho 6146" d="M79.35,34.9H50.45a14.45,14.45,0,0,1,0-28.9h28.9a14.45,14.45,0,0,1,0,28.9ZM50.45,15.633a4.817,4.817,0,0,0,0,9.633h28.9a4.817,4.817,0,1,0,0-9.633Z" transform="translate(-36 -6)" fill="#fff"/>
          </g>
          <g id="Grupo_725-4" data-name="Grupo 725" transform="translate(163.764 70.019)">
            <path id="Caminho_6147-4" data-name="Caminho 6147" d="M91.431,102.06a9.993,9.993,0,0,1-3.844-.771L36.964,80.2a4.817,4.817,0,0,1,3.709-8.892L91.291,92.4l.511-.342V30.547l-2.365-4.788L91.291,30.2,40.673,51.3a4.817,4.817,0,0,1-3.709-8.892L87.583,21.313a10,10,0,0,1,13.853,9.234V92.055a10,10,0,0,1-10,10Z" transform="translate(-33.999 -20.537)" fill="#fff"/>
          </g>
        </g>
      </g>
      <g id="Expanded-5" data-name="Expanded" transform="translate(1330.4 3069.233)" opacity="0.02">
        <g id="Grupo_726-5" data-name="Grupo 726" transform="translate(0 6)">
          <g id="Grupo_718-5" data-name="Grupo 718" transform="translate(9.633 48.167)">
            <path id="Caminho_6140-5" data-name="Caminho 6140" d="M151.317,131.6H16.45A14.468,14.468,0,0,1,2,117.15V30.45A14.468,14.468,0,0,1,16.45,16H151.317a14.468,14.468,0,0,1,14.45,14.45v86.7A14.468,14.468,0,0,1,151.317,131.6ZM16.45,25.633a4.822,4.822,0,0,0-4.817,4.817v86.7a4.822,4.822,0,0,0,4.817,4.817H151.317a4.822,4.822,0,0,0,4.817-4.817V30.45a4.822,4.822,0,0,0-4.817-4.817Z" transform="translate(-2 -16)" fill="#fff"/>
          </g>
          <g id="Grupo_719-5" data-name="Grupo 719" transform="translate(38.533 91.517)">
            <path id="Caminho_6141-5" data-name="Caminho 6141" d="M27.267,63.533A19.267,19.267,0,1,1,46.533,44.267,19.286,19.286,0,0,1,27.267,63.533Zm0-28.9A9.633,9.633,0,1,0,36.9,44.267,9.643,9.643,0,0,0,27.267,34.633Z" transform="translate(-8 -25)" fill="#fff"/>
          </g>
          <g id="Grupo_720-5" data-name="Grupo 720" transform="translate(105.967 91.517)">
            <path id="Caminho_6142-5" data-name="Caminho 6142" d="M41.267,63.533A19.267,19.267,0,1,1,60.533,44.267,19.286,19.286,0,0,1,41.267,63.533Zm0-28.9A9.633,9.633,0,1,0,50.9,44.267,9.643,9.643,0,0,0,41.267,34.633Z" transform="translate(-22 -25)" fill="#fff"/>
          </g>
          <g id="Grupo_721-5" data-name="Grupo 721" transform="translate(52.983 91.517)">
            <path id="Caminho_6143-5" data-name="Caminho 6143" d="M83.25,34.633H15.817a4.817,4.817,0,1,1,0-9.633H83.25a4.817,4.817,0,0,1,0,9.633Z" transform="translate(-11 -25)" fill="#fff"/>
          </g>
          <g id="Grupo_722-5" data-name="Grupo 722" transform="translate(0 19.267)">
            <path id="Caminho_6144-5" data-name="Caminho 6144" d="M110.783,48.533a4.815,4.815,0,0,1-4.817-4.817V24.45a4.822,4.822,0,0,0-4.817-4.817H4.817a4.817,4.817,0,1,1,0-9.633H101.15A14.468,14.468,0,0,1,115.6,24.45V43.717A4.815,4.815,0,0,1,110.783,48.533Z" transform="translate(0 -10)" fill="#fff"/>
          </g>
          <g id="Grupo_723-5" data-name="Grupo 723" transform="translate(144.5 9.633)">
            <path id="Caminho_6145-5" data-name="Caminho 6145" d="M34.817,56.167A4.815,4.815,0,0,1,30,51.35V22.45A14.468,14.468,0,0,1,44.45,8H63.717a4.817,4.817,0,0,1,0,9.633H44.45a4.822,4.822,0,0,0-4.817,4.817v28.9A4.815,4.815,0,0,1,34.817,56.167Z" transform="translate(-30 -8)" fill="#fff"/>
          </g>
          <g id="Grupo_724-5" data-name="Grupo 724" transform="translate(173.4)">
            <path id="Caminho_6146-5" data-name="Caminho 6146" d="M79.35,34.9H50.45a14.45,14.45,0,0,1,0-28.9h28.9a14.45,14.45,0,0,1,0,28.9ZM50.45,15.633a4.817,4.817,0,0,0,0,9.633h28.9a4.817,4.817,0,1,0,0-9.633Z" transform="translate(-36 -6)" fill="#fff"/>
          </g>
          <g id="Grupo_725-5" data-name="Grupo 725" transform="translate(163.764 70.019)">
            <path id="Caminho_6147-5" data-name="Caminho 6147" d="M91.431,102.06a9.993,9.993,0,0,1-3.844-.771L36.964,80.2a4.817,4.817,0,0,1,3.709-8.892L91.291,92.4l.511-.342V30.547l-2.365-4.788L91.291,30.2,40.673,51.3a4.817,4.817,0,0,1-3.709-8.892L87.583,21.313a10,10,0,0,1,13.853,9.234V92.055a10,10,0,0,1-10,10Z" transform="translate(-33.999 -20.537)" fill="#fff"/>
          </g>
        </g>
      </g>
      <g id="Layer_1" transform="translate(245 3278)" opacity="0.07">
        <path id="Caminho_6148" data-name="Caminho 6148" d="M1,167H167V1H1ZM7.917,7.917H160.083V160.083H7.917Z" fill="#fff"/>
        <path id="Caminho_6149" data-name="Caminho 6149" d="M6,26.75H26.75V6H6Zm6.917-13.833h6.917v6.917H12.917Z" transform="translate(12.292 12.292)" fill="#fff"/>
        <path id="Caminho_6150" data-name="Caminho 6150" d="M6,34.75H26.75V14H6Zm6.917-13.833h6.917v6.917H12.917Z" transform="translate(12.292 31.958)" fill="#fff"/>
        <path id="Caminho_6151" data-name="Caminho 6151" d="M6,42.75H26.75V22H6Zm6.917-13.833h6.917v6.917H12.917Z" transform="translate(12.292 51.625)" fill="#fff"/>
        <path id="Caminho_6152" data-name="Caminho 6152" d="M6,50.75H26.75V30H6Zm6.917-13.833h6.917v6.917H12.917Z" transform="translate(12.292 71.292)" fill="#fff"/>
        <path id="Caminho_6153" data-name="Caminho 6153" d="M6,58.75H26.75V38H6Zm6.917-13.833h6.917v6.917H12.917Z" transform="translate(12.292 90.958)" fill="#fff"/>
        <path id="Caminho_6154" data-name="Caminho 6154" d="M38,26.75H58.75V6H38Zm6.917-13.833h6.917v6.917H44.917Z" transform="translate(90.958 12.292)" fill="#fff"/>
        <path id="Caminho_6155" data-name="Caminho 6155" d="M38,34.75H58.75V14H38Zm6.917-13.833h6.917v6.917H44.917Z" transform="translate(90.958 31.958)" fill="#fff"/>
        <path id="Caminho_6156" data-name="Caminho 6156" d="M38,42.75H58.75V22H38Zm6.917-13.833h6.917v6.917H44.917Z" transform="translate(90.958 51.625)" fill="#fff"/>
        <path id="Caminho_6157" data-name="Caminho 6157" d="M38,50.75H58.75V30H38Zm6.917-13.833h6.917v6.917H44.917Z" transform="translate(90.958 71.292)" fill="#fff"/>
        <path id="Caminho_6158" data-name="Caminho 6158" d="M38,58.75H58.75V38H38Zm6.917-13.833h6.917v6.917H44.917Z" transform="translate(90.958 90.958)" fill="#fff"/>
        <path id="Caminho_6159" data-name="Caminho 6159" d="M19,64.156,64.775,41.269,19,18.382Zm6.917-34.583,23.392,11.7-23.392,11.7Z" transform="translate(44.25 42.731)" fill="#fff"/>
      </g>
      <g id="Layer_1-2" data-name="Layer_1" transform="translate(1163 2775)" opacity="0.07">
        <path id="Caminho_6148-2" data-name="Caminho 6148" d="M1,167H167V1H1ZM7.917,7.917H160.083V160.083H7.917Z" fill="#fff"/>
        <path id="Caminho_6149-2" data-name="Caminho 6149" d="M6,26.75H26.75V6H6Zm6.917-13.833h6.917v6.917H12.917Z" transform="translate(12.292 12.292)" fill="#fff"/>
        <path id="Caminho_6150-2" data-name="Caminho 6150" d="M6,34.75H26.75V14H6Zm6.917-13.833h6.917v6.917H12.917Z" transform="translate(12.292 31.958)" fill="#fff"/>
        <path id="Caminho_6151-2" data-name="Caminho 6151" d="M6,42.75H26.75V22H6Zm6.917-13.833h6.917v6.917H12.917Z" transform="translate(12.292 51.625)" fill="#fff"/>
        <path id="Caminho_6152-2" data-name="Caminho 6152" d="M6,50.75H26.75V30H6Zm6.917-13.833h6.917v6.917H12.917Z" transform="translate(12.292 71.292)" fill="#fff"/>
        <path id="Caminho_6153-2" data-name="Caminho 6153" d="M6,58.75H26.75V38H6Zm6.917-13.833h6.917v6.917H12.917Z" transform="translate(12.292 90.958)" fill="#fff"/>
        <path id="Caminho_6154-2" data-name="Caminho 6154" d="M38,26.75H58.75V6H38Zm6.917-13.833h6.917v6.917H44.917Z" transform="translate(90.958 12.292)" fill="#fff"/>
        <path id="Caminho_6155-2" data-name="Caminho 6155" d="M38,34.75H58.75V14H38Zm6.917-13.833h6.917v6.917H44.917Z" transform="translate(90.958 31.958)" fill="#fff"/>
        <path id="Caminho_6156-2" data-name="Caminho 6156" d="M38,42.75H58.75V22H38Zm6.917-13.833h6.917v6.917H44.917Z" transform="translate(90.958 51.625)" fill="#fff"/>
        <path id="Caminho_6157-2" data-name="Caminho 6157" d="M38,50.75H58.75V30H38Zm6.917-13.833h6.917v6.917H44.917Z" transform="translate(90.958 71.292)" fill="#fff"/>
        <path id="Caminho_6158-2" data-name="Caminho 6158" d="M38,58.75H58.75V38H38Zm6.917-13.833h6.917v6.917H44.917Z" transform="translate(90.958 90.958)" fill="#fff"/>
        <path id="Caminho_6159-2" data-name="Caminho 6159" d="M19,64.156,64.775,41.269,19,18.382Zm6.917-34.583,23.392,11.7-23.392,11.7Z" transform="translate(44.25 42.731)" fill="#fff"/>
      </g>
      <g id="Layer_1-3" data-name="Layer_1" transform="translate(1025 3311)" opacity="0.07">
        <path id="Caminho_6148-3" data-name="Caminho 6148" d="M1,167H167V1H1ZM7.917,7.917H160.083V160.083H7.917Z" fill="#fff"/>
        <path id="Caminho_6149-3" data-name="Caminho 6149" d="M6,26.75H26.75V6H6Zm6.917-13.833h6.917v6.917H12.917Z" transform="translate(12.292 12.292)" fill="#fff"/>
        <path id="Caminho_6150-3" data-name="Caminho 6150" d="M6,34.75H26.75V14H6Zm6.917-13.833h6.917v6.917H12.917Z" transform="translate(12.292 31.958)" fill="#fff"/>
        <path id="Caminho_6151-3" data-name="Caminho 6151" d="M6,42.75H26.75V22H6Zm6.917-13.833h6.917v6.917H12.917Z" transform="translate(12.292 51.625)" fill="#fff"/>
        <path id="Caminho_6152-3" data-name="Caminho 6152" d="M6,50.75H26.75V30H6Zm6.917-13.833h6.917v6.917H12.917Z" transform="translate(12.292 71.292)" fill="#fff"/>
        <path id="Caminho_6153-3" data-name="Caminho 6153" d="M6,58.75H26.75V38H6Zm6.917-13.833h6.917v6.917H12.917Z" transform="translate(12.292 90.958)" fill="#fff"/>
        <path id="Caminho_6154-3" data-name="Caminho 6154" d="M38,26.75H58.75V6H38Zm6.917-13.833h6.917v6.917H44.917Z" transform="translate(90.958 12.292)" fill="#fff"/>
        <path id="Caminho_6155-3" data-name="Caminho 6155" d="M38,34.75H58.75V14H38Zm6.917-13.833h6.917v6.917H44.917Z" transform="translate(90.958 31.958)" fill="#fff"/>
        <path id="Caminho_6156-3" data-name="Caminho 6156" d="M38,42.75H58.75V22H38Zm6.917-13.833h6.917v6.917H44.917Z" transform="translate(90.958 51.625)" fill="#fff"/>
        <path id="Caminho_6157-3" data-name="Caminho 6157" d="M38,50.75H58.75V30H38Zm6.917-13.833h6.917v6.917H44.917Z" transform="translate(90.958 71.292)" fill="#fff"/>
        <path id="Caminho_6158-3" data-name="Caminho 6158" d="M38,58.75H58.75V38H38Zm6.917-13.833h6.917v6.917H44.917Z" transform="translate(90.958 90.958)" fill="#fff"/>
        <path id="Caminho_6159-3" data-name="Caminho 6159" d="M19,64.156,64.775,41.269,19,18.382Zm6.917-34.583,23.392,11.7-23.392,11.7Z" transform="translate(44.25 42.731)" fill="#fff"/>
      </g>
    </g>
  </g>
</svg>
