<?xml version="1.0" encoding="utf-8"?>
<!-- Generator: Adobe Illustrator 28.0.0, SVG Export Plug-In . SVG Version: 6.00 Build 0)  -->
<svg version="1.1" id="Camada_1" xmlns="http://www.w3.org/2000/svg" xmlns:xlink="http://www.w3.org/1999/xlink" x="0px" y="0px"
	 viewBox="0 0 707 158" style="enable-background:new 0 0 707 158;" xml:space="preserve">
<style type="text/css">
	.st0{enable-background:new    ;}
	.st1{fill:#FFFFFF;}
	.st2{filter:url(#GESTÃO_DE_DESEMPENHO_);}
</style>
<filter  id="GESTÃO_DE_DESEMPENHO_">
	<feOffset  dy="3" input="SourceAlpha"></feOffset>
	<feGaussianBlur  result="blur" stdDeviation="1.5"></feGaussianBlur>
	<feFlood  flood-opacity="0.161" result="color"></feFlood>
	<feComposite  in="SourceGraphic" in2="blur" operator="out"></feComposite>
	<feComposite  in="color" operator="in"></feComposite>
	<feComposite  in2="SourceGraphic" operator="in"></feComposite>
</filter>
<g>
	<g class="st0">
		<path class="st1" d="M35.1,39.9h10.2V56c-4.5,5-10.7,7.5-18.7,7.5c-6.7,0-12.3-2.2-16.8-6.6C5.3,52.5,3,46.9,3,40.2
			c0-6.7,2.3-12.4,6.9-16.9c4.6-4.5,10.2-6.8,16.7-6.8c6.5,0,12.2,2.1,17,6.4l-5.3,7.6c-2-1.8-3.9-3-5.6-3.7c-1.7-0.7-3.6-1-5.6-1
			c-3.9,0-7.1,1.3-9.8,3.9c-2.6,2.6-4,6.1-4,10.4s1.3,7.7,3.8,10.3c2.5,2.6,5.6,3.9,9.1,3.9c3.5,0,6.4-0.7,8.8-2V39.9z"/>
		<path class="st1" d="M87.1,17.6v9H64.5V36h20.3v8.6H64.5V54h23.3v9H54.3V17.6H87.1z"/>
		<path class="st1" d="M107.5,26.6c-1,0.8-1.5,1.9-1.5,3.2c0,1.3,0.6,2.4,1.8,3.2c1.2,0.8,3.9,1.7,8.3,2.8c4.3,1.1,7.7,2.7,10,4.8
			c2.4,2.1,3.6,5.2,3.6,9.3c0,4.1-1.5,7.4-4.6,9.9s-7.1,3.8-12.1,3.8c-7.2,0-13.7-2.7-19.4-8l6-7.4c4.9,4.3,9.4,6.4,13.6,6.4
			c1.9,0,3.3-0.4,4.4-1.2c1.1-0.8,1.6-1.9,1.6-3.2s-0.6-2.4-1.7-3.2c-1.1-0.8-3.4-1.6-6.7-2.4c-5.3-1.3-9.2-2.9-11.6-4.9
			c-2.4-2-3.7-5.2-3.7-9.5c0-4.3,1.5-7.6,4.6-10c3.1-2.3,7-3.5,11.6-3.5c3,0,6.1,0.5,9.1,1.6c3,1,5.7,2.5,7.9,4.4l-5.1,7.4
			c-3.9-3-8-4.5-12.2-4.5C109.8,25.4,108.5,25.8,107.5,26.6z"/>
		<path class="st1" d="M157.2,26.3V63H147V26.3h-12.9v-8.8H170v8.8H157.2z"/>
		<path class="st1" d="M209.8,63l-4.2-9.8h-19l-4.2,9.8h-10.8l19.6-45.4h9.8L220.6,63H209.8z M191.9,9.6c-1.3,0-2,1.1-2,3.4h-6.9
			c0-3.2,0.7-5.8,2.1-7.7c1.4-1.9,3.2-2.8,5.4-2.8c1.4,0,3.1,0.6,5,1.8c2,1.2,3.2,1.8,3.6,1.8c1.3,0,2-1.1,1.9-3.4h6.9
			c0,3.2-0.7,5.8-2.1,7.7c-1.4,1.9-3.2,2.8-5.4,2.8c-1.3,0-3-0.6-5.1-1.8C193.5,10.2,192.3,9.6,191.9,9.6z M196.1,31.1l-5.7,13.2
			h11.4L196.1,31.1z"/>
		<path class="st1" d="M264.1,56.7c-4.6,4.5-10.2,6.7-17,6.7c-6.7,0-12.4-2.2-17-6.7c-4.6-4.5-6.9-10.1-6.9-16.7
			c0-6.7,2.3-12.3,6.9-16.7c4.6-4.5,10.2-6.7,17-6.7c6.7,0,12.4,2.2,17,6.7c4.6,4.5,6.9,10.1,6.9,16.7
			C271,46.7,268.7,52.2,264.1,56.7z M260.6,40c0-4.1-1.3-7.5-3.9-10.4c-2.6-2.9-5.8-4.3-9.6-4.3c-3.8,0-7,1.4-9.6,4.3
			c-2.6,2.9-3.9,6.3-3.9,10.4c0,4.1,1.3,7.5,3.9,10.3c2.6,2.8,5.8,4.3,9.6,4.3c3.8,0,7-1.4,9.6-4.3C259.3,47.5,260.6,44.1,260.6,40z
			"/>
		<path class="st1" d="M331.4,23.5c4.3,4,6.5,9.5,6.5,16.5c0,7.1-2.1,12.7-6.3,16.8c-4.2,4.1-10.7,6.2-19.3,6.2h-15.5V17.6h16.1
			C320.9,17.6,327.1,19.5,331.4,23.5z M324,50.5c2.5-2.3,3.7-5.7,3.7-10.2s-1.2-7.9-3.7-10.3c-2.5-2.4-6.3-3.6-11.5-3.6h-5.7V54h6.4
			C317.9,54,321.5,52.9,324,50.5z"/>
		<path class="st1" d="M379.5,17.6v9h-22.6V36h20.3v8.6h-20.3V54h23.3v9h-33.5V17.6H379.5z"/>
	</g>
	<g class="st0">
		<path class="st1" d="M40.3,102.5c4.3,4,6.5,9.5,6.5,16.5c0,7.1-2.1,12.7-6.3,16.8c-4.2,4.1-10.7,6.2-19.3,6.2H5.6V96.6h16.1
			C29.7,96.6,36,98.5,40.3,102.5z M32.9,129.5c2.5-2.3,3.7-5.7,3.7-10.2s-1.2-7.9-3.7-10.3c-2.5-2.4-6.3-3.6-11.5-3.6h-5.7V133h6.4
			C26.8,133,30.4,131.9,32.9,129.5z"/>
		<path class="st1" d="M88.3,96.6v9H65.7v9.4h20.3v8.6H65.7v9.4H89v9H55.6V96.6H88.3z"/>
		<path class="st1" d="M108.7,105.6c-1,0.8-1.5,1.9-1.5,3.2c0,1.3,0.6,2.4,1.8,3.2c1.2,0.8,3.9,1.7,8.3,2.8c4.3,1.1,7.7,2.7,10,4.8
			c2.4,2.1,3.6,5.2,3.6,9.3c0,4.1-1.5,7.4-4.6,9.9s-7.1,3.8-12.1,3.8c-7.2,0-13.7-2.7-19.4-8l6-7.4c4.9,4.3,9.4,6.4,13.6,6.4
			c1.9,0,3.3-0.4,4.4-1.2c1.1-0.8,1.6-1.9,1.6-3.2s-0.6-2.4-1.7-3.2c-1.1-0.8-3.4-1.6-6.7-2.4c-5.3-1.3-9.2-2.9-11.6-4.9
			c-2.4-2-3.7-5.2-3.7-9.5c0-4.3,1.5-7.6,4.6-10c3.1-2.3,7-3.5,11.6-3.5c3,0,6.1,0.5,9.1,1.6c3,1,5.7,2.5,7.9,4.4l-5.1,7.4
			c-3.9-3-8-4.5-12.2-4.5C111,104.4,109.7,104.8,108.7,105.6z"/>
		<path class="st1" d="M172.3,96.6v9h-22.6v9.4H170v8.6h-20.3v9.4H173v9h-33.5V96.6H172.3z"/>
		<path class="st1" d="M222.8,113.4l-12.3,24.8h-6l-12.2-24.8V142h-10.1V96.6h13.7l11.7,25l11.8-25h13.6V142h-10.1V113.4z"/>
		<path class="st1" d="M275.4,100.6c3.2,2.7,4.8,6.9,4.8,12.5c0,5.6-1.6,9.7-4.9,12.3c-3.3,2.6-8.3,3.9-15,3.9h-6V142h-10.1V96.6
			h16.1C267.1,96.6,272.2,97.9,275.4,100.6z M267.9,118.5c1.2-1.4,1.8-3.4,1.8-6c0-2.6-0.8-4.5-2.4-5.6c-1.6-1.1-4-1.7-7.4-1.7h-5.8
			v15.3h6.8C264.4,120.5,266.7,119.9,267.9,118.5z"/>
		<path class="st1" d="M320.8,96.6v9h-22.6v9.4h20.3v8.6h-20.3v9.4h23.3v9h-33.5V96.6H320.8z"/>
		<path class="st1" d="M362.4,96.6h10.1V142h-10.1l-21.6-28.5V142h-10.1V96.6h9.5l22.3,29.2V96.6z"/>
		<path class="st1" d="M411.9,96.6H422V142h-10.1v-17.9h-18.1V142h-10.1V96.6h10.1v19h18.1V96.6z"/>
		<path class="st1" d="M471.4,135.7c-4.6,4.5-10.2,6.7-17,6.7s-12.4-2.2-17-6.7c-4.6-4.5-6.9-10.1-6.9-16.7c0-6.7,2.3-12.3,6.9-16.7
			c4.6-4.5,10.2-6.7,17-6.7s12.4,2.2,17,6.7c4.6,4.5,6.9,10.1,6.9,16.7C478.3,125.7,476,131.2,471.4,135.7z M468,119
			c0-4.1-1.3-7.5-3.9-10.4c-2.6-2.9-5.8-4.3-9.6-4.3c-3.8,0-7,1.4-9.6,4.3c-2.6,2.9-3.9,6.3-3.9,10.4c0,4.1,1.3,7.5,3.9,10.3
			c2.6,2.8,5.8,4.3,9.6,4.3c3.8,0,7-1.4,9.6-4.3C466.7,126.5,468,123.1,468,119z"/>
	</g>
	<g transform="matrix(1, 0, 0, 1, 0, 0)" class="st2">
		<g class="st0">
			<path class="st1" d="M35.1,39.9h10.2V56c-4.5,5-10.7,7.5-18.7,7.5c-6.7,0-12.3-2.2-16.8-6.6C5.3,52.5,3,46.9,3,40.2
				c0-6.7,2.3-12.4,6.9-16.9c4.6-4.5,10.2-6.8,16.7-6.8c6.5,0,12.2,2.1,17,6.4l-5.3,7.6c-2-1.8-3.9-3-5.6-3.7c-1.7-0.7-3.6-1-5.6-1
				c-3.9,0-7.1,1.3-9.8,3.9c-2.6,2.6-4,6.1-4,10.4s1.3,7.7,3.8,10.3c2.5,2.6,5.6,3.9,9.1,3.9c3.5,0,6.4-0.7,8.8-2V39.9z"/>
			<path class="st1" d="M87.1,17.6v9H64.5V36h20.3v8.6H64.5V54h23.3v9H54.3V17.6H87.1z"/>
			<path class="st1" d="M107.5,26.6c-1,0.8-1.5,1.9-1.5,3.2c0,1.3,0.6,2.4,1.8,3.2c1.2,0.8,3.9,1.7,8.3,2.8c4.3,1.1,7.7,2.7,10,4.8
				c2.4,2.1,3.6,5.2,3.6,9.3c0,4.1-1.5,7.4-4.6,9.9s-7.1,3.8-12.1,3.8c-7.2,0-13.7-2.7-19.4-8l6-7.4c4.9,4.3,9.4,6.4,13.6,6.4
				c1.9,0,3.3-0.4,4.4-1.2c1.1-0.8,1.6-1.9,1.6-3.2s-0.6-2.4-1.7-3.2c-1.1-0.8-3.4-1.6-6.7-2.4c-5.3-1.3-9.2-2.9-11.6-4.9
				c-2.4-2-3.7-5.2-3.7-9.5c0-4.3,1.5-7.6,4.6-10c3.1-2.3,7-3.5,11.6-3.5c3,0,6.1,0.5,9.1,1.6c3,1,5.7,2.5,7.9,4.4l-5.1,7.4
				c-3.9-3-8-4.5-12.2-4.5C109.8,25.4,108.5,25.8,107.5,26.6z"/>
			<path class="st1" d="M157.2,26.3V63H147V26.3h-12.9v-8.8H170v8.8H157.2z"/>
			<path class="st1" d="M209.8,63l-4.2-9.8h-19l-4.2,9.8h-10.8l19.6-45.4h9.8L220.6,63H209.8z M191.9,9.6c-1.3,0-2,1.1-2,3.4h-6.9
				c0-3.2,0.7-5.8,2.1-7.7c1.4-1.9,3.2-2.8,5.4-2.8c1.4,0,3.1,0.6,5,1.8c2,1.2,3.2,1.8,3.6,1.8c1.3,0,2-1.1,1.9-3.4h6.9
				c0,3.2-0.7,5.8-2.1,7.7c-1.4,1.9-3.2,2.8-5.4,2.8c-1.3,0-3-0.6-5.1-1.8C193.5,10.2,192.3,9.6,191.9,9.6z M196.1,31.1l-5.7,13.2
				h11.4L196.1,31.1z"/>
			<path class="st1" d="M264.1,56.7c-4.6,4.5-10.2,6.7-17,6.7c-6.7,0-12.4-2.2-17-6.7c-4.6-4.5-6.9-10.1-6.9-16.7
				c0-6.7,2.3-12.3,6.9-16.7c4.6-4.5,10.2-6.7,17-6.7c6.7,0,12.4,2.2,17,6.7c4.6,4.5,6.9,10.1,6.9,16.7
				C271,46.7,268.7,52.2,264.1,56.7z M260.6,40c0-4.1-1.3-7.5-3.9-10.4c-2.6-2.9-5.8-4.3-9.6-4.3c-3.8,0-7,1.4-9.6,4.3
				c-2.6,2.9-3.9,6.3-3.9,10.4c0,4.1,1.3,7.5,3.9,10.3c2.6,2.8,5.8,4.3,9.6,4.3c3.8,0,7-1.4,9.6-4.3C259.3,47.5,260.6,44.1,260.6,40
				z"/>
			<path class="st1" d="M331.4,23.5c4.3,4,6.5,9.5,6.5,16.5c0,7.1-2.1,12.7-6.3,16.8c-4.2,4.1-10.7,6.2-19.3,6.2h-15.5V17.6h16.1
				C320.9,17.6,327.1,19.5,331.4,23.5z M324,50.5c2.5-2.3,3.7-5.7,3.7-10.2s-1.2-7.9-3.7-10.3c-2.5-2.4-6.3-3.6-11.5-3.6h-5.7V54
				h6.4C317.9,54,321.5,52.9,324,50.5z"/>
			<path class="st1" d="M379.5,17.6v9h-22.6V36h20.3v8.6h-20.3V54h23.3v9h-33.5V17.6H379.5z"/>
		</g>
		<g class="st0">
			<path class="st1" d="M40.3,102.5c4.3,4,6.5,9.5,6.5,16.5c0,7.1-2.1,12.7-6.3,16.8c-4.2,4.1-10.7,6.2-19.3,6.2H5.6V96.6h16.1
				C29.7,96.6,36,98.5,40.3,102.5z M32.9,129.5c2.5-2.3,3.7-5.7,3.7-10.2s-1.2-7.9-3.7-10.3c-2.5-2.4-6.3-3.6-11.5-3.6h-5.7V133h6.4
				C26.8,133,30.4,131.9,32.9,129.5z"/>
			<path class="st1" d="M88.3,96.6v9H65.7v9.4h20.3v8.6H65.7v9.4H89v9H55.6V96.6H88.3z"/>
			<path class="st1" d="M108.7,105.6c-1,0.8-1.5,1.9-1.5,3.2c0,1.3,0.6,2.4,1.8,3.2c1.2,0.8,3.9,1.7,8.3,2.8c4.3,1.1,7.7,2.7,10,4.8
				c2.4,2.1,3.6,5.2,3.6,9.3c0,4.1-1.5,7.4-4.6,9.9s-7.1,3.8-12.1,3.8c-7.2,0-13.7-2.7-19.4-8l6-7.4c4.9,4.3,9.4,6.4,13.6,6.4
				c1.9,0,3.3-0.4,4.4-1.2c1.1-0.8,1.6-1.9,1.6-3.2s-0.6-2.4-1.7-3.2c-1.1-0.8-3.4-1.6-6.7-2.4c-5.3-1.3-9.2-2.9-11.6-4.9
				c-2.4-2-3.7-5.2-3.7-9.5c0-4.3,1.5-7.6,4.6-10c3.1-2.3,7-3.5,11.6-3.5c3,0,6.1,0.5,9.1,1.6c3,1,5.7,2.5,7.9,4.4l-5.1,7.4
				c-3.9-3-8-4.5-12.2-4.5C111,104.4,109.7,104.8,108.7,105.6z"/>
			<path class="st1" d="M172.3,96.6v9h-22.6v9.4H170v8.6h-20.3v9.4H173v9h-33.5V96.6H172.3z"/>
			<path class="st1" d="M222.8,113.4l-12.3,24.8h-6l-12.2-24.8V142h-10.1V96.6h13.7l11.7,25l11.8-25h13.6V142h-10.1V113.4z"/>
			<path class="st1" d="M275.4,100.6c3.2,2.7,4.8,6.9,4.8,12.5c0,5.6-1.6,9.7-4.9,12.3c-3.3,2.6-8.3,3.9-15,3.9h-6V142h-10.1V96.6
				h16.1C267.1,96.6,272.2,97.9,275.4,100.6z M267.9,118.5c1.2-1.4,1.8-3.4,1.8-6c0-2.6-0.8-4.5-2.4-5.6c-1.6-1.1-4-1.7-7.4-1.7
				h-5.8v15.3h6.8C264.4,120.5,266.7,119.9,267.9,118.5z"/>
			<path class="st1" d="M320.8,96.6v9h-22.6v9.4h20.3v8.6h-20.3v9.4h23.3v9h-33.5V96.6H320.8z"/>
			<path class="st1" d="M362.4,96.6h10.1V142h-10.1l-21.6-28.5V142h-10.1V96.6h9.5l22.3,29.2V96.6z"/>
			<path class="st1" d="M411.9,96.6H422V142h-10.1v-17.9h-18.1V142h-10.1V96.6h10.1v19h18.1V96.6z"/>
			<path class="st1" d="M471.4,135.7c-4.6,4.5-10.2,6.7-17,6.7s-12.4-2.2-17-6.7c-4.6-4.5-6.9-10.1-6.9-16.7
				c0-6.7,2.3-12.3,6.9-16.7c4.6-4.5,10.2-6.7,17-6.7s12.4,2.2,17,6.7c4.6,4.5,6.9,10.1,6.9,16.7C478.3,125.7,476,131.2,471.4,135.7
				z M468,119c0-4.1-1.3-7.5-3.9-10.4c-2.6-2.9-5.8-4.3-9.6-4.3c-3.8,0-7,1.4-9.6,4.3c-2.6,2.9-3.9,6.3-3.9,10.4
				c0,4.1,1.3,7.5,3.9,10.3c2.6,2.8,5.8,4.3,9.6,4.3c3.8,0,7-1.4,9.6-4.3C466.7,126.5,468,123.1,468,119z"/>
		</g>
	</g>
</g>
</svg>
