<?xml version="1.0" encoding="utf-8"?>
<!-- Generator: Adobe Illustrator 28.0.0, SVG Export Plug-In . SVG Version: 6.00 Build 0)  -->
<svg version="1.1" id="Camada_1" xmlns="http://www.w3.org/2000/svg" xmlns:xlink="http://www.w3.org/1999/xlink" x="0px" y="0px"
	 viewBox="0 0 707 240" style="enable-background:new 0 0 707 240;" xml:space="preserve">
<style type="text/css">
	.st0{enable-background:new    ;}
	.st1{fill:#FFFFFF;}
	.st2{filter:url(#ENSINO_CORPORATIVO_E_DESENVOLVIMENTO_);}
</style>
<filter  id="ENSINO_CORPORATIVO_E_DESENVOLVIMENTO_">
	<feOffset  dy="3" input="SourceAlpha"></feOffset>
	<feGaussianBlur  result="blur" stdDeviation="1.5"></feGaussianBlur>
	<feFlood  flood-opacity="0.161" result="color"></feFlood>
	<feComposite  in="SourceGraphic" in2="blur" operator="out"></feComposite>
	<feComposite  in="color" operator="in"></feComposite>
	<feComposite  in2="SourceGraphic" operator="in"></feComposite>
</filter>
<g>
	<g class="st0">
		<path class="st1" d="M38.4,17.6v9H15.7V36h20.3v8.6H15.7V54h23.3v9H5.6V17.6H38.4z"/>
		<path class="st1" d="M79.9,17.6H90V63H79.9L58.2,34.5V63H48.1V17.6h9.5l22.3,29.2V17.6z"/>
		<path class="st1" d="M111.8,26.6c-1,0.8-1.5,1.9-1.5,3.2c0,1.3,0.6,2.4,1.8,3.2c1.2,0.8,3.9,1.7,8.3,2.8c4.3,1.1,7.7,2.7,10,4.8
			c2.4,2.1,3.6,5.2,3.6,9.3c0,4.1-1.5,7.4-4.6,9.9s-7.1,3.8-12.1,3.8c-7.2,0-13.7-2.7-19.4-8l6-7.4c4.9,4.3,9.4,6.4,13.6,6.4
			c1.9,0,3.3-0.4,4.4-1.2c1.1-0.8,1.6-1.9,1.6-3.2s-0.6-2.4-1.7-3.2c-1.1-0.8-3.4-1.6-6.7-2.4c-5.3-1.3-9.2-2.9-11.6-4.9
			c-2.4-2-3.7-5.2-3.7-9.5c0-4.3,1.5-7.6,4.6-10c3.1-2.3,7-3.5,11.6-3.5c3,0,6.1,0.5,9.1,1.6c3,1,5.7,2.5,7.9,4.4l-5.1,7.4
			c-3.9-3-8-4.5-12.2-4.5C114.1,25.4,112.8,25.8,111.8,26.6z"/>
		<path class="st1" d="M142.7,17.6h10.1V63h-10.1V17.6z"/>
		<path class="st1" d="M195.8,17.6h10.1V63h-10.1l-21.6-28.5V63H164V17.6h9.5l22.3,29.2V17.6z"/>
		<path class="st1" d="M255.3,56.7c-4.6,4.5-10.2,6.7-17,6.7c-6.7,0-12.4-2.2-17-6.7c-4.6-4.5-6.9-10.1-6.9-16.7
			c0-6.7,2.3-12.3,6.9-16.7c4.6-4.5,10.2-6.7,17-6.7c6.7,0,12.4,2.2,17,6.7c4.6,4.5,6.9,10.1,6.9,16.7
			C262.2,46.7,259.9,52.2,255.3,56.7z M251.9,40c0-4.1-1.3-7.5-3.9-10.4c-2.6-2.9-5.8-4.3-9.6-4.3c-3.8,0-7,1.4-9.6,4.3
			c-2.6,2.9-3.9,6.3-3.9,10.4c0,4.1,1.3,7.5,3.9,10.3c2.6,2.8,5.8,4.3,9.6,4.3c3.8,0,7-1.4,9.6-4.3C250.6,47.5,251.9,44.1,251.9,40z
			"/>
	</g>
	<g class="st0">
		<path class="st1" d="M26.5,133c5,0,9.1-2,12.2-5.9l6.5,6.7c-5.2,5.8-11.2,8.7-18.2,8.7c-7,0-12.8-2.2-17.3-6.6
			c-4.5-4.4-6.8-10-6.8-16.7c0-6.7,2.3-12.4,6.9-16.9c4.6-4.5,10.3-6.8,16.9-6.8c7.5,0,13.7,2.8,18.7,8.5l-6.3,7.2
			c-3.2-4-7.2-6-12-6c-3.8,0-7.1,1.2-9.8,3.7c-2.7,2.5-4.1,5.9-4.1,10.1s1.3,7.6,3.8,10.2C19.7,131.8,22.8,133,26.5,133z"/>
		<path class="st1" d="M90.4,135.7c-4.6,4.5-10.2,6.7-17,6.7c-6.7,0-12.4-2.2-17-6.7c-4.6-4.5-6.9-10.1-6.9-16.7
			c0-6.7,2.3-12.3,6.9-16.7c4.6-4.5,10.2-6.7,17-6.7c6.7,0,12.4,2.2,17,6.7c4.6,4.5,6.9,10.1,6.9,16.7
			C97.3,125.7,95,131.2,90.4,135.7z M87,119c0-4.1-1.3-7.5-3.9-10.4c-2.6-2.9-5.8-4.3-9.6-4.3c-3.8,0-7,1.4-9.6,4.3
			C61.3,111.5,60,115,60,119c0,4.1,1.3,7.5,3.9,10.3c2.6,2.8,5.8,4.3,9.6,4.3c3.8,0,7-1.4,9.6-4.3C85.7,126.5,87,123.1,87,119z"/>
		<path class="st1" d="M142.7,111.6c0,7.3-2.9,12-8.6,14.1l11.5,16.2h-12.5L123,127.5h-7V142h-10.1V96.6h17.2
			c7.1,0,12.1,1.2,15.1,3.6C141.2,102.5,142.7,106.4,142.7,111.6z M130.5,117c1.3-1.1,1.9-2.9,1.9-5.4s-0.6-4.1-1.9-5
			c-1.3-0.9-3.6-1.4-6.8-1.4H116v13.5h7.4C126.9,118.7,129.3,118.2,130.5,117z"/>
		<path class="st1" d="M184.4,100.6c3.2,2.7,4.8,6.9,4.8,12.5c0,5.6-1.6,9.7-4.9,12.3c-3.3,2.6-8.3,3.9-15,3.9h-6V142h-10.1V96.6
			h16.1C176.2,96.6,181.3,97.9,184.4,100.6z M177,118.5c1.2-1.4,1.8-3.4,1.8-6c0-2.6-0.8-4.5-2.4-5.6c-1.6-1.1-4-1.7-7.4-1.7h-5.8
			v15.3h6.8C173.5,120.5,175.8,119.9,177,118.5z"/>
		<path class="st1" d="M235.4,135.7c-4.6,4.5-10.2,6.7-17,6.7c-6.7,0-12.4-2.2-17-6.7c-4.6-4.5-6.9-10.1-6.9-16.7
			c0-6.7,2.3-12.3,6.9-16.7c4.6-4.5,10.2-6.7,17-6.7c6.7,0,12.4,2.2,17,6.7c4.6,4.5,6.9,10.1,6.9,16.7
			C242.3,125.7,240,131.2,235.4,135.7z M231.9,119c0-4.1-1.3-7.5-3.9-10.4c-2.6-2.9-5.8-4.3-9.6-4.3c-3.8,0-7,1.4-9.6,4.3
			c-2.6,2.9-3.9,6.3-3.9,10.4c0,4.1,1.3,7.5,3.9,10.3c2.6,2.8,5.8,4.3,9.6,4.3c3.8,0,7-1.4,9.6-4.3
			C230.6,126.5,231.9,123.1,231.9,119z"/>
		<path class="st1" d="M287.7,111.6c0,7.3-2.9,12-8.6,14.1l11.5,16.2h-12.5L268,127.5h-7V142h-10.1V96.6h17.2
			c7.1,0,12.1,1.2,15.1,3.6C286.2,102.5,287.7,106.4,287.7,111.6z M275.5,117c1.3-1.1,1.9-2.9,1.9-5.4s-0.6-4.1-1.9-5
			c-1.3-0.9-3.6-1.4-6.8-1.4H261v13.5h7.4C271.8,118.7,274.2,118.2,275.5,117z"/>
		<path class="st1" d="M330.5,142l-4.2-9.8h-19L303,142h-10.8l19.6-45.4h9.8l19.6,45.4H330.5z M316.7,110.1l-5.7,13.2h11.4
			L316.7,110.1z"/>
		<path class="st1" d="M362.4,105.3V142h-10.1v-36.7h-12.9v-8.8h35.9v8.8H362.4z"/>
		<path class="st1" d="M382.7,96.6h10.1V142h-10.1V96.6z"/>
		<path class="st1" d="M420.8,125.5l11.6-28.9h11L425.1,142h-8.6l-18.3-45.4h11L420.8,125.5z"/>
		<path class="st1" d="M485.9,135.7c-4.6,4.5-10.2,6.7-17,6.7s-12.4-2.2-17-6.7c-4.6-4.5-6.9-10.1-6.9-16.7c0-6.7,2.3-12.3,6.9-16.7
			c4.6-4.5,10.2-6.7,17-6.7s12.4,2.2,17,6.7c4.6,4.5,6.9,10.1,6.9,16.7C492.8,125.7,490.5,131.2,485.9,135.7z M482.5,119
			c0-4.1-1.3-7.5-3.9-10.4c-2.6-2.9-5.8-4.3-9.6-4.3c-3.8,0-7,1.4-9.6,4.3c-2.6,2.9-3.9,6.3-3.9,10.4c0,4.1,1.3,7.5,3.9,10.3
			c2.6,2.8,5.8,4.3,9.6,4.3c3.8,0,7-1.4,9.6-4.3C481.2,126.5,482.5,123.1,482.5,119z"/>
		<path class="st1" d="M551.3,96.6v9h-22.6v9.4H549v8.6h-20.3v9.4H552v9h-33.5V96.6H551.3z"/>
	</g>
	<g class="st0">
		<path class="st1" d="M40.3,181.5c4.3,4,6.5,9.5,6.5,16.5c0,7.1-2.1,12.7-6.3,16.8c-4.2,4.1-10.7,6.2-19.3,6.2H5.6v-45.4h16.1
			C29.7,175.6,36,177.5,40.3,181.5z M32.9,208.5c2.5-2.3,3.7-5.7,3.7-10.2s-1.2-7.9-3.7-10.3c-2.5-2.4-6.3-3.6-11.5-3.6h-5.7V212
			h6.4C26.8,212,30.4,210.9,32.9,208.5z"/>
		<path class="st1" d="M88.3,175.6v9H65.7v9.4h20.3v8.6H65.7v9.4H89v9H55.6v-45.4H88.3z"/>
		<path class="st1" d="M108.7,184.6c-1,0.8-1.5,1.9-1.5,3.2c0,1.3,0.6,2.4,1.8,3.2c1.2,0.8,3.9,1.7,8.3,2.8c4.3,1.1,7.7,2.7,10,4.8
			c2.4,2.1,3.6,5.2,3.6,9.3c0,4.1-1.5,7.4-4.6,9.9s-7.1,3.8-12.1,3.8c-7.2,0-13.7-2.7-19.4-8l6-7.4c4.9,4.3,9.4,6.4,13.6,6.4
			c1.9,0,3.3-0.4,4.4-1.2c1.1-0.8,1.6-1.9,1.6-3.2s-0.6-2.4-1.7-3.2c-1.1-0.8-3.4-1.6-6.7-2.4c-5.3-1.3-9.2-2.9-11.6-4.9
			c-2.4-2-3.7-5.2-3.7-9.5c0-4.3,1.5-7.6,4.6-10c3.1-2.3,7-3.5,11.6-3.5c3,0,6.1,0.5,9.1,1.6c3,1,5.7,2.5,7.9,4.4l-5.1,7.4
			c-3.9-3-8-4.5-12.2-4.5C111,183.4,109.7,183.8,108.7,184.6z"/>
		<path class="st1" d="M172.3,175.6v9h-22.6v9.4H170v8.6h-20.3v9.4H173v9h-33.5v-45.4H172.3z"/>
		<path class="st1" d="M213.8,175.6H224V221h-10.1l-21.6-28.5V221h-10.1v-45.4h9.5l22.3,29.2V175.6z"/>
		<path class="st1" d="M251.9,204.5l11.6-28.9h11L256.2,221h-8.6l-18.3-45.4h11L251.9,204.5z"/>
		<path class="st1" d="M317.1,214.7c-4.6,4.5-10.2,6.7-17,6.7c-6.7,0-12.4-2.2-17-6.7c-4.6-4.5-6.9-10.1-6.9-16.7
			c0-6.7,2.3-12.3,6.9-16.7c4.6-4.5,10.2-6.7,17-6.7c6.7,0,12.4,2.2,17,6.7c4.6,4.5,6.9,10.1,6.9,16.7
			C324,204.7,321.7,210.2,317.1,214.7z M313.6,198c0-4.1-1.3-7.5-3.9-10.4c-2.6-2.9-5.8-4.3-9.6-4.3c-3.8,0-7,1.4-9.6,4.3
			c-2.6,2.9-3.9,6.3-3.9,10.4c0,4.1,1.3,7.5,3.9,10.3c2.6,2.8,5.8,4.3,9.6,4.3c3.8,0,7-1.4,9.6-4.3
			C312.3,205.5,313.6,202.1,313.6,198z"/>
		<path class="st1" d="M332.5,221v-45.4h10.1V212H362v9H332.5z"/>
		<path class="st1" d="M382.4,204.5l11.6-28.9h11L386.7,221h-8.6l-18.3-45.4h11L382.4,204.5z"/>
		<path class="st1" d="M410.3,175.6h10.1V221h-10.1V175.6z"/>
		<path class="st1" d="M472.3,192.4l-12.3,24.8h-6l-12.2-24.8V221h-10.1v-45.4h13.7l11.7,25l11.8-25h13.6V221h-10.1V192.4z"/>
		<path class="st1" d="M526.4,175.6v9h-22.6v9.4h20.3v8.6h-20.3v9.4h23.3v9h-33.5v-45.4H526.4z"/>
		<path class="st1" d="M568,175.6h10.1V221H568l-21.6-28.5V221h-10.1v-45.4h9.5l22.3,29.2V175.6z"/>
		<path class="st1" d="M608.5,184.3V221h-10.1v-36.7h-12.9v-8.8h35.9v8.8H608.5z"/>
		<path class="st1" d="M665.8,214.7c-4.6,4.5-10.2,6.7-17,6.7c-6.7,0-12.4-2.2-17-6.7c-4.6-4.5-6.9-10.1-6.9-16.7
			c0-6.7,2.3-12.3,6.9-16.7c4.6-4.5,10.2-6.7,17-6.7c6.7,0,12.4,2.2,17,6.7c4.6,4.5,6.9,10.1,6.9,16.7
			C672.7,204.7,670.4,210.2,665.8,214.7z M662.3,198c0-4.1-1.3-7.5-3.9-10.4c-2.6-2.9-5.8-4.3-9.6-4.3s-7,1.4-9.6,4.3
			c-2.6,2.9-3.9,6.3-3.9,10.4c0,4.1,1.3,7.5,3.9,10.3c2.6,2.8,5.8,4.3,9.6,4.3s7-1.4,9.6-4.3C661,205.5,662.3,202.1,662.3,198z"/>
	</g>
	<g transform="matrix(1, 0, 0, 1, 0, 0)" class="st2">
		<g class="st0">
			<path class="st1" d="M38.4,17.6v9H15.7V36h20.3v8.6H15.7V54h23.3v9H5.6V17.6H38.4z"/>
			<path class="st1" d="M79.9,17.6H90V63H79.9L58.2,34.5V63H48.1V17.6h9.5l22.3,29.2V17.6z"/>
			<path class="st1" d="M111.8,26.6c-1,0.8-1.5,1.9-1.5,3.2c0,1.3,0.6,2.4,1.8,3.2c1.2,0.8,3.9,1.7,8.3,2.8c4.3,1.1,7.7,2.7,10,4.8
				c2.4,2.1,3.6,5.2,3.6,9.3c0,4.1-1.5,7.4-4.6,9.9s-7.1,3.8-12.1,3.8c-7.2,0-13.7-2.7-19.4-8l6-7.4c4.9,4.3,9.4,6.4,13.6,6.4
				c1.9,0,3.3-0.4,4.4-1.2c1.1-0.8,1.6-1.9,1.6-3.2s-0.6-2.4-1.7-3.2c-1.1-0.8-3.4-1.6-6.7-2.4c-5.3-1.3-9.2-2.9-11.6-4.9
				c-2.4-2-3.7-5.2-3.7-9.5c0-4.3,1.5-7.6,4.6-10c3.1-2.3,7-3.5,11.6-3.5c3,0,6.1,0.5,9.1,1.6c3,1,5.7,2.5,7.9,4.4l-5.1,7.4
				c-3.9-3-8-4.5-12.2-4.5C114.1,25.4,112.8,25.8,111.8,26.6z"/>
			<path class="st1" d="M142.7,17.6h10.1V63h-10.1V17.6z"/>
			<path class="st1" d="M195.8,17.6h10.1V63h-10.1l-21.6-28.5V63H164V17.6h9.5l22.3,29.2V17.6z"/>
			<path class="st1" d="M255.3,56.7c-4.6,4.5-10.2,6.7-17,6.7c-6.7,0-12.4-2.2-17-6.7c-4.6-4.5-6.9-10.1-6.9-16.7
				c0-6.7,2.3-12.3,6.9-16.7c4.6-4.5,10.2-6.7,17-6.7c6.7,0,12.4,2.2,17,6.7c4.6,4.5,6.9,10.1,6.9,16.7
				C262.2,46.7,259.9,52.2,255.3,56.7z M251.9,40c0-4.1-1.3-7.5-3.9-10.4c-2.6-2.9-5.8-4.3-9.6-4.3c-3.8,0-7,1.4-9.6,4.3
				c-2.6,2.9-3.9,6.3-3.9,10.4c0,4.1,1.3,7.5,3.9,10.3c2.6,2.8,5.8,4.3,9.6,4.3c3.8,0,7-1.4,9.6-4.3C250.6,47.5,251.9,44.1,251.9,40
				z"/>
		</g>
		<g class="st0">
			<path class="st1" d="M26.5,133c5,0,9.1-2,12.2-5.9l6.5,6.7c-5.2,5.8-11.2,8.7-18.2,8.7c-7,0-12.8-2.2-17.3-6.6
				c-4.5-4.4-6.8-10-6.8-16.7c0-6.7,2.3-12.4,6.9-16.9c4.6-4.5,10.3-6.8,16.9-6.8c7.5,0,13.7,2.8,18.7,8.5l-6.3,7.2
				c-3.2-4-7.2-6-12-6c-3.8,0-7.1,1.2-9.8,3.7c-2.7,2.5-4.1,5.9-4.1,10.1s1.3,7.6,3.8,10.2C19.7,131.8,22.8,133,26.5,133z"/>
			<path class="st1" d="M90.4,135.7c-4.6,4.5-10.2,6.7-17,6.7c-6.7,0-12.4-2.2-17-6.7c-4.6-4.5-6.9-10.1-6.9-16.7
				c0-6.7,2.3-12.3,6.9-16.7c4.6-4.5,10.2-6.7,17-6.7c6.7,0,12.4,2.2,17,6.7c4.6,4.5,6.9,10.1,6.9,16.7
				C97.3,125.7,95,131.2,90.4,135.7z M87,119c0-4.1-1.3-7.5-3.9-10.4c-2.6-2.9-5.8-4.3-9.6-4.3c-3.8,0-7,1.4-9.6,4.3
				C61.3,111.5,60,115,60,119c0,4.1,1.3,7.5,3.9,10.3c2.6,2.8,5.8,4.3,9.6,4.3c3.8,0,7-1.4,9.6-4.3C85.7,126.5,87,123.1,87,119z"/>
			<path class="st1" d="M142.7,111.6c0,7.3-2.9,12-8.6,14.1l11.5,16.2h-12.5L123,127.5h-7V142h-10.1V96.6h17.2
				c7.1,0,12.1,1.2,15.1,3.6C141.2,102.5,142.7,106.4,142.7,111.6z M130.5,117c1.3-1.1,1.9-2.9,1.9-5.4s-0.6-4.1-1.9-5
				c-1.3-0.9-3.6-1.4-6.8-1.4H116v13.5h7.4C126.9,118.7,129.3,118.2,130.5,117z"/>
			<path class="st1" d="M184.4,100.6c3.2,2.7,4.8,6.9,4.8,12.5c0,5.6-1.6,9.7-4.9,12.3c-3.3,2.6-8.3,3.9-15,3.9h-6V142h-10.1V96.6
				h16.1C176.2,96.6,181.3,97.9,184.4,100.6z M177,118.5c1.2-1.4,1.8-3.4,1.8-6c0-2.6-0.8-4.5-2.4-5.6c-1.6-1.1-4-1.7-7.4-1.7h-5.8
				v15.3h6.8C173.5,120.5,175.8,119.9,177,118.5z"/>
			<path class="st1" d="M235.4,135.7c-4.6,4.5-10.2,6.7-17,6.7c-6.7,0-12.4-2.2-17-6.7c-4.6-4.5-6.9-10.1-6.9-16.7
				c0-6.7,2.3-12.3,6.9-16.7c4.6-4.5,10.2-6.7,17-6.7c6.7,0,12.4,2.2,17,6.7c4.6,4.5,6.9,10.1,6.9,16.7
				C242.3,125.7,240,131.2,235.4,135.7z M231.9,119c0-4.1-1.3-7.5-3.9-10.4c-2.6-2.9-5.8-4.3-9.6-4.3c-3.8,0-7,1.4-9.6,4.3
				c-2.6,2.9-3.9,6.3-3.9,10.4c0,4.1,1.3,7.5,3.9,10.3c2.6,2.8,5.8,4.3,9.6,4.3c3.8,0,7-1.4,9.6-4.3
				C230.6,126.5,231.9,123.1,231.9,119z"/>
			<path class="st1" d="M287.7,111.6c0,7.3-2.9,12-8.6,14.1l11.5,16.2h-12.5L268,127.5h-7V142h-10.1V96.6h17.2
				c7.1,0,12.1,1.2,15.1,3.6C286.2,102.5,287.7,106.4,287.7,111.6z M275.5,117c1.3-1.1,1.9-2.9,1.9-5.4s-0.6-4.1-1.9-5
				c-1.3-0.9-3.6-1.4-6.8-1.4H261v13.5h7.4C271.8,118.7,274.2,118.2,275.5,117z"/>
			<path class="st1" d="M330.5,142l-4.2-9.8h-19L303,142h-10.8l19.6-45.4h9.8l19.6,45.4H330.5z M316.7,110.1l-5.7,13.2h11.4
				L316.7,110.1z"/>
			<path class="st1" d="M362.4,105.3V142h-10.1v-36.7h-12.9v-8.8h35.9v8.8H362.4z"/>
			<path class="st1" d="M382.7,96.6h10.1V142h-10.1V96.6z"/>
			<path class="st1" d="M420.8,125.5l11.6-28.9h11L425.1,142h-8.6l-18.3-45.4h11L420.8,125.5z"/>
			<path class="st1" d="M485.9,135.7c-4.6,4.5-10.2,6.7-17,6.7s-12.4-2.2-17-6.7c-4.6-4.5-6.9-10.1-6.9-16.7
				c0-6.7,2.3-12.3,6.9-16.7c4.6-4.5,10.2-6.7,17-6.7s12.4,2.2,17,6.7c4.6,4.5,6.9,10.1,6.9,16.7
				C492.8,125.7,490.5,131.2,485.9,135.7z M482.5,119c0-4.1-1.3-7.5-3.9-10.4c-2.6-2.9-5.8-4.3-9.6-4.3c-3.8,0-7,1.4-9.6,4.3
				c-2.6,2.9-3.9,6.3-3.9,10.4c0,4.1,1.3,7.5,3.9,10.3c2.6,2.8,5.8,4.3,9.6,4.3c3.8,0,7-1.4,9.6-4.3
				C481.2,126.5,482.5,123.1,482.5,119z"/>
			<path class="st1" d="M551.3,96.6v9h-22.6v9.4H549v8.6h-20.3v9.4H552v9h-33.5V96.6H551.3z"/>
		</g>
		<g class="st0">
			<path class="st1" d="M40.3,181.5c4.3,4,6.5,9.5,6.5,16.5c0,7.1-2.1,12.7-6.3,16.8c-4.2,4.1-10.7,6.2-19.3,6.2H5.6v-45.4h16.1
				C29.7,175.6,36,177.5,40.3,181.5z M32.9,208.5c2.5-2.3,3.7-5.7,3.7-10.2s-1.2-7.9-3.7-10.3c-2.5-2.4-6.3-3.6-11.5-3.6h-5.7V212
				h6.4C26.8,212,30.4,210.9,32.9,208.5z"/>
			<path class="st1" d="M88.3,175.6v9H65.7v9.4h20.3v8.6H65.7v9.4H89v9H55.6v-45.4H88.3z"/>
			<path class="st1" d="M108.7,184.6c-1,0.8-1.5,1.9-1.5,3.2c0,1.3,0.6,2.4,1.8,3.2c1.2,0.8,3.9,1.7,8.3,2.8c4.3,1.1,7.7,2.7,10,4.8
				c2.4,2.1,3.6,5.2,3.6,9.3c0,4.1-1.5,7.4-4.6,9.9s-7.1,3.8-12.1,3.8c-7.2,0-13.7-2.7-19.4-8l6-7.4c4.9,4.3,9.4,6.4,13.6,6.4
				c1.9,0,3.3-0.4,4.4-1.2c1.1-0.8,1.6-1.9,1.6-3.2s-0.6-2.4-1.7-3.2c-1.1-0.8-3.4-1.6-6.7-2.4c-5.3-1.3-9.2-2.9-11.6-4.9
				c-2.4-2-3.7-5.2-3.7-9.5c0-4.3,1.5-7.6,4.6-10c3.1-2.3,7-3.5,11.6-3.5c3,0,6.1,0.5,9.1,1.6c3,1,5.7,2.5,7.9,4.4l-5.1,7.4
				c-3.9-3-8-4.5-12.2-4.5C111,183.4,109.7,183.8,108.7,184.6z"/>
			<path class="st1" d="M172.3,175.6v9h-22.6v9.4H170v8.6h-20.3v9.4H173v9h-33.5v-45.4H172.3z"/>
			<path class="st1" d="M213.8,175.6H224V221h-10.1l-21.6-28.5V221h-10.1v-45.4h9.5l22.3,29.2V175.6z"/>
			<path class="st1" d="M251.9,204.5l11.6-28.9h11L256.2,221h-8.6l-18.3-45.4h11L251.9,204.5z"/>
			<path class="st1" d="M317.1,214.7c-4.6,4.5-10.2,6.7-17,6.7c-6.7,0-12.4-2.2-17-6.7c-4.6-4.5-6.9-10.1-6.9-16.7
				c0-6.7,2.3-12.3,6.9-16.7c4.6-4.5,10.2-6.7,17-6.7c6.7,0,12.4,2.2,17,6.7c4.6,4.5,6.9,10.1,6.9,16.7
				C324,204.7,321.7,210.2,317.1,214.7z M313.6,198c0-4.1-1.3-7.5-3.9-10.4c-2.6-2.9-5.8-4.3-9.6-4.3c-3.8,0-7,1.4-9.6,4.3
				c-2.6,2.9-3.9,6.3-3.9,10.4c0,4.1,1.3,7.5,3.9,10.3c2.6,2.8,5.8,4.3,9.6,4.3c3.8,0,7-1.4,9.6-4.3
				C312.3,205.5,313.6,202.1,313.6,198z"/>
			<path class="st1" d="M332.5,221v-45.4h10.1V212H362v9H332.5z"/>
			<path class="st1" d="M382.4,204.5l11.6-28.9h11L386.7,221h-8.6l-18.3-45.4h11L382.4,204.5z"/>
			<path class="st1" d="M410.3,175.6h10.1V221h-10.1V175.6z"/>
			<path class="st1" d="M472.3,192.4l-12.3,24.8h-6l-12.2-24.8V221h-10.1v-45.4h13.7l11.7,25l11.8-25h13.6V221h-10.1V192.4z"/>
			<path class="st1" d="M526.4,175.6v9h-22.6v9.4h20.3v8.6h-20.3v9.4h23.3v9h-33.5v-45.4H526.4z"/>
			<path class="st1" d="M568,175.6h10.1V221H568l-21.6-28.5V221h-10.1v-45.4h9.5l22.3,29.2V175.6z"/>
			<path class="st1" d="M608.5,184.3V221h-10.1v-36.7h-12.9v-8.8h35.9v8.8H608.5z"/>
			<path class="st1" d="M665.8,214.7c-4.6,4.5-10.2,6.7-17,6.7c-6.7,0-12.4-2.2-17-6.7c-4.6-4.5-6.9-10.1-6.9-16.7
				c0-6.7,2.3-12.3,6.9-16.7c4.6-4.5,10.2-6.7,17-6.7c6.7,0,12.4,2.2,17,6.7c4.6,4.5,6.9,10.1,6.9,16.7
				C672.7,204.7,670.4,210.2,665.8,214.7z M662.3,198c0-4.1-1.3-7.5-3.9-10.4c-2.6-2.9-5.8-4.3-9.6-4.3s-7,1.4-9.6,4.3
				c-2.6,2.9-3.9,6.3-3.9,10.4c0,4.1,1.3,7.5,3.9,10.3c2.6,2.8,5.8,4.3,9.6,4.3s7-1.4,9.6-4.3C661,205.5,662.3,202.1,662.3,198z"/>
		</g>
	</g>
</g>
</svg>
