<?xml version="1.0" encoding="utf-8"?>
<!-- Generator: Adobe Illustrator 28.0.0, SVG Export Plug-In . SVG Version: 6.00 Build 0)  -->
<svg version="1.1" id="Camada_1" xmlns="http://www.w3.org/2000/svg" xmlns:xlink="http://www.w3.org/1999/xlink" x="0px" y="0px"
	 viewBox="0 0 708 178" style="enable-background:new 0 0 708 178;" xml:space="preserve">
<style type="text/css">
	.st0{enable-background:new    ;}
	.st1{fill:#FFFFFF;}
	.st2{filter:url(#AÇÕES_DE_DESENVOLVIMENTO_);}
</style>
<filter  id="AÇÕES_DE_DESENVOLVIMENTO_">
	<feOffset  dy="3" input="SourceAlpha"></feOffset>
	<feGaussianBlur  result="blur" stdDeviation="1.5"></feGaussianBlur>
	<feFlood  flood-opacity="0.161" result="color"></feFlood>
	<feComposite  in="SourceGraphic" in2="blur" operator="out"></feComposite>
	<feComposite  in="color" operator="in"></feComposite>
	<feComposite  in2="SourceGraphic" operator="in"></feComposite>
</filter>
<g>
	<g class="st0">
		<path class="st1" d="M39,63l-4.2-9.8h-19L11.5,63H0.7l19.6-45.4h9.8L49.8,63H39z M25.2,31.1l-5.7,13.2h11.4L25.2,31.1z"/>
		<path class="st1" d="M75.9,54c5,0,9.1-2,12.2-5.9l6.5,6.7c-4.4,4.9-9.6,7.8-15.7,8.5l-1.7,3.1c2.8,1,4.2,2.6,4.2,4.9
			c0,1.9-0.8,3.5-2.3,4.9c-1.5,1.4-3.5,2.1-5.8,2.1s-4.6-0.7-6.8-2.1l2.5-5.6c1,0.8,1.8,1.2,2.5,1.2c0.7,0,1.3-0.2,1.7-0.6
			c0.4-0.4,0.6-0.9,0.6-1.5s-0.3-1.1-0.8-1.6s-1.1-0.7-1.9-0.7c-0.7,0-1.5,0.2-2.3,0.6l2.7-5.1c-5.6-1-10.2-3.5-13.8-7.8
			c-3.6-4.2-5.4-9.5-5.4-15.8c0-6.3,2.3-11.7,6.9-16.2c4.6-4.5,10.3-6.8,16.9-6.8c7.5,0,13.7,2.8,18.7,8.5l-6.3,7.2
			c-3.2-4-7.2-6-12-6c-3.8,0-7.1,1.2-9.8,3.7c-2.7,2.5-4.1,5.9-4.1,10.1s1.3,7.6,3.8,10.2C69.1,52.8,72.2,54,75.9,54z"/>
		<path class="st1" d="M140.8,56.7c-4.6,4.5-10.2,6.7-17,6.7c-6.7,0-12.4-2.2-17-6.7c-4.6-4.5-6.9-10.1-6.9-16.7
			c0-6.7,2.3-12.3,6.9-16.7c4.6-4.5,10.2-6.7,17-6.7c6.7,0,12.4,2.2,17,6.7c4.6,4.5,6.9,10.1,6.9,16.7
			C147.7,46.7,145.4,52.2,140.8,56.7z M137.4,40c0-4.1-1.3-7.5-3.9-10.4c-2.6-2.9-5.8-4.3-9.6-4.3c-3.8,0-7,1.4-9.6,4.3
			c-2.6,2.9-3.9,6.3-3.9,10.4c0,4.1,1.3,7.5,3.9,10.3c2.6,2.8,5.8,4.3,9.6,4.3c3.8,0,7-1.4,9.6-4.3C136.1,47.5,137.4,44.1,137.4,40z
			 M120.1,9.7c-1.3,0-2,1.1-2,3.4h-6.9c0-3.2,0.7-5.8,2.1-7.7c1.4-1.9,3.2-2.8,5.4-2.8c1.4,0,3.1,0.6,5,1.8c2,1.2,3.2,1.8,3.6,1.8
			c1.3,0,2-1.1,2-3.4h6.9c0,3.2-0.7,5.8-2.1,7.7c-1.4,1.9-3.2,2.8-5.4,2.8c-1.3,0-3-0.6-5.1-1.8C121.6,10.3,120.4,9.7,120.1,9.7z"/>
		<path class="st1" d="M189,17.6v9h-22.6V36h20.3v8.6h-20.3V54h23.3v9h-33.5V17.6H189z"/>
		<path class="st1" d="M209.4,26.6c-1,0.8-1.5,1.9-1.5,3.2c0,1.3,0.6,2.4,1.8,3.2c1.2,0.8,3.9,1.7,8.3,2.8c4.3,1.1,7.7,2.7,10,4.8
			c2.4,2.1,3.6,5.2,3.6,9.3c0,4.1-1.5,7.4-4.6,9.9s-7.1,3.8-12.1,3.8c-7.2,0-13.7-2.7-19.4-8l6-7.4c4.9,4.3,9.4,6.4,13.6,6.4
			c1.9,0,3.3-0.4,4.4-1.2c1.1-0.8,1.6-1.9,1.6-3.2s-0.6-2.4-1.7-3.2c-1.1-0.8-3.4-1.6-6.7-2.4c-5.3-1.3-9.2-2.9-11.6-4.9
			c-2.4-2-3.7-5.2-3.7-9.5c0-4.3,1.5-7.6,4.6-10c3.1-2.3,7-3.5,11.6-3.5c3,0,6.1,0.5,9.1,1.6c3,1,5.7,2.5,7.9,4.4l-5.1,7.4
			c-3.9-3-8-4.5-12.2-4.5C211.7,25.4,210.4,25.8,209.4,26.6z"/>
		<path class="st1" d="M292.1,23.5c4.3,4,6.5,9.5,6.5,16.5c0,7.1-2.1,12.7-6.3,16.8c-4.2,4.1-10.7,6.2-19.3,6.2h-15.5V17.6h16.1
			C281.6,17.6,287.8,19.5,292.1,23.5z M284.7,50.5c2.5-2.3,3.7-5.7,3.7-10.2s-1.2-7.9-3.7-10.3c-2.5-2.4-6.3-3.6-11.5-3.6h-5.7V54
			h6.4C278.6,54,282.2,52.9,284.7,50.5z"/>
		<path class="st1" d="M340.2,17.6v9h-22.6V36h20.3v8.6h-20.3V54h23.3v9h-33.5V17.6H340.2z"/>
	</g>
	<g class="st0">
		<path class="st1" d="M41.3,102.5c4.3,4,6.5,9.5,6.5,16.5c0,7.1-2.1,12.7-6.3,16.8c-4.2,4.1-10.7,6.2-19.3,6.2H6.6V96.6h16.1
			C30.7,96.6,37,98.5,41.3,102.5z M33.9,129.5c2.5-2.3,3.7-5.7,3.7-10.2s-1.2-7.9-3.7-10.3c-2.5-2.4-6.3-3.6-11.5-3.6h-5.7V133h6.4
			C27.8,133,31.4,131.9,33.9,129.5z"/>
		<path class="st1" d="M89.3,96.6v9H66.7v9.4h20.3v8.6H66.7v9.4H90v9H56.6V96.6H89.3z"/>
		<path class="st1" d="M109.7,105.6c-1,0.8-1.5,1.9-1.5,3.2c0,1.3,0.6,2.4,1.8,3.2c1.2,0.8,3.9,1.7,8.3,2.8c4.3,1.1,7.7,2.7,10,4.8
			c2.4,2.1,3.6,5.2,3.6,9.3c0,4.1-1.5,7.4-4.6,9.9s-7.1,3.8-12.1,3.8c-7.2,0-13.7-2.7-19.4-8l6-7.4c4.9,4.3,9.4,6.4,13.6,6.4
			c1.9,0,3.3-0.4,4.4-1.2c1.1-0.8,1.6-1.9,1.6-3.2s-0.6-2.4-1.7-3.2c-1.1-0.8-3.4-1.6-6.7-2.4c-5.3-1.3-9.2-2.9-11.6-4.9
			c-2.4-2-3.7-5.2-3.7-9.5c0-4.3,1.5-7.6,4.6-10c3.1-2.3,7-3.5,11.6-3.5c3,0,6.1,0.5,9.1,1.6c3,1,5.7,2.5,7.9,4.4l-5.1,7.4
			c-3.9-3-8-4.5-12.2-4.5C112,104.4,110.7,104.8,109.7,105.6z"/>
		<path class="st1" d="M173.3,96.6v9h-22.6v9.4H171v8.6h-20.3v9.4H174v9h-33.5V96.6H173.3z"/>
		<path class="st1" d="M214.8,96.6H225V142h-10.1l-21.6-28.5V142h-10.1V96.6h9.5l22.3,29.2V96.6z"/>
		<path class="st1" d="M252.9,125.5l11.6-28.9h11L257.2,142h-8.6l-18.3-45.4h11L252.9,125.5z"/>
		<path class="st1" d="M318.1,135.7c-4.6,4.5-10.2,6.7-17,6.7c-6.7,0-12.4-2.2-17-6.7c-4.6-4.5-6.9-10.1-6.9-16.7
			c0-6.7,2.3-12.3,6.9-16.7c4.6-4.5,10.2-6.7,17-6.7c6.7,0,12.4,2.2,17,6.7c4.6,4.5,6.9,10.1,6.9,16.7
			C325,125.7,322.7,131.2,318.1,135.7z M314.6,119c0-4.1-1.3-7.5-3.9-10.4c-2.6-2.9-5.8-4.3-9.6-4.3c-3.8,0-7,1.4-9.6,4.3
			c-2.6,2.9-3.9,6.3-3.9,10.4c0,4.1,1.3,7.5,3.9,10.3c2.6,2.8,5.8,4.3,9.6,4.3c3.8,0,7-1.4,9.6-4.3
			C313.3,126.5,314.6,123.1,314.6,119z"/>
		<path class="st1" d="M333.5,142V96.6h10.1V133H363v9H333.5z"/>
		<path class="st1" d="M383.4,125.5L395,96.6h11L387.7,142h-8.6l-18.3-45.4h11L383.4,125.5z"/>
		<path class="st1" d="M411.3,96.6h10.1V142h-10.1V96.6z"/>
		<path class="st1" d="M473.3,113.4l-12.3,24.8h-6l-12.2-24.8V142h-10.1V96.6h13.7l11.7,25l11.8-25h13.6V142h-10.1V113.4z"/>
		<path class="st1" d="M527.4,96.6v9h-22.6v9.4h20.3v8.6h-20.3v9.4h23.3v9h-33.5V96.6H527.4z"/>
		<path class="st1" d="M569,96.6h10.1V142H569l-21.6-28.5V142h-10.1V96.6h9.5l22.3,29.2V96.6z"/>
		<path class="st1" d="M609.5,105.3V142h-10.1v-36.7h-12.9v-8.8h35.9v8.8H609.5z"/>
		<path class="st1" d="M666.8,135.7c-4.6,4.5-10.2,6.7-17,6.7c-6.7,0-12.4-2.2-17-6.7c-4.6-4.5-6.9-10.1-6.9-16.7
			c0-6.7,2.3-12.3,6.9-16.7c4.6-4.5,10.2-6.7,17-6.7c6.7,0,12.4,2.2,17,6.7c4.6,4.5,6.9,10.1,6.9,16.7
			C673.7,125.7,671.4,131.2,666.8,135.7z M663.3,119c0-4.1-1.3-7.5-3.9-10.4c-2.6-2.9-5.8-4.3-9.6-4.3s-7,1.4-9.6,4.3
			c-2.6,2.9-3.9,6.3-3.9,10.4c0,4.1,1.3,7.5,3.9,10.3c2.6,2.8,5.8,4.3,9.6,4.3s7-1.4,9.6-4.3C662,126.5,663.3,123.1,663.3,119z"/>
	</g>
	<g transform="matrix(1, 0, 0, 1, 0, 0)" class="st2">
		<g class="st0">
			<path class="st1" d="M39,63l-4.2-9.8h-19L11.5,63H0.7l19.6-45.4h9.8L49.8,63H39z M25.2,31.1l-5.7,13.2h11.4L25.2,31.1z"/>
			<path class="st1" d="M75.9,54c5,0,9.1-2,12.2-5.9l6.5,6.7c-4.4,4.9-9.6,7.8-15.7,8.5l-1.7,3.1c2.8,1,4.2,2.6,4.2,4.9
				c0,1.9-0.8,3.5-2.3,4.9c-1.5,1.4-3.5,2.1-5.8,2.1s-4.6-0.7-6.8-2.1l2.5-5.6c1,0.8,1.8,1.2,2.5,1.2c0.7,0,1.3-0.2,1.7-0.6
				c0.4-0.4,0.6-0.9,0.6-1.5s-0.3-1.1-0.8-1.6s-1.1-0.7-1.9-0.7c-0.7,0-1.5,0.2-2.3,0.6l2.7-5.1c-5.6-1-10.2-3.5-13.8-7.8
				c-3.6-4.2-5.4-9.5-5.4-15.8c0-6.3,2.3-11.7,6.9-16.2c4.6-4.5,10.3-6.8,16.9-6.8c7.5,0,13.7,2.8,18.7,8.5l-6.3,7.2
				c-3.2-4-7.2-6-12-6c-3.8,0-7.1,1.2-9.8,3.7c-2.7,2.5-4.1,5.9-4.1,10.1s1.3,7.6,3.8,10.2C69.1,52.8,72.2,54,75.9,54z"/>
			<path class="st1" d="M140.8,56.7c-4.6,4.5-10.2,6.7-17,6.7c-6.7,0-12.4-2.2-17-6.7c-4.6-4.5-6.9-10.1-6.9-16.7
				c0-6.7,2.3-12.3,6.9-16.7c4.6-4.5,10.2-6.7,17-6.7c6.7,0,12.4,2.2,17,6.7c4.6,4.5,6.9,10.1,6.9,16.7
				C147.7,46.7,145.4,52.2,140.8,56.7z M137.4,40c0-4.1-1.3-7.5-3.9-10.4c-2.6-2.9-5.8-4.3-9.6-4.3c-3.8,0-7,1.4-9.6,4.3
				c-2.6,2.9-3.9,6.3-3.9,10.4c0,4.1,1.3,7.5,3.9,10.3c2.6,2.8,5.8,4.3,9.6,4.3c3.8,0,7-1.4,9.6-4.3C136.1,47.5,137.4,44.1,137.4,40
				z M120.1,9.7c-1.3,0-2,1.1-2,3.4h-6.9c0-3.2,0.7-5.8,2.1-7.7c1.4-1.9,3.2-2.8,5.4-2.8c1.4,0,3.1,0.6,5,1.8c2,1.2,3.2,1.8,3.6,1.8
				c1.3,0,2-1.1,2-3.4h6.9c0,3.2-0.7,5.8-2.1,7.7c-1.4,1.9-3.2,2.8-5.4,2.8c-1.3,0-3-0.6-5.1-1.8C121.6,10.3,120.4,9.7,120.1,9.7z"
				/>
			<path class="st1" d="M189,17.6v9h-22.6V36h20.3v8.6h-20.3V54h23.3v9h-33.5V17.6H189z"/>
			<path class="st1" d="M209.4,26.6c-1,0.8-1.5,1.9-1.5,3.2c0,1.3,0.6,2.4,1.8,3.2c1.2,0.8,3.9,1.7,8.3,2.8c4.3,1.1,7.7,2.7,10,4.8
				c2.4,2.1,3.6,5.2,3.6,9.3c0,4.1-1.5,7.4-4.6,9.9s-7.1,3.8-12.1,3.8c-7.2,0-13.7-2.7-19.4-8l6-7.4c4.9,4.3,9.4,6.4,13.6,6.4
				c1.9,0,3.3-0.4,4.4-1.2c1.1-0.8,1.6-1.9,1.6-3.2s-0.6-2.4-1.7-3.2c-1.1-0.8-3.4-1.6-6.7-2.4c-5.3-1.3-9.2-2.9-11.6-4.9
				c-2.4-2-3.7-5.2-3.7-9.5c0-4.3,1.5-7.6,4.6-10c3.1-2.3,7-3.5,11.6-3.5c3,0,6.1,0.5,9.1,1.6c3,1,5.7,2.5,7.9,4.4l-5.1,7.4
				c-3.9-3-8-4.5-12.2-4.5C211.7,25.4,210.4,25.8,209.4,26.6z"/>
			<path class="st1" d="M292.1,23.5c4.3,4,6.5,9.5,6.5,16.5c0,7.1-2.1,12.7-6.3,16.8c-4.2,4.1-10.7,6.2-19.3,6.2h-15.5V17.6h16.1
				C281.6,17.6,287.8,19.5,292.1,23.5z M284.7,50.5c2.5-2.3,3.7-5.7,3.7-10.2s-1.2-7.9-3.7-10.3c-2.5-2.4-6.3-3.6-11.5-3.6h-5.7V54
				h6.4C278.6,54,282.2,52.9,284.7,50.5z"/>
			<path class="st1" d="M340.2,17.6v9h-22.6V36h20.3v8.6h-20.3V54h23.3v9h-33.5V17.6H340.2z"/>
		</g>
		<g class="st0">
			<path class="st1" d="M41.3,102.5c4.3,4,6.5,9.5,6.5,16.5c0,7.1-2.1,12.7-6.3,16.8c-4.2,4.1-10.7,6.2-19.3,6.2H6.6V96.6h16.1
				C30.7,96.6,37,98.5,41.3,102.5z M33.9,129.5c2.5-2.3,3.7-5.7,3.7-10.2s-1.2-7.9-3.7-10.3c-2.5-2.4-6.3-3.6-11.5-3.6h-5.7V133h6.4
				C27.8,133,31.4,131.9,33.9,129.5z"/>
			<path class="st1" d="M89.3,96.6v9H66.7v9.4h20.3v8.6H66.7v9.4H90v9H56.6V96.6H89.3z"/>
			<path class="st1" d="M109.7,105.6c-1,0.8-1.5,1.9-1.5,3.2c0,1.3,0.6,2.4,1.8,3.2c1.2,0.8,3.9,1.7,8.3,2.8c4.3,1.1,7.7,2.7,10,4.8
				c2.4,2.1,3.6,5.2,3.6,9.3c0,4.1-1.5,7.4-4.6,9.9s-7.1,3.8-12.1,3.8c-7.2,0-13.7-2.7-19.4-8l6-7.4c4.9,4.3,9.4,6.4,13.6,6.4
				c1.9,0,3.3-0.4,4.4-1.2c1.1-0.8,1.6-1.9,1.6-3.2s-0.6-2.4-1.7-3.2c-1.1-0.8-3.4-1.6-6.7-2.4c-5.3-1.3-9.2-2.9-11.6-4.9
				c-2.4-2-3.7-5.2-3.7-9.5c0-4.3,1.5-7.6,4.6-10c3.1-2.3,7-3.5,11.6-3.5c3,0,6.1,0.5,9.1,1.6c3,1,5.7,2.5,7.9,4.4l-5.1,7.4
				c-3.9-3-8-4.5-12.2-4.5C112,104.4,110.7,104.8,109.7,105.6z"/>
			<path class="st1" d="M173.3,96.6v9h-22.6v9.4H171v8.6h-20.3v9.4H174v9h-33.5V96.6H173.3z"/>
			<path class="st1" d="M214.8,96.6H225V142h-10.1l-21.6-28.5V142h-10.1V96.6h9.5l22.3,29.2V96.6z"/>
			<path class="st1" d="M252.9,125.5l11.6-28.9h11L257.2,142h-8.6l-18.3-45.4h11L252.9,125.5z"/>
			<path class="st1" d="M318.1,135.7c-4.6,4.5-10.2,6.7-17,6.7c-6.7,0-12.4-2.2-17-6.7c-4.6-4.5-6.9-10.1-6.9-16.7
				c0-6.7,2.3-12.3,6.9-16.7c4.6-4.5,10.2-6.7,17-6.7c6.7,0,12.4,2.2,17,6.7c4.6,4.5,6.9,10.1,6.9,16.7
				C325,125.7,322.7,131.2,318.1,135.7z M314.6,119c0-4.1-1.3-7.5-3.9-10.4c-2.6-2.9-5.8-4.3-9.6-4.3c-3.8,0-7,1.4-9.6,4.3
				c-2.6,2.9-3.9,6.3-3.9,10.4c0,4.1,1.3,7.5,3.9,10.3c2.6,2.8,5.8,4.3,9.6,4.3c3.8,0,7-1.4,9.6-4.3
				C313.3,126.5,314.6,123.1,314.6,119z"/>
			<path class="st1" d="M333.5,142V96.6h10.1V133H363v9H333.5z"/>
			<path class="st1" d="M383.4,125.5L395,96.6h11L387.7,142h-8.6l-18.3-45.4h11L383.4,125.5z"/>
			<path class="st1" d="M411.3,96.6h10.1V142h-10.1V96.6z"/>
			<path class="st1" d="M473.3,113.4l-12.3,24.8h-6l-12.2-24.8V142h-10.1V96.6h13.7l11.7,25l11.8-25h13.6V142h-10.1V113.4z"/>
			<path class="st1" d="M527.4,96.6v9h-22.6v9.4h20.3v8.6h-20.3v9.4h23.3v9h-33.5V96.6H527.4z"/>
			<path class="st1" d="M569,96.6h10.1V142H569l-21.6-28.5V142h-10.1V96.6h9.5l22.3,29.2V96.6z"/>
			<path class="st1" d="M609.5,105.3V142h-10.1v-36.7h-12.9v-8.8h35.9v8.8H609.5z"/>
			<path class="st1" d="M666.8,135.7c-4.6,4.5-10.2,6.7-17,6.7c-6.7,0-12.4-2.2-17-6.7c-4.6-4.5-6.9-10.1-6.9-16.7
				c0-6.7,2.3-12.3,6.9-16.7c4.6-4.5,10.2-6.7,17-6.7c6.7,0,12.4,2.2,17,6.7c4.6,4.5,6.9,10.1,6.9,16.7
				C673.7,125.7,671.4,131.2,666.8,135.7z M663.3,119c0-4.1-1.3-7.5-3.9-10.4c-2.6-2.9-5.8-4.3-9.6-4.3s-7,1.4-9.6,4.3
				c-2.6,2.9-3.9,6.3-3.9,10.4c0,4.1,1.3,7.5,3.9,10.3c2.6,2.8,5.8,4.3,9.6,4.3s7-1.4,9.6-4.3C662,126.5,663.3,123.1,663.3,119z"/>
		</g>
	</g>
</g>
</svg>
