<svg xmlns="http://www.w3.org/2000/svg" width="104" height="104" viewBox="0 0 104 104">
  <g id="Grupo_5646" data-name="Grupo 5646" transform="translate(-914 -7390)">
    <g id="Elipse_175" data-name="Elipse 175" transform="translate(920 7396)" fill="#fff" stroke="#952d98" stroke-width="6">
      <circle cx="46" cy="46" r="46" stroke="none"/>
      <circle cx="46" cy="46" r="49" fill="none"/>
    </g>
    <g id="Grupo_5639" data-name="Grupo 5639" transform="translate(923.5 7399.009)">
      <path id="Caminho_11536" data-name="Caminho 11536" d="M74.432,28.871,38.679,11.991,16.668,18.209c-4.549,1.491-6.1,2.745-6.1,6.1V26.6c0,3.355,1.869,5.325,6.1,7.625L44.51,48.642" fill="none" stroke="#004f81" stroke-linecap="round" stroke-linejoin="round" stroke-miterlimit="10" stroke-width="2.5"/>
      <path id="Caminho_11537" data-name="Caminho 11537" d="M10.567,36.644v1.983c0,3.354,1.869,5.324,6.1,7.623L44.51,60.672" fill="none" stroke="#004f81" stroke-linecap="round" stroke-linejoin="round" stroke-miterlimit="10" stroke-width="2.5"/>
      <path id="Caminho_11538" data-name="Caminho 11538" d="M10.567,48.945v1.678c0,3.355,1.869,5.324,6.1,7.623L44.51,72.668" fill="none" stroke="#004f81" stroke-linecap="round" stroke-linejoin="round" stroke-miterlimit="10" stroke-width="2.5"/>
      <path id="Caminho_11539" data-name="Caminho 11539" d="M74.432,28.871l-25.739,7.4c-4.295,1.221-6.1,2.745-6.1,6.1v2.288a5.155,5.155,0,0,0,.449,2.424,3.184,3.184,0,0,0,3.517,1.82l27.874-8" fill="none" stroke="#004f81" stroke-linecap="round" stroke-linejoin="round" stroke-miterlimit="10" stroke-width="2.5"/>
      <path id="Caminho_11540" data-name="Caminho 11540" d="M48.692,48.309c-3.913.941-6.1,2.746-6.1,6.1V56.7a5.155,5.155,0,0,0,.449,2.424,3.184,3.184,0,0,0,3.517,1.82l27.874-8.01" fill="none" stroke="#004f81" stroke-linecap="round" stroke-linejoin="round" stroke-miterlimit="10" stroke-width="2.5"/>
      <path id="Caminho_11541" data-name="Caminho 11541" d="M48.692,60.3c-3.913.941-6.1,2.746-6.1,6.1v2.287a5.155,5.155,0,0,0,.449,2.424,3.184,3.184,0,0,0,3.517,1.82l27.874-8.01" fill="none" stroke="#004f81" stroke-linecap="round" stroke-linejoin="round" stroke-miterlimit="10" stroke-width="2.5"/>
      <path id="Caminho_11542" data-name="Caminho 11542" d="M70.626,37.745a10.92,10.92,0,0,1-.312-2.6q0-.444.035-.879A10.837,10.837,0,0,1,71.773,29.7" fill="none" stroke="#004f81" stroke-linejoin="round" stroke-miterlimit="10" stroke-width="2.5"/>
      <path id="Caminho_11543" data-name="Caminho 11543" d="M70.626,49.8a10.907,10.907,0,0,1-.312-2.6q0-.442.035-.879a10.828,10.828,0,0,1,1.424-4.567" fill="none" stroke="#004f81" stroke-linejoin="round" stroke-miterlimit="10" stroke-width="2.5"/>
      <path id="Caminho_11544" data-name="Caminho 11544" d="M72.2,65.369a10.83,10.83,0,0,1-1.883-6.121q0-.446.035-.879a10.837,10.837,0,0,1,1.424-4.57" fill="none" stroke="#004f81" stroke-linejoin="round" stroke-miterlimit="10" stroke-width="2.5"/>
      <g id="Grupo_5638" data-name="Grupo 5638">
        <line id="Linha_198" data-name="Linha 198" x1="12.752" y2="3.602" transform="translate(26.584 18.048)" fill="none" stroke="#004f81" stroke-linecap="round" stroke-linejoin="round" stroke-miterlimit="10" stroke-width="2.5"/>
        <line id="Linha_199" data-name="Linha 199" x1="12.752" y2="3.603" transform="translate(33.554 21.316)" fill="none" stroke="#004f81" stroke-linecap="round" stroke-linejoin="round" stroke-miterlimit="10" stroke-width="2.5"/>
      </g>
    </g>
  </g>
</svg>
