<svg xmlns="http://www.w3.org/2000/svg" width="104" height="104" viewBox="0 0 104 104">
  <g id="Grupo_5648" data-name="Grupo 5648" transform="translate(-914 -7686)">
    <g id="Grupo_4487" data-name="Grupo 4487" transform="translate(27 5402)">
      <g id="Elipse_177" data-name="Elipse 177" transform="translate(893 2290)" fill="#fff" stroke="#952d98" stroke-width="6">
        <circle cx="46" cy="46" r="46" stroke="none"/>
        <circle cx="46" cy="46" r="49" fill="none"/>
      </g>
    </g>
    <g id="Grupo_5641" data-name="Grupo 5641" transform="translate(928.336 7701.352)">
      <path id="Caminho_11553" data-name="Caminho 11553" d="M64.9,29.537l4.694-1.6V23.478L36.663,14.073,3.731,23.478v4.455l32.932,10.74,23.342-7.612" fill="none" stroke="#004f81" stroke-linecap="round" stroke-linejoin="round" stroke-miterlimit="10" stroke-width="2.5"/>
      <path id="Caminho_11554" data-name="Caminho 11554" d="M21.015,41.724v7.465c4.133,3.928,10.664,6.445,17.838,6.445s13.7-2.517,17.835-6.445V36.869" transform="translate(-2.602 -3.432)" fill="none" stroke="#004f81" stroke-linecap="round" stroke-linejoin="round" stroke-miterlimit="10" stroke-width="2.5"/>
      <path id="Caminho_11555" data-name="Caminho 11555" d="M66.42,48.678V29.149L44.381,23.2" transform="translate(-6.12 -1.375)" fill="none" stroke="#004f81" stroke-linecap="round" stroke-linejoin="round" stroke-miterlimit="10" stroke-width="2.5"/>
      <circle id="Elipse_226" data-name="Elipse 226" cx="3.562" cy="3.562" r="3.562" transform="translate(56.745 47.482)" fill="none" stroke="#004f81" stroke-linecap="round" stroke-linejoin="round" stroke-miterlimit="10" stroke-width="2.5"/>
      <path id="Caminho_11556" data-name="Caminho 11556" d="M68.09,61.486l-1.967,8.02h7.152l-1.967-8.02" transform="translate(-9.393 -7.138)" fill="none" stroke="#004f81" stroke-linejoin="round" stroke-miterlimit="10" stroke-width="2.5"/>
    </g>
  </g>
</svg>
