<?xml version="1.0" encoding="utf-8"?>
<!-- Generator: Adobe Illustrator 28.0.0, SVG Export Plug-In . SVG Version: 6.00 Build 0)  -->
<svg version="1.1" id="Camada_1" xmlns:serif="http://www.serif.com/"
	 xmlns="http://www.w3.org/2000/svg" xmlns:xlink="http://www.w3.org/1999/xlink" x="0px" y="0px" viewBox="0 0 535.3 768"
	 style="enable-background:new 0 0 535.3 768;" xml:space="preserve">
<style type="text/css">
	.st0{fill:#62C9CE;}
</style>
<g transform="matrix(1,0,0,1,-15783.5,-14499.9)">
	<g transform="matrix(1,0,0,1,15120,14320.1)">
		<g transform="matrix(1,0,0,-1,663.47,330.246)">
			<path class="st0" d="M530.6-348.5c0-147.2-117.9-266.3-263.4-266.3c-145.6,0-263.4,119-263.4,266.3
				c0,166.1,149.7,230.2,219.7,466.1c6.7,22.2,25.1,33.1,42.4,33.1c20.2,0,39.2-11.2,45.2-33.1C381.3-119.3,530.6-181.3,530.6-348.5
				 M482.7-348.5c0,72.7-34.4,121.7-81.7,189.6C357.2-96.6,303-19.2,267.2,96.9c-35.8-115.7-89.9-193-133.4-255.7
				C86.1-227,51.6-276.2,51.6-348.5c0-120.5,96.7-218.4,215.5-218.4C386-566.9,482.7-469,482.7-348.5 M291.1-495.1
				c0-13.3-10.7-23.9-24-23.9c-92.4,0-167.6,73.8-167.6,166.1c0,13.3,10.7,23.9,24,23.9s23.9-10.7,23.9-23.9
				c0-64.6,53.7-118.3,119.7-118.3C280.5-471.2,291.1-481.9,291.1-495.1"/>
		</g>
		<g transform="matrix(1,0,0,-1,698,265)">
			<path class="st0" d="M170.2-297.3c1.7,0,3.3-0.2,5-0.5c1.6-0.3,3.2-0.8,4.8-1.4c1.5-0.6,3-1.4,4.4-2.3s2.7-2,3.9-3.2
				s2.2-2.5,3.2-3.9c0.9-1.4,1.7-2.9,2.3-4.4s1.1-3.1,1.4-4.8s0.5-3.3,0.5-5s-0.2-3.3-0.5-5s-0.8-3.2-1.4-4.8
				c-0.6-1.5-1.4-3-2.3-4.4c-0.9-1.4-2-2.7-3.2-3.9c-1.2-1.2-2.5-2.2-3.9-3.2c-1.4-0.9-2.9-1.7-4.4-2.3c-1.5-0.6-3.1-1.1-4.8-1.4
				c-1.6-0.3-3.3-0.5-5-0.5s-3.3,0.2-5,0.5c-1.6,0.3-3.2,0.8-4.8,1.4c-1.5,0.6-3,1.4-4.4,2.3s-2.7,2-3.9,3.2s-2.2,2.5-3.2,3.9
				c-0.9,1.4-1.7,2.9-2.3,4.4s-1.1,3.1-1.4,4.8s-0.5,3.3-0.5,5s0.2,3.3,0.5,5s0.8,3.2,1.4,4.8c0.6,1.5,1.4,3,2.3,4.4
				c0.9,1.4,2,2.7,3.2,3.9c1.2,1.2,2.5,2.2,3.9,3.2c1.4,0.9,2.9,1.7,4.4,2.3c1.5,0.6,3.1,1.1,4.8,1.4
				C166.9-297.4,168.6-297.3,170.2-297.3z"/>
		</g>
		<g transform="matrix(1,0,0,-1,720,265)">
			<path class="st0" d="M260.1-297.3c1.7,0,3.3-0.2,5-0.5c1.6-0.3,3.2-0.8,4.8-1.4c1.5-0.6,3-1.4,4.4-2.3s2.7-2,3.9-3.2
				s2.2-2.5,3.2-3.9c0.9-1.4,1.7-2.9,2.3-4.4s1.1-3.1,1.4-4.8s0.5-3.3,0.5-5s-0.2-3.3-0.5-5s-0.8-3.2-1.4-4.8
				c-0.6-1.5-1.4-3-2.3-4.4c-0.9-1.4-2-2.7-3.2-3.9c-1.2-1.2-2.5-2.2-3.9-3.2c-1.4-0.9-2.9-1.7-4.4-2.3c-1.5-0.6-3.1-1.1-4.8-1.4
				c-1.6-0.3-3.3-0.5-5-0.5s-3.3,0.2-5,0.5c-1.6,0.3-3.2,0.8-4.8,1.4c-1.5,0.6-3,1.4-4.4,2.3s-2.7,2-3.9,3.2s-2.2,2.5-3.2,3.9
				c-0.9,1.4-1.7,2.9-2.3,4.4s-1.1,3.1-1.4,4.8s-0.5,3.3-0.5,5s0.2,3.3,0.5,5s0.8,3.2,1.4,4.8c0.6,1.5,1.4,3,2.3,4.4
				c0.9,1.4,2,2.7,3.2,3.9c1.2,1.2,2.5,2.2,3.9,3.2c1.4,0.9,2.9,1.7,4.4,2.3c1.5,0.6,3.1,1.1,4.8,1.4
				C256.8-297.4,258.4-297.3,260.1-297.3z"/>
		</g>
	</g>
</g>
</svg>
