<svg xmlns="http://www.w3.org/2000/svg" width="617.526" height="351.252" viewBox="0 0 617.526 351.252">
  <g id="Grupo_5557" data-name="Grupo 5557" transform="translate(-311.474 -5973.748)">
    <text id="_Net_Promoter_Score_considera_uma_escala_de_-100_a_100." data-name="*Net Promoter Score, considera uma escala de -100 a +100." transform="translate(313 6275)" fill="#202224" font-size="16" font-family="Montserrat-Italic, Montserrat" font-style="italic"><tspan x="0" y="15">*Net Promoter Score, considera uma escala de -100 a +100.</tspan></text>
    <g id="Layer_1" data-name="Layer 1" transform="translate(313 5973.748)">
      <g id="Grupo_1004" data-name="Grupo 1004" transform="translate(0 0)">
        <text id="_85_3" data-name="85,3" transform="translate(86.562 176.423)" fill="#00b093" font-size="32" font-family="Montserrat-Bold, Montserrat" font-weight="700"><tspan x="0" y="0">85,3</tspan></text>
        <text id="HOS" transform="translate(168.658 173.219)" fill="#00b093" font-size="12" font-family="Montserrat-ExtraBold, Montserrat" font-weight="800"><tspan x="0" y="0">HOS</tspan></text>
        <text id="P" transform="translate(198.437 173.219)" fill="#00b093" font-size="12" font-family="Montserrat-ExtraBold, Montserrat" font-weight="800"><tspan x="0" y="0">P</tspan></text>
        <text id="I" transform="translate(207.854 171.219)" fill="#00b093" font-size="10" font-family="Montserrat-ExtraBold, Montserrat" font-weight="800"><tspan x="0" y="0">I</tspan></text>
        <text id="T" transform="translate(212.25 172.219)" fill="#00b093" font-size="11" font-family="Montserrat-ExtraBold, Montserrat" font-weight="800"><tspan x="0" y="0">T</tspan></text>
        <text id="AL_MUNICI" data-name="AL MUNICI" transform="translate(220.037 173.219)" fill="#00b093" font-size="12" font-family="Montserrat-ExtraBold, Montserrat" font-weight="800"><tspan x="0" y="0">AL MUNICI</tspan></text>
        <text id="P-2" data-name="P" transform="translate(293.212 173.219)" fill="#00b093" font-size="12" font-family="Montserrat-ExtraBold, Montserrat" font-weight="800"><tspan x="0" y="0">P</tspan></text>
        <text id="AL" transform="translate(302.186 173.219)" fill="#00b093" font-size="12" font-family="Montserrat-ExtraBold, Montserrat" font-weight="800"><tspan x="0" y="0">AL</tspan></text>
        <text id="V" transform="translate(324.034 173.219)" fill="#00b093" font-size="12" font-family="Montserrat-ExtraBold, Montserrat" font-weight="800"><tspan x="0" y="0">V</tspan></text>
        <text id="I-2" data-name="I" transform="translate(333.778 171.219)" fill="#00b093" font-size="10" font-family="Montserrat-ExtraBold, Montserrat" font-weight="800"><tspan x="0" y="0">I</tspan></text>
        <text id="L" transform="translate(338.173 173.219)" fill="#00b093" font-size="12" font-family="Montserrat-ExtraBold, Montserrat" font-weight="800"><tspan x="0" y="0">L</tspan></text>
        <text id="A_SAN" data-name="A SAN" transform="translate(346.182 173.219)" fill="#00b093" font-size="12" font-family="Montserrat-ExtraBold, Montserrat" font-weight="800"><tspan x="0" y="0">A SAN</tspan></text>
        <text id="T-2" data-name="T" transform="translate(389.135 172.219)" fill="#00b093" font-size="11" font-family="Montserrat-ExtraBold, Montserrat" font-weight="800"><tspan x="0" y="0">T</tspan></text>
        <text id="A" transform="translate(396.909 173.219)" fill="#00b093" font-size="12" font-family="Montserrat-ExtraBold, Montserrat" font-weight="800"><tspan x="0" y="0">A</tspan></text>
        <text id="C" transform="translate(410.852 173.219)" fill="#00b093" font-size="12" font-family="Montserrat-ExtraBold, Montserrat" font-weight="800"><tspan x="0" y="0">C</tspan></text>
        <text id="A-2" data-name="A" transform="translate(420.283 173.219)" fill="#00b093" font-size="12" font-family="Montserrat-ExtraBold, Montserrat" font-weight="800"><tspan x="0" y="0">A</tspan></text>
        <text id="T-3" data-name="T" transform="translate(430 172.219)" fill="#00b093" font-size="11" font-family="Montserrat-ExtraBold, Montserrat" font-weight="800"><tspan x="0" y="0">T</tspan></text>
        <text id="ARIN" transform="translate(437.787 173.219)" fill="#00b093" font-size="12" font-family="Montserrat-ExtraBold, Montserrat" font-weight="800"><tspan x="0" y="0">ARIN</tspan></text>
        <text id="A-3" data-name="A" transform="translate(472.392 173.219)" fill="#00b093" font-size="12" font-family="Montserrat-ExtraBold, Montserrat" font-weight="800"><tspan x="0" y="0">A</tspan></text>
        <text id="_79_9" data-name="79,9" transform="translate(86.601 69.096)" fill="#0c9cd8" font-size="33" font-family="Montserrat-Bold, Montserrat" font-weight="700"><tspan x="0" y="0" letter-spacing="-0.02em">7</tspan><tspan y="0" letter-spacing="-0.03em">9,</tspan><tspan y="0">9</tspan></text>
        <text id="HOSPITAL_MORUMBI" data-name="HOSPITAL MORUMBI" transform="translate(168.658 67.435)" fill="#0c9cd8" font-size="12" font-family="Montserrat-ExtraBold, Montserrat" font-weight="800"><tspan x="0" y="0">HOSPITAL MORUMBI</tspan></text>
        <text id="_84_8" data-name="84,8" transform="translate(86.601 113.705)" fill="#0c9cd8" font-size="33" font-family="Montserrat-Bold, Montserrat" font-weight="700"><tspan x="0" y="0" letter-spacing="-0.02em">8</tspan><tspan y="0" letter-spacing="-0.03em">4,</tspan><tspan y="0">8</tspan></text>
        <text id="HOSPITAL_GOIÂNIA" data-name="HOSPITAL GOIÂNIA" transform="translate(168.658 112.032)" fill="#0c9cd8" font-size="12" font-family="Montserrat-ExtraBold, Montserrat" font-weight="800"><tspan x="0" y="0">HOSPITAL GOIÂNIA</tspan></text>
        <text id="_62_9" data-name="62,9" transform="translate(86.562 223.159)" fill="#00b093" font-size="32" font-family="Montserrat-Bold, Montserrat" font-weight="700"><tspan x="0" y="0">62,9</tspan></text>
        <text id="HOS-2" data-name="HOS" transform="translate(168.658 216.668)" fill="#00b093" font-size="12" font-family="Montserrat-ExtraBold, Montserrat" font-weight="800"><tspan x="0" y="0">HOS</tspan></text>
        <text id="P-3" data-name="P" transform="translate(198.437 216.668)" fill="#00b093" font-size="12" font-family="Montserrat-ExtraBold, Montserrat" font-weight="800"><tspan x="0" y="0">P</tspan></text>
        <text id="I-3" data-name="I" transform="translate(207.854 214.668)" fill="#00b093" font-size="10" font-family="Montserrat-ExtraBold, Montserrat" font-weight="800"><tspan x="0" y="0">I</tspan></text>
        <text id="T-4" data-name="T" transform="translate(212.25 215.668)" fill="#00b093" font-size="11" font-family="Montserrat-ExtraBold, Montserrat" font-weight="800"><tspan x="0" y="0">T</tspan></text>
        <text id="AL_MUNICI-2" data-name="AL MUNICI" transform="translate(220.037 216.668)" fill="#00b093" font-size="12" font-family="Montserrat-ExtraBold, Montserrat" font-weight="800"><tspan x="0" y="0">AL MUNICI</tspan></text>
        <text id="P-4" data-name="P" transform="translate(293.212 216.668)" fill="#00b093" font-size="12" font-family="Montserrat-ExtraBold, Montserrat" font-weight="800"><tspan x="0" y="0">P</tspan></text>
        <text id="AL_M_BOI_MIRIM" data-name="AL M’BOI MIRIM" transform="translate(302.186 216.668)" fill="#00b093" font-size="12" font-family="Montserrat-ExtraBold, Montserrat" font-weight="800"><tspan x="0" y="0">AL M’BOI MIRIM</tspan></text>
        <text id="_97_0" data-name="97,0" transform="translate(86.562 269.907)" fill="#00b093" font-size="32" font-family="Montserrat-Bold, Montserrat" font-weight="700"><tspan x="0" y="0">97,0</tspan></text>
        <text id="HOS-3" data-name="HOS" transform="translate(168.658 263.416)" fill="#00b093" font-size="12" font-family="Montserrat-ExtraBold, Montserrat" font-weight="800"><tspan x="0" y="0">HOS</tspan></text>
        <text id="P-5" data-name="P" transform="translate(198.437 263.416)" fill="#00b093" font-size="12" font-family="Montserrat-ExtraBold, Montserrat" font-weight="800"><tspan x="0" y="0">P</tspan></text>
        <text id="I-4" data-name="I" transform="translate(207.854 261.416)" fill="#00b093" font-size="10" font-family="Montserrat-ExtraBold, Montserrat" font-weight="800"><tspan x="0" y="0">I</tspan></text>
        <text id="T-5" data-name="T" transform="translate(212.25 262.416)" fill="#00b093" font-size="11" font-family="Montserrat-ExtraBold, Montserrat" font-weight="800"><tspan x="0" y="0">T</tspan></text>
        <text id="AL_MUNICI-3" data-name="AL MUNICI" transform="translate(220.037 263.416)" fill="#00b093" font-size="12" font-family="Montserrat-ExtraBold, Montserrat" font-weight="800"><tspan x="0" y="0">AL MUNICI</tspan></text>
        <text id="P-6" data-name="P" transform="translate(293.212 263.416)" fill="#00b093" font-size="12" font-family="Montserrat-ExtraBold, Montserrat" font-weight="800"><tspan x="0" y="0">P</tspan></text>
        <text id="AL_DE_APARECIDA_DE_GOIÂNIA" data-name="AL DE APARECIDA DE GOIÂNIA" transform="translate(302.186 263.416)" fill="#00b093" font-size="12" font-family="Montserrat-ExtraBold, Montserrat" font-weight="800"><tspan x="0" y="0">AL DE APARECIDA DE GOIÂNIA</tspan></text>
        <text id="S" transform="translate(3.891 15)" fill="#20819e" font-size="16" font-family="Montserrat-ExtraBold, Montserrat" font-weight="800"><tspan x="0" y="0">S</tspan></text>
        <text id="A-4" data-name="A" transform="translate(14.026 15)" fill="#20819e" font-size="16" font-family="Montserrat-ExtraBold, Montserrat" font-weight="800"><tspan x="0" y="0">A</tspan></text>
        <text id="TIS" transform="translate(25.791 15)" fill="#20819e" font-size="15" font-family="Montserrat-ExtraBold, Montserrat" font-weight="800"><tspan x="0" y="0">TIS</tspan></text>
        <text id="F" transform="translate(51.161 15)" fill="#20819e" font-size="16" font-family="Montserrat-ExtraBold, Montserrat" font-weight="800"><tspan x="0" y="0">F</tspan></text>
        <text id="A-5" data-name="A" transform="translate(60.787 15)" fill="#20819e" font-size="16" font-family="Montserrat-ExtraBold, Montserrat" font-weight="800"><tspan x="0" y="0">A</tspan></text>
        <text id="Ç" transform="translate(72.957 15)" fill="#20819e" font-size="15" font-family="Montserrat-ExtraBold, Montserrat" font-weight="800"><tspan x="0" y="0">Ç</tspan></text>
        <text id="Ã" transform="translate(84.331 15)" fill="#20819e" font-size="16" font-family="Montserrat-ExtraBold, Montserrat" font-weight="800"><tspan x="0" y="0">Ã</tspan></text>
        <text id="O_DOS" data-name="O DOS" transform="translate(96.501 15)" fill="#20819e" font-size="15" font-family="Montserrat-ExtraBold, Montserrat" font-weight="800"><tspan x="0" y="0">O DOS</tspan></text>
        <text id="P-7" data-name="P" transform="translate(155.145 15)" fill="#20819e" font-size="15" font-family="Montserrat-ExtraBold, Montserrat" font-weight="800"><tspan x="0" y="0">P</tspan></text>
        <text id="A-6" data-name="A" transform="translate(165.997 15)" fill="#20819e" font-size="16" font-family="Montserrat-ExtraBold, Montserrat" font-weight="800"><tspan x="0" y="0">A</tspan></text>
        <text id="CIENTES" transform="translate(178.141 15)" fill="#20819e" font-size="15" font-family="Montserrat-ExtraBold, Montserrat" font-weight="800"><tspan x="0" y="0">CIENTES</tspan></text>
        <text id="_" data-name="        " transform="translate(248.72 15)" fill="#20819e" font-size="15" font-family="Montserrat-ExtraBold, Montserrat" font-weight="800" letter-spacing="-0.05em"><tspan x="0" y="0" xml:space="preserve">        </tspan></text>
        <path id="Caminho_7244" data-name="Caminho 7244" d="M41.359,42.67a9.988,9.988,0,0,0-8.478-7.226c-4.578-.483-9.509,1.983-11.231,5.687-1.722-3.7-6.665-6.17-11.231-5.687A10.224,10.224,0,0,0,1.733,47.783C3.4,55.583,12.52,59.092,21.65,67.923c4.3-4.161,8.609-7.135,12.131-9.939" transform="translate(-1.507 12.048)" fill="none" stroke="#0c9cd8" stroke-linecap="round" stroke-linejoin="round" stroke-width="3"/>
        <path id="Caminho_7245" data-name="Caminho 7245" d="M22.88,89.646a7.556,7.556,0,0,0,13.944,0M25.984,78.794v4.644m7.748-4.644v4.644m3.013-20.2.822-4.044L27.537,49.354l13.591-1.135L46.906,35.28l5.765,12.939,13.6,1.135L56.246,59.189,58.88,72.115,46.906,65.972l-3.861,1.983" transform="translate(4.998 12.016)" fill="none" stroke="#0c9cd8" stroke-linecap="round" stroke-linejoin="round" stroke-width="3"/>
        <circle id="Elipse_173" data-name="Elipse 173" cx="16.265" cy="16.265" r="16.265" transform="translate(16.275 111.346) rotate(-81.13)" fill="none" stroke="#0c9cd8" stroke-linejoin="round" stroke-width="3"/>
        <path id="Caminho_7246" data-name="Caminho 7246" d="M41.359,146.26a9.988,9.988,0,0,0-8.478-7.226c-4.578-.483-9.509,1.983-11.231,5.687-1.722-3.7-6.665-6.17-11.231-5.687a10.224,10.224,0,0,0-8.687,12.339c1.67,7.8,10.787,11.309,19.918,20.139,4.3-4.161,8.609-7.135,12.131-9.939" transform="translate(-1.507 43.577)" fill="none" stroke="#00b093" stroke-linecap="round" stroke-linejoin="round" stroke-width="3"/>
        <path id="Caminho_7247" data-name="Caminho 7247" d="M22.88,193.236a7.556,7.556,0,0,0,13.944,0M25.984,182.384v4.644m7.748-4.644v4.644m3.013-20.2.822-4.044-10.031-9.835,13.591-1.135,5.778-12.939,5.765,12.939,13.6,1.135-10.031,9.835,2.635,12.939-11.974-6.144-3.861,1.983" transform="translate(4.998 43.545)" fill="none" stroke="#00b093" stroke-linecap="round" stroke-linejoin="round" stroke-width="3"/>
        <circle id="Elipse_174" data-name="Elipse 174" cx="16.265" cy="16.265" r="16.265" transform="matrix(0.149, -0.989, 0.989, 0.149, 16.359, 246.566)" fill="none" stroke="#00b093" stroke-linejoin="round" stroke-width="3"/>
      </g>
    </g>
  </g>
</svg>
