<svg xmlns="http://www.w3.org/2000/svg" width="614.992" height="307.777" viewBox="0 0 614.992 307.777">
  <g id="Grupo_5560" data-name="Grupo 5560" transform="translate(-1003.008 -6535.666)">
    <text id="_Net_Promoter_Score_considera_uma_escala_de_-100_a_100." data-name="*Net Promoter Score, considera uma escala de -100 a +100." transform="translate(1330 6759)" fill="#202224" font-size="16" font-family="Montserrat-Italic, Montserrat" font-style="italic"><tspan x="0" y="15">*Net Promoter Score, considera </tspan><tspan x="0" y="34">uma escala de -100 a +100.</tspan></text>
    <g id="Layer_1" data-name="Layer 1" transform="translate(1003.008 6535.666)">
      <g id="Grupo_1007" data-name="Grupo 1007">
        <line id="Linha_122" data-name="Linha 122" y2="307.777" transform="translate(287.299)" fill="none" stroke="#8a8c8e" stroke-width="1"/>
        <line id="Linha_123" data-name="Linha 123" x1="237.237" transform="translate(5.296 146.532)" fill="none" stroke="#8a8c8e" stroke-width="1"/>
        <text id="_83" data-name="83" transform="translate(418.035 153.027)" fill="#0c9cd8" font-size="40" font-family="Montserrat-Bold, Montserrat" font-weight="700"><tspan x="0" y="0">83</tspan></text>
        <text id="S" transform="translate(328.96 193.306)" fill="#0c9cd8" font-size="16" font-family="Montserrat-ExtraBold, Montserrat" font-weight="800"><tspan x="0" y="0">S</tspan></text>
        <text id="A" transform="translate(339.082 193.306)" fill="#0c9cd8" font-size="16" font-family="Montserrat-ExtraBold, Montserrat" font-weight="800"><tspan x="0" y="0">A</tspan></text>
        <text id="TIS" transform="translate(350.834 193.306)" fill="#0c9cd8" font-size="15" font-family="Montserrat-ExtraBold, Montserrat" font-weight="800"><tspan x="0" y="0">TIS</tspan></text>
        <text id="F" transform="translate(376.217 193.306)" fill="#0c9cd8" font-size="16" font-family="Montserrat-ExtraBold, Montserrat" font-weight="800"><tspan x="0" y="0">F</tspan></text>
        <text id="A-2" data-name="A" transform="translate(385.844 193.306)" fill="#0c9cd8" font-size="16" font-family="Montserrat-ExtraBold, Montserrat" font-weight="800"><tspan x="0" y="0">A</tspan></text>
        <text id="Ç" transform="translate(398 193.306)" fill="#0c9cd8" font-size="15" font-family="Montserrat-ExtraBold, Montserrat" font-weight="800"><tspan x="0" y="0">Ç</tspan></text>
        <text id="Ã" transform="translate(409.374 193.306)" fill="#0c9cd8" font-size="16" font-family="Montserrat-ExtraBold, Montserrat" font-weight="800"><tspan x="0" y="0">Ã</tspan></text>
        <text id="O_DOS_A" data-name="O DOS A" transform="translate(421.544 193.306)" fill="#0c9cd8" font-size="15" font-family="Montserrat-ExtraBold, Montserrat" font-weight="800"><tspan x="0" y="0">O DOS A</tspan></text>
        <text id="L" transform="translate(492.488 193.306)" fill="#0c9cd8" font-size="15" font-family="Montserrat-ExtraBold, Montserrat" font-weight="800"><tspan x="0" y="0">L</tspan></text>
        <text id="UNO" transform="translate(501.932 193.306)" fill="#0c9cd8" font-size="15" font-family="Montserrat-ExtraBold, Montserrat" font-weight="800"><tspan x="0" y="0">UNO</tspan></text>
        <text id="S-2" data-name="S" transform="translate(540.097 193.306)" fill="#0c9cd8" font-size="16" font-family="Montserrat-ExtraBold, Montserrat" font-weight="800"><tspan x="0" y="0">S</tspan></text>
        <path id="Caminho_7273" data-name="Caminho 7273" d="M271.827,148.607h-.183a1.4,1.4,0,0,1-1.187-1.1L267.8,135.237l-11.3,4.578a1.415,1.415,0,0,1-1.565-.352,1.387,1.387,0,0,1-.209-1.578l9.652-18.77a1.4,1.4,0,0,1,2.491,1.278l-7.931,15.418,9.339-3.783a1.374,1.374,0,0,1,1.174.065,1.416,1.416,0,0,1,.717.939l2.191,10.083,8.244-16.018a1.394,1.394,0,1,1,2.478,1.278l-10.017,19.5a1.4,1.4,0,0,1-1.239.757m37.1-.026a1.38,1.38,0,0,1-1.239-.757l-10.031-19.526a1.4,1.4,0,1,1,2.491-1.291l8.257,16.044,2.191-10.083a1.409,1.409,0,0,1,1.891-1l9.339,3.783-7.931-15.431a1.394,1.394,0,1,1,2.478-1.278l9.652,18.783a1.4,1.4,0,0,1-1.774,1.93l-11.3-4.578-2.661,12.274a1.417,1.417,0,0,1-1.187,1.1h-.183m-18.548-24.679c-19.735,0-35.8-16.578-35.8-36.94s16.057-36.94,35.8-36.94,35.8,16.565,35.8,36.94-16.057,36.94-35.8,36.94m0-71.075c-18.2,0-33,15.313-33,34.135s14.8,34.135,33,34.135,33-15.313,33-34.135-14.8-34.135-33-34.135m0,61.8c-14.791,0-26.831-12.418-26.831-27.666s12.026-27.666,26.831-27.666,26.831,12.4,26.831,27.666-12.039,27.666-26.831,27.666m0-52.527c-13.252,0-24.026,11.152-24.026,24.861s10.774,24.861,24.026,24.861S314.4,100.658,314.4,86.95s-10.774-24.861-24.026-24.861M300.849,103.8a1.42,1.42,0,0,1-.835-.274l-9.639-7.109-9.639,7.109a1.409,1.409,0,0,1-1.67,0,1.392,1.392,0,0,1-.483-1.591l4.161-11.465-9.757-8.635a1.4,1.4,0,0,1,.926-2.439H284.9l4.148-11.439a1.4,1.4,0,0,1,2.635,0L295.827,79.4H306.81a1.4,1.4,0,0,1,.926,2.439l-9.757,8.635,4.161,11.465a1.392,1.392,0,0,1-.483,1.591,1.42,1.42,0,0,1-.835.274M290.375,93.276a1.42,1.42,0,0,1,.835.274l6.744,4.97-2.909-8.009a1.4,1.4,0,0,1,.391-1.526l7.709-6.822h-8.27a1.392,1.392,0,0,1-1.317-.926l-3.17-8.739-3.17,8.739a1.392,1.392,0,0,1-1.317.926h-8.27l7.709,6.822a1.4,1.4,0,0,1,.391,1.526l-2.909,8.009,6.744-4.97a1.391,1.391,0,0,1,.835-.274" transform="translate(77.481 15.221)" fill="#0c9cd8"/>
        <path id="Caminho_7274" data-name="Caminho 7274" d="M271.827,148.607h-.183a1.4,1.4,0,0,1-1.187-1.1L267.8,135.237l-11.3,4.578a1.415,1.415,0,0,1-1.565-.352,1.387,1.387,0,0,1-.209-1.578l9.652-18.77a1.4,1.4,0,0,1,2.491,1.278l-7.931,15.418,9.339-3.783a1.374,1.374,0,0,1,1.174.065,1.416,1.416,0,0,1,.717.939l2.191,10.083,8.244-16.018a1.394,1.394,0,1,1,2.478,1.278l-10.017,19.5a1.4,1.4,0,0,1-1.239.757Zm37.1,0a1.38,1.38,0,0,1-1.239-.757l-10.031-19.526a1.4,1.4,0,1,1,2.491-1.291l8.257,16.044,2.191-10.083a1.409,1.409,0,0,1,1.891-1l9.339,3.783-7.931-15.431a1.394,1.394,0,1,1,2.478-1.278l9.652,18.783a1.4,1.4,0,0,1-1.774,1.93l-11.3-4.578-2.661,12.274a1.417,1.417,0,0,1-1.187,1.1h-.183Zm-18.548-24.718c-19.735,0-35.8-16.578-35.8-36.94s16.057-36.94,35.8-36.94,35.8,16.565,35.8,36.94S310.123,123.889,290.375,123.889Zm0-71.075c-18.2,0-33,15.313-33,34.135s14.8,34.135,33,34.135,33-15.313,33-34.135-14.8-34.135-33-34.135Zm0,61.8c-14.791,0-26.831-12.418-26.831-27.666s12.026-27.666,26.831-27.666,26.831,12.4,26.831,27.666S305.166,114.615,290.375,114.615Zm0-52.527c-13.252,0-24.026,11.152-24.026,24.861s10.774,24.861,24.026,24.861S314.4,100.658,314.4,86.95,303.627,62.088,290.375,62.088ZM300.849,103.8a1.42,1.42,0,0,1-.835-.274l-9.639-7.109-9.639,7.109a1.409,1.409,0,0,1-1.67,0,1.392,1.392,0,0,1-.483-1.591l4.161-11.465-9.757-8.635a1.4,1.4,0,0,1,.926-2.439H284.9l4.148-11.439a1.4,1.4,0,0,1,2.635,0L295.827,79.4H306.81a1.4,1.4,0,0,1,.926,2.439l-9.757,8.635,4.161,11.465a1.392,1.392,0,0,1-.483,1.591,1.42,1.42,0,0,1-.835.274ZM290.375,93.276a1.42,1.42,0,0,1,.835.274l6.744,4.97-2.909-8.009a1.4,1.4,0,0,1,.391-1.526l7.709-6.822h-8.27a1.392,1.392,0,0,1-1.317-.926l-3.17-8.739-3.17,8.739a1.392,1.392,0,0,1-1.317.926h-8.27l7.709,6.822a1.4,1.4,0,0,1,.391,1.526l-2.909,8.009,6.744-4.97a1.391,1.391,0,0,1,.835-.274Z" transform="translate(77.481 15.221)" fill="none" stroke="#0c9cd8" stroke-width="1"/>
        <text id="_11" data-name="11" transform="translate(107.936 263.003)" fill="#0c9cd8" font-size="42" font-family="Montserrat-Bold, Montserrat" font-weight="700"><tspan x="0" y="0">11</tspan></text>
        <text id="UNI" transform="translate(152.115 246.99)" fill="#0c9cd8" font-size="13" font-family="Montserrat-ExtraBold, Montserrat" font-weight="800"><tspan x="0" y="0">UNI</tspan></text>
        <text id="D" transform="translate(178.672 246.99)" fill="#0c9cd8" font-size="13" font-family="Montserrat-ExtraBold, Montserrat" font-weight="800"><tspan x="0" y="0">D</tspan></text>
        <text id="ADES" transform="translate(189.915 246.99)" fill="#0c9cd8" font-size="13" font-family="Montserrat-ExtraBold, Montserrat" font-weight="800"><tspan x="0" y="0">ADES</tspan></text>
        <text id="DE_ENSINO" data-name="DE ENSINO" transform="translate(152.115 264.872)" fill="#0c9cd8" font-size="13" font-family="Montserrat-ExtraBold, Montserrat" font-weight="800"><tspan x="0" y="0">DE ENSINO</tspan></text>
        <path id="Caminho_7275" data-name="Caminho 7275" d="M19.94,192.441a1.8,1.8,0,0,0,3.6,0V188.75a1.8,1.8,0,0,0-3.6,0Z" transform="translate(6.069 56.901)" fill="#0c9cd8"/>
        <path id="Caminho_7276" data-name="Caminho 7276" d="M21.74,174.4a1.8,1.8,0,0,0,1.8-1.8V168.91a1.8,1.8,0,0,0-3.6,0V172.6a1.8,1.8,0,0,0,1.8,1.8" transform="translate(6.069 50.862)" fill="#0c9cd8"/>
        <path id="Caminho_7277" data-name="Caminho 7277" d="M32.95,172.6a1.8,1.8,0,1,0,3.6,0V168.91a1.8,1.8,0,0,0-3.6,0Z" transform="translate(10.029 50.862)" fill="#0c9cd8"/>
        <path id="Caminho_7278" data-name="Caminho 7278" d="M85.547,166.374,84.2,167.692a1.807,1.807,0,0,0-.535,1.278v36.966a1.8,1.8,0,1,0,3.6,0V169.726l1.343-1.317a1.83,1.83,0,0,0,.535-1.278v-3.691a1.8,1.8,0,0,0-1.8-1.8H64.639v-4.852l1.343-1.317a1.83,1.83,0,0,0,.535-1.278V150.5a1.8,1.8,0,0,0-1.8-1.8H32.669a1.8,1.8,0,0,0-1.8,1.8v3.691a1.807,1.807,0,0,0,.535,1.278l1.343,1.317v4.852h-22.7a1.8,1.8,0,0,0-1.8,1.8v3.691a1.807,1.807,0,0,0,.535,1.278l1.343,1.317v45.509H4.39a1.8,1.8,0,1,0,0,3.6H17.577a1.8,1.8,0,1,0,0-3.6H13.716V168.983a1.807,1.807,0,0,0-.535-1.278l-1.343-1.317v-1.148H32.747v38.87a1.8,1.8,0,1,0,3.6,0V156.057a1.807,1.807,0,0,0-.535-1.278l-1.343-1.317v-1.148H62.93v1.148l-1.343,1.317a1.807,1.807,0,0,0-.535,1.278v59.192H57.1V202.257a1.8,1.8,0,0,0-1.8-1.8H43.99a1.792,1.792,0,0,0-1.787,1.8v3.691a1.794,1.794,0,1,0,3.587,0v-1.9h7.722v12.991a1.8,1.8,0,0,0,1.8,1.8h7.539a1.8,1.8,0,0,0,1.8-1.8v-51.8H85.574v1.148Z" transform="translate(0.788 45.259)" fill="#0c9cd8"/>
        <path id="Caminho_7279" data-name="Caminho 7279" d="M19.94,182.521a1.8,1.8,0,1,0,3.6,0V178.83a1.8,1.8,0,1,0-3.6,0Z" transform="translate(6.069 53.881)" fill="#0c9cd8"/>
        <path id="Caminho_7280" data-name="Caminho 7280" d="M15.95,167.11a1.8,1.8,0,0,0-1.8,1.8V172.6a1.8,1.8,0,0,0,3.6,0V168.91a1.8,1.8,0,0,0-1.8-1.8" transform="translate(4.307 50.862)" fill="#0c9cd8"/>
        <path id="Caminho_7281" data-name="Caminho 7281" d="M15.95,186.95a1.8,1.8,0,0,0-1.8,1.8v3.7a1.8,1.8,0,0,0,3.6,0v-3.7a1.8,1.8,0,0,0-1.8-1.8" transform="translate(4.307 56.901)" fill="#0c9cd8"/>
        <path id="Caminho_7282" data-name="Caminho 7282" d="M45.234,201.426H43.2a6.487,6.487,0,0,0-6.444-5.544,6.627,6.627,0,0,0-2.883.665,7.564,7.564,0,0,0-5.6-2.517,7.4,7.4,0,0,0-7.448,7.344l-1.97.052a1.8,1.8,0,1,0,0,3.6h3.77a1.8,1.8,0,0,0,1.8-1.8v-1.852a3.814,3.814,0,0,1,3.861-3.757,3.853,3.853,0,0,1,3.5,2.2,1.826,1.826,0,0,0,1.317,1,1.852,1.852,0,0,0,1.578-.5,2.93,2.93,0,0,1,2.087-.861,2.882,2.882,0,0,1,2.922,2.83v.926a1.8,1.8,0,0,0,1.8,1.8h3.77a1.8,1.8,0,1,0,0-3.6" transform="translate(5.192 59.055)" fill="#0c9cd8"/>
        <path id="Caminho_7283" data-name="Caminho 7283" d="M15.95,177.03a1.8,1.8,0,0,0-1.8,1.8v3.691a1.8,1.8,0,1,0,3.6,0V178.83a1.8,1.8,0,0,0-1.8-1.8" transform="translate(4.307 53.881)" fill="#0c9cd8"/>
        <path id="Caminho_7284" data-name="Caminho 7284" d="M34.74,164.481a1.8,1.8,0,0,0,1.8-1.8V158.99a1.8,1.8,0,1,0-3.6,0v3.691a1.8,1.8,0,0,0,1.8,1.8" transform="translate(10.026 47.843)" fill="#0c9cd8"/>
        <path id="Caminho_7285" data-name="Caminho 7285" d="M56.77,168.91a1.8,1.8,0,0,0-3.6,0V172.6a1.8,1.8,0,0,0,3.6,0Z" transform="translate(16.183 50.862)" fill="#0c9cd8"/>
        <path id="Caminho_7286" data-name="Caminho 7286" d="M32.95,182.521a1.8,1.8,0,1,0,3.6,0V178.83a1.8,1.8,0,1,0-3.6,0Z" transform="translate(10.029 53.881)" fill="#0c9cd8"/>
        <path id="Caminho_7287" data-name="Caminho 7287" d="M56.77,178.83a1.8,1.8,0,1,0-3.6,0v3.691a1.8,1.8,0,1,0,3.6,0Z" transform="translate(16.183 53.881)" fill="#0c9cd8"/>
        <path id="Caminho_7288" data-name="Caminho 7288" d="M54.97,186.95a1.8,1.8,0,0,0-1.8,1.8v3.7a1.8,1.8,0,0,0,3.6,0v-3.7a1.8,1.8,0,0,0-1.8-1.8" transform="translate(16.183 56.901)" fill="#0c9cd8"/>
        <path id="Caminho_7289" data-name="Caminho 7289" d="M76.145,201.179H74.71a6.649,6.649,0,0,0-11.491-4.239,5.9,5.9,0,0,0-2.413-.522,5.772,5.772,0,0,0-5.739,4.748H53.54a1.8,1.8,0,0,0,0,3.6h3.235a1.8,1.8,0,0,0,1.8-1.8v-.8a2.2,2.2,0,0,1,2.244-2.165,2.268,2.268,0,0,1,1.617.665,1.8,1.8,0,0,0,2.9-.509,3.05,3.05,0,0,1,2.765-1.735,3.013,3.013,0,0,1,3.052,2.961v1.578a1.8,1.8,0,0,0,1.8,1.8h3.235a1.8,1.8,0,0,0,0-3.6" transform="translate(15.748 59.302)" fill="#0c9cd8"/>
        <path id="Caminho_7290" data-name="Caminho 7290" d="M60.75,186.95a1.8,1.8,0,0,0-1.8,1.8v3.7a1.8,1.8,0,0,0,3.6,0v-3.7a1.8,1.8,0,0,0-1.8-1.8" transform="translate(17.942 56.901)" fill="#0c9cd8"/>
        <path id="Caminho_7291" data-name="Caminho 7291" d="M62.55,168.91a1.8,1.8,0,0,0-3.6,0V172.6a1.8,1.8,0,0,0,3.6,0Z" transform="translate(17.942 50.862)" fill="#0c9cd8"/>
        <path id="Caminho_7292" data-name="Caminho 7292" d="M62.55,178.83a1.8,1.8,0,1,0-3.6,0v3.691a1.8,1.8,0,1,0,3.6,0Z" transform="translate(17.942 53.881)" fill="#0c9cd8"/>
        <path id="Caminho_7293" data-name="Caminho 7293" d="M41.97,164.481a1.8,1.8,0,0,0,1.8-1.8V158.99a1.8,1.8,0,1,0-3.6,0v3.691a1.8,1.8,0,0,0,1.8,1.8" transform="translate(12.226 47.843)" fill="#0c9cd8"/>
        <path id="Caminho_7294" data-name="Caminho 7294" d="M40.17,172.6a1.8,1.8,0,0,0,3.6,0V168.91a1.8,1.8,0,0,0-3.6,0Z" transform="translate(12.226 50.862)" fill="#0c9cd8"/>
        <path id="Caminho_7295" data-name="Caminho 7295" d="M40.17,182.521a1.8,1.8,0,1,0,3.6,0V178.83a1.8,1.8,0,1,0-3.6,0Z" transform="translate(12.226 53.881)" fill="#0c9cd8"/>
        <text id="_57_9" data-name="57,9" transform="translate(89.231 80.379)" fill="#0c9cd8" font-size="33" font-family="Montserrat-Bold, Montserrat" font-weight="700" letter-spacing="-0.02em"><tspan x="0" y="0">57,9</tspan></text>
        <text id="mil" transform="translate(89.231 110.223)" fill="#0c9cd8" font-size="33" font-family="Montserrat-Bold, Montserrat" font-weight="700"><tspan x="0" y="0" letter-spacing="-0.03em">m</tspan><tspan y="0" letter-spacing="-0.02em">i</tspan><tspan y="0">l</tspan></text>
        <text id="A-3" data-name="A" transform="translate(150.132 111.192)" fill="#0c9cd8" font-size="13" font-family="Montserrat-ExtraBold, Montserrat" font-weight="800"><tspan x="0" y="0">A</tspan></text>
        <text id="L-2" data-name="L" transform="translate(160.789 110.192)" fill="#0c9cd8" font-size="12" font-family="Montserrat-ExtraBold, Montserrat" font-weight="800"><tspan x="0" y="0">L</tspan></text>
        <text id="UNOS" transform="translate(168.967 111.192)" fill="#0c9cd8" font-size="13" font-family="Montserrat-ExtraBold, Montserrat" font-weight="800"><tspan x="0" y="0">UNOS</tspan></text>
        <path id="Caminho_7296" data-name="Caminho 7296" d="M37.572,65.84a2.411,2.411,0,0,0-1.357.417l-6.1,4.083L24.02,66.257a2.411,2.411,0,0,0-1.357-.417A19.885,19.885,0,0,0,2.85,85.758v2.491a2.426,2.426,0,1,0,4.852,0V85.758A15.124,15.124,0,0,1,21.946,70.718l5.739,3.848v13.7a2.426,2.426,0,1,0,4.852,0v-13.7l5.739-3.848A15.113,15.113,0,0,1,52.507,85.758v2.491a2.426,2.426,0,1,0,4.852,0V85.758A19.885,19.885,0,0,0,37.546,65.84" transform="translate(0.867 20.039)" fill="#0c9cd8"/>
        <path id="Caminho_7297" data-name="Caminho 7297" d="M66.862,66.108l-2.478-9.991a2.43,2.43,0,0,0-1.539-1.7,6.186,6.186,0,0,0-.874-10.891V34.216a2.433,2.433,0,0,0-.6-1.591,3.338,3.338,0,0,0-.378-.352,2.4,2.4,0,0,0-.678-.352L31.787,21.942a2.418,2.418,0,0,0-1.6,0L1.63,31.92a2.431,2.431,0,0,0,0,4.591L13.8,40.764a2.445,2.445,0,0,0-1.383,2.191v7.487a6.933,6.933,0,0,0,2.478,5.1,2.445,2.445,0,0,0-1.957,1.826,18.574,18.574,0,1,0,36.1,0,2.379,2.379,0,0,0-1.1-1.5,2.6,2.6,0,0,0-.848-.326,6.98,6.98,0,0,0,2.478-5.1V42.955A2.422,2.422,0,0,0,48.2,40.764l8.935-3.13v5.883a6.186,6.186,0,0,0-.874,10.891,2.4,2.4,0,0,0-1.539,1.7L52.24,66.095a2.449,2.449,0,0,0,.443,2.087,2.409,2.409,0,0,0,1.917.939H64.54a2.409,2.409,0,0,0,1.917-.939,2.439,2.439,0,0,0,.443-2.087M59.088,55.36a6.908,6.908,0,0,0,.9,0,2.451,2.451,0,0,0-.326,1.917L61.4,64.255H57.679l1.735-6.978a2.451,2.451,0,0,0-.326-1.917M44.309,58.516a14.535,14.535,0,0,1,.391,3.17,13.709,13.709,0,1,1-27.418.013,14,14,0,0,1,.391-3.2,2.378,2.378,0,0,0,.026-1,28.674,28.674,0,0,0,13.291,2.857A28.674,28.674,0,0,0,44.283,57.5a2.378,2.378,0,0,0,.026,1M44.7,42.955v7.487c0,2.022-5.465,5.061-13.709,5.061s-13.709-3.052-13.709-5.061V42.955a2.377,2.377,0,0,0-.248-1.057l13.148,4.6a2.418,2.418,0,0,0,1.6,0l13.148-4.6a2.369,2.369,0,0,0-.235,1.057M9.783,34.216l21.2-7.422,21.2,7.422-21.2,7.422-21.2-7.422ZM58.253,49.2a1.292,1.292,0,1,1,2.583,0,1.292,1.292,0,1,1-2.583,0" transform="translate(0 6.637)" fill="#0c9cd8"/>
      </g>
    </g>
  </g>
</svg>
