<svg xmlns="http://www.w3.org/2000/svg" width="459.894" height="621.32" viewBox="0 0 459.894 621.32">
  <g id="Layer_1" data-name="Layer 1" transform="translate(0.624)">
    <g id="Grupo_1002" data-name="Grupo 1002" transform="translate(0 0)">
      <text id="SAÍ" transform="translate(0.104 273.981)" fill="#20819e" font-size="15" font-family="Montserrat-ExtraBold, Montserrat" font-weight="800"><tspan x="0" y="0">SAÍ</tspan></text>
      <text id="D" transform="translate(27.835 273.981)" fill="#20819e" font-size="16" font-family="Montserrat-ExtraBold, Montserrat" font-weight="800"><tspan x="0" y="0">D</tspan></text>
      <text id="AS_HOS" data-name="AS HOS" transform="translate(40.631 273.981)" fill="#20819e" font-size="15" font-family="Montserrat-ExtraBold, Montserrat" font-weight="800"><tspan x="0" y="0">AS HOS</tspan></text>
      <text id="P" transform="translate(103.592 273.981)" fill="#20819e" font-size="15" font-family="Montserrat-ExtraBold, Montserrat" font-weight="800"><tspan x="0" y="0">P</tspan></text>
      <text id="I" transform="translate(114.98 273.981)" fill="#20819e" font-size="16" font-family="Montserrat-ExtraBold, Montserrat" font-weight="800"><tspan x="0" y="0">I</tspan></text>
      <text id="T" transform="translate(120.288 273.981)" fill="#20819e" font-size="16" font-family="Montserrat-ExtraBold, Montserrat" font-weight="800"><tspan x="0" y="0">T</tspan></text>
      <text id="A" transform="translate(129.68 273.981)" fill="#20819e" font-size="16" font-family="Montserrat-ExtraBold, Montserrat" font-weight="800"><tspan x="0" y="0">A</tspan></text>
      <text id="L" transform="translate(141.98 273.981)" fill="#20819e" font-size="15" font-family="Montserrat-ExtraBold, Montserrat" font-weight="800"><tspan x="0" y="0">L</tspan></text>
      <text id="ARES_" data-name="ARES*" transform="translate(151.645 273.981)" fill="#20819e" font-size="15" font-family="Montserrat-ExtraBold, Montserrat" font-weight="800"><tspan x="0" y="0">ARES*</tspan></text>
      <text id="LEI" transform="translate(0.104 520.258)" fill="#20819e" font-size="15" font-family="Montserrat-ExtraBold, Montserrat" font-weight="800"><tspan x="0" y="0">LEI</tspan></text>
      <text id="T-2" data-name="T" transform="translate(25.474 520.258)" fill="#20819e" font-size="16" font-family="Montserrat-ExtraBold, Montserrat" font-weight="800"><tspan x="0" y="0">T</tspan></text>
      <text id="OS" transform="translate(35.27 520.258)" fill="#20819e" font-size="15" font-family="Montserrat-ExtraBold, Montserrat" font-weight="800"><tspan x="0" y="0">OS</tspan></text>
      <text id="P-2" data-name="P" transform="translate(0.104 15)" fill="#20819e" font-size="15" font-family="Montserrat-ExtraBold, Montserrat" font-weight="800"><tspan x="0" y="0">P</tspan></text>
      <text id="A-2" data-name="A" transform="translate(10.931 15)" fill="#20819e" font-size="16" font-family="Montserrat-ExtraBold, Montserrat" font-weight="800"><tspan x="0" y="0">A</tspan></text>
      <text id="RT" transform="translate(23.244 15)" fill="#20819e" font-size="15" font-family="Montserrat-ExtraBold, Montserrat" font-weight="800"><tspan x="0" y="0">RT</tspan></text>
      <text id="OS-2" data-name="OS" transform="translate(44.479 15)" fill="#20819e" font-size="15" font-family="Montserrat-ExtraBold, Montserrat" font-weight="800"><tspan x="0" y="0">OS</tspan></text>
      <text id="_746" data-name="746" transform="translate(134.584 613.015)" fill="#0c9cd8" font-size="33" font-family="Montserrat-Bold, Montserrat" font-weight="700"><tspan x="0" y="0" letter-spacing="-0.02em">7</tspan><tspan y="0" letter-spacing="-0.03em">4</tspan><tspan y="0">6</tspan></text>
      <path id="Caminho_7119" data-name="Caminho 7119" d="M29.47,454.918a4.633,4.633,0,0,0-.143-1c-2.2-4.552-11.061-9.444-16.07-8.752a2.247,2.247,0,0,0-1.422,1.591c-.183,1.93.039,3.9-.1,5.831-.143,1.826.757,2.309,2.322,2.309,2.648,0,5.309.013,7.957.026h7.474M4.414,476.884l.352.9c2.948,1.109,3.744.639,3.744-2.257V428.414q-4.2-.522-4.174,3.313c0,.7.026,1.4.039,2.1v.483q0,21.287.039,42.574m7.709-44.44c.052,2.178.091,4.357.143,6.535-.457,1.957.13,2.948,2.335,2.844a13.534,13.534,0,0,1,4.148.483c6.4,1.774,12.235,4.3,14.387,11.465.535,1.8,2.2,1.565,3.626,1.5.835-.039,1.657-.352,2.478-.352,4.826-.026,9.665,0,14.491,0l51.209.039c.717.548,1.37,1.409,2.165,1.578,1.357.3,1.787.913,1.539,2.191-.3-.1-.6-.209-.887-.313h-1.4c-.47,0-.939,0-1.409.013H101.21l-4.67.039h-12.2a7.321,7.321,0,0,0-1.552-.326q-12.033-.039-24.052,0a7.321,7.321,0,0,0-1.552.326h-12.2l-10.331-.274c-1.878.078-3.744.156-5.622.222h-6.5c-1.917-.039-3.835-.065-5.752-.1h-.743c-.352,0-.717.013-1.07.026-.457.039-.9.065-1.357.1-.157.026-.326.052-.5.078-.417.339-.835.691-1.239,1.03-.039.052-.1.117-.1.157a2.334,2.334,0,0,0,.157.313c.052,2.022.091,4.031.143,6.052-.052.052-.157.1-.157.143a2.08,2.08,0,0,0,.157.352c.026,1.1.065,2.2.1,3.313.17.13.326.274.5.417h91.045c1.63,0,3.274-.065,4.9-.091v3.939c-.143-.065-.3-.13-.443-.2l-1.343-.078c-.339.013-.665.026-.991.052-.3,0-.6,0-.9.013-.157.052-.326.117-.483.17-.157-.052-.326-.117-.483-.17h-.457c-.47.052-.952.1-1.435.17l.039-.183H97.4l.039.183c-.326-.052-.639-.117-.965-.17H22.453c-.313.052-.626.117-.952.17-.626-.052-1.252-.1-1.891-.17H18.7c-.939,0-1.891,0-2.83-.013-.3-.013-.6-.026-.9-.052-3.574.287-4.33,1.722-2.778,5.322L11.131,481.5l-2.739.587H3.24a2.821,2.821,0,0,1-2.57-2.8l.039-.626c.026-1.161.091-2.335.091-3.5q0-19.7-.039-39.418V424.37H9.8c.47,0,.939.013,1.4.026l.17.1h.2c.117.378.222.757.339,1.135.013.235.039.47.052.717l.183-.026c0,1.1.026,2.178.039,3.274v.939c-.052.457-.1.926-.157,1.4-.052.052-.157.1-.143.143a1.662,1.662,0,0,0,.143.352" transform="translate(-0.67 131.51)" fill="#0c9cd8"/>
      <path id="Caminho_7120" data-name="Caminho 7120" d="M88.029,435.778a7.663,7.663,0,0,0-.391,1.748q0,7.807.052,15.639c.143,3.078.391,6.17.378,9.248-.013,3.548-.235,7.1-.443,10.657-.1,1.735.391,2.935,2.309,3.013,2.23.091,1.9-1.6,1.9-2.948q.02-17.511,0-35.022c0-3.1-.6-3.457-3.822-2.322m-3.691,32.192q0-5.752-.013-11.491c.261-1.278-.17-1.891-1.526-2.191-.8-.183-1.448-1.03-2.165-1.591l1.409-.156H84.4V432.5c.457-.2.926-.378,1.383-.574l.222.039.209-.091,1.422-.078c1.709.065,3.417.13,5.126.209,1.539.065,2.765.548,2.909,2.348v37.9c0,1.33-.065,2.661.039,3.978.209,2.4-1.122,3.078-3.2,3.157s-4.135.2-6.2.378c-1.813.17-2.035-.861-1.983-2.3.052-1.852,0-3.717-.026-5.583v-3.939" transform="translate(23.664 133.772)" fill="#0c9cd8"/>
      <path id="Caminho_7121" data-name="Caminho 7121" d="M71.157,450.618H44a7.321,7.321,0,0,1,1.552-.326q12.033-.02,24.052,0a7.321,7.321,0,0,1,1.552.326" transform="translate(12.518 139.397)" fill="#0c9cd8"/>
      <path id="Caminho_7122" data-name="Caminho 7122" d="M37.078,450.594c-3.43.013-6.861.039-10.278.052a2.777,2.777,0,0,0-.039-.326l10.331.274" transform="translate(7.271 139.408)" fill="#0c9cd8"/>
      <path id="Caminho_7123" data-name="Caminho 7123" d="M18.8,450.524c-1.917-.039-3.835-.065-5.752-.1,1.917.039,3.835.065,5.752.1" transform="translate(3.098 139.439)" fill="#0c9cd8"/>
      <path id="Caminho_7124" data-name="Caminho 7124" d="M28.062,450.32a2.778,2.778,0,0,1,.039.326c-1.891-.026-3.783-.065-5.661-.1,1.878-.078,3.757-.143,5.622-.222" transform="translate(5.956 139.408)" fill="#0c9cd8"/>
      <path id="Caminho_7125" data-name="Caminho 7125" d="M78.83,450.49l-4.67.039,4.67-.039" transform="translate(21.698 139.46)" fill="#0c9cd8"/>
      <path id="Caminho_7126" data-name="Caminho 7126" d="M68.357,450.54h0" transform="translate(19.074 139.475)" fill="#0c9cd8"/>
      <path id="Caminho_7127" data-name="Caminho 7127" d="M81.152,450.5h0" transform="translate(23.119 139.463)" fill="#0c9cd8"/>
      <path id="Caminho_7128" data-name="Caminho 7128" d="M83.1,450.49h0" transform="translate(23.992 139.46)" fill="#0c9cd8"/>
      <path id="Caminho_7129" data-name="Caminho 7129" d="M83.433,462.428l-1.343-.078,1.343.078" transform="translate(24.111 143.07)" fill="#0c9cd8"/>
      <path id="Caminho_7130" data-name="Caminho 7130" d="M75.8,462.36h0" transform="translate(21.911 143.073)" fill="#0c9cd8"/>
      <path id="Caminho_7131" data-name="Caminho 7131" d="M71.483,462.38h0" transform="translate(20.605 143.079)" fill="#0c9cd8"/>
      <path id="Caminho_7132" data-name="Caminho 7132" d="M70.053,462.39h0" transform="translate(20.17 143.082)" fill="#0c9cd8"/>
      <path id="Caminho_7133" data-name="Caminho 7133" d="M77.23,462.37h0" transform="translate(22.358 143.076)" fill="#0c9cd8"/>
      <path id="Caminho_7134" data-name="Caminho 7134" d="M78.7,462.37h0" transform="translate(22.793 143.076)" fill="#0c9cd8"/>
      <path id="Caminho_7135" data-name="Caminho 7135" d="M81.53,462.38c-.3,0-.6,0-.9.013.3,0,.6,0,.9-.013" transform="translate(23.667 143.079)" fill="#0c9cd8"/>
      <path id="Caminho_7136" data-name="Caminho 7136" d="M34.153,462.39h0" transform="translate(9.243 143.082)" fill="#0c9cd8"/>
      <path id="Caminho_7137" data-name="Caminho 7137" d="M31.283,462.39h0" transform="translate(8.37 143.082)" fill="#0c9cd8"/>
      <path id="Caminho_7138" data-name="Caminho 7138" d="M29.843,462.39h0" transform="translate(7.931 143.082)" fill="#0c9cd8"/>
      <path id="Caminho_7139" data-name="Caminho 7139" d="M26.973,462.39h0" transform="translate(7.058 143.082)" fill="#0c9cd8"/>
      <path id="Caminho_7140" data-name="Caminho 7140" d="M25.533,462.39h0" transform="translate(6.619 143.082)" fill="#0c9cd8"/>
      <path id="Caminho_7141" data-name="Caminho 7141" d="M24.1,462.39h0" transform="translate(6.184 143.082)" fill="#0c9cd8"/>
      <path id="Caminho_7142" data-name="Caminho 7142" d="M22.663,462.39h0" transform="translate(5.746 143.082)" fill="#0c9cd8"/>
      <path id="Caminho_7143" data-name="Caminho 7143" d="M21.233,462.39h0" transform="translate(5.311 143.082)" fill="#0c9cd8"/>
      <path id="Caminho_7144" data-name="Caminho 7144" d="M19.793,462.39h0" transform="translate(4.872 143.082)" fill="#0c9cd8"/>
      <path id="Caminho_7145" data-name="Caminho 7145" d="M18.363,462.39h0" transform="translate(4.437 143.082)" fill="#0c9cd8"/>
      <path id="Caminho_7146" data-name="Caminho 7146" d="M15.61,462.392c-.3-.013-.6-.026-.9-.052.3.013.6.039.9.052" transform="translate(3.603 143.067)" fill="#0c9cd8"/>
      <path id="Caminho_7147" data-name="Caminho 7147" d="M74.36,462.38h0" transform="translate(21.485 143.079)" fill="#0c9cd8"/>
      <path id="Caminho_7148" data-name="Caminho 7148" d="M73.662,450.53h0" transform="translate(21.256 139.472)" fill="#0c9cd8"/>
      <path id="Caminho_7149" data-name="Caminho 7149" d="M72.232,450.54h0" transform="translate(20.821 139.475)" fill="#0c9cd8"/>
      <path id="Caminho_7150" data-name="Caminho 7150" d="M70.792,450.54h0" transform="translate(20.383 139.475)" fill="#0c9cd8"/>
      <path id="Caminho_7151" data-name="Caminho 7151" d="M69.362,450.55h0" transform="translate(19.948 139.478)" fill="#0c9cd8"/>
      <path id="Caminho_7152" data-name="Caminho 7152" d="M43.512,450.54h0" transform="translate(12.08 139.475)" fill="#0c9cd8"/>
      <path id="Caminho_7153" data-name="Caminho 7153" d="M42.072,450.54h0" transform="translate(11.641 139.475)" fill="#0c9cd8"/>
      <path id="Caminho_7154" data-name="Caminho 7154" d="M40.642,450.54h0" transform="translate(11.206 139.475)" fill="#0c9cd8"/>
      <path id="Caminho_7155" data-name="Caminho 7155" d="M39.2,450.54h0" transform="translate(10.768 139.475)" fill="#0c9cd8"/>
      <path id="Caminho_7156" data-name="Caminho 7156" d="M37.772,450.54h0" transform="translate(10.333 139.475)" fill="#0c9cd8"/>
      <path id="Caminho_7157" data-name="Caminho 7157" d="M36.332,450.54h0" transform="translate(9.894 139.475)" fill="#0c9cd8"/>
      <path id="Caminho_7158" data-name="Caminho 7158" d="M15.74,450.41c-.352,0-.717.026-1.07.026.352,0,.717-.026,1.07-.026" transform="translate(3.591 139.436)" fill="#0c9cd8"/>
      <path id="Caminho_7159" data-name="Caminho 7159" d="M13.736,450.51c-.157.026-.326.052-.5.078.157-.026.326-.052.5-.078" transform="translate(3.156 139.466)" fill="#0c9cd8"/>
      <path id="Caminho_7160" data-name="Caminho 7160" d="M12.314,451.36c.013.156.039.313.052.47a3.493,3.493,0,0,1-.157-.313c0-.039.065-.1.1-.156" transform="translate(2.842 139.725)" fill="#0c9cd8"/>
      <path id="Caminho_7161" data-name="Caminho 7161" d="M12.487,456.36v.509c-.052-.117-.117-.235-.157-.352,0-.026.1-.091.157-.143" transform="translate(2.879 141.247)" fill="#0c9cd8"/>
      <path id="Caminho_7162" data-name="Caminho 7162" d="M12.52,459.29l.5.417-.5-.417" transform="translate(2.937 142.139)" fill="#0c9cd8"/>
      <path id="Caminho_7163" data-name="Caminho 7163" d="M79.993,462.393l-.222.052-.222-.065h.443" transform="translate(23.338 143.079)" fill="#0c9cd8"/>
      <path id="Caminho_7164" data-name="Caminho 7164" d="M86.395,434.84c.026,5.087.078,10.174.065,15.261a11.14,11.14,0,0,1-.417,2.126c-.026-5.217-.065-10.422-.052-15.639a8.423,8.423,0,0,1,.391-1.748" transform="translate(25.298 134.697)" fill="#0c9cd8"/>
      <text id="_7_4_mil" data-name="7,4 mil" transform="translate(55.122 178.276)" fill="#00b093" font-size="32" font-family="Montserrat-Bold, Montserrat" font-weight="700"><tspan x="0" y="0">7,4 mil</tspan></text>
      <path id="Caminho_7165" data-name="Caminho 7165" d="M11.679,116.394c-5.583.052-8.257,4-8.935,7.9-.678,3.926.587,7.552,2.844,10.839,3.613,5.257,8.857,8.439,14.439,11.165a2.246,2.246,0,0,0,1.97-.2,33.275,33.275,0,0,0,13.291-10.083c2.857-3.757,4.435-7.957,3.1-12.757A8.99,8.99,0,0,0,30,116.342a11.818,11.818,0,0,0-8.087,3.052,1.626,1.626,0,0,1-2.426.117c-2.309-1.709-4.787-3.117-7.8-3.117m29.035,10.226a20.375,20.375,0,0,1-5.491,12.144,39.679,39.679,0,0,1-13.409,9.326,2.82,2.82,0,0,1-2.465,0A35.094,35.094,0,0,1,4.674,136.977c-3.365-4.409-4.983-9.235-3.157-14.818,1.578-4.865,7.526-9.548,14.178-6.822a18.676,18.676,0,0,1,3.848,2.022,1.862,1.862,0,0,0,2.557-.052,12.615,12.615,0,0,1,7.839-2.752,10.148,10.148,0,0,1,8.309,4.239,13.1,13.1,0,0,1,2.5,7.826" transform="translate(-0.644 37.207)" fill="#00b093"/>
      <path id="Caminho_7166" data-name="Caminho 7166" d="M11.679,116.394c-5.583.052-8.257,4-8.935,7.9-.678,3.926.587,7.552,2.844,10.839,3.613,5.257,8.857,8.439,14.439,11.165a2.246,2.246,0,0,0,1.97-.2,33.275,33.275,0,0,0,13.291-10.083c2.857-3.757,4.435-7.957,3.1-12.757A8.99,8.99,0,0,0,30,116.342a11.818,11.818,0,0,0-8.087,3.052,1.626,1.626,0,0,1-2.426.117c-2.309-1.709-4.787-3.117-7.8-3.117Zm29.048,10.226a20.375,20.375,0,0,1-5.491,12.144,39.679,39.679,0,0,1-13.409,9.326,2.82,2.82,0,0,1-2.465,0A35.094,35.094,0,0,1,4.674,136.977c-3.365-4.409-4.983-9.235-3.157-14.818,1.578-4.865,7.526-9.548,14.178-6.822a18.676,18.676,0,0,1,3.848,2.022,1.862,1.862,0,0,0,2.557-.052,12.615,12.615,0,0,1,7.839-2.752,10.148,10.148,0,0,1,8.309,4.239,13.1,13.1,0,0,1,2.5,7.826Z" transform="translate(-0.644 37.207)" fill="none" stroke="#00b093" stroke-miterlimit="10" stroke-width="1.5"/>
      <text id="_3_9_mil" data-name="3,9 mil" transform="translate(55.122 77.196)" fill="#0c9cd8" font-size="33" font-family="Montserrat-Bold, Montserrat" font-weight="700"><tspan x="0" y="0" letter-spacing="-0.03em">3</tspan><tspan y="0" letter-spacing="-0.02em">,9 mi</tspan><tspan y="0">l</tspan></text>
      <path id="Caminho_7167" data-name="Caminho 7167" d="M11.679,41.071c-5.583.052-8.257,4-8.935,7.9-.678,3.926.587,7.552,2.844,10.839C9.2,65.072,14.444,68.254,20.027,70.98A2.243,2.243,0,0,0,22,70.8,33.275,33.275,0,0,0,35.288,60.715c2.857-3.757,4.435-7.957,3.1-12.757A8.99,8.99,0,0,0,30,41.032a11.818,11.818,0,0,0-8.087,3.052,1.626,1.626,0,0,1-2.426.117c-2.309-1.709-4.787-3.117-7.8-3.117M40.727,51.311a20.341,20.341,0,0,1-5.491,12.131,39.679,39.679,0,0,1-13.409,9.326,2.82,2.82,0,0,1-2.465,0A34.987,34.987,0,0,1,4.674,61.654c-3.365-4.409-4.983-9.235-3.157-14.8C3.1,41.984,9.044,37.3,15.7,40.028a18.675,18.675,0,0,1,3.848,2.022A1.862,1.862,0,0,0,22.1,42a12.615,12.615,0,0,1,7.839-2.752,10.113,10.113,0,0,1,8.309,4.239,13.137,13.137,0,0,1,2.5,7.839" transform="translate(-0.644 14.286)" fill="#0c9cd8"/>
      <path id="Caminho_7168" data-name="Caminho 7168" d="M11.679,41.071c-5.583.052-8.257,4-8.935,7.9-.678,3.926.587,7.552,2.844,10.839C9.2,65.072,14.444,68.254,20.027,70.98A2.243,2.243,0,0,0,22,70.8,33.275,33.275,0,0,0,35.288,60.715c2.857-3.757,4.435-7.957,3.1-12.757A8.99,8.99,0,0,0,30,41.032a11.818,11.818,0,0,0-8.087,3.052,1.626,1.626,0,0,1-2.426.117c-2.309-1.709-4.787-3.117-7.8-3.117ZM40.727,51.311a20.341,20.341,0,0,1-5.491,12.131,39.679,39.679,0,0,1-13.409,9.326,2.82,2.82,0,0,1-2.465,0A34.987,34.987,0,0,1,4.674,61.654c-3.365-4.409-4.983-9.235-3.157-14.8C3.1,41.984,9.044,37.3,15.7,40.028a18.675,18.675,0,0,1,3.848,2.022A1.862,1.862,0,0,0,22.1,42a12.615,12.615,0,0,1,7.839-2.752,10.113,10.113,0,0,1,8.309,4.239,13.137,13.137,0,0,1,2.5,7.839Z" transform="translate(-0.644 14.286)" fill="none" stroke="#0c9cd8" stroke-miterlimit="10" stroke-width="1.5"/>
      <text id="_68_3_mil" data-name="68,3 mil" transform="translate(69.796 349.443)" fill="#0c9cd8" font-size="33" font-family="Montserrat-Bold, Montserrat" font-weight="700"><tspan x="0" y="0" letter-spacing="-0.02em">68,3 mi</tspan><tspan y="0">l</tspan></text>
      <text id="_40_3_mil" data-name="40,3 mil" transform="translate(69.77 438.522)" fill="#00b093" font-size="32" font-family="Montserrat-Bold, Montserrat" font-weight="700"><tspan x="0" y="0">40,3 mil</tspan></text>
      <path id="Caminho_7169" data-name="Caminho 7169" d="M27.206,314.119v11.426H16.132v8.661H27.389v11.3c2.309,0,4.291-.091,6.261.026,1.813.1,2.387-.665,2.335-2.374-.078-2.948-.026-5.9-.026-9.117H46.811c0-2.544-.052-4.787.013-7.031.052-1.813-.926-2.048-2.426-1.93-2.739.222-5.478.339-8.544.522V314.132H27.206Zm32.622,15.965c2.113,15.874-13.918,29.179-28.474,28.761-16.644-.47-28-11.857-28.918-26.883C1.171,311.314,17.489,300.41,31.393,300.54c13.435.13,29.713,9.783,28.435,29.557" transform="translate(-0.154 93.821)" fill="#00b093"/>
      <path id="Caminho_7170" data-name="Caminho 7170" d="M25.6,250.292v11.426H14.522v8.661H25.779v11.3c2.309,0,4.291-.091,6.261.026,1.813.1,2.387-.665,2.335-2.374-.078-2.948-.026-5.9-.026-9.117H45.2c0-2.544-.052-4.787.013-7.031.052-1.813-.926-2.048-2.426-1.93-2.739.222-5.478.339-8.544.522V250.3H25.6Zm32.622,15.965c2.113,15.874-13.918,29.179-28.474,28.761-16.644-.47-28-11.857-28.918-26.9C-.439,247.474,15.879,236.57,29.783,236.7c13.435.13,29.713,9.783,28.435,29.557" transform="translate(-0.644 74.39)" fill="#0c9cd8"/>
      <line id="Linha_117" data-name="Linha 117" x1="218.429" transform="translate(0.104 240.524)" fill="none" stroke="#8a8c8e" stroke-width="1"/>
      <text id="_889" data-name="889" transform="translate(397.27 613.32)" fill="#00b093" font-size="32" font-family="Montserrat-Bold, Montserrat" font-weight="700"><tspan x="0" y="0">889</tspan></text>
      <path id="Caminho_7171" data-name="Caminho 7171" d="M230.089,454.918a4.632,4.632,0,0,0-.143-1c-2.2-4.552-11.061-9.444-16.07-8.752a2.247,2.247,0,0,0-1.422,1.591c-.183,1.93.039,3.9-.1,5.831-.143,1.826.757,2.309,2.322,2.309q3.972,0,7.957.026H230.1m-25.07,21.965c.117.3.235.6.365.9,2.948,1.109,3.743.639,3.743-2.257V428.414q-4.2-.522-4.187,3.313c0,.7.026,1.4.039,2.1v.483q.02,21.287.039,42.574m7.709-44.44c.052,2.178.091,4.357.143,6.535-.457,1.957.13,2.948,2.335,2.844a13.534,13.534,0,0,1,4.148.483c6.4,1.774,12.235,4.3,14.387,11.465.535,1.8,2.2,1.565,3.626,1.5.835-.039,1.657-.352,2.478-.352,4.826-.026,9.665,0,14.491,0l51.209.039c.717.548,1.37,1.409,2.165,1.578,1.357.3,1.787.913,1.539,2.191-.3-.1-.6-.209-.887-.313h-1.4c-.47,0-.939,0-1.422.013h-3.744l-4.67.039h-12.2a7.321,7.321,0,0,0-1.552-.326q-12.033-.039-24.052,0a7.321,7.321,0,0,0-1.552.326H245.6l-10.331-.274c-1.878.078-3.743.156-5.622.222h-6.5c-1.917-.039-3.835-.065-5.752-.1h-.73c-.352,0-.717.013-1.07.026-.457.039-.9.065-1.357.1-.157.026-.326.052-.5.078-.417.339-.835.691-1.239,1.03-.039.052-.1.117-.1.157a2.336,2.336,0,0,0,.156.313c.052,2.022.091,4.031.143,6.052-.052.052-.157.1-.157.143a2.082,2.082,0,0,0,.157.352c.026,1.1.065,2.2.1,3.313.17.13.326.274.5.417h91.045c1.63,0,3.274-.065,4.9-.091v3.939c-.143-.065-.3-.13-.443-.2l-1.344-.078c-.339.013-.665.026-.991.052-.3,0-.6,0-.9.013-.157.052-.326.117-.483.17-.156-.052-.313-.117-.483-.17h-.457c-.483.052-.952.1-1.435.17l.039-.183h-4.735l.039.183c-.326-.052-.652-.117-.965-.17H223.046c-.313.052-.639.117-.952.17-.626-.052-1.252-.1-1.891-.17h-.913c-.939,0-1.891,0-2.844-.013-.3-.013-.6-.026-.9-.052-3.574.287-4.33,1.722-2.778,5.322l-1.057,2.309-2.739.587H203.82a2.821,2.821,0,0,1-2.57-2.8l.039-.626c.026-1.161.091-2.335.091-3.5q0-19.7-.039-39.418V424.37h9.026c.47,0,.939.013,1.409.026l.157.1h.2c.117.378.222.757.339,1.135.013.235.039.47.052.717l.183-.026c0,1.1.026,2.178.039,3.274v.939c-.052.457-.1.926-.156,1.4-.052.052-.157.1-.143.143a1.662,1.662,0,0,0,.143.352" transform="translate(60.379 131.51)" fill="#00b093"/>
      <path id="Caminho_7172" data-name="Caminho 7172" d="M288.642,435.778a7.666,7.666,0,0,0-.391,1.748q0,7.807.052,15.639c.143,3.078.391,6.17.378,9.248-.013,3.548-.235,7.1-.43,10.657-.1,1.735.391,2.935,2.309,3.013,2.23.091,1.9-1.6,1.9-2.948q.02-17.511,0-35.022c0-3.1-.6-3.457-3.822-2.322m-3.7,32.192q0-5.752-.013-11.491c.261-1.278-.17-1.891-1.539-2.191-.8-.183-1.448-1.03-2.165-1.591l1.409-.156H285V432.5c.457-.2.926-.378,1.383-.574l.222.039.209-.091,1.422-.078c1.709.065,3.417.13,5.126.209,1.539.065,2.765.548,2.909,2.348v37.9c0,1.33-.065,2.661.039,3.978.209,2.4-1.122,3.078-3.2,3.157s-4.135.2-6.2.378c-1.813.17-2.035-.861-1.983-2.3.052-1.852,0-3.717-.026-5.583v-3.939" transform="translate(84.719 133.772)" fill="#00b093"/>
      <path id="Caminho_7173" data-name="Caminho 7173" d="M271.767,450.618H244.61a7.321,7.321,0,0,1,1.552-.326q12.033-.02,24.052,0a7.321,7.321,0,0,1,1.552.326" transform="translate(73.576 139.397)" fill="#00b093"/>
      <path id="Caminho_7174" data-name="Caminho 7174" d="M237.688,450.594c-3.43.013-6.861.039-10.278.052a2.781,2.781,0,0,0-.039-.326l10.331.274" transform="translate(68.329 139.408)" fill="#00b093"/>
      <path id="Caminho_7175" data-name="Caminho 7175" d="M219.412,450.524c-1.917-.039-3.835-.065-5.752-.1,1.917.039,3.835.065,5.752.1" transform="translate(64.156 139.439)" fill="#00b093"/>
      <path id="Caminho_7176" data-name="Caminho 7176" d="M228.675,450.32a2.781,2.781,0,0,1,.039.326c-1.891-.026-3.783-.065-5.674-.1,1.878-.078,3.757-.143,5.622-.222" transform="translate(67.011 139.408)" fill="#00b093"/>
      <path id="Caminho_7177" data-name="Caminho 7177" d="M279.44,450.49l-4.67.039,4.67-.039" transform="translate(82.756 139.46)" fill="#00b093"/>
      <path id="Caminho_7178" data-name="Caminho 7178" d="M268.967,450.54h0" transform="translate(80.132 139.475)" fill="#00b093"/>
      <path id="Caminho_7179" data-name="Caminho 7179" d="M281.762,450.5h0" transform="translate(84.177 139.463)" fill="#00b093"/>
      <path id="Caminho_7180" data-name="Caminho 7180" d="M283.706,450.49h0" transform="translate(85.051 139.46)" fill="#00b093"/>
      <path id="Caminho_7181" data-name="Caminho 7181" d="M284.043,462.428l-1.343-.078,1.343.078" transform="translate(85.169 143.07)" fill="#00b093"/>
      <path id="Caminho_7182" data-name="Caminho 7182" d="M276.409,462.36h0" transform="translate(82.969 143.073)" fill="#00b093"/>
      <path id="Caminho_7183" data-name="Caminho 7183" d="M272.093,462.38h0" transform="translate(81.663 143.079)" fill="#00b093"/>
      <path id="Caminho_7184" data-name="Caminho 7184" d="M270.663,462.39h0" transform="translate(81.228 143.082)" fill="#00b093"/>
      <path id="Caminho_7185" data-name="Caminho 7185" d="M277.84,462.37h0" transform="translate(83.416 143.076)" fill="#00b093"/>
      <path id="Caminho_7186" data-name="Caminho 7186" d="M279.309,462.37h0" transform="translate(83.852 143.076)" fill="#00b093"/>
      <path id="Caminho_7187" data-name="Caminho 7187" d="M282.14,462.38c-.3,0-.6,0-.9.013.3,0,.6,0,.9-.013" transform="translate(84.725 143.079)" fill="#00b093"/>
      <path id="Caminho_7188" data-name="Caminho 7188" d="M234.763,462.39h0" transform="translate(70.301 143.082)" fill="#00b093"/>
      <path id="Caminho_7189" data-name="Caminho 7189" d="M231.893,462.39h0" transform="translate(69.428 143.082)" fill="#00b093"/>
      <path id="Caminho_7190" data-name="Caminho 7190" d="M230.453,462.39h0" transform="translate(68.989 143.082)" fill="#00b093"/>
      <path id="Caminho_7191" data-name="Caminho 7191" d="M227.583,462.39h0" transform="translate(68.116 143.082)" fill="#00b093"/>
      <path id="Caminho_7192" data-name="Caminho 7192" d="M226.143,462.39h0" transform="translate(67.678 143.082)" fill="#00b093"/>
      <path id="Caminho_7193" data-name="Caminho 7193" d="M224.713,462.39h0" transform="translate(67.242 143.082)" fill="#00b093"/>
      <path id="Caminho_7194" data-name="Caminho 7194" d="M223.273,462.39h0" transform="translate(66.804 143.082)" fill="#00b093"/>
      <path id="Caminho_7195" data-name="Caminho 7195" d="M221.843,462.39h0" transform="translate(66.369 143.082)" fill="#00b093"/>
      <path id="Caminho_7196" data-name="Caminho 7196" d="M220.4,462.39h0" transform="translate(65.931 143.082)" fill="#00b093"/>
      <path id="Caminho_7197" data-name="Caminho 7197" d="M218.963,462.39h0" transform="translate(65.492 143.082)" fill="#00b093"/>
      <path id="Caminho_7198" data-name="Caminho 7198" d="M213.22,462.392c-.3-.013-.6-.026-.9-.052.3.013.6.039.9.052" transform="translate(63.748 143.067)" fill="#00b093"/>
      <path id="Caminho_7199" data-name="Caminho 7199" d="M274.97,462.38h0" transform="translate(82.543 143.079)" fill="#00b093"/>
      <path id="Caminho_7200" data-name="Caminho 7200" d="M274.272,450.53h0" transform="translate(82.314 139.472)" fill="#00b093"/>
      <path id="Caminho_7201" data-name="Caminho 7201" d="M272.842,450.54h0" transform="translate(81.879 139.475)" fill="#00b093"/>
      <path id="Caminho_7202" data-name="Caminho 7202" d="M271.4,450.54h0" transform="translate(81.441 139.475)" fill="#00b093"/>
      <path id="Caminho_7203" data-name="Caminho 7203" d="M269.972,450.55h0" transform="translate(81.006 139.478)" fill="#00b093"/>
      <path id="Caminho_7204" data-name="Caminho 7204" d="M244.122,450.54h0" transform="translate(73.138 139.475)" fill="#00b093"/>
      <path id="Caminho_7205" data-name="Caminho 7205" d="M242.682,450.54h0" transform="translate(72.7 139.475)" fill="#00b093"/>
      <path id="Caminho_7206" data-name="Caminho 7206" d="M241.252,450.54h0" transform="translate(72.264 139.475)" fill="#00b093"/>
      <path id="Caminho_7207" data-name="Caminho 7207" d="M239.812,450.54h0" transform="translate(71.826 139.475)" fill="#00b093"/>
      <path id="Caminho_7208" data-name="Caminho 7208" d="M238.372,450.54h0" transform="translate(71.388 139.475)" fill="#00b093"/>
      <path id="Caminho_7209" data-name="Caminho 7209" d="M236.942,450.54h0" transform="translate(70.953 139.475)" fill="#00b093"/>
      <path id="Caminho_7210" data-name="Caminho 7210" d="M213.35,450.41c-.352,0-.717.026-1.07.026.365,0,.717-.026,1.07-.026" transform="translate(63.736 139.436)" fill="#00b093"/>
      <path id="Caminho_7211" data-name="Caminho 7211" d="M211.346,450.51l-.5.078c.157-.026.326-.052.5-.078" transform="translate(63.301 139.466)" fill="#00b093"/>
      <path id="Caminho_7212" data-name="Caminho 7212" d="M209.924,451.36c.013.156.039.313.052.47a3.489,3.489,0,0,1-.157-.313c0-.039.065-.1.1-.156" transform="translate(62.987 139.725)" fill="#00b093"/>
      <path id="Caminho_7213" data-name="Caminho 7213" d="M210.087,456.36v.509c-.052-.117-.117-.235-.157-.352,0-.026.1-.091.157-.143" transform="translate(63.021 141.247)" fill="#00b093"/>
      <path id="Caminho_7214" data-name="Caminho 7214" d="M210.13,459.29l.5.417-.5-.417" transform="translate(63.082 142.139)" fill="#00b093"/>
      <path id="Caminho_7215" data-name="Caminho 7215" d="M280.6,462.393l-.222.052-.222-.065h.443" transform="translate(84.396 143.079)" fill="#00b093"/>
      <path id="Caminho_7216" data-name="Caminho 7216" d="M287,434.84c.026,5.087.078,10.174.065,15.261a11.139,11.139,0,0,1-.417,2.126c-.026-5.217-.052-10.422-.052-15.639a8.423,8.423,0,0,1,.391-1.748" transform="translate(86.356 134.697)" fill="#00b093"/>
      <text id="UNI" transform="translate(305.756 15)" fill="#20819e" font-size="15" font-family="Montserrat-ExtraBold, Montserrat" font-weight="800"><tspan x="0" y="0">UNI</tspan></text>
      <text id="D-2" data-name="D" transform="translate(335.991 15)" fill="#20819e" font-size="16" font-family="Montserrat-ExtraBold, Montserrat" font-weight="800"><tspan x="0" y="0">D</tspan></text>
      <text id="ADES" transform="translate(348.774 15)" fill="#20819e" font-size="15" font-family="Montserrat-ExtraBold, Montserrat" font-weight="800"><tspan x="0" y="0">ADES</tspan></text>
      <text id="_21" data-name="21" transform="translate(306.864 430.391)" fill="#0c9cd8" font-size="33" font-family="Montserrat-Bold, Montserrat" font-weight="700"><tspan x="0" y="0" letter-spacing="-0.02em">2</tspan><tspan y="0">1</tspan></text>
      <text id="_30" data-name="30" transform="translate(365.626 430.696)" fill="#00b093" font-size="32" font-family="Montserrat-Bold, Montserrat" font-weight="700"><tspan x="0" y="0">30</tspan></text>
      <rect id="Retângulo_2961" data-name="Retângulo 2961" width="44.753" height="180.563" transform="translate(300.186 203.52)" fill="#0c9cd8"/>
      <rect id="Retângulo_2962" data-name="Retângulo 2962" width="44.753" height="242.794" transform="translate(362.652 141.289)" fill="#00b093"/>
      <path id="Caminho_7217" data-name="Caminho 7217" d="M301.945,109.494c.143,0,.274.026.417.026.574-1.057,1.174-2.113,1.735-3.183,5.374-10.344,10.852-20.648,14.583-31.748,1.33-3.965,2.309-7.917,1.357-12.144-2.739-12.1-17.3-18.378-27.992-11.191-6.378,4.291-9.822,12.235-7.383,19.878a137.186,137.186,0,0,0,5.491,14.283c2.883,6.4,6.117,12.665,9.209,18.978.835,1.709,1.722,3.4,2.583,5.1m.209,3.665c-.626-.952-1.213-1.709-1.67-2.53A246.883,246.883,0,0,1,288.732,87.4c-2.087-4.944-4.174-9.887-5.909-14.948-3.7-10.8,2.9-21.822,12.965-25.252A20.314,20.314,0,0,1,320.6,57.724a26.308,26.308,0,0,1,1.643,6.391c1.083,6.065-1.5,11.426-3.783,16.7-3.4,7.839-7.239,15.483-10.97,23.179-1.317,2.7-2.87,5.3-4.331,7.917a10.451,10.451,0,0,1-1.017,1.278" transform="translate(84.89 16.39)" fill="#00b093"/>
      <path id="Caminho_7218" data-name="Caminho 7218" d="M301.945,109.494c.143,0,.274.026.417.026.574-1.057,1.174-2.113,1.735-3.183,5.374-10.344,10.852-20.648,14.583-31.748,1.33-3.965,2.309-7.917,1.357-12.144-2.739-12.1-17.3-18.378-27.992-11.191-6.378,4.291-9.822,12.235-7.383,19.878a137.186,137.186,0,0,0,5.491,14.283c2.883,6.4,6.117,12.665,9.209,18.978.835,1.709,1.722,3.4,2.583,5.1m.209,3.665c-.626-.952-1.213-1.709-1.67-2.53A246.883,246.883,0,0,1,288.732,87.4c-2.087-4.944-4.174-9.887-5.909-14.948-3.7-10.8,2.9-21.822,12.965-25.252A20.314,20.314,0,0,1,320.6,57.724a26.308,26.308,0,0,1,1.643,6.391c1.083,6.065-1.5,11.426-3.783,16.7-3.4,7.839-7.239,15.483-10.97,23.179-1.317,2.7-2.87,5.3-4.331,7.917a10.451,10.451,0,0,1-1.017,1.278" transform="translate(84.89 16.39)" fill="none" stroke="#00b093" stroke-width="1"/>
      <path id="Caminho_7219" data-name="Caminho 7219" d="M298.681,57.534v5.53h-5.374v4.2h5.452V72.73c1.122,0,2.074-.039,3.039,0,.874.052,1.148-.326,1.135-1.148-.039-1.422,0-2.857,0-4.422h5.257c0-1.226-.026-2.322,0-3.4.026-.874-.443-.991-1.174-.939-1.317.1-2.648.17-4.135.248V57.508h-4.187Zm15.809,7.735c1.03,7.7-6.744,14.139-13.8,13.944-8.061-.235-13.565-5.739-14.022-13.031A13.914,13.914,0,0,1,300.7,50.96c6.509.065,14.4,4.748,13.787,14.322" transform="translate(86.367 17.858)" fill="#00b093"/>
      <path id="Caminho_7220" data-name="Caminho 7220" d="M297.127,56h4.187v5.557c1.487-.091,2.817-.143,4.135-.248.717-.065,1.2.052,1.174.939-.026,1.083,0,2.178,0,3.4h-5.257c0,1.565-.026,3,0,4.422.026.835-.248,1.2-1.135,1.148-.952-.052-1.917,0-3.039,0V65.744H291.74v-4.2h5.374v-5.53Z" transform="translate(87.921 19.392)" fill="#fff"/>
      <path id="Caminho_7221" data-name="Caminho 7221" d="M252.505,152.087l.417.026c.574-1.057,1.174-2.113,1.735-3.183,5.374-10.344,10.852-20.648,14.583-31.748,1.33-3.965,2.322-7.931,1.357-12.144-2.739-12.1-17.3-18.378-27.992-11.191-6.378,4.291-9.835,12.235-7.383,19.878a137.188,137.188,0,0,0,5.491,14.283c2.883,6.4,6.117,12.665,9.209,18.978.835,1.709,1.722,3.4,2.583,5.1m.209,3.665c-.626-.952-1.213-1.709-1.67-2.53a245.511,245.511,0,0,1-11.752-23.244c-2.087-4.944-4.174-9.887-5.909-14.948-3.7-10.813,2.9-21.822,12.965-25.252A20.314,20.314,0,0,1,271.158,100.3a26.306,26.306,0,0,1,1.643,6.391c1.083,6.065-1.487,11.426-3.783,16.7-3.4,7.839-7.239,15.483-10.97,23.179-1.317,2.7-2.87,5.3-4.33,7.917a10.45,10.45,0,0,1-1.017,1.278" transform="translate(69.842 29.35)" fill="#0c9cd8"/>
      <path id="Caminho_7222" data-name="Caminho 7222" d="M252.505,152.087l.417.026c.574-1.057,1.174-2.113,1.735-3.183,5.374-10.344,10.852-20.648,14.583-31.748,1.33-3.965,2.322-7.931,1.357-12.144-2.739-12.1-17.3-18.378-27.992-11.191-6.378,4.291-9.835,12.235-7.383,19.878a137.188,137.188,0,0,0,5.491,14.283c2.883,6.4,6.117,12.665,9.209,18.978.835,1.709,1.722,3.4,2.583,5.1m.209,3.665c-.626-.952-1.213-1.709-1.67-2.53a245.511,245.511,0,0,1-11.752-23.244c-2.087-4.944-4.174-9.887-5.909-14.948-3.7-10.813,2.9-21.822,12.965-25.252A20.314,20.314,0,0,1,271.158,100.3a26.306,26.306,0,0,1,1.643,6.391c1.083,6.065-1.487,11.426-3.783,16.7-3.4,7.839-7.239,15.483-10.97,23.179-1.317,2.7-2.87,5.3-4.33,7.917a10.45,10.45,0,0,1-1.017,1.278" transform="translate(69.842 29.35)" fill="none" stroke="#0c9cd8" stroke-width="1"/>
      <path id="Caminho_7223" data-name="Caminho 7223" d="M249.241,100.124v5.531h-5.374v4.2h5.452v5.465c1.109,0,2.074-.039,3.039,0,.874.052,1.148-.326,1.135-1.148-.039-1.422,0-2.857,0-4.422h5.257c0-1.226-.026-2.322,0-3.4.026-.874-.443-.991-1.174-.939-1.33.1-2.648.17-4.135.248V100.1h-4.187Zm15.809,7.735c1.017,7.7-6.744,14.139-13.8,13.944-8.061-.235-13.565-5.739-14.022-13.031A13.907,13.907,0,0,1,251.263,93.55c6.509.065,14.4,4.748,13.787,14.322" transform="translate(71.319 30.821)" fill="#0c9cd8"/>
      <path id="Caminho_7224" data-name="Caminho 7224" d="M247.69,98.59h4.187v5.557c1.487-.091,2.817-.143,4.135-.248.717-.065,1.2.052,1.174.939-.039,1.083,0,2.178,0,3.4h-5.27c0,1.565-.026,3,0,4.422.026.835-.248,1.2-1.135,1.148-.952-.052-1.917-.013-3.039-.013v-5.478H242.29v-4.2h5.374V98.59Z" transform="translate(72.87 32.355)" fill="#fff"/>
      <path id="Caminho_7225" data-name="Caminho 7225" d="M321.906,325.827a2.434,2.434,0,0,1-.2-.417c0-.039.1-.117.17-.17,0,.2.013.391.026.587" transform="translate(97.043 101.339)" fill="#aededd"/>
      <path id="Caminho_7226" data-name="Caminho 7226" d="M327.95,335.63a2.766,2.766,0,0,1,.183.4c0,.039-.117.1-.17.17v-.574" transform="translate(98.942 104.501)" fill="#aededd"/>
      <line id="Linha_118" data-name="Linha 118" x1="458.797" transform="translate(0.43 479.836)" fill="none" stroke="#8a8c8e" stroke-width="1.44"/>
      <line id="Linha_119" data-name="Linha 119" y2="421.087" transform="translate(249.225 4.513)" fill="none" stroke="#8a8c8e" stroke-width="1"/>
    </g>
  </g>
</svg>
