<svg id="Layer_1" data-name="Layer 1" xmlns="http://www.w3.org/2000/svg" width="315.212" height="602.407" viewBox="0 0 315.212 602.407">
  <g id="Grupo_1001" data-name="Grupo 1001" transform="translate(0 0)">
    <text id="NÚMERO_DE_SALAS_DE_CIRURGIA" data-name="NÚMERO DE SALAS DE CIRURGIA" transform="translate(1.787 15)" fill="#20819e" font-size="15" font-family="Montserrat-ExtraBold, Montserrat" font-weight="800"><tspan x="0" y="0">NÚMERO DE SALAS DE CIRURGIA</tspan></text>
    <text id="E" transform="translate(1.839 354.982)" fill="#20819e" font-size="15" font-family="Montserrat-ExtraBold, Montserrat" font-weight="800"><tspan x="0" y="0">E</tspan></text>
    <text id="X" transform="translate(12.274 354.982)" fill="#20819e" font-size="15" font-family="Montserrat-ExtraBold, Montserrat" font-weight="800"><tspan x="0" y="0">X</tspan></text>
    <text id="AMES" transform="translate(23.218 354.982)" fill="#20819e" font-size="15" font-family="Montserrat-ExtraBold, Montserrat" font-weight="800"><tspan x="0" y="0">AMES</tspan></text>
    <text id="_7_6_milhões" data-name="7,6 milhões" transform="translate(125.754 455.292)" fill="#0c9cd8" font-size="33" font-family="Montserrat-Bold, Montserrat" font-weight="700"><tspan x="0" y="0" letter-spacing="-0.02em">7,6 milh</tspan><tspan y="0" letter-spacing="-0.03em">õe</tspan><tspan y="0">s</tspan></text>
    <text id="_5_1_milhões" data-name="5,1 milhões" transform="translate(125.754 582.028)" fill="#00b093" font-size="32" font-family="Montserrat-Bold, Montserrat" font-weight="700"><tspan x="0" y="0">5,1 milhões</tspan></text>
    <text id="_43" data-name="43" transform="translate(209.768 112.388)" fill="#0c9cd8" font-size="33" font-family="Montserrat-Bold, Montserrat" font-weight="700"><tspan x="0" y="0" letter-spacing="-0.03em">4</tspan><tspan y="0">3</tspan></text>
    <line id="Linha_116" data-name="Linha 116" x1="315.212" transform="translate(0 274.386)" fill="none" stroke="#8a8c8e" stroke-width="1"/>
    <path id="Caminho_7096" data-name="Caminho 7096" d="M148.319,145.245a3.215,3.215,0,0,1-2.987,1.213c-1.839-.065-3.665-.013-5.687-.013v1.617c-.026,4.291-2.765,7.083-7.057,7.109-6.091.026-12.17,0-18.261,0H97.514a4.786,4.786,0,0,0-1.67.222q-7.631,2.8-15.248,5.648c-.157.065-.3.17-.574.326,1.461.926,2.83,1.826,4.213,2.7,3.43,2.178,6.861,4.383,10.318,6.509a4.115,4.115,0,0,0,2.061.6c5.348.052,10.683.026,16.031.026,3.665,0,5.687,2.035,5.7,5.674,0,.613.039,1.226,0,1.839-.157,1.826.026,3.222,1.983,4.344,2.361,1.357,3,4.552,2.022,7.122a6.37,6.37,0,0,1-12.144-.652,6.12,6.12,0,0,1,2.883-6.978,2.188,2.188,0,0,0,1.357-2.426c-.1-1.174-.026-2.361-.026-3.548,0-.978-.457-1.461-1.448-1.435H45.848c-2.048,0-2.165.117-2.178,2.139,0,.443.039.874,0,1.317-.183,1.865,0,3.313,1.983,4.5,2.4,1.435,3,4.7,1.944,7.278a6.389,6.389,0,0,1-12.144-1,6.124,6.124,0,0,1,2.987-6.835,2.125,2.125,0,0,0,1.317-2.335,36.076,36.076,0,0,1,0-3.939,4.967,4.967,0,0,1,5.113-5.035c5.074-.039,10.161,0,15.235-.013.378,0,.77-.039,1.291-.065,0-1.722.039-3.378-.013-5.022a2.533,2.533,0,0,1,1.943-2.844c2.517-.848,5-1.852,7.748-2.883a43.563,43.563,0,0,1-3.7-2.4,12.864,12.864,0,0,0-9.718-2.87c-2.83.248-5.687.052-8.531.039-.47,0-1.109.052-1.383-.209a3.635,3.635,0,0,1-1.226-1.93,1.636,1.636,0,0,1,1.6-1.748,12.69,12.69,0,0,1,1.578-.039h82.488c2.635,0,3.561-.939,3.548-3.561v-1.135H26.478c-.026.4-.065.783-.065,1.161-.013,2.557.913,3.522,3.444,3.522h9.978a3.963,3.963,0,0,1,1.3.117,1.8,1.8,0,0,1,1.291,2.035,1.854,1.854,0,0,1-1.957,1.761c-3.978.039-7.97.157-11.948-.065-3.613-.209-6.013-3.078-6.065-6.7v-1.944H16.448c-2.022-.013-2.635-.652-2.648-2.687V140.2c0-4.63,2.126-7.213,6.822-8.191,0-.874-.026-1.787,0-2.7a5.156,5.156,0,0,1,5.022-5.074c3.587-.065,7.187-.065,10.774,0a5.117,5.117,0,0,1,5.009,4.93c.039.913,0,1.826,0,2.909H67.266c.548,0,1.3-.026,1.617.3a2.777,2.777,0,0,1,.9,1.944c-.1.613-.874,1.187-1.474,1.591-.339.235-.939.091-1.422.091H22.357c-3.639,0-4.63,1-4.63,4.7v1.67H144.315a34.9,34.9,0,0,0-.026-3.509,3.228,3.228,0,0,0-3.117-2.844c-.483-.026-.965-.013-1.448-.013H76.931a5.688,5.688,0,0,1-1.565-.091,1.951,1.951,0,0,1,.287-3.835,11.05,11.05,0,0,1,1.317-.026c20.661,0,41.335.078,62-.065,4.591-.026,7.8,1.383,9.326,5.857v7.357ZM87.627,171.162a1.738,1.738,0,0,0,.065-.248c-3.978-2.517-7.957-5.048-11.948-7.552a1.379,1.379,0,0,0-1.07-.065c-2.87,1.03-5.739,2.1-8.583,3.2-.3.117-.691.483-.7.757-.078,1.291-.026,2.583-.026,3.913H87.64Zm-50.1-39.144v-1.865c-.013-1.683-.313-1.983-2.009-1.983-2.544,0-5.074.026-7.617,0-3.365-.052-3.483-.1-3.274,3.691,0,.039.052.065.13.17H37.513Zm46.866,23.426-.065-.261H71.088a2.672,2.672,0,0,0-.574.183c1.761,1.109,3.352,2.126,4.97,3.117a1.007,1.007,0,0,0,.73,0q4.089-1.507,8.178-3.039m29.544,32.492a2.459,2.459,0,1,0,2.465-2.413,2.543,2.543,0,0,0-2.465,2.413M44.113,188a2.407,2.407,0,1,0,.013,0" transform="translate(4.2 39.218)" fill="#00b093"/>
    <path id="Caminho_7097" data-name="Caminho 7097" d="M54.844,46.97c3.548.783,5.883,3.326,8.491,6.131.926-1.043,1.748-2.061,2.661-2.974,1.37-1.383,2.661-1.278,3.757.274,1.161,1.657,2.309,3.313,3.4,5.009,1.865,2.909,1.761,5.452-.326,9.535.078.1.143.235.235.339,3.2,3.444,3.144,5.517-.209,8.857l-1.4,1.4c-2.426,2.387-5.113,2.4-7.565.039a1.093,1.093,0,0,0-1.748.052c.43.47.887.926,1.3,1.422a4.724,4.724,0,0,1,.013,6.417c-.9,1.017-1.878,1.97-2.87,2.909a4.832,4.832,0,0,1-7.252-.026c-.3-.287-.6-.574-.991-.939-.313.3-.613.574-1.1,1.017a13.4,13.4,0,0,1,1.4,1.135,4.787,4.787,0,0,1,0,6.744c-.861.939-1.774,1.813-2.687,2.7-2.322,2.243-5.022,2.217-7.357-.052-.3-.3-.613-.587-.965-.926a8.184,8.184,0,0,1-8.257,1.1,13.672,13.672,0,0,1-2.178-1.291c-1.448-.952-2.909-1.917-4.3-2.935a2.086,2.086,0,0,1-.313-3.391c.47-.522.978-1.017,1.487-1.5.47-.457.965-.887,1.852-1.7-1.1-.913-2.126-1.657-3.013-2.53-4.33-4.33-4.344-10.187-.065-14.531,1.944-1.97,3.913-3.9,5.609-5.583-1.552-1.735-2.987-3.4-4.5-4.983a2.17,2.17,0,0,0-1.422-.352c-4.6-.026-9.209,0-13.813-.013-1.761,0-2.752-.77-2.726-2.113s1-2.113,2.778-2.113c5.035,0,10.057-.052,15.078.039a4.523,4.523,0,0,1,2.6,1.1c1.852,1.578,3.561,3.326,5.387,5.061,2.817-2.817,5.609-5.53,8.309-8.348,2.1-2.191,4.291-4.187,7.331-4.97H54.87Zm5.283,8.8c-.887-.874-1.748-1.735-2.622-2.583-2.713-2.661-5.883-2.674-8.57-.013-2.844,2.8-5.648,5.648-8.478,8.465-3.587,3.587-7.2,7.161-10.761,10.774a5.437,5.437,0,0,0-.8,7.187,45.324,45.324,0,0,0,3.561,3.822c9.274-9.274,18.4-18.4,27.666-27.652m-28.67,35.1c.7.483,1.409.965,2.1,1.448,2.661,1.813,4.109,1.67,6.417-.639Q50.5,81.177,61,70.657c2.622-2.622,5.244-5.257,7.878-7.865a3.687,3.687,0,0,0,1-4.474,33.206,33.206,0,0,0-2.27-3.561C55.535,66.835,43.548,78.809,31.457,90.9M66.075,71.622q1.474,1.813,3.013.287c.326-.326.665-.652.991-.991,1.409-1.409,1.357-1.748-.417-2.752-1.187,1.148-2.348,2.27-3.587,3.457M44.722,93.04q1.552,1.67,3.078.157l.9-.9c1.461-1.461,1.448-1.591-.313-2.83L44.735,93.04m10.748-10.6a1.786,1.786,0,0,0,2.948.117c.3-.3.6-.587.887-.887,1.513-1.513,1.513-1.552-.313-2.883-1.148,1.187-2.3,2.387-3.522,3.665" transform="translate(3.044 15.718)" fill="#0c9cd8"/>
    <path id="Caminho_7098" data-name="Caminho 7098" d="M137.136,100.354c-1.109,3-3.274,4.07-6.457,4.057-19.318-.078-38.648-.039-57.966-.039-3.013,0-4.917-1.239-5.622-3.7a6.9,6.9,0,0,1-.222-1.943V60.78c0-3.548,2.048-5.609,5.6-5.622q19.957-.02,39.913,0a6.078,6.078,0,0,1,.978.039,1.933,1.933,0,0,1,1.774,1.878,1.873,1.873,0,0,1-1.435,2.139,6.96,6.96,0,0,1-1.813.17H73.092c-1.97,0-2.009.039-2.009,1.957V98.15c0,1.93.052,1.983,1.983,1.983h57.822c1.93,0,2.009-.065,2.009-1.97V61.354c0-1.9-.065-1.97-2.009-1.97-3.013,0-6.013.026-9.026-.013-1.865-.026-3.039-1.539-2.2-2.935a2.871,2.871,0,0,1,1.97-1.226c3.522-.117,7.044-.1,10.578-.026,2.609.052,4,1.748,4.917,3.965v41.192Z" transform="translate(20.353 18.199)" fill="#0c9cd8"/>
    <path id="Caminho_7099" data-name="Caminho 7099" d="M118.524,74.73c.809,0,1.5-.026,2.191,0a2.1,2.1,0,0,1,2.23,2.048,2.067,2.067,0,0,1-2.113,2.165q-2.113.078-4.226,0c-1.422-.065-2.048-.991-2.217-2.622-.6,1.109-1.057,1.943-1.513,2.791-1.435,2.7-2.348,2.909-4.839.887-.5,2.726-.991,5.374-1.435,8.035-.183,1.122-.6,2.009-1.813,2.217-1.278.222-2-.509-2.491-1.6-1.943-4.278-3.9-8.531-5.857-12.8-.2-.417-.4-.835-.678-1.4a30.554,30.554,0,0,1-2.583,3.3,4.347,4.347,0,0,1-2.374,1.161,52.245,52.245,0,0,1-5.348.052c-1.513-.026-2.478-.861-2.478-2.113a2.033,2.033,0,0,1,2.465-2.061c3.7.639,6.157-.848,7.826-4.044a9.206,9.206,0,0,1,1.017-1.357c1.409-1.748,3.117-1.578,4.057.443,1.448,3.1,2.857,6.235,4.278,9.339a3.987,3.987,0,0,0,.939,1.4c.235-1.187.457-2.387.691-3.574a1.979,1.979,0,0,1,.039-.274c.313-1.317.065-2.961,1.813-3.5,1.7-.522,2.387.926,3.326,1.839.13.117.274.235.522.443,1.226-2.3,2.426-4.513,3.574-6.757.548-1.07,1.187-1.97,2.57-1.748s1.735,1.239,1.839,2.465c.143,1.683.365,3.352.587,5.257" transform="translate(25.256 21.806)" fill="#0c9cd8"/>
    <path id="Caminho_7100" data-name="Caminho 7100" d="M77.858,71.116c-.887,0-1.787.065-2.661-.013a1.874,1.874,0,0,1-1.826-1.944A1.78,1.78,0,0,1,75,67.072a40.077,40.077,0,0,1,5.87.026,1.791,1.791,0,0,1,1.552,2.152A1.833,1.833,0,0,1,80.662,71.1c-.926.091-1.865.026-2.8.026h0Z" transform="translate(22.33 21.807)" fill="#0c9cd8"/>
    <path id="Caminho_7101" data-name="Caminho 7101" d="M77.821,65.24c-.743,0-1.5.039-2.244,0a2.117,2.117,0,0,1-2.217-2.2A2.072,2.072,0,0,1,75.6,61.027c1.539-.039,3.091-.039,4.63,0a2.021,2.021,0,0,1,2.2,2.035,2.068,2.068,0,0,1-2.087,2.165c-.835.052-1.683,0-2.53,0h0Z" transform="translate(22.328 19.987)" fill="#0c9cd8"/>
    <path id="Caminho_7102" data-name="Caminho 7102" d="M77.925,72.935c.848,0,1.683-.052,2.53.013a1.951,1.951,0,0,1,1.97,1.97,1.98,1.98,0,0,1-1.878,2.191c-1.722.091-3.457.078-5.191,0a2.029,2.029,0,0,1-2-2.113,2.1,2.1,0,0,1,2.048-2.074h2.53Z" transform="translate(22.328 23.614)" fill="#0c9cd8"/>
    <text id="_26" data-name="26" transform="translate(210.811 215.933)" fill="#00b093" font-size="32" font-family="Montserrat-Bold, Montserrat" font-weight="700"><tspan x="0" y="0">26</tspan></text>
    <path id="Caminho_7103" data-name="Caminho 7103" d="M50.828,371.846q-7.474-18.235-14.961-36.47a18.152,18.152,0,0,1-1.461-6.835c-.026-3.274,0-6.535,0-9.809a3.811,3.811,0,0,1,.978-2.713,5.919,5.919,0,0,0,1.6-4.578,1.905,1.905,0,0,0-1.057-1.891H15.479c-.47.313-.939.613-.991,1.265a5.982,5.982,0,0,0,1.448,5.035,4.083,4.083,0,0,1,1.109,3.026c-.013,3.013-.026,6.013,0,9.026a19.16,19.16,0,0,1-1.5,7.539Q8.071,353.6.636,371.781c-2.061,5.022,1.2,9.965,6.574,9.965H44.24a8.1,8.1,0,0,0,2.022-.248,6.966,6.966,0,0,0,4.578-9.665M34.223,312.407a4.471,4.471,0,0,1-.587,1.252,7.319,7.319,0,0,0-1.9,3.73H19.718a7,7,0,0,0-1.63-3.365,11.7,11.7,0,0,1-.991-1.617H34.236ZM15.271,343.5c1.122-2.765,2.257-5.517,3.339-8.283a19.019,19.019,0,0,0,1.226-7.031v-7.93h11.7c.065,3.17.013,6.339.091,9.509a18.412,18.412,0,0,0,1.539,6.548l2.935,7.161c.091.235.183.47.3.783l.874,2.087H14.136L15,344.259c.1-.287.183-.509.274-.743m30.5,35.179a5.1,5.1,0,0,1-1.657.248H7.3a4.193,4.193,0,0,1-4.461-4.787l1-2.817c.522-1.278,1-2.491,1.526-3.691l1.252-3.065c.365-.913.7-1.722,1.03-2.53l1.774-4.317c.509-1.252,1-2.465,1.526-3.652l1.226-3.052c.261-.639.509-1.252.757-1.865H38.488Q43.321,361,48.18,372.838c1.057,2.57.039,5.022-2.413,5.844" transform="translate(0.003 95.637)" fill="#0c9cd8"/>
    <path id="Caminho_7104" data-name="Caminho 7104" d="M30.615,345.23H13.8a1.422,1.422,0,1,0,0,2.843H30.615a1.422,1.422,0,1,0,0-2.843" transform="translate(3.768 106.497)" fill="#0c9cd8"/>
    <path id="Caminho_7105" data-name="Caminho 7105" d="M30.615,349.86H13.8a1.422,1.422,0,1,0,0,2.844H30.615a1.422,1.422,0,1,0,0-2.844" transform="translate(3.768 107.906)" fill="#0c9cd8"/>
    <path id="Caminho_7106" data-name="Caminho 7106" d="M30.615,354.5H13.8a1.422,1.422,0,1,0,0,2.844H30.615a1.422,1.422,0,1,0,0-2.844" transform="translate(3.768 109.318)" fill="#0c9cd8"/>
    <path id="Caminho_7107" data-name="Caminho 7107" d="M91.14,349.654a24.983,24.983,0,0,0-15.1-15.926.737.737,0,0,1-.574-.809c.013-4.5.013-9.013,0-13.513a.7.7,0,0,1,.43-.757,4.2,4.2,0,0,0-1.774-7.983c-4.735-.039-9.483-.039-14.218,0a4.137,4.137,0,0,0-4.044,3.3,4.221,4.221,0,0,0,2.257,4.709.921.921,0,0,1,.43.652c.026,4.552,0,9.1.026,13.657a.682.682,0,0,1-.5.717,36.224,36.224,0,0,0-3.991,1.917A24.835,24.835,0,0,0,41.7,355.993a23.84,23.84,0,0,0,3.861,14.857,24.973,24.973,0,0,0,17.8,11.609c.743.117,1.474.2,2.217.287H68.4c.209-.039.4-.091.613-.117A24.037,24.037,0,0,0,81.266,378.3,24.94,24.94,0,0,0,92,361.38a23.906,23.906,0,0,0-.887-11.739m-32.531-34.8a1.466,1.466,0,0,1,1.643-1.37H73.818a1.458,1.458,0,0,1,1.644,1.37c.026.835-.639,1.422-1.644,1.435H62.7c-.822-.026-1.644,0-2.465,0-1-.013-1.67-.613-1.643-1.435m-8.57,27.822a22.515,22.515,0,0,1,9.926-6.652c1.213-.417,1.435-.743,1.435-2v-14.87h11.27v14.739c0,1.422.2,1.683,1.513,2.152a22.186,22.186,0,0,1,12.952,11.27H46.9a22.969,22.969,0,0,1,3.117-4.644m39.522,14.661c-.261,5.648-1.865,10.657-5.609,14.922a22.493,22.493,0,0,1-38.074-7.252,18.806,18.806,0,0,1-.77-2.622c-.261-1.33-.417-2.674-.639-4.1a16.74,16.74,0,0,1,.222-3.587,23.482,23.482,0,0,1,1.057-4.539c.065,0,.13.013.209.013H88.323c.209.6.4,1.213.574,1.852.13.5.222,1,.313,1.461a16.686,16.686,0,0,1,.339,3.861" transform="translate(12.674 95.968)" fill="#0c9cd8"/>
    <path id="Caminho_7108" data-name="Caminho 7108" d="M71.8,346.23H54.992a1.422,1.422,0,1,0,0,2.844H71.8a1.422,1.422,0,0,0,0-2.844" transform="translate(16.305 106.801)" fill="#0c9cd8"/>
    <path id="Caminho_7109" data-name="Caminho 7109" d="M71.8,350.86H54.992a1.422,1.422,0,1,0,0,2.844H71.8a1.422,1.422,0,0,0,0-2.844" transform="translate(16.305 108.21)" fill="#0c9cd8"/>
    <path id="Caminho_7110" data-name="Caminho 7110" d="M71.8,355.5H54.992a1.422,1.422,0,1,0,0,2.844H71.8a1.422,1.422,0,0,0,0-2.844" transform="translate(16.305 109.623)" fill="#0c9cd8"/>
    <path id="Caminho_7111" data-name="Caminho 7111" d="M52.208,466.683q-7.474-18.235-14.961-36.47a18.151,18.151,0,0,1-1.461-6.835c-.026-3.274,0-6.535,0-9.8a3.811,3.811,0,0,1,.978-2.713,5.919,5.919,0,0,0,1.6-4.578,1.905,1.905,0,0,0-1.057-1.891H16.859c-.47.313-.939.613-.991,1.265a5.982,5.982,0,0,0,1.448,5.035,4.083,4.083,0,0,1,1.109,3.026c-.013,3.013-.026,6.013,0,9.026a19.16,19.16,0,0,1-1.5,7.539q-7.474,18.157-14.909,36.34c-2.061,5.022,1.2,9.965,6.574,9.965H45.62a7.533,7.533,0,0,0,2.022-.248,6.966,6.966,0,0,0,4.578-9.665m-16.6-59.44a4.3,4.3,0,0,1-.587,1.252,7.319,7.319,0,0,0-1.9,3.73H21.112a7,7,0,0,0-1.63-3.365,11.7,11.7,0,0,1-.991-1.617H35.629ZM16.664,438.326c1.122-2.765,2.257-5.517,3.339-8.283a19.019,19.019,0,0,0,1.226-7.031v-7.93h11.7c.065,3.17.013,6.339.091,9.509a18.412,18.412,0,0,0,1.539,6.548l2.935,7.161c.091.235.183.47.3.783l.874,2.087H15.529l.861-2.087c.1-.287.183-.509.274-.743m30.5,35.192a5.1,5.1,0,0,1-1.657.248H8.694a4.193,4.193,0,0,1-4.461-4.787l1-2.817c.522-1.278,1-2.491,1.526-3.691l1.252-3.065c.365-.913.7-1.722,1.03-2.53l1.774-4.317c.509-1.252,1-2.465,1.526-3.652l1.226-3.052c.261-.639.509-1.252.757-1.865H39.881q4.833,11.837,9.691,23.674c1.057,2.57.039,5.022-2.413,5.844" transform="translate(0.424 124.506)" fill="#00b093"/>
    <path id="Caminho_7112" data-name="Caminho 7112" d="M32,440.06H15.192a1.422,1.422,0,1,0,0,2.844H32a1.422,1.422,0,1,0,0-2.844" transform="translate(4.191 135.36)" fill="#00b093"/>
    <path id="Caminho_7113" data-name="Caminho 7113" d="M32,444.7H15.192a1.422,1.422,0,1,0,0,2.844H32a1.422,1.422,0,1,0,0-2.844" transform="translate(4.191 136.772)" fill="#00b093"/>
    <path id="Caminho_7114" data-name="Caminho 7114" d="M32,449.33H15.192a1.422,1.422,0,1,0,0,2.844H32a1.422,1.422,0,1,0,0-2.844" transform="translate(4.191 138.181)" fill="#00b093"/>
    <path id="Caminho_7115" data-name="Caminho 7115" d="M92.53,444.484a24.983,24.983,0,0,0-15.1-15.926.737.737,0,0,1-.574-.809c.013-4.5.013-9.013,0-13.513a.7.7,0,0,1,.43-.756,4.2,4.2,0,0,0-1.774-7.983c-4.735-.039-9.483-.039-14.218,0a4.137,4.137,0,0,0-4.044,3.3,4.221,4.221,0,0,0,2.257,4.709.921.921,0,0,1,.43.652c.026,4.552,0,9.1.026,13.657a.682.682,0,0,1-.5.717,36.212,36.212,0,0,0-3.991,1.917,24.835,24.835,0,0,0-12.378,20.374,23.84,23.84,0,0,0,3.861,14.857,24.973,24.973,0,0,0,17.8,11.609c.743.117,1.474.2,2.217.287H69.8c.209-.039.4-.091.613-.117a24.036,24.036,0,0,0,12.248-4.331,24.969,24.969,0,0,0,10.735-16.918,23.905,23.905,0,0,0-.887-11.739m-32.531-34.8a1.466,1.466,0,0,1,1.643-1.37H75.208a1.458,1.458,0,0,1,1.643,1.37c.026.835-.639,1.422-1.643,1.435H64.095c-.822-.026-1.643,0-2.465,0-1-.013-1.67-.613-1.643-1.435m-8.57,27.822a22.514,22.514,0,0,1,9.926-6.652c1.213-.417,1.435-.743,1.435-2v-14.87h11.27v14.739c0,1.422.2,1.683,1.513,2.152a22.186,22.186,0,0,1,12.952,11.27H48.286A23.423,23.423,0,0,1,51.4,437.48m39.522,14.674c-.261,5.648-1.865,10.657-5.609,14.922a22.493,22.493,0,0,1-38.074-7.252,18.3,18.3,0,0,1-.77-2.622c-.261-1.33-.417-2.674-.639-4.1a16.74,16.74,0,0,1,.222-3.587,23.483,23.483,0,0,1,1.057-4.539c.065,0,.13.013.209.013H89.713c.209.6.4,1.213.574,1.852.13.5.222,1,.313,1.461a16.686,16.686,0,0,1,.339,3.861" transform="translate(13.097 124.831)" fill="#00b093"/>
    <path id="Caminho_7116" data-name="Caminho 7116" d="M73.2,441.06H56.372a1.422,1.422,0,0,0,0,2.844H73.2a1.422,1.422,0,0,0,0-2.844" transform="translate(16.725 135.664)" fill="#00b093"/>
    <path id="Caminho_7117" data-name="Caminho 7117" d="M73.2,445.7H56.372a1.422,1.422,0,0,0,0,2.844H73.2a1.422,1.422,0,0,0,0-2.844" transform="translate(16.725 137.076)" fill="#00b093"/>
    <path id="Caminho_7118" data-name="Caminho 7118" d="M73.2,450.33H56.372a1.422,1.422,0,0,0,0,2.844H73.2a1.422,1.422,0,0,0,0-2.844" transform="translate(16.725 138.485)" fill="#00b093"/>
  </g>
</svg>
