<svg xmlns="http://www.w3.org/2000/svg" xmlns:xlink="http://www.w3.org/1999/xlink" width="1408" height="819" viewBox="0 0 1408 819">
  <defs>
    <clipPath id="clip-path">
      <rect id="Retângulo_2955" data-name="Retângulo 2955" width="1408" height="819" transform="translate(0 -0.099)" fill="#ff0054"/>
    </clipPath>
  </defs>
  <g id="ORG2" transform="translate(0 0.099)" clip-path="url(#clip-path)">
    <g id="organograma" transform="translate(0 -224.189)">
      <g id="Grupo_996" data-name="Grupo 996" transform="translate(28.059 1132.174)">
        <path id="Caminho_7012" data-name="Caminho 7012" d="M59.91,1850.918H344.386a19.871,19.871,0,0,0,19.872-19.872V1725.24H79.782a19.871,19.871,0,0,0-19.872,19.872v105.806Z" transform="translate(-59.91 -1725.24)" fill="#007b84"/>
        <path id="Caminho_7013" data-name="Caminho 7013" d="M564.42,1850.918H848.9a19.871,19.871,0,0,0,19.872-19.872V1725.24H584.292a19.871,19.871,0,0,0-19.872,19.872v105.806Z" transform="translate(-230.231 -1725.24)" fill="#007b84"/>
        <path id="Caminho_7014" data-name="Caminho 7014" d="M1064.8,1850.918h284.476a19.871,19.871,0,0,0,19.872-19.872V1725.24H1084.672a19.871,19.871,0,0,0-19.872,19.872Z" transform="translate(-399.157 -1725.24)" fill="#007b84"/>
        <path id="Caminho_7015" data-name="Caminho 7015" d="M1569.41,1850.918h331.9a19.871,19.871,0,0,0,19.872-19.872V1725.24h-331.9a19.871,19.871,0,0,0-19.872,19.872Z" transform="translate(-569.512 -1725.24)" fill="#007b84"/>
        <path id="Caminho_7016" data-name="Caminho 7016" d="M59.91,2067.188H344.386a19.871,19.871,0,0,0,19.872-19.872V1941.51H79.782a19.871,19.871,0,0,0-19.872,19.872v105.806Z" transform="translate(-59.91 -1798.252)" fill="#007b84"/>
        <path id="Caminho_7017" data-name="Caminho 7017" d="M564.42,2067.188H848.9a19.871,19.871,0,0,0,19.872-19.872V1941.51H584.292a19.871,19.871,0,0,0-19.872,19.872v105.806Z" transform="translate(-230.231 -1798.252)" fill="#007b84"/>
        <path id="Caminho_7018" data-name="Caminho 7018" d="M1064.8,2067.188h284.476a19.871,19.871,0,0,0,19.872-19.872V1941.51H1084.672a19.871,19.871,0,0,0-19.872,19.872Z" transform="translate(-399.157 -1798.252)" fill="#007b84"/>
        <path id="Caminho_7019" data-name="Caminho 7019" d="M1569.41,2067.188h329.672a19.871,19.871,0,0,0,19.872-19.872V1941.51H1589.282a19.871,19.871,0,0,0-19.872,19.872v105.806Z" transform="translate(-569.512 -1798.252)" fill="#007b84"/>
        <path id="Caminho_7020" data-name="Caminho 7020" d="M59.91,2287.688H344.386a19.871,19.871,0,0,0,19.872-19.872V2162.01H79.782a19.871,19.871,0,0,0-19.872,19.872v105.805Z" transform="translate(-59.91 -1872.692)" fill="#007b84"/>
        <path id="Caminho_7021" data-name="Caminho 7021" d="M564.42,2287.688H848.9a19.871,19.871,0,0,0,19.872-19.872V2162.01H584.292a19.871,19.871,0,0,0-19.872,19.872v105.805Z" transform="translate(-230.231 -1872.692)" fill="#007b84"/>
        <path id="Caminho_7022" data-name="Caminho 7022" d="M1064.8,2287.688h284.476a19.871,19.871,0,0,0,19.872-19.872V2162.01H1084.672a19.871,19.871,0,0,0-19.872,19.872Z" transform="translate(-399.157 -1872.692)" fill="#007b84"/>
        <path id="Caminho_7023" data-name="Caminho 7023" d="M1569.41,2287.688h331.679a19.871,19.871,0,0,0,19.872-19.872V2162.01H1589.282a19.871,19.871,0,0,0-19.872,19.872v105.805Z" transform="translate(-569.512 -1872.692)" fill="#007b84"/>
        <path id="Caminho_7024" data-name="Caminho 7024" d="M59.91,2503.867H344.386A19.871,19.871,0,0,0,364.258,2484V2378.19H79.782a19.871,19.871,0,0,0-19.872,19.872v105.805Z" transform="translate(-59.91 -1945.674)" fill="#007b84"/>
        <path id="Caminho_7025" data-name="Caminho 7025" d="M564.42,2503.867H848.9A19.871,19.871,0,0,0,868.768,2484V2378.19H584.292a19.871,19.871,0,0,0-19.872,19.872v105.805Z" transform="translate(-230.231 -1945.674)" fill="#007b84"/>
        <path id="Caminho_7026" data-name="Caminho 7026" d="M1064.8,2503.867h284.476A19.871,19.871,0,0,0,1369.148,2484V2378.19H1084.672a19.871,19.871,0,0,0-19.872,19.872Z" transform="translate(-399.157 -1945.674)" fill="#007b84"/>
        <path id="Caminho_7027" data-name="Caminho 7027" d="M1569.41,2503.867h331.679A19.871,19.871,0,0,0,1920.961,2484V2378.19H1589.282a19.871,19.871,0,0,0-19.872,19.872v105.805Z" transform="translate(-569.512 -1945.674)" fill="#007b84"/>
        <path id="Caminho_7028" data-name="Caminho 7028" d="M59.91,2718.718H344.386a19.871,19.871,0,0,0,19.872-19.872V2593.04H79.782a19.871,19.871,0,0,0-19.872,19.872v105.806Z" transform="translate(-59.91 -2018.206)" fill="#007b84"/>
      </g>
      <line id="Linha_88" data-name="Linha 88" y2="94.869" transform="translate(441.134 223.641)" fill="none" stroke="#154a5a" stroke-width="2.13"/>
      <line id="Linha_89" data-name="Linha 89" y2="141.317" transform="translate(441.134 82.324)" fill="none" stroke="#154a5a" stroke-width="2.13"/>
      <path id="Caminho_7029" data-name="Caminho 7029" d="M1934.787,741.77V1052.8H1605.93" transform="translate(-553.781 -261.05)" fill="none" stroke="#154a5a" stroke-width="2.13"/>
      <line id="Linha_90" data-name="Linha 90" y2="257.079" transform="translate(1381.005 223.641)" fill="none" stroke="#154a5a" stroke-width="2.13"/>
      <path id="Caminho_7030" data-name="Caminho 7030" d="M1385.37,83.09h474.957V262.323" transform="translate(-479.321 -38.682)" fill="none" stroke="#154a5a" stroke-width="2.13"/>
      <line id="Linha_91" data-name="Linha 91" y1="41.877" transform="translate(888.436 438.849)" fill="none" stroke="#154a5a" stroke-width="2.13"/>
      <line id="Linha_92" data-name="Linha 92" y1="224.33" transform="translate(888.436 480.726)" fill="none" stroke="#154a5a" stroke-width="2.13"/>
      <line id="Linha_93" data-name="Linha 93" y1="41.149" transform="translate(568.442 439.578)" fill="none" stroke="#154a5a" stroke-width="2.08"/>
      <line id="Linha_94" data-name="Linha 94" y1="563.652" transform="translate(568.442 480.726)" fill="none" stroke="#154a5a" stroke-width="2.08"/>
      <line id="Linha_95" data-name="Linha 95" y1="66.161" transform="translate(568.442 1044.379)" fill="none" stroke="#154a5a" stroke-width="2.08"/>
      <line id="Linha_96" data-name="Linha 96" y1="78.713" transform="translate(730.353 402.013)" fill="none" stroke="#154a5a" stroke-width="2.08"/>
      <line id="Linha_97" data-name="Linha 97" y1="75.945" transform="translate(730.353 480.726)" fill="none" stroke="#154a5a" stroke-width="2.08"/>
      <line id="Linha_98" data-name="Linha 98" x2="52.442" transform="translate(592.242 52.906)" fill="none" stroke="#154a5a" stroke-linecap="round" stroke-linejoin="round" stroke-width="5.54" stroke-dasharray="0 0 0 17.59"/>
      <path id="Caminho_7031" data-name="Caminho 7031" d="M963.963,95.92h0m-69.923,0h0" transform="translate(-313.45 -43.014)" fill="none" stroke="#154a5a" stroke-linecap="round" stroke-linejoin="round" stroke-width="5.54"/>
      <path id="Caminho_7032" data-name="Caminho 7032" d="M467.93,110.555H746.073a19.871,19.871,0,0,0,19.872-19.872V16.05H487.8A19.871,19.871,0,0,0,467.93,35.922v74.633Z" transform="translate(-169.597 -16.05)" fill="#005192"/>
      <path id="Caminho_7033" data-name="Caminho 7033" d="M1004.95,110.555h278.143a19.871,19.871,0,0,0,19.872-19.872V16.05H1024.822a19.871,19.871,0,0,0-19.872,19.872Z" transform="translate(-350.893 -16.05)" fill="#005192"/>
      <text id="A" transform="translate(318.391 50.403)" fill="#fff" font-size="25" font-family="Montserrat-SemiBold, Montserrat" font-weight="600"><tspan x="0" y="0">A</tspan></text>
      <text id="s" transform="translate(339.336 51.403)" fill="#fff" font-size="26" font-family="Montserrat-SemiBold, Montserrat" font-weight="600"><tspan x="0" y="0">s</tspan></text>
      <text id="se" transform="translate(353.724 52.403)" fill="#fff" font-size="27" font-family="Montserrat-SemiBold, Montserrat" font-weight="600"><tspan x="0" y="0">se</tspan></text>
      <text id="m" transform="translate(385.612 51.403)" fill="#fff" font-size="26" font-family="Montserrat-SemiBold, Montserrat" font-weight="600"><tspan x="0" y="0">m</tspan></text>
      <text id="bl" transform="translate(415.334 52.403)" fill="#fff" font-size="27" font-family="Montserrat-SemiBold, Montserrat" font-weight="600"><tspan x="0" y="0">bl</tspan></text>
      <text id="e" transform="translate(442.605 51.403)" fill="#fff" font-size="26" font-family="Montserrat-SemiBold, Montserrat" font-weight="600"><tspan x="0" y="0">e</tspan></text>
      <text id="i" transform="translate(460.039 47.403)" fill="#fff" font-size="22" font-family="Montserrat-SemiBold, Montserrat" font-weight="600"><tspan x="0" y="0">i</tspan></text>
      <text id="a-2" data-name="a" transform="translate(468.021 50.403)" fill="#fff" font-size="25" font-family="Montserrat-SemiBold, Montserrat" font-weight="600"><tspan x="0" y="0">a</tspan></text>
      <text id="Ge" transform="translate(493.186 51.403)" fill="#fff" font-size="26" font-family="Montserrat-SemiBold, Montserrat" font-weight="600"><tspan x="0" y="0">Ge</tspan></text>
      <text id="r" transform="translate(532.394 49.403)" fill="#fff" font-size="24" font-family="Montserrat-SemiBold, Montserrat" font-weight="600"><tspan x="0" y="0">r</tspan></text>
      <text id="a-3" data-name="a" transform="translate(543.88 50.403)" fill="#fff" font-size="25" font-family="Montserrat-SemiBold, Montserrat" font-weight="600"><tspan x="0" y="0">a</tspan></text>
      <text id="l" transform="translate(560.89 47.403)" fill="#fff" font-size="22" font-family="Montserrat-SemiBold, Montserrat" font-weight="600"><tspan x="0" y="0">l</tspan></text>
      <text id="Conselho_Fiscal" data-name="Conselho Fiscal" transform="translate(689.43 52.403)" fill="#fff" font-size="27" font-family="Montserrat-SemiBold, Montserrat" font-weight="600"><tspan x="0" y="0" letter-spacing="-0.01em">Conselho Fisca</tspan><tspan y="0">l</tspan></text>
      <line id="Linha_99" data-name="Linha 99" x2="52.442" transform="translate(592.242 182.042)" fill="none" stroke="#154a5a" stroke-linecap="round" stroke-linejoin="round" stroke-width="5.54" stroke-dasharray="0 0 0 17.59"/>
      <path id="Caminho_7034" data-name="Caminho 7034" d="M963.963,290.87h0m-69.923,0h0" transform="translate(-313.45 -108.828)" fill="none" stroke="#154a5a" stroke-linecap="round" stroke-linejoin="round" stroke-width="5.54"/>
      <path id="Caminho_7035" data-name="Caminho 7035" d="M391.49,305.505H720.274a19.871,19.871,0,0,0,19.872-19.872V211H411.362a19.871,19.871,0,0,0-19.872,19.872v74.633Z" transform="translate(-143.791 -81.864)" fill="#005192"/>
      <path id="Caminho_7036" data-name="Caminho 7036" d="M1004.95,305.505H1341.5a19.871,19.871,0,0,0,19.872-19.872V211H1024.822a19.871,19.871,0,0,0-19.872,19.872Z" transform="translate(-350.893 -81.864)" fill="#005192"/>
      <text id="C" transform="translate(264.71 183.189)" fill="#fff" font-size="26" font-family="Montserrat-SemiBold, Montserrat" font-weight="600"><tspan x="0" y="0">C</tspan></text>
      <text id="onsel" transform="translate(284.602 184.189)" fill="#fff" font-size="27" font-family="Montserrat-SemiBold, Montserrat" font-weight="600"><tspan x="0" y="0">onsel</tspan></text>
      <text id="h" transform="translate(361.851 182.189)" fill="#fff" font-size="25" font-family="Montserrat-SemiBold, Montserrat" font-weight="600"><tspan x="0" y="0">h</tspan></text>
      <text id="o" transform="translate(381.227 184.189)" fill="#fff" font-size="27" font-family="Montserrat-SemiBold, Montserrat" font-weight="600"><tspan x="0" y="0">o</tspan></text>
      <text id="Delibe" transform="translate(407.471 184.189)" fill="#fff" font-size="27" font-family="Montserrat-SemiBold, Montserrat" font-weight="600"><tspan x="0" y="0">Delibe</tspan></text>
      <text id="r-2" data-name="r" transform="translate(500.943 181.189)" fill="#fff" font-size="24" font-family="Montserrat-SemiBold, Montserrat" font-weight="600"><tspan x="0" y="0">r</tspan></text>
      <text id="a-4" data-name="a" transform="translate(512.396 182.189)" fill="#fff" font-size="25" font-family="Montserrat-SemiBold, Montserrat" font-weight="600"><tspan x="0" y="0">a</tspan></text>
      <text id="t" transform="translate(529.433 181.189)" fill="#fff" font-size="24" font-family="Montserrat-SemiBold, Montserrat" font-weight="600"><tspan x="0" y="0">t</tspan></text>
      <text id="i-2" data-name="i" transform="translate(541.23 179.189)" fill="#fff" font-size="22" font-family="Montserrat-SemiBold, Montserrat" font-weight="600"><tspan x="0" y="0">i</tspan></text>
      <text id="v" transform="translate(549.212 183.189)" fill="#fff" font-size="26" font-family="Montserrat-SemiBold, Montserrat" font-weight="600"><tspan x="0" y="0">v</tspan></text>
      <text id="o-2" data-name="o" transform="translate(564.971 184.851)" fill="#fff" font-size="27" font-family="Montserrat-SemiBold, Montserrat" font-weight="600"><tspan x="0" y="0">o</tspan></text>
      <text id="Conselho_Consultivo" data-name="Conselho Consultivo" transform="translate(689.436 184.189)" fill="#fff" font-size="27" font-family="Montserrat-SemiBold, Montserrat" font-weight="600"><tspan x="0" y="0">Conselho Consultivo</tspan></text>
      <path id="Caminho_7037" data-name="Caminho 7037" d="M1119.37,1254.97h304.984a19.871,19.871,0,0,0,19.872-19.872V1077.83H1139.242a19.871,19.871,0,0,0-19.872,19.872Z" transform="translate(-389.52 -374.503)" fill="#02a180"/>
      <path id="Caminho_7038" data-name="Caminho 7038" d="M352.31,764.378V498.39h922.152V764.378" transform="translate(-130.564 -178.886)" fill="none" stroke="#154a5a" stroke-width="2.13"/>
      <line id="Linha_100" data-name="Linha 100" x2="772.992" transform="translate(323.525 402.013)" fill="none" stroke="#154a5a" stroke-width="2.13"/>
      <line id="Linha_101" data-name="Linha 101" x2="245.619" transform="translate(323.525 439.578)" fill="none" stroke="#154a5a" stroke-width="2.13"/>
      <line id="Linha_102" data-name="Linha 102" x2="301.685" transform="translate(888.436 439.578)" fill="none" stroke="#154a5a" stroke-width="2.13"/>
      <path id="Caminho_7039" data-name="Caminho 7039" d="M65.91,1143.05H517.934a19.871,19.871,0,0,0,19.872-19.872V816.69H85.782A19.871,19.871,0,0,0,65.91,836.562Z" transform="translate(-33.876 -286.343)" fill="#007b84"/>
      <path id="Caminho_7040" data-name="Caminho 7040" d="M155.76,677.718h248.1a19.871,19.871,0,0,0,19.872-19.872V552.04h-248.1a19.871,19.871,0,0,0-19.872,19.872Z" transform="translate(-64.209 -196.998)" fill="#02a180"/>
      <text id="Diretoria_Eleita" data-name="Diretoria Eleita" transform="translate(118.146 412.446)" fill="#fff" font-size="27" font-family="Montserrat-SemiBold, Montserrat" font-weight="600"><tspan x="0" y="0">Diretoria Eleita</tspan></text>
      <text id="Sid" transform="translate(117.835 446.043)" fill="#fff" font-size="27" font-family="Montserrat-Regular, Montserrat"><tspan x="0" y="0">Sid</tspan></text>
      <text id="n" transform="translate(161.09 444.043)" fill="#fff" font-size="25" font-family="Montserrat-Regular, Montserrat"><tspan x="0" y="0">n</tspan></text>
      <text id="e-2" data-name="e" transform="translate(180.094 444.043)" fill="#fff" font-size="25" font-family="Montserrat-Regular, Montserrat"><tspan x="0" y="0">e</tspan></text>
      <text id="y_K" data-name="y K" transform="translate(196.906 445.043)" fill="#fff" font-size="26" font-family="Montserrat-Regular, Montserrat"><tspan x="0" y="0">y K</tspan></text>
      <text id="l-2" data-name="l" transform="translate(238.2 443.043)" fill="#fff" font-size="24" font-family="Montserrat-Regular, Montserrat"><tspan x="0" y="0">l</tspan></text>
      <text id="aj" transform="translate(245.354 446.043)" fill="#fff" font-size="27" font-family="Montserrat-Regular, Montserrat"><tspan x="0" y="0">aj</tspan></text>
      <text id="n-2" data-name="n" transform="translate(269.035 444.043)" fill="#fff" font-size="25" font-family="Montserrat-Regular, Montserrat"><tspan x="0" y="0">n</tspan></text>
      <text id="e-3" data-name="e" transform="translate(288.04 444.043)" fill="#fff" font-size="25" font-family="Montserrat-Regular, Montserrat"><tspan x="0" y="0">e</tspan></text>
      <text id="r-3" data-name="r" transform="translate(304.792 442.043)" fill="#fff" font-size="23" font-family="Montserrat-Regular, Montserrat"><tspan x="0" y="0">r</tspan></text>
      <path id="Caminho_7041" data-name="Caminho 7041" d="M647.82,1526.578H932.3a19.871,19.871,0,0,0,19.872-19.872V1400.9H667.692a19.871,19.871,0,0,0-19.872,19.872v105.806Z" transform="translate(-230.327 -483.57)" fill="#02a180"/>
      <text id="Diretor_Geral" data-name="Diretor Geral" transform="translate(475.195 974.224)" fill="#fff" font-size="27" font-family="Montserrat-SemiBold, Montserrat" font-weight="600"><tspan x="0" y="0">Diretor Geral</tspan></text>
      <text id="Henrique_Neves" data-name="Henrique Neves" transform="translate(458.668 1007.821)" fill="#fff" font-size="27" font-family="Montserrat-Regular, Montserrat"><tspan x="0" y="0">Henrique Neves</tspan></text>
      <text id="Viviane_Miranda" data-name="Viviane Miranda" transform="translate(784.889 852.13)" fill="#fff" font-size="27" font-family="Montserrat-Regular, Montserrat"><tspan x="0" y="0">Viviane Miranda</tspan></text>
      <path id="Caminho_7042" data-name="Caminho 7042" d="M1469.64,680.1h308.091a19.871,19.871,0,0,0,19.872-19.872V559.1H1489.512a19.871,19.871,0,0,0-19.872,19.872Z" transform="translate(-507.77 -199.382)" fill="#02a180"/>
      <text id="Mesa_Diretora" data-name="Mesa Diretora" transform="translate(1036.066 412.208)" fill="#fff" font-size="27" font-family="Montserrat-SemiBold, Montserrat" font-weight="600"><tspan x="0" y="0">Mesa Diretora</tspan></text>
      <text id="Claudio_Lottenberg" data-name="Claudio Lottenberg" transform="translate(993.321 445.792)" fill="#fff" font-size="27" font-family="Montserrat-Regular, Montserrat"><tspan x="0" y="0">Claudio Lottenberg</tspan></text>
      <text id="Comitês" transform="translate(65.744 576.856)" fill="#fff" font-size="21" font-family="Montserrat-Bold, Montserrat" font-weight="700"><tspan x="0" y="0">Comitês</tspan></text>
      <text id="_De_Empreendedorismo_e_Inovação" data-name="• De Empreendedorismo e Inovação" transform="translate(65.744 603.948)" fill="#fff" font-size="21" font-family="Montserrat-Regular, Montserrat"><tspan x="0" y="0">• De Empreendedorismo e Inovação</tspan></text>
      <text id="_De_Ensino_e_Educação" data-name="• De Ensino e Educação" transform="translate(65.744 631.041)" fill="#fff" font-size="21" font-family="Montserrat-Regular, Montserrat"><tspan x="0" y="0">• De Ensino e Educação</tspan></text>
      <text id="_De_Finanças" data-name="• De Finanças" transform="translate(65.744 658.127)" fill="#fff" font-size="21" font-family="Montserrat-Regular, Montserrat"><tspan x="0" y="0">• De Finanças</tspan></text>
      <text id="_De_Pesquisa_e_Inovação" data-name="• De Pesquisa e Inovação" transform="translate(65.744 685.219)" fill="#fff" font-size="21" font-family="Montserrat-Regular, Montserrat"><tspan x="0" y="0">• De Pesquisa e Inovação</tspan></text>
      <text id="_De_Pessoas_e_Sucessão" data-name="• De Pessoas e Sucessão" transform="translate(65.744 712.311)" fill="#fff" font-size="21" font-family="Montserrat-Regular, Montserrat"><tspan x="0" y="0">• De Pessoas e Sucessão</tspan></text>
      <text id="_De_Qualidade_Assistência_e_TI" data-name="• De Qualidade, Assistência e TI" transform="translate(65.744 739.403)" fill="#fff" font-size="21" font-family="Montserrat-Regular, Montserrat"><tspan x="0" y="0">• De Qualidade, Assistência e TI</tspan></text>
      <text id="_De_Responsabilidade_Social_" data-name="• De Responsabilidade Social  " transform="translate(65.744 766.489)" fill="#fff" font-size="21" font-family="Montserrat-Regular, Montserrat"><tspan x="0" y="0" xml:space="preserve">• De Responsabilidade Social  </tspan></text>
      <text id="_e_Sustentabilidade" data-name="  e Sustentabilidade" transform="translate(65.744 793.581)" fill="#fff" font-size="21" font-family="Montserrat-Regular, Montserrat"><tspan x="0" y="0" xml:space="preserve">  e Sustentabilidade</tspan></text>
      <text id="_Digital" data-name="• Digital" transform="translate(65.744 820.674)" fill="#fff" font-size="21" font-family="Montserrat-Regular, Montserrat"><tspan x="0" y="0">• Digital</tspan></text>
      <path id="Caminho_7043" data-name="Caminho 7043" d="M1404.49,943.8h397.72a19.871,19.871,0,0,0,19.872-19.872V818.8h-397.72a19.871,19.871,0,0,0-19.872,19.872Z" transform="translate(-485.776 -287.055)" fill="#007b84"/>
      <text id="Comitês-2" data-name="Comitês" transform="translate(946.807 571.564)" fill="#fff" font-size="21" font-family="Montserrat-Bold, Montserrat" font-weight="700"><tspan x="0" y="0">Comitês</tspan></text>
      <text id="_De_Auditoria_da_Governança" data-name="• De Auditoria da Governança" transform="translate(946.807 598.649)" fill="#fff" font-size="21" font-family="Montserrat-Regular, Montserrat"><tspan x="0" y="0">• De Auditoria da Governança</tspan></text>
      <text id="_De_Con_ito_de_Interesses" data-name="• De Conﬂito de Interesses" transform="translate(946.807 625.742)" fill="#fff" font-size="21" font-family="Montserrat-Regular, Montserrat"><tspan x="0" y="0">• De Conﬂito de Interesses</tspan></text>
      <path id="Caminho_7044" data-name="Caminho 7044" d="M914.59,943.8h252.429a19.871,19.871,0,0,0,19.872-19.872V818.8H934.462a19.871,19.871,0,0,0-19.872,19.872V943.8Z" transform="translate(-320.387 -287.055)" fill="#007b84"/>
      <text id="Comitê" transform="translate(622.295 571.564)" fill="#fff" font-size="21" font-family="Montserrat-Bold, Montserrat" font-weight="700"><tspan x="0" y="0">Comitê</tspan></text>
      <text id="_De_Expansão" data-name="• De Expansão" transform="translate(622.295 598.649)" fill="#fff" font-size="21" font-family="Montserrat-Regular, Montserrat"><tspan x="0" y="0">• De Expansão</tspan></text>
      <text id="_e_Novos_Negócios" data-name="  e Novos Negócios" transform="translate(622.295 625.742)" fill="#fff" font-size="21" font-family="Montserrat-Regular, Montserrat"><tspan x="0" y="0" xml:space="preserve">  e Novos Negócios</tspan></text>
      <text id="Diretor_Superintendente" data-name="Diretor Superintendente" transform="translate(55.019 1172.358)" fill="#fff" font-size="18" font-family="Montserrat-Regular, Montserrat"><tspan x="0" y="0">Diretor Superintendente</tspan></text>
      <text id="Sistemas_de_Saúde_" data-name="Sistemas de Saúde " transform="translate(83.854 1196.059)" fill="#fff" font-size="18" font-family="Montserrat-Regular, Montserrat"><tspan x="0" y="0">Sistemas de Saúde </tspan></text>
      <text id="Eliezer_Silva" data-name="Eliezer Silva" transform="translate(111.131 1223.501)" fill="#fff" font-size="21" font-family="Montserrat-Regular, Montserrat"><tspan x="0" y="0">Eliezer Silva</tspan></text>
      <text id="Diretor_Superintendente-2" data-name="Diretor Superintendente" transform="translate(391.838 1172.735)" fill="#fff" font-size="18" font-family="Montserrat-Regular, Montserrat"><tspan x="0" y="0">Diretor Superintendente</tspan></text>
      <text id="de_Ensino_e_Consultoria" data-name="de Ensino e Consultoria" transform="translate(397.091 1196.443)" fill="#fff" font-size="18" font-family="Montserrat-Regular, Montserrat"><tspan x="0" y="0">de Ensino e Consultoria</tspan></text>
      <text id="Alexandre_Holthausen" data-name="Alexandre Holthausen" transform="translate(387.798 1223.879)" fill="#fff" font-size="21" font-family="Montserrat-Regular, Montserrat"><tspan x="0" y="0">Alexandre Holthausen</tspan></text>
      <text id="Diretor_Superintendente-3" data-name="Diretor Superintendente" transform="translate(720.993 1172.358)" fill="#fff" font-size="18" font-family="Montserrat-Regular, Montserrat"><tspan x="0" y="0">Diretor Superintendente</tspan></text>
      <text id="de_Pesquisa_" data-name="de Pesquisa " transform="translate(784.107 1196.059)" fill="#fff" font-size="18" font-family="Montserrat-Regular, Montserrat"><tspan x="0" y="0">de Pesquisa </tspan></text>
      <text id="Luiz_Vicente_Rizzo_" data-name="Luiz Vicente Rizzo " transform="translate(741.157 1223.501)" fill="#fff" font-size="21" font-family="Montserrat-Regular, Montserrat"><tspan x="0" y="0">Luiz Vicente Rizzo </tspan></text>
      <text id="Diretor_Superintendente-4" data-name="Diretor Superintendente" transform="translate(1076.465 1163.568)" fill="#fff" font-size="18" font-family="Montserrat-Regular, Montserrat"><tspan x="0" y="0">Diretor Superintendente</tspan></text>
      <text id="do_Cuidado_Público_e" data-name="do Cuidado Público e" transform="translate(1092.94 1187.268)" fill="#fff" font-size="18" font-family="Montserrat-Regular, Montserrat"><tspan x="0" y="0">do Cuidado Público e</tspan></text>
      <text id="Responsabilidade_Social" data-name="Responsabilidade Social" transform="translate(1078.877 1210.976)" fill="#fff" font-size="18" font-family="Montserrat-Regular, Montserrat"><tspan x="0" y="0">Responsabilidade Social</tspan></text>
      <text id="Guilherme_Schettino_" data-name="Guilherme Schettino " transform="translate(1081.023 1238.412)" fill="#fff" font-size="21" font-family="Montserrat-Regular, Montserrat"><tspan x="0" y="0">Guilherme Schettino </tspan></text>
      <text id="Diretora_Executiva" data-name="Diretora Executiva" transform="translate(85.152 1318.053)" fill="#fff" font-size="18" font-family="Montserrat-Regular, Montserrat"><tspan x="0" y="0">Diretora Executiva</tspan></text>
      <text id="Comercial_e_Marketing_" data-name="Comercial e Marketing " transform="translate(63.584 1341.754)" fill="#fff" font-size="18" font-family="Montserrat-Regular, Montserrat"><tspan x="0" y="0">Comercial e Marketing </tspan></text>
      <text id="Deise_de_Almeida_" data-name="Deise de Almeida " transform="translate(77.369 1369.197)" fill="#fff" font-size="21" font-family="Montserrat-Regular, Montserrat"><tspan x="0" y="0">Deise de Almeida </tspan></text>
      <text id="Diretor_Executivo" data-name="Diretor Executivo" transform="translate(435.862 1315.159)" fill="#fff" font-size="18" font-family="Montserrat-Regular, Montserrat"><tspan x="0" y="0">Diretor Executivo</tspan></text>
      <text id="de_Inovação" data-name="de Inovação" transform="translate(462.272 1338.859)" fill="#fff" font-size="18" font-family="Montserrat-Regular, Montserrat"><tspan x="0" y="0">de Inovação</tspan></text>
      <text id="Rodrigo_Demarch" data-name="Rodrigo Demarch" transform="translate(420.5 1366.302)" fill="#fff" font-size="21" font-family="Montserrat-Regular, Montserrat"><tspan x="0" y="0">Rodrigo Demarch</tspan></text>
      <text id="Diretora_Executiva_de" data-name="Diretora Executiva de" transform="translate(738.62 1306.819)" fill="#fff" font-size="18" font-family="Montserrat-Regular, Montserrat"><tspan x="0" y="0">Diretora Executiva de</tspan></text>
      <text id="Patrimônio_Engenharia_e" data-name="Patrimônio, Engenharia e" transform="translate(718.476 1330.52)" fill="#fff" font-size="18" font-family="Montserrat-Regular, Montserrat"><tspan x="0" y="0">Patrimônio, Engenharia e</tspan></text>
      <text id="Infraestrutura_" data-name="Infraestrutura " transform="translate(776.966 1354.221)" fill="#fff" font-size="18" font-family="Montserrat-Regular, Montserrat"><tspan x="0" y="0">Infraestrutura </tspan></text>
      <text id="Junia_Gontijo" data-name="Junia Gontijo" transform="translate(770.932 1381.663)" fill="#fff" font-size="21" font-family="Montserrat-Regular, Montserrat"><tspan x="0" y="0">Junia Gontijo</tspan></text>
      <text id="Diretora_Executiva_de-2" data-name="Diretora Executiva de" transform="translate(1092.39 1306.819)" fill="#fff" font-size="18" font-family="Montserrat-Regular, Montserrat"><tspan x="0" y="0">Diretora Executiva de</tspan></text>
      <text id="Planejamento_Finanças" data-name="Planejamento, Finanças" transform="translate(1079.884 1330.52)" fill="#fff" font-size="18" font-family="Montserrat-Regular, Montserrat"><tspan x="0" y="0">Planejamento, Finanças</tspan></text>
      <text id="e_Serviços_" data-name="e Serviços " transform="translate(1150.443 1354.221)" fill="#fff" font-size="18" font-family="Montserrat-Regular, Montserrat"><tspan x="0" y="0">e Serviços </tspan></text>
      <text id="Patricia_Leisnock_Santos" data-name="Patricia Leisnock Santos" transform="translate(1061.144 1381.663)" fill="#fff" font-size="21" font-family="Montserrat-Regular, Montserrat"><tspan x="0" y="0">Patricia Leisnock Santos</tspan></text>
      <text id="Diretora_Executiva_de-3" data-name="Diretora Executiva de" transform="translate(72.5 1462.888)" fill="#fff" font-size="18" font-family="Montserrat-Regular, Montserrat"><tspan x="0" y="0">Diretora Executiva de</tspan></text>
      <text id="Recursos_Humanos" data-name="Recursos Humanos" transform="translate(83.205 1486.589)" fill="#fff" font-size="18" font-family="Montserrat-Regular, Montserrat"><tspan x="0" y="0">Recursos Humanos</tspan></text>
      <text id="Miriam_Branco_da_Cunha_" data-name="Miriam Branco da Cunha " transform="translate(37.532 1514.031)" fill="#fff" font-size="21" font-family="Montserrat-Regular, Montserrat"><tspan x="0" y="0">Miriam Branco da Cunha </tspan></text>
      <text id="Diretor_Executivo_de" data-name="Diretor Executivo de" transform="translate(410.425 1460.384)" fill="#fff" font-size="18" font-family="Montserrat-Regular, Montserrat"><tspan x="0" y="0">Diretor Executivo de</tspan></text>
      <text id="Suprimentos_e_Logística_" data-name="Suprimentos e Logística " transform="translate(391.746 1484.092)" fill="#fff" font-size="18" font-family="Montserrat-Regular, Montserrat"><tspan x="0" y="0">Suprimentos e Logística </tspan></text>
      <text id="Gustavo_Guacelli_Taboas_" data-name="Gustavo Guacelli Taboas " transform="translate(373.483 1511.534)" fill="#fff" font-size="21" font-family="Montserrat-Regular, Montserrat"><tspan x="0" y="0">Gustavo Guacelli Taboas </tspan></text>
      <text id="Diretora_Executiva_de-4" data-name="Diretora Executiva de" transform="translate(737.699 1462.053)" fill="#fff" font-size="18" font-family="Montserrat-Regular, Montserrat"><tspan x="0" y="0">Diretora Executiva de</tspan></text>
      <text id="Tecnologia_da_Informação" data-name="Tecnologia da Informação" transform="translate(715.124 1485.754)" fill="#fff" font-size="18" font-family="Montserrat-Regular, Montserrat"><tspan x="0" y="0">Tecnologia da Informação</tspan></text>
      <text id="Katia_Gontarzik" data-name="Katia Gontarzik" transform="translate(757.75 1513.197)" fill="#fff" font-size="21" font-family="Montserrat-Regular, Montserrat"><tspan x="0" y="0">Katia Gontarzik</tspan></text>
      <text id="Diretor_Médico_do_Cuidado" data-name="Diretor Médico do Cuidado" transform="translate(1068.238 1452.879)" fill="#fff" font-size="18" font-family="Montserrat-Regular, Montserrat"><tspan x="0" y="0">Diretor Médico do Cuidado</tspan></text>
      <text id="Episódico_Serviços" data-name="Episódico, Serviços" transform="translate(1108.751 1476.586)" fill="#fff" font-size="18" font-family="Montserrat-Regular, Montserrat"><tspan x="0" y="0">Episódico, Serviços</tspan></text>
      <text id="Hospitalares_e_Prática_Médica_" data-name="Hospitalares e Prática Médica " transform="translate(1055.315 1500.287)" fill="#fff" font-size="18" font-family="Montserrat-Regular, Montserrat"><tspan x="0" y="0">Hospitalares e Prática Médica </tspan></text>
      <text id="Miguel_Cendoroglo_Neto_" data-name="Miguel Cendoroglo Neto " transform="translate(1062.82 1527.73)" fill="#fff" font-size="21" font-family="Montserrat-Regular, Montserrat"><tspan x="0" y="0">Miguel Cendoroglo Neto </tspan></text>
      <text id="Diretora_da_Unidade" data-name="Diretora da Unidade" transform="translate(77.799 1603.583)" fill="#fff" font-size="18" font-family="Montserrat-Regular, Montserrat"><tspan x="0" y="0">Diretora da Unidade</tspan></text>
      <text id="Hospitalar_Morumbi" data-name="Hospitalar Morumbi" transform="translate(79.336 1627.283)" fill="#fff" font-size="18" font-family="Montserrat-Regular, Montserrat"><tspan x="0" y="0">Hospitalar Morumbi</tspan></text>
      <text id="Claudia_Regina_Laselva_" data-name="Claudia Regina Laselva " transform="translate(47.706 1654.726)" fill="#fff" font-size="21" font-family="Montserrat-Regular, Montserrat"><tspan x="0" y="0">Claudia Regina Laselva </tspan></text>
      <text id="Diretora_Jurídica_" data-name="Diretora Jurídica " transform="translate(95.379 1759.247)" fill="#fff" font-size="18" font-family="Montserrat-Regular, Montserrat"><tspan x="0" y="0">Diretora Jurídica </tspan></text>
      <text id="Rogeria_Leoni_Cruz" data-name="Rogeria Leoni Cruz" transform="translate(70.361 1786.683)" fill="#fff" font-size="21" font-family="Montserrat-Regular, Montserrat"><tspan x="0" y="0">Rogeria Leoni Cruz</tspan></text>
      <text id="Diretora_de_Comunicação" data-name="Diretora de Comunicação" transform="translate(388.387 1605.676)" fill="#fff" font-size="18" font-family="Montserrat-Regular, Montserrat"><tspan x="0" y="0">Diretora de Comunicação</tspan></text>
      <text id="Institucional_" data-name="Institucional " transform="translate(454.78 1629.376)" fill="#fff" font-size="18" font-family="Montserrat-Regular, Montserrat"><tspan x="0" y="0">Institucional </tspan></text>
      <text id="Debora_Pratali" data-name="Debora Pratali" transform="translate(434.424 1656.826)" fill="#fff" font-size="21" font-family="Montserrat-Regular, Montserrat"><tspan x="0" y="0">Debora Pratali</tspan></text>
      <text id="Diretor_do_Cuidado" data-name="Diretor do Cuidado" transform="translate(749.026 1606.08)" fill="#fff" font-size="18" font-family="Montserrat-Regular, Montserrat"><tspan x="0" y="0">Diretor do Cuidado</tspan></text>
      <text id="Integrado_" data-name="Integrado " transform="translate(795.288 1629.787)" fill="#fff" font-size="18" font-family="Montserrat-Regular, Montserrat"><tspan x="0" y="0">Integrado </tspan></text>
      <text id="Leandro_Vaz_Figueira_" data-name="Leandro Vaz Figueira " transform="translate(723.53 1657.23)" fill="#fff" font-size="21" font-family="Montserrat-Regular, Montserrat"><tspan x="0" y="0">Leandro Vaz Figueira </tspan></text>
      <text id="Diretor_de_Excelência" data-name="Diretor de Excelência" transform="translate(1100.822 1607.63)" fill="#fff" font-size="18" font-family="Montserrat-Regular, Montserrat"><tspan x="0" y="0">Diretor de Excelência</tspan></text>
      <text id="em_Saúde_" data-name="em Saúde " transform="translate(1157.259 1631.331)" fill="#fff" font-size="18" font-family="Montserrat-Regular, Montserrat"><tspan x="0" y="0">em Saúde </tspan></text>
      <text id="Ederson_Almeida" data-name="Ederson Almeida" transform="translate(1109.725 1658.767)" fill="#fff" font-size="21" font-family="Montserrat-Regular, Montserrat"><tspan x="0" y="0">Ederson Almeida</tspan></text>
      <rect id="Retângulo_2953" data-name="Retângulo 2953" width="1408.197" height="743.422" transform="translate(0 1109.917)" fill="none" stroke="#154a5a" stroke-width="2.13"/>
      <text id="Diretoria_de_Riscos_" data-name="Diretoria de Riscos," transform="translate(755.028 744.529)" fill="#fff" font-size="27" font-family="Montserrat-SemiBold, Montserrat" font-weight="600"><tspan x="0" y="0">Diretoria de Riscos,</tspan></text>
      <text id="Auditoria" transform="translate(826.719 778.722)" fill="#fff" font-size="27" font-family="Montserrat-SemiBold, Montserrat" font-weight="600"><tspan x="0" y="0">Auditoria</tspan></text>
      <text id="e-4" data-name="e" transform="translate(793.381 811.916)" fill="#fff" font-size="26" font-family="Montserrat-SemiBold, Montserrat" font-weight="600"><tspan x="0" y="0">e</tspan></text>
      <text id="Compliance" transform="translate(818.459 812.916)" fill="#fff" font-size="27" font-family="Montserrat-Italic, Montserrat" font-style="italic"><tspan x="0" y="0">Compliance</tspan></text>
    </g>
  </g>
</svg>
