<?xml version="1.0" encoding="utf-8"?>
<!-- Generator: Adobe Illustrator 28.0.0, SVG Export Plug-In . SVG Version: 6.00 Build 0)  -->
<svg version="1.1" id="Camada_1" xmlns="http://www.w3.org/2000/svg" xmlns:xlink="http://www.w3.org/1999/xlink" x="0px" y="0px"
	 viewBox="0 0 574 131" style="enable-background:new 0 0 574 131;" xml:space="preserve">
<style type="text/css">
	.st0{enable-background:new    ;}
	.st1{fill:#FFFFFF;}
	.st2{filter:url(#O_EINSTEIN_);}
	.st3{filter:url(#NOSSA_ESTRUTURA_E_CONQUISTAS);}
</style>
<filter  id="O_EINSTEIN_">
	<feOffset  dy="3" input="SourceAlpha"></feOffset>
	<feGaussianBlur  result="blur" stdDeviation="1.5"></feGaussianBlur>
	<feFlood  flood-opacity="0.161" result="color"></feFlood>
	<feComposite  in="SourceGraphic" in2="blur" operator="out"></feComposite>
	<feComposite  in="color" operator="in"></feComposite>
	<feComposite  in2="SourceGraphic" operator="in"></feComposite>
</filter>
<filter  id="NOSSA_ESTRUTURA_E_CONQUISTAS">
	<feOffset  dy="3" input="SourceAlpha"></feOffset>
	<feGaussianBlur  result="blur-2" stdDeviation="1.5"></feGaussianBlur>
	<feFlood  flood-opacity="0.161" result="color-2"></feFlood>
	<feComposite  in="SourceGraphic" in2="blur-2" operator="out"></feComposite>
	<feComposite  in="color-2" operator="in"></feComposite>
	<feComposite  in2="SourceGraphic" operator="in"></feComposite>
</filter>
<g id="Grupo_5541" transform="translate(15029 23455)">
	<g>
		<g class="st0">
			<path class="st1" d="M-14985.2-23398.3c-4.6,4.5-10.2,6.7-17,6.7c-6.7,0-12.4-2.2-17-6.7c-4.6-4.5-6.9-10.1-6.9-16.7
				s2.3-12.3,6.9-16.7c4.6-4.5,10.2-6.7,17-6.7c6.7,0,12.4,2.2,17,6.7c4.6,4.5,6.9,10.1,6.9,16.7S-14980.6-23402.8-14985.2-23398.3z
				 M-14988.6-23415c0-4.1-1.3-7.5-3.9-10.4c-2.6-2.9-5.8-4.3-9.6-4.3s-7,1.4-9.6,4.3c-2.6,2.9-3.9,6.3-3.9,10.4
				c0,4.1,1.3,7.5,3.9,10.3s5.8,4.3,9.6,4.3s7-1.4,9.6-4.3S-14988.6-23410.9-14988.6-23415z"/>
			<path class="st1" d="M-14919.8-23437.4v9h-22.6v9.4h20.3v8.6h-20.3v9.4h23.3v9h-33.5v-45.4H-14919.8z"/>
			<path class="st1" d="M-14910.1-23437.4h10.1v45.4h-10.1V-23437.4z"/>
			<path class="st1" d="M-14856.9-23437.4h10.1v45.4h-10.1l-21.6-28.5v28.5h-10.1v-45.4h9.5l22.3,29.2V-23437.4z"/>
			<path class="st1" d="M-14825-23428.4c-1,0.8-1.5,1.9-1.5,3.2c0,1.3,0.6,2.4,1.8,3.2c1.2,0.8,3.9,1.7,8.3,2.8
				c4.3,1.1,7.7,2.7,10,4.8s3.6,5.2,3.6,9.3c0,4.1-1.5,7.4-4.6,9.9s-7.1,3.8-12.1,3.8c-7.2,0-13.7-2.7-19.4-8l6-7.4
				c4.9,4.3,9.4,6.4,13.6,6.4c1.9,0,3.3-0.4,4.4-1.2s1.6-1.9,1.6-3.2s-0.6-2.4-1.7-3.2s-3.4-1.6-6.7-2.4c-5.3-1.3-9.2-2.9-11.6-4.9
				c-2.4-2-3.7-5.2-3.7-9.5c0-4.3,1.5-7.6,4.6-10s7-3.5,11.6-3.5c3,0,6.1,0.5,9.1,1.6c3,1,5.7,2.5,7.9,4.4l-5.1,7.4
				c-3.9-3-8-4.5-12.2-4.5C-14822.7-23429.6-14824-23429.2-14825-23428.4z"/>
			<path class="st1" d="M-14775.3-23428.7v36.7h-10.1v-36.7h-12.9v-8.8h35.9v8.8H-14775.3z"/>
			<path class="st1" d="M-14722.3-23437.4v9h-22.6v9.4h20.3v8.6h-20.3v9.4h23.3v9h-33.5v-45.4H-14722.3z"/>
			<path class="st1" d="M-14712.5-23437.4h10.1v45.4h-10.1V-23437.4z"/>
			<path class="st1" d="M-14659.4-23437.4h10.1v45.4h-10.1l-21.6-28.5v28.5h-10.1v-45.4h9.5l22.3,29.2V-23437.4z"/>
		</g>
		<g transform="matrix(1, 0, 0, 1, -15029, -23455)" class="st2">
			<g class="st0">
				<path class="st1" d="M43.8,56.7c-4.6,4.5-10.2,6.7-17,6.7c-6.7,0-12.4-2.2-17-6.7C5.3,52.2,3,46.7,3,40c0-6.7,2.3-12.3,6.9-16.7
					c4.6-4.5,10.2-6.7,17-6.7c6.7,0,12.4,2.2,17,6.7c4.6,4.5,6.9,10.1,6.9,16.7C50.7,46.7,48.4,52.2,43.8,56.7z M40.4,40
					c0-4.1-1.3-7.5-3.9-10.4c-2.6-2.9-5.8-4.3-9.6-4.3c-3.8,0-7,1.4-9.6,4.3c-2.6,2.9-3.9,6.3-3.9,10.4c0,4.1,1.3,7.5,3.9,10.3
					c2.6,2.8,5.8,4.3,9.6,4.3c3.8,0,7-1.4,9.6-4.3C39.1,47.5,40.4,44.1,40.4,40z"/>
				<path class="st1" d="M109.2,17.6v9H86.6V36h20.3v8.6H86.6V54h23.3v9H76.4V17.6H109.2z"/>
				<path class="st1" d="M118.9,17.6h10.1V63h-10.1V17.6z"/>
				<path class="st1" d="M172.1,17.6h10.1V63h-10.1l-21.6-28.5V63h-10.1V17.6h9.5l22.3,29.2V17.6z"/>
				<path class="st1" d="M204,26.6c-1,0.8-1.5,1.9-1.5,3.2c0,1.3,0.6,2.4,1.8,3.2c1.2,0.8,3.9,1.7,8.3,2.8c4.3,1.1,7.7,2.7,10,4.8
					c2.4,2.1,3.6,5.2,3.6,9.3c0,4.1-1.5,7.4-4.6,9.9s-7.1,3.8-12.1,3.8c-7.2,0-13.7-2.7-19.4-8l6-7.4c4.9,4.3,9.4,6.4,13.6,6.4
					c1.9,0,3.3-0.4,4.4-1.2c1.1-0.8,1.6-1.9,1.6-3.2s-0.6-2.4-1.7-3.2c-1.1-0.8-3.4-1.6-6.7-2.4c-5.3-1.3-9.2-2.9-11.6-4.9
					c-2.4-2-3.7-5.2-3.7-9.5c0-4.3,1.5-7.6,4.6-10c3.1-2.3,7-3.5,11.6-3.5c3,0,6.1,0.5,9.1,1.6c3,1,5.7,2.5,7.9,4.4l-5.1,7.4
					c-3.9-3-8-4.5-12.2-4.5C206.3,25.4,205,25.8,204,26.6z"/>
				<path class="st1" d="M253.7,26.3V63h-10.1V26.3h-12.9v-8.8h35.9v8.8H253.7z"/>
				<path class="st1" d="M306.7,17.6v9h-22.6V36h20.3v8.6h-20.3V54h23.3v9H274V17.6H306.7z"/>
				<path class="st1" d="M316.5,17.6h10.1V63h-10.1V17.6z"/>
				<path class="st1" d="M369.6,17.6h10.1V63h-10.1l-21.6-28.5V63h-10.1V17.6h9.5l22.3,29.2V17.6z"/>
			</g>
		</g>
	</g>
	<g>
		<g class="st0">
			<path class="st1" d="M-15011.8-23353h4.7v21h-4.7l-10-13.1v13.1h-4.7v-21h4.4l10.3,13.5V-23353z"/>
			<path class="st1" d="M-14984.3-23334.9c-2.1,2.1-4.7,3.1-7.8,3.1c-3.1,0-5.7-1-7.8-3.1c-2.1-2.1-3.2-4.6-3.2-7.7
				c0-3.1,1.1-5.7,3.2-7.7c2.1-2.1,4.7-3.1,7.8-3.1c3.1,0,5.7,1,7.8,3.1c2.1,2.1,3.2,4.6,3.2,7.7
				C-14981.1-23339.5-14982.2-23337-14984.3-23334.9z M-14985.9-23342.6c0-1.9-0.6-3.5-1.8-4.8c-1.2-1.3-2.7-2-4.4-2s-3.2,0.7-4.4,2
				c-1.2,1.3-1.8,2.9-1.8,4.8c0,1.9,0.6,3.5,1.8,4.8c1.2,1.3,2.7,2,4.4,2s3.2-0.7,4.4-2
				C-14986.5-23339.1-14985.9-23340.7-14985.9-23342.6z"/>
			<path class="st1" d="M-14972.4-23348.8c-0.4,0.4-0.7,0.9-0.7,1.5c0,0.6,0.3,1.1,0.8,1.5s1.8,0.8,3.8,1.3c2,0.5,3.5,1.2,4.6,2.2
				s1.7,2.4,1.7,4.3s-0.7,3.4-2.1,4.6c-1.4,1.2-3.3,1.8-5.6,1.8c-3.3,0-6.3-1.2-9-3.7l2.8-3.4c2.3,2,4.4,3,6.3,3
				c0.9,0,1.5-0.2,2-0.6c0.5-0.4,0.7-0.9,0.7-1.5s-0.3-1.1-0.8-1.5c-0.5-0.4-1.5-0.7-3.1-1.1c-2.4-0.6-4.2-1.3-5.4-2.3
				c-1.1-0.9-1.7-2.4-1.7-4.4s0.7-3.5,2.1-4.6s3.2-1.6,5.4-1.6c1.4,0,2.8,0.2,4.2,0.7s2.6,1.2,3.7,2l-2.4,3.4
				c-1.8-1.4-3.7-2.1-5.6-2.1C-14971.3-23349.3-14972-23349.2-14972.4-23348.8z"/>
			<path class="st1" d="M-14953.3-23348.8c-0.5,0.4-0.7,0.9-0.7,1.5c0,0.6,0.3,1.1,0.8,1.5s1.8,0.8,3.8,1.3c2,0.5,3.5,1.2,4.6,2.2
				c1.1,1,1.6,2.4,1.6,4.3s-0.7,3.4-2.1,4.6c-1.4,1.2-3.3,1.8-5.6,1.8c-3.3,0-6.3-1.2-9-3.7l2.8-3.4c2.3,2,4.3,3,6.3,3
				c0.9,0,1.5-0.2,2-0.6s0.7-0.9,0.7-1.5s-0.3-1.1-0.8-1.5c-0.5-0.4-1.6-0.7-3.1-1.1c-2.4-0.6-4.2-1.3-5.4-2.3
				c-1.1-0.9-1.7-2.4-1.7-4.4s0.7-3.5,2.1-4.6c1.4-1.1,3.2-1.6,5.4-1.6c1.4,0,2.8,0.2,4.2,0.7c1.4,0.5,2.6,1.2,3.7,2l-2.4,3.4
				c-1.8-1.4-3.7-2.1-5.6-2.1C-14952.2-23349.3-14952.8-23349.2-14953.3-23348.8z"/>
			<path class="st1" d="M-14924.3-23332l-1.9-4.5h-8.8l-1.9,4.5h-5l9.1-21h4.5l9.1,21H-14924.3z M-14930.7-23346.7l-2.6,6.1h5.2
				L-14930.7-23346.7z"/>
			<path class="st1" d="M-14893.9-23353v4.2h-10.4v4.3h9.4v4h-9.4v4.3h10.8v4.1h-15.4v-21H-14893.9z"/>
			<path class="st1" d="M-14884.5-23348.8c-0.5,0.4-0.7,0.9-0.7,1.5c0,0.6,0.3,1.1,0.8,1.5s1.8,0.8,3.8,1.3c2,0.5,3.5,1.2,4.6,2.2
				c1.1,1,1.6,2.4,1.6,4.3s-0.7,3.4-2.1,4.6c-1.4,1.2-3.3,1.8-5.6,1.8c-3.3,0-6.3-1.2-9-3.7l2.8-3.4c2.3,2,4.3,3,6.3,3
				c0.9,0,1.5-0.2,2-0.6s0.7-0.9,0.7-1.5s-0.3-1.1-0.8-1.5c-0.5-0.4-1.6-0.7-3.1-1.1c-2.4-0.6-4.2-1.3-5.4-2.3
				c-1.1-0.9-1.7-2.4-1.7-4.4s0.7-3.5,2.1-4.6c1.4-1.1,3.2-1.6,5.4-1.6c1.4,0,2.8,0.2,4.2,0.7c1.4,0.5,2.6,1.2,3.7,2l-2.4,3.4
				c-1.8-1.4-3.7-2.1-5.6-2.1C-14883.4-23349.3-14884-23349.2-14884.5-23348.8z"/>
			<path class="st1" d="M-14861.5-23348.9v16.9h-4.7v-16.9h-5.9v-4h16.6v4H-14861.5z"/>
			<path class="st1" d="M-14835.2-23346c0,3.4-1.3,5.5-4,6.5l5.3,7.5h-5.8l-4.6-6.7h-3.2v6.7h-4.7v-21h8c3.3,0,5.6,0.5,7,1.6
				C-14835.9-23350.2-14835.2-23348.4-14835.2-23346z M-14840.8-23343.5c0.6-0.5,0.9-1.3,0.9-2.5c0-1.1-0.3-1.9-0.9-2.3
				s-1.6-0.6-3.1-0.6h-3.5v6.2h3.4C-14842.5-23342.7-14841.4-23343-14840.8-23343.5z"/>
			<path class="st1" d="M-14824.8-23337.4c0.8,1,1.8,1.5,3.1,1.5c1.3,0,2.4-0.5,3.1-1.5c0.8-1,1.2-2.3,1.2-4v-11.6h4.7v11.7
				c0,3-0.8,5.4-2.5,7c-1.7,1.6-3.8,2.4-6.5,2.4c-2.6,0-4.8-0.8-6.5-2.5c-1.7-1.6-2.5-4-2.5-7v-11.7h4.7v11.6
				C-14826-23339.7-14825.6-23338.4-14824.8-23337.4z"/>
			<path class="st1" d="M-14799-23348.9v16.9h-4.7v-16.9h-5.9v-4h16.6v4H-14799z"/>
			<path class="st1" d="M-14784.1-23337.4c0.8,1,1.8,1.5,3.1,1.5c1.3,0,2.4-0.5,3.1-1.5c0.8-1,1.2-2.3,1.2-4v-11.6h4.7v11.7
				c0,3-0.8,5.4-2.5,7c-1.7,1.6-3.8,2.4-6.5,2.4c-2.6,0-4.8-0.8-6.5-2.5c-1.7-1.6-2.5-4-2.5-7v-11.7h4.7v11.6
				C-14785.2-23339.7-14784.8-23338.4-14784.1-23337.4z"/>
			<path class="st1" d="M-14750.1-23346c0,3.4-1.3,5.5-4,6.5l5.3,7.5h-5.8l-4.7-6.7h-3.2v6.7h-4.7v-21h8c3.3,0,5.6,0.5,7,1.6
				C-14750.8-23350.2-14750.1-23348.4-14750.1-23346z M-14755.7-23343.5c0.6-0.5,0.9-1.3,0.9-2.5c0-1.1-0.3-1.9-0.9-2.3
				c-0.6-0.4-1.6-0.6-3.1-0.6h-3.5v6.2h3.4C-14757.4-23342.7-14756.3-23343-14755.7-23343.5z"/>
			<path class="st1" d="M-14730.3-23332l-2-4.5h-8.8l-1.9,4.5h-5l9.1-21h4.5l9.1,21H-14730.3z M-14736.7-23346.7l-2.6,6.1h5.2
				L-14736.7-23346.7z"/>
			<path class="st1" d="M-14699.9-23353v4.2h-10.4v4.3h9.4v4h-9.4v4.3h10.8v4.1h-15.4v-21H-14699.9z"/>
			<path class="st1" d="M-14677.8-23336.1c2.3,0,4.2-0.9,5.6-2.7l3,3.1c-2.4,2.7-5.2,4-8.4,4c-3.2,0-5.9-1-8-3.1s-3.1-4.6-3.1-7.7
				c0-3.1,1.1-5.7,3.2-7.8c2.1-2.1,4.7-3.1,7.8-3.1c3.4,0,6.3,1.3,8.6,3.9l-2.9,3.3c-1.5-1.8-3.3-2.8-5.5-2.8
				c-1.8,0-3.3,0.6-4.5,1.7c-1.2,1.1-1.9,2.7-1.9,4.6s0.6,3.5,1.8,4.7S-14679.5-23336.1-14677.8-23336.1z"/>
			<path class="st1" d="M-14648.3-23334.9c-2.1,2.1-4.7,3.1-7.8,3.1c-3.1,0-5.7-1-7.8-3.1c-2.1-2.1-3.2-4.6-3.2-7.7
				c0-3.1,1.1-5.7,3.2-7.7c2.1-2.1,4.7-3.1,7.8-3.1c3.1,0,5.7,1,7.8,3.1c2.1,2.1,3.2,4.6,3.2,7.7
				C-14645.1-23339.5-14646.2-23337-14648.3-23334.9z M-14649.9-23342.6c0-1.9-0.6-3.5-1.8-4.8c-1.2-1.3-2.7-2-4.4-2s-3.2,0.7-4.4,2
				c-1.2,1.3-1.8,2.9-1.8,4.8c0,1.9,0.6,3.5,1.8,4.8c1.2,1.3,2.7,2,4.4,2s3.2-0.7,4.4-2
				C-14650.5-23339.1-14649.9-23340.7-14649.9-23342.6z"/>
			<path class="st1" d="M-14626.5-23353h4.7v21h-4.7l-10-13.1v13.1h-4.7v-21h4.4l10.3,13.5V-23353z"/>
			<path class="st1" d="M-14595.8-23342.6c0,2.2-0.6,4.1-1.7,5.9s-2.6,3-4.5,3.9c0.2,0.3,0.5,0.6,0.9,0.8c0.4,0.2,0.8,0.3,1.2,0.3
				s0.8-0.1,1.2-0.2c0.4-0.1,0.7-0.3,1-0.5c0.5-0.4,0.9-0.8,1.1-1.2l2.4,2.9c-1.7,1.8-3.9,2.7-6.5,2.7c-1.2,0-2.4-0.3-3.5-1
				s-2.1-1.6-2.7-2.8c-3.1,0-5.7-1-7.8-3.1c-2.1-2.1-3.2-4.6-3.2-7.7c0-3.1,1.1-5.7,3.2-7.7c2.1-2.1,4.7-3.1,7.8-3.1
				c3.1,0,5.7,1,7.8,3.1C-14596.9-23348.3-14595.8-23345.7-14595.8-23342.6z M-14600.6-23342.6c0-1.9-0.6-3.5-1.8-4.8
				c-1.2-1.3-2.7-2-4.4-2s-3.2,0.7-4.4,2s-1.8,2.9-1.8,4.8c0,1.9,0.6,3.5,1.8,4.8c1.2,1.3,2.7,2,4.4,2s3.2-0.7,4.4-2
				C-14601.2-23339.1-14600.6-23340.7-14600.6-23342.6z"/>
			<path class="st1" d="M-14586.3-23337.4c0.8,1,1.8,1.5,3.2,1.5s2.4-0.5,3.1-1.5c0.8-1,1.2-2.3,1.2-4v-11.6h4.7v11.7
				c0,3-0.8,5.4-2.5,7c-1.7,1.6-3.8,2.4-6.5,2.4s-4.8-0.8-6.5-2.5c-1.7-1.6-2.5-4-2.5-7v-11.7h4.7v11.6
				C-14587.5-23339.7-14587.1-23338.4-14586.3-23337.4z"/>
			<path class="st1" d="M-14569.3-23353h4.7v21h-4.7V-23353z"/>
			<path class="st1" d="M-14554.6-23348.8c-0.4,0.4-0.7,0.9-0.7,1.5c0,0.6,0.3,1.1,0.8,1.5s1.8,0.8,3.8,1.3c2,0.5,3.5,1.2,4.6,2.2
				s1.7,2.4,1.7,4.3s-0.7,3.4-2.1,4.6c-1.4,1.2-3.3,1.8-5.6,1.8c-3.3,0-6.3-1.2-9-3.7l2.8-3.4c2.3,2,4.4,3,6.3,3
				c0.9,0,1.5-0.2,2-0.6c0.5-0.4,0.7-0.9,0.7-1.5s-0.3-1.1-0.8-1.5c-0.5-0.4-1.5-0.7-3.1-1.1c-2.4-0.6-4.2-1.3-5.4-2.3
				c-1.1-0.9-1.7-2.4-1.7-4.4s0.7-3.5,2.1-4.6s3.2-1.6,5.4-1.6c1.4,0,2.8,0.2,4.2,0.7s2.6,1.2,3.7,2l-2.4,3.4
				c-1.8-1.4-3.7-2.1-5.6-2.1C-14553.5-23349.3-14554.1-23349.2-14554.6-23348.8z"/>
			<path class="st1" d="M-14531.6-23348.9v16.9h-4.7v-16.9h-5.9v-4h16.6v4H-14531.6z"/>
			<path class="st1" d="M-14508.9-23332l-2-4.5h-8.8l-1.9,4.5h-5l9.1-21h4.5l9.1,21H-14508.9z M-14515.2-23346.7l-2.6,6.1h5.2
				L-14515.2-23346.7z"/>
			<path class="st1" d="M-14496.7-23348.8c-0.4,0.4-0.7,0.9-0.7,1.5c0,0.6,0.3,1.1,0.8,1.5s1.8,0.8,3.8,1.3c2,0.5,3.5,1.2,4.6,2.2
				s1.7,2.4,1.7,4.3s-0.7,3.4-2.1,4.6c-1.4,1.2-3.3,1.8-5.6,1.8c-3.3,0-6.3-1.2-9-3.7l2.8-3.4c2.3,2,4.4,3,6.3,3
				c0.9,0,1.5-0.2,2-0.6c0.5-0.4,0.7-0.9,0.7-1.5s-0.3-1.1-0.8-1.5c-0.5-0.4-1.5-0.7-3.1-1.1c-2.4-0.6-4.2-1.3-5.4-2.3
				c-1.1-0.9-1.7-2.4-1.7-4.4s0.7-3.5,2.1-4.6s3.2-1.6,5.4-1.6c1.4,0,2.8,0.2,4.2,0.7s2.6,1.2,3.7,2l-2.4,3.4
				c-1.8-1.4-3.7-2.1-5.6-2.1C-14495.6-23349.3-14496.3-23349.2-14496.7-23348.8z"/>
		</g>
		<g transform="matrix(1, 0, 0, 1, -15029, -23455)" class="st3">
			<g class="st0">
				<path class="st1" d="M17.2,102h4.7v21h-4.7l-10-13.1V123H2.6v-21H7l10.3,13.5V102z"/>
				<path class="st1" d="M44.7,120.1c-2.1,2.1-4.7,3.1-7.8,3.1c-3.1,0-5.7-1-7.8-3.1c-2.1-2.1-3.2-4.6-3.2-7.7
					c0-3.1,1.1-5.7,3.2-7.7c2.1-2.1,4.7-3.1,7.8-3.1c3.1,0,5.7,1,7.8,3.1c2.1,2.1,3.2,4.6,3.2,7.7C47.9,115.5,46.8,118,44.7,120.1z
					 M43.1,112.4c0-1.9-0.6-3.5-1.8-4.8c-1.2-1.3-2.7-2-4.4-2s-3.2,0.7-4.4,2c-1.2,1.3-1.8,2.9-1.8,4.8c0,1.9,0.6,3.5,1.8,4.8
					c1.2,1.3,2.7,2,4.4,2s3.2-0.7,4.4-2C42.5,115.9,43.1,114.3,43.1,112.4z"/>
				<path class="st1" d="M56.6,106.2c-0.4,0.4-0.7,0.9-0.7,1.5c0,0.6,0.3,1.1,0.8,1.5c0.6,0.4,1.8,0.8,3.8,1.3s3.5,1.2,4.6,2.2
					c1.1,1,1.6,2.4,1.6,4.3s-0.7,3.4-2.1,4.6c-1.4,1.2-3.3,1.8-5.6,1.8c-3.3,0-6.3-1.2-9-3.7l2.8-3.4c2.3,2,4.4,3,6.3,3
					c0.9,0,1.5-0.2,2-0.6c0.5-0.4,0.7-0.9,0.7-1.5s-0.3-1.1-0.8-1.5c-0.5-0.4-1.6-0.7-3.1-1.1c-2.4-0.6-4.2-1.3-5.4-2.3
					c-1.1-0.9-1.7-2.4-1.7-4.4s0.7-3.5,2.1-4.6c1.4-1.1,3.2-1.6,5.4-1.6c1.4,0,2.8,0.2,4.2,0.7c1.4,0.5,2.6,1.2,3.7,2l-2.4,3.4
					c-1.8-1.4-3.7-2.1-5.6-2.1C57.7,105.7,57,105.8,56.6,106.2z"/>
				<path class="st1" d="M75.7,106.2c-0.4,0.4-0.7,0.9-0.7,1.5c0,0.6,0.3,1.1,0.8,1.5c0.6,0.4,1.8,0.8,3.8,1.3s3.5,1.2,4.6,2.2
					c1.1,1,1.6,2.4,1.6,4.3s-0.7,3.4-2.1,4.6c-1.4,1.2-3.3,1.8-5.6,1.8c-3.3,0-6.3-1.2-9-3.7l2.8-3.4c2.3,2,4.4,3,6.3,3
					c0.9,0,1.5-0.2,2-0.6c0.5-0.4,0.7-0.9,0.7-1.5s-0.3-1.1-0.8-1.5c-0.5-0.4-1.6-0.7-3.1-1.1c-2.4-0.6-4.2-1.3-5.4-2.3
					c-1.1-0.9-1.7-2.4-1.7-4.4s0.7-3.5,2.1-4.6c1.4-1.1,3.2-1.6,5.4-1.6c1.4,0,2.8,0.2,4.2,0.7c1.4,0.5,2.6,1.2,3.7,2l-2.4,3.4
					c-1.8-1.4-3.7-2.1-5.6-2.1C76.8,105.7,76.2,105.8,75.7,106.2z"/>
				<path class="st1" d="M104.7,123l-2-4.5h-8.8L92,123h-5l9.1-21h4.5l9.1,21H104.7z M98.3,108.3l-2.6,6.1h5.2L98.3,108.3z"/>
				<path class="st1" d="M135.1,102v4.2h-10.4v4.3h9.4v4h-9.4v4.4h10.8v4.1H120v-21H135.1z"/>
				<path class="st1" d="M144.5,106.2c-0.4,0.4-0.7,0.9-0.7,1.5c0,0.6,0.3,1.1,0.8,1.5c0.6,0.4,1.8,0.8,3.8,1.3s3.5,1.2,4.6,2.2
					c1.1,1,1.6,2.4,1.6,4.3s-0.7,3.4-2.1,4.6c-1.4,1.2-3.3,1.8-5.6,1.8c-3.3,0-6.3-1.2-9-3.7l2.8-3.4c2.3,2,4.4,3,6.3,3
					c0.9,0,1.5-0.2,2-0.6c0.5-0.4,0.7-0.9,0.7-1.5s-0.3-1.1-0.8-1.5c-0.5-0.4-1.6-0.7-3.1-1.1c-2.4-0.6-4.2-1.3-5.4-2.3
					c-1.1-0.9-1.7-2.4-1.7-4.4s0.7-3.5,2.1-4.6c1.4-1.1,3.2-1.6,5.4-1.6c1.4,0,2.8,0.2,4.2,0.7c1.4,0.5,2.6,1.2,3.7,2l-2.4,3.4
					c-1.8-1.4-3.7-2.1-5.6-2.1C145.6,105.7,145,105.8,144.5,106.2z"/>
				<path class="st1" d="M167.5,106.1V123h-4.7v-16.9h-5.9v-4h16.6v4H167.5z"/>
				<path class="st1" d="M193.8,109c0,3.4-1.3,5.5-4,6.5l5.3,7.5h-5.8l-4.6-6.7h-3.2v6.7h-4.7v-21h7.9c3.3,0,5.6,0.5,7,1.6
					C193.1,104.8,193.8,106.5,193.8,109z M188.2,111.5c0.6-0.5,0.9-1.3,0.9-2.5s-0.3-1.9-0.9-2.3s-1.6-0.6-3.1-0.6h-3.5v6.2h3.4
					C186.5,112.3,187.6,112,188.2,111.5z"/>
				<path class="st1" d="M204.2,117.6c0.8,1,1.8,1.5,3.1,1.5c1.3,0,2.4-0.5,3.1-1.5c0.8-1,1.2-2.3,1.2-4V102h4.7v11.7
					c0,3-0.8,5.4-2.5,7c-1.7,1.6-3.8,2.4-6.5,2.4s-4.8-0.8-6.5-2.5c-1.7-1.6-2.5-4-2.5-7V102h4.7v11.6
					C203,115.3,203.4,116.6,204.2,117.6z"/>
				<path class="st1" d="M230,106.1V123h-4.7v-16.9h-5.9v-4H236v4H230z"/>
				<path class="st1" d="M244.9,117.6c0.8,1,1.8,1.5,3.1,1.5c1.3,0,2.4-0.5,3.1-1.5c0.8-1,1.2-2.3,1.2-4V102h4.7v11.7
					c0,3-0.8,5.4-2.5,7c-1.7,1.6-3.8,2.4-6.5,2.4s-4.8-0.8-6.5-2.5c-1.7-1.6-2.5-4-2.5-7V102h4.7v11.6
					C243.8,115.3,244.2,116.6,244.9,117.6z"/>
				<path class="st1" d="M278.9,109c0,3.4-1.3,5.5-4,6.5l5.3,7.5h-5.8l-4.6-6.7h-3.2v6.7h-4.7v-21h7.9c3.3,0,5.6,0.5,7,1.6
					C278.2,104.8,278.9,106.5,278.9,109z M273.3,111.5c0.6-0.5,0.9-1.3,0.9-2.5s-0.3-1.9-0.9-2.3s-1.6-0.6-3.1-0.6h-3.5v6.2h3.4
					C271.6,112.3,272.7,112,273.3,111.5z"/>
				<path class="st1" d="M298.7,123l-2-4.5h-8.8L286,123h-5l9.1-21h4.5l9.1,21H298.7z M292.3,108.3l-2.6,6.1h5.2L292.3,108.3z"/>
				<path class="st1" d="M329.1,102v4.2h-10.4v4.3h9.4v4h-9.4v4.4h10.8v4.1H314v-21H329.1z"/>
				<path class="st1" d="M351.2,118.9c2.3,0,4.2-0.9,5.6-2.7l3,3.1c-2.4,2.7-5.2,4-8.4,4c-3.2,0-5.9-1-8-3.1s-3.1-4.6-3.1-7.7
					c0-3.1,1.1-5.7,3.2-7.8c2.1-2.1,4.7-3.1,7.8-3.1c3.4,0,6.3,1.3,8.6,3.9l-2.9,3.3c-1.5-1.8-3.3-2.8-5.5-2.8
					c-1.8,0-3.3,0.6-4.5,1.7s-1.9,2.7-1.9,4.6c0,2,0.6,3.5,1.8,4.7C348.1,118.3,349.5,118.9,351.2,118.9z"/>
				<path class="st1" d="M380.7,120.1c-2.1,2.1-4.7,3.1-7.8,3.1c-3.1,0-5.7-1-7.8-3.1c-2.1-2.1-3.2-4.6-3.2-7.7
					c0-3.1,1.1-5.7,3.2-7.7c2.1-2.1,4.7-3.1,7.8-3.1c3.1,0,5.7,1,7.8,3.1c2.1,2.1,3.2,4.6,3.2,7.7
					C383.9,115.5,382.8,118,380.7,120.1z M379.1,112.4c0-1.9-0.6-3.5-1.8-4.8c-1.2-1.3-2.7-2-4.4-2s-3.2,0.7-4.4,2
					c-1.2,1.3-1.8,2.9-1.8,4.8c0,1.9,0.6,3.5,1.8,4.8c1.2,1.3,2.7,2,4.4,2s3.2-0.7,4.4-2C378.5,115.9,379.1,114.3,379.1,112.4z"/>
				<path class="st1" d="M402.5,102h4.7v21h-4.7l-10-13.1V123h-4.7v-21h4.4l10.3,13.5V102z"/>
				<path class="st1" d="M433.2,112.4c0,2.2-0.6,4.1-1.7,5.9s-2.6,3-4.5,3.9c0.2,0.3,0.5,0.6,0.9,0.8s0.8,0.3,1.2,0.3
					s0.8-0.1,1.2-0.2c0.4-0.1,0.7-0.3,1-0.5c0.5-0.4,0.9-0.8,1.1-1.2l2.4,2.9c-1.7,1.8-3.9,2.7-6.5,2.7c-1.2,0-2.4-0.3-3.5-1
					s-2.1-1.6-2.7-2.8c-3.1,0-5.7-1-7.8-3.1c-2.1-2.1-3.2-4.6-3.2-7.7c0-3.1,1.1-5.7,3.2-7.7c2.1-2.1,4.7-3.1,7.8-3.1
					c3.1,0,5.7,1,7.8,3.1C432.1,106.7,433.2,109.3,433.2,112.4z M428.4,112.4c0-1.9-0.6-3.5-1.8-4.8c-1.2-1.3-2.7-2-4.4-2
					s-3.2,0.7-4.4,2c-1.2,1.3-1.8,2.9-1.8,4.8c0,1.9,0.6,3.5,1.8,4.8c1.2,1.3,2.7,2,4.4,2s3.2-0.7,4.4-2
					C427.8,115.9,428.4,114.3,428.4,112.4z"/>
				<path class="st1" d="M442.7,117.6c0.8,1,1.8,1.5,3.2,1.5s2.4-0.5,3.1-1.5c0.8-1,1.2-2.3,1.2-4V102h4.7v11.7c0,3-0.8,5.4-2.5,7
					c-1.7,1.6-3.8,2.4-6.5,2.4s-4.8-0.8-6.5-2.5c-1.7-1.6-2.5-4-2.5-7V102h4.7v11.6C441.5,115.3,441.9,116.6,442.7,117.6z"/>
				<path class="st1" d="M459.7,102h4.7v21h-4.7V102z"/>
				<path class="st1" d="M474.4,106.2c-0.4,0.4-0.7,0.9-0.7,1.5c0,0.6,0.3,1.1,0.8,1.5c0.6,0.4,1.8,0.8,3.8,1.3s3.5,1.2,4.6,2.2
					c1.1,1,1.7,2.4,1.7,4.3s-0.7,3.4-2.1,4.6s-3.3,1.8-5.6,1.8c-3.3,0-6.3-1.2-9-3.7l2.8-3.4c2.3,2,4.4,3,6.3,3c0.9,0,1.5-0.2,2-0.6
					c0.5-0.4,0.7-0.9,0.7-1.5s-0.3-1.1-0.8-1.5c-0.5-0.4-1.5-0.7-3.1-1.1c-2.4-0.6-4.2-1.3-5.4-2.3c-1.1-0.9-1.7-2.4-1.7-4.4
					s0.7-3.5,2.1-4.6s3.2-1.6,5.4-1.6c1.4,0,2.8,0.2,4.2,0.7c1.4,0.5,2.6,1.2,3.7,2l-2.4,3.4c-1.8-1.4-3.7-2.1-5.6-2.1
					C475.5,105.7,474.9,105.8,474.4,106.2z"/>
				<path class="st1" d="M497.4,106.1V123h-4.7v-16.9h-5.9v-4h16.6v4H497.4z"/>
				<path class="st1" d="M520.1,123l-2-4.5h-8.8l-1.9,4.5h-5l9.1-21h4.5l9.1,21H520.1z M513.8,108.3l-2.6,6.1h5.2L513.8,108.3z"/>
				<path class="st1" d="M532.3,106.2c-0.4,0.4-0.7,0.9-0.7,1.5c0,0.6,0.3,1.1,0.8,1.5c0.6,0.4,1.8,0.8,3.8,1.3s3.5,1.2,4.6,2.2
					c1.1,1,1.7,2.4,1.7,4.3s-0.7,3.4-2.1,4.6s-3.3,1.8-5.6,1.8c-3.3,0-6.3-1.2-9-3.7l2.8-3.4c2.3,2,4.4,3,6.3,3c0.9,0,1.5-0.2,2-0.6
					c0.5-0.4,0.7-0.9,0.7-1.5s-0.3-1.1-0.8-1.5c-0.5-0.4-1.5-0.7-3.1-1.1c-2.4-0.6-4.2-1.3-5.4-2.3c-1.1-0.9-1.7-2.4-1.7-4.4
					s0.7-3.5,2.1-4.6s3.2-1.6,5.4-1.6c1.4,0,2.8,0.2,4.2,0.7c1.4,0.5,2.6,1.2,3.7,2l-2.4,3.4c-1.8-1.4-3.7-2.1-5.6-2.1
					C533.4,105.7,532.7,105.8,532.3,106.2z"/>
			</g>
		</g>
	</g>
</g>
</svg>
