<svg xmlns="http://www.w3.org/2000/svg" xmlns:xlink="http://www.w3.org/1999/xlink" width="1115" height="581" viewBox="0 0 1115 581">
  <defs>
    <filter id="Retângulo_3003">
      <feOffset dy="3" input="SourceAlpha"/>
      <feGaussianBlur stdDeviation="3" result="blur"/>
      <feFlood flood-opacity="0.161" result="color"/>
      <feComposite operator="out" in="SourceGraphic" in2="blur"/>
      <feComposite operator="in" in="color"/>
      <feComposite operator="in" in2="SourceGraphic"/>
    </filter>
    <linearGradient id="linear-gradient" x1="0.56" x2="0.749" gradientUnits="objectBoundingBox">
      <stop offset="0" stop-color="#fff"/>
      <stop offset="1" stop-color="gray"/>
    </linearGradient>
  </defs>
  <g id="Grupo_5572" data-name="Grupo 5572" transform="translate(-387.5 -10122.5)">
    <g data-type="innerShadowGroup">
      <rect id="Retângulo_3003-2" data-name="Retângulo 3003" width="1114" height="580" rx="30" transform="translate(388 10123)" fill="#1b1f45"/>
      <g transform="matrix(1, 0, 0, 1, 387.5, 10122.5)" filter="url(#Retângulo_3003)">
        <rect id="Retângulo_3003-3" data-name="Retângulo 3003" width="1114" height="580" rx="30" transform="translate(0.5 0.5)" fill="#fff"/>
      </g>
      <rect id="Retângulo_3003-4" data-name="Retângulo 3003" width="1114" height="580" rx="30" transform="translate(388 10123)" fill="none" stroke="#707070" stroke-width="1"/>
    </g>
    <path id="Retângulo_3005" data-name="Retângulo 3005" d="M10,0H167a30,30,0,0,1,30,30V260a30,30,0,0,1-30,30H20A20,20,0,0,1,0,270V10A10,10,0,0,1,10,0Z" transform="translate(405 10395)" stroke="#1b1f45" stroke-width="1" fill="url(#linear-gradient)"/>
    <path id="Retângulo_3004" data-name="Retângulo 3004" d="M20,0H167a30,30,0,0,1,30,30V134a30,30,0,0,1-30,30H10A10,10,0,0,1,0,154V20A20,20,0,0,1,20,0Z" transform="translate(405 10231)" stroke="#1b1f45" stroke-width="1" fill="url(#linear-gradient)"/>
    <g id="Grupo_4513" data-name="Grupo 4513">
      <path id="Retângulo_3002" data-name="Retângulo 3002" d="M0,0H240a20,20,0,0,1,20,20V434a20,20,0,0,1-20,20H0a0,0,0,0,1,0,0V0A0,0,0,0,1,0,0Z" transform="translate(1225 10231)" fill="#004f81" stroke="#fff" stroke-width="1"/>
      <path id="Retângulo_3000" data-name="Retângulo 3000" d="M20,0H302a0,0,0,0,1,0,0V164a0,0,0,0,1,0,0H0a0,0,0,0,1,0,0V20A20,20,0,0,1,20,0Z" transform="translate(536 10231)" fill="#004f81" stroke="#fff" stroke-width="1"/>
      <rect id="Retângulo_3001" data-name="Retângulo 3001" width="387" height="164" transform="translate(838 10231)" fill="#004f81" stroke="#fff" stroke-width="1"/>
    </g>
    <rect id="Retângulo_2992" data-name="Retângulo 2992" width="302" height="80" transform="translate(536 10525)" fill="#62c9ce" stroke="#fff" stroke-width="1"/>
    <rect id="Retângulo_2995" data-name="Retângulo 2995" width="387" height="80" transform="translate(838 10525)" fill="#62c9ce" stroke="#fff" stroke-width="1"/>
    <path id="Retângulo_2993" data-name="Retângulo 2993" d="M0,0H302a0,0,0,0,1,0,0V80a0,0,0,0,1,0,0H20A20,20,0,0,1,0,60V0A0,0,0,0,1,0,0Z" transform="translate(536 10605)" fill="#62c9ce" stroke="#fff" stroke-width="1"/>
    <rect id="Retângulo_2994" data-name="Retângulo 2994" width="387" height="80" transform="translate(838 10605)" fill="#62c9ce" stroke="#fff" stroke-width="1"/>
    <g id="Grupo_4514" data-name="Grupo 4514">
      <rect id="Retângulo_2997" data-name="Retângulo 2997" width="302" height="130" transform="translate(536 10395)" fill="#00a4e1" stroke="#fff" stroke-width="1"/>
      <rect id="Retângulo_2998" data-name="Retângulo 2998" width="387" height="130" transform="translate(838 10395)" fill="#00a4e1" stroke="#fff" stroke-width="1"/>
      <path id="Retângulo_2999" data-name="Retângulo 2999" d="M0,0H223a20,20,0,0,1,20,20V270a20,20,0,0,1-20,20H0a0,0,0,0,1,0,0V0A0,0,0,0,1,0,0Z" transform="translate(1225 10395)" fill="#00a4e1" stroke="#fff" stroke-width="1"/>
    </g>
    <path id="Retângulo_2996" data-name="Retângulo 2996" d="M0,0H208a20,20,0,0,1,20,20V140a20,20,0,0,1-20,20H0a0,0,0,0,1,0,0V0A0,0,0,0,1,0,0Z" transform="translate(1225 10525)" fill="#62c9ce" stroke="#fff" stroke-width="1"/>
    <text id="Componentes_da_Remuneração" data-name="Componentes da Remuneração" transform="translate(701 10174)" fill="#fff" font-size="30" font-family="Montserrat-Regular, Montserrat"><tspan x="0" y="0">Componentes da Remuneração</tspan></text>
    <text id="Ambiente_de_Trabalho_Carreira_Desenvolvimento_Qualidade_de_Vida_Infraestrutura" data-name="Ambiente de Trabalho
Carreira
Desenvolvimento
Qualidade de Vida
Infraestrutura" transform="translate(565 10272)" fill="#fff" font-size="20" font-family="Montserrat-Regular, Montserrat"><tspan x="0" y="0">Ambiente de Trabalho</tspan><tspan x="0" y="24">Carreira</tspan><tspan x="0" y="48">Desenvolvimento</tspan><tspan x="0" y="72">Qualidade de Vida</tspan><tspan x="0" y="96">Infraestrutura</tspan></text>
    <text id="Alimentação_Transporte_Saúde_Seguro" data-name="Alimentação
Transporte
Saúde 
Seguro" transform="translate(565 10430)" fill="#fff" font-size="20" font-family="Montserrat-Regular, Montserrat"><tspan x="0" y="0">Alimentação</tspan><tspan x="0" y="24">Transporte</tspan><tspan x="0" y="48">Saúde </tspan><tspan x="0" y="72">Seguro</tspan></text>
    <text id="Remuneração_Variável" data-name="Remuneração Variável" transform="translate(565 10572)" fill="#fff" font-size="20" font-family="Montserrat-Regular, Montserrat"><tspan x="0" y="0">Remuneração Variável</tspan></text>
    <text id="Cultura_e_Clima_Organizacional" data-name="Cultura e Clima Organizacional" transform="translate(869 10301)" fill="#fff" font-size="20" font-family="Montserrat-Regular, Montserrat"><tspan x="0" y="19">Cultura e Clima Organizacional</tspan></text>
    <text id="Benefícios" transform="translate(869 10447)" fill="#fff" font-size="20" font-family="Montserrat-Regular, Montserrat"><tspan x="0" y="19">Benefícios</tspan></text>
    <text id="Incentivo_a_curto_prazo" data-name="Incentivo a curto prazo" transform="translate(869 10553)" fill="#fff" font-size="20" font-family="Montserrat-Regular, Montserrat"><tspan x="0" y="19">Incentivo a curto prazo</tspan></text>
    <text id="Recompensa_Total" data-name="Recompensa Total" transform="translate(1253 10301)" fill="#fff" font-size="20" font-family="Montserrat-Regular, Montserrat"><tspan x="0" y="19">Recompensa </tspan><tspan x="0" y="43">Total</tspan></text>
    <text id="Remuneração_Total" data-name="Remuneração Total" transform="translate(1253 10467)" fill="#fff" font-size="20" font-family="Montserrat-Regular, Montserrat"><tspan x="0" y="0">Remuneração Total</tspan></text>
    <text id="Total_em_Dinheiro" data-name="Total em Dinheiro" transform="translate(1253 10612)" fill="#fff" font-size="20" font-family="Montserrat-Regular, Montserrat"><tspan x="0" y="0">Total em Dinheiro</tspan></text>
    <text id="Salário_Base" data-name="Salário Base" transform="translate(565 10652)" fill="#fff" font-size="20" font-family="Montserrat-Regular, Montserrat"><tspan x="0" y="0">Salário Base</tspan></text>
    <text id="Base_em_Dinheiro" data-name="Base em Dinheiro" transform="translate(869 10633)" fill="#fff" font-size="20" font-family="Montserrat-Regular, Montserrat"><tspan x="0" y="19">Base em Dinheiro</tspan></text>
  </g>
</svg>
