<?xml version="1.0" encoding="utf-8"?>
<!-- Generator: Adobe Illustrator 28.0.0, SVG Export Plug-In . SVG Version: 6.00 Build 0)  -->
<svg version="1.1" id="Camada_1" xmlns:serif="http://www.serif.com/"
	 xmlns="http://www.w3.org/2000/svg" xmlns:xlink="http://www.w3.org/1999/xlink" x="0px" y="0px" viewBox="0 0 537 768"
	 style="enable-background:new 0 0 537 768;" xml:space="preserve">
<style type="text/css">
	.st0{fill:#00FFCD;}
</style>
<g transform="matrix(1,0,0,1,-15783.5,-14499.9)">
	<g>
		<g transform="matrix(1,0,0,1,15120,14320.1)">
			<g transform="matrix(1,0,0,-1,663.47,330.246)">
				<path class="st0" d="M531.3-348.5c0-147.2-117.9-266.3-263.4-266.3c-145.6,0-263.4,119-263.4,266.3
					c0,166.1,149.7,230.2,219.7,466.1c6.7,22.2,25.1,33.1,42.4,33.1c20.2,0,39.2-11.2,45.2-33.1C382-119.3,531.3-181.3,531.3-348.5
					 M483.4-348.5c0,72.7-34.4,121.7-81.7,189.6c-43.8,62.3-98,139.7-133.8,255.8C232.1-18.8,178-96.1,134.5-158.8
					C86.8-227,52.3-276.2,52.3-348.5c0-120.5,96.7-218.4,215.5-218.4C386.7-566.9,483.4-469,483.4-348.5 M291.8-495.1
					c0-13.3-10.7-23.9-24-23.9c-92.4,0-167.6,73.8-167.6,166.1c0,13.3,10.7,23.9,24,23.9s23.9-10.7,23.9-23.9
					c0-64.6,53.7-118.3,119.7-118.3C281.2-471.2,291.8-481.9,291.8-495.1"/>
			</g>
			<g transform="matrix(1,0,0,-1,698,265)">
				<path class="st0" d="M170.9-297.3c1.7,0,3.3-0.2,5-0.5c1.6-0.3,3.2-0.8,4.8-1.4c1.5-0.6,3-1.4,4.4-2.3s2.7-2,3.9-3.2
					s2.2-2.5,3.2-3.9c0.9-1.4,1.7-2.9,2.3-4.4s1.1-3.1,1.4-4.8c0.3-1.6,0.5-3.3,0.5-5s-0.2-3.3-0.5-5c-0.3-1.6-0.8-3.2-1.4-4.8
					c-0.6-1.5-1.4-3-2.3-4.4c-0.9-1.4-2-2.7-3.2-3.9c-1.2-1.2-2.5-2.2-3.9-3.2c-1.4-0.9-2.9-1.7-4.4-2.3c-1.5-0.6-3.1-1.1-4.8-1.4
					c-1.6-0.3-3.3-0.5-5-0.5s-3.3,0.2-5,0.5c-1.6,0.3-3.2,0.8-4.8,1.4c-1.5,0.6-3,1.4-4.4,2.3s-2.7,2-3.9,3.2s-2.2,2.5-3.2,3.9
					c-0.9,1.4-1.7,2.9-2.3,4.4s-1.1,3.1-1.4,4.8c-0.3,1.6-0.5,3.3-0.5,5s0.2,3.3,0.5,5c0.3,1.6,0.8,3.2,1.4,4.8
					c0.6,1.5,1.4,3,2.3,4.4c0.9,1.4,2,2.7,3.2,3.9c1.2,1.2,2.5,2.2,3.9,3.2c1.4,0.9,2.9,1.7,4.4,2.3c1.5,0.6,3.1,1.1,4.8,1.4
					C167.6-297.4,169.3-297.3,170.9-297.3z"/>
			</g>
			<g transform="matrix(1,0,0,-1,720,265)">
				<path class="st0" d="M260.8-297.3c1.7,0,3.3-0.2,5-0.5c1.6-0.3,3.2-0.8,4.8-1.4c1.5-0.6,3-1.4,4.4-2.3s2.7-2,3.9-3.2
					c1.2-1.2,2.2-2.5,3.2-3.9c0.9-1.4,1.7-2.9,2.3-4.4c0.6-1.5,1.1-3.1,1.4-4.8c0.3-1.6,0.5-3.3,0.5-5s-0.2-3.3-0.5-5
					c-0.3-1.6-0.8-3.2-1.4-4.8c-0.6-1.5-1.4-3-2.3-4.4s-2-2.7-3.2-3.9c-1.2-1.2-2.5-2.2-3.9-3.2c-1.4-0.9-2.9-1.7-4.4-2.3
					c-1.5-0.6-3.1-1.1-4.8-1.4c-1.6-0.3-3.3-0.5-5-0.5s-3.3,0.2-5,0.5c-1.6,0.3-3.2,0.8-4.8,1.4c-1.5,0.6-3,1.4-4.4,2.3
					s-2.7,2-3.9,3.2s-2.2,2.5-3.2,3.9c-0.9,1.4-1.7,2.9-2.3,4.4s-1.1,3.1-1.4,4.8c-0.3,1.6-0.5,3.3-0.5,5s0.2,3.3,0.5,5
					c0.3,1.6,0.8,3.2,1.4,4.8c0.6,1.5,1.4,3,2.3,4.4c0.9,1.4,2,2.7,3.2,3.9c1.2,1.2,2.5,2.2,3.9,3.2c1.4,0.9,2.9,1.7,4.4,2.3
					c1.5,0.6,3.1,1.1,4.8,1.4C257.5-297.4,259.1-297.3,260.8-297.3z"/>
			</g>
		</g>
	</g>
</g>
</svg>
