<svg xmlns="http://www.w3.org/2000/svg" xmlns:xlink="http://www.w3.org/1999/xlink" width="898" height="126" viewBox="0 0 898 126">
  <defs>
    <clipPath id="clip-path">
      <rect id="Retângulo_2636" data-name="Retângulo 2636" width="898" height="126" transform="translate(526 2135)" fill="#dc7689" stroke="#707070" stroke-width="1"/>
    </clipPath>
  </defs>
  <g id="Grupo_de_máscara_16" data-name="Grupo de máscara 16" transform="translate(-526 -2135)" clip-path="url(#clip-path)">
    <g id="Ñëîé_1" data-name="Ñëîé 1" transform="translate(371.433 1977.085)">
      <g id="Grupo_692" data-name="Grupo 692">
        <rect id="Retângulo_2635" data-name="Retângulo 2635" width="1515.134" height="284.09" fill="#dc7689" opacity="0"/>
        <g id="Grupo_691" data-name="Grupo 691" transform="translate(17.162 28.237)">
          <path id="Caminho_6012" data-name="Caminho 6012" d="M762.261,357.941a175.1,175.1,0,0,1-23.279-2.6c-25.246-4.526-51.512-14.634-78.068-30.053-25.221-14.644-48.989-32.306-71.977-49.386-23.641-17.565-48.087-35.731-74.123-50.615-66.309-37.913-129.06-31.607-186.994-19.145l-.041-.184c37.612-8.089,68.047-10.923,95.781-8.915,32.535,2.355,62.415,11.54,91.346,28.08,26.047,14.894,50.5,33.06,74.143,50.63,22.983,17.075,46.751,34.737,71.962,49.371,57.4,33.33,111.449,41.353,160.632,23.845,43.764-15.582,78.078-47.995,111.255-79.342,4.659-4.4,9.481-8.956,14.221-13.36,23.268-21.617,43.356-37.041,63.22-48.555,24.354-14.114,48.871-22.6,74.954-25.934,26.668-3.41,55.33-2.666,87.62,2.273,30.384,4.654,60.406,12.508,85.77,19.578,53.622,14.95,107.647,31.852,159.9,48.2,13.742,4.3,27.953,8.742,41.934,13.084,30.573,9.491,66.8,20.638,103.717,31.363,2.936.851,9.659,2.355,18.176,4.261,28.529,6.377,76.284,17.045,77.461,24.349l-.189.031c-.5-3.094-10.1-7.274-28.529-12.417-15.689-4.378-34.814-8.655-48.78-11.774-8.517-1.9-15.246-3.4-18.187-4.261-36.919-10.724-73.149-21.872-103.722-31.363-13.982-4.343-28.192-8.787-41.934-13.084-52.246-16.341-106.27-33.244-159.887-48.194-38.626-10.77-81.9-21.724-126.047-23.641a276.959,276.959,0,0,0-47.266,1.794c-59.214,7.574-103.018,41.878-138.066,74.439-4.74,4.4-9.557,8.956-14.221,13.36-33.193,31.363-67.517,63.791-111.322,79.383a155.861,155.861,0,0,1-59.443,8.8Z" transform="translate(-177.868 -116.329)" fill="#dc7689"/>
          <path id="Caminho_6013" data-name="Caminho 6013" d="M748.916,353.883a193.341,193.341,0,0,1-20.674-2.029C702.7,347.976,676.434,339,650.174,325.176c-2.115-1.116-4.307-2.289-6.509-3.492-24.543-13.411-48.025-29.635-70.733-45.324-22.468-15.521-45.7-31.572-70.407-45.283a223.491,223.491,0,0,0-101.01-28.493c-30.7-1.335-59.82,3.048-86.488,8.578l-.046-.209c37.372-7.753,67.879-10.322,96.01-8.089,32.474,2.579,62.445,11.744,91.637,28.024,24.716,13.716,47.954,29.772,70.427,45.3,22.7,15.684,46.18,31.9,70.713,45.309,2.2,1.2,4.389,2.375,6.5,3.492C706.161,354.414,761.7,361.443,810.9,345.32c42.582-13.956,75.9-43.968,108.126-73,4.868-4.384,9.9-8.92,14.853-13.293,1.315-1.162,2.62-2.3,3.884-3.4,22.117-19.232,41.267-32.938,60.259-43.142,23.223-12.473,46.506-19.823,71.172-22.458,21.255-2.273,44.274-1.932,70.381,1.04,24.186,2.752,47.791,7.355,69.693,11.922,9.924,2.069,20.338,4.368,33.769,7.442,30.807,7.08,62.318,14.715,96.336,23.345,31.312,7.941,65.417,17.442,104.267,29.044,39.987,11.968,73.134,22.03,104.323,31.653,3.369,1.04,10.668,2.773,19.909,4.965,13.742,3.262,32.561,7.727,47.74,12.2,18.054,5.316,27.254,9.5,28.131,12.8l-.209.056c-1.952-7.33-48.127-18.294-75.713-24.844-9.246-2.2-16.546-3.93-19.92-4.97-31.184-9.628-64.336-19.685-104.318-31.653-38.851-11.6-72.95-21.1-104.257-29.038-34.018-8.629-65.524-16.265-96.331-23.345-13.426-3.079-23.839-5.372-33.764-7.442-42.852-8.93-92.544-18.029-140-12.957-56.186,6-97.911,36.506-131.313,65.549-1.264,1.1-2.574,2.243-3.884,3.4-4.949,4.373-9.985,8.9-14.853,13.288-32.239,29.044-65.58,59.071-108.2,73.042a173.8,173.8,0,0,1-62.048,8.359Z" transform="translate(-171.592 -120.677)" fill="#dc7689"/>
          <path id="Caminho_6014" data-name="Caminho 6014" d="M734.953,349.788c-37.495-1.631-70.789-13.1-95.516-24.787-2.085-.984-4.276-2.039-6.514-3.13-26.709-13.023-51.206-28.743-77.14-45.385-20.934-13.431-42.576-27.321-65.534-39.686-54.907-29.854-111.133-36.042-188-20.679l-.046-.234c37.128-7.421,67.705-9.725,96.234-7.263,32.392,2.8,62.466,11.948,91.927,27.968,22.968,12.371,44.615,26.261,65.549,39.7,25.929,16.637,50.416,32.352,77.115,45.37,2.238,1.091,4.429,2.141,6.514,3.13,38.356,18.12,97.356,35.746,160.621,16.826,41.409-12.386,73.781-40.053,105.088-66.813,5.041-4.312,10.261-8.767,15.393-13.059,1.274-1.065,2.554-2.126,3.813-3.155,21.836-17.988,40.6-30.726,59.04-40.094,22.815-11.586,45.589-18.217,69.617-20.271,43.157-3.685,87.651,3.95,130.676,11.336q5.023.864,10.016,1.713c11.193,1.911,21.836,3.8,33.6,5.9,38.687,6.947,67.038,12.269,94.792,17.789,32.382,6.438,67.568,15.088,104.583,25.7,39.457,11.377,73.781,21.826,104.93,31.944,3.787,1.228,11.54,3.176,21.352,5.643,28.59,7.182,71.8,18.039,74.571,25.674l-.224.082c-1.183-3.257-10.48-7.6-27.627-12.906-14.751-4.567-32.51-9.027-46.782-12.615-9.817-2.467-17.57-4.414-21.367-5.648-31.144-10.118-65.468-20.567-104.92-31.944-37.01-10.617-72.191-19.262-104.563-25.7-27.749-5.52-56.1-10.837-94.787-17.784-11.754-2.095-22.4-3.986-33.59-5.9q-4.993-.849-10.016-1.713c-43.01-7.386-87.487-15.021-130.614-11.336-54.382,4.649-95.485,33.1-128.525,60.31-1.254,1.03-2.538,2.09-3.808,3.155-5.133,4.287-10.347,8.747-15.393,13.054C874.09,301.753,841.7,329.44,800.238,341.842a196.933,196.933,0,0,1-65.279,7.952Z" transform="translate(-165.326 -124.951)" fill="#dc7689"/>
          <path id="Caminho_6015" data-name="Caminho 6015" d="M719.839,345.573q-6.537-.283-13.13-.923A269.829,269.829,0,0,1,628.7,324.726c-2.059-.861-4.195-1.769-6.524-2.768-29.681-12.738-57.017-29.018-85.958-46.252-18.65-11.107-37.938-22.591-58.255-33.284-56.273-29.62-112.647-36.032-188.508-21.444l-.051-.26c36.791-7.075,67.435-9.1,96.428-6.377,32.239,3.033,62.415,12.141,92.253,27.846,20.322,10.7,39.615,22.183,58.271,33.295,28.931,17.228,56.262,33.5,85.928,46.236,2.329,1,4.46,1.9,6.519,2.763C666.375,340.2,724.743,355.258,789.42,337.8c40.257-10.867,71.712-36.246,102.132-60.784,5.194-4.19,10.561-8.517,15.852-12.672,1.259-.989,2.513-1.967,3.736-2.91,21.561-16.729,39.936-28.5,57.827-37.031,22.407-10.684,44.666-16.6,68.052-18.09,36.312-2.309,74.194,3.328,110.827,8.777,10.052,1.493,20.45,3.043,30.481,4.368,9.939,1.32,21.688,2.87,33.422,4.353,7.314.938,14.639,1.866,21.724,2.763,24.324,3.084,47.3,6,71.518,9.465a854.7,854.7,0,0,1,104.9,22.371c38.952,10.806,73.47,21.352,105.531,32.234,4.195,1.422,12.7,3.68,22.55,6.29,27.861,7.391,69.958,18.554,73.516,26.378l-.24.107c-3.5-7.707-45.533-18.854-73.343-26.23-9.853-2.615-18.365-4.873-22.565-6.295-32.056-10.882-66.574-21.428-105.521-32.234a855.15,855.15,0,0,0-104.874-22.366c-24.217-3.466-47.189-6.377-71.513-9.465-7.085-.9-14.41-1.825-21.724-2.763-11.734-1.483-23.483-3.033-33.422-4.353-10.036-1.325-20.435-2.87-30.486-4.368-36.623-5.449-74.49-11.081-110.771-8.772-52.577,3.344-93.064,29.716-125.737,55.07-1.218.943-2.477,1.922-3.736,2.911-5.286,4.154-10.653,8.482-15.847,12.671-30.44,24.558-61.92,49.947-102.229,60.835a228.477,228.477,0,0,1-69.653,7.523Z" transform="translate(-159.051 -129.126)" fill="#dc7689"/>
          <path id="Caminho_6016" data-name="Caminho 6016" d="M703.359,341.29q-3.716-.161-7.442-.423a286.159,286.159,0,0,1-77.956-16.54c-2.018-.734-4.154-1.519-6.529-2.4-33.142-12.3-63.821-29.309-96.3-47.317-15.878-8.8-32.3-17.906-49.458-26.684-57.5-29.421-114.023-36.067-189.013-22.208l-.051-.285a409.013,409.013,0,0,1,49.381-6.29,287.777,287.777,0,0,1,47.261.759c32.112,3.247,62.384,12.33,92.549,27.769,17.162,8.782,33.585,17.886,49.463,26.689,32.469,18,63.138,35,96.26,47.3,2.375.882,4.511,1.667,6.53,2.4,51.675,18.8,108.717,22.285,160.621,9.807,39.116-9.4,69.683-32.525,99.252-54.886,5.316-4.022,10.816-8.181,16.234-12.157,1.228-.9,2.462-1.8,3.66-2.666,21.576-15.674,39.039-26.143,56.619-33.957,22-9.776,43.744-14.986,66.487-15.924,31.174-1.29,63.985,3.206,95.714,7.554,15.3,2.095,31.113,4.261,46.211,5.683,11.321,1.076,22.509,2.018,33.249,2.8,12.361.938,24.563,1.764,36.363,2.564,17.942,1.218,36.5,2.477,55.329,4.1,32.678,2.824,68.083,9.226,105.226,19.033,37.913,10.108,73.623,21.056,106.138,32.525,4.582,1.616,13.37,4.073,23.539,6.912,28.84,8.053,68.338,19.084,72.665,27.112l-.255.138c-4.271-7.916-45.324-19.384-72.487-26.969-10.179-2.844-18.967-5.3-23.559-6.917-32.51-11.474-68.215-22.412-106.118-32.52-37.128-9.8-72.512-16.2-105.175-19.028-18.829-1.626-37.383-2.885-55.325-4.1-11.805-.8-24.008-1.631-36.368-2.564-10.745-.785-21.933-1.733-33.254-2.809-15.108-1.417-30.925-3.588-46.226-5.683-31.714-4.348-64.515-8.838-95.663-7.549-50.645,2.095-89.022,25.185-122.948,49.83-1.2.867-2.431,1.759-3.66,2.661-5.418,3.976-10.913,8.13-16.229,12.152-29.589,22.377-60.182,45.518-99.359,54.937a271.588,271.588,0,0,1-75.392,7.146Z" transform="translate(-152.78 -133.182)" fill="#dc7689"/>
          <path id="Caminho_6017" data-name="Caminho 6017" d="M684.661,336.935A308.136,308.136,0,0,1,607.23,323.81c-1.911-.591-3.986-1.239-6.54-2.039-37.418-11.739-72.3-29.834-109.232-48.994-12.274-6.366-24.966-12.952-38.066-19.471-57.985-28.845-116.434-35.93-189.517-22.978l-.056-.311c35.757-6.341,67.44-7.875,96.861-4.689,31.964,3.456,62.333,12.519,92.845,27.693,13.1,6.519,25.8,13.1,38.071,19.471,36.919,19.155,71.788,37.245,109.181,48.973,2.554.8,4.628,1.448,6.54,2.039C657.045,338.9,714.092,341.13,767.944,329.8c37.979-7.992,67.7-28.9,96.433-49.116,5.423-3.813,11.025-7.758,16.555-11.514,1.167-.8,2.345-1.585,3.517-2.37l.071-.046c33.738-22.652,71.666-43.739,120.328-44.646,27.153-.5,55.9,3.3,83.706,6.988,19.532,2.589,39.732,5.265,58.836,6.336,11.122.637,21.943,1.05,33.075,1.259,14.165.311,28.014.387,41.4.459,15.776.087,32.087.173,48.749.652,32.545.938,68.057,6.219,105.547,15.7,37.454,9.588,73.368,20.628,106.744,32.821,4.96,1.81,13.941,4.445,24.344,7.5,28.233,8.283,66.9,19.634,72,27.876l-.265.163c-5.036-8.14-43.637-19.471-71.824-27.739-10.408-3.053-19.395-5.694-24.365-7.5-33.371-12.187-69.275-23.223-106.714-32.81-37.464-9.476-72.956-14.756-105.48-15.689-16.657-.479-32.968-.566-48.739-.652-13.39-.071-27.239-.148-41.409-.459-11.137-.209-21.958-.622-33.086-1.259-19.119-1.07-39.319-3.752-58.862-6.341-27.795-3.68-56.532-7.488-83.66-6.983-48.581.9-86.463,21.964-120.16,44.59l-.071.046q-1.759,1.177-3.512,2.37c-5.525,3.757-11.127,7.7-16.55,11.509C835.8,301.174,806.055,322.1,768.01,330.1a335.724,335.724,0,0,1-83.354,6.82Z" transform="translate(-146.509 -137.11)" fill="#dc7689"/>
          <path id="Caminho_6018" data-name="Caminho 6018" d="M663,331.56a327.332,327.332,0,0,1-66.5-9.43q-3.288-.841-6.55-1.677c-19.5-5-39.325-11.948-62.394-21.857-20.582-8.844-41.21-18.951-63.052-29.66-7.59-3.721-15.434-7.564-23.4-11.413C381.8,228.857,323.2,221.533,251.086,233.781l-.056-.336c35.491-6.025,67.247-7.289,97.085-3.853,31.8,3.66,62.262,12.7,93.14,27.627,7.962,3.848,15.806,7.7,23.4,11.413,44.4,21.76,82.737,40.553,125.38,51.491l6.545,1.677c46.98,11.983,104.028,12.972,160.632,2.788,36.852-6.631,65.738-25.348,93.67-43.453,5.505-3.568,11.2-7.258,16.816-10.76q1.46-.91,2.926-1.81l.586-.362c14.262-8.793,33.315-19.894,54.239-27.739A175.29,175.29,0,0,1,988.756,228.8c23.87.112,49.259,3.486,73.812,6.754,23.085,3.074,46.95,6.249,69.347,6.662,10.974.214,21.739.122,32.9-.285,14.889-.494,29.309-1.356,43.255-2.192,14.644-.877,29.782-1.784,45.349-2.253,32.352-.968,67.971,3.191,105.873,12.361a943.843,943.843,0,0,1,107.351,33.111c5.311,2,14.42,4.8,24.971,8.048,27.7,8.528,65.641,20.2,71.513,28.677l-.28.194c-5.806-8.38-43.677-20.037-71.334-28.549-10.556-3.247-19.67-6.055-24.991-8.059a944.264,944.264,0,0,0-107.316-33.1c-37.872-9.165-73.46-13.324-105.781-12.355-15.562.469-30.7,1.376-45.339,2.253-13.946.836-28.371,1.7-43.265,2.192-11.173.408-21.938.5-32.922.285-22.412-.413-46.292-3.593-69.388-6.667-24.543-3.267-49.916-6.642-73.766-6.754-46.715-.214-84.021,18.788-117.372,39.355l-.586.362c-.974.6-1.952,1.2-2.926,1.809-5.612,3.5-11.306,7.187-16.81,10.755-27.963,18.12-56.879,36.863-93.8,43.5a433.6,433.6,0,0,1-82.982,6.963q-5.688-.084-11.29-.326Z" transform="translate(-140.238 -139.88)" fill="#dc7689"/>
          <path id="Caminho_6019" data-name="Caminho 6019" d="M637.622,324.82a340.066,340.066,0,0,1-51.843-5.984l-.739-.148q-2.921-.589-5.816-1.162c-49.1-9.812-93.925-30.873-145.829-55.258l-4.552-2.141c-60.687-28.5-119.447-36.057-190.526-24.512l-.056-.357C309.416,223.7,368.242,231.267,429,259.8l4.552,2.136c51.884,24.375,96.693,45.426,145.748,55.228q2.89.581,5.816,1.162l.739.148c43.443,8.706,98.992,8.456,160.642-.724,35.726-5.321,63.8-21.882,90.954-37.9,5.581-3.293,11.346-6.693,17.04-9.909L857,268.532l.928-.52c14.991-8.385,33.014-17.866,53.046-24.619a174.849,174.849,0,0,1,61.727-9.547c21.107.6,43.621,3.69,65.391,6.682,26.148,3.593,53.184,7.309,78.374,6.825,10.908-.194,21.612-.79,32.729-1.83,15.149-1.356,29.7-3.221,43.764-5.026,13.946-1.789,28.371-3.639,43.3-4.98,32.122-2.88,67.848.158,106.2,9.027a817.91,817.91,0,0,1,107.958,33.4c5.638,2.182,14.807,5.138,25.425,8.558,27.239,8.777,64.545,20.8,71.2,29.523l-.291.219c-6.58-8.635-43.825-20.638-71.019-29.4-10.623-3.42-19.8-6.377-25.445-8.568a817.454,817.454,0,0,0-107.912-33.386c-38.31-8.859-74-11.9-106.082-9.017-14.919,1.341-29.339,3.186-43.28,4.975-14.068,1.8-28.62,3.67-43.774,5.026-11.127,1.04-21.841,1.636-32.754,1.83-25.216.479-52.271-3.237-78.43-6.83-21.765-2.992-44.264-6.081-65.356-6.677-47.067-1.33-83.828,16.912-114.584,34.115l-.928.52q-1.254.7-2.5,1.4c-5.688,3.211-11.453,6.611-17.035,9.9-27.183,16.036-55.289,32.612-91.086,37.943a623.107,623.107,0,0,1-83.079,7.075q-13.288.176-25.843-.372Z" transform="translate(-133.977 -141.035)" fill="#dc7689"/>
          <path id="Caminho_6020" data-name="Caminho 6020" d="M608.592,317.265a331.267,331.267,0,0,1-33.539-3.058q-3.3-.482-6.565-.948c-23.758-3.41-47.444-9.552-74.541-19.318-23.88-8.609-48.2-19.232-77.385-32.54-62.134-28.335-121.047-36.129-191.031-25.277l-.061-.382a363.6,363.6,0,0,1,71.824-4.394c41,1.784,79.551,11.514,119.431,29.7,52.582,23.977,100.3,44.427,151.824,51.828q3.257.466,6.565.948c48.933,7.136,108.671,1.866,160.652-4.231,34.6-4.057,61.89-18.482,88.272-32.428,5.638-2.982,11.474-6.066,17.223-8.961.724-.367,1.448-.724,2.171-1.086l1.182-.591c14.853-7.416,32.632-15.771,51.853-21.484a175.5,175.5,0,0,1,60.141-7.437c18.712.984,38.7,3.874,58.031,6.672,28.865,4.175,58.714,8.492,86.346,6.932,10.612-.581,21.265-1.687,32.556-3.374,15.026-2.248,29.339-5.1,43.183-7.85,13.6-2.707,27.672-5.5,42.327-7.712,31.867-4.8,67.705-2.88,106.525,5.688a735.956,735.956,0,0,1,108.569,33.7c5.933,2.36,15.093,5.444,25.7,9.017,28.34,9.547,63.613,21.423,71.059,30.42l-.3.25c-7.375-8.91-44.08-21.27-70.886-30.3-10.612-3.573-19.777-6.662-25.72-9.022a735.721,735.721,0,0,0-108.508-33.677c-38.769-8.558-74.561-10.47-106.383-5.683-14.649,2.2-28.712,5.005-42.311,7.712-13.849,2.758-28.167,5.607-43.2,7.855-11.3,1.687-21.964,2.793-32.586,3.379-27.672,1.56-57.542-2.758-86.427-6.932-19.323-2.793-39.3-5.683-58-6.667-.515-.025-1.03-.051-1.539-.071-44.345-1.927-80.142,13.915-110.262,28.952l-1.183.591-2.171,1.086c-5.75,2.89-11.576,5.974-17.218,8.956C797.793,291.494,770.478,305.934,735.8,310c-34.166,4.006-59.82,6.224-83.186,7.182-15.929.652-30.532.693-44.029.107Z" transform="translate(-127.707 -140.856)" fill="#dc7689"/>
          <path id="Caminho_6021" data-name="Caminho 6021" d="M578.722,305.86q-7.347-.321-14.41-.953-3.311-.3-6.57-.586c-24.1-2.115-48.693-7.233-75.193-15.653-22.04-7-46.185-16.464-78.287-30.67-41.435-18.345-80.938-28.152-122.444-29.956a362.35,362.35,0,0,0-69.1,3.915l-.061-.408c34.7-5.128,66.676-5.571,97.753-1.351,31.123,4.226,61.874,13.2,94.012,27.423,57.114,25.282,102.687,41.848,153.343,46.287q3.257.283,6.57.586c38.881,3.543,84.985-.765,129.575-4.924,10.21-.953,20.761-1.937,31.093-2.819,33.478-2.849,59.983-15.154,85.617-27.056,5.694-2.64,11.581-5.377,17.386-7.926l1.932-.841,1.351-.586c15.48-6.759,32.331-13.66,50.661-18.334a177.926,177.926,0,0,1,58.551-5.342c16.571,1.285,33.493,3.894,51.415,6.657,31.337,4.832,63.74,9.827,93.574,7.034a284.992,284.992,0,0,0,32.377-4.919c14.97-3.13,29.115-6.993,42.786-10.735,13.2-3.609,26.852-7.345,41.175-10.388,31.6-6.713,67.547-5.923,106.852,2.35a664.8,664.8,0,0,1,109.176,33.988c6.193,2.518,15.271,5.714,25.787,9.409,28,9.843,62.853,22.1,71.11,31.383l-.311.275c-8.186-9.205-42.979-21.439-70.937-31.266-10.521-3.7-19.6-6.891-25.807-9.414a663.907,663.907,0,0,0-109.1-33.962c-39.248-8.257-75.137-9.047-106.678-2.35-14.313,3.038-27.958,6.769-41.154,10.383-13.681,3.741-27.825,7.61-42.811,10.74a284.657,284.657,0,0,1-32.423,4.924c-29.88,2.8-62.313-2.2-93.675-7.039-17.911-2.763-34.829-5.372-51.384-6.652-43.015-3.328-77.441,9.853-109.018,23.646-.449.2-.9.392-1.351.586l-1.932.841c-5.8,2.549-11.688,5.281-17.376,7.921-25.664,11.917-52.205,24.237-85.754,27.091-10.327.877-20.883,1.866-31.088,2.819-39.217,3.66-79.6,7.427-115.236,5.877Z" transform="translate(-121.426 -136.006)" fill="#dc7689"/>
          <path id="Caminho_6022" data-name="Caminho 6022" d="M543.739,295.006a323.46,323.46,0,0,1-72.568-11.856c-23.121-6.377-48.28-15.531-79.184-28.8-65.254-28.034-124.483-36.3-192.045-26.811l-.061-.433c67.649-9.5,126.95-1.223,192.28,26.842,62.328,26.775,106.551,38.667,151.457,40.619,1.137.051,2.268.092,3.41.127q3.257.107,6.58.224c28.845,1.045,60.906-2.207,94.848-5.653,21.581-2.192,43.9-4.455,65.835-5.6,32.352-1.692,58.082-11.892,82.971-21.76,5.745-2.278,11.683-4.633,17.539-6.81.571-.214,1.147-.423,1.723-.637.494-.183.989-.362,1.483-.545,14.348-5.321,31.184-11.326,49.473-15.169a182.06,182.06,0,0,1,56.961-3.262c14.608,1.5,29.528,3.981,45.319,6.6,33.636,5.581,68.419,11.351,100.276,7.187a240.22,240.22,0,0,0,32.2-6.463c14.848-4.006,28.748-8.889,42.189-13.609,12.865-4.521,26.169-9.2,40.227-13.069,31.317-8.624,67.379-8.961,107.183-.994,35.221,7.2,73.185,19.048,109.782,34.278,6.4,2.661,15.327,5.933,25.664,9.72,27.744,10.169,62.277,22.825,71.37,32.423l-.316.3c-9.027-9.527-43.5-22.157-71.207-32.311-10.342-3.792-19.272-7.065-25.679-9.73-36.572-15.22-74.505-27.061-109.7-34.253-39.732-7.952-75.723-7.62-106.979.984-14.048,3.869-27.341,8.538-40.2,13.059-13.451,4.725-27.356,9.613-42.22,13.62a241.115,241.115,0,0,1-32.26,6.473c-31.923,4.175-66.737-1.6-100.4-7.187-15.786-2.62-30.7-5.092-45.293-6.6-40.894-4.21-74.9,6.784-106.235,18.411-.494.184-.989.367-1.488.545-.576.209-1.147.423-1.718.637-5.852,2.176-11.79,4.531-17.534,6.8-24.92,9.878-50.686,20.093-83.109,21.785-21.923,1.147-44.233,3.41-65.814,5.6-33.957,3.446-66.034,6.7-94.909,5.653q-3.326-.122-6.58-.224c-1.091-.036-2.187-.076-3.277-.122Z" transform="translate(-115.16 -130.902)" fill="#dc7689"/>
          <path id="Caminho_6023" data-name="Caminho 6023" d="M517.161,285.475a307.809,307.809,0,0,1-57.373-8.1c-24.11-5.663-49.555-14.226-80.081-26.949-66.941-27.9-126.328-36.4-192.555-27.576l-.061-.459c66.314-8.833,125.772-.321,192.795,27.606,61.833,25.766,108.6,36.3,156.386,35.211,2.064-.046,4.292-.1,6.591-.138,22.657-.423,47.434-3.563,73.664-6.886,28.452-3.6,57.873-7.33,87.034-7.875,31.21-.581,56.171-8.7,80.311-16.54,5.8-1.886,11.8-3.833,17.707-5.617l1.544-.459,1.59-.474c15-4.526,31.072-9.185,48.275-11.994a188.821,188.821,0,0,1,55.37-1.2c12.763,1.651,25.781,3.986,39.564,6.458,35.823,6.433,72.864,13.079,106.632,7.416a209.828,209.828,0,0,0,32.025-8c14.68-4.873,28.3-10.77,41.476-16.474,12.564-5.439,25.557-11.066,39.4-15.766,31.189-10.592,67.364-12.05,107.509-4.333,34.661,6.662,72.833,18.615,110.389,34.569,6.54,2.778,15.643,6.249,25.287,9.929,27.581,10.526,61.91,23.62,71.885,33.57l-.326.326c-9.909-9.878-44.182-22.958-71.727-33.463-9.644-3.68-18.752-7.156-25.3-9.934-37.525-15.939-75.667-27.887-110.3-34.543-40.069-7.7-76.162-6.249-107.275,4.317-13.824,4.694-26.806,10.317-39.36,15.75-13.181,5.7-26.811,11.606-41.511,16.489a210.123,210.123,0,0,1-32.092,8.023,179.123,179.123,0,0,1-37.408,1.927c-22.85-.994-46.364-5.214-69.382-9.348-13.778-2.472-26.791-4.807-39.544-6.458-38.7-5-71.019,3.379-103.457,13.176l-1.59.474-1.539.459c-5.908,1.779-11.9,3.726-17.7,5.612-24.171,7.855-49.162,15.98-80.443,16.561-29.135.545-58.546,4.271-86.988,7.87-26.245,3.323-51.033,6.463-73.715,6.891-2.294.041-4.521.092-6.586.138q-9.572.214-19.114-.2Z" transform="translate(-108.89 -125.535)" fill="#dc7689"/>
          <path id="Caminho_6024" data-name="Caminho 6024" d="M491.659,276.72a291.406,291.406,0,0,1-43.254-5.2c-24.548-4.786-51.033-12.993-80.978-25.093-68.725-27.769-128.27-36.511-193.065-28.345l-.061-.484a347.927,347.927,0,0,1,98.436,1.132c30.078,4.689,61.11,13.6,94.873,27.244,60.987,24.64,108.212,33.519,157.9,29.676l.194-.015q3.165-.245,6.4-.489c18.447-1.361,38.346-4.572,59.418-7.972,33.009-5.327,67.145-10.837,101.3-10.3,30.053.474,54.229-5.566,77.609-11.4,5.872-1.468,11.943-2.982,17.922-4.343.464-.107.933-.209,1.4-.316.55-.122,1.106-.25,1.656-.372,13.293-3.053,29.839-6.851,47.082-8.8a198.836,198.836,0,0,1,53.78.856c10.989,1.718,22.168,3.9,34,6.2,37.943,7.4,77.176,15.047,112.8,7.768a185.975,185.975,0,0,0,31.847-9.547c14.491-5.739,27.81-12.641,40.691-19.318,12.284-6.366,24.986-12.952,38.636-18.477a165.054,165.054,0,0,1,51.767-11.4,235,235,0,0,1,56.074,3.726c34.753,6.407,73.134,18.462,111,34.865,6.591,2.854,15.337,6.326,24.594,10,27.535,10.923,61.8,24.512,72.716,34.854l-.336.352c-10.842-10.276-45.064-23.85-72.558-34.757-9.262-3.675-18.014-7.146-24.609-10-37.831-16.387-76.177-28.432-110.894-34.829-40.726-7.34-76.916-4.766-107.57,7.646-13.625,5.52-26.322,12.1-38.6,18.457-12.891,6.682-26.22,13.589-40.736,19.339a186,186,0,0,1-31.929,9.567c-15.99,3.267-34.258,3.787-55.85,1.6-19.094-1.942-38.438-5.714-57.144-9.358-11.831-2.309-23-4.486-33.983-6.2-39.3-6.147-71.911,1.341-100.679,7.941-.55.127-1.106.25-1.662.372-.464.1-.933.209-1.4.316-5.974,1.356-12.044,2.875-17.911,4.338-23.411,5.846-47.618,11.892-77.732,11.418-34.115-.535-68.225,4.97-101.219,10.291-21.082,3.4-40.991,6.616-59.458,7.977-2.161.158-4.292.326-6.4.489l-.194.015a280.954,280.954,0,0,1-33.891.586Z" transform="translate(-102.619 -120.088)" fill="#dc7689"/>
          <path id="Caminho_6025" data-name="Caminho 6025" d="M467.487,268.6a275.554,275.554,0,0,1-30.455-3.048c-25.175-3.925-51.96-11.53-81.881-23.248-71.569-28.029-129.463-36.735-193.569-29.11l-.061-.51a349.484,349.484,0,0,1,98.66,1.957c29.6,4.812,60.722,13.7,95.159,27.188,60.452,23.671,108.126,30.894,159.419,24.14l1.361-.178q2.592-.344,5.245-.688c15.419-1.988,31.872-5.311,49.289-8.833,17.728-3.583,36.052-7.284,54.774-9.873,21.23-2.936,39.773-3.94,56.675-3.079,28.845,1.468,52.21-2.508,74.806-6.356,5.974-1.019,12.157-2.069,18.238-2.977l1.239-.183c.581-.087,1.162-.168,1.743-.26l1.9-.291c14.323-2.2,29.135-4.475,45.044-5.372a212.68,212.68,0,0,1,51.13,2.961c9.231,1.7,18.589,3.69,28.5,5.8,40.043,8.507,81.447,17.3,118.911,8.273a168.148,168.148,0,0,0,31.669-11.086c14.287-6.6,27.29-14.5,39.865-22.142,12.014-7.3,24.441-14.858,37.912-21.209a153.9,153.9,0,0,1,51.751-13.742c17.463-1.6,36.445-.688,56.42,2.722a427.106,427.106,0,0,1,56.058,14,561.038,561.038,0,0,1,55.549,21.153c6.519,2.875,14.761,6.269,23.493,9.868,27.632,11.382,62.027,25.542,73.95,36.338l-.347.382c-11.861-10.74-46.206-24.879-73.8-36.246-8.731-3.6-16.984-6.993-23.508-9.873-38.427-16.953-76.982-29.095-111.49-35.119-41.226-7.034-77.517-3.339-107.866,10.979-13.446,6.341-25.863,13.89-37.867,21.184-12.585,7.651-25.6,15.562-39.916,22.167a168.923,168.923,0,0,1-31.765,11.117c-16.81,4.052-36.1,4.832-58.969,2.385-20.18-2.156-40.507-6.478-60.172-10.653-9.9-2.105-19.257-4.093-28.483-5.79-36.485-6.723-68.108-1.866-96,2.416l-1.9.291-1.743.26-1.234.183c-6.081.907-12.254,1.962-18.227,2.977-22.147,3.772-45.038,7.666-73.119,6.448-.6-.025-1.2-.056-1.8-.087-37.755-1.911-76.84,5.974-111.327,12.942-17.427,3.522-33.891,6.845-49.325,8.838q-2.653.344-5.245.688l-1.361.178a270.806,270.806,0,0,1-47.337,2.131Z" transform="translate(-96.353 -114.507)" fill="#dc7689"/>
          <path id="Caminho_6026" data-name="Caminho 6026" d="M444.706,260.991q-9.5-.413-19.048-1.539c-25.715-3.028-52.8-10.026-82.788-21.4-51.884-19.685-96.051-29.93-139.458-31.822a351.3,351.3,0,0,0-54.621,1.942l-.061-.535a351.166,351.166,0,0,1,98.89,2.778c29.436,4.975,59.759,13.6,95.439,27.132,60.131,22.81,108.264,28.376,160.938,18.6.831-.153,1.672-.311,2.513-.469q2.034-.375,4.1-.759c13.166-2.426,27.086-5.862,41.832-9.5,36.725-9.063,78.348-19.328,118.937-15.8,27.56,2.4,50.044.459,71.783-1.417,6.152-.53,12.514-1.081,18.773-1.5l1.121-.076c.591-.041,1.188-.076,1.779-.122q2.905-.214,5.852-.433c26.169-1.962,55.824-4.19,89.43,2.972,7.447,1.59,14.965,3.334,22.922,5.179,40.2,9.323,85.754,19.894,125.089,8.981a154.691,154.691,0,0,0,31.5-12.626c14.078-7.442,26.755-16.341,39.019-24.951,11.754-8.247,23.906-16.78,37.214-23.962a144.849,144.849,0,0,1,51.736-16.087c17.478-2.105,36.577-1.529,56.767,1.723a397.1,397.1,0,0,1,56.375,13.89,539.974,539.974,0,0,1,55.844,21.556c6.264,2.814,13.823,6.04,21.826,9.455,27.932,11.922,62.7,26.765,75.759,38.106l-.352.408c-13-11.285-47.719-26.108-75.616-38.02-8-3.415-15.562-6.642-21.831-9.46-39.008-17.509-77.762-29.752-112.086-35.4-41.73-6.718-78.124-1.906-108.161,14.308-13.283,7.167-25.425,15.689-37.163,23.931-12.274,8.614-24.971,17.524-39.075,24.981a155.634,155.634,0,0,1-31.6,12.672c-17.636,4.893-37.969,5.933-62.155,3.176-21.286-2.426-42.592-7.371-63.2-12.152-7.952-1.845-15.47-3.588-22.912-5.174-33.534-7.146-63.149-4.924-89.277-2.961q-2.944.222-5.852.433l-1.784.122-1.121.076c-6.254.423-12.615.974-18.763,1.5-18.3,1.58-37.138,3.206-59.086,2.253-4.149-.178-8.4-.454-12.789-.836-40.5-3.532-82.079,6.728-118.764,15.781-14.751,3.639-28.682,7.075-41.863,9.506q-2.072.382-4.1.759c-.841.158-1.682.311-2.513.469a260.885,260.885,0,0,1-59.387,4.312Z" transform="translate(-90.082 -108.809)" fill="#dc7689"/>
          <path id="Caminho_6027" data-name="Caminho 6027" d="M423.256,253.859q-4.48-.191-8.961-.556c-26.2-2.105-53.576-8.507-83.7-19.568-56.14-20.618-118.57-38.6-194.589-30.644l-.056-.561a352.743,352.743,0,0,1,99.119,3.6c28.743,5.046,59.158,13.65,95.719,27.081,33,12.121,63.184,18.737,92.636,20.022a250.013,250.013,0,0,0,69.816-6.953c1.183-.28,2.375-.571,3.583-.861q1.506-.367,3.043-.729c11.448-2.742,23.472-6.285,36.205-10.031,38.366-11.3,81.855-24.094,124.595-18.778,26.067,3.242,47.516,3.293,68.256,3.339,6.8.015,13.217.031,19.823.153.331.005.668.01,1,.02.607.01,1.218.025,1.825.031,3.39.041,6.749.056,10.306.076,24.227.133,51.69.285,82.181,7.7,5.6,1.361,11.2,2.783,17.142,4.292,42.276,10.74,90.194,22.912,131.471,9.955a143.242,143.242,0,0,0,31.317-14.165c13.92-8.288,26.306-18.212,38.285-27.815,11.448-9.18,23.289-18.671,36.4-26.653a137.827,137.827,0,0,1,51.711-18.436c17.493-2.61,36.715-2.365,57.119.729A371.4,371.4,0,0,1,1264.2,168.89a523.553,523.553,0,0,1,56.14,21.953c5.734,2.615,12.325,5.525,19.3,8.609,28.529,12.6,64.041,28.284,78.415,40.3l-.362.433c-14.318-11.968-49.784-27.632-78.282-40.222-6.978-3.084-13.574-5.994-19.308-8.614-40.13-18.309-78.043-30.323-112.678-35.7-42.24-6.4-78.731-.469-108.457,17.631-13.079,7.967-24.91,17.448-36.343,26.612-11.994,9.613-24.39,19.553-38.346,27.856a143.534,143.534,0,0,1-31.439,14.221c-41.43,13-89.43.81-131.777-9.95-5.938-1.509-11.54-2.931-17.137-4.292-30.425-7.4-57.853-7.554-82.049-7.687-3.558-.02-6.917-.041-10.306-.076-.612-.005-1.223-.02-1.83-.031-.336-.005-.668-.015-1-.02-6.6-.122-13.018-.138-19.813-.153-20.756-.046-42.22-.1-68.322-3.344-42.627-5.3-86.05,7.478-124.365,18.758-12.738,3.752-24.767,7.289-36.23,10.036q-1.529.367-3.038.729c-1.2.291-2.4.576-3.583.861a251.226,251.226,0,0,1-70.116,7.034Z" transform="translate(-83.816 -103.048)" fill="#dc7689"/>
          <path id="Caminho_6028" data-name="Caminho 6028" d="M402.978,247.1h-.046c-26.638-1.162-54.315-6.963-84.618-17.733-66.854-23.763-125.619-38.2-195.1-31.414l-.056-.586a354.976,354.976,0,0,1,99.349,4.414c28.279,5.148,57.888,13.482,96,27.03,59.214,21.046,109.788,23.37,163.965,7.534,1.539-.449,3.094-.912,4.674-1.376l1.957-.581c10.123-2.987,20.694-6.626,31.888-10.48,39.61-13.63,84.506-29.079,128.938-21.841,23.9,3.894,43.8,5.8,63.057,7.646,7.732.739,15.037,1.442,22.54,2.258l.856.092c.632.071,1.264.138,1.9.2,5.072.515,10.164.963,15.546,1.437,22.04,1.942,47.016,4.139,74.138,11.586,3.614.994,7.2,1.993,11,3.053,44.457,12.406,94.848,26.464,138.2,11.29a135.076,135.076,0,0,0,31.138-15.7c13.7-9.124,25.741-20.032,37.393-30.583,11.2-10.138,22.774-20.623,35.751-29.446a132.433,132.433,0,0,1,51.685-20.8c17.519-3.109,36.858-3.2,57.481-.26a348.469,348.469,0,0,1,57,13.681,508.675,508.675,0,0,1,56.436,22.351c4.735,2.2,9.914,4.557,15.393,7.054,29.6,13.5,66.447,30.287,82.462,43.214l-.367.459c-15.954-12.875-52.761-29.655-82.334-43.137-5.479-2.5-10.658-4.858-15.4-7.054-40.68-18.854-78.792-30.96-113.274-35.981-42.755-6.086-79.342.968-108.748,20.959-12.942,8.8-24.507,19.267-35.685,29.4-11.662,10.561-23.727,21.485-37.459,30.634a135.51,135.51,0,0,1-31.271,15.771c-19.42,6.794-42.021,8.329-69.1,4.684-23.681-3.186-46.95-9.68-69.459-15.959-3.8-1.06-7.391-2.059-11-3.053-27.071-7.432-52.022-9.629-74.036-11.565-5.388-.474-10.48-.923-15.557-1.437-.637-.066-1.269-.133-1.9-.2l-.856-.092c-7.5-.816-14.8-1.519-22.529-2.258-19.262-1.845-39.182-3.757-63.1-7.651-44.289-7.212-89.108,8.211-128.652,21.821-11.2,3.853-21.775,7.493-31.913,10.485l-1.957.576c-1.575.464-3.135.928-4.674,1.376-27.367,8-53.428,11.331-79.663,10.189Z" transform="translate(-77.546 -97.221)" fill="#dc7689"/>
          <path id="Caminho_6029" data-name="Caminho 6029" d="M383.659,240.638c-24.594-1.07-50.074-6.229-77.625-15.7-70.937-24.38-128.4-38.269-195.608-32.178l-.056-.612c32.627-2.956,65.2-1.244,99.583,5.23,34.681,6.535,68.134,17.3,96.28,26.979,59.346,20.4,110.379,21.016,165.484,2,1.942-.673,3.874-1.351,5.923-2.069l.714-.25c9.088-3.191,18.533-6.927,28.534-10.877,40.568-16.046,86.55-34.227,132.322-24.956,16.219,3.288,30.445,6.025,44.2,8.67,13.431,2.584,26.118,5.026,38.917,7.651l.754.153c.637.133,1.279.265,1.922.387,7.07,1.381,14.267,2.62,21.887,3.93,20.445,3.512,41.583,7.141,65,14.333,1.437.438,2.88.887,4.333,1.335,44.478,13.686,99.828,30.721,145.473,13.1a129.121,129.121,0,0,0,30.965-17.244c13.472-9.96,25.175-21.841,36.5-33.33,10.944-11.107,22.254-22.6,35.1-32.255a128.1,128.1,0,0,1,51.649-23.151c17.544-3.6,37.005-4.027,57.848-1.249,34.406,4.684,72.777,16.907,114.049,36.322,2.865,1.346,5.857,2.747,8.946,4.195,29.885,14,70.8,33.167,89.047,47.424l-.377.484c-18.187-14.216-59.076-33.366-88.93-47.353-3.089-1.448-6.081-2.849-8.945-4.195-41.211-19.39-79.526-31.592-113.87-36.271-43.264-5.765-79.954,2.406-109.043,24.288-12.809,9.634-24.1,21.1-35.033,32.194-11.336,11.509-23.06,23.406-36.567,33.391a129.6,129.6,0,0,1-31.108,17.325c-20.424,7.885-44.325,9.634-73.078,5.342-25.032-3.736-50.406-11.54-72.792-18.431-1.453-.449-2.9-.892-4.333-1.335-23.381-7.182-44.5-10.806-64.928-14.313-7.625-1.31-14.828-2.543-21.9-3.93-.642-.127-1.284-.26-1.927-.392l-.754-.153c-12.794-2.625-25.481-5.067-38.907-7.646-13.762-2.645-27.988-5.388-44.213-8.67-45.594-9.241-91.484,8.91-131.975,24.925-10.006,3.955-19.456,7.7-28.559,10.888l-.714.25c-2.049.719-3.981,1.4-5.928,2.069-27.7,9.557-53.984,14.1-80.341,13.9q-3.945-.031-7.916-.2Z" transform="translate(-71.275 -91.351)" fill="#dc7689"/>
          <path id="Caminho_6030" data-name="Caminho 6030" d="M365.155,234.424c-22.733-.989-46.236-5.592-71.4-13.946-62.542-20.776-124.6-38.932-196.118-32.948l-.051-.632a337.869,337.869,0,0,1,51.1-.423,387.167,387.167,0,0,1,48.708,6.463c32.887,6.4,65.845,16.729,96.56,26.933,59.57,19.792,111.072,18.7,167-3.527,2.207-.877,4.5-1.8,6.647-2.681,8.262-3.359,16.821-7.2,25.878-11.255,20.868-9.353,42.449-19.023,65.233-25.185,26.062-7.049,48.887-8,69.78-2.905,31.607,7.707,56.538,15.348,80.642,22.738l.581.178c.673.2,1.341.413,2.013.612,9.583,2.839,19.532,5.377,30.068,8.064,17.152,4.378,34.885,8.9,54.02,15.429,43.132,14.715,102.2,34.865,150.4,14.527a124.169,124.169,0,0,0,30.787-18.783c13.247-10.786,24.609-23.636,35.6-36.062,10.684-12.085,21.734-24.578,34.452-35.079a124.943,124.943,0,0,1,51.609-25.511c17.575-4.1,37.163-4.852,58.214-2.238,34.289,4.348,72.864,16.668,114.655,36.618,28.539,13.62,76.3,36.419,98.13,52.975l-.387.51c-21.77-16.515-69.5-39.3-98.018-52.908-41.735-19.92-80.244-32.219-114.462-36.562-43.779-5.439-80.566,3.848-109.339,27.611-12.682,10.47-23.712,22.947-34.38,35.012-11,12.447-22.387,25.318-35.675,36.134a124.775,124.775,0,0,1-30.945,18.875c-21.158,8.93-45.976,10.944-75.871,6.168-27.056-4.327-54.759-13.778-74.984-20.679-19.114-6.519-36.837-11.04-53.974-15.414-10.541-2.691-20.5-5.23-30.089-8.069-.678-.2-1.351-.408-2.024-.612l-.581-.178c-24.1-7.386-49.019-15.026-80.606-22.728-46.624-11.367-93.359,9.578-134.6,28.055-9.063,4.062-17.626,7.9-25.9,11.265-2.151.877-4.44,1.8-6.647,2.681-28,11.132-54.483,16.892-80.963,17.616q-7.485.206-15.072-.122Z" transform="translate(-65.009 -85.437)" fill="#dc7689"/>
          <path id="Caminho_6031" data-name="Caminho 6031" d="M347.339,228.4c-21.056-.917-42.785-5.026-65.86-12.432-55.661-17.86-104.349-32.1-156.661-34.37a331.992,331.992,0,0,0-39.967.658L84.8,181.6a334.992,334.992,0,0,1,51.226-.01,395.7,395.7,0,0,1,48.815,6.866c32.245,6.484,64.2,16.418,96.841,26.887,59.881,19.216,111.852,16.418,168.512-9.058,2.34-1.05,4.674-2.131,6.652-3.043,7.6-3.517,15.455-7.457,23.768-11.627,20.144-10.108,42.979-21.561,66.141-28.493,26.531-7.936,49.758-8.833,71.014-2.742,26.454,7.585,48.107,16.622,69.046,25.363,2.987,1.249,6.076,2.538,9.124,3.8l.423.173c.7.291,1.4.581,2.105.861,12.972,5.219,26.786,9.858,41.4,14.766,12.794,4.3,26.026,8.736,39.88,13.961,48.535,18.3,104.237,36.027,151,14.619A120.657,120.657,0,0,0,961.362,213.6c13.023-11.606,24.048-25.419,34.707-38.779,10.424-13.064,21.2-26.571,33.8-37.923a122.58,122.58,0,0,1,51.563-27.876c17.611-4.593,37.321-5.678,58.592-3.226,34.177,4.017,72.96,16.438,115.267,36.908,47.5,22.983,80.555,41.261,98.263,54.331l-.392.53c-17.677-13.044-50.7-31.3-98.161-54.269-42.24-20.44-80.953-32.836-115.058-36.847-44.294-5.112-81.177,5.3-109.635,30.935-12.554,11.311-23.32,24.8-33.723,37.841C985.9,188.6,974.87,202.44,961.8,214.082a121.389,121.389,0,0,1-30.777,20.429,109.9,109.9,0,0,1-37.245,9.343,166.164,166.164,0,0,1-39.029-1.962c-25.873-4.149-51.446-13.018-75.229-21.984-13.844-5.219-27.071-9.659-39.86-13.951-14.629-4.914-28.452-9.552-41.445-14.782-.7-.285-1.407-.576-2.11-.867l-.423-.173c-3.048-1.259-6.137-2.554-9.124-3.8C665.636,177.607,644,168.574,617.585,161c-47.414-13.594-94.838,10.2-136.675,31.189-8.319,4.175-16.173,8.115-23.788,11.637-1.978.917-4.317,1.993-6.657,3.048-28.269,12.712-54.952,19.685-81.58,21.326a204.971,204.971,0,0,1-21.546.189Z" transform="translate(-58.738 -79.48)" fill="#dc7689"/>
          <path id="Caminho_6032" data-name="Caminho 6032" d="M330.109,222.546c-19.543-.851-39.671-4.531-60.9-11.107l-1.835-.566c-67.221-20.822-125.278-38.8-195.308-33.916l-.046-.683c32.051-2.238,63.633.138,99.389,7.483,31.878,6.545,63.108,16.219,96.168,26.459l1.835.566c60.253,18.661,112.693,14.16,170.026-14.588,1.922-.963,4.037-2.044,6.657-3.4,7.065-3.665,14.349-7.712,22.055-12,20.353-11.316,43.418-24.14,66.9-31.842,26.923-8.838,50.482-9.664,72.013-2.533,24.578,8.14,44.814,19.023,64.387,29.543,3.7,1.988,7.529,4.047,11.306,6.04l.143.076c.765.4,1.534.81,2.3,1.208,18.131,9.353,38.111,17.478,59.265,26.087,6.244,2.538,12.7,5.163,19.221,7.87,45.89,19.028,104.594,37.9,151.594,14.71a118.161,118.161,0,0,0,30.435-21.857c12.8-12.427,23.482-27.193,33.814-41.481,10.159-14.053,20.669-28.58,33.147-40.782a120.944,120.944,0,0,1,51.512-30.236c17.651-5.087,37.495-6.5,58.974-4.215,34.085,3.7,73.073,16.209,115.879,37.2,41.272,20.236,78.058,41.052,98.4,55.686l-.4.556c-20.312-14.608-57.062-35.4-98.3-55.625-42.734-20.954-81.646-33.448-115.649-37.138-44.809-4.781-81.794,6.744-109.935,34.258-12.437,12.162-22.927,26.663-33.07,40.691-10.347,14.308-21.046,29.1-33.891,41.567a118.875,118.875,0,0,1-30.614,21.984,106.793,106.793,0,0,1-37.413,10.3,156.9,156.9,0,0,1-39.284-1.682c-27.825-4.465-54.942-14.807-75.458-23.314-6.519-2.7-12.972-5.332-19.216-7.87-21.168-8.609-41.165-16.744-59.321-26.113-.775-.4-1.539-.805-2.309-1.208l-.143-.076c-3.777-1.993-7.6-4.052-11.306-6.045-19.547-10.51-39.758-21.377-64.28-29.5-48.01-15.9-96.01,10.78-138.357,34.324-7.712,4.287-15,8.339-22.071,12.009-2.625,1.361-4.74,2.442-6.667,3.41-28.513,14.3-55.4,22.489-82.192,25.042a198.189,198.189,0,0,1-27.443.693Z" transform="translate(-52.472 -73.499)" fill="#dc7689"/>
          <path id="Caminho_6033" data-name="Caminho 6033" d="M842.219,242.448a166.79,166.79,0,0,1-19.232-1.993c-22.249-3.568-47.006-11.637-75.672-24.665-29.671-13.482-53.908-25.318-75.774-39.233-.8-.5-1.58-1.014-2.38-1.534-4.073-2.645-8.2-5.4-12.187-8.053-18.533-12.35-37.693-25.124-60.891-33.886-48.433-18.3-96.938,11.326-139.733,37.459-7.212,4.4-14.027,8.568-20.659,12.376-2.508,1.442-4.689,2.676-6.677,3.772-28.7,15.873-55.783,25.267-82.783,28.717-28.463,3.639-57.674.846-89.3-8.543q-5.581-1.674-11.091-3.344C184.314,184.947,126.2,167.4,59.276,171.613l-.046-.708c30.613-1.927,60.84.4,95.133,7.314,30.506,6.152,60.218,15.123,91.677,24.619q5.52,1.667,11.091,3.344a231.4,231.4,0,0,0,56,9.812c38.947,1.692,76.1-8.125,115.542-29.93,1.983-1.1,4.164-2.329,6.667-3.767,6.621-3.808,13.431-7.967,20.643-12.371,20.526-12.534,43.79-26.745,67.537-35.232,27.265-9.746,51.084-10.5,72.818-2.284C619.606,141.2,638.8,154,657.37,166.373c3.986,2.661,8.11,5.408,12.182,8.054.8.52,1.58,1.025,2.375,1.529,21.826,13.895,46.043,25.71,75.688,39.182,41.6,18.905,102.631,41.007,152.186,14.807a116.364,116.364,0,0,0,30.262-23.4c12.585-13.237,22.922-28.957,32.922-44.162,9.894-15.042,20.129-30.6,32.489-43.657a120.036,120.036,0,0,1,51.456-32.6c17.7-5.581,37.668-7.33,59.356-5.2,34,3.374,73.19,15.99,116.49,37.495,35.9,17.83,74.581,40.222,98.538,57.037l-.408.581c-23.931-16.8-62.573-39.167-98.446-56.986-43.219-21.464-82.329-34.054-116.246-37.423-45.319-4.45-82.411,8.2-110.231,37.581-12.32,13.013-22.535,28.539-32.413,43.56-10.016,15.23-20.378,30.98-33,44.264a117.137,117.137,0,0,1-30.445,23.534,104.343,104.343,0,0,1-37.586,11.27,133.7,133.7,0,0,1-20.317.6Z" transform="translate(-46.202 -67.487)" fill="#dc7689"/>
          <path id="Caminho_6034" data-name="Caminho 6034" d="M825.356,241.623c-27.606-1.2-59.061-10.521-94.134-27.937-28.376-14.094-52.261-28.646-73.006-44.483q-1.155-.887-2.3-1.779c-4.221-3.288-8.492-6.728-12.621-10.052-17.631-14.2-35.864-28.875-57.949-38.295-48.719-20.771-99.833,13.263-140.9,40.614-6.789,4.521-13.2,8.793-19.451,12.733-2.452,1.55-4.638,2.9-6.687,4.139-28.926,17.473-56.206,28.085-83.389,32.454a186.855,186.855,0,0,1-37.862,2.166,224.682,224.682,0,0,1-52.389-8.895c-7.167-2.069-14.338-4.18-21.275-6.219-58.327-17.157-113.422-33.361-176.886-29.8l-.041-.734C110.052,161.97,165.2,178.189,223.6,195.362c6.937,2.039,14.109,4.149,21.27,6.219,61.232,17.57,114.609,9.659,173.058-25.644,2.044-1.234,4.226-2.584,6.672-4.129,6.239-3.935,12.646-8.206,19.435-12.722,20.684-13.773,44.131-29.385,68.118-38.672,27.576-10.673,51.609-11.331,73.481-2.008,22.183,9.455,40.451,24.171,58.123,38.4,4.124,3.323,8.39,6.759,12.61,10.041q1.147.895,2.3,1.779c20.71,15.811,44.549,30.333,72.889,44.406,63.23,31.4,114.635,36.414,152.777,14.894a115.263,115.263,0,0,0,30.089-24.935c12.366-14.048,22.366-30.715,32.041-46.833,9.629-16.041,19.578-32.627,31.827-46.547,14.512-16.489,31.806-28.254,51.4-34.961,17.743-6.071,37.846-8.155,59.744-6.193,18.126,1.636,37.933,6.04,58.867,13.084a452.006,452.006,0,0,1,58.235,24.706,898.631,898.631,0,0,1,98.671,58.393l-.418.607a897.9,897.9,0,0,0-98.589-58.342c-43.693-21.969-83-34.656-116.837-37.714-45.839-4.113-83.027,9.649-110.527,40.9-12.2,13.869-22.142,30.425-31.75,46.44-9.69,16.148-19.711,32.841-32.117,46.94a116.034,116.034,0,0,1-30.277,25.088c-17.162,9.685-36.985,14.032-59.331,13.059Z" transform="translate(-39.941 -61.448)" fill="#dc7689"/>
          <path id="Caminho_6035" data-name="Caminho 6035" d="M808.478,240.792a152.541,152.541,0,0,1-17.335-1.779,206.662,206.662,0,0,1-39.61-10.73,291.148,291.148,0,0,1-36.419-16.714,362.454,362.454,0,0,1-70.239-49.738c-5.061-4.572-10.148-9.425-15.062-14.119-16.78-16.02-34.13-32.581-55.228-42.653-21.744-10.373-45.757-9.812-73.414,1.723-24.125,10.062-47.709,27.071-68.521,42.077-8.823,6.361-17.157,12.371-25.073,17.56-29.13,19.079-56.6,30.914-83.991,36.19a181.674,181.674,0,0,1-42.48,3.094,217.121,217.121,0,0,1-48.724-8.008c-10.2-2.829-20.353-5.755-30.17-8.589-55.569-16.036-108.055-31.179-168.507-28.2l-.036-.759c60.58-2.992,113.126,12.172,168.756,28.223,9.812,2.834,19.96,5.76,30.16,8.589,61.7,17.1,115.537,7.488,174.572-31.174,7.906-5.174,16.229-11.183,25.047-17.539,20.842-15.031,44.462-32.066,68.669-42.164,27.866-11.622,52.083-12.177,74.036-1.708,21.209,10.123,38.606,26.729,55.426,42.785,4.914,4.689,9.99,9.542,15.047,14.1A361.518,361.518,0,0,0,715.475,210.9c35,18.951,101.464,46.094,153.368,14.986,28.88-17.31,45.247-47.123,61.074-75.958,9.353-17.04,19.028-34.661,31.164-49.453a123.714,123.714,0,0,1,35.354-29.987,118.951,118.951,0,0,1,40.543-13.553,162.452,162.452,0,0,1,43.912-.1,254.8,254.8,0,0,1,45.5,10.368c27.147,8.675,56.176,21.826,88.736,40.211,27.086,15.291,51.547,31.332,73.944,46.384l-.423.632c-50.951-34.243-105.9-68.424-162.487-86.5-72.222-23.075-127.566-11.963-164.5,33.03-12.09,14.731-21.75,32.321-31.088,49.335-7.926,14.44-16.122,29.37-25.807,42.577-10.877,14.838-22.5,25.853-35.542,33.667-17.483,10.475-37.857,15.246-60.753,14.252Z" transform="translate(-33.67 -55.397)" fill="#dc7689"/>
        </g>
      </g>
    </g>
  </g>
</svg>
