<?xml version="1.0" encoding="utf-8"?>
<!-- Generator: Adobe Illustrator 28.0.0, SVG Export Plug-In . SVG Version: 6.00 Build 0)  -->
<svg version="1.1" id="Camada_1" xmlns="http://www.w3.org/2000/svg" xmlns:xlink="http://www.w3.org/1999/xlink" x="0px" y="0px"
	 viewBox="0 0 633 173" style="enable-background:new 0 0 633 173;" xml:space="preserve">
<style type="text/css">
	.st0{enable-background:new    ;}
	.st1{fill:#FFFFFF;}
	.st2{filter:url(#Oportunidades_de_Carreira);}
</style>
<filter  id="Oportunidades_de_Carreira">
	<feOffset  dy="3" input="SourceAlpha"></feOffset>
	<feGaussianBlur  result="blur" stdDeviation="1.5"></feGaussianBlur>
	<feFlood  flood-opacity="0.161" result="color"></feFlood>
	<feComposite  in="SourceGraphic" in2="blur" operator="out"></feComposite>
	<feComposite  in="color" operator="in"></feComposite>
	<feComposite  in2="SourceGraphic" operator="in"></feComposite>
</filter>
<g>
	<g class="st0">
		<path class="st1" d="M43.8,56.7c-4.6,4.5-10.2,6.7-17,6.7c-6.7,0-12.4-2.2-17-6.7C5.3,52.2,3,46.7,3,40c0-6.7,2.3-12.3,6.9-16.7
			c4.6-4.5,10.2-6.7,17-6.7c6.7,0,12.4,2.2,17,6.7c4.6,4.5,6.9,10.1,6.9,16.7C50.7,46.7,48.4,52.2,43.8,56.7z M40.4,40
			c0-4.1-1.3-7.5-3.9-10.4c-2.6-2.9-5.8-4.3-9.6-4.3c-3.8,0-7,1.4-9.6,4.3c-2.6,2.9-3.9,6.3-3.9,10.4c0,4.1,1.3,7.5,3.9,10.3
			c2.6,2.8,5.8,4.3,9.6,4.3c3.8,0,7-1.4,9.6-4.3C39.1,47.5,40.4,44.1,40.4,40z"/>
		<path class="st1" d="M90.6,21.6c3.2,2.7,4.8,6.9,4.8,12.5c0,5.6-1.6,9.7-4.9,12.3c-3.3,2.6-8.3,3.9-15,3.9h-6V63H59.3V17.6h16.1
			C82.3,17.6,87.4,18.9,90.6,21.6z M83.1,39.5c1.2-1.4,1.8-3.4,1.8-6c0-2.6-0.8-4.5-2.4-5.6c-1.6-1.1-4-1.7-7.4-1.7h-5.8v15.3h6.8
			C79.6,41.5,81.9,40.9,83.1,39.5z"/>
		<path class="st1" d="M141.5,56.7c-4.6,4.5-10.2,6.7-17,6.7c-6.7,0-12.4-2.2-17-6.7c-4.6-4.5-6.9-10.1-6.9-16.7
			c0-6.7,2.3-12.3,6.9-16.7c4.6-4.5,10.2-6.7,17-6.7c6.7,0,12.4,2.2,17,6.7c4.6,4.5,6.9,10.1,6.9,16.7
			C148.4,46.7,146.1,52.2,141.5,56.7z M138.1,40c0-4.1-1.3-7.5-3.9-10.4c-2.6-2.9-5.8-4.3-9.6-4.3c-3.8,0-7,1.4-9.6,4.3
			c-2.6,2.9-3.9,6.3-3.9,10.4c0,4.1,1.3,7.5,3.9,10.3c2.6,2.8,5.8,4.3,9.6,4.3c3.8,0,7-1.4,9.6-4.3C136.8,47.5,138.1,44.1,138.1,40z
			"/>
		<path class="st1" d="M193.8,32.6c0,7.3-2.9,12-8.6,14.1L196.7,63h-12.5l-10.1-14.5h-7V63H157V17.6h17.2c7.1,0,12.1,1.2,15.1,3.6
			C192.3,23.5,193.8,27.4,193.8,32.6z M181.6,38c1.3-1.1,1.9-2.9,1.9-5.4s-0.6-4.1-1.9-5c-1.3-0.9-3.6-1.4-6.8-1.4h-7.6v13.5h7.4
			C178,39.7,180.4,39.2,181.6,38z"/>
		<path class="st1" d="M222.6,26.3V63h-10.1V26.3h-12.9v-8.8h35.9v8.8H222.6z"/>
		<path class="st1" d="M254.9,51.3c1.7,2.1,4,3.2,6.8,3.2s5.1-1,6.8-3.2c1.7-2.1,2.5-5,2.5-8.6V17.6h10.1V43
			c0,6.6-1.8,11.6-5.5,15.2c-3.6,3.5-8.3,5.3-14,5.3c-5.7,0-10.3-1.8-14-5.3c-3.7-3.6-5.5-8.6-5.5-15.1V17.6h10.1v25.1
			C252.3,46.3,253.2,49.2,254.9,51.3z"/>
		<path class="st1" d="M323.4,17.6h10.1V63h-10.1l-21.6-28.5V63h-10.1V17.6h9.5l22.3,29.2V17.6z"/>
		<path class="st1" d="M344.8,17.6h10.1V63h-10.1V17.6z"/>
		<path class="st1" d="M400.8,23.5c4.3,4,6.5,9.5,6.5,16.5c0,7.1-2.1,12.7-6.3,16.8c-4.2,4.1-10.7,6.2-19.3,6.2h-15.5V17.6h16.1
			C390.2,17.6,396.5,19.5,400.8,23.5z M393.3,50.5c2.5-2.3,3.7-5.7,3.7-10.2s-1.2-7.9-3.7-10.3c-2.5-2.4-6.3-3.6-11.5-3.6h-5.7V54
			h6.4C387.3,54,390.8,52.9,393.3,50.5z"/>
		<path class="st1" d="M447.1,63l-4.2-9.8h-19l-4.2,9.8h-10.8l19.6-45.4h9.8L457.9,63H447.1z M433.4,31.1l-5.7,13.2h11.4L433.4,31.1
			z"/>
		<path class="st1" d="M497.9,23.5c4.3,4,6.5,9.5,6.5,16.5c0,7.1-2.1,12.7-6.3,16.8c-4.2,4.1-10.7,6.2-19.3,6.2h-15.5V17.6h16.1
			C487.3,17.6,493.6,19.5,497.9,23.5z M490.5,50.5c2.5-2.3,3.7-5.7,3.7-10.2s-1.2-7.9-3.7-10.3c-2.5-2.4-6.3-3.6-11.5-3.6h-5.7V54
			h6.4C484.4,54,488,52.9,490.5,50.5z"/>
		<path class="st1" d="M545.9,17.6v9h-22.6V36h20.3v8.6h-20.3V54h23.3v9h-33.5V17.6H545.9z"/>
		<path class="st1" d="M566.3,26.6c-1,0.8-1.5,1.9-1.5,3.2c0,1.3,0.6,2.4,1.8,3.2c1.2,0.8,3.9,1.7,8.3,2.8c4.3,1.1,7.7,2.7,10,4.8
			c2.4,2.1,3.6,5.2,3.6,9.3c0,4.1-1.5,7.4-4.6,9.9c-3.1,2.5-7.1,3.8-12.1,3.8c-7.2,0-13.7-2.7-19.4-8l6-7.4
			c4.9,4.3,9.4,6.4,13.6,6.4c1.9,0,3.3-0.4,4.4-1.2c1.1-0.8,1.6-1.9,1.6-3.2s-0.6-2.4-1.7-3.2c-1.1-0.8-3.4-1.6-6.7-2.4
			c-5.3-1.3-9.2-2.9-11.6-4.9c-2.4-2-3.7-5.2-3.7-9.5c0-4.3,1.5-7.6,4.6-10c3.1-2.3,7-3.5,11.6-3.5c3,0,6.1,0.5,9.1,1.6
			s5.7,2.5,7.9,4.4l-5.1,7.4c-3.9-3-8-4.5-12.2-4.5C568.6,25.4,567.3,25.8,566.3,26.6z"/>
	</g>
	<g class="st0">
		<path class="st1" d="M40.3,102.5c4.3,4,6.5,9.5,6.5,16.5c0,7.1-2.1,12.7-6.3,16.8c-4.2,4.1-10.7,6.2-19.3,6.2H5.6V96.6h16.1
			C29.7,96.6,36,98.5,40.3,102.5z M32.9,129.5c2.5-2.3,3.7-5.7,3.7-10.2s-1.2-7.9-3.7-10.3c-2.5-2.4-6.3-3.6-11.5-3.6h-5.7V133h6.4
			C26.8,133,30.4,131.9,32.9,129.5z"/>
		<path class="st1" d="M88.3,96.6v9H65.7v9.4h20.3v8.6H65.7v9.4H89v9H55.6V96.6H88.3z"/>
		<path class="st1" d="M136.1,133c5,0,9.1-2,12.2-5.9l6.5,6.7c-5.2,5.8-11.2,8.7-18.2,8.7c-7,0-12.8-2.2-17.3-6.6
			c-4.5-4.4-6.8-10-6.8-16.7c0-6.7,2.3-12.4,6.9-16.9c4.6-4.5,10.3-6.8,16.9-6.8c7.5,0,13.7,2.8,18.7,8.5l-6.3,7.2
			c-3.2-4-7.2-6-12-6c-3.8,0-7.1,1.2-9.8,3.7c-2.7,2.5-4.1,5.9-4.1,10.1s1.3,7.6,3.8,10.2C129.4,131.8,132.5,133,136.1,133z"/>
		<path class="st1" d="M194.9,142l-4.2-9.8h-19l-4.2,9.8h-10.8l19.6-45.4h9.8l19.6,45.4H194.9z M181.2,110.1l-5.7,13.2h11.4
			L181.2,110.1z"/>
		<path class="st1" d="M247.8,111.6c0,7.3-2.9,12-8.6,14.1l11.5,16.2h-12.5l-10.1-14.5h-7V142h-10.1V96.6h17.2
			c7.1,0,12.1,1.2,15.1,3.6C246.3,102.5,247.8,106.4,247.8,111.6z M235.6,117c1.3-1.1,1.9-2.9,1.9-5.4s-0.6-4.1-1.9-5
			c-1.3-0.9-3.6-1.4-6.8-1.4h-7.6v13.5h7.4C231.9,118.7,234.3,118.2,235.6,117z"/>
		<path class="st1" d="M295,111.6c0,7.3-2.9,12-8.6,14.1l11.5,16.2h-12.5l-10.1-14.5h-7V142h-10.1V96.6h17.2
			c7.1,0,12.1,1.2,15.1,3.6C293.5,102.5,295,106.4,295,111.6z M282.8,117c1.3-1.1,1.9-2.9,1.9-5.4s-0.6-4.1-1.9-5
			c-1.3-0.9-3.6-1.4-6.8-1.4h-7.6v13.5h7.4C279.2,118.7,281.6,118.2,282.8,117z"/>
		<path class="st1" d="M338.2,96.6v9h-22.6v9.4h20.3v8.6h-20.3v9.4h23.3v9h-33.5V96.6H338.2z"/>
		<path class="st1" d="M347.9,96.6h10.1V142h-10.1V96.6z"/>
		<path class="st1" d="M406.1,111.6c0,7.3-2.9,12-8.6,14.1L409,142h-12.5l-10.1-14.5h-7V142h-10.1V96.6h17.2
			c7.1,0,12.1,1.2,15.1,3.6C404.6,102.5,406.1,106.4,406.1,111.6z M393.9,117c1.3-1.1,1.9-2.9,1.9-5.4s-0.7-4.1-2-5
			c-1.3-0.9-3.6-1.4-6.8-1.4h-7.6v13.5h7.4C390.3,118.7,392.6,118.2,393.9,117z"/>
		<path class="st1" d="M448.9,142l-4.2-9.8h-19l-4.2,9.8h-10.8l19.6-45.4h9.8l19.6,45.4H448.9z M435.2,110.1l-5.7,13.2h11.4
			L435.2,110.1z"/>
	</g>
	<g transform="matrix(1, 0, 0, 1, 0, 0)" class="st2">
		<g class="st0">
			<path class="st1" d="M43.8,56.7c-4.6,4.5-10.2,6.7-17,6.7c-6.7,0-12.4-2.2-17-6.7C5.3,52.2,3,46.7,3,40c0-6.7,2.3-12.3,6.9-16.7
				c4.6-4.5,10.2-6.7,17-6.7c6.7,0,12.4,2.2,17,6.7c4.6,4.5,6.9,10.1,6.9,16.7C50.7,46.7,48.4,52.2,43.8,56.7z M40.4,40
				c0-4.1-1.3-7.5-3.9-10.4c-2.6-2.9-5.8-4.3-9.6-4.3c-3.8,0-7,1.4-9.6,4.3c-2.6,2.9-3.9,6.3-3.9,10.4c0,4.1,1.3,7.5,3.9,10.3
				c2.6,2.8,5.8,4.3,9.6,4.3c3.8,0,7-1.4,9.6-4.3C39.1,47.5,40.4,44.1,40.4,40z"/>
			<path class="st1" d="M90.6,21.6c3.2,2.7,4.8,6.9,4.8,12.5c0,5.6-1.6,9.7-4.9,12.3c-3.3,2.6-8.3,3.9-15,3.9h-6V63H59.3V17.6h16.1
				C82.3,17.6,87.4,18.9,90.6,21.6z M83.1,39.5c1.2-1.4,1.8-3.4,1.8-6c0-2.6-0.8-4.5-2.4-5.6c-1.6-1.1-4-1.7-7.4-1.7h-5.8v15.3h6.8
				C79.6,41.5,81.9,40.9,83.1,39.5z"/>
			<path class="st1" d="M141.5,56.7c-4.6,4.5-10.2,6.7-17,6.7c-6.7,0-12.4-2.2-17-6.7c-4.6-4.5-6.9-10.1-6.9-16.7
				c0-6.7,2.3-12.3,6.9-16.7c4.6-4.5,10.2-6.7,17-6.7c6.7,0,12.4,2.2,17,6.7c4.6,4.5,6.9,10.1,6.9,16.7
				C148.4,46.7,146.1,52.2,141.5,56.7z M138.1,40c0-4.1-1.3-7.5-3.9-10.4c-2.6-2.9-5.8-4.3-9.6-4.3c-3.8,0-7,1.4-9.6,4.3
				c-2.6,2.9-3.9,6.3-3.9,10.4c0,4.1,1.3,7.5,3.9,10.3c2.6,2.8,5.8,4.3,9.6,4.3c3.8,0,7-1.4,9.6-4.3C136.8,47.5,138.1,44.1,138.1,40
				z"/>
			<path class="st1" d="M193.8,32.6c0,7.3-2.9,12-8.6,14.1L196.7,63h-12.5l-10.1-14.5h-7V63H157V17.6h17.2c7.1,0,12.1,1.2,15.1,3.6
				C192.3,23.5,193.8,27.4,193.8,32.6z M181.6,38c1.3-1.1,1.9-2.9,1.9-5.4s-0.6-4.1-1.9-5c-1.3-0.9-3.6-1.4-6.8-1.4h-7.6v13.5h7.4
				C178,39.7,180.4,39.2,181.6,38z"/>
			<path class="st1" d="M222.6,26.3V63h-10.1V26.3h-12.9v-8.8h35.9v8.8H222.6z"/>
			<path class="st1" d="M254.9,51.3c1.7,2.1,4,3.2,6.8,3.2s5.1-1,6.8-3.2c1.7-2.1,2.5-5,2.5-8.6V17.6h10.1V43
				c0,6.6-1.8,11.6-5.5,15.2c-3.6,3.5-8.3,5.3-14,5.3c-5.7,0-10.3-1.8-14-5.3c-3.7-3.6-5.5-8.6-5.5-15.1V17.6h10.1v25.1
				C252.3,46.3,253.2,49.2,254.9,51.3z"/>
			<path class="st1" d="M323.4,17.6h10.1V63h-10.1l-21.6-28.5V63h-10.1V17.6h9.5l22.3,29.2V17.6z"/>
			<path class="st1" d="M344.8,17.6h10.1V63h-10.1V17.6z"/>
			<path class="st1" d="M400.8,23.5c4.3,4,6.5,9.5,6.5,16.5c0,7.1-2.1,12.7-6.3,16.8c-4.2,4.1-10.7,6.2-19.3,6.2h-15.5V17.6h16.1
				C390.2,17.6,396.5,19.5,400.8,23.5z M393.3,50.5c2.5-2.3,3.7-5.7,3.7-10.2s-1.2-7.9-3.7-10.3c-2.5-2.4-6.3-3.6-11.5-3.6h-5.7V54
				h6.4C387.3,54,390.8,52.9,393.3,50.5z"/>
			<path class="st1" d="M447.1,63l-4.2-9.8h-19l-4.2,9.8h-10.8l19.6-45.4h9.8L457.9,63H447.1z M433.4,31.1l-5.7,13.2h11.4
				L433.4,31.1z"/>
			<path class="st1" d="M497.9,23.5c4.3,4,6.5,9.5,6.5,16.5c0,7.1-2.1,12.7-6.3,16.8c-4.2,4.1-10.7,6.2-19.3,6.2h-15.5V17.6h16.1
				C487.3,17.6,493.6,19.5,497.9,23.5z M490.5,50.5c2.5-2.3,3.7-5.7,3.7-10.2s-1.2-7.9-3.7-10.3c-2.5-2.4-6.3-3.6-11.5-3.6h-5.7V54
				h6.4C484.4,54,488,52.9,490.5,50.5z"/>
			<path class="st1" d="M545.9,17.6v9h-22.6V36h20.3v8.6h-20.3V54h23.3v9h-33.5V17.6H545.9z"/>
			<path class="st1" d="M566.3,26.6c-1,0.8-1.5,1.9-1.5,3.2c0,1.3,0.6,2.4,1.8,3.2c1.2,0.8,3.9,1.7,8.3,2.8c4.3,1.1,7.7,2.7,10,4.8
				c2.4,2.1,3.6,5.2,3.6,9.3c0,4.1-1.5,7.4-4.6,9.9c-3.1,2.5-7.1,3.8-12.1,3.8c-7.2,0-13.7-2.7-19.4-8l6-7.4
				c4.9,4.3,9.4,6.4,13.6,6.4c1.9,0,3.3-0.4,4.4-1.2c1.1-0.8,1.6-1.9,1.6-3.2s-0.6-2.4-1.7-3.2c-1.1-0.8-3.4-1.6-6.7-2.4
				c-5.3-1.3-9.2-2.9-11.6-4.9c-2.4-2-3.7-5.2-3.7-9.5c0-4.3,1.5-7.6,4.6-10c3.1-2.3,7-3.5,11.6-3.5c3,0,6.1,0.5,9.1,1.6
				s5.7,2.5,7.9,4.4l-5.1,7.4c-3.9-3-8-4.5-12.2-4.5C568.6,25.4,567.3,25.8,566.3,26.6z"/>
		</g>
		<g class="st0">
			<path class="st1" d="M40.3,102.5c4.3,4,6.5,9.5,6.5,16.5c0,7.1-2.1,12.7-6.3,16.8c-4.2,4.1-10.7,6.2-19.3,6.2H5.6V96.6h16.1
				C29.7,96.6,36,98.5,40.3,102.5z M32.9,129.5c2.5-2.3,3.7-5.7,3.7-10.2s-1.2-7.9-3.7-10.3c-2.5-2.4-6.3-3.6-11.5-3.6h-5.7V133h6.4
				C26.8,133,30.4,131.9,32.9,129.5z"/>
			<path class="st1" d="M88.3,96.6v9H65.7v9.4h20.3v8.6H65.7v9.4H89v9H55.6V96.6H88.3z"/>
			<path class="st1" d="M136.1,133c5,0,9.1-2,12.2-5.9l6.5,6.7c-5.2,5.8-11.2,8.7-18.2,8.7c-7,0-12.8-2.2-17.3-6.6
				c-4.5-4.4-6.8-10-6.8-16.7c0-6.7,2.3-12.4,6.9-16.9c4.6-4.5,10.3-6.8,16.9-6.8c7.5,0,13.7,2.8,18.7,8.5l-6.3,7.2
				c-3.2-4-7.2-6-12-6c-3.8,0-7.1,1.2-9.8,3.7c-2.7,2.5-4.1,5.9-4.1,10.1s1.3,7.6,3.8,10.2C129.4,131.8,132.5,133,136.1,133z"/>
			<path class="st1" d="M194.9,142l-4.2-9.8h-19l-4.2,9.8h-10.8l19.6-45.4h9.8l19.6,45.4H194.9z M181.2,110.1l-5.7,13.2h11.4
				L181.2,110.1z"/>
			<path class="st1" d="M247.8,111.6c0,7.3-2.9,12-8.6,14.1l11.5,16.2h-12.5l-10.1-14.5h-7V142h-10.1V96.6h17.2
				c7.1,0,12.1,1.2,15.1,3.6C246.3,102.5,247.8,106.4,247.8,111.6z M235.6,117c1.3-1.1,1.9-2.9,1.9-5.4s-0.6-4.1-1.9-5
				c-1.3-0.9-3.6-1.4-6.8-1.4h-7.6v13.5h7.4C231.9,118.7,234.3,118.2,235.6,117z"/>
			<path class="st1" d="M295,111.6c0,7.3-2.9,12-8.6,14.1l11.5,16.2h-12.5l-10.1-14.5h-7V142h-10.1V96.6h17.2
				c7.1,0,12.1,1.2,15.1,3.6C293.5,102.5,295,106.4,295,111.6z M282.8,117c1.3-1.1,1.9-2.9,1.9-5.4s-0.6-4.1-1.9-5
				c-1.3-0.9-3.6-1.4-6.8-1.4h-7.6v13.5h7.4C279.2,118.7,281.6,118.2,282.8,117z"/>
			<path class="st1" d="M338.2,96.6v9h-22.6v9.4h20.3v8.6h-20.3v9.4h23.3v9h-33.5V96.6H338.2z"/>
			<path class="st1" d="M347.9,96.6h10.1V142h-10.1V96.6z"/>
			<path class="st1" d="M406.1,111.6c0,7.3-2.9,12-8.6,14.1L409,142h-12.5l-10.1-14.5h-7V142h-10.1V96.6h17.2
				c7.1,0,12.1,1.2,15.1,3.6C404.6,102.5,406.1,106.4,406.1,111.6z M393.9,117c1.3-1.1,1.9-2.9,1.9-5.4s-0.7-4.1-2-5
				c-1.3-0.9-3.6-1.4-6.8-1.4h-7.6v13.5h7.4C390.3,118.7,392.6,118.2,393.9,117z"/>
			<path class="st1" d="M448.9,142l-4.2-9.8h-19l-4.2,9.8h-10.8l19.6-45.4h9.8l19.6,45.4H448.9z M435.2,110.1l-5.7,13.2h11.4
				L435.2,110.1z"/>
		</g>
	</g>
</g>
</svg>
