<svg xmlns="http://www.w3.org/2000/svg" width="104" height="104" viewBox="0 0 104 104">
  <g id="Grupo_4488" data-name="Grupo 4488" transform="translate(-887 -1832)">
    <g id="Elipse_175" data-name="Elipse 175" transform="translate(893 1838)" fill="#fff" stroke="#952d98" stroke-width="6">
      <circle cx="46" cy="46" r="46" stroke="none"/>
      <circle cx="46" cy="46" r="49" fill="none"/>
    </g>
    <g id="Grupo_4478" data-name="Grupo 4478" transform="translate(901.4 1849.568)">
      <g id="Grupo_4477" data-name="Grupo 4477" transform="translate(1 1)">
        <g id="Grupo_4474" data-name="Grupo 4474">
          <path id="Caminho_8867" data-name="Caminho 8867" d="M23.4,17.4v6.286l9.205,2.806a8.356,8.356,0,0,1,3.031,1.8h0a7.084,7.084,0,0,1,1.908,4.827v1.8" transform="translate(1.746 1.01)" fill="none" stroke="#952d98" stroke-linecap="round" stroke-miterlimit="10" stroke-width="2"/>
          <path id="Caminho_8868" data-name="Caminho 8868" d="M20.308,21.88a3.461,3.461,0,0,0,2.133,0h0A8.985,8.985,0,0,0,26.595,19.3h0a9.466,9.466,0,0,0,2.245-4.49l.112-.449a8.5,8.5,0,0,0,.112-1.684V8.746A7.932,7.932,0,0,0,21.206,1h0a7.761,7.761,0,0,0-7.746,7.746h0v3.817a8.5,8.5,0,0,0,.112,1.684l.112.449a9.466,9.466,0,0,0,2.245,4.49h0l.449.449V25.7l-11,3.368A4.944,4.944,0,0,0,1.9,33.218L1,40.627V51.179a4.218,4.218,0,0,0,4.154,4.154h19.2" transform="translate(-1 -1)" fill="none" stroke="#952d98" stroke-linecap="round" stroke-miterlimit="10" stroke-width="2"/>
          <path id="Caminho_8869" data-name="Caminho 8869" d="M14.6,23.1v4.154h1.572L19.2,25.008h1.123l2.582,2.245h1.572V23.1" transform="translate(0.667 1.709)" fill="none" stroke="#952d98" stroke-linecap="round" stroke-miterlimit="10" stroke-width="2"/>
          <line id="Linha_124" data-name="Linha 124" y2="2.47" transform="translate(20.206 31.208)" fill="none" stroke="#952d98" stroke-linecap="round" stroke-miterlimit="10" stroke-width="2"/>
          <line id="Linha_125" data-name="Linha 125" x1="0.241" y2="7.932" transform="translate(7.858 54.932)" fill="none" stroke="#952d98" stroke-linecap="round" stroke-miterlimit="10" stroke-width="2"/>
        </g>
        <line id="Linha_126" data-name="Linha 126" x1="6.121" y1="6.121" transform="translate(20.111 40.13)" fill="none" stroke="#952d98" stroke-linecap="round" stroke-miterlimit="10" stroke-width="2"/>
        <path id="Caminho_8870" data-name="Caminho 8870" d="M8,35v8.981H25.737" transform="translate(-0.142 3.168)" fill="none" stroke="#952d98" stroke-linecap="round" stroke-miterlimit="10" stroke-width="2"/>
        <path id="Caminho_8871" data-name="Caminho 8871" d="M38.613,56.613H33V52.459L34.123,51h6.735v2.245Z" transform="translate(2.922 5.129)" fill="none" stroke="#952d98" stroke-linecap="round" stroke-miterlimit="10" stroke-width="2"/>
        <path id="Caminho_8872" data-name="Caminho 8872" d="M39.745,52.614l4.827-16.165L44.348,36H26.723L20.1,58.227l.225.225H31.213" transform="translate(1.341 3.29)" fill="none" stroke="#952d98" stroke-linecap="round" stroke-miterlimit="10" stroke-width="2"/>
        <g id="Grupo_4476" data-name="Grupo 4476" transform="translate(35.249)">
          <g id="Grupo_4475" data-name="Grupo 4475">
            <path id="Caminho_8873" data-name="Caminho 8873" d="M41.605,17.4v6.286L32.4,26.605" transform="translate(-32.4 1.01)" fill="none" stroke="#952d98" stroke-linecap="round" stroke-miterlimit="10" stroke-width="2"/>
            <path id="Caminho_8874" data-name="Caminho 8874" d="M46.756,21.88a3.461,3.461,0,0,1-2.133,0h0A8.985,8.985,0,0,1,40.47,19.3h0a9.466,9.466,0,0,1-2.245-4.49l-.112-.449A8.5,8.5,0,0,1,38,12.675V8.746A7.932,7.932,0,0,1,45.858,1h0A7.761,7.761,0,0,1,53.6,8.746v3.817a8.5,8.5,0,0,1-.112,1.684l-.112.449a9.466,9.466,0,0,1-2.245,4.49h0l-.449.449V25.7l11,3.368a4.811,4.811,0,0,1,3.48,4.154l.9,7.409V63.864" transform="translate(-31.714 -1)" fill="none" stroke="#952d98" stroke-linecap="round" stroke-miterlimit="10" stroke-width="2"/>
          </g>
          <line id="Linha_127" data-name="Linha 127" y2="24.482" transform="translate(26.831 38.382)" fill="none" stroke="#952d98" stroke-linecap="round" stroke-miterlimit="10" stroke-width="2"/>
        </g>
      </g>
      <path id="Caminho_8875" data-name="Caminho 8875" d="M54.326,23.8a9.112,9.112,0,0,1-11.563,5.276A9.294,9.294,0,0,1,37.6,24.137" transform="translate(4.486 2.795)" fill="none" stroke="#952d98" stroke-linecap="round" stroke-miterlimit="10" stroke-width="2"/>
    </g>
  </g>
</svg>
