<svg xmlns="http://www.w3.org/2000/svg" width="104" height="104" viewBox="0 0 104 104">
  <g id="Grupo_4491" data-name="Grupo 4491" transform="translate(-887 -2441)">
    <g id="Elipse_178" data-name="Elipse 178" transform="translate(893 2447)" fill="#fff" stroke="#e17000" stroke-width="6">
      <circle cx="46" cy="46" r="46" stroke="none"/>
      <circle cx="46" cy="46" r="49" fill="none"/>
    </g>
    <g id="Grupo_4489" data-name="Grupo 4489" transform="translate(890.296 2443.881)">
      <g id="Grupo_4483" data-name="Grupo 4483" transform="translate(14.635 16.7)">
        <g id="Grupo_4481" data-name="Grupo 4481" transform="translate(32.285 0)">
          <path id="Caminho_8878" data-name="Caminho 8878" d="M259.29,93.06v-11.4a2.679,2.679,0,0,0-2.652-2.679h0a2.679,2.679,0,0,0-2.706,2.678l-.011,16.1" transform="translate(-253.921 -70.58)" fill="none" stroke="#e17000" stroke-linecap="round" stroke-linejoin="round" stroke-miterlimit="10" stroke-width="2"/>
          <path id="Caminho_8879" data-name="Caminho 8879" d="M299.541,59.151V42.694a2.913,2.913,0,0,0-2.911-2.913h0a2.912,2.912,0,0,0-2.914,2.913V59.148" transform="translate(-288.347 -36.667)" fill="none" stroke="#e17000" stroke-linecap="round" stroke-linejoin="round" stroke-miterlimit="10" stroke-width="2"/>
          <path id="Caminho_8880" data-name="Caminho 8880" d="M342.546,39.187V19.529a2.829,2.829,0,0,0-2.827-2.829h0a2.828,2.828,0,0,0-2.83,2.829V39.185" transform="translate(-325.695 -16.7)" fill="none" stroke="#e17000" stroke-linecap="round" stroke-linejoin="round" stroke-miterlimit="10" stroke-width="2"/>
          <path id="Caminho_8881" data-name="Caminho 8881" d="M381.4,100.783V79.367a2.782,2.782,0,0,1,1.124-2.186h.022s-.34.363-.451.478c.058-.06.2-.2.469-.481,1.331-.919,8.037-8.321,8.037-8.321a2.207,2.207,0,0,0,.641-1.043l3.3-7.14a2.526,2.526,0,0,0-1.178-3.336,2.576,2.576,0,0,0-3.41,1.255c-.573,1.221-2.261,4.932-2.663,5.787a1.141,1.141,0,0,1-.679.6l-1.983.649.011-23.771a2.911,2.911,0,0,0-2.909-2.912h0a2.911,2.911,0,0,0-2.912,2.911V58.433" transform="translate(-361.967 -35.945)" fill="none" stroke="#e17000" stroke-linecap="round" stroke-linejoin="round" stroke-miterlimit="10" stroke-width="2"/>
          <path id="Caminho_8882" data-name="Caminho 8882" d="M343.037,236.715c-3.026,1.149-10.71-1.472-12.3,7.187" transform="translate(-320.375 -207.03)" fill="none" stroke="#e17000" stroke-linecap="round" stroke-linejoin="round" stroke-miterlimit="10" stroke-width="2"/>
        </g>
        <g id="Grupo_4482" data-name="Grupo 4482" transform="translate(0 9.506)">
          <path id="Caminho_8883" data-name="Caminho 8883" d="M189.247,151.855l-.009-10.372a2.241,2.241,0,0,0-2.263-2.239h0a2.241,2.241,0,0,0-2.218,2.241v9.533" transform="translate(-161.803 -132.216)" fill="none" stroke="#e17000" stroke-linecap="round" stroke-linejoin="round" stroke-miterlimit="10" stroke-width="2"/>
          <path id="Caminho_8884" data-name="Caminho 8884" d="M153.52,122.654V108.892a2.436,2.436,0,0,0-2.437-2.436h0a2.436,2.436,0,0,0-2.435,2.436v13.764" transform="translate(-130.567 -103.852)" fill="none" stroke="#e17000" stroke-linecap="round" stroke-linejoin="round" stroke-miterlimit="10" stroke-width="2"/>
          <path id="Caminho_8885" data-name="Caminho 8885" d="M118.311,105.958V89.519a2.366,2.366,0,0,0-2.367-2.366h0a2.366,2.366,0,0,0-2.365,2.366V105.96" transform="translate(-100.23 -87.153)" fill="none" stroke="#e17000" stroke-linecap="round" stroke-linejoin="round" stroke-miterlimit="10" stroke-width="2"/>
          <path id="Caminho_8886" data-name="Caminho 8886" d="M97.573,460.236v4.995" transform="translate(-86.383 -409.899)" fill="none" stroke="#e17000" stroke-linecap="round" stroke-linejoin="round" stroke-miterlimit="10" stroke-width="2"/>
          <path id="Caminho_8887" data-name="Caminho 8887" d="M27.985,122.056V108.194a2.435,2.435,0,0,0-2.436-2.435h0a2.435,2.435,0,0,0-2.433,2.436l.009,19.881-1.659-.543a.955.955,0,0,1-.568-.5c-.336-.715-1.748-3.819-2.227-4.84a2.155,2.155,0,0,0-2.852-1.049,2.113,2.113,0,0,0-.985,2.79l2.759,5.971a1.846,1.846,0,0,0,.536.872s5.609,6.191,6.722,6.96c.224.232.344.352.393.4-.093-.1-.377-.4-.377-.4h.018a2.326,2.326,0,0,1,.94,1.828v6.272" transform="translate(-14.635 -103.249)" fill="none" stroke="#e17000" stroke-linecap="round" stroke-linejoin="round" stroke-miterlimit="10" stroke-width="2"/>
          <path id="Caminho_8888" data-name="Caminho 8888" d="M87.1,277.74c-1.328-7.242-7.017-5.614-9.547-6.575" transform="translate(-69.067 -246.338)" fill="none" stroke="#e17000" stroke-linecap="round" stroke-linejoin="round" stroke-miterlimit="10" stroke-width="2"/>
        </g>
        <path id="Caminho_8889" data-name="Caminho 8889" d="M86.587,390.875q-.656.017-1.337.017c-5.53,0-9.473-.882-9.473-1.969,0-.544,1.325-.782,2.764-.782" transform="translate(-67.528 -338.025)" fill="none" stroke="#e17000" stroke-linecap="round" stroke-linejoin="round" stroke-miterlimit="10" stroke-width="2"/>
        <path id="Caminho_8890" data-name="Caminho 8890" d="M87.236,409.4c-.374.061-10.8.34-10.8-1.643,0-1.027.607-1.213,2.609-1.858" transform="translate(-68.099 -353.383)" fill="none" stroke="#e17000" stroke-linecap="round" stroke-linejoin="round" stroke-miterlimit="10" stroke-width="2"/>
      </g>
      <g id="Grupo_4484" data-name="Grupo 4484" transform="translate(37.588 47.738)">
        <path id="Caminho_8891" data-name="Caminho 8891" d="M188.165,295.209v-7.235a1.7,1.7,0,0,0-1.683-1.7h0a1.7,1.7,0,0,0-1.717,1.7l-.007,15.837a4.534,4.534,0,0,0,1.653,3.545,1.675,1.675,0,0,1,.857,1.442v5.942" transform="translate(-184.757 -280.941)" fill="none" stroke="#e17000" stroke-linecap="round" stroke-linejoin="round" stroke-miterlimit="10" stroke-width="2"/>
        <path id="Caminho_8892" data-name="Caminho 8892" d="M213.711,273.687V263.242a1.849,1.849,0,0,0-1.848-1.849h0a1.849,1.849,0,0,0-1.849,1.849v10.444" transform="translate(-206.606 -259.417)" fill="none" stroke="#e17000" stroke-linecap="round" stroke-linejoin="round" stroke-miterlimit="10" stroke-width="2"/>
        <path id="Caminho_8893" data-name="Caminho 8893" d="M241.007,261.017V248.539a1.8,1.8,0,0,0-1.794-1.8h0a1.8,1.8,0,0,0-1.8,1.8v12.476" transform="translate(-230.311 -246.744)" fill="none" stroke="#e17000" stroke-linecap="round" stroke-linejoin="round" stroke-miterlimit="10" stroke-width="2"/>
        <path id="Caminho_8894" data-name="Caminho 8894" d="M265.669,292.757v-6.24a1.765,1.765,0,0,1,.714-1.387h.014s-.216.23-.286.3c.037-.038.128-.129.3-.305.845-.584,5.1-5.281,5.1-5.281a1.4,1.4,0,0,0,.407-.662l2.094-4.532a1.6,1.6,0,0,0-.748-2.117,1.635,1.635,0,0,0-2.164.8c-.364.775-1.435,3.13-1.69,3.673a.725.725,0,0,1-.431.381l-1.259.412.007-15.088a1.848,1.848,0,0,0-1.847-1.848h0a1.848,1.848,0,0,0-1.848,1.847v10.52" transform="translate(-253.334 -258.957)" fill="none" stroke="#e17000" stroke-linecap="round" stroke-linejoin="round" stroke-miterlimit="10" stroke-width="2"/>
        <path id="Caminho_8895" data-name="Caminho 8895" d="M236.376,386.388c-1.92.729-7.569-.506-8.576,4.99" transform="translate(-221.993 -367.547)" fill="none" stroke="#e17000" stroke-linecap="round" stroke-linejoin="round" stroke-miterlimit="10" stroke-width="2"/>
      </g>
    </g>
  </g>
</svg>
