<svg xmlns="http://www.w3.org/2000/svg" xmlns:xlink="http://www.w3.org/1999/xlink" width="655.2" height="126.061" viewBox="0 0 655.2 126.061">
  <defs>
    <filter id="Caminho_12363">
      <feOffset dy="3" input="SourceAlpha"/>
      <feGaussianBlur stdDeviation="1.5" result="blur"/>
      <feFlood flood-opacity="0.161" result="color"/>
      <feComposite operator="out" in="SourceGraphic" in2="blur"/>
      <feComposite operator="in" in="color"/>
      <feComposite operator="in" in2="SourceGraphic"/>
    </filter>
  </defs>
  <g data-type="innerShadowGroup">
    <path id="Caminho_12363-2" data-name="Caminho 12363" d="M5.4,63V17.5H25.09a25.582,25.582,0,0,1,10.53,1.983,15.419,15.419,0,0,1,6.825,5.688,15.877,15.877,0,0,1,2.4,8.84,15.6,15.6,0,0,1-2.4,8.742,15.292,15.292,0,0,1-6.825,5.623,25.954,25.954,0,0,1-10.53,1.95H11.245l4.68-4.615V63ZM34.32,63,22.945,46.49H34.19L45.695,63ZM15.925,46.88l-4.68-4.94h13.26q4.875,0,7.28-2.113A7.341,7.341,0,0,0,34.19,34.01a7.319,7.319,0,0,0-2.405-5.85q-2.405-2.08-7.28-2.08H11.245l4.68-5.005Zm46.93-11.05h21.9v8.19h-21.9Zm.78,18.72H88.4V63H53.17V17.5H87.555v8.45H63.635Zm54.925,9.23a27.231,27.231,0,0,1-9.783-1.722,22.718,22.718,0,0,1-13-12.382,23.524,23.524,0,0,1-1.852-9.425,23.524,23.524,0,0,1,1.852-9.425,22.542,22.542,0,0,1,5.2-7.475,23.4,23.4,0,0,1,7.832-4.908,27.157,27.157,0,0,1,9.815-1.722,26.884,26.884,0,0,1,10.693,2.048,20.831,20.831,0,0,1,8.027,6.013l-6.76,6.24a15.82,15.82,0,0,0-5.2-4,14.592,14.592,0,0,0-6.24-1.333,15.959,15.959,0,0,0-5.85,1.04,13.261,13.261,0,0,0-4.615,2.99,13.656,13.656,0,0,0-3.022,4.615,15.71,15.71,0,0,0-1.073,5.915,15.71,15.71,0,0,0,1.073,5.915,13.655,13.655,0,0,0,3.022,4.615,13.261,13.261,0,0,0,4.615,2.99,15.959,15.959,0,0,0,5.85,1.04,14.592,14.592,0,0,0,6.24-1.332,15.478,15.478,0,0,0,5.2-4.062l6.76,6.24a21.127,21.127,0,0,1-8.027,6.045A26.688,26.688,0,0,1,118.56,63.78Zm46.995,0a27.67,27.67,0,0,1-9.977-1.755,23.608,23.608,0,0,1-7.93-4.94,22.542,22.542,0,0,1-5.2-7.475,23.358,23.358,0,0,1-1.852-9.36,23.358,23.358,0,0,1,1.852-9.36,22.319,22.319,0,0,1,5.232-7.475,24.044,24.044,0,0,1,7.93-4.94,28.779,28.779,0,0,1,19.792,0,23.753,23.753,0,0,1,7.865,4.94A23.75,23.75,0,0,1,188.5,49.643a22.5,22.5,0,0,1-5.232,7.475,24.028,24.028,0,0,1-7.865,4.908A26.965,26.965,0,0,1,165.555,63.78Zm-.065-8.97a14.839,14.839,0,0,0,5.622-1.04,13.482,13.482,0,0,0,4.518-2.99,13.655,13.655,0,0,0,3.022-4.615,15.71,15.71,0,0,0,1.073-5.915,15.71,15.71,0,0,0-1.073-5.915,13.905,13.905,0,0,0-2.99-4.615,13.064,13.064,0,0,0-4.518-2.99,15.088,15.088,0,0,0-5.655-1.04,14.839,14.839,0,0,0-5.623,1.04,13.482,13.482,0,0,0-4.517,2.99,13.656,13.656,0,0,0-3.023,4.615,16.758,16.758,0,0,0,0,11.8,13.83,13.83,0,0,0,2.99,4.647,13.064,13.064,0,0,0,4.517,2.99A15.088,15.088,0,0,0,165.49,54.81ZM198.315,63V17.5h8.71L233.87,50.26h-4.225V17.5h10.4V63H231.4L204.49,30.24h4.225V63Zm83.72-45.5h10.53V63h-10.53ZM261.365,63h-10.53V17.5h10.53Zm21.45-18.655h-22.23V35.44h22.23ZM313.04,35.83h21.905v8.19H313.04Zm.78,18.72h24.765V63h-35.23V17.5H337.74v8.45H313.82Zm54.925,9.23a27.231,27.231,0,0,1-9.783-1.722,22.718,22.718,0,0,1-13-12.382,23.524,23.524,0,0,1-1.853-9.425,23.524,23.524,0,0,1,1.853-9.425,22.542,22.542,0,0,1,5.2-7.475,23.4,23.4,0,0,1,7.833-4.908,27.157,27.157,0,0,1,9.815-1.722A26.884,26.884,0,0,1,379.5,18.767a20.831,20.831,0,0,1,8.027,6.013l-6.76,6.24a15.82,15.82,0,0,0-5.2-4,14.592,14.592,0,0,0-6.24-1.333,15.959,15.959,0,0,0-5.85,1.04,13.261,13.261,0,0,0-4.615,2.99,13.655,13.655,0,0,0-3.023,4.615,15.71,15.71,0,0,0-1.072,5.915,15.71,15.71,0,0,0,1.072,5.915,13.655,13.655,0,0,0,3.023,4.615,13.261,13.261,0,0,0,4.615,2.99,15.959,15.959,0,0,0,5.85,1.04,14.592,14.592,0,0,0,6.24-1.332,15.477,15.477,0,0,0,5.2-4.062l6.76,6.24A21.127,21.127,0,0,1,379.5,61.7,26.688,26.688,0,0,1,368.745,63.78Zm25.87-.78V17.5h10.53V63Zm21.32,0V17.5h8.71l19.37,32.11H439.4L458.445,17.5h8.645l.13,45.5h-9.88l-.065-30.355h1.82L443.885,58.19H439.14L423.6,32.645h2.21V63Zm71.76-27.17h21.9v8.19h-21.9Zm.78,18.72H513.24V63H478.01V17.5H512.4v8.45h-23.92ZM521.625,63V17.5h8.71L557.18,50.26h-4.225V17.5h10.4V63H554.71L527.8,30.24h4.225V63Zm61.945,0V26.08H569.01V17.5h39.65v8.58H594.1V63Zm52.2.78a27.67,27.67,0,0,1-9.977-1.755,23.607,23.607,0,0,1-7.93-4.94,22.541,22.541,0,0,1-5.2-7.475,23.357,23.357,0,0,1-1.853-9.36,23.357,23.357,0,0,1,1.853-9.36,22.318,22.318,0,0,1,5.232-7.475,24.044,24.044,0,0,1,7.93-4.94,28.78,28.78,0,0,1,19.793,0,23.753,23.753,0,0,1,7.865,4.94,23.75,23.75,0,0,1,5.232,26.228,22.5,22.5,0,0,1-5.232,7.475,24.028,24.028,0,0,1-7.865,4.908A26.966,26.966,0,0,1,635.765,63.78Zm-.065-8.97a14.839,14.839,0,0,0,5.622-1.04,13.481,13.481,0,0,0,4.518-2.99,13.656,13.656,0,0,0,3.023-4.615,15.711,15.711,0,0,0,1.072-5.915,15.711,15.711,0,0,0-1.072-5.915,13.905,13.905,0,0,0-2.99-4.615,13.064,13.064,0,0,0-4.517-2.99,15.088,15.088,0,0,0-5.655-1.04,14.839,14.839,0,0,0-5.622,1.04,13.481,13.481,0,0,0-4.518,2.99,13.656,13.656,0,0,0-3.022,4.615,16.758,16.758,0,0,0,0,11.8,13.831,13.831,0,0,0,2.99,4.647,13.064,13.064,0,0,0,4.518,2.99A15.088,15.088,0,0,0,635.7,54.81ZM15.08,114.83h21.9v8.19H15.08Zm.78,18.72H40.625V142H5.4V96.5H39.78v8.45H15.86ZM67.4,142V96.5H87.1a25.582,25.582,0,0,1,10.53,1.982,15.419,15.419,0,0,1,6.825,5.687,15.878,15.878,0,0,1,2.4,8.84,15.6,15.6,0,0,1-2.4,8.743,15.292,15.292,0,0,1-6.825,5.622,25.954,25.954,0,0,1-10.53,1.95H73.255l4.68-4.615V142Zm28.925,0L84.955,125.49H96.2L107.7,142ZM77.935,125.88l-4.68-4.94h13.26q4.875,0,7.28-2.113a8.278,8.278,0,0,0,0-11.667q-2.4-2.08-7.28-2.08H73.255l4.68-5.005Zm46.93-11.05h21.9v8.19h-21.9Zm.78,18.72H150.41V142H115.18V96.5h34.385v8.45h-23.92Zm54.925,9.23a27.232,27.232,0,0,1-9.783-1.723,22.718,22.718,0,0,1-13-12.382,24.9,24.9,0,0,1,0-18.85,22.542,22.542,0,0,1,5.2-7.475,23.4,23.4,0,0,1,7.833-4.908,27.157,27.157,0,0,1,9.815-1.722,26.884,26.884,0,0,1,10.693,2.048,20.831,20.831,0,0,1,8.027,6.012l-6.76,6.24a15.82,15.82,0,0,0-5.2-4,14.592,14.592,0,0,0-6.24-1.332,15.959,15.959,0,0,0-5.85,1.04,13.262,13.262,0,0,0-4.615,2.99,13.655,13.655,0,0,0-3.023,4.615,16.847,16.847,0,0,0,0,11.83,13.656,13.656,0,0,0,3.023,4.615,13.261,13.261,0,0,0,4.615,2.99,15.959,15.959,0,0,0,5.85,1.04,14.592,14.592,0,0,0,6.24-1.333,15.477,15.477,0,0,0,5.2-4.062l6.76,6.24a21.127,21.127,0,0,1-8.027,6.045A26.688,26.688,0,0,1,180.57,142.78Zm46.995,0a27.67,27.67,0,0,1-9.977-1.755,23.607,23.607,0,0,1-7.93-4.94,22.542,22.542,0,0,1-5.2-7.475,24.573,24.573,0,0,1,0-18.72,22.319,22.319,0,0,1,5.232-7.475,24.044,24.044,0,0,1,7.93-4.94,28.78,28.78,0,0,1,19.792,0,23.753,23.753,0,0,1,7.865,4.94,23.75,23.75,0,0,1,5.232,26.228,22.5,22.5,0,0,1-5.232,7.475,24.028,24.028,0,0,1-7.865,4.908A26.965,26.965,0,0,1,227.565,142.78Zm-.065-8.97a14.839,14.839,0,0,0,5.622-1.04,13.481,13.481,0,0,0,4.517-2.99,13.656,13.656,0,0,0,3.023-4.615,16.847,16.847,0,0,0,0-11.83,13.905,13.905,0,0,0-2.99-4.615,13.064,13.064,0,0,0-4.517-2.99,15.088,15.088,0,0,0-5.655-1.04,14.839,14.839,0,0,0-5.623,1.04,13.482,13.482,0,0,0-4.518,2.99,13.655,13.655,0,0,0-3.022,4.615,16.758,16.758,0,0,0,0,11.8,13.83,13.83,0,0,0,2.99,4.647,13.064,13.064,0,0,0,4.518,2.99A15.088,15.088,0,0,0,227.5,133.81ZM260.325,142V96.5h8.71l19.37,32.11H283.79L302.835,96.5h8.645l.13,45.5h-9.88l-.065-30.355h1.82l-15.21,25.545H283.53l-15.535-25.545h2.21V142Zm62.075,0V96.5h19.7a25.582,25.582,0,0,1,10.53,1.982,15.419,15.419,0,0,1,6.825,5.687,17.33,17.33,0,0,1,0,17.615,15.419,15.419,0,0,1-6.825,5.688,25.582,25.582,0,0,1-10.53,1.983H328.25l4.68-4.745V142Zm10.53-16.12-4.68-5h13.26q4.875,0,7.28-2.08a7.242,7.242,0,0,0,2.4-5.785,7.319,7.319,0,0,0-2.4-5.85q-2.4-2.08-7.28-2.08H328.25l4.68-5.005Zm46.085-11.05h21.9v8.19h-21.9Zm.78,18.72H404.56V142H369.33V96.5h34.385v8.45H379.8Zm33.15,8.45V96.5h8.71L448.5,129.26h-4.225V96.5h10.4V142H446.03l-26.91-32.76h4.225V142Zm67.47.78a37.122,37.122,0,0,1-10.465-1.462,24.485,24.485,0,0,1-8.06-3.8l3.575-7.93A26.119,26.119,0,0,0,472.387,133a25.44,25.44,0,0,0,8.092,1.333,16.855,16.855,0,0,0,5.038-.618,5.9,5.9,0,0,0,2.827-1.722,3.875,3.875,0,0,0,.91-2.535,3.429,3.429,0,0,0-1.43-2.893,11.742,11.742,0,0,0-3.77-1.755q-2.34-.682-5.168-1.3t-5.655-1.528a23.918,23.918,0,0,1-5.168-2.34,11.5,11.5,0,0,1-3.8-3.77,11.115,11.115,0,0,1-1.462-5.98,12.7,12.7,0,0,1,2.112-7.118,14.451,14.451,0,0,1,6.37-5.135,26.081,26.081,0,0,1,10.693-1.917,35.772,35.772,0,0,1,8.45,1.007,24.35,24.35,0,0,1,7.345,3.022l-3.25,7.995a27.658,27.658,0,0,0-6.37-2.7,23.431,23.431,0,0,0-6.24-.878,14.759,14.759,0,0,0-5.005.715,5.9,5.9,0,0,0-2.795,1.853,4.3,4.3,0,0,0-.845,2.632,3.367,3.367,0,0,0,1.43,2.827,11.293,11.293,0,0,0,3.77,1.723q2.34.65,5.168,1.3t5.655,1.495a21.864,21.864,0,0,1,5.168,2.275,11.5,11.5,0,0,1,3.8,3.77,10.981,10.981,0,0,1,1.462,5.915,12.3,12.3,0,0,1-2.145,7.02,14.984,14.984,0,0,1-6.4,5.135A25.882,25.882,0,0,1,480.415,142.78Zm20.54-.78,20.28-45.5h10.4L551.98,142H540.93l-16.64-40.17h4.16L511.745,142Zm10.14-9.75,2.795-8h23.4l2.86,8Z" transform="translate(-5.395 -16.72)" fill="#fff"/>
    <g transform="matrix(1, 0, 0, 1, 0, 0)" filter="url(#Caminho_12363)">
      <path id="Caminho_12363-3" data-name="Caminho 12363" d="M5.4,63V17.5H25.09a25.582,25.582,0,0,1,10.53,1.983,15.419,15.419,0,0,1,6.825,5.688,15.877,15.877,0,0,1,2.4,8.84,15.6,15.6,0,0,1-2.4,8.742,15.292,15.292,0,0,1-6.825,5.623,25.954,25.954,0,0,1-10.53,1.95H11.245l4.68-4.615V63ZM34.32,63,22.945,46.49H34.19L45.695,63ZM15.925,46.88l-4.68-4.94h13.26q4.875,0,7.28-2.113A7.341,7.341,0,0,0,34.19,34.01a7.319,7.319,0,0,0-2.405-5.85q-2.405-2.08-7.28-2.08H11.245l4.68-5.005Zm46.93-11.05h21.9v8.19h-21.9Zm.78,18.72H88.4V63H53.17V17.5H87.555v8.45H63.635Zm54.925,9.23a27.231,27.231,0,0,1-9.783-1.722,22.718,22.718,0,0,1-13-12.382,23.524,23.524,0,0,1-1.852-9.425,23.524,23.524,0,0,1,1.852-9.425,22.542,22.542,0,0,1,5.2-7.475,23.4,23.4,0,0,1,7.832-4.908,27.157,27.157,0,0,1,9.815-1.722,26.884,26.884,0,0,1,10.693,2.048,20.831,20.831,0,0,1,8.027,6.013l-6.76,6.24a15.82,15.82,0,0,0-5.2-4,14.592,14.592,0,0,0-6.24-1.333,15.959,15.959,0,0,0-5.85,1.04,13.261,13.261,0,0,0-4.615,2.99,13.656,13.656,0,0,0-3.022,4.615,15.71,15.71,0,0,0-1.073,5.915,15.71,15.71,0,0,0,1.073,5.915,13.655,13.655,0,0,0,3.022,4.615,13.261,13.261,0,0,0,4.615,2.99,15.959,15.959,0,0,0,5.85,1.04,14.592,14.592,0,0,0,6.24-1.332,15.478,15.478,0,0,0,5.2-4.062l6.76,6.24a21.127,21.127,0,0,1-8.027,6.045A26.688,26.688,0,0,1,118.56,63.78Zm46.995,0a27.67,27.67,0,0,1-9.977-1.755,23.608,23.608,0,0,1-7.93-4.94,22.542,22.542,0,0,1-5.2-7.475,23.358,23.358,0,0,1-1.852-9.36,23.358,23.358,0,0,1,1.852-9.36,22.319,22.319,0,0,1,5.232-7.475,24.044,24.044,0,0,1,7.93-4.94,28.779,28.779,0,0,1,19.792,0,23.753,23.753,0,0,1,7.865,4.94A23.75,23.75,0,0,1,188.5,49.643a22.5,22.5,0,0,1-5.232,7.475,24.028,24.028,0,0,1-7.865,4.908A26.965,26.965,0,0,1,165.555,63.78Zm-.065-8.97a14.839,14.839,0,0,0,5.622-1.04,13.482,13.482,0,0,0,4.518-2.99,13.655,13.655,0,0,0,3.022-4.615,15.71,15.71,0,0,0,1.073-5.915,15.71,15.71,0,0,0-1.073-5.915,13.905,13.905,0,0,0-2.99-4.615,13.064,13.064,0,0,0-4.518-2.99,15.088,15.088,0,0,0-5.655-1.04,14.839,14.839,0,0,0-5.623,1.04,13.482,13.482,0,0,0-4.517,2.99,13.656,13.656,0,0,0-3.023,4.615,16.758,16.758,0,0,0,0,11.8,13.83,13.83,0,0,0,2.99,4.647,13.064,13.064,0,0,0,4.517,2.99A15.088,15.088,0,0,0,165.49,54.81ZM198.315,63V17.5h8.71L233.87,50.26h-4.225V17.5h10.4V63H231.4L204.49,30.24h4.225V63Zm83.72-45.5h10.53V63h-10.53ZM261.365,63h-10.53V17.5h10.53Zm21.45-18.655h-22.23V35.44h22.23ZM313.04,35.83h21.905v8.19H313.04Zm.78,18.72h24.765V63h-35.23V17.5H337.74v8.45H313.82Zm54.925,9.23a27.231,27.231,0,0,1-9.783-1.722,22.718,22.718,0,0,1-13-12.382,23.524,23.524,0,0,1-1.853-9.425,23.524,23.524,0,0,1,1.853-9.425,22.542,22.542,0,0,1,5.2-7.475,23.4,23.4,0,0,1,7.833-4.908,27.157,27.157,0,0,1,9.815-1.722A26.884,26.884,0,0,1,379.5,18.767a20.831,20.831,0,0,1,8.027,6.013l-6.76,6.24a15.82,15.82,0,0,0-5.2-4,14.592,14.592,0,0,0-6.24-1.333,15.959,15.959,0,0,0-5.85,1.04,13.261,13.261,0,0,0-4.615,2.99,13.655,13.655,0,0,0-3.023,4.615,15.71,15.71,0,0,0-1.072,5.915,15.71,15.71,0,0,0,1.072,5.915,13.655,13.655,0,0,0,3.023,4.615,13.261,13.261,0,0,0,4.615,2.99,15.959,15.959,0,0,0,5.85,1.04,14.592,14.592,0,0,0,6.24-1.332,15.477,15.477,0,0,0,5.2-4.062l6.76,6.24A21.127,21.127,0,0,1,379.5,61.7,26.688,26.688,0,0,1,368.745,63.78Zm25.87-.78V17.5h10.53V63Zm21.32,0V17.5h8.71l19.37,32.11H439.4L458.445,17.5h8.645l.13,45.5h-9.88l-.065-30.355h1.82L443.885,58.19H439.14L423.6,32.645h2.21V63Zm71.76-27.17h21.9v8.19h-21.9Zm.78,18.72H513.24V63H478.01V17.5H512.4v8.45h-23.92ZM521.625,63V17.5h8.71L557.18,50.26h-4.225V17.5h10.4V63H554.71L527.8,30.24h4.225V63Zm61.945,0V26.08H569.01V17.5h39.65v8.58H594.1V63Zm52.2.78a27.67,27.67,0,0,1-9.977-1.755,23.607,23.607,0,0,1-7.93-4.94,22.541,22.541,0,0,1-5.2-7.475,23.357,23.357,0,0,1-1.853-9.36,23.357,23.357,0,0,1,1.853-9.36,22.318,22.318,0,0,1,5.232-7.475,24.044,24.044,0,0,1,7.93-4.94,28.78,28.78,0,0,1,19.793,0,23.753,23.753,0,0,1,7.865,4.94,23.75,23.75,0,0,1,5.232,26.228,22.5,22.5,0,0,1-5.232,7.475,24.028,24.028,0,0,1-7.865,4.908A26.966,26.966,0,0,1,635.765,63.78Zm-.065-8.97a14.839,14.839,0,0,0,5.622-1.04,13.481,13.481,0,0,0,4.518-2.99,13.656,13.656,0,0,0,3.023-4.615,15.711,15.711,0,0,0,1.072-5.915,15.711,15.711,0,0,0-1.072-5.915,13.905,13.905,0,0,0-2.99-4.615,13.064,13.064,0,0,0-4.517-2.99,15.088,15.088,0,0,0-5.655-1.04,14.839,14.839,0,0,0-5.622,1.04,13.481,13.481,0,0,0-4.518,2.99,13.656,13.656,0,0,0-3.022,4.615,16.758,16.758,0,0,0,0,11.8,13.831,13.831,0,0,0,2.99,4.647,13.064,13.064,0,0,0,4.518,2.99A15.088,15.088,0,0,0,635.7,54.81ZM15.08,114.83h21.9v8.19H15.08Zm.78,18.72H40.625V142H5.4V96.5H39.78v8.45H15.86ZM67.4,142V96.5H87.1a25.582,25.582,0,0,1,10.53,1.982,15.419,15.419,0,0,1,6.825,5.687,15.878,15.878,0,0,1,2.4,8.84,15.6,15.6,0,0,1-2.4,8.743,15.292,15.292,0,0,1-6.825,5.622,25.954,25.954,0,0,1-10.53,1.95H73.255l4.68-4.615V142Zm28.925,0L84.955,125.49H96.2L107.7,142ZM77.935,125.88l-4.68-4.94h13.26q4.875,0,7.28-2.113a8.278,8.278,0,0,0,0-11.667q-2.4-2.08-7.28-2.08H73.255l4.68-5.005Zm46.93-11.05h21.9v8.19h-21.9Zm.78,18.72H150.41V142H115.18V96.5h34.385v8.45h-23.92Zm54.925,9.23a27.232,27.232,0,0,1-9.783-1.723,22.718,22.718,0,0,1-13-12.382,24.9,24.9,0,0,1,0-18.85,22.542,22.542,0,0,1,5.2-7.475,23.4,23.4,0,0,1,7.833-4.908,27.157,27.157,0,0,1,9.815-1.722,26.884,26.884,0,0,1,10.693,2.048,20.831,20.831,0,0,1,8.027,6.012l-6.76,6.24a15.82,15.82,0,0,0-5.2-4,14.592,14.592,0,0,0-6.24-1.332,15.959,15.959,0,0,0-5.85,1.04,13.262,13.262,0,0,0-4.615,2.99,13.655,13.655,0,0,0-3.023,4.615,16.847,16.847,0,0,0,0,11.83,13.656,13.656,0,0,0,3.023,4.615,13.261,13.261,0,0,0,4.615,2.99,15.959,15.959,0,0,0,5.85,1.04,14.592,14.592,0,0,0,6.24-1.333,15.477,15.477,0,0,0,5.2-4.062l6.76,6.24a21.127,21.127,0,0,1-8.027,6.045A26.688,26.688,0,0,1,180.57,142.78Zm46.995,0a27.67,27.67,0,0,1-9.977-1.755,23.607,23.607,0,0,1-7.93-4.94,22.542,22.542,0,0,1-5.2-7.475,24.573,24.573,0,0,1,0-18.72,22.319,22.319,0,0,1,5.232-7.475,24.044,24.044,0,0,1,7.93-4.94,28.78,28.78,0,0,1,19.792,0,23.753,23.753,0,0,1,7.865,4.94,23.75,23.75,0,0,1,5.232,26.228,22.5,22.5,0,0,1-5.232,7.475,24.028,24.028,0,0,1-7.865,4.908A26.965,26.965,0,0,1,227.565,142.78Zm-.065-8.97a14.839,14.839,0,0,0,5.622-1.04,13.481,13.481,0,0,0,4.517-2.99,13.656,13.656,0,0,0,3.023-4.615,16.847,16.847,0,0,0,0-11.83,13.905,13.905,0,0,0-2.99-4.615,13.064,13.064,0,0,0-4.517-2.99,15.088,15.088,0,0,0-5.655-1.04,14.839,14.839,0,0,0-5.623,1.04,13.482,13.482,0,0,0-4.518,2.99,13.655,13.655,0,0,0-3.022,4.615,16.758,16.758,0,0,0,0,11.8,13.83,13.83,0,0,0,2.99,4.647,13.064,13.064,0,0,0,4.518,2.99A15.088,15.088,0,0,0,227.5,133.81ZM260.325,142V96.5h8.71l19.37,32.11H283.79L302.835,96.5h8.645l.13,45.5h-9.88l-.065-30.355h1.82l-15.21,25.545H283.53l-15.535-25.545h2.21V142Zm62.075,0V96.5h19.7a25.582,25.582,0,0,1,10.53,1.982,15.419,15.419,0,0,1,6.825,5.687,17.33,17.33,0,0,1,0,17.615,15.419,15.419,0,0,1-6.825,5.688,25.582,25.582,0,0,1-10.53,1.983H328.25l4.68-4.745V142Zm10.53-16.12-4.68-5h13.26q4.875,0,7.28-2.08a7.242,7.242,0,0,0,2.4-5.785,7.319,7.319,0,0,0-2.4-5.85q-2.4-2.08-7.28-2.08H328.25l4.68-5.005Zm46.085-11.05h21.9v8.19h-21.9Zm.78,18.72H404.56V142H369.33V96.5h34.385v8.45H379.8Zm33.15,8.45V96.5h8.71L448.5,129.26h-4.225V96.5h10.4V142H446.03l-26.91-32.76h4.225V142Zm67.47.78a37.122,37.122,0,0,1-10.465-1.462,24.485,24.485,0,0,1-8.06-3.8l3.575-7.93A26.119,26.119,0,0,0,472.387,133a25.44,25.44,0,0,0,8.092,1.333,16.855,16.855,0,0,0,5.038-.618,5.9,5.9,0,0,0,2.827-1.722,3.875,3.875,0,0,0,.91-2.535,3.429,3.429,0,0,0-1.43-2.893,11.742,11.742,0,0,0-3.77-1.755q-2.34-.682-5.168-1.3t-5.655-1.528a23.918,23.918,0,0,1-5.168-2.34,11.5,11.5,0,0,1-3.8-3.77,11.115,11.115,0,0,1-1.462-5.98,12.7,12.7,0,0,1,2.112-7.118,14.451,14.451,0,0,1,6.37-5.135,26.081,26.081,0,0,1,10.693-1.917,35.772,35.772,0,0,1,8.45,1.007,24.35,24.35,0,0,1,7.345,3.022l-3.25,7.995a27.658,27.658,0,0,0-6.37-2.7,23.431,23.431,0,0,0-6.24-.878,14.759,14.759,0,0,0-5.005.715,5.9,5.9,0,0,0-2.795,1.853,4.3,4.3,0,0,0-.845,2.632,3.367,3.367,0,0,0,1.43,2.827,11.293,11.293,0,0,0,3.77,1.723q2.34.65,5.168,1.3t5.655,1.495a21.864,21.864,0,0,1,5.168,2.275,11.5,11.5,0,0,1,3.8,3.77,10.981,10.981,0,0,1,1.462,5.915,12.3,12.3,0,0,1-2.145,7.02,14.984,14.984,0,0,1-6.4,5.135A25.882,25.882,0,0,1,480.415,142.78Zm20.54-.78,20.28-45.5h10.4L551.98,142H540.93l-16.64-40.17h4.16L511.745,142Zm10.14-9.75,2.795-8h23.4l2.86,8Z" transform="translate(-5.39 -16.72)" fill="#fff"/>
    </g>
  </g>
</svg>
