<svg xmlns="http://www.w3.org/2000/svg" width="104" height="104" viewBox="0 0 104 104">
  <g id="Grupo_4490" data-name="Grupo 4490" transform="translate(-887 -2240)">
    <g id="Grupo_4487" data-name="Grupo 4487" transform="translate(0 -44)">
      <g id="Elipse_177" data-name="Elipse 177" transform="translate(893 2290)" fill="#fff" stroke="#c70777" stroke-width="6">
        <circle cx="46" cy="46" r="46" stroke="none"/>
        <circle cx="46" cy="46" r="49" fill="none"/>
      </g>
    </g>
    <path id="Caminho_8896" data-name="Caminho 8896" d="M105.265,111.754h-5.7a4.048,4.048,0,0,0-.991-1.621l-4.26-4.253L78.224,92.164h-.01a.609.609,0,0,0-.07-.05c-.015-.009-.028-.019-.043-.026a.677.677,0,0,0-.075-.032c-.016,0-.032-.015-.048-.019a.708.708,0,0,0-.076-.016c-.019,0-.037-.009-.054-.01a.635.635,0,0,0-.075,0,.4.4,0,0,0-.059,0,.536.536,0,0,0-.065.01l-.067.015-.054.021c-.023.01-.048.019-.072.031h-.013L65.857,98.516a3.781,3.781,0,0,1-5.4-1.173l-.047-.081a3.763,3.763,0,0,1,1.027-4.995L72.724,84.1a12.012,12.012,0,0,1,11.283-1.519l14.252,5.345a.688.688,0,0,0,.243.044h6.753a.691.691,0,0,0,0-1.38H98.627L84.5,81.284a13.382,13.382,0,0,0-12.577,1.694l-4.986,3.6-22.551-.4a.691.691,0,0,0-.025,1.38l20.726.368-4.442,3.215a5.133,5.133,0,0,0-1.414,6.818l.047.081a5.155,5.155,0,0,0,4.441,2.525,5.062,5.062,0,0,0,2.868-.88l11.11-6.159,15.683,13.358,4.221,4.221a2.691,2.691,0,0,1,0,3.8l-.05.05a2.691,2.691,0,0,1-3.8,0l-4.221-4.221a.691.691,0,1,0-.975.977l4.221,4.219a2.69,2.69,0,0,1,0,3.8l-.05.05a2.756,2.756,0,0,1-3.8,0l-4.216-4.219a.691.691,0,0,0-.975.977l4.219,4.219a2.665,2.665,0,0,1,.788,1.906,2.712,2.712,0,0,1-.834,1.948,2.75,2.75,0,0,1-3.8,0l-4.221-4.219a.69.69,0,1,0-.975.975l4.219,4.219a2.688,2.688,0,0,1,0,3.8l-.05.05a2.738,2.738,0,0,1-3.822-.022l-3.775-3.454a4.028,4.028,0,0,0,.733-2.321,4.083,4.083,0,0,0-1.249-2.924,4.042,4.042,0,0,0-2.874-1.191,4.107,4.107,0,0,0-.785.076,4.106,4.106,0,0,0,.076-.785,4.043,4.043,0,0,0-1.189-2.874l-.05-.05a4.039,4.039,0,0,0-2.876-1.191,4.149,4.149,0,0,0-.79.076,4.133,4.133,0,0,0-1.159-3.709,4.036,4.036,0,0,0-2.874-1.191,4.088,4.088,0,0,0-.785.075,4.088,4.088,0,0,0,.075-.785,4.034,4.034,0,0,0-1.189-2.873l-.05-.05a4.067,4.067,0,0,0-5.75,0l-3.628,3.633H44.369a.689.689,0,1,0,0,1.379h5.542a4.075,4.075,0,0,0,.617,4.961l.048.047a4.033,4.033,0,0,0,2.874,1.191,4.086,4.086,0,0,0,.783-.076,4.235,4.235,0,0,0-.075.785,4.043,4.043,0,0,0,1.189,2.874l.048.048h0a4.039,4.039,0,0,0,2.876,1.191,4.131,4.131,0,0,0,.788-.076,4.07,4.07,0,0,0,1.113,3.666l.048.048A4.055,4.055,0,0,0,63.1,127.1a4.159,4.159,0,0,0,.785-.076,4.116,4.116,0,0,0-.076.786A4.039,4.039,0,0,0,65,130.687l.047.047a4.067,4.067,0,0,0,5.75,0l3.754-3.754L78.3,130.4a4.068,4.068,0,0,0,5.75,0l.05-.048a4.071,4.071,0,0,0,1.112-3.666,4.11,4.11,0,0,0,4.828-4.82,4.106,4.106,0,0,0,.785.075,4.037,4.037,0,0,0,2.874-1.189l.05-.05a4.042,4.042,0,0,0,1.191-2.874,4.122,4.122,0,0,0-.076-.788,4.073,4.073,0,0,0,3.659-1.112l.05-.05a4.055,4.055,0,0,0,1.186-2.747h5.505a.689.689,0,1,0,0-1.379Zm-53.714,3.531-.051-.048a2.691,2.691,0,0,1,0-3.8l4.221-4.221a2.751,2.751,0,0,1,3.8,0l.05.05a2.685,2.685,0,0,1,0,3.8l-4.221,4.221a2.751,2.751,0,0,1-3.8,0Zm4.825,4.825-.048-.05a2.685,2.685,0,0,1,0-3.8l4.219-4.221a2.669,2.669,0,0,1,1.906-.786,2.735,2.735,0,0,1,1.948,4.634l-4.226,4.218a2.753,2.753,0,0,1-3.8,0Zm4.823,4.822-.05-.048a2.691,2.691,0,0,1,0-3.8l4.221-4.221a2.753,2.753,0,0,1,3.8,0l.05.05a2.685,2.685,0,0,1,0,3.8L65,124.933A2.691,2.691,0,0,1,61.2,124.932Zm8.623,4.823a2.75,2.75,0,0,1-3.8,0l-.048-.048a2.685,2.685,0,0,1,0-3.8l4.219-4.221A2.675,2.675,0,0,1,72.1,120.9a2.72,2.72,0,0,1,1.948,4.634Z" transform="translate(864.074 2186.993)" fill="#c70777" stroke="#c70777" stroke-width="1"/>
  </g>
</svg>
