<svg xmlns="http://www.w3.org/2000/svg" width="107" height="103.011" viewBox="0 0 107 103.011">
  <g id="Sleep_test_tracking" transform="translate(-29.68 -38.118)">
    <path id="Caminho_6283" data-name="Caminho 6283" d="M85.885,148.3H71.667a1.418,1.418,0,0,0,0,2.837H85.885a1.418,1.418,0,1,0,0-2.837Z" transform="translate(-30.979 -84.136)" fill="#4b908d"/>
    <path id="Caminho_6284" data-name="Caminho 6284" d="M78.767,167.209h-7.1a1.418,1.418,0,1,0,0,2.837h7.1a1.418,1.418,0,1,0,0-2.837Z" transform="translate(-30.979 -98.575)" fill="#4b908d"/>
    <path id="Caminho_6285" data-name="Caminho 6285" d="M315.657,139.2H311.45l-.908-2.056a2.416,2.416,0,0,0-4.349-.148l-1.159,2.2h-3.7l-1.517-4.962a2.416,2.416,0,0,0-4.689.28l-1.9,10.614c-.014.077-.033.136-.163.134s-.147-.064-.158-.141l-1.367-9.968a2.416,2.416,0,0,0-4.714-.347l-1.238,4.255h-3.971a1.418,1.418,0,0,0,0,2.837H285.9a2.428,2.428,0,0,0,2.32-1.741l.774-2.661,1.1,8.011A2.95,2.95,0,0,0,293,148.1h.067a2.948,2.948,0,0,0,2.947-2.47l1.6-8.9,1.1,3.6a2.4,2.4,0,0,0,2.311,1.71h4.265a2.411,2.411,0,0,0,2.139-1.291l.872-1.659.667,1.51a2.418,2.418,0,0,0,2.21,1.44h4.481a1.418,1.418,0,1,0,0-2.837Z" transform="translate(-191.296 -72.09)" fill="#4b908d"/>
    <path id="Caminho_6286" data-name="Caminho 6286" d="M308.106,273.613h4.436a1.091,1.091,0,0,1,1.091,1.091v13.119a1.091,1.091,0,0,1-1.091,1.091h-4.436a1.091,1.091,0,0,1-1.091-1.091V274.7a1.091,1.091,0,0,1,1.091-1.091Z" transform="translate(-211.776 -179.826)" fill="#4b908d"/>
    <path id="Caminho_6287" data-name="Caminho 6287" d="M346.73,299.1h4.436a1.091,1.091,0,0,1,1.091,1.091v7.094a1.091,1.091,0,0,1-1.091,1.091h-4.436a1.091,1.091,0,0,1-1.091-1.091V300.19a1.091,1.091,0,0,1,1.091-1.091Z" transform="translate(-241.269 -199.287)" fill="#4b908d"/>
    <path id="Caminho_6288" data-name="Caminho 6288" d="M385.353,258.046h4.436a1.091,1.091,0,0,1,1.091,1.091v16.8a1.091,1.091,0,0,1-1.091,1.091h-4.436a1.091,1.091,0,0,1-1.091-1.091v-16.8A1.091,1.091,0,0,1,385.353,258.046Z" transform="translate(-270.762 -167.939)" fill="#4b908d"/>
    <path id="Caminho_6289" data-name="Caminho 6289" d="M129.3,38.118H85.38A7.383,7.383,0,0,0,78,45.5V66.8H62.026V63.183A4.689,4.689,0,0,0,57.342,58.5H38.235a4.689,4.689,0,0,0-4.684,4.684v10.08a4.689,4.689,0,0,0,4.684,4.684H57.342a4.689,4.689,0,0,0,4.684-4.684V69.641H78V91.464H67.444a8.265,8.265,0,0,0-8.255,8.255v3.468a1.418,1.418,0,0,0,2.837,0V99.719A5.425,5.425,0,0,1,67.444,94.3H78V112.11a2.144,2.144,0,0,0-2.144-2.144H51.792a2.143,2.143,0,0,0-2.134,1.961v-.2a5.251,5.251,0,0,0-5.245-5.245h-4.7V98.221a2.985,2.985,0,0,0-2.981-2.981H32.661a2.985,2.985,0,0,0-2.981,2.981v39.927a2.985,2.985,0,0,0,2.981,2.981H36.73a2.985,2.985,0,0,0,2.981-2.981v-5.187h9.937v.673a2.144,2.144,0,0,0,2.144,2.144H75.17v2.369a2.985,2.985,0,0,0,2.981,2.981H82.93a2.979,2.979,0,0,0,2.533-1.417H129.3a7.383,7.383,0,0,0,7.383-7.383V45.5a7.383,7.383,0,0,0-7.383-7.383ZM59.189,73.262a1.849,1.849,0,0,1-1.847,1.847H38.235a1.849,1.849,0,0,1-1.847-1.847V63.183a1.849,1.849,0,0,1,1.847-1.847H57.342a1.849,1.849,0,0,1,1.847,1.847ZM36.875,138.147a.145.145,0,0,1-.145.145H32.661a.145.145,0,0,1-.145-.145V98.221a.145.145,0,0,1,.145-.145H36.73a.145.145,0,0,1,.145.145Zm2.837-28.862.043.031h4.658a2.411,2.411,0,0,1,2.408,2.408v1.059h-7.11Zm9.937,20.839H39.711V124.29h9.937Zm0-8.67H39.711V115.62h9.937ZM111.692,41.81h2.669a1.418,1.418,0,1,1,0,2.837h-2.669a1.418,1.418,0,0,1,0-2.837Zm-11.376,0h6.672a1.418,1.418,0,0,1,0,2.837h-6.672a1.418,1.418,0,1,1,0-2.837ZM83.075,138.147a.145.145,0,0,1-.145.145H78.151a.145.145,0,0,1-.145-.145V115.62H82.93a.147.147,0,0,1,.145.145Zm49.732-6.857a4.243,4.243,0,0,1-4.243,4.243H86.114c-.069,0-.135-.007-.2-.01V115.765a2.985,2.985,0,0,0-2.981-2.981H81.871V94.3h6.8c.041,0,.081,0,.122-.006v15.734a5.135,5.135,0,0,0,5.135,5.135h27.5a5.135,5.135,0,0,0,5.135-5.135V86.968a5.135,5.135,0,0,0-5.135-5.135h-27.5A5.135,5.135,0,0,0,88.8,86.968v4.5c-.04,0-.081-.006-.122-.006h-6.8V69.641h2.78a1.418,1.418,0,1,0,0-2.837h-2.78V52.376a4.243,4.243,0,0,1,4.243-4.243h42.449a4.243,4.243,0,0,1,4.243,4.243ZM91.632,110.028V86.968a2.3,2.3,0,0,1,2.3-2.3h27.5a2.3,2.3,0,0,1,2.3,2.3v23.061a2.3,2.3,0,0,1-2.3,2.3h-27.5A2.3,2.3,0,0,1,91.632,110.028Z" transform="translate(0)" fill="#4b908d"/>
  </g>
</svg>
